<svg xmlns="http://www.w3.org/2000/svg" viewBox="0 0 1084.54 816.71">
  <g data-name="Layer 2">
    <g data-name="Layer 1">
      <path d="m718.74 184.34 16.13-19c-18.77-16.37-9-52.15 14.74-59.76s50.88 11.31 55.64 35.75c.61 3.12 1 6.44 2.8 9 4.86 7 16.25 4.06 22.13-2.06s9.32-14.53 16.17-19.53c9.2-6.72 21.77-5.46 33-3.9 2.81.38 5.8.85 7.9 2.75 5.45 4.93.7 13.79-4.12 19.34q-16.36 18.79-32.72 37.6c11.86-7.91 29.37.75 34.52 14.05s.9 28.49-6.08 40.93c8.46 4.12 15.17-12.13 24.47-10.75 6.43 1 8.26 9.08 11.56 14.67 12.3 20.8 54.24 13.12 58.44 36.92.92 5.22-.61 10.52-1.16 15.79-1.75 17 6.87 33.3 9.26 50.26 4.76 33.82-15.24 65.64-34.37 93.94l-23.84 35.26c-4.81 7.12-9.64 14.27-15.45 20.6-3 3.24-6.18 6.25-9.39 9.26l-10.24 9.6c-5.18 4.86-10.39 9.73-16.29 13.67-25.2 16.86-60.84 15.12-82.63 36.27-13.06 12.66-18.86 31.69-32.86 43.3-23.57 19.53-61.35 11.35-85.85 29.7-8.2 6.12-14.16 14.71-21.08 22.25-31.83 34.71-87 45.39-129.5 25-13.17-6.31-26.83-15.51-41-12.22-21.93 5.08-33 37.6-55.36 35.07a11.69 11.69 0 0 1-5.43-1.84c-7.32-5.14-1.78-17 5.66-22s17.25-8.81 19.32-17.51l-52.7-49.95c-7.31-6.93-17.38-14.38-26.48-10.06-4 1.88-6.91 5.81-11.18 6.86-5.08 1.25-10-1.94-14.68-4.35-26.06-13.51-57.81-4.13-86.84-8.47-3.47-.52-7.3-1.51-9.1-4.51-1.57-2.61-1.09-5.9-.57-8.89l8.28-47.29c3.16-4.4 10.32-1 13.35 3.47s5.47 10.41 10.77 11.51c3.52.74 7-1 10.18-2.74l17.54-9.5c5.19-2.81 11.26-8.22 8.44-13.4-1.82-3.35-6.37-4-9.06-6.74-5.27-5.31-.84-14.12-.91-21.6 0-4.63-2-9-3.83-13.23l-8.77-19.75c-5.2-11.71-10.77-23.91-20.87-31.82C234 410.73 181.76 446.13 146 425.2c-4.7-2.75-9.29-7.4-8.54-12.8.6-4.25 4.31-7.31 7.92-9.65 39.76-25.84 97.74-18.27 130.29-52.76l-23-8c10.36 2.67 21.8 3 31.39-1.72s16.66-15.53 14.72-26.06S284 295.94 274.5 301c4.59-2.86 11 1.67 11.67 7s-2.55 10.45-6.31 14.33c-8 8.26-20 13.52-31.13 10.51s-19.2-16.26-14.32-26.66 23.45-10.62 26.64.42c4.69-6.58-2.6-16.2-10.65-16.92s-15.44 4-22.28 8.31c-28 17.56-67.91 29.4-91.48 6.23-6.69-6.57-11.16-16.5-8.19-25.39 2-5.9 6.78-10.31 11.23-14.64a229.6 229.6 0 0 0 40.25-52.38c10.32-18.41 20.14-40.12 40.11-46.92 17-5.77 37.56 3.18 44.91 19.5a17.79 17.79 0 0 1-13-11.44l9.34-15.61c-10.65 6-24.7-5.86-24.09-18.09s11.09-21.93 22.38-26.68a60 60 0 0 1 30-4.27c32.42 3.73 55.51 32.21 74.9 58.47 13.81 18.7 28.15 38.75 30 61.93 2.12 26.87-13 54.44-4.52 80l18.94-28.51c4.88-7.35 10.23-15.1 18.36-18.52s19.7-.07 21.53 8.56l-3.23-68.77c-.31-6.55-.16-14.16 5-18.23 5.56-4.39 13.77-2.06 20 1.31a78.3 78.3 0 0 1 37.87 47.94c-4.65-24.48 19.83-43.7 41.2-56.51 6.65-4 14-8.12 21.68-6.84 9.38 1.56 15.41 10.53 20.31 18.69 9.39-7 19.2-14.11 30.67-16.34s25.1 2 29.94 12.63c2 4.36 3.47 10.39 8.24 10.81s7.3-5.34 9.73-9.52c8.67-14.93 29.4-16.14 46.66-15.54-5.23-17.09-10.91-34.94-23.71-47.41s-35.09-17.14-48.37-5.19c-3.58 3.22-6.28 7.39-10.23 10.13-12.86 8.92-33.25-7.65-27.15-22.06s32.19-11.3 34.74 4.14c-3-31.18 4.26-90-31.12-104.65C594.39-2 575.72-.1 557.9 1.65a1779.72 1779.72 0 0 1-277.81 5.5c-34.48-2-68.95-5-103.49-4.55-49.21.7-98 8.51-146.6 16.3-5.24.84-10.77 1.81-14.81 5.26-3 2.56-4.81 6.2-6.33 9.82-18.5 44.23-1.92 94.63-4.28 142.51-1 19.15-5 38.48-1.44 57.33 2.38 12.69 8.13 24.67 9.46 37.51 3 28.42-16 56.55-9.82 84.46 3.86 17.52 17.14 31.9 20.72 49.48C30.16 438 1.75 469.59 6.15 502.68c2.22 16.74 12.74 31.87 13 48.75.29 19.17-12.78 37.47-9.19 56.3 2.47 12.95 12.33 23.13 17.6 35.21 11.2 25.67.44 54.93-2.2 82.81s11.53 63.63 39.52 62.56l-6.74 23.21c20.74 16.6 49.41-12.09 75.89-10.06 7.52.58 14.58 3.7 21.92 5.41 16.37 3.83 33.43.58 50.08-1.72 15.25-2.1 30.61-3.39 46-4 21.46-.92 43-.62 64.43-.32l140.37 2 26.77.37 58.47.81c60.35.84 121 1.66 180.77-6.53 14-1.92 28-4.33 42.07-4.53 33.83-.49 68.89 11.55 100.71 0 8.21-3 15.87-7.44 24.32-9.61 11.13-2.86 22.86-1.56 34.26-.15q57.93 7.13 115.41 17.27c14 2.46 30.88 4 39.78-7 7.64-9.47 5.07-23.19 3.12-35.2-3-18.21-3.58-36.7-4.1-55.14q-1.67-58.87-2.11-117.78c-.23-30.2-.21-60.39-.2-90.59l.05-151.74c0-13.85 0-27.7.29-41.55.18-8.76.47-17.51.47-26.27 0-13.8-.71-27.59-1.43-41.37l-5.58-107.09c-1.76-33.86-3.68-68.46-16.45-99.87-1.8-4.43-3.86-8.86-7.1-12.38-8.49-9.22-22.54-10-35.08-10.17l-59.17-.72c-19.49-.24-39-.47-58.48-.43-25.4.05-50.8.58-76.19 1.17Q714 6.66 610.63 10.49c-5.2 16.51-10.12 33.62-8.55 50.85s11 34.82 27.14 41.16c24.41 9.61 59-6.86 74.79 14.07 5.18 6.84 6.27 15.84 7.18 24.38l5 46.52" style="fill:#b9d5d7" />
      <path d="M615.63 253.09a53.15 53.15 0 0 1 6.07 15.56 1.11 1.11 0 0 0 1 .79l3.61.37a16.14 16.14 0 0 0 3.71.35 3.78 3.78 0 0 0 2.52-2.27c1.11-2.54.18-6-1.19-8.25-1.76-2.87-4.95-5.79-3.76-9.45.89-2.75 3.18-4.87 4.66-7.29s2.35-5.07 1.15-7.81a.82.82 0 0 0-.73-.41 53.34 53.34 0 0 1-6.42-.79 7.77 7.77 0 0 1-4.93-2.52c-1.5-2-1.62-6.09 1.18-7a1 1 0 0 0 .43-1.63c-1.12-1-2.34-2-3.41-3.05s-1.75-2-2.61-3q-2.87-3.37-5.78-6.73c-3.8-4.37-8-8.47-12.09-12.54a1.17 1.17 0 0 0-2 .81c-.8 7.78 1.06 16 4.28 23.06a.7.7 0 0 0 .79.32c7.67-2.52 9.73-11.62 8.75-18.78-.59-4.27-2.51-8.38-2.16-12.76a6.07 6.07 0 0 1 3.78-5.48c2.45-.91 5.23-.3 7.69.24 3.06.67 6.11 1.37 9.16 2.05a67 67 0 0 0 8.28 1.65c3.93.37 8.72-1.36 9-6a4.32 4.32 0 0 0-.53-2.36c-.46-.84-.94-.86-1.86-.79a7.76 7.76 0 0 0-4.3 1.77 12 12 0 0 0-4.08 9 10.72 10.72 0 0 0 7.16 9.75 16.88 16.88 0 0 0 13.49-1.27l-1.23-.5a71.79 71.79 0 0 1 .79 7.62c.22 2.33.41 4.67.66 7 .29 2.73 3.85 4.31 6.24 4.61 6.75.84 12.07-4.49 13.42-10.71 1-4.52.59-9.11.08-13.66l-.94 1.24a9.7 9.7 0 0 1 7.76 1.72c.89.63 2-.24 2-1.16.38-6 1.5-12.88 6.94-16.5a11.38 11.38 0 0 1 8.25-1.93 9.73 9.73 0 0 1 6 4.11c2.52 3.37 4 7.77 7.3 10.51 3.82 3.17 8.56 1.61 11.68-1.72 2.13-2.27 3.53-5.09 5.59-7.39s5.61-5.08 8.83-3.17a1.19 1.19 0 0 0 1.78-1 83.29 83.29 0 0 1 5.47-26 1.15 1.15 0 0 0-.79-1.4c-3.48-.81-8-1.76-10-5.05-1.47-2.39-1.31-6.62 1.77-7.62a.74.74 0 0 0 .44-1.07 127.74 127.74 0 0 1-7-18.76l-.63.83a70.82 70.82 0 0 0 20-3.75l-.75-.31a13.48 13.48 0 0 0 9.58 7.42.72.72 0 0 0 .89-.5c.54-2.94.89-6 1.63-8.9.41-1.61 1.66 0 2.27.63 1.71 1.82 3.82 4.83 6.72 4.31 2-.35 3.06-2.35 4.94-2.94s4.2.6 5.47 2.13c3.58 4.31.09 10.1-2.93 13.61a1 1 0 0 0 .43 1.6c3.87.95 7.82 1.75 11.63 2.95 3.37 1.06 6.87 2.69 8.77 5.82a9.09 9.09 0 0 1 1.37 4.35 6.21 6.21 0 0 1-.33 2.34c-.35 1-.69 1.16-1.57 1.64a19.3 19.3 0 0 0-7.14 6.73 1.17 1.17 0 0 0 .69 1.7l7.54 1.16-.87-1.15q0 4.22-.35 8.41c-.12 1.49 1.95 1.51 2.42.32.9-2.25 3.55-2.12 5.5-1.5a11.32 11.32 0 0 1 6 4.66c3 4.43 6 10.12 11.94 10.5a1.39 1.39 0 0 0 1.33-1.74 74 74 0 0 1-2.91-18.75l-.91 1.19c5.35-2.23 13.07 4.17 17.08-2a20.61 20.61 0 0 0 1.91-5.06 37.73 37.73 0 0 1 2.32-5.71 51 51 0 0 1 16.54-18.64l-1.53-1.18c-1 2.54.27 5.16 2.29 6.78a9.15 9.15 0 0 0 8.45 1.48c3.26-.88 6.21-2.89 9.57-3.39 2.43-.36 5.91.07 6.94 2.69.58 1.46 3 .82 2.39-.66-2.11-5.37-8.68-5.33-13.29-3.63-3 1.12-6 2.81-9.37 2.71-2.68-.08-6.11-2.42-5-5.42a1 1 0 0 0-1.52-1.18 53.36 53.36 0 0 0-14.81 16.38 65.1 65.1 0 0 0-4.78 10.22c-.65 1.8-1.24 4-3.1 4.94a6.88 6.88 0 0 1-4.46.15c-3.37-.72-6.9-2.2-10.31-.84a1.31 1.31 0 0 0-.91 1.2 70.93 70.93 0 0 0 2.73 19.48l1.33-1.74c-3.21-.17-5.39-2.82-7.11-5.26s-3.17-5.29-5.58-7.19c-3.78-3-10.87-4.82-13.09.89l2.41.33q.31-4.2.27-8.41a1.2 1.2 0 0 0-.87-1.15l-7.56-1.09.69 1.7a17 17 0 0 1 3.9-4.43c1.38-1.09 3.52-1.64 4.37-3.21 1.6-3 1-6.66-.66-9.49-1.9-3.21-5.19-5.12-8.61-6.36-4.26-1.53-8.83-2.32-13.23-3.35l.43 1.6c2.79-3.32 5.43-7.51 4.78-12a8.29 8.29 0 0 0-6.64-6.86 5.81 5.81 0 0 0-4.5 1.28c-1.56 1.22-2.86 2.55-4.79 1.27s-3.26-4.29-5.59-5a2.07 2.07 0 0 0-2.47 1.25 11 11 0 0 0-.39 2.23l-.39 2.23-.87 5 .89-.5a12.2 12.2 0 0 1-8.8-6.71.69.69 0 0 0-.76-.31 65.14 65.14 0 0 1-19.63 3.74.67.67 0 0 0-.63.83 129.4 129.4 0 0 0 7 19.15l.43-1.08c-3.65 1.16-4.66 5.53-3.45 8.83 1.7 4.63 7.16 6.27 11.45 7.44l-.68-1.67a68.07 68.07 0 0 0-5.76 26.92l1.77-1c-5.86-3.15-11 2.9-13.9 7.32-1.59 2.45-3.39 5.27-6.11 6.59a6.08 6.08 0 0 1-7-1.3c-3.39-3.31-4.53-8.29-7.82-11.71-3.9-4.07-10-4-14.68-1.31-6.26 3.67-8.7 11.67-8.91 18.53l2-1.16a12.31 12.31 0 0 0-9.81-1.87 1.26 1.26 0 0 0-.94 1.23c.9 7.12 2 17.86-6.3 21-2.5 1-6.38 1.36-8.26-1-.63-.8-.59-2.07-.73-3.06l-.57-3.89a75.06 75.06 0 0 1-1.11-8.14.86.86 0 0 0-1.26-.73 14.92 14.92 0 0 1-9.61.91c-2.87-.71-6-2.35-7.44-5-2.71-4.88.59-12.62 6.63-12.36l-.59-.34c1.84 2.6-.62 5.76-3.24 6.49-3.22.89-6.8-.31-10-1l-10.26-2.29c-2.65-.59-5.46-1.24-8.15-.62-4.88 1.13-6.06 5.94-5.51 10.32.61 4.91 2.55 9.43 2.22 14.47s-2.63 10.74-7.92 12.47l.79.32c-3.27-7.16-4-14.6-3.18-22.36l-2 .82c3.87 4.31 7.76 8.69 11.94 12.7q3.09 3 6.21 5.9a64.92 64.92 0 0 1 6 6.52l.43-1.63c-4.3.73-4.94 6.07-3.34 9.4a8.93 8.93 0 0 0 5.39 4.26c2.86 1 5.71.61 8.64.23l-.72-.42c2 2.91-1.54 5.68-3.19 7.8-2 2.53-4.22 5.42-3.9 8.85a10.88 10.88 0 0 0 2.44 5.44c1.2 1.61 2.86 2.85 3.73 4.69.73 1.54 1 3.83-.3 5.18-.9.93-2.22.37-3.35.18l-4.39-.74.75.75a50.83 50.83 0 0 0-5.74-16.5 1.38 1.38 0 0 0-2.38 1.39Z"/>
      <path d="M885.24 136.37c.53.06.85 1 .83 1.52a2.53 2.53 0 0 1-1.61 2c-2.43 1.19-5.42.26-8 .54a13.57 13.57 0 0 0-6.82 2.47 18.87 18.87 0 0 0-4.86 5.29c-.62 1.05-1 2.19-1.52 3.29s-1.55.79-2.53.31a6.45 6.45 0 0 0-2.64-.88c-1.25 0-2.1.77-3 1.5-2 1.61-3.44 4.72-1.88 7.08.74 1.13 1.93 1.84 2.79 2.88a9 9 0 0 1-4.41 14.35 13.27 13.27 0 0 1-4 .08 21.76 21.76 0 0 0-4.59.2 8.45 8.45 0 0 0-5.78 4.49 7.31 7.31 0 0 0 0 7 4.35 4.35 0 0 0 5.54 1.71 22 22 0 0 0 2.64-1.37 4 4 0 0 1 2.23-.69.47.47 0 0 1 .34.07s-.17-.1.06 0c-.12-.07-.22-.16.23.18a1 1 0 0 1 .46.74 4.56 4.56 0 0 1-1.24 2.82c-1.48 1.89-3.56 3.87-3 6.53s3.6 3.29 5.85 2.32 3.79-3.48 6.52-3.26c2.29.18 4.36 1.53 6.63 1.89a7.73 7.73 0 0 0 3.35 0 3.69 3.69 0 0 0 1.33-.55 9.12 9.12 0 0 0 1.19-1.05c1.27-1.33 2.14-3 3.37-4.32a3 3 0 0 1 1.63-1.09h.37a1.84 1.84 0 0 1 .41 0 2.27 2.27 0 0 1 1.13.6c1.66 1.53 2 4.27 2.43 6.34 1.28 6.3 2.73 12.58 3.85 18.91.45 2.55.63 5.55-1.23 7.61a12.82 12.82 0 0 1-5.16 3.11c-2.13.8-4.28 1.47-6.33 2.46s-4.64 2.86-4.64 5.57a5.24 5.24 0 0 0 4 4.75 4.53 4.53 0 0 0 3.33-.36 10.71 10.71 0 0 0 1.52-1.16c.25-.19.6-.42.79-.39a1.09 1.09 0 0 1 .4.16c.24.14.17.1.28.26a2.68 2.68 0 0 1-.6 3.61c-1.79 1.72-4.35 2.37-6.06 4.22s-2.63 4.82-.64 6.8c1.63 1.62 4.16 1.41 6.1.54 2.21-1 3.37-2.92 5-4.61a8.44 8.44 0 0 1 2.61-2 7.36 7.36 0 0 1 4.11-.09 10.18 10.18 0 0 0 4.15 0 10.72 10.72 0 0 0 3.36-1.6c2.15-1.48 4-3.38 6.14-4.84a26.24 26.24 0 0 1 7.45-3.42l-1.12-.64a5.34 5.34 0 0 1-.63 3.1c-.48 1.1-.91 2.23-1.37 3.34-.93 2.22-1.59 4.65-.7 7 2.14 5.59 8.69 6.44 13.06 9.55 4.53 3.22 8.19 7.9 13.88 9.15a11.35 11.35 0 0 0 8-1.25c1.83-1 4.24-2.88 6.36-1.71 2.34 1.28 3.12 4.7 3.78 7.05a45.32 45.32 0 0 1 1.62 10.34c0 1.09 1.75 1.1 1.7 0a55.38 55.38 0 0 0-1.12-9.16A24.3 24.3 0 0 0 948 268a6.08 6.08 0 0 0-6-3.1c-2.64.32-4.64 2.11-7.12 2.87-5.46 1.68-10.3-3.17-14-6.38a28.79 28.79 0 0 0-7.25-4.74c-2.44-1.08-5.11-2.05-6.88-4.16a5 5 0 0 1-1.24-3.27 10.13 10.13 0 0 1 1-3.61 18.13 18.13 0 0 0 1.38-3.72 10.36 10.36 0 0 0-.1-4 .93.93 0 0 0-1.12-.64 27.7 27.7 0 0 0-7.69 3.44c-2.21 1.44-4 3.33-6.18 4.83a9.2 9.2 0 0 1-3.31 1.58 11.68 11.68 0 0 1-4.16-.26 7.64 7.64 0 0 0-4 .33 9.39 9.39 0 0 0-2.85 2c-1.51 1.47-2.88 3.41-5 4.12-1.4.49-3.79.67-3.74-1.35.05-2.43 2.83-3.68 4.57-4.77 1.91-1.18 3.92-2.89 3.77-5.36-.11-1.86-1.33-4.09-3.41-4.18a3.35 3.35 0 0 0-1.61.35 17.65 17.65 0 0 0-1.69 1.18 2 2 0 0 1-2-.07 2.5 2.5 0 0 1-1.37-1.76 2.91 2.91 0 0 1 1.41-2.26c1.79-1.33 4.1-2 6.13-2.87 4-1.79 8.32-4.18 9.1-9 .48-2.94-.31-5.93-.89-8.79l-1.93-9.62c-.6-3-1.16-6-1.78-9-.42-2.08-1.3-4.46-3.31-5.49a4.76 4.76 0 0 0-5.43 1c-1.34 1.22-2.22 2.87-3.4 4.22a8.43 8.43 0 0 1-.94.95c-.13.11-.18.14-.36.27a2.58 2.58 0 0 0-.49.5c.17-.2.14-.12-.06 0a3.76 3.76 0 0 1-2.94.47c-2.26-.49-4.34-1.49-6.67-1.65a6.24 6.24 0 0 0-3.47.9 23.7 23.7 0 0 1-3.16 1.91c-.81.31-2.16.57-2.66-.37s.32-2 .77-2.7c.67-1 1.59-1.8 2.28-2.78a7.12 7.12 0 0 0 1.37-3.53 3.66 3.66 0 0 0-1.54-3.24 3.46 3.46 0 0 0-2.72-.39 14.36 14.36 0 0 0-2.55 1.18 20 20 0 0 1-2.45 1.11 2.41 2.41 0 0 1-2.19-.07 3.27 3.27 0 0 1-1-2.65 6 6 0 0 1 3-5.23 7.77 7.77 0 0 1 3.84-.74 18.54 18.54 0 0 0 4.46-.35c4.74-1.17 8.81-4.68 9.5-9.68a12.87 12.87 0 0 0-1.12-7.15 11.22 11.22 0 0 0-2.18-3.07 4.77 4.77 0 0 1-1.16-1.38 2.93 2.93 0 0 1-.08-1.47 8 8 0 0 1 1.69-3.23c.32-.41.71-.94 1.27-1a3.53 3.53 0 0 1 1.45.43 6.11 6.11 0 0 0 2.61.8 2.3 2.3 0 0 0 2-1.66 13.56 13.56 0 0 1 4.45-5.71 11.45 11.45 0 0 1 2.89-1.52 27.16 27.16 0 0 1 3.38-1.2c2.78-.65 5.59.06 8.39-.35 2.29-.34 4.88-1.79 5.34-4.26a4.18 4.18 0 0 0-3.47-5.08 1.37 1.37 0 0 0-1.37 1.37 1.41 1.41 0 0 0 1.37 1.37Z"/>
      <path d="M950.39 285.94c2.79.11 4.18-2.81 5.67-4.67.58-.73 1.39-1.69 2.44-1.43s1.77 1.33 2.42 2a21 21 0 0 1 2.14 2.65c1.13 1.66 2.17 3.75 1.69 5.81a7.38 7.38 0 0 1-1.61 2.72 9.77 9.77 0 0 0-1.7 2.93c-.72 2.3.2 5 .85 7.19a10.72 10.72 0 0 1 .55 5.29 3 3 0 0 1-3.24 2.67c-2.13-.22-3.92-1.71-6.08-1.82a5.33 5.33 0 0 0-4.43 1.75 3 3 0 0 0 .75 4.35c1.67 1.21 3.57 1 5.51 1.17a3 3 0 0 1 2.21.89 2.49 2.49 0 0 1 .23 2c-.51 1.91-2.65 2.65-4.4 2.94-2.47.4-5-.58-7.5-.22-3.92.56-9 3.43-9.54 7.78a3.93 3.93 0 0 0 3.07 4.34 9.09 9.09 0 0 0 5.52-1c4.83-2.16 9.5-4.73 14.4-6.76a12.16 12.16 0 0 1 6.6-1.15 5.5 5.5 0 0 1 4.31 3c1.46 3.55-1.4 7.35-4.56 8.68-4.35 1.83-9.18-.13-13.69.25a7.86 7.86 0 0 0-5.65 2.68 4.93 4.93 0 0 0-.74 5.3c1.59 3.22 6.09 3.65 9.06 2.4 3.66-1.56 6.49-5.38 10.67-5.59 1.58-.07 3.42.37 4.14 1.93a3.07 3.07 0 0 1-1.61 4 5.5 5.5 0 0 1-2.39.16 21.19 21.19 0 0 0-2.52 0c-1.82.18-3.5 1.37-3.44 3.37s2.07 3.72 4 4.14c2.16.48 4.53-.19 6.43 1.14 1.58 1.11 2.75 2.45 4.77 2.69.61.07 1.09-.57 1.11-1.12.09-2.48.17-5 .28-7.46.09-1.82.26-4 1.74-5.33.89-.77 2.67-1.21 3.59-.25 1.19 1.26-.36 3.16-1.1 4.2a9.9 9.9 0 0 0-2.3 5.43 8.27 8.27 0 0 0 2.16 5.52 3.14 3.14 0 0 1 0 4.17 9.4 9.4 0 0 1-4.39 2.86c-1.52.59-3.22 1-4.2 2.45a3.69 3.69 0 0 0 .66 4.6c.36.39 1.07.9 1.15 1.47s-.44.88-.84 1.08c-1.54.75-3.7.45-5.34.33A14.94 14.94 0 0 1 961 376a14.78 14.78 0 0 1-4.13-3.75c-2.39-2.92-4.53-6.12-8.11-7.69a13.22 13.22 0 0 0-6.45-1.07c-2 .19-5 .74-5.94 2.72-1.07 2.21 1 4.16 2.9 4.9a26.8 26.8 0 0 0 2.65.62c.44.13 1.43.38 1.5 1l.17-.6c-1 1.31-3.16 1-4.57.8a51.5 51.5 0 0 0-6.08-.9 21.42 21.42 0 0 0-6.22.74 21.92 21.92 0 0 0-3 1c-1 .43-2.1.76-2.45 1.87a4.74 4.74 0 0 0 1.49 4.68c1.58 1.48 3.85 1.8 5.92 1.82a79.49 79.49 0 0 0 14.59-1.62c2.14-.38 4.45-.66 6.5.27a15 15 0 0 1 3.6 2.63c2.43 2.18 4.63 4.8 7.73 6.05 1.94.78 3.87.59 5.91.48 1.41-.08 4.26.08 4.39 2.08.1 1.61-2.15 2.25-3.39 2.38a18.48 18.48 0 0 1-6.81-.78c-4.51-1.23-8.69-3.47-13.4-3.95-3.85-.39-8 .37-10.7 3.41a.72.72 0 0 0 .15 1.12 25 25 0 0 0 12 3.77 26.16 26.16 0 0 0 6.12-.47 20.07 20.07 0 0 1 5.66-.62 4.24 4.24 0 0 1 3.91 3.1 7.91 7.91 0 0 1-.74 5c-1.3 2.88-4.43 6.73-8 5.14-1.52-.67-2.66-2.2-3.83-3.33a8.12 8.12 0 0 0-5-2.46c-1.08-.1-1.52 1.16-1.13 2a18 18 0 0 0 3.89 5.39 20.13 20.13 0 0 0 2.67 2.11c.57.38 2 1 2 1.83-.07.55-.85.73-1.29.8a4.07 4.07 0 0 1-2.23-.31c-1.86-.74-4.21-1.85-6-.42-1.48 1.16-1.48 3.28-.9 4.91.68 1.92 2.7 3.76 2.4 5.94-.22 1.59-1.74 2.53-3.12 3.06a19.11 19.11 0 0 1-5.31 1c-4 .34-8.28.31-12.09-1.09a11.86 11.86 0 0 1-4.71-3 31.49 31.49 0 0 1-3.55-5.66 12.33 12.33 0 0 0-4.32-4.63 7.26 7.26 0 0 0-5.84-.86 5.5 5.5 0 0 0-3.62 4.49 11.06 11.06 0 0 0 1.17 6.13 6.68 6.68 0 0 0 4.47 4c1.68.43 4 .29 4.77 2.15.4.95.56 2 1 2.94a8.51 8.51 0 0 0 1.62 2.41 15.34 15.34 0 0 0 4.85 3.24c.92.43 1.86.79 2.8 1.17 1.09.44 1.56-1.32.48-1.76a22.88 22.88 0 0 1-5.22-2.76 7.84 7.84 0 0 1-3-4.51 7.26 7.26 0 0 0-1.28-3 5.16 5.16 0 0 0-2.33-1.47c-1.71-.57-3.83-.42-5-2-1.58-2.08-3.37-8.46.94-8.64s6.24 4.72 8.07 7.77a14.14 14.14 0 0 0 9.71 6.88c4.07.76 8.23.35 12.31-.1 3.1-.35 7.33-1.22 8.67-4.47.81-2 0-3.9-1-5.61-.79-1.3-2.46-3.76-1.09-5.24s4.13.66 5.69 1.05 3.4.23 4.46-1c1.46-1.65.12-3.59-1.33-4.65a18.39 18.39 0 0 1-4.64-4.46 15.38 15.38 0 0 1-1.54-2.78l-1.27 1.67a4.74 4.74 0 0 1 1.89.81c.69.45 1.38.9 2 1.39a20.22 20.22 0 0 0 4.25 2.69c4 1.67 7.6-1.45 9.52-4.74 1.77-3 2.84-7.76-.21-10.4-3.33-2.88-8-.93-11.79-.46a23.58 23.58 0 0 1-15.19-3.23l.14 1.12c2.53-2.93 6.51-3.46 10.16-3 4.29.5 8.24 2.45 12.3 3.79a21.79 21.79 0 0 0 6.6 1.17 7.19 7.19 0 0 0 5-1.51 3.47 3.47 0 0 0 .46-4.69 6.36 6.36 0 0 0-5.3-2.21c-2 0-3.88.24-5.69-.69a15.22 15.22 0 0 1-3.66-2.88c-2.37-2.36-4.61-5-8-5.94a13.85 13.85 0 0 0-7 .23 65.77 65.77 0 0 1-7.64 1.39 46.24 46.24 0 0 1-7.53.38c-1.91-.1-4.22-.74-4.75-2.85a1.71 1.71 0 0 1 0-1.18 5.59 5.59 0 0 1 1-.47 19.2 19.2 0 0 1 3.38-1.22 20.12 20.12 0 0 1 6.56-.57c2 .15 3.88.8 5.85 1.1a6.2 6.2 0 0 0 5.11-1c1.73-1.47.2-3.59-1.41-4.39a11.8 11.8 0 0 0-2.25-.8 4.66 4.66 0 0 1-2.3-1c-.45-.46-.23-.6.35-.91a9.29 9.29 0 0 1 3-.91 10.88 10.88 0 0 1 5.67.75c3.7 1.58 5.65 5.31 8.24 8.16a13.9 13.9 0 0 0 4.83 3.55 19.24 19.24 0 0 0 6.63 1.37 13.46 13.46 0 0 0 5.54-.52c1.64-.62 2.9-2 2.45-3.88a5.66 5.66 0 0 0-1.19-2.09c-.47-.61-1.1-1.14-1-1.75.27-1.18 2.36-1.84 3.34-2.13 3.47-1 7.39-4.09 6.51-8.18-.46-2.14-2.58-3.27-3-5.38s.74-3.66 1.82-5.29c1-1.45 2-3.19 1.38-5a3.64 3.64 0 0 0-3.6-2.39 5 5 0 0 0-4.1 2.23 12.06 12.06 0 0 0-1.59 5.73c-.26 2.49-.47 5-.7 7.46l1.4-1.07c-1.82-.31-2.92-2.19-4.44-3.11a7.45 7.45 0 0 0-3.33-.95 20.72 20.72 0 0 1-3.35-.21c-.68-.19-1.63-.69-1.82-1.44-.15-.58.28-.91.79-1 1.61-.41 3.32.09 4.95-.37 3.41-1 4.77-5.73 2.22-8.26s-6.93-1.69-9.76 0c-3.19 1.88-6.46 5.36-10.49 4.06-1.3-.42-2.55-1.48-2.33-3 .28-1.89 2.44-2.9 4.14-3.06 2.51-.24 5 .69 7.47.48a29 29 0 0 0 6.46-1.13 10 10 0 0 0 7.16-8.3c.44-4.11-2.68-7.23-6.6-7.8-4.89-.71-9.57 2.13-13.83 4.1l-7.47 3.45c-1.39.64-3.41 1.66-5 1.06-2-.75-.38-3.2.55-4.1a10.72 10.72 0 0 1 5.53-2.8 59.46 59.46 0 0 1 7.31-.52 8.53 8.53 0 0 0 5.73-2.19 5.49 5.49 0 0 0 1.37-5.22c-.65-2.24-2.71-3.2-4.91-3.08-1.17.06-4.42.88-4.83-.89-.31-1.37 2-1.75 2.9-1.7a8.9 8.9 0 0 1 2.78.91 11.66 11.66 0 0 0 3.25 1 4.93 4.93 0 0 0 4.79-2.28 8.69 8.69 0 0 0 1.13-5.07c-.12-2.19-1-4.26-1.29-6.42a8.42 8.42 0 0 1 .12-3.28 11 11 0 0 1 1.45-2.78 8 8 0 0 0 1-6 14.62 14.62 0 0 0-3.3-5.72c-1.2-1.41-2.76-3.48-4.74-3.73-2.79-.35-4.2 2.75-5.61 4.59a3.4 3.4 0 0 1-2.58 1.71.81.81 0 0 0 0 1.61Z"/>
      <path d="M925 441.7a16.41 16.41 0 0 1 3.4 2 4.5 4.5 0 0 1 1.08 1.22l.23.49s.18.41.1.19a2.13 2.13 0 0 1 .08.27 1.27 1.27 0 0 1 .06.28v.06a2.37 2.37 0 0 1-.17 1.19 2.09 2.09 0 0 1-.23.42c-.21.34.16-.13-.11.16l-.18.18c.09-.06.09-.06 0 0a1.56 1.56 0 0 1-.28.16c.24-.11-.13 0-.16 0 .22 0 0 0 0 0-.27 0 0 .05-.3 0a3.85 3.85 0 0 1-1.5-1 10.71 10.71 0 0 0-1.86-1.41c-.65-.38-1.38-.64-2-1s-1.07-.84-1.61-1.23c-.29-.2-.56-.42-.85-.61a6.43 6.43 0 0 0-1.42-.62 21.12 21.12 0 0 0-4.14-1.05 9.75 9.75 0 0 0-4.43 0 3.13 3.13 0 0 0-2.18 3.64 4.76 4.76 0 0 0 2.84 3.11c1.78.75 5.43.55 5 3.38a3.46 3.46 0 0 1-1.8 2.49c-1.17.63-2.66.31-3.9.14a31.22 31.22 0 0 1-4.65-1.23 21.38 21.38 0 0 0-2.2-.54 6.42 6.42 0 0 0-2.79-.1 2.67 2.67 0 0 0-1.79 3.2 3.6 3.6 0 0 0 2.63 2.81c1.47.42 3 0 4.44.2a3.63 3.63 0 0 1 2.83 1.6c.3.6.6 1.77 0 2.38a5.17 5.17 0 0 1-1.44.74 5.52 5.52 0 0 0-1.42.85 2.18 2.18 0 0 0-.11 3.22 4.28 4.28 0 0 0 3.66.74 10.67 10.67 0 0 0 6.56-4.16 18.59 18.59 0 0 0 2.16-3.44c.63-1.31 1.08-2.69 1.6-4.05a7.68 7.68 0 0 1 2.39-3.64 3.87 3.87 0 0 1 1.68-.75 4.07 4.07 0 0 1 .5 0s.44.08.26 0 .08.13.12.17a3.47 3.47 0 0 1 .34.59c1 2.34-.48 5.23-2.35 6.64-.54.41-1.11.76-1.66 1.14a12.89 12.89 0 0 0-1.88 1.74 25 25 0 0 0-2.55 3.07 26.37 26.37 0 0 0-3.63 7.3 27.5 27.5 0 0 0-.29 16 22.17 22.17 0 0 0 1.47 3.69l.45-1.73c-1.51.9-3.41.47-5-.36a32.93 32.93 0 0 0-3.09-1.54 13.34 13.34 0 0 0-3.18-.85 7.9 7.9 0 0 0-6.29 2.24c-1.76 1.58-3.13 3.54-5.06 4.94-2.2 1.59-4.44 3-5.9 5.33a21.93 21.93 0 0 0-2.45 6.85 37.86 37.86 0 0 1-2 7.12 23 23 0 0 1-4 6.21 19.14 19.14 0 0 1-6.72 5 3.84 3.84 0 0 1-3.9-.22 1.41 1.41 0 0 1 0-2.38l-.58.34a10.62 10.62 0 0 0 1.56-1 6.89 6.89 0 0 1 1.5-.59 30.12 30.12 0 0 0 3.47-1 6.38 6.38 0 0 0 2.84-2.24 3.87 3.87 0 0 0 .58-1.81 2.19 2.19 0 0 0-.2-1.21 3.49 3.49 0 0 0-1.09-.92c-2.4-1.69-5.15-3.16-8.18-2.54a6.06 6.06 0 0 0-3.29 1.86 4.94 4.94 0 0 0-1 1.76c-.11.33-.14 1.09-.39 1.29s-1.29-.28-1.62-.45a15.91 15.91 0 0 1-2.51-1.56c-.77-.57-1.52-1.12-2.34-1.62l-2.63-1.6a1.34 1.34 0 0 0-1.38 0l-2.79 1.94 2 1.18a7.92 7.92 0 0 0-3.72-6.95 1.36 1.36 0 0 0-1.84.48 10.07 10.07 0 0 0 .61 11.79 10.31 10.31 0 0 0 4.76 3.21 9.83 9.83 0 0 0 2.8.46c.84 0 1.88-.19 2.59.38a2.2 2.2 0 0 1 .23 3.07c-1.33 1.34-3.64 0-5-.69a23.84 23.84 0 0 0-13-2.29 65 65 0 0 0-15 3.7 1.43 1.43 0 0 0-1 1.73 1.42 1.42 0 0 0 1.73 1 66.67 66.67 0 0 1 13.3-3.5 26.67 26.67 0 0 1 6.62 0 19.69 19.69 0 0 1 3.13.71c1.09.34 2.08.86 3.15 1.28 1.94.76 4.23 1.5 6.24.53a3.86 3.86 0 0 0 2.07-4.14 4.05 4.05 0 0 0-2.71-3.45c-1-.31-2.16-.14-3.22-.36a7.84 7.84 0 0 1-5-12l-1.84.48a5.19 5.19 0 0 1 2.36 4.64 1.37 1.37 0 0 0 2 1.17l2.8-1.93H852l2.83 1.74c.92.56 1.89 1 2.85 1.48 1.72.85 3.31 2.7 5.42 2.22a2.91 2.91 0 0 0 2-2 5.72 5.72 0 0 1 .69-1.83 3.91 3.91 0 0 1 3.34-1.14c2 .22 3.82 1.63 5.42 2.78l-.67-1.17a1.14 1.14 0 0 1 0 .65c-.12.36.1-.15-.1.18 0 0-.26.35-.12.19a3.93 3.93 0 0 1-1.36 1 28.25 28.25 0 0 1-3.59 1c-1.35.43-2.94 1.08-3.6 2.4.11-.22-.12.18-.12.18-.08.18-.16.36-.23.55a3.74 3.74 0 0 0-.17 1 3.67 3.67 0 0 0 .55 2 4.55 4.55 0 0 0 3.41 2.36 8 8 0 0 0 4.78-1.22 24.14 24.14 0 0 0 7.11-6.08 25.65 25.65 0 0 0 4.33-8.1c.92-2.86 1.35-5.91 2.54-8.69a10.84 10.84 0 0 1 2.35-3.55 28.06 28.06 0 0 1 3.83-2.74 20.46 20.46 0 0 0 3.59-3.11 17.16 17.16 0 0 1 3-2.84c2.61-1.72 5.06-.29 7.76.64.68.23 1.35.46 2 .67s1.27.47 1.94.62a6.44 6.44 0 0 0 4.38-.47 1.28 1.28 0 0 0 .58-1.43 25.38 25.38 0 0 1-1.58-15.33 25 25 0 0 1 2.71-7.14 22.59 22.59 0 0 1 2.17-3.15c.42-.52.87-1 1.34-1.49s1.12-1 1.61-1.52a44.21 44.21 0 0 0 2.78-3.6 8.23 8.23 0 0 0 1.61-3.72 6.09 6.09 0 0 0-.57-3.8 2.43 2.43 0 0 0-1.41-1.35 4.39 4.39 0 0 0-2.16.08c-3.17.86-4.49 4-5.51 6.81a17.11 17.11 0 0 1-4.22 6.87 8.38 8.38 0 0 1-3.06 1.86c-.84.26-2.22.62-3 0-.16-.12 0-.24.26-.39a12.25 12.25 0 0 1 1.46-.7 4.37 4.37 0 0 0 2.48-2.59c1-3-1.56-5.57-4.36-6.14a9.2 9.2 0 0 0-2-.2 16.61 16.61 0 0 1-2.34 0 1.83 1.83 0 0 1-.8-.25s.18.17-.06 0 0 .11-.14-.17a.81.81 0 0 1-.18-.45v-.17c0 .18.08-.06 0 .08.18-.26 0 .05-.06 0s.15 0 .1 0a8.59 8.59 0 0 0 1 .08 19.67 19.67 0 0 1 2.41.58 34 34 0 0 0 4.66 1.24c2.75.42 6.2-.47 7.8-2.91a4.63 4.63 0 0 0-1.32-6.69c-1.21-.69-2.62-.77-3.88-1.32a2.93 2.93 0 0 1-1.22-1s-.17-.3-.13-.21-.07-.42-.07-.27v-.1a1.07 1.07 0 0 1 .19-.23 2.37 2.37 0 0 1 1.12-.2 13.19 13.19 0 0 1 2.18.2 20.8 20.8 0 0 1 4.32 1.19c.63.25 1.28.36 1.93.57l.94.33a3.06 3.06 0 0 1 .95.64c1.09 1 2 2.14 3.17 3.08a4.13 4.13 0 0 0 4 1 4.29 4.29 0 0 0 2.47-2.69 5 5 0 0 0 0-3.52 5.78 5.78 0 0 0-3-2.83 15.88 15.88 0 0 0-3.9-1.07c-.56-.09-1 .7-.42 1Z"/>
      <path d="M821.33 529.12a10.13 10.13 0 0 1-3.28 7c-2.33 2.14-5.18 2.28-8.15 2.72-5.65.83-9.77 4.81-13.84 8.49a209 209 0 0 0-24.63 26.11l1.9.24c-1.9-2.78-5.83-2.41-8.05-.14-3.4 3.48-.92 8.84 1.16 12.29l.78-1.9c-10.22 2.91-17.78 11-19.39 21.55-.22 1.44-.41 3-1.48 4.09a6.79 6.79 0 0 1-3.66 1.65 57.38 57.38 0 0 1-9.36.53c-7.27.14-14.53 0-21.8.12-13 .31-26.55 1-38.38 7-9.24 4.69-15.31 12.57-20.39 21.36-4.64 8-8.53 16.82-15 23.53a27.35 27.35 0 0 1-12 7.42c-6.1 1.76-12.61 1.72-18.55 4.07-5.22 2.07-9.45 6-14.7 8-5.53 2.08-11 .37-16.35-1.5-4.78-1.68-9.82-3.63-15-2.83-2.84.44-5.13 1.91-7.67 3.13-3.68 1.77-6.72.57-10.18-1.1-11.68-5.64-23.28-11.51-35.44-16.08-11.73-4.42-24.66-8.06-37.32-7.54a76.59 76.59 0 0 0-9.31 1 1 1 0 0 0-.59 1.45c2.17 3.41 4.3 6.81 6.27 10.33l.14-1.09a10.16 10.16 0 0 1-9 3.41c-.87-.1-1.39.89-1.23 1.61a11.08 11.08 0 0 1-7.7 12.88l1 .58c-.54-2.47 2.68-4.17 4.56-2.74a.81.81 0 0 0 1.18-.9l-1.83-4.88a.86.86 0 0 0-1.41-.37c-1.88 2.18-6 4.73-8.61 2.17-3.17-3.1 1.9-3.87 2.05-2.56l2.72-.36c-.41-1.77-.69-5.28 1-6.54 1.3-.95 2.73.76 3.91 1.2a3.92 3.92 0 0 0 2.14.23c3.63-.62 6-6.47 9.81-5.64.79.17 1.13-1 .33-1.23-2.17-.46-3.89.65-5.51 2-2.1 1.76-4.24 4.49-7 2.43-5.79-4.28-8.05 3.76-7.35 8.29.23 1.54 2.83 1.19 2.72-.37-.35-5.08-8.56-4.22-8.42.78.07 2.8 2.73 5.06 5.38 5.36 3.45.4 6-2.13 8-4.56l-1.4-.37 1.91 4.85 1.17-.9c-3.13-2.29-7.65.92-7 4.57a.84.84 0 0 0 1 .59 13.21 13.21 0 0 0 9.72-15.18l-1.47 1.63c4.54.78 8.21-1.07 10.72-4.83a.9.9 0 0 0 0-.91c-2.17-3.41-4.15-6.89-6.12-10.42l-.85 1.49c26.75-2.89 51.51 8.92 74.89 20.33 5.29 2.59 11.28 6.82 17.32 4.34 2.7-1.11 5-2.9 8-3.33a19 19 0 0 1 8 .9c5.13 1.48 10 3.88 15.39 4.43 5.63.58 10.46-2 15-5a52.93 52.93 0 0 1 7.12-4.19 39.79 39.79 0 0 1 9.44-2.53c5.6-1 11.22-1.81 16.21-4.71 7.82-4.53 12.81-12.47 17.18-20.12 4.67-8.16 8.86-16.93 15.89-23.39 9.76-9 23.63-11.39 36.41-12.12 7.18-.41 14.4-.13 21.56-.64 3.64-.26 7.29-.45 10.94-.46a54.7 54.7 0 0 0 8.49-.3 8.24 8.24 0 0 0 5.68-3.14c1.55-2.24 1.39-5.22 2.13-7.76 1.56-5.29 5-9.48 9.29-12.81a18.77 18.77 0 0 1 7.46-3.4 1.3 1.3 0 0 0 .78-1.89c-1.23-2.3-3.3-5.61-2-8.28.68-1.37 3.36-3 4.55-1.34a1.23 1.23 0 0 0 2.09 0 155.24 155.24 0 0 1 26.24-27.42c2.39-1.93 4.88-4.14 7.78-5.27s6.17-.72 9.09-1.89a11.69 11.69 0 0 0 7.28-11.22 1.2 1.2 0 0 0-2.39 0Z"/>
      <path d="M453.29 685.27a3.49 3.49 0 0 0-1.24.64c-.36.37-.71.74-1.08 1.09-.73.68-1.38 1.44-2.14 2.1-.37.31-.78.58-1.13.91s-.69.74-1.08 1.07a20.16 20.16 0 0 1-2.56 1.57.78.78 0 0 0-.38.66c0 .69.14 1.38.13 2.07a18 18 0 0 1-.22 2.06.87.87 0 0 0 .86.86 3.3 3.3 0 0 0 1.25-.23 2.33 2.33 0 0 0 1.12-1.47 4.84 4.84 0 0 0 .09-2.87 5.76 5.76 0 0 0-4.48-4.15 12.1 12.1 0 0 0-3.65-.22 11.71 11.71 0 0 0-3.44.53 3.07 3.07 0 0 0-2.07 2.7 4.18 4.18 0 0 0 1.15 2.86 5.37 5.37 0 0 0 3.17 1.66 11.22 11.22 0 0 1 3.76.87l-.63-.82a1.84 1.84 0 0 1 .07 1.54 2.6 2.6 0 0 1-1.35 1.3c-1.71.79-3.78-.19-5.36-.86a.83.83 0 0 0-1 .12 5.86 5.86 0 0 1-2.57 2 7.94 7.94 0 0 1-3.26.17 28.34 28.34 0 0 1-7-1.24 2.73 2.73 0 0 1-1.25-.62.65.65 0 0 1-.12-.84 6 6 0 0 1 2.45-2.38 3.93 3.93 0 0 1 2.73-.76c.41.12.54.42.6.83a10.2 10.2 0 0 0 .24 2 4.1 4.1 0 0 0 6 2.07.66.66 0 0 0 .28-.71c-.21-1.4-.52-3.3.47-4.5a2.29 2.29 0 0 1 3-.48.31.31 0 0 0 .49-.38c-.82-1.53-2.82-1.17-4-.23-1.68 1.37-1.48 3.84-1.25 5.76l.31-.54a2.6 2.6 0 0 1-3-.51c-1.1-1-.51-2.38-1-3.61-1.15-2.82-4.89-1.71-6.88-.58a6.06 6.06 0 0 0-3.19 3.62 3.6 3.6 0 0 0 2 4 16.27 16.27 0 0 0 4.06 1.16 18.26 18.26 0 0 0 4.23.44 9.13 9.13 0 0 0 2.33-.29c.68-.21 1.33-.49 2-.73a7.61 7.61 0 0 0 3.55-2.6l-1.1.29c2.52 1.08 5.78 2.3 8.27.48a4.67 4.67 0 0 0 2-3.26 2.8 2.8 0 0 0-.58-1.92 4.71 4.71 0 0 0-2.28-1c-1.14-.25-2.73-.22-3.65-.74a2.53 2.53 0 0 1-.88-.84.93.93 0 0 1-.18-.43v-.12c0-.25-.08 0 0-.17-.13.23.07 0 .19-.09a2.47 2.47 0 0 1 .71-.18c.61-.1 1.23-.14 1.84-.19a8.56 8.56 0 0 1 3.73.36 2.8 2.8 0 0 1 1.8 2.22c.05.29 0 .12 0 .06v.5c0 .17-.05.35 0 .11a2.48 2.48 0 0 1-.1.39c.08-.24-.07.13-.09.16a2 2 0 0 0-.28.55c-.18.64-.06.4 0 .24a1.19 1.19 0 0 1-.12.32l1.6.43a20.6 20.6 0 0 1-.23-2.06c0-.69.11-1.38.14-2.07l-.57.74a13.91 13.91 0 0 0 2.93-1.14c.53-.23 1.07-.44 1.59-.69a6.79 6.79 0 0 0 1.42-1.09 13.07 13.07 0 0 0 2.26-2.44 13.57 13.57 0 0 0 .74-1.35 1.84 1.84 0 0 0 .29-1c0-.23-.06-.46-.08-.69s-.24-.5-.51-.39ZM462.48 658.24a67.51 67.51 0 0 0-5.27-6.17c-1.82-1.81-3.7-3.58-5.61-5.29-3.93-3.52-8-6.84-12.2-10.06-8.7-6.71-17.68-13.05-26.57-19.5l-28.22-20.46c-3.89-2.82-8.26-6.6-13.38-6.4-3.73.15-8 3-7.9 7 0 1.21.95 2.86.46 4a2 2 0 0 1-1.91 1c-2.37.1-4.38-1-6.56-1.77a28.45 28.45 0 0 0-17.48.23l1.6 1.22a12.67 12.67 0 0 0-4.64-10.91 1.24 1.24 0 0 0-2.05.54 8.71 8.71 0 0 1-5.43 6c-3.12 1.36-6.52 1.31-9.84.94-4-.46-7.93-1.32-12-1.15s-8.14 1.1-12.06.11c-3.13-.79-6.1-3.67-6.23-7a1.34 1.34 0 0 0-2.48-.67 8 8 0 0 0 .35 9.58l1.7-1.7a8.69 8.69 0 0 0-11.05-.71c-1.39 1.09-2.33 3.61-4.27 3.78-1.58.13-3.21-.88-4.61-1.48a7.56 7.56 0 0 0-4.81-.81 6.45 6.45 0 0 0-2.41 1.5c-.86.65-1.77 0-2.24-.84a3.93 3.93 0 0 1 .34-4.13c1.17-1.55 3.51-1.18 4.42-3.12s-.83-4-1.85-5.57c-.66-1-1.15-2-.58-3.18.35-.74 1.42-2 2.39-1.8a1.33 1.33 0 0 0 1.66-1.27q0-3-.11-6a1.31 1.31 0 0 0-1.27-1.28 9.43 9.43 0 0 0-5.35 1.18l1.69.44c-1.64-3.15-2.29-7.27-1-10.63l-1 .75a2.84 2.84 0 0 1 2.12.82 1.21 1.21 0 0 0 1.89-.24 9.3 9.3 0 0 0 .43-6.51c-.46-2.09-1.33-4.23-1.41-6.38a3.83 3.83 0 0 1 .74-2.6 3.49 3.49 0 0 1 3.42-1.11c2.91.46 5.19 2.82 6.62 5.25 1.68 2.83 1.91 5.89 2.29 9.09.33 2.71 1 5.41 3.12 7.29a5.27 5.27 0 0 0 6.08 1c2.17-1.22 3.1-3.81 4.91-5.43a11.85 11.85 0 0 1 7.89-2.86c1.52 0 3 .23 4.48.31s3 .22 4.46.39l-.87-2.08a4.2 4.2 0 0 0 .35 5.85 4.12 4.12 0 0 0 5.93-.95c.83-1.2.67-2.47.51-3.85-.1-.9-.12-1.76.8-2.17 1.65-.74 3.94 0 5.5.63 1.16.49 2.05-1.06 1.53-2-1.74-3.19-3.56-6.34-5.35-9.5l-.45 1.71a4.54 4.54 0 0 1 6.66 1.75 1.29 1.29 0 0 0 1.74.46c2.13-1.46 4.22-3 6.33-4.45.81-.58.86-2.11-.31-2.35-3.07-.61-8.35-1.73-8.24-5.85.07-2.94 3.49-3.43 5.76-3.26 3.14.23 5.95 1.83 8.95 2.63 2.82.76 6.82.85 8.64-1.94a2.52 2.52 0 0 0-.9-3.57 10.86 10.86 0 0 0-1.83-.93 2.28 2.28 0 0 1-1.24-.82v1.36l2.24-3.42a1.26 1.26 0 0 0-.75-1.84 19.42 19.42 0 0 0-5-.62 10.16 10.16 0 0 1-4.48-.75c-2-1.12-3.62-4.29-.52-5.16a20.49 20.49 0 0 0 3.77-1A5.14 5.14 0 0 0 335 519c1-2.11.85-5 2.51-6.72 2-2.12 5.7-1.51 8.26-1a1.18 1.18 0 0 0 1.42-.81c.87-3.26 4.39-5.15 7.63-4.86a6.73 6.73 0 0 1 4.38 2.46c1.71 1.77 3.7 2.82 6.2 2.25a11.31 11.31 0 0 0 5.67-3.73c1.57-1.8 2.94-4.18 1.82-6.58a6 6 0 0 0-4.56-3c-2.49-.41-4.85.52-7.32.53s-4.33-1.88-6.54-2.87a8.32 8.32 0 0 0-5.93-.37c-4.18 1.32-7.23 5-10 8.18a48.28 48.28 0 0 1-11.7 9.8c-3.42 2-10.18 4.85-12.08-.57a3.25 3.25 0 0 1 .12-2.71c.57-.94 1.7-1.4 2.54-2a5 5 0 0 0 1.85-2.9c.29-1.1.5-2 1.77-2.2a11.39 11.39 0 0 1 3.24.3 9.07 9.07 0 0 0 3.16 0c1.95-.37 4-1.75 3.77-4a1.36 1.36 0 0 0-.93-1.22 14.66 14.66 0 0 0-9.8-.46l1.32.75a16.86 16.86 0 0 1 .53-7.6 12.35 12.35 0 0 1 1.66-3.68 20.91 20.91 0 0 1 2.57-2.91c3.76-3.54 8.15-6.21 13.47-6.22a1.41 1.41 0 0 0 0-2.82 19.39 19.39 0 0 0-15.23 7.5 22.43 22.43 0 0 0-2.18 3.65c-.59 1.26-1.27 2.48-1.77 3.78a18.6 18.6 0 0 0-1.15 8.58 1.08 1.08 0 0 0 1.35 1 13.05 13.05 0 0 1 8.27.7l-.63-1.08c.09 1.49-2.41 1.51-3.42 1.37-1.93-.28-4-.72-5.85.14a4 4 0 0 0-2 2.14c-.41 1.08-.26 2.35-1.11 3.22-1.32 1.35-3.07 2-3.51 4.05-.83 3.81 2.73 7.06 6.27 7.4a14.19 14.19 0 0 0 7.23-1.69 43.07 43.07 0 0 0 6.33-3.7 42.17 42.17 0 0 0 5.83-4.92c1.58-1.61 3-3.36 4.58-5 2.71-2.8 6.6-6.2 10.7-4.06 2.19 1.15 4 2.75 6.54 3s4.87-.88 7.3-.56c1.78.23 3.69 1.36 2.74 3.39a9.94 9.94 0 0 1-5 4.61 3.28 3.28 0 0 1-3.33-.45c-1-.75-1.71-1.77-2.72-2.5a8.63 8.63 0 0 0-5.47-1.5c-3.95.24-7.82 2.76-8.81 6.74l1.42-.81c-2.9-.49-6.23-.9-8.92.6s-3.13 4.6-3.92 7.4a3.81 3.81 0 0 1-2.48 3c-1.45.44-3.06.45-4.33 1.37-2.43 1.77-1.64 5 .16 6.91 3 3.15 7.58 1.86 11.29 3.16l-.75-1.85-2.46 3.31a1.35 1.35 0 0 0 0 1.36 5 5 0 0 0 3.11 2.27c.14 0 1.14.21 1.21.46s-.71.87-1 1.05c-1.36 1-3.24.84-4.79.53a23.47 23.47 0 0 1-5.09-1.78 13.77 13.77 0 0 0-8.6-1.22 5.52 5.52 0 0 0-4.28 6.56c.94 4.65 5.89 6.15 9.91 7l-.31-2.34c-2.11 1.48-4.22 3-6.31 4.47l1.74.46a7.28 7.28 0 0 0-10.13-2.63 1.28 1.28 0 0 0-.45 1.71c1.72 3.21 3.41 6.44 5.17 9.62l1.54-2c-2.75-1.12-7.55-1.91-9.26 1.31a5 5 0 0 0-.39 3c.12 1 .43 2-.5 2.66a1.46 1.46 0 0 1-1.93-2.16 1.24 1.24 0 0 0-.86-2.08c-1.34-.12-2.67-.23-4-.28a21.36 21.36 0 0 0-4 .34 22.85 22.85 0 0 0-7.25 2.07c-2.34 1.23-3.67 3.14-5.22 5.17a4.69 4.69 0 0 1-3.43 2.2 5.08 5.08 0 0 1-3.67-1.8c-2.32-2.49-2.22-6.13-2.64-9.3a16.26 16.26 0 0 0-3.12-7.88 10.36 10.36 0 0 0-6.39-4.22 5.36 5.36 0 0 0-5.36 2.51c-2.53 4.42 1.57 9.68-.09 14.28l1.77-.72a4.85 4.85 0 0 0-3.58-1 1.08 1.08 0 0 0-1 .75c-1.16 4.29-1.24 8.39.8 12.43a1.25 1.25 0 0 0 1.69.45 7 7 0 0 1 4.1-.77l-1.27-1.27v6l1-1.26a5.33 5.33 0 0 0-4.2 4.26c-.36 2.16.91 3.93 1.9 5.72.36.66 1 1.69.41 2.39s-2.25.78-3.13 1.32a5.74 5.74 0 0 0-2.58 4.65 5.57 5.57 0 0 0 2.24 4.85 3.66 3.66 0 0 0 3.38.54c1-.38 1.56-1.43 2.57-1.68 1.57-.39 3.43.85 4.8 1.44 1.7.74 3.63 1.42 5.47.73 2.47-.91 3.28-3.77 5.7-4.78a6 6 0 0 1 6.41 1.15c.93.93 2.74-.34 1.89-1.45a5.37 5.37 0 0 1-.15-6.52l-2.27-.94a6.88 6.88 0 0 0 1.68 4.72 10.71 10.71 0 0 0 4.07 2.87 18 18 0 0 0 5.19 1.42 40 40 0 0 0 6.92-.08 41 41 0 0 1 6.92 0c2.32.25 4.61.72 6.92 1.06 3.82.58 7.74.85 11.44-.53 3.49-1.31 6.6-3.85 7.42-7.65l-2.06.55a10.42 10.42 0 0 1 3.86 9.17 1.27 1.27 0 0 0 1.59 1.22 34.6 34.6 0 0 1 15.45-.51c2.09.37 4.09 1.14 6.18 1.47 1.55.25 3.41.29 4.67-.81a3.48 3.48 0 0 0 1.14-2.16c.17-1.25-.38-2.36-.46-3.58-.12-1.9 1.31-3.41 2.89-4.24 4.32-2.26 9 1.1 12.39 3.58q13.83 10.05 27.62 20.16c8.82 6.44 17.72 12.8 26.42 19.4 4.66 3.53 9.23 7.17 13.61 11q3.24 2.86 6.31 5.89c2.09 2.07 4.27 4 6.33 6.15.93 1 2.2-.43 1.42-1.42Z"/>
      <path d="M339.17 477.5c3.88-2.9 7.31-9.06 3.43-13.39a7 7 0 0 0-5.51-2.26c-2.34.17-3.73 1.59-4.59 3.66a4.74 4.74 0 0 1-.89 1.6 2.28 2.28 0 0 1-2.1.4c-1.29-.24-2.51-.71-3.82-.83a10.4 10.4 0 0 0-11 8c-.7 2.79-.64 6-2.58 8.34a3.76 3.76 0 0 1-3.57 1.55 2.88 2.88 0 0 1-2.05-1.81 12.34 12.34 0 0 1-.71-3.4 18 18 0 0 1-.09-3.6 1.33 1.33 0 0 0-1.67-1.27c-2.4.53-4.82 1-7.19 1.66l1.41.81c-.7-2.58 2.49-3.91 4.19-5 2-1.31 3.78-4.14 2.92-6.59a2.49 2.49 0 0 0-1.36-1.65 7.11 7.11 0 0 0-2-.17 15.26 15.26 0 0 0-3.92.49 15 15 0 0 0-6.95 4l1.92.25c-1.13-2 .67-4.57 1.61-6.33a8.81 8.81 0 0 0 1.05-5.34 4.65 4.65 0 0 0-.83-2.12 4.21 4.21 0 0 0-1.93-1.28c.25.11-.24-.23-.27-.26a5.57 5.57 0 0 1-.46-.51 7.63 7.63 0 0 1-.72-1.15 7.37 7.37 0 0 1-.76-2.87 7 7 0 0 1 1.92-5.24 10.14 10.14 0 0 0 2-2.18 4.92 4.92 0 0 0 .29-3.4c-1-4.24-5.38-7.46-9.09-9.25a23.08 23.08 0 0 0-14.67-1.9l1.62.92-2.49-9.06a1.3 1.3 0 0 0-1.89-.77 6.42 6.42 0 0 0-3.51 7l1.56-1.56a6.37 6.37 0 0 1-4-3.13 1.26 1.26 0 0 0-1.08-.62 3.75 3.75 0 0 0-3.52 3.72l1.87-1.07-3.42-2.35a1.25 1.25 0 0 0-1.68.44c-1.67 2.66-5.42 1.93-7.93 1.15a42.48 42.48 0 0 1-5.2-2.21l-6.63-3.07a1.26 1.26 0 0 0-1.82.74c-.14.72-1.68-.23-2-.53-1-1.07-2-2.44-3.49-2.87a3.5 3.5 0 0 0-2.17.1c-.63.24-1.3.8-2 .55a6.51 6.51 0 0 1-1.52-1 4.83 4.83 0 0 0-1.82-.89 3.79 3.79 0 0 0-3.64 1.45c-.82.93-1.46 2.33-2.59 2.92-1.29.67-2.94 0-4.21-.41a11 11 0 0 0-4.71-.67c-5.42.71-7.36 7-10.55 10.57-4.42 5-11.81 3.3-16.19-.87-2.88-2.74-4.88-6.31-6.69-9.81-2.14-4.15-4.18-8.35-6.26-12.53l-.89 1.16c6.18 1.66 10.19-4.86 14-8.48 1.92-1.84 4.28-3.29 7-3a12.68 12.68 0 0 1 5.52 2.51c1.77 1.23 3.47 2.58 5.19 3.87.82.61 1.56 1.3 2.43 1.85a11.62 11.62 0 0 0 1.2.65c.25.12.8.38.26.07a2.77 2.77 0 0 0 1 .44 8.06 8.06 0 0 0 3.17-.11 1.76 1.76 0 0 0 1.51-1.19c.18-.59.31-1.21.51-1.81.63-1.87 1.82-4.56 4.1-4.73 1.49-.11 2.88.67 4.39.27a4.78 4.78 0 0 0 2.41-1.72c.87-1.07 2.19-3.36 3.71-3 .88.2 1.17 1.32 1.31 2.08a17 17 0 0 1 0 3.49c-.07 2.49.7 5.5 3.57 6 2.67.44 5-1.94 5.76-4.3 1-3.13-.61-6.38.08-9.52a7 7 0 0 1 4.89-5.15c1.77-.5 5-.15 5.14 2.24a4.24 4.24 0 0 1-1.18 2.66c-.76 1-1.62 1.9-2.33 2.93a6.29 6.29 0 0 0-.49 6.9c1.17 2 3.67 3.41 6 2.44a5.12 5.12 0 0 0 3-5.2 3.89 3.89 0 0 0-1.63-2.67l-.3 2.25a5 5 0 0 1 4.54.81c.76.61 2.21.31 2.13-.88a43 43 0 0 1 .85-11.76h-2.45c.76 2.43 2.73 3.91 5 4.84a21.52 21.52 0 0 0 3.26 1 11.07 11.07 0 0 0 4.39.41 4 4 0 0 0 3-2.36c.38-.92.44-2.42-.5-3a8.31 8.31 0 0 0-1.11-.45c-.36-.17-.72-.34-1.07-.53a20.12 20.12 0 0 1-1.8-1 22.69 22.69 0 0 1-3.55-2.86l.17.66c.53-1.27 2.75-.87 3.81-.79a8.67 8.67 0 0 0 9.4-7.26c.05-.25-.34-.36-.38-.11a8 8 0 0 1-6.78 6.35c-2.22.28-6-1.39-7.28 1.29a.71.71 0 0 0 .1.82 23.91 23.91 0 0 0 5.18 4.28c.47.29.94.56 1.43.81s.76.19.59.67c-.33 1-1.34 1.2-2.27 1.19a16.5 16.5 0 0 1-5.68-1.35A5.45 5.45 0 0 1 252 381a1.28 1.28 0 0 0-2.45 0 44.07 44.07 0 0 0-.9 12.44l2.13-.89a7.61 7.61 0 0 0-7-1.42 1.26 1.26 0 0 0-.3 2.26c.85.62.43 2-.06 2.71a2 2 0 0 1-2.77.57 3.66 3.66 0 0 1-1.5-3.52c.24-1.45 1.48-2.64 2.4-3.7a10.33 10.33 0 0 0 2.47-3.88 4.78 4.78 0 0 0-1.21-4.62c-2.51-2.55-6.73-2.26-9.55-.46a9.78 9.78 0 0 0-3.58 4 10.59 10.59 0 0 0-.78 5.7c.2 1.89.84 4.16.07 6-.46 1.09-1.89 2.84-3.26 2.2s-1.14-2.72-1.06-3.92a11.51 11.51 0 0 0-.3-4.78 4.17 4.17 0 0 0-3.44-3 4 4 0 0 0-3.37 1.86c-.85 1.13-1.33 2.52-2.53 3.36a2.94 2.94 0 0 1-2.62.17 7.25 7.25 0 0 0-3.1-.28c-3.67.65-5.36 4.91-6.25 8.05l.92-.92a5.54 5.54 0 0 1-1.67.2 3.93 3.93 0 0 1-.52 0c-.18 0-.36-.07-.53-.1s-1.09-.07-.56 0a11.09 11.09 0 0 1-3.37-1.09 20.13 20.13 0 0 1-3.37-2.38c-1-.81-2.1-1.61-3.22-2.33a11.17 11.17 0 0 0-7.06-2.16c-3.44.36-6 2.89-8.19 5.35-2.65 3-6.22 7.35-10.76 5.9-.72-.23-1.15.58-.89 1.15 1.78 4 3.53 8.05 5.34 12.06a39.25 39.25 0 0 0 5.73 9.66c4.32 5.05 12.06 8.43 18.35 4.85 2.57-1.46 4.26-4 5.84-6.44 1.29-2 2.68-4.52 4.95-5.51 2.94-1.29 5.9 1.23 8.89 1a5.33 5.33 0 0 0 3.89-2.16c.58-.71 1.41-2.43 2.46-2.51.64-.05 1.29.61 1.75.95a5.24 5.24 0 0 0 2.07 1.06 4.75 4.75 0 0 0 2.85-.62 1.49 1.49 0 0 1 1.8.46c1.25 1.17 2.11 2.58 3.9 3 1.55.33 3.4-.15 3.74-1.92l-1.82.74 7.58 3.5a34.5 34.5 0 0 0 5.78 2.27c3.5.9 7.63.84 9.77-2.52l-1.68.44 3.41 2.36a1.25 1.25 0 0 0 1.88-1.14 1.18 1.18 0 0 1 1-1.21l-1.08-.62a8.9 8.9 0 0 0 5.51 4.31 1.29 1.29 0 0 0 1.56-1.57 3.89 3.89 0 0 1 2.36-4.06l-1.89-.77 2.43 9.08a1.34 1.34 0 0 0 1.62.92 20 20 0 0 1 12 1.42 20.84 20.84 0 0 1 5.14 3.29c.73.65 1.35 1.38 2 2.08a6.88 6.88 0 0 1 2 2.92c.29 1.1-.35 1.84-1.1 2.57a8.79 8.79 0 0 0-2.89 7.61 9.08 9.08 0 0 0 1.86 4.92 5.29 5.29 0 0 0 .94 1 7.16 7.16 0 0 0 1 .44 2.08 2.08 0 0 1 .87 1.64c.26 2.07-.85 3.73-1.8 5.45-1.24 2.23-2.23 4.74-.93 7.17a1.24 1.24 0 0 0 1.93.25 12.49 12.49 0 0 1 10.45-3.53l-.8-.61c.73 1 .24 2-.42 2.89a21.41 21.41 0 0 1-2.71 2.76c-1.82 1.71-3.71 3.59-3.34 6.27.09.67.87.88 1.42.8 2.44-.34 4.86-.88 7.28-1.34l-1.67-1.27c-.36 3.75.36 9.19 4.61 10.55a5.54 5.54 0 0 0 6-2.29c1.79-2.32 2-5.18 2.5-8a9.24 9.24 0 0 1 4-6.48 8.68 8.68 0 0 1 6.79-1.2c1.33.38 2.61 1 4 .87a3.71 3.71 0 0 0 2.82-2c.52-.9.81-2 1.69-2.68a3.17 3.17 0 0 1 2.27-.46 4.48 4.48 0 0 1 4 3.93c.23 2.84-1.71 5.5-3.92 7.09a1.39 1.39 0 0 0-.49 1.86 1.36 1.36 0 0 0 1.86.49Z"/>
      <path d="M268.15 376a11.43 11.43 0 0 0 2.63-4.33c.07-.22.13-.43.21-.64s.11-.22.34-.31a2.25 2.25 0 0 1 1-.07 4.86 4.86 0 0 1 2 .58 4.79 4.79 0 0 1 1.55 1.42 4 4 0 0 1 .59 2.49 37.31 37.31 0 0 1-.78 5.14c-.49 2.82-.73 6.73 2.32 8.24 3.25 1.6 6.14-1.37 7.38-4.15a22.12 22.12 0 0 0 1.33-6.08 33.33 33.33 0 0 0 .22-6.77l-.4.68a2.76 2.76 0 0 1 4 2.46l.91-.91a5.1 5.1 0 0 0-3.3 1.3 4.81 4.81 0 0 0-.5.51c.21-.25-.44.51-.42.47-.07.13-.13.29-.19.43a5.3 5.3 0 0 0-.41 1.93 4.47 4.47 0 0 0 .4 1.94 3.42 3.42 0 0 0 .35.62 2.25 2.25 0 0 0 1.44.82 12.91 12.91 0 0 0 4.32.61 5.87 5.87 0 0 0 4-1.76c.87-.95 1.47-2.36 2.62-2.82 2.13-.85 4.76.4 6.54 1.78 1.24 1 2.38 2 3.7 2.88a14.91 14.91 0 0 0 3.9 1.82 10.29 10.29 0 0 0 4.38.25c1.46-.2 2.89-.7 4.35-.83.76-.07 1.56-.05 2.31-.18s1.3-.31 2-.39a9 9 0 0 1 4.36.45c2.77 1 5.16 2.89 8.2 3.06 2.62.14 5.75-1.64 6.16-4.4a5.32 5.32 0 0 0-1.43-4.23 22.15 22.15 0 0 0-3.58-3.26l-.57 2.1a7.83 7.83 0 0 0 2.91-.67 10.7 10.7 0 0 0 2.31-1.57 13.09 13.09 0 0 0 3.29-4.6 23.63 23.63 0 0 0 1.74-6.81 38.46 38.46 0 0 0 .38-6.69 8 8 0 0 0-2.23-5.48 5 5 0 0 0-4.7-1.35c-3 .75-4.09 4.37-4.86 7a22.49 22.49 0 0 1-1.78 4.71 17 17 0 0 1-3.28 4.17 16.3 16.3 0 0 1-9.61 4.39 17 17 0 0 1-10.46-2.56 16.44 16.44 0 0 1-4.07-3.64 38.7 38.7 0 0 0-3.34-4.2 6.56 6.56 0 0 0-4.85-2 12.2 12.2 0 0 0-5.39 1.92 17 17 0 0 0-2.59 1.86 24 24 0 0 1-2.13 1.79 8.39 8.39 0 0 1-4.79 1.89 3.87 3.87 0 0 1-2-.65l.59 1.44a10 10 0 0 1 1.34-2.49c.53-.78 1.06-1.56 1.66-2.28a19.42 19.42 0 0 1 4.32-3.82 1.41 1.41 0 0 0 .28-2.19c-2.48-2.05-5.5-1.42-8.31-.47a33 33 0 0 1-4.14 1.28 4.6 4.6 0 0 1-3.14-.31c-1.58-.88-3 1.55-1.42 2.43 2.7 1.51 5.73.6 8.45-.35a24.11 24.11 0 0 1 3.92-1.14c.17 0 .18 0 0 0h.65a4.47 4.47 0 0 1 .52 0c.33 0-.18-.05.13 0a3.64 3.64 0 0 1 .84.24c-.27-.12.19.12.24.14s.43.32.26.18l.28-2.19a21.53 21.53 0 0 0-4.94 4.34 16.63 16.63 0 0 0-1.91 2.72c-.51 1-.94 2-1.41 3a1.33 1.33 0 0 0 .2 1.55 6 6 0 0 0 5.45 1.16 13.35 13.35 0 0 0 5.12-2.69c.75-.58 1.44-1.24 2.15-1.87s1.28-1.35 2-1.95a7.87 7.87 0 0 1 2.35-1.57 5.05 5.05 0 0 1 2.61-.23 7.08 7.08 0 0 1 3.91 3 41.87 41.87 0 0 0 3.29 4.1 18.51 18.51 0 0 0 9.39 4.92 17.41 17.41 0 0 0 10.44-1.14 18.61 18.61 0 0 0 7.81-6.57 17.25 17.25 0 0 0 2.26-4.72c.44-1.46.79-2.94 1.35-4.35a5.68 5.68 0 0 1 2.38-3.19 3.19 3.19 0 0 1 3.91 1.23c1.2 1.6 1.18 3.68.94 5.57-.27 2.16-.7 4.31-1.08 6.45-.64 3.55-2 7.36-5.35 9.21a9.16 9.16 0 0 1-2.19.92 1.14 1.14 0 0 0-.27 2.06c1.8.89 4 2.19 4.32 4.41a2.5 2.5 0 0 1-.91 2.24 3.34 3.34 0 0 1-2.15.56 9.15 9.15 0 0 1-2.6-.26 20.31 20.31 0 0 1-3.31-1.46 13.85 13.85 0 0 0-7.53-1.86 11.19 11.19 0 0 0-3.76.85 19.15 19.15 0 0 1-3.28 1.26c-2.17.58-4.65.78-6.67-.38a14.5 14.5 0 0 1-2.73-2.16c-.88-.84-1.82-1.63-2.78-2.38a11.87 11.87 0 0 0-6.39-2.7 6.39 6.39 0 0 0-3.66.79c-1.23.71-1.83 1.86-2.71 2.92-1.54 1.86-4.34 1-6.35.4l.82.64a2.19 2.19 0 0 1-.07-2.31c0-.09.24-.73.12-.45-.05.12.12-.22.12-.21a2.41 2.41 0 0 1 .36-.52 1.57 1.57 0 0 1 1.17-.51.93.93 0 0 0 .91-.91 4.56 4.56 0 0 0-6.61-3.83.78.78 0 0 0-.39.69c.27 3.66.14 7.75-1.43 11.15a7.17 7.17 0 0 1-2.64 3.24 1.91 1.91 0 0 1-2.58-.29c.08.1-.31-.51-.26-.39a4.63 4.63 0 0 1-.25-.88 4.87 4.87 0 0 1-.06-.76 9.3 9.3 0 0 1 0-1.18 37.62 37.62 0 0 0 .58-4.47 12.35 12.35 0 0 0-.27-2.65 12.06 12.06 0 0 0-1-2.52 6.17 6.17 0 0 0-3-2.94 3.92 3.92 0 0 0-2.23-.4c-.55.1-1.56.3-1.88.84a1.79 1.79 0 0 0-.11.51 5.59 5.59 0 0 1-.33.89 13.06 13.06 0 0 1-.66 1.29 16.67 16.67 0 0 1-1.71 2.49c-.32.37.21.92.56.55ZM634.81 115.26a5.38 5.38 0 0 1 0 1.92 3.3 3.3 0 0 1-1.11 1.64 5.39 5.39 0 0 1-3.85 1.33 5.58 5.58 0 0 1-1.82-.88c-.66-.33-1.42-.45-2-.83a5.93 5.93 0 0 1-2.09-2.86 17.91 17.91 0 0 1-.71-2 10.55 10.55 0 0 1-.54-2.35 3 3 0 0 1 .39-1.87 4.16 4.16 0 0 1 1.09-1 3.88 3.88 0 0 1 1.52-.82 8.1 8.1 0 0 1 2-.13 7.26 7.26 0 0 1 1.86.19c.56.16 1.5.47 1.78 1 .36.75 0 1.7.4 2.48a9.53 9.53 0 0 0 1.72 2 7.43 7.43 0 0 1 1.34 2.07 7.7 7.7 0 0 0 .54 1.12c.27.4.59.78.89 1.17.53.66 1.55.07 1.57-.65v-1.28a5.14 5.14 0 0 0-.52-1.68 9 9 0 0 0-1.64-2.52c-.59-.62-1.17-1.22-1.73-1.88-.26-.32-.53-.62-.79-1a8 8 0 0 0-.92-.83 7.84 7.84 0 0 0-4.32-1.86 8.58 8.58 0 0 0-2.32.12 12.3 12.3 0 0 0-2.17.45 5.4 5.4 0 0 0-3 4 10.47 10.47 0 0 0 .88 5.78 9.65 9.65 0 0 0 3 4.41 11.82 11.82 0 0 0 2.45 1.13c.45.2.83.53 1.27.74a5 5 0 0 0 1.61.49 8.26 8.26 0 0 0 6.24-2.11c1.59-1.4 2.76-4.24 1.37-6.15a1.24 1.24 0 0 0-1.35-.55 1.19 1.19 0 0 0-.87 1.15ZM617.39 252.55c1.44-3.15 2.92-6.58 2-10.1a7.09 7.09 0 0 0-2.53-3.88c-1.18-.87-2.66-.76-4-1.24a3.11 3.11 0 0 1-1.55-1 3.45 3.45 0 0 1-.46-2.13c0-.77.14-1.53.21-2.29a19.5 19.5 0 0 0 0-2.86 17.19 17.19 0 0 0-.31-2.47c-.09-.45-.2-.89-.33-1.33a2.45 2.45 0 0 0-.61-1.32c-1-.88-2.71-1-4-1h-.4a4.66 4.66 0 0 0-1.12.06 6.56 6.56 0 0 1-1.17.06 5.09 5.09 0 0 1-2.05-.58 16.84 16.84 0 0 1-4.07-3.37l-1 2.3 1.84-.2a1.37 1.37 0 0 0 1.16-2 4 4 0 0 0-6-1.14l2.22.59c-.52-3.82-1.13-7.62-1.73-11.42-.3-1.86-.72-3.75-.85-5.63s-.35-3.87-.38-5.8c0-1.29-2-2-2.58-.69a6.23 6.23 0 0 1-6.63 3.47l.79 1.94a62.21 62.21 0 0 0 3.35-7.05c.74-2 1.27-4.4.47-6.43a5.47 5.47 0 0 0-4.24-3.38 5.82 5.82 0 0 0-5.12 1.45 1.78 1.78 0 0 0-.59 1.79c.08.49 0-.12 0 .17v.3a1.75 1.75 0 0 1-.11.45 1.65 1.65 0 0 1-1.28.94 1.85 1.85 0 0 1-1.54-1.1 2.52 2.52 0 0 1 .22-2.32 13.89 13.89 0 0 0 1.36-3.08 5.78 5.78 0 0 0-.09-3.06 7.15 7.15 0 0 0-3.73-4.23c-2-.88-5.13-1-5.52 1.75a16.16 16.16 0 0 0-.08 2.09 10.12 10.12 0 0 1-.31 2.32 11.45 11.45 0 0 0-.42 2.25v2.47l2.05-1.18a6 6 0 0 1-3.16-5.17 1.34 1.34 0 0 0-1.67-1.28c-6.85 1.44-10.91 8-12.54 14.36-.2.8-.37 1.6-.5 2.42a8.72 8.72 0 0 1-.59 2.53 2.57 2.57 0 0 1-2.16 1.2 20.24 20.24 0 0 1-3.3.19c-4-.06-8.1-.82-12 .34a10.51 10.51 0 0 0-4.45 2.49 13 13 0 0 0-2.83 4.81 10.21 10.21 0 0 0-.42 3.07 28.43 28.43 0 0 0 0 2.92 3.45 3.45 0 0 0 2.19 3.44 3.32 3.32 0 0 1 1 .56c-.1-.1.15.27.11.17s.06.38 0 .17a1.6 1.6 0 0 1-.13.83 4.13 4.13 0 0 1-1.13 1.6 10.61 10.61 0 0 1-2 1.22 15.84 15.84 0 0 0-2.19 1.43 5 5 0 0 0-1.66 5 8 8 0 0 0 3.32 4.39 38.21 38.21 0 0 1 4.38 3.07 4.09 4.09 0 0 1 1.4 2.28 4.9 4.9 0 0 1-.28 2.4 4.24 4.24 0 0 1-1.27 1.8 5.57 5.57 0 0 0-1.88 2 4.93 4.93 0 0 0 .14 3.32 18.64 18.64 0 0 0 1.14 3 18.89 18.89 0 0 0 1.57 2.58l.21-1.68a21 21 0 0 0-6.19 9.49 1.38 1.38 0 0 0 .63 1.54 1.43 1.43 0 0 0 1.65-.22 14.25 14.25 0 0 0 3.57-4.41l-2.33-1.37-2.22 5.1.8-.62h-.39c-.19 0 .23.05 0 0l-.35-.1c.26.08-.07 0-.16-.09l-.37-.24c.21.15-.05-.06-.11-.12a7.28 7.28 0 0 1-.66-.7l-.14-.17-.27-.36c-.25-.33-.51-.66-.78-1-.41-.51-.82-1-1.27-1.51a6 6 0 0 0-3.33-2 6.85 6.85 0 0 0-2.81.2 12 12 0 0 1-2.7.63c-1.85.05-3-2.21-3.6-3.68a17.93 17.93 0 0 1-1.24-5.74c-.15-2-.13-4-.12-6.06 0-1.86.06-4.13-1.51-5.45-1.9-1.62-4.39-.75-6.49-.09a4.11 4.11 0 0 1-2.2.14c-.6-.15-1.07-.39-1.08-.88a1.06 1.06 0 0 0-2.12 0c.05 2.05 1.87 3 3.71 3.19a7.75 7.75 0 0 0 2.86-.4 7.59 7.59 0 0 1 3.07-.62c2 .29 1.6 3.49 1.62 4.91a55 55 0 0 0 .42 6.91 16.77 16.77 0 0 0 2.12 6.38 8.45 8.45 0 0 0 2.19 2.53 4.2 4.2 0 0 0 3.15.58c1.07-.18 2.06-.65 3.12-.85a2.42 2.42 0 0 1 2.07.5 11.75 11.75 0 0 1 2.39 3.28 7.06 7.06 0 0 0 3.73 3.37 4.24 4.24 0 0 0 1.33.13 1.8 1.8 0 0 0 1-.32 2.71 2.71 0 0 0 .69-1.15l1.9-4.31a1.39 1.39 0 0 0-.48-1.85 1.36 1.36 0 0 0-1.85.48 12.16 12.16 0 0 1-3.17 3.85l2.28 1.33a18.36 18.36 0 0 1 5.53-8.25 1.39 1.39 0 0 0 .22-1.68 19.77 19.77 0 0 1-2.64-5.15 3.24 3.24 0 0 1-.28-1.21c0-.34.3-.54.54-.76a6.06 6.06 0 0 0 1.48-2c1.48-3.33-.11-6.75-2.77-8.9a23 23 0 0 1-4-3.44c-.91-1.17-1.68-2.89-.6-4.2 1-1.15 2.48-1.75 3.74-2.5a6.91 6.91 0 0 0 3.2-3.83 3.59 3.59 0 0 0-1.69-4.39c-.65-.35-1.34-.41-1.44-1.22a17.25 17.25 0 0 1 0-2.49c0-.95.14-1.87.23-2.8a11.57 11.57 0 0 1 .43-2.61 6.55 6.55 0 0 1 3.56-3.3c3.47-1.56 7.4-1 11.07-.78a20.64 20.64 0 0 0 6.42-.34c2-.53 2.8-2.12 3.18-4 1.19-5.84 3.85-12.43 9.71-15a11.2 11.2 0 0 1 2.27-.68l-1.67-1.27a8.64 8.64 0 0 0 4.42 7.52 1.37 1.37 0 0 0 2-1.17c0-.82.05-1.65.07-2.47a5.23 5.23 0 0 0-.17-1.31c-.09-.39-.14-.79-.2-1.18a11.17 11.17 0 0 1-.14-2.45 3.9 3.9 0 0 1 .28-2c.64-.89 2.3-.19 3 .27a4.87 4.87 0 0 1 1.78 2.18 4.61 4.61 0 0 1 .3 2.76c-.32 1.28-1.22 2.35-1.65 3.6a4.77 4.77 0 0 0 3.48 6.19 4.07 4.07 0 0 0 3.82-1.44 3.9 3.9 0 0 0 .63-4.27v1.35a3.41 3.41 0 0 1 3.18-1.29 3.17 3.17 0 0 1 2.71 2.49c.44 1.76-.32 3.58-1.1 5.13-1 2-2.26 3.84-3.34 5.79a1.32 1.32 0 0 0 .79 1.93 8.91 8.91 0 0 0 9.72-4.62l-2.53-.33c.46 1.83.75 3.73 1.11 5.58s.47 3.86.67 5.77c.4 3.83.8 7.66 1.29 11.48a1.35 1.35 0 0 0 2.27.94.83.83 0 0 1 .44-.17h.52a1.14 1.14 0 0 1 .89.76l1.16-2-1.84.18a1.37 1.37 0 0 0-.95 2.31 18 18 0 0 0 4.76 3.84 8.27 8.27 0 0 0 3.07.88 4.68 4.68 0 0 0 3.21-.65l-.57.33c.88-.33 2.07-1 3-.57.28.13.27.13.37.44s.2.65.29 1a15.65 15.65 0 0 1 .37 1.93 14.34 14.34 0 0 1-.07 4 11.51 11.51 0 0 0-.21 3.36 3.93 3.93 0 0 0 1.53 2.68 14.58 14.58 0 0 0 2.67 1.36 6.82 6.82 0 0 1 2.33 1.68 5.15 5.15 0 0 1 1 2.43c.47 2.58-.82 5.19-1.88 7.46a1.41 1.41 0 0 0 .5 1.89 1.39 1.39 0 0 0 1.89-.49Z"/>
      <path d="M495.84 231.53c-1.24-1-.55-3.44-.45-4.82.16-2.11-.76-3.89-3.09-3.89-.53 0-1.14.27-1.6-.09a1.87 1.87 0 0 1-.63-1.27c-.17-1.5.69-3.05 1-4.48a9.83 9.83 0 0 0-1.71-8.25 7 7 0 0 0-3.29-2.13 12.41 12.41 0 0 0-2-.65 5.77 5.77 0 0 0-2.07.05l1.22 1.59a6.23 6.23 0 0 0 .93-1.69 9.29 9.29 0 0 0 .28-2.17 10.65 10.65 0 0 0-.64-4 10.37 10.37 0 0 0-5.23-5.81c-1.28-.59-2.84-.9-3.22-2.44-.32-1.28-.6-2.47-1.9-3.07-2.34-1.09-4.79.51-6.38 2.12a15.28 15.28 0 0 1-3.12 2.84c-1.56.87-3.32.23-5 .42-2.75.33-4.63 2.61-5.72 5a27.18 27.18 0 0 0-1.08 19.21 25 25 0 0 0 2.05 4.54 16.73 16.73 0 0 1 2 4.3 6.48 6.48 0 0 1-.81 4.18 8.22 8.22 0 0 0-1 4.57c.22 1.43 1.39 2.89 1.13 4.35s-1.15 2.73-.61 4.31c.76 2.24 3.18 2.66 5.05 3.59a2.4 2.4 0 0 1 1.48 1.53 1.93 1.93 0 0 1-.13.67 4.66 4.66 0 0 1-.62 1c-1.29 1.61-3 2.86-4 4.74a4.92 4.92 0 0 0-.49 3.17 7.29 7.29 0 0 0 2.21 3.44 4.53 4.53 0 0 1 1.6 3.71 16 16 0 0 1-1.38 4.67c-1.46 3.53-2.94 7.05-4.4 10.58a9.62 9.62 0 0 1-.95 2 2.06 2.06 0 0 1-1.68.63c-1.92.12-3.86.19-5.78.28s-3.86.21-5.8.28a3.6 3.6 0 0 1-2-.28 2 2 0 0 1-.68-1.52 48 48 0 0 1 .06-5.36l.11-5.77.11-5.78a1.35 1.35 0 0 0-.67-1.18c-4.2-2.44-8.52 1.35-10.3 5-1 2-1.68 4.29-3.08 6.11a15.32 15.32 0 0 1-5.09 3.73 23.63 23.63 0 0 0-5.45 3.6 15 15 0 0 0-3.49 5.48c-1.64 4.2-1.86 8.87-2.21 13.32-.37 4.77-.32 9.72 2.37 13.88 1.13 1.76 2.72 3.31 3.51 5.27.57 1.41.34 3.42-1.08 4.28-1.79 1.08-2.94-2.35-3.33-3.5a27.91 27.91 0 0 1-1-6.55c-.31-3.3-1.3-7.83-5.39-8a5.8 5.8 0 0 0-5 3.16 9.18 9.18 0 0 0-.59 7.05c.68 2.64 2.16 5 2.47 7.78a12.38 12.38 0 0 1-.22 4.07 13.44 13.44 0 0 1-.6 2c-.11.26-.22.52-.35.76a2.75 2.75 0 0 1-.24.41c-.24.2-.07.23.52.07l.48.48c-.16-.21.08.28-.05.48l-.49.49h-.84.13l-1-1.31a115.45 115.45 0 0 0 2.77 16.53c1.06 4.31 3.28 9.42.48 13.53l1.31-.34c-4.24-3.11-4.9-9.08-5.6-13.88-.89-6.08-2-12.23-1.82-18.4a28.36 28.36 0 0 1 1.52-8.66c.82-2.27 3.26-5.3 1.66-7.73a7.63 7.63 0 0 0-2.78-2.07 14.09 14.09 0 0 1-3-2.59c-1.69-1.77-3.45-3.57-5.92-4.15a9.27 9.27 0 0 0-11.13 7.72c-.18 1.38 2 1.86 2.58.7a10.11 10.11 0 0 1 4-4.23l-1.88-1.88c-.77 1.49-2.27 3.61-4.12 3.76s-1.74-1.84-1.18-2.94c1-2 3-2.56 5-3.12a14.43 14.43 0 0 0 6.28-3c3-2.82 4-7.26 4.32-11.23.17-2.06.7-4.86-1.29-6.21-1.61-1.1-3.87-.81-5.71-.68a28.91 28.91 0 0 0-6.79 1.16 9.21 9.21 0 0 0-5.34 4.07 1.35 1.35 0 0 0 0 1.41 2.6 2.6 0 0 0 4.09.39c1.17-1.38-.82-3.38-2-2-.21.25 0 0 0 0s.17 0 .29.16v1.41c2.05-3.45 6.28-4.21 10-4.35a16.47 16.47 0 0 1 3 0c1 .15 1.46.51 1.41 1.6A35.39 35.39 0 0 1 386 294a12.81 12.81 0 0 1-2.19 5.21c-1.39 1.77-3.35 2.49-5.45 3.07s-4.54 1.19-6.11 2.94a6.3 6.3 0 0 0-1.74 5.38 4.22 4.22 0 0 0 5.26 3c2.38-.65 4.29-2.82 5.39-4.93a1.38 1.38 0 0 0-1.87-1.88 12.77 12.77 0 0 0-5 5.2l2.58.7c.47-3.55 5-6.19 8.35-5.31 2.36.61 4 2.69 5.74 4.2a14 14 0 0 0 3 1.93c1.17.57 2.33 1.24 2 2.75a22.31 22.31 0 0 1-1.64 3.76 25.39 25.39 0 0 0-1.32 4.08 36.31 36.31 0 0 0-.82 8.19c0 5.83 1 11.64 1.81 17.41.71 5.26 1.7 11 6.21 14.41a1 1 0 0 0 1.31-.34c2.82-4 1.78-9.49.73-13.95a123.15 123.15 0 0 1-2.93-17.08 1.39 1.39 0 0 0-1-1.3c-2.69-.62-2.87 3.83-.17 3.72 1.29-.06 2.06-1.22 2.54-2.28a14.86 14.86 0 0 0 1.15-3.74 15.87 15.87 0 0 0-.69-7.73c-.79-2.3-2.13-4.66-2.31-7.12-.13-1.71.64-4 2.28-4.75 1.46-.71 2.87.45 3.38 1.76a17.64 17.64 0 0 1 .75 5.41 21.61 21.61 0 0 0 1.61 7.48c.9 2.08 2.49 4.33 5.06 4a5.27 5.27 0 0 0 4.06-3.92c1.5-4.89-3.55-8.16-5.26-12.14-1.94-4.53-1.3-9.82-.73-14.57.52-4.27 1.34-9.08 4.49-12.28s8.07-4.05 11-7.63c1.55-1.91 2.34-4.2 3.4-6.38.9-1.86 2.16-3.75 4.23-4.41a2.9 2.9 0 0 1 2.46.17l-.67-1.18-.17 11.55c0 1.73-.16 3.5 0 5.23a4.71 4.71 0 0 0 2 3.93c1.39.86 3.13.67 4.68.6l5.87-.27a48.73 48.73 0 0 0 5.54-.32 4.42 4.42 0 0 0 3.41-2.85c1.51-3.44 2.9-6.92 4.35-10.38 1.25-3 2.92-6.35 1.67-9.61a12.25 12.25 0 0 0-2.48-3.53 2.93 2.93 0 0 1-1-2.69c.51-1.71 2.35-3 3.51-4.28 1.36-1.52 2.44-3.44 1.47-5.48s-3.31-2.49-5.18-3.46c-.8-.41-1.27-.75-1.06-1.69.17-.78.56-1.48.69-2.27a5.27 5.27 0 0 0-.18-2.46c-.44-1.41-1.23-2.61-.8-4.13s1.29-2.76 1.63-4.25c.8-3.4-1.18-6.27-2.71-9.11a21.32 21.32 0 0 1-2.45-9.21 32 32 0 0 1 1-9.65c.61-2.32 1.84-5.34 4.51-5.83 1.63-.29 3.24.18 4.81-.51a9.11 9.11 0 0 0 3.1-2.59A8.47 8.47 0 0 1 470 190c.93-.39 2.49-.72 3.22.22a5.3 5.3 0 0 1 .57 2 3.72 3.72 0 0 0 1.09 1.81c1 .94 2.33 1.35 3.42 2.15a8.92 8.92 0 0 1 3.36 6.29 8.63 8.63 0 0 1 0 1.76 5.44 5.44 0 0 0-.19 2.08v-.67a10.59 10.59 0 0 1-.23 1.12 1.1 1.1 0 0 0 1.56 1.24 3.2 3.2 0 0 1 3.5-.09 5.55 5.55 0 0 1 2.28 2.94c.93 2.86-.22 5.6-.92 8.35-.62 2.39-.08 5.79 2.82 6.37a8 8 0 0 0 2.13-.16c.12 0 .41.08.33 0s0 0 .08.1a5.19 5.19 0 0 1 .19 1.94c0 2-.23 4.16 1.52 5.47.83.62 1.92-.77 1.11-1.44Z"/>
      <path d="M373.5 290.61a10.47 10.47 0 0 1 4-2.9l-1.56-2a17.61 17.61 0 0 1-2.21 2.67c-.56.56-1.6 1.76-2.47 1.75a.56.56 0 0 1-.32-.1 1.63 1.63 0 0 1-.32-.28 4.42 4.42 0 0 1-.56-1 6.66 6.66 0 0 1-.67-3.06 1.75 1.75 0 0 1 .14-.51l.14-.22s-.16.18 0 0a2.73 2.73 0 0 1 .33-.35s.18-.15 0 0a2.7 2.7 0 0 1 .31-.2 7.81 7.81 0 0 1 2-.67c1.52-.35 3.18-.62 4.39-1.68a3.9 3.9 0 0 0 1.22-2.41 15.61 15.61 0 0 0 .24-2.81c-.06-1.61-.73-3.48-2.6-3.54a5.4 5.4 0 0 0-1.78.38 20.24 20.24 0 0 1-2.19.45 13.15 13.15 0 0 0-2 .37c-.63.21-1.26.42-1.9.59-2.24.62-4.76.94-6.89-.2a6.86 6.86 0 0 1-3.42-4.27c-.58-2.22-.14-4.57-.41-6.83a8.85 8.85 0 0 0-1.05-3.48 12.69 12.69 0 0 0-1.82-2.31c-1.12-1.17-2.8-2.3-3.25-3.87s1-3 2.53-3.53c.77-.24 2.17-.62 2.62.28.6 1.21.9 2.53 1.56 3.72s1.33 2.38 2 3.59a2.41 2.41 0 0 1 .38 1.37c-.08.65-.32 1.27-.39 1.92a7.15 7.15 0 0 0 2.46 5.69 11.69 11.69 0 0 0 2.82 1.94c1 .54 2.08 1.12 3.15 1.58a6.69 6.69 0 0 0 3.6.63 7.12 7.12 0 0 0 3.2-1.48c3.33-2.47 7-5.73 8-9.91a13.47 13.47 0 0 0 .31-3 .84.84 0 0 0-.59-.79 22.56 22.56 0 0 0-2.75-1.06c-1-.25-2.1-.38-3.15-.57a5.62 5.62 0 0 1-1.23-.27c-.07 0-.33-.21-.18-.09 0 0-.29-.32-.14-.13-.2-.26 0 .15-.08-.15 0 0-.07-.43-.05-.17a2.84 2.84 0 0 1 0-.41 1.18 1.18 0 0 1 .05-.35 2.86 2.86 0 0 1 .65-1.33 3.11 3.11 0 0 1 1.77-.9c1.72-.42 3.53-.3 5.22-.83a9.42 9.42 0 0 0 6-5.74 9.69 9.69 0 0 0 .69-4.29c-.16-1.73-.79-3.39-.89-5.12a5.17 5.17 0 0 1 .62-2.94 7.72 7.72 0 0 0 1.17-2.56 7.17 7.17 0 0 0-.48-3.13l-1-3.29a.58.58 0 0 0-.95-.25 8.25 8.25 0 0 1-1.78 1.45c-.65.37-1.31.71-2 1l.56-.15a4.33 4.33 0 0 0-1.7.75c-.5.28-1 .55-1.52.8a5.09 5.09 0 0 1-1.19.47s-.43.09-.42 0 .23.07.22.09a6.67 6.67 0 0 0 .21-1l.42-2 .83-3.91a1.38 1.38 0 0 0-.95-1.67c-2.85-.92-5.72 0-8.38 1.07-2.49 1-5.24 2.62-8 2.42l1.11 1.94c.93-1.37 1.85-2.74 2.72-4.15.37-.59.71-1.2 1.12-1.77a2.38 2.38 0 0 1 1.34-.86c2.82-.94 5.76-1.9 8.76-1.76 2.79.13 5.88 2.44 8.32.09 2.13-2.06 1.56-5.23.09-7.47a8.13 8.13 0 0 0-2.85-2.86 5.48 5.48 0 0 0-3.84-.42c-1.35.3-2.71.54-4 .91a14.09 14.09 0 0 0-1.91.94 7.19 7.19 0 0 1-2 .61 2.35 2.35 0 0 1-2.37-.85 2.84 2.84 0 0 1-.4-.82.74.74 0 0 1 .09-.72 1.44 1.44 0 0 1 .6-.36 4.6 4.6 0 0 1 1.24-.21 8.76 8.76 0 0 0 3.08-.62 3.08 3.08 0 0 0 1.8-2.67 5.11 5.11 0 0 0-1.71-3.5c-1.7-1.84-3.76-3.83-6.29-4.38a5.09 5.09 0 0 0-5.87 3.16 10.8 10.8 0 0 0-.69 3.86 9.49 9.49 0 0 0 .15 2.26c.18.74.49 1.44.71 2.16a2.35 2.35 0 0 1 .14.69l-.06.21a.17.17 0 0 1 0-.12s-.13.12 0 0a1 1 0 0 1-.22.13c.24-.11-.16 0-.18 0 .27-.05-.48-.05-.25 0a.93.93 0 0 1-.77-.45 3.34 3.34 0 0 1-.56-1.53c-.33-2 .38-7.1-3-6.84a3.67 3.67 0 0 0-1.64.6 7.35 7.35 0 0 1-1.34.81c-1 .33-1.73-.89-1.87-1.72a10.09 10.09 0 0 1 .53-4 26.07 26.07 0 0 1 1.5-4.3c1.06-2.35 2.55-4.79 2.58-7.44a5.15 5.15 0 0 0-1.16-3.37 8.63 8.63 0 0 0-3.41-2.14c-2.9-1.24-5.85-2.41-8.67-3.81a2.94 2.94 0 0 0-2-.35 3.22 3.22 0 0 0-1.72 1.36c-.56.82-1.12 2-2 2.29a.8.8 0 0 1-.34 0c.05 0-.47-.15-.35-.09l-.22-.13c-.11-.13-.13-.14-.05 0-.15 0 0-.25 0 0v-.18a1.42 1.42 0 0 0-1.41-1.41 1.44 1.44 0 0 0-1.41 1.41c-.14 1.83 1.59 3.06 3.24 3.2 1.87.15 3.29-1.27 4.24-2.7.22-.33.45-.67.64-1 0-.09.12-.44.24-.5s0 0 .11 0a13.31 13.31 0 0 1 2.8 1l6 2.53c1.48.63 3.17 1.28 3.55 3 .35 1.58-.39 3.34-1.07 4.73-1.67 3.48-3.7 7.09-3.88 11.05a4.66 4.66 0 0 0 3 4.87 3.68 3.68 0 0 0 2.91-.45c.36-.2.7-.43 1.06-.62a1.07 1.07 0 0 1 .41-.16c-.14 0-.29-.08-.07.07l-.47-.47c.84 1.51.44 3.46.67 5.11a4.78 4.78 0 0 0 2.77 4 3.45 3.45 0 0 0 4.12-1.16 3.68 3.68 0 0 0 .22-3A18.62 18.62 0 0 0 365 201a6.09 6.09 0 0 1-.67-2.77 4.64 4.64 0 0 1 .76-2.12 3.26 3.26 0 0 1 3.88-1.29 10.54 10.54 0 0 1 4.06 2.84 7.69 7.69 0 0 1 1.56 2 1.85 1.85 0 0 1 .24 1 1 1 0 0 1-.25.47 2 2 0 0 1-1.2.31c-.65 0-1.29 0-1.93.12a4.25 4.25 0 0 0-3.63 2.09 4.18 4.18 0 0 0 .78 4.38 4.91 4.91 0 0 0 4.22 1.79 9.09 9.09 0 0 0 2.85-.7c.48-.2 1-.42 1.43-.66a5.45 5.45 0 0 0 1.32-.91 7.45 7.45 0 0 1 2.18-1.46 4.17 4.17 0 0 1 2.68 0c1.55.56 2.63 2.46 3.11 3.95.4 1.24.4 3.09-1 3.68a3.43 3.43 0 0 1-2.26-.3 14 14 0 0 0-2.85-.71 17.76 17.76 0 0 0-6.16.42c-1 .23-2 .51-3 .81a14.53 14.53 0 0 0-2.88 1 5.64 5.64 0 0 0-1.92 2c-.57.91-1.16 1.81-1.72 2.72s-1.07 1.86-1.61 2.79a1.29 1.29 0 0 0 1.11 1.93c3 0 5.66-1.12 8.39-2.27 2.36-1 4.85-2 7.3-1.17l-.95-1.67c-.47 2.11-.95 4.22-1.4 6.34a3.61 3.61 0 0 0 .25 2.79 2.65 2.65 0 0 0 2.32 1.15c1.76 0 3.33-1.35 4.69-2.32a11.71 11.71 0 0 0 2-2c.28-.32.53-.68.82-1s.75-.67 1.1-1l-.95-.25.82 3.08a7.7 7.7 0 0 1 .43 2.93 9.91 9.91 0 0 1-1.06 2.54 5.82 5.82 0 0 0-.42 2.44 50.8 50.8 0 0 0 1 5.32 7.51 7.51 0 0 1-.74 4.71 9.11 9.11 0 0 1-3.09 3.32 8.83 8.83 0 0 1-4.6 1.25c-1.76.07-3.69.07-5.27 1a4.92 4.92 0 0 0-2.41 3.55 3.51 3.51 0 0 0 3 3.77c1.09.24 2.2.42 3.3.63a19.45 19.45 0 0 0 3.74.12l-.78-.59c.78 2.07-.27 4.33-1.52 6a24 24 0 0 1-5.1 4.76 8.82 8.82 0 0 1-3.07 1.73 5 5 0 0 1-3.55-.76 14.58 14.58 0 0 1-2.75-2 18.8 18.8 0 0 1-2.38-2.34 4.4 4.4 0 0 1-1-2.14 4.3 4.3 0 0 1 .2-1.55 5.22 5.22 0 0 0 .13-2.22 13.18 13.18 0 0 0-1.76-3.69l-1-1.82a16.78 16.78 0 0 0-1.26-1.81c-.69-.94-1.38-2.13-2.56-2.51a5.79 5.79 0 0 0-3.17.1 5.39 5.39 0 0 0-4.15 4.07c-.32 2.06.78 3.77 2.08 5.26s2.86 2.65 3.41 4.51c.67 2.25.18 4.68.44 7a9.67 9.67 0 0 0 3 6.21 9.78 9.78 0 0 0 6.77 2.51 16.49 16.49 0 0 0 4-.61c.68-.18 1.35-.39 2-.62a10.71 10.71 0 0 0 1.95-1c.57-.33 1.14-.7 1.74-1a2.92 2.92 0 0 1 1.91-.46c.74.23 1 1.17 1.11 1.84.3 1.71 0 4.06-1.86 4.71-1.54.54-3.25.36-4.84.66a4.16 4.16 0 0 0-3.68 4.05 9.8 9.8 0 0 0 .71 3.5 5.85 5.85 0 0 0 1.81 2.78c2.38 1.82 5-.31 6.71-2a17.54 17.54 0 0 0 2.38-3 1.38 1.38 0 0 0-.22-1.66 1.42 1.42 0 0 0-1.66-.22 12.58 12.58 0 0 0-4.71 3.62 1.3 1.3 0 0 0 0 1.8 1.28 1.28 0 0 0 1.8 0Z"/>
      <path d="M338.23 173.84a4.76 4.76 0 0 1 1.26-4.12 13.35 13.35 0 0 1 2.19-1.44 3.55 3.55 0 0 0 1.54-2.73 7.74 7.74 0 0 0-1.67-5.48c-1-1.26-3-3.2-4.59-1.7a7.58 7.58 0 0 0-1.23 2.25 3.3 3.3 0 0 1-2.66 1.69l.61.61a38.48 38.48 0 0 0-1.27-9.91.79.79 0 0 0-1.16-.48 8 8 0 0 0-2.35 2.21 10.22 10.22 0 0 1-2 2.31 3.63 3.63 0 0 1-1.35.63 1.56 1.56 0 0 1-.61 0c.24.06-.65-.27-.42-.16a2 2 0 0 1-1-1.4 8.31 8.31 0 0 1-.28-2.45c0-.84-.06-1.87.64-2.46s1.79-.94 2.58-1.58a3.72 3.72 0 0 0 1.49-2.95 2.67 2.67 0 0 0-1.95-2.38 7 7 0 0 0-3 .11 2.08 2.08 0 0 1-2-.48 17.59 17.59 0 0 1-1.61-2.21 9.65 9.65 0 0 0-2.36-2.28 15.3 15.3 0 0 0-2.93-1.3 1.39 1.39 0 0 1-.86-1.17c-.17-.69-.28-1.4-.42-2.09l-.75-3.9c-.3-1.54-.65-3.07-1-4.59a16 16 0 0 0-1.2-3.7c-1-2-3.52-3.71-5.77-2.82a1.2 1.2 0 0 0-.82 1.45 12.88 12.88 0 0 1 .36 1.61 7.91 7.91 0 0 1 .19 1.28 6.38 6.38 0 0 1-.46 2.76l1.51-.62h-.1q-.19-.06 0 0h.06c-.1-.06-.11-.06 0 0s-.05-.21.08.1c0-.06-.08-.11-.1-.17-.09-.22 0 0 0 0s-.05-.14-.07-.21-.11-.42-.16-.63a9.59 9.59 0 0 0-.62-2.29 2.66 2.66 0 0 0-2.43-1.54c-.53 0-1.14.3-1.64.24a1.7 1.7 0 0 1-.94-.61 27.28 27.28 0 0 0-2-2.34 4.55 4.55 0 0 0-3-1.16 2.55 2.55 0 0 0-2.43 2.07 12.47 12.47 0 0 0-.09 1.83 10.35 10.35 0 0 1-.24 1.76 10.65 10.65 0 0 1-4 6.14 1.23 1.23 0 0 0 .95 2.25 8 8 0 0 0 5.71-8.18 1.26 1.26 0 0 0-2.46-.33 35.1 35.1 0 0 1-1.83 3.75c-.33.59-.68 1.17-1 1.74a6.11 6.11 0 0 1-1 1.47c-.63.5-1.57-.87-1.92-1.29a26.25 26.25 0 0 0-2.73-2.94c-1-.89-2.1-1.69-3.16-2.52s-2-1.84-3.11-2.7-2.08-1.62-3.16-2.37a23.71 23.71 0 0 0-3.51-2.2 5.74 5.74 0 0 0-4.35-.45 4 4 0 0 0-2.7 2.88 1.42 1.42 0 0 0 .63 1.55 17.83 17.83 0 0 1 3.38 1.63 2.84 2.84 0 0 1 1.41 2.15 2.4 2.4 0 0 1-1.7 2 5.15 5.15 0 0 1-3.81-.31c-2.56-1.08-5.33-4.09-8.19-2a5 5 0 0 0-.83 7.08 8.29 8.29 0 0 0 3.66 2.82 12.78 12.78 0 0 0 2.34.68c.73.13 1.74-.14 2.36.29l-.55-.72c.14.63.65.78.91 1.23a2.17 2.17 0 0 1 .26 1.3 4 4 0 0 1-1.25 2.55 5.29 5.29 0 0 1-6 .69c-2.08-1-3.77-3.9-6.41-2.84-1.38.56-1.57 1.87-1.64 3.2a28.54 28.54 0 0 0 0 4.53 10.44 10.44 0 0 0 3.09 6.81c2.07 1.82 4.77 2 7.41 1.86a71.72 71.72 0 0 0 8.77-1.1c2.11-.41 4.39-1.16 5.76-2.91a7.47 7.47 0 0 0 1.26-4.09 7.08 7.08 0 0 1 .44-2.1 4.73 4.73 0 0 1 1-1.31 3.59 3.59 0 0 1 5.6.45l1.14-2a9.12 9.12 0 0 0-5.44 1.5c-.82.55-.87 2.17.31 2.36a3.81 3.81 0 0 1 3.24 4 1.25 1.25 0 0 0 1.24 1.24 4.59 4.59 0 0 0 3.64-1.31 4.73 4.73 0 0 0 1.06-1.52c.22-.53.29-1.1.51-1.62S287.2 143 288 143c1 0 2 1 2.62 1.8l.46-1.77c-2.68 1.5-3.95 4.69-4.82 7.48a5.6 5.6 0 0 0 .25 4.8 5.35 5.35 0 0 0 3.94 2.06c2.5.33 5.61-.28 7.06-2.55a6.21 6.21 0 0 0 .55-4.34 7.37 7.37 0 0 1-.15-1.93 1.92 1.92 0 0 1 .15-.57s.26-.36.16-.25a.87.87 0 0 1 .29-.23c.33-.19-.16 0 .2-.09.06 0 .54-.11.35-.08h.07c-.21 0 .82.08.6 0a2.49 2.49 0 0 1 1.41.62c1.16 1.12 1.39 2.91 1.48 4.44l1.64-1.25a2.09 2.09 0 0 1-1.71-1.65l-2.07 1.21a5 5 0 0 1 1.68 2.15 1.49 1.49 0 0 1-.76 1.6c-.74.55-1.62.88-2.36 1.44a4.65 4.65 0 0 0-1.83 2.36 2.23 2.23 0 0 0 1 2.69 4.41 4.41 0 0 0 2.9.42 13.23 13.23 0 0 0 2.92-1 3 3 0 0 1 2.53-.16 1.52 1.52 0 0 1 .65.59v.4a.36.36 0 0 1-.07.24 3.88 3.88 0 0 1-1.93 1.25l1.44.59a1.78 1.78 0 0 1-.4-1.2 1.24 1.24 0 0 0-2.29-.62c-.39.62-.79 1.23-1.18 1.86-.11.19-.31.69-.5.8s.12 0 .05 0l-.35-.2-3.89-2a.87.87 0 0 0-1.29.74c-.21 1.91-.5 3.79-.81 5.68l1.15-.47a12.32 12.32 0 0 1-6-5.79c-.61-1.26-.89-2.64-1.44-3.93a7.26 7.26 0 0 0-.93-1.68 5.29 5.29 0 0 0-2-1.4 15.48 15.48 0 0 0-4.52-.87 15.73 15.73 0 0 0-4.54.29 15.28 15.28 0 0 0-7.7 4.15 15.69 15.69 0 0 0-4.38 8.37c-.2 1.18 1.61 1.69 1.81.5a13.9 13.9 0 0 1 10.34-11.2c2.59-.62 5.81-.7 8.1.86a8 8 0 0 1 2.26 2.75c.62 1.14 1.08 2.36 1.72 3.48a13.9 13.9 0 0 0 6.75 5.91.79.79 0 0 0 1-.55c.28-2 .58-3.92 1-5.87l-1.26.52 2.46 1.53a8 8 0 0 0 2.46 1.32 2.25 2.25 0 0 0 2.25-1.18c.58-.8 1.13-1.61 1.69-2.41l-2.29-.62a4 4 0 0 0 .66 2.48 1.3 1.3 0 0 0 1.44.59 6.09 6.09 0 0 0 3.7-2.54 3 3 0 0 0-1.63-4.19c-1.57-.69-3.21-.21-4.75.36-1.23.45-3.17 1.37-4.3.21l.25.45c-.32-1 .91-1.76 1.65-2.15a8.79 8.79 0 0 0 2.75-1.78 3.57 3.57 0 0 0 .84-3.38 7.46 7.46 0 0 0-2.2-3.18 1.25 1.25 0 0 0-2.07 1.2 4.59 4.59 0 0 0 3.41 3.48 1.31 1.31 0 0 0 1.63-1.24c-.11-3-.95-6.49-4.14-7.59a4.32 4.32 0 0 0-3.75.35 3.93 3.93 0 0 0-1.79 3.75 16.08 16.08 0 0 0 .4 2.16 4.43 4.43 0 0 1 .16 2 2.94 2.94 0 0 1-2 1.86c-1.78.6-5.93.74-5.89-2a11.19 11.19 0 0 1 1.41-4.35 6.82 6.82 0 0 1 2.82-3.35 1.29 1.29 0 0 0 .46-1.76 7.43 7.43 0 0 0-3.48-3 3.23 3.23 0 0 0-3.79 1.61 6.3 6.3 0 0 0-.59 1.76c0 .14-.05.28-.08.41s-.14.5 0 .26a6.75 6.75 0 0 1-.48.82 3.22 3.22 0 0 1-3.13 1.37l1.24 1.24a6.31 6.31 0 0 0-5-6.45l.3 2.36a6.67 6.67 0 0 1 4.14-1.09 1.33 1.33 0 0 0 1.14-2 6.45 6.45 0 0 0-6.61-2.85 6.23 6.23 0 0 0-3.28 1.86 5.77 5.77 0 0 0-1.45 3.61c-.1 1.33.24 2.72-.32 4a4.38 4.38 0 0 1-2.1 2 12.47 12.47 0 0 1-3.16 1 41.8 41.8 0 0 1-4.43.75c-1.48.16-3 .27-4.46.3a9.19 9.19 0 0 1-3.93-.6c-2.22-1-3.34-3.42-3.67-5.71a21.06 21.06 0 0 1 0-4.49c0-.36 0-.71.08-1.07a1.36 1.36 0 0 1 .11-.66c.18-.22.64-.12.86 0a4.61 4.61 0 0 1 1.2 1 13.33 13.33 0 0 0 1.59 1.31 9 9 0 0 0 3.52 1.4 7.32 7.32 0 0 0 7.47-3.25 6.06 6.06 0 0 0 .91-3.84c-.15-1.26-1.22-3.74-2.89-3.14h.63a3.59 3.59 0 0 0-2.3.3 3.32 3.32 0 0 1-2.39.29 7.11 7.11 0 0 1-3.48-2.73 4 4 0 0 1-.51-3.84 2.47 2.47 0 0 1 2.94-1.5 7.42 7.42 0 0 1 1.81 1.08 24 24 0 0 0 2.17 1.44 8.17 8.17 0 0 0 4.47 1.25c2.74-.21 5.44-2.3 5.06-5.29a5.44 5.44 0 0 0-2.17-3.52 11.77 11.77 0 0 0-4.09-2.13l1 1.68a1.6 1.6 0 0 1 1.55-1.34 6.21 6.21 0 0 1 3.49 1.21 53.78 53.78 0 0 1 6.62 4.48 21.62 21.62 0 0 1 2.86 2.8c.92 1 1.83 2.06 2.75 3.08a15.06 15.06 0 0 0 2.65 2.7 3 3 0 0 0 3.81-.22 8.5 8.5 0 0 0 1.25-1.66c.44-.7.87-1.41 1.27-2.13a43.53 43.53 0 0 0 2.08-4.36l-2.46-.33a5.49 5.49 0 0 1-3.87 5.8l1 2.26a13.09 13.09 0 0 0 4.37-5.48 12.9 12.9 0 0 0 1-5 4.28 4.28 0 0 1 0-.8c0-.1 0-.11.08-.22s-.14.1 0 0-.14 0 .12 0h.08a1.08 1.08 0 0 1 .39.09 2.48 2.48 0 0 1 .92.58c.73.73 1.18 1.7 1.93 2.42a3.74 3.74 0 0 0 3.28 1.06c.27 0 .55-.11.82-.14s-.09 0 0 0 .24.19 0 0l.14.14c-.11-.22-.07-.07 0 0a1.74 1.74 0 0 1 .1.19c-.12-.26 0 0 0 .11.4 1.62.43 3.95 2.49 4.37a1.37 1.37 0 0 0 1.51-.61 9.58 9.58 0 0 0 .9-4 9.69 9.69 0 0 0-.24-2 6.5 6.5 0 0 0-.92-1.89L305 122c2-1.38 3.35 1.37 3.76 2.9.32 1.21.54 2.45.8 3.68s.64 2.65 1 4l1 4a4.25 4.25 0 0 0 1.64 2.87 13.29 13.29 0 0 0 1.39.61 8.07 8.07 0 0 1 1.41.84 7.61 7.61 0 0 1 2 2.31c1.05 1.8 2.1 3.57 4.42 3.65.89 0 1.8-.27 2.68-.17a1.69 1.69 0 0 1 .26.08 1.06 1.06 0 0 1-.31.7 11.2 11.2 0 0 1-2.47 1.49 4.31 4.31 0 0 0-1.93 2.95 10.81 10.81 0 0 0 .52 6 4.21 4.21 0 0 0 2.19 2.22 4 4 0 0 0 3.77-.63 11.19 11.19 0 0 0 2.55-2.89 8.51 8.51 0 0 1 2.35-2.64l-1.17-.47a36.81 36.81 0 0 1 1.58 9.49c0 .3.27.66.61.61a5.39 5.39 0 0 0 3.93-2.65c.22-.36.62-1.38 1.13-1.41.32 0 .67.46.86.66a6.37 6.37 0 0 1 .76 1 8 8 0 0 1 .89 2.33 3.77 3.77 0 0 1 0 2.37c-.31.55-1.31.77-1.82 1.1a7.39 7.39 0 0 0-3.25 7.61 1.39 1.39 0 0 0 1.7 1 1.41 1.41 0 0 0 1-1.69Z"/>
      <path d="M267.06 164.28c-2.13 2.48-2.12 5.88-.9 8.79a10.12 10.12 0 0 0 2.95 4.05 16.38 16.38 0 0 0 5.05 2.73 35.31 35.31 0 0 0 5.74 1.39l2.93.5a5.81 5.81 0 0 1 2.56.65 6.89 6.89 0 0 1 1.34 2.38l1.5 3.13a8.28 8.28 0 0 0 1.54 2.59 3.58 3.58 0 0 0 3 .85 26.24 26.24 0 0 1 3.14-.58 7.59 7.59 0 0 1 3.07.72 30 30 0 0 1 3 1.54 4.82 4.82 0 0 1 2 1.83l.8-1.95a10.92 10.92 0 0 0-6 2.94 11.5 11.5 0 0 0-2 2.62 5.89 5.89 0 0 0-1 3.6 2.64 2.64 0 0 0 2.55 2.09 11.57 11.57 0 0 1 2.85.48 8 8 0 0 1 4.28 3.78 6.28 6.28 0 0 1 .83 2.94 2.24 2.24 0 0 1-.36 1c0 .07-.17.22-.18.2h-.06a.29.29 0 0 1 .22-.05h.06a1.38 1.38 0 0 0-1.86.49 4.59 4.59 0 0 0 .31 4.49 22.23 22.23 0 0 0 2.94 3.27c2 2.22.47 5.5-.37 7.92a27 27 0 0 1-3.81 7.37 18.42 18.42 0 0 1-2.77 2.95 14 14 0 0 1-1.45 1.08 5.18 5.18 0 0 1-1.65.85c-.12 0-.47 0-.38.08-.09-.1.05-.62.08-.74a12 12 0 0 1 .53-2.12 10.22 10.22 0 0 1 2.06-3.68c1.88-2.08 4.68-3.26 5.74-6s-.53-5-2.11-6.9a16.69 16.69 0 0 1-2-2.79 22.82 22.82 0 0 1-.88-3.05 3.65 3.65 0 0 0-2.47-2.66 3.48 3.48 0 0 0-3.82 2.1c-.72 1.6-.34 3.33-.27 5a23.24 23.24 0 0 1-.19 4.25 22.85 22.85 0 0 1-2.9 8.25 13 13 0 0 1-2.55 3.41c-.65.54-2.12 1.33-2.13-.12a8.79 8.79 0 0 1 1.13-4.1c.75-1.31 1.72-2.48 2.5-3.75a27.84 27.84 0 0 0 3.53-8 22.82 22.82 0 0 0-2.37-16.32 15.78 15.78 0 0 0-5.64-6.13 6.37 6.37 0 0 0-4.34-.84 4.83 4.83 0 0 0-3.26 2.61 10.61 10.61 0 0 0-.92 4 49.53 49.53 0 0 0-.11 5.31c.06 1.8.21 3.59.44 5.37.21 1.62.63 3.38.24 5a3 3 0 0 1-1.79 2.29l1.51.62c-1.14-1.77 0-4.05.44-5.86.55-2.25.46-4.77-1.48-6.34a3.76 3.76 0 0 0-3.11-.86 4.63 4.63 0 0 0-2.63 1.9c-1.37 1.81-1.88 4-2.6 6.07-.64 1.9-1.91 3.95-3.95 4.54l1.41 1.07a19.87 19.87 0 0 1 2.71-9.35c1.7-2.85 4.62-5 5.52-8.31a5.75 5.75 0 0 0-4.23-7.56c-1.38-.52-3-1-4.41-.16-1.65 1-1.56 3-1.62 4.72a16.52 16.52 0 0 1-.59 4.59 3.88 3.88 0 0 1-2.24 2.57 4.08 4.08 0 0 1-1.21.28 2 2 0 0 1-1.2-.29 2.42 2.42 0 0 1-.32-.32 2.17 2.17 0 0 1-.32-.77 4.59 4.59 0 0 1 .17-2.08c.83-3.16 3-5.74 4.42-8.63 1.24-2.56 2-5.69 1.07-8.47a6.88 6.88 0 0 0-2.58-3.57 11.57 11.57 0 0 0-4.43-1.66 22.78 22.78 0 0 1-8.11-3.15 9.13 9.13 0 0 1-2.84-2.83 19.18 19.18 0 0 1-1.56-3.74c-.92-2.69-2-5.29-4.79-6.35-3.37-1.26-6.63 1-9.75 1.89a13.73 13.73 0 0 1-5.34.39 14.23 14.23 0 0 0-2.43-.27 2.47 2.47 0 0 0-1.94 1.19 3.55 3.55 0 0 0 .39 3.78c1 1.23 2.47 1.75 3.75 2.54a1.28 1.28 0 0 1 .29 2.26c-1.15 1.15-3 1-4.47 1.12a7.69 7.69 0 0 0-4.25 1.31 3.79 3.79 0 0 0-1.61 3.75c.52 2.74 3.78 3.73 6 4.76 5.08 2.4 9.93 6.53 12.09 11.82a16.13 16.13 0 0 1 1.06 3.86l1-1.3a2.46 2.46 0 0 1-1.14.31 2.91 2.91 0 0 1-1.37-.68 7.91 7.91 0 0 1-1.94-3.15 11.1 11.1 0 0 0-2.09-3.52 6.81 6.81 0 0 0-3.17-1.8c-2.31-.61-4.72-.28-7.07-.36a7.93 7.93 0 0 1-2.85-.5 5.35 5.35 0 0 1-2.28-2.35 8.17 8.17 0 0 0-2.62-3 5.44 5.44 0 0 0-3.23-.71 7.39 7.39 0 0 0-5.74 3.74c-1.38 2.6-1 5.74.08 8.37a22.8 22.8 0 0 0 5.34 7.32c1.2 1.17 2.43 2.3 3.62 3.48.61.59 1.21 1.22 1.83 1.79a18.32 18.32 0 0 0 2.2 1.62c2.77 1.85 6.23 3.16 9.53 2a1.41 1.41 0 0 0-.75-2.71c-2.56.9-5-.13-7.22-1.52-1.2-.77-2.36-1.62-3.5-2.48a34.42 34.42 0 0 1-3.32-2.71 25 25 0 0 1-5.18-6.5c-1.09-2.15-1.83-5-.66-7.32a4.88 4.88 0 0 1 4.5-2.6 3.25 3.25 0 0 1 .9.24 3 3 0 0 1 1.15 1c.79 1 1.26 2.23 2.12 3.21 1.56 1.79 4 2.26 6.24 2.33 2.12.06 4.38-.24 6.34.33a4 4 0 0 1 2.41 1.84c.73 1.19 1.15 2.55 1.78 3.79 1.24 2.45 4.82 5.09 7.41 2.84a1.37 1.37 0 0 0 .35-1.32c-1.62-7.13-7.5-12.56-13.74-15.9-1.52-.82-3.17-1.52-4.6-2.48-1.09-.73-2.3-2.06-1.24-3.35s3.43-1.16 5.05-1.16c2.12 0 4.24-.45 5.57-2.25a3.73 3.73 0 0 0 .66-3.21 4.55 4.55 0 0 0-2.06-2.51c-.89-.57-1.91-.74-2.83-1.22-.63-.32-1.26-.83-1-1.61l-.25.43c.15-.19.26-.47.49-.54.44-.14 1.27.32 1.71.43a11.51 11.51 0 0 0 3.65.35 23.26 23.26 0 0 0 6.74-1.84c1.73-.65 3.8-1.33 5.43-.09a9.61 9.61 0 0 1 2.47 3.89 20.39 20.39 0 0 0 2.57 4.86 18.72 18.72 0 0 0 4.27 4.11 17.07 17.07 0 0 0 5.5 2.29c1.85.45 4 .57 5.59 1.75 2.85 2.15 1.6 6.59.16 9.27-1 1.92-2.28 3.71-3.21 5.68s-1.84 4.44-1.11 6.63c1.35 4 6.62 3.51 8.94.72 1.46-1.75 1.84-4.08 2-6.29.07-1.08 0-2.17.15-3.24.07-.75.25-.9.92-.81a7.79 7.79 0 0 1 2.6.93 2.63 2.63 0 0 1 1.48 1.83c.37 1.77-.73 3.54-1.8 4.89a30.55 30.55 0 0 0-3.76 5.61 22.73 22.73 0 0 0-2.08 6.48 24.09 24.09 0 0 0-.28 3.39 1.12 1.12 0 0 0 1.4 1.07c4-1.29 5.09-5.62 6.78-8.94a12.28 12.28 0 0 1 1.44-2.42c.41-.48.89-.88 1.43-.63 1.8.82 1.13 3.29.72 4.71-.66 2.29-1.34 4.86.06 7a1.37 1.37 0 0 0 1.51.61c3.3-1.05 4.14-4.65 3.81-7.72-.18-1.78-.47-3.53-.6-5.31a53.87 53.87 0 0 1-.11-5.39c.06-1.84-.08-5.95 2.47-6.09a5 5 0 0 1 3.24 1.35 14.2 14.2 0 0 1 2.61 3 19.93 19.93 0 0 1 3.09 15 26.18 26.18 0 0 1-3.3 7.8 18.53 18.53 0 0 0-.9 2.09c-.3.71-.58 1.43-.83 2.16a27.28 27.28 0 0 0-1.29 4.24c-.24 1.4 0 3.09 1.57 3.57a4.17 4.17 0 0 0 3.65-1.1 14.68 14.68 0 0 0 2.73-3.3 23.58 23.58 0 0 0 2.09-3.86 25.45 25.45 0 0 0 2.05-8.93 18.78 18.78 0 0 0-.05-2.25 9.81 9.81 0 0 1-.05-2.36 1.42 1.42 0 0 1 .72-1.11h.2a.48.48 0 0 1 .27.24 4.91 4.91 0 0 1 .45 1.3c.13.58.24 1.18.42 1.75a11.32 11.32 0 0 0 2 3.38 23.82 23.82 0 0 1 2 2.71 2.72 2.72 0 0 1 .32 2.61c-.46 1.08-1.58 1.8-2.38 2.65a19 19 0 0 0-2.67 3.31 21.37 21.37 0 0 0-1.88 3.88 14.83 14.83 0 0 0-.54 2.11 3.61 3.61 0 0 0 0 2.23c.64 1.28 2.26 1.11 3.35.58a14.69 14.69 0 0 0 3.34-2.37 23.42 23.42 0 0 0 4.92-6.63 48.14 48.14 0 0 0 3.59-8 6.66 6.66 0 0 0-.15-5 14.74 14.74 0 0 0-2.79-3.26c-.63-.65-1.55-1.86-1.08-2.77l-1.85.48c2.47 1.31 4.37-1.42 4.43-3.65a8.88 8.88 0 0 0-2.79-6.11 10.08 10.08 0 0 0-6-3c-.47 0-2.09.13-2.32-.43-.15-.34.25-1 .41-1.32a8.86 8.86 0 0 1 .89-1.44 9.24 9.24 0 0 1 5.9-3.5 1.35 1.35 0 0 0 1.15-2c-.87-1.71-2.68-2.66-4.3-3.54a13.11 13.11 0 0 0-5.87-1.89 10.85 10.85 0 0 0-3 .48c-.58.15-1.3.38-1.71-.17a14.82 14.82 0 0 1-1.29-2.62l-1.44-3a6.85 6.85 0 0 0-1.57-2.39 5.81 5.81 0 0 0-2.87-1.1c-1.88-.34-3.77-.62-5.64-1-3.32-.71-6.74-1.81-9-4.47a9.54 9.54 0 0 1-2.34-4.21 6.06 6.06 0 0 1 .69-4.6c.36-.57-.49-1.26-.94-.73Z"/>
      <path d="M221.64 217.76a4.19 4.19 0 0 1 3.85 1.39c1.29 1.43.8 3.61 1.76 5.27a6.45 6.45 0 0 0 4.86 2.83 13.38 13.38 0 0 0 3.34-.13 7.59 7.59 0 0 1 3.42 0 13.78 13.78 0 0 1 4.85 3.83c.3.32.62.64.89 1a3.25 3.25 0 0 1 .37.59s.17.44.15.29a1 1 0 0 1-.1.55l-.07.12s.1-.05.1 0 .28-.19-.08 0h.13c.03 0-.16-.13 0 0a18.76 18.76 0 0 1-1.4-1.88 5.1 5.1 0 0 0-2.5-1.61c-2.16-.67-4.35 0-6.4.71a24.48 24.48 0 0 1-7 1.41c-1.19 0-3.32-.1-3.8-1.48-.27-.76.28-1.61.52-2.32a2.73 2.73 0 0 0-.13-2.43c-.95-1.46-2.94-1-4.34-.7a8.38 8.38 0 0 1-6-1.1 34.22 34.22 0 0 1-5.13-4c-2.88-2.47-6.81-5-10.76-3.53-3.55 1.3-4.68 5.3-4 8.73a18.83 18.83 0 0 0 2.66 5.62 30.27 30.27 0 0 0 1.76 2.64c.33.43.59.89 1 1.31l1.19 1.31c3 3.24 6.18 6.43 10.06 8.57a18.71 18.71 0 0 0 12.9 2.25c2.12-.44 4.19-1.3 6.36-1.48a7 7 0 0 1 3 .37 5.49 5.49 0 0 0 3.41.38c1.1-.27 2.11-.75 3.23-1a12.18 12.18 0 0 1 3.19-.14 10.9 10.9 0 0 1 1.41.22c.17 0 .92.13 1 .29a2.19 2.19 0 0 1-.11.83 4.49 4.49 0 0 1-.53 1.23 10.74 10.74 0 0 1-1.81 2.11 8.42 8.42 0 0 1-2.26 1.82 2.75 2.75 0 0 1-2.25-.27 12.73 12.73 0 0 0-2.71-1.1 7.14 7.14 0 0 0-3.18.2 12.41 12.41 0 0 1-3.06.67c-1.72 0-3.05-1.41-4.51-2.13a4.06 4.06 0 0 0-4.81.46 5.91 5.91 0 0 0-1.45 5.19 10.48 10.48 0 0 0 3.06 5.46 7.21 7.21 0 0 0 5.83 2.4c1.24-.11 4.42-1.17 5.1.44 0 0 .08.37.06.24 0 .09-.05.41 0 .21s-.21.31-.09.18-.32.13 0 0l-.22.06c.13 0 .17 0 0 0h-.18c-.22 0 .21.05 0 0a7.56 7.56 0 0 1-1-.27c-1.43-.52-3-1.27-4.46-.52a3.72 3.72 0 0 0-1.73 2.29 9.86 9.86 0 0 0-.71 3.47 4.27 4.27 0 0 0 3.74 4.37 1.36 1.36 0 0 0 1.16-2A7.42 7.42 0 0 0 218 269c-.94.76-1.7 1.67-2.58 2.49a4.15 4.15 0 0 1-2.81 1.33c-.78-.06-1.34-.46-1.27-1.26a3.19 3.19 0 0 1 1.27-2.07c.86-.71 1.84-1.26 2.63-2.05a6.09 6.09 0 0 0 1.64-3.32 15.43 15.43 0 0 0-.2-6.83 7.12 7.12 0 0 0-4.57-4.85c-1.16-.42-2.39-.62-3.58-1a26.81 26.81 0 0 1-3.12-1.09 42.78 42.78 0 0 1-11.67-7.86c-1.79-1.6-3.52-3.27-5.22-5-.87-.86-1.73-1.7-2.62-2.52a23.12 23.12 0 0 0-2.78-2.36 5.62 5.62 0 0 0-6.64.29 9.23 9.23 0 0 0-3.39 6.41 39.6 39.6 0 0 0-.13 7.85 15 15 0 0 0 2.17 7.14c2.49 3.84 6.6 6.2 10.5 8.36 3.66 2 7.8 4.24 10 8a10.66 10.66 0 0 1 1.13 2.88l.54-1.34c-.53.28-1.12-.11-1.47-.59a9.28 9.28 0 0 1-1-2.72c-.65-2-2.17-4.18-4.53-3.94a1.41 1.41 0 0 0-1.33 1.75c.7 3.12 3 5.47 5.23 7.6l1.93-1.92a69.73 69.73 0 0 0-12-8.49c-2.07-1.16-4.34-2.57-6.77-2.69-2.25-.1-4.64 1.31-4.92 3.69s1.37 4.28 3 5.7a56.65 56.65 0 0 0 5.45 4.06 31.41 31.41 0 0 0 5.89 3.28c1.09.47 2.21.9 3.33 1.32a19 19 0 0 1 3.08 1.31c1.44.86 2.93 2.51 2.66 4.32a3.86 3.86 0 0 1-3.46 2.86c-2.22.27-4.37-.79-6.18-2a24.23 24.23 0 0 1-4.47-3.87 84.23 84.23 0 0 1-7.3-9.7c-2.44-3.37-5.14-7.17-8.88-9.17a9.41 9.41 0 0 0-6.18-1.13 7 7 0 0 0-4.77 3.07 9 9 0 0 0-1.06 3.15 5.87 5.87 0 0 1-.94 2.73 14.88 14.88 0 0 1-2.32 2 6.59 6.59 0 0 0-2 2.65 3.84 3.84 0 0 0 .16 3.26 1.34 1.34 0 0 0 1.83.49 6.51 6.51 0 0 0 2.75-6l-2.63.36a3.78 3.78 0 0 1-.25 2.78 4.22 4.22 0 0 1-2 2c-1.26.52-2.74.26-4.06.53a5.1 5.1 0 0 0-3.38 2.52 7 7 0 0 0 .39 7.19 7.68 7.68 0 0 0 2.46 2.42 7.5 7.5 0 0 0 3.91.94 35 35 0 0 0 5.69-.42c2-.29 3.9-.54 5.85-.85a1.41 1.41 0 0 0 1-1.73 1.43 1.43 0 0 0-1.73-1c-1.62.26-3.23.56-4.84.83s-3 .66-4.55 1a5.31 5.31 0 0 1-3.8-.37 5.11 5.11 0 0 1-2-2.05 4.45 4.45 0 0 1 .41-5.27c.86-.84 2.22-.69 3.33-.77a6.61 6.61 0 0 0 3.61-1.23 6.78 6.78 0 0 0 2.55-7.2 1.34 1.34 0 0 0-1.47-1 1.32 1.32 0 0 0-1.16 1.31 3.86 3.86 0 0 1-1.42 3.68l1.83.48c-.3-.58.16-1.38.57-1.87a17.32 17.32 0 0 1 2.26-1.93 6.81 6.81 0 0 0 1.95-2.59 17.22 17.22 0 0 0 .76-3.09 4.17 4.17 0 0 1 2.89-3.44 6.65 6.65 0 0 1 5.16.54c3.54 1.82 6.13 5.34 8.43 8.48s4.41 6.63 7 9.67 6 6.2 10.06 7.07a7.56 7.56 0 0 0 6.13-1.12 5.69 5.69 0 0 0 2.4-5.56 7.86 7.86 0 0 0-3.53-5c-2-1.33-4.28-1.82-6.54-2.46a30.51 30.51 0 0 1-6-2.44 20.53 20.53 0 0 1-5-4c-1-1.09-3-3.1-2.11-4.77s3.37-.75 4.61-.15a62.53 62.53 0 0 1 11.71 7.44c.91.72 1.8 1.47 2.67 2.23 1.3 1.16 3.2-.69 1.93-1.92-1.89-1.83-3.91-3.76-4.5-6.41l-1.33 1.74a.91.91 0 0 1 .83.21 2.76 2.76 0 0 1 .77 1c.49 1 .68 2.19 1.19 3.23 1 2 3.61 3.47 5.62 1.9a1.16 1.16 0 0 0 .3-1.16c-1.21-4.24-4.63-7.33-8.21-9.66s-7.69-4-11-6.83a13.61 13.61 0 0 1-3.77-4.84 18.55 18.55 0 0 1-1.06-7.47c0-2.41-.13-5.08.94-7.32.8-1.68 2.68-3.27 4.66-2.7A6.2 6.2 0 0 1 183 236c.79.82 1.56 1.66 2.38 2.46 1.69 1.65 3.39 3.3 5.14 4.89a53.56 53.56 0 0 0 11.27 8.24 30.71 30.71 0 0 0 6.46 2.49c2.05.52 4.36.69 5.53 2.7a10.12 10.12 0 0 1 .9 5.67 5.47 5.47 0 0 1-.86 3.09 13.25 13.25 0 0 1-2.39 2c-1.5 1.19-2.82 3.23-2.08 5.22.86 2.29 3.81 2.36 5.73 1.57a11 11 0 0 0 3-2 14 14 0 0 1 2.59-2.08 4.77 4.77 0 0 1 4.67.38 4.38 4.38 0 0 1 1.56 1.74l1.17-2c-.49-.05-.89-.77-1-1.3a6.22 6.22 0 0 1 .57-3 2.31 2.31 0 0 1 .22-.51c.18-.31 0-.05.08-.11s-.12.13 0 0a.42.42 0 0 1 .16 0c-.39.08.31 0 .14 0s.23 0 .31.06l.44.14c.35.11.69.26 1 .39 1.49.58 3.18.95 4.49-.24 1.65-1.49.85-4.24-.86-5.3-2-1.22-4.25-.43-6.38-.36-2 .08-3.38-1.19-4.52-2.66a18.37 18.37 0 0 1-1.87-2.62 3.82 3.82 0 0 1-.51-2.55 2.75 2.75 0 0 1 1.4-1.79 2.33 2.33 0 0 1 2 .16c1.58.78 2.84 2.16 4.61 2.51a7.39 7.39 0 0 0 3.17-.18 11.11 11.11 0 0 1 3-.54 6.42 6.42 0 0 1 2.49.92 6.57 6.57 0 0 0 2.82.89c2.14.05 3.95-1.77 5.36-3.16s2.76-3.26 2.68-5.33c-.11-2.73-3.33-3.05-5.46-3.16a15.35 15.35 0 0 0-3.45.26c-1.09.2-2.08.65-3.14.93s-1.87-.35-2.82-.59a9.29 9.29 0 0 0-3.32-.21 65.9 65.9 0 0 0-6.65 1.51 13.73 13.73 0 0 1-6.15-.12c-4.22-1-7.79-3.58-10.87-6.54-1.6-1.53-3.08-3.16-4.56-4.8-.71-.8-1.6-1.44-2.38-2.18a12.79 12.79 0 0 1-2.07-2.49 9.37 9.37 0 0 1-1.67-5.51 5.78 5.78 0 0 1 2.13-4.42 6.26 6.26 0 0 1 5.59-.54 15.83 15.83 0 0 1 5.32 3.37c3.06 2.62 6.58 5.85 11 5.27.86-.12 4.12-1.17 4 .6-.08.85-.74 1.61-.95 2.44a3.06 3.06 0 0 0 .35 2.38c.92 1.47 2.82 2.09 4.43 2.3a17.58 17.58 0 0 0 7-.56c1.87-.54 3.94-1.65 5.94-1.19a2.76 2.76 0 0 1 1.75 1.21 6.59 6.59 0 0 0 1.73 2.05 2.82 2.82 0 0 0 4.22-2.76c-.25-2.17-2.32-3.61-3.92-4.86a16 16 0 0 0-2.61-1.74 17.43 17.43 0 0 0-2.94-1c-2.08-.61-4.32-.36-6.41-.85a4.18 4.18 0 0 1-2-1A4.23 4.23 0 0 1 229 221a6.79 6.79 0 0 0-2.88-4.8 6.69 6.69 0 0 0-5.23-1 1.34 1.34 0 1 0 .71 2.58Z"/>
      <path d="M157 291.17c2.29-.75 4.8-1.58 7.24-1.24 2.28.31 3.7 1.85 4.91 3.67 1.33 2 2.54 4 4.57 5.43a7.84 7.84 0 0 0 3.51 1.21 35.24 35.24 0 0 0 3.57.5l-1.25-1.64a10.58 10.58 0 0 0 .42 7.45 4.94 4.94 0 0 0 2.64 2.39c1.57.62 3.4.35 5 .23a46 46 0 0 0 10.39-1.68 16.79 16.79 0 0 0 7.2-4.46c1.71-1.8 3.26-3.87 5.31-5.31 2.56-1.8 5.54-2 8.55-1.38 3.37.66 6.55 2 10 2.29a13.92 13.92 0 0 0 8.24-1.68 7.81 7.81 0 0 0 3.09-3.15 10.2 10.2 0 0 0 .88-4.37c.08-2.38-.49-5.56 1.56-7.28l-1.61.2c.23.13.29 1.29.37 1.56a6.5 6.5 0 0 0 1.17 2.26 9 9 0 0 0 4.09 2.81 20.81 20.81 0 0 0 5.77.9 8.73 8.73 0 0 0 4.49-.63 4 4 0 0 0 1.61-1.45 7.53 7.53 0 0 0 .76-2.79 12.33 12.33 0 0 1 4.25-5.49c.53-.26 1 .16 1.33.6a3.33 3.33 0 0 1 .37 2.08c-.06 1.06-.28 2.11-.38 3.17a30.69 30.69 0 0 0 .11 6.21 15.89 15.89 0 0 0 1.33 5.2c1.34 2.76 4.65 5 7.75 3.7 2.8-1.14 3.11-4.23 4.29-6.63a5 5 0 0 1 1-1.41c.57-.55 1.31-.91 1.56-1.72.4-1.3-.59-2.2-1.78-2.41-1.49-.27-3 .18-4.29-.77a5.86 5.86 0 0 1-2.12-4.8 21.56 21.56 0 0 1 1-6.37c.38-1.28 1.72-3.65 3.4-2.75l-.53-1.32a10.74 10.74 0 0 0-.66 2.11c-.12.82-.22 1.63-.27 2.45a24.7 24.7 0 0 0 .13 4.55 26.2 26.2 0 0 0 2.64 8.77 9.59 9.59 0 0 0 2.57 3.49 3.93 3.93 0 0 0 3.79.5c2.86-1.13 3.73-4.27 3.18-7.06-.34-1.74-1-3.36-1.47-5.07a6.11 6.11 0 0 1 .27-4.73h-1.56a18.85 18.85 0 0 1 2.22 6.88 19.15 19.15 0 0 1 .09 3.55c-.07 1-.39 2.22.46 3a2 2 0 0 0 2.4.09 3 3 0 0 0 1.23-2.61c0-1.31-.31-2.63-.44-3.94s-.44-2.69-.7-4l-1.73-9.21-.35 1.33a2 2 0 0 1 2.09-.8 4 4 0 0 1 2.54 1.49c1.68 2.18 1 5.57.74 8.09-.21 1.78-.3 3.58-.45 5.37-.13 1.56-.4 3.12-.42 4.69 0 2.54.66 5.43 3.08 6.72 2.05 1.09 5.08 1 6.22-1.34.46-.94-.95-1.76-1.41-.82-.74 1.52-2.75 1.39-4 .66-2-1.12-2.18-3.67-2.07-5.69.28-5.37 2.81-10.71 1.87-16.13a6.77 6.77 0 0 0-3.74-5.19 5.43 5.43 0 0 0-5.83.46 2.22 2.22 0 0 0-.92 1.52 12.53 12.53 0 0 0 .44 2.34l.91 4.52.85 4.24c.3 1.51.7 3 1.1 4.46a4.83 4.83 0 0 1 .35 2.08c-.08.35-.57.75-.64.21a14.18 14.18 0 0 1 .18-2.15v-2.16a21.23 21.23 0 0 0-2.46-8.55.92.92 0 0 0-1.56 0c-1.37 2.28-.88 5-.12 7.41s2 5.34 0 7.34c-3.67 3.72-6.31-7.37-6.59-9.5a24.18 24.18 0 0 1-.15-4.42 20.27 20.27 0 0 1 .24-2.2c.13-.81.16-1.61.26-2.42a1.17 1.17 0 0 0-.86-1.13 4.8 4.8 0 0 0-4.36 1.22 8 8 0 0 0-2.06 4.57c-.63 3.43-1.3 7.39 1 10.34a5.56 5.56 0 0 0 3.71 2.15c.63.07 1.27 0 1.91.08.22 0 1 .05 1.07.3s-1.17 1-1.33 1.19A6.58 6.58 0 0 0 277 293c-.62 1.19-1 2.5-1.56 3.7a3.3 3.3 0 0 1-2.77 2.17 4.28 4.28 0 0 1-3.58-1.94 10 10 0 0 1-1.47-4.78 31.8 31.8 0 0 1 0-6.17c.2-1.91.75-3.92.27-5.84a4.31 4.31 0 0 0-3.62-3.31c-1.85-.15-3.27 1.46-4.45 2.66a10.48 10.48 0 0 0-2.79 4.3c-.25.84-.12 2-.63 2.7a2.34 2.34 0 0 1-1.68.76 18.16 18.16 0 0 1-5.2-.29 7.31 7.31 0 0 1-4.76-2.46c-1-1.37-.54-3.48-2.21-4.39a1.38 1.38 0 0 0-1.6.21c-4.06 3.41-.86 9.26-3.29 13.33-1.31 2.21-3.8 3-6.25 3-3.26-.08-6.4-1.45-9.51-2.3s-6.37-1.39-9.47-.49a14.79 14.79 0 0 0-6.34 4.23c-1.72 1.78-3.32 3.64-5.15 5.31-2.22 2-5.32 2.37-8.19 2.71q-2.87.34-5.75.52c-1.33.07-3.18.41-4.2-.54-1.65-1.53-.87-4.6-.8-6.57a1.3 1.3 0 0 0-1.63-1.25 4.27 4.27 0 0 1-2.64.14 14.35 14.35 0 0 1-2.39-1.34 11.61 11.61 0 0 1-3.39-3.85 16.08 16.08 0 0 0-3.49-4.29 8.91 8.91 0 0 0-5.56-1.72 23.42 23.42 0 0 0-6.72 1.36c-1.69.55-1 3.22.73 2.67Z"/>
      <path d="M300.71 296.71a2.5 2.5 0 0 0 2.06-1.43 7.36 7.36 0 0 0 .75-2.87 4.11 4.11 0 0 0-.29-1.87 17.44 17.44 0 0 1-.75-1.9 2.62 2.62 0 0 1-.09-1.59 2 2 0 0 1 .62-.83 6.23 6.23 0 0 1 2.79-1.05c.64-.12 2.06-.45 2.49.1.14.18.08.45 0 .8a3.29 3.29 0 0 1-.9 1.25 14 14 0 0 0-2.54 2.62 4.81 4.81 0 0 0 1.74 6.45 5 5 0 0 0 7.27-3.9c.08-.64-.09-1.3 0-1.93a1.88 1.88 0 0 1 .81-1.07 18.47 18.47 0 0 1 1.57-1.1 5.06 5.06 0 0 1 3-1c.84.11 1.65.58 1.57 1.45a3.48 3.48 0 0 1-1.72 2.13 23 23 0 0 1-3.21 1.41 8 8 0 0 0-3 2.07 9.55 9.55 0 0 0-1.57 3.39 6.54 6.54 0 0 1-.5 1.32 2.11 2.11 0 0 1-.42.56 1 1 0 0 1-.4.29 3.63 3.63 0 0 1-1.13.49 9.05 9.05 0 0 1-1.34.26c-1.93.18-4.16 0-5.65 1.51-1.91 1.89-1.28 4.85.44 6.63a12.51 12.51 0 0 0 3.28 2.23 26.62 26.62 0 0 0 4 1.74 10.39 10.39 0 0 0 7.6-.22A6.9 6.9 0 0 0 321 307a22.69 22.69 0 0 0-.08-3.59c-.05-1.24-.17-2.48-.22-3.73a10.82 10.82 0 0 1 .27-3.36 2.17 2.17 0 0 1 .62-1.09.4.4 0 0 1 .3-.13c-.2 0 .11.07.1.06.69.46 1 1.79 1.31 2.68a4.32 4.32 0 0 1-.05 3.54c-.67 1.17-1.5 2.23-1.49 3.65a4.79 4.79 0 0 0 1.57 3.39 4.42 4.42 0 0 0 3.66 1.17 5 5 0 0 0 3.07-1.83 6 6 0 0 0 1.23-3.41c.05-.68-.11-2.34.85-2.5.74-.12 1.52.7 1.72 1.35a2.44 2.44 0 0 1-.28 1.6c-.29.65-.68 1.27-1 1.89-1.3 2.32-2.58 5.59-.31 7.8a4.3 4.3 0 0 0 6.21-.34c.79-1.09.75-2.46.87-3.74a3.66 3.66 0 0 1 .38-1.6c.2-.31.58-.77 1-.79s.57.58.7.9a5 5 0 0 0 .92 1.58 4.78 4.78 0 0 0 3 1.52 5.21 5.21 0 0 0 3.26-.89 10.88 10.88 0 0 1 2.76-1.59c.91-.22 1.47.54 1.38 1.4a3.5 3.5 0 0 1-2.05 2.39 13.29 13.29 0 0 1-7.88 1.23c-1.57-.23-3.1-.66-4.69-.76a9.65 9.65 0 0 0-4.18.7 37 37 0 0 0-7.29 4.55 69.67 69.67 0 0 0-6.89 5.46 62.68 62.68 0 0 0-5.48 6.15 14.32 14.32 0 0 1-6.15 4.65 11.08 11.08 0 0 1-3.7.6c-1.47 0-2.89-.51-4.35-.49-2.68 0-4.21 2.3-4.85 4.65a22.7 22.7 0 0 1-1 3.71 4.35 4.35 0 0 1-2.37 2.21c-2.29.93-4.88.77-7.26 1.4a20.21 20.21 0 0 0-3.72 1.42c-.57.27-1.17.48-1.75.74a8.31 8.31 0 0 0-1.92 1.1c-1.78 1.42-3.91 4.5-1.64 6.49a1.45 1.45 0 0 0 2 0 1.42 1.42 0 0 0 0-2c-.18-.15-.16-.07-.18-.26v-.08c0 .19 0-.14.06-.18a3.32 3.32 0 0 1 .78-1.27c.42-.43 1-.74 1.38-1.16a19.85 19.85 0 0 1 1.48-1.42 11 11 0 0 1 3.64-1.68 24.29 24.29 0 0 1 3.79-.79c2.29-.33 4.83-.63 6.42-2.53s1.5-4.67 2.77-6.8a2.66 2.66 0 0 1 2.62-1.5 19.34 19.34 0 0 1 2.12.41 16.45 16.45 0 0 0 2.1.23 14.61 14.61 0 0 0 7.73-1.91c2.42-1.42 4.1-3.78 5.84-5.91a40.5 40.5 0 0 1 6.15-6c2.21-1.78 4.56-3.39 6.9-5a21.58 21.58 0 0 1 3.49-2.08 7.86 7.86 0 0 1 3.95-.64c1.49.14 2.95.55 4.44.7a12 12 0 0 0 4.34-.32 14 14 0 0 0 3.94-1.73 8 8 0 0 0 2.81-2.54c1.14-2 .23-5.13-2.43-5.09a6 6 0 0 0-3.11 1.33 5.3 5.3 0 0 1-2.83 1.27 2.86 2.86 0 0 1-2.45-1.42c-.59-1.06-.81-2.3-2.22-2.54a3.14 3.14 0 0 0-3 1.53c-.78 1.12-.52 2.46-1 3.66a3 3 0 0 1-.58 1 2 2 0 0 1-1.11.46H334.94a1.93 1.93 0 0 1-.34-.11c-.23-.08.23.16-.13-.06l-.24-.16c.16.13-.06-.07-.09-.11a1.05 1.05 0 0 1-.18-.3c-.43-1 .1-2.22.49-3.12.27-.65.59-1.28.87-1.93a7.23 7.23 0 0 0 .53-2.2c.22-2.2-1.05-4.87-3.58-4.86a2.67 2.67 0 0 0-2.49 1.94c-.35 1.06-.06 2.26-.53 3.26-.84 1.78-3.28 2.43-4.38.76a1.68 1.68 0 0 1-.31-1.12 3.63 3.63 0 0 1 .64-1.34 6.48 6.48 0 0 0 1.25-4.07 13.17 13.17 0 0 0-1-4 4.76 4.76 0 0 0-2.56-2.9 3.21 3.21 0 0 0-3.47 1.06 6.77 6.77 0 0 0-1.42 3.78 14.32 14.32 0 0 0 .34 3.75c.21 1.2.65 2.35.75 3.57.18 2.25-.2 4.56-2.27 5.83s-4.88 1.09-7.23.26a26 26 0 0 1-3.82-1.79 6.66 6.66 0 0 1-2.82-2.43 2.4 2.4 0 0 1 .14-2.85 3.38 3.38 0 0 1 2.17-.72c1-.06 2 0 2.94 0a6.24 6.24 0 0 0 3.21-.7 5.52 5.52 0 0 0 2.18-2.89 12.33 12.33 0 0 1 1.15-3 5.58 5.58 0 0 1 2.5-1.65 18.54 18.54 0 0 0 3.45-1.57c2.22-1.53 3.93-4.48 1.95-6.92-1.83-2.24-5-1.85-7.28-.57a13 13 0 0 0-3.29 2.46 3.87 3.87 0 0 0-.94 1.91c-.12.76.07 1.52 0 2.27a2.59 2.59 0 0 1-1.58 1.84 1.76 1.76 0 0 1-2.12-.65 1.94 1.94 0 0 1-.37-1.85c.43-1 1.63-1.73 2.41-2.5a5.38 5.38 0 0 0 1.68-3.48 3.25 3.25 0 0 0-2.26-3.21 7.68 7.68 0 0 0-3.78.05 9.11 9.11 0 0 0-3.19 1.14 4.84 4.84 0 0 0-2.23 3 7 7 0 0 0 .76 4.33c.13.29.26.58.38.88a4.23 4.23 0 0 0 .54.83 3 3 0 0 1 .46 1.19 1.58 1.58 0 0 1-1.21 1.86c-.57.1-.45 1.07.13 1Z"/>
      <path d="m283.09 334.78-.12-.16a1.29 1.29 0 0 0 .45.45 1.46 1.46 0 0 0 .73.18 2.17 2.17 0 0 0 1-.24 3.12 3.12 0 0 0 1.17-1.14A6.23 6.23 0 0 0 287 331a3.41 3.41 0 0 0-1-2.78 4 4 0 0 0-2.71-.94 5.71 5.71 0 0 0-4.3 2.14c-1.1 1.4-1.72 3.46-.76 5.12a2.64 2.64 0 0 0 1.14 1.08 4.57 4.57 0 0 0 1.87.31H282.55h-.08l.77.15a3.94 3.94 0 0 0 1.28-.06 1.21 1.21 0 0 0 .53-2 3 3 0 0 0-1.29-.7 14.06 14.06 0 0 0-1.45-.21c-.35 0-.71-.06-1.07-.07h-.54.06-.1c-.16 0-.14 0 .06.05 0 0-.15-.08-.14-.08s.23.2.1.07.12.24.05.08l-.1-.18c-.1-.14.07 0 0 .12 0 0 0-.13-.05-.16a1.17 1.17 0 0 0-.05-.2c0-.12 0 .35 0 0v-.38.12-.22a2.38 2.38 0 0 1 .11-.38 1.77 1.77 0 0 1 .06-.17v.09-.08c.07-.13.14-.26.22-.39l.1-.15c.15-.22 0 .08-.06.07s.57-.59.63-.64c.23-.2-.2.14 0 0l.19-.13a1.92 1.92 0 0 1 .31-.18l.2-.11c.24-.12 0 .05 0 0a2.29 2.29 0 0 0 .42-.14l.39-.09h-.06.58-.05l.27.06.18.05c.26.08-.09 0-.08 0l.19.11c.16.07-.22-.24 0 0a1.54 1.54 0 0 0 .12.13c-.13-.09-.15-.18-.06 0s0-.18 0 0 .1.38.05.15 0 .08 0 .12a1.5 1.5 0 0 1 0 .3v.52a2.59 2.59 0 0 1-.05.56c.09-.3 0-.07 0 0l-.08.32c0 .1 0 .3 0 0 0 .09-.1.18-.14.25s0-.05 0-.05-.19.19-.21.2c-.2.18.06-.05.06 0a2.21 2.21 0 0 1-.24.14l-.27.2c.17-.14.17-.14 0 0a1.45 1.45 0 0 0-.47.69l.31-.52-.05.06a1.14 1.14 0 0 0 0 1.56ZM268.45 335.08l.29.17h.06c-.26-.2-.23-.17.11.09 0 0-.27-.24-.12-.09l.24.24c.16.18-.15-.24-.08-.09l.13.2a.75.75 0 0 0 .07.12c.13.23-.12-.33 0-.08s.07.22.1.33v.14c.06.26 0-.36 0-.09a2 2 0 0 1 0 .35v.21c0-.33.05-.29 0-.17a3.38 3.38 0 0 1-.08.34c-.05.14-.15.24 0-.07l-.06.12c0 .07-.07.14-.11.2s-.24.26 0 0a3.32 3.32 0 0 1-.26.28l-.11.11c-.2.19.28-.19 0 0a3.62 3.62 0 0 1-.33.2l-.13.08-.14.07.15-.07a5.9 5.9 0 0 1-.72.2c-.29.07.36 0 .06 0H267c-.05 0-.31-.05-.05 0l-.44-.12s.28.12.09 0 .18.22 0 0c0 0-.11-.13-.13-.14.12.17.14.19.05.06l-.06-.1a1.65 1.65 0 0 0-.18-.32l.08.18c0-.05 0-.1-.05-.15s0-.1 0-.15 0-.27-.08-.4c.11.36 0 .19 0 0a1.93 1.93 0 0 1 0-.24v-.21c0-.07.09-.26 0 .09 0-.13 0-.26.09-.39a1 1 0 0 1 .05-.16c0-.13.17-.26 0 0 .08-.12.13-.27.22-.39s.15-.09-.06.05a.93.93 0 0 0 .16-.18l.17-.16.06-.05-.09.07a3.34 3.34 0 0 0 .4-.25l.15-.07c-.34.2-.13.05 0 0a2.09 2.09 0 0 1 .43-.11h.08-.14a1 1 0 0 0 .24 0h.47a1.55 1.55 0 0 0 1.14-.47l-.9.37a7.9 7.9 0 0 0 .82-.09 1.07 1.07 0 0 0 .63-1.56 2.66 2.66 0 0 0-.81-.72l.46.46c-.53-1.05-2.09-.92-3.05-.64a4.62 4.62 0 0 0-2.15 1.34 4.78 4.78 0 0 0-.68 5.15c1.63 3.54 7.56 2.08 8.13-1.5a3.87 3.87 0 0 0-2.49-4.49 1.32 1.32 0 0 0-1 2.41ZM244.57 311.9c-.41 0-.83-.1-1.25-.12a6 6 0 0 0-1.4.16 3.47 3.47 0 0 0-1.25.41 4.81 4.81 0 0 0-.67.52 2.3 2.3 0 0 0-.33.44c.18-.26-.16.23-.19.29a4.52 4.52 0 0 0-.4 1.74 7.52 7.52 0 0 0 0 1.5 4.74 4.74 0 0 0 7.15 4 5.32 5.32 0 0 0 2.09-2 4.39 4.39 0 0 0 .59-3 5.09 5.09 0 0 0-4-4.17 1 1 0 0 0-1.24.71 1 1 0 0 0 .7 1.24 1.53 1.53 0 0 1 .71.29l.17.12c-.14-.11 0 0 .06.06l.19.18c.17.15-.07-.11.08.09a5.69 5.69 0 0 1 .46.74c0 .07.12.28 0 0a1.46 1.46 0 0 0 .07.19c0 .17.09.33.13.5v.26a2 2 0 0 0 0 .42v-.07.26a2.07 2.07 0 0 1-.17.55s.14-.28 0-.06a1.74 1.74 0 0 0-.1.19l-.11.17s-.21.28-.07.11-.08.09-.09.1l-.15.15-.15.14c-.12.1-.23.16 0 0l-.4.25-.23.12c-.19.1 0-.05 0 0l-.44.14-.25.06c-.29.06.27 0 0 0h-.41.06a1.31 1.31 0 0 1-.27-.06 4.42 4.42 0 0 1-.48-.15c.26.1.08 0 0 0a2.69 2.69 0 0 1-.29-.16l-.19-.13c.24.17 0 0 0 0l-.2-.2c-.05-.06-.11-.2 0 0a2 2 0 0 0-.12-.19s-.18-.36-.1-.18-.07-.21-.06-.19-.06-.21-.08-.31a1.8 1.8 0 0 1-.06-.32c0 .06 0 .26 0 0v-1.13a1.94 1.94 0 0 1 0-.24c0-.38-.06.27 0-.11 0-.19.09-.38.13-.57s.18-.65.06-.41.06-.15.07-.2.07-.28 0-.1c0-.08.09-.17.13-.25a1.14 1.14 0 0 1 .26-.35 2.4 2.4 0 0 1 .87-.32 6.92 6.92 0 0 1 1.19-.22.46.46 0 0 0 0-.91ZM241.42 300.79c-2.18.94-1.64 4.26-.34 5.7a4.45 4.45 0 0 0 6.93-.75c.11-.17.33-.38.06-.29a1.74 1.74 0 0 1 .68.05c.68.1 1.7.42 1.68 1.18 0 .44-.24 1-.24 1.46A2.39 2.39 0 0 0 251 310a6 6 0 0 0 3.4 1 9.54 9.54 0 0 0 6.66-2.14 2.89 2.89 0 0 0 .89-3.29 5.49 5.49 0 0 0-2.46-2.4 8.83 8.83 0 0 0-1.5-.68 2.88 2.88 0 0 1-.65-.2c-.25-.15 0 0 0 0v-.53a2.56 2.56 0 0 0-1.8-2.32 2.42 2.42 0 0 0-2.79.88 7.89 7.89 0 0 0-.83 1.24 1.4 1.4 0 0 1-1.34.85c-.25 0-.42.06-.57-.14a1.57 1.57 0 0 1-.18-.72 5.89 5.89 0 0 0-.25-1.38 2.89 2.89 0 0 0-2.44-1.69 4.67 4.67 0 0 0-3.34.81 13.52 13.52 0 0 1-1.3.95l-.31.16s.68.14-.06-.06c-.25-.07-.47-.09-.75-.15a1.38 1.38 0 0 0-1.66.94 2.26 2.26 0 0 0 .6 2.18 1.33 1.33 0 0 0 2.08-1.6.37.37 0 0 1 0-.22l-1.4 1.35a2.28 2.28 0 0 0 1.38-.43c.36-.25.56-.71.87-1a5.39 5.39 0 0 1 2.18-1.66 2.84 2.84 0 0 1 2.85.43c.55.57.36 1.52.58 2.23a1.75 1.75 0 0 0 .49.83 1.36 1.36 0 0 0 1.12.31 2.56 2.56 0 0 0 2.18-1c.25-.35.4-.85.75-1.12a2.56 2.56 0 0 1 1.15-.37 1 1 0 0 1 .86.36c.26.36 0 .88.12 1.29.23 1.19 1.44 1.26 2.33 1.76a6.06 6.06 0 0 1 1.31 1c.17.18.32.4.49.57s.07.14.12.2v-.09a1.17 1.17 0 0 1-.09.24l.32-.54a6.33 6.33 0 0 1-4.53 2.31 8.88 8.88 0 0 1-2.67-.31c-.37-.09 0 0 0 0s.1.2.14.22 0-.21.08-.33a4.57 4.57 0 0 0 .1-1.84c-.44-2.27-3-3.37-5.09-3.3a2.69 2.69 0 0 0-1.72.62 9.72 9.72 0 0 0-.84 1.16 1.77 1.77 0 0 1-1.48.62 1.45 1.45 0 0 1-1.18-1 5.43 5.43 0 0 1 .09-2.39c.09-.82-.87-1.09-1.46-.84ZM266.19 315c-.09.19-.28.47-.54.38l.61.8a5.62 5.62 0 0 0 0-1 2.48 2.48 0 0 0-.74-1.34 4.75 4.75 0 0 0-2.12-1.24 5.52 5.52 0 0 0-4.75.75c-3.31 2.46-2.75 7.76.49 10a3.06 3.06 0 0 0 3.21.31 3.16 3.16 0 0 0 1.09-1.09c.1-.16.21-.32.29-.48.17-.32 0 0 0 0s-.75.14-.34.17l-.7-.19c-.05 0-.33-.26-.22-.37a4.73 4.73 0 0 0 0 .54c0-.22 0 .32-.06.37l-.09.68a3.23 3.23 0 0 0 .74 2.69 6.51 6.51 0 0 0 2.87 1.41 9.52 9.52 0 0 0 3.31.47 5.08 5.08 0 0 0 4.67-3.2 3.89 3.89 0 0 0-1.3-4.69l-1.07 2.55c1.89.45 4.15.88 5.87-.32a3.81 3.81 0 0 0 1.47-4.85l-1.58 2c2.55.62 5.56.47 7.55-1.46a5.29 5.29 0 0 0 .94-6.56l-1.91 1.9a4.66 4.66 0 0 0 4.24.16 3.74 3.74 0 0 0 1.58-1.39 11.37 11.37 0 0 0 1.06-1.6 10.16 10.16 0 0 0-.21-8.24 4.7 4.7 0 0 0-2.37-2.51 3.73 3.73 0 0 0-3.41.38 8.67 8.67 0 0 0-2.58 2.84c-.4.65-.75 1.33-1.11 2a7.88 7.88 0 0 0-1 2.13c-.35 1.84 2.09 1.82 3.27 1.71a9.25 9.25 0 0 0 4.68-1.81.56.56 0 0 0-.28-1 23.77 23.77 0 0 0-9.22 1l.65.49-.08-1.57a.53.53 0 0 0-.36-.48 9.26 9.26 0 0 0-8.4.51 7.3 7.3 0 0 0-3.39 6.75.54.54 0 0 0 .53.54l5.48-.38-.54-.7a1.91 1.91 0 0 1-1.26 1.46 1.83 1.83 0 0 1-1.06.09c-.37-.08-.65-.33-1-.44-1.54-.47-2.09 1.3-2 2.49l.5-.66a4.15 4.15 0 0 1-2 .12.83.83 0 1 0-.22 1.64 6.22 6.22 0 0 0 2.6-.43.71.71 0 0 0 .48-.85 2.18 2.18 0 0 1 0-.88c.09-.33.17-.36.51-.22a3.33 3.33 0 0 0 1.88.38 3.11 3.11 0 0 0 2.64-2.41.56.56 0 0 0-.54-.7l-5.48.41.54.54a6.3 6.3 0 0 1 3-6 8.18 8.18 0 0 1 7.46-.33l-.36-.48.05 1.57a.51.51 0 0 0 .64.49 23.15 23.15 0 0 1 9-.85l-.28-1a8.47 8.47 0 0 1-3.24 1.52 7.87 7.87 0 0 1-1.61.19c-.4 0-1.63.11-1.45-.54a8.45 8.45 0 0 1 .89-1.68c.31-.56.61-1.13.94-1.67a9.46 9.46 0 0 1 1.83-2.29 2.86 2.86 0 0 1 2.59-.8 3 3 0 0 1 1.87 1.75 9.08 9.08 0 0 1 .34 6.08 4.86 4.86 0 0 1-.8 1.57 2.06 2.06 0 0 1-1.12.58 7 7 0 0 1-1.23.36 1.8 1.8 0 0 1-1.18-.21c-1.15-.64-2.74.7-1.91 1.9a1.9 1.9 0 0 1 .36 1.56 3 3 0 0 1-1 1.74c-1.2 1.05-3.18 1-4.71.63a1.41 1.41 0 0 0-1.57 2.05.7.7 0 0 1-.07.52 1.56 1.56 0 0 1-.75.73c-1 .45-2.34.06-3.37-.18a1.4 1.4 0 0 0-1.08 2.55c-.18-.14.13.14.14.15-.15-.19 0 0 0 .1.07.24-.06-.3 0 .1s0-.26 0 .17a1.31 1.31 0 0 1 0 .28c0 .42.07-.22 0 .19 0 .12-.06.23-.1.35s0 .09 0 0a2.15 2.15 0 0 1-.14.26 1.47 1.47 0 0 1-.7.75 3.54 3.54 0 0 1-1.95.34 7.26 7.26 0 0 1-3.45-1.07c.12.09 0-.14 0 0v-.29a3.66 3.66 0 0 1 .08-.61 4.53 4.53 0 0 0 0-2 2.29 2.29 0 0 0-1.41-1.54 2 2 0 0 0-2 .71 4.37 4.37 0 0 0-.87 1.49c.05.3-.25-.08 0 0a2.27 2.27 0 0 1-.71-.36 3.89 3.89 0 0 1-1.05-3 3.54 3.54 0 0 1 1-2.74 2.7 2.7 0 0 1 2.34-.53 2.77 2.77 0 0 1 1.29.59c-.18-.14.14.15.14.15a3 3 0 0 0 .59.47c.45.26-.25-.31 0 0 .11.13.24.24.34.37a.84.84 0 0 0 1 .13 1.76 1.76 0 0 0 1.09-1.69c0-.36-.58-.6-.75-.2Z"/>
    </g>

  </g>
</svg>