<svg xmlns="http://www.w3.org/2000/svg" viewBox="0 0 1098.64 811.19"><defs><style>.cls-1{fill:#ee6034;}.cls-2{fill:#ccaf8d;}.cls-3{fill:#b9d5d7;}</style></defs><g id="Layer_2" data-name="Layer 2"><g id="Layer_1-2" data-name="Layer 1"><path class="cls-1" d="M606.78,323.65c-9.93,4.2-20.36,8.49-31.1,7.55s-21.69-9-21.91-19.79c-.27-13.43,14.43-21.52,21.73-32.79,3.37-5.21,5.17-11.25,8-16.78s7-10.86,13-12.56,13.57,1.88,14.16,8a28.07,28.07,0,0,1-.42,5.32,21.32,21.32,0,0,0,39.44,13.2c2.44-4,3.74-9,7.64-11.63,3.37-2.23,7.71-2,11.74-2.24,19.57-1.09,36.18-14,51.38-26.42,4.3-3.5,8.68-7.09,11.59-11.81,4.61-7.46,5-16.88,9.37-24.5,6-10.47,20.65-15.72,31-9.54,1.16,11-9.59,18.95-18.58,25.33-13.43,9.54-25.86,21.07-33.73,35.55-1,1.82-1.92,3.84-1.59,5.88.3,1.88,1.64,3.45,2.07,5.3.69,2.93-1,5.86-2.54,8.44-20.88,34.31-36.79,73.84-32.5,113.77a11.9,11.9,0,0,0,1.58,5.54c2.23,3.29,7.23,3.67,10.76,1.83s5.91-5.29,8-8.68c12.33-20.07,19.57-42.79,29.49-64.16a279.88,279.88,0,0,1,43.43-66.68c10.46-11.93,25.47-23.92,40.58-19.09,11.33,3.62,18,15.93,19,27.78s-2.4,23.55-5,35.14-4.49,24-.54,35.18c3.74-2.83,9.57,0,11.51,4.26s1.17,9.24.37,13.87c-3.28,18.9-7.1,38.93-20.1,53-2.9,3.15-6.46,6.49-6.34,10.78s7.3,7,8.49,2.87c2,5.1.11,10.81-1.89,15.89a287.07,287.07,0,0,1-27.67,53.09c-8.41,12.7-18.22,25.8-18.56,41A120.18,120.18,0,0,1,748,514.09c-9.28-5.06-18.16-11.44-28.52-13.53-6.33-1.27-12.88-.86-19.31-1.54-10.73-1.13-20.89-5.26-30.87-9.36l-94.55-38.74c-2.81-1.16-5.74-2.39-7.72-4.69s-2.68-6-.71-8.35c1.26-1.48,3.27-2.07,5.16-2.51,11.43-2.68,24.48-1.4,36.06.53,9.31,1.55,17.21,2.88,26.25,5.59a438.4,438.4,0,0,0,88.07,16.83c9.81.85,19.9,1.34,29.28-1.64,18.24-5.79,30-23.24,38.79-40.23,2.73-5.27,5.38-10.93,5-16.85-.59-9.79-9.05-17.16-17.52-22.1a105.42,105.42,0,0,0-42.12-13.75c-2.05-.21-4.23-.33-6,.63-4.34,2.32-3.63,8.57-4.67,13.38-1.38,6.47-6.91,11.43-13,13.92s-12.91,1.72-19.52,2.13c-29.08,1.8-54-1.73-87-2a6.81,6.81,0,0,1-5.89-3.45c-.82-1.64-.48-3.59-.13-5.39l11.49-58.18-5.79-1.75"/><path class="cls-2" d="M114.65,438.75A741.24,741.24,0,0,1,18.43,375.5C9.69,368.72.34,360.31,0,349.25c-.44-14.66,14.91-24.46,28.83-29.09,22.27-7.4,47.39-10.4,64.52-26.45,6.81-6.37,12.1-14.64,20.32-19,13.93-7.48,31.55-1.27,43.9,8.6s21.73,23.11,34.4,32.57c11.34,8.46,24.8,13.52,38.06,18.47l119.35,44.56c10.59,4,22.68,9.56,25,20.62q-130.55,23.11-262.1,39.89"/><path class="cls-2" d="M400,582.64l7.81-18.25A180.57,180.57,0,0,1,361.26,581L560.85,705.59c18.17,11.34,36.4,22.73,52.81,36.49,12.59,10.56,24.09,22.5,37.64,31.79,40,27.38,91.73,28.3,140.17,28.24l163.31-.19c15.52,0,31.57-.15,45.75-6.46s26-20.59,24.46-36c-1.29-12.67-10.94-22.94-14.24-35.25-6.13-22.82,9.91-50.07-3.68-69.4-4.52-6.43-11.57-10.52-18.4-14.41-43.34-24.69-87-49.53-134.12-65.89-31.29-10.86-63.95-17.93-94.17-31.49-20-9-38.76-20.74-59-29.38-14.36-6.15-29.35-10.67-44.09-15.84-33.81-11.85-66.3-27.1-99.16-41.37-10.55-4.58-21.69-9.15-33.14-8.08s-23,9.82-23.12,21.31l39.65,33.57c1.26,1.07,2.68,2.2,4.34,2.22,2.35,0,4.06-2.11,5.56-3.92,11.58-14,20.69-25.43,38.72-23.19s49.58,16.9,65.87,24.94c14.52,7.16,27.89,11.82,42.4,19a10.72,10.72,0,0,1,5.35,4.82c2.64,4.73-2.53,13.34-5.85,17.62l-45.75,59.08c7,8.85,21.56,6.28,30.54,13.06,10.81,8.15,8.45,24.72,5,37.81L676,699.26c-3.1,11.77-8.29,25.61-20.23,28-7.56,1.5-15-2.4-21.76-6.17q-16.21-9.09-32.44-18.2Q500.46,646,400.55,587"/><path d="M680.12,196.24c3.7-4,11-2.74,13.37,2a9.09,9.09,0,0,1-.17,8,10.38,10.38,0,0,1-2.5,3.3c-1.24,1.08-2.7,1.87-3.93,3a12.48,12.48,0,0,0-3.82,8.25c-.33,3,0,6.1-.47,9.12-.4,2.74-1.38,5.74-3.9,7.22-3.06,1.8-6.86.65-9.6-1.18a47.43,47.43,0,0,1-7.93-7.39c-1.42-1.53-2.85-3.05-4.25-4.6s-2.58-3-4-4.4c-5.67-5.72-11.31-11.47-17-17.18-2-2-5.76-4.3-8-1.3-1,1.37-1,3.34-1.2,5-.18,2-.3,3.91-.34,5.87a112.88,112.88,0,0,0,.39,11.63c.2,2.45.38,4.93.74,7.36a9.05,9.05,0,0,0,.75,2.91,7.18,7.18,0,0,0,2.58,2.64,12.91,12.91,0,0,0,7.65,1.45c2.71-.2,6.29-.7,8.33-2.65,1.47-1.41,1.74-4.24,1.8-6.14a7.66,7.66,0,0,0-.26-2.78.64.64,0,0,0-1.22,0c-.48,1.4-2.12,1.76-3.43,1.5a4.63,4.63,0,0,1-3.34-3.22,22.5,22.5,0,0,1-1-6c-.2-2.29-.39-4.58-.6-6.87a9.85,9.85,0,0,0-1.6-5.31,6.4,6.4,0,0,0-3.5-2.17c-3.33-.83-6.58.5-9.22,2.49a28.45,28.45,0,0,0-4.21,4,29.21,29.21,0,0,1-4.07,4.1,9.62,9.62,0,0,1-10.37,1.08,15.93,15.93,0,0,1-4.52-3.57,44.15,44.15,0,0,1-4-4.86,52.13,52.13,0,0,1-6-10.81,42.2,42.2,0,0,1-3-11.18c-.36-3.36-.17-7,1.48-10,1.8-3.29,5.29-4.88,8.88-5.37a49.28,49.28,0,0,1,12.49.31,123.66,123.66,0,0,1,13.5,2.6c4.45,1,8.89,2.14,13.3,3.33a126.26,126.26,0,0,1,12.89,4.12,82.19,82.19,0,0,1,11.83,5.83c3.78,2.22,7.47,4.61,11.12,7,1.73,1.14,3.5,2.25,5.17,3.48a14.3,14.3,0,0,1,3.89,3.9,8.9,8.9,0,0,1,.83,6.29c-.39,2.29-1,4.56-1.46,6.84q-1.52,6.91-3.1,13.81c-.28,1.23-.73,3.51-2.31,3.65l.73.56c-1-4.32-.85-8.78-.91-13.19a36.77,36.77,0,0,0-1.84-12.19c-2.49-6.77-8.37-11.74-14.31-15.5a132.54,132.54,0,0,0-22.05-10.82q-6.25-2.49-12.68-4.47a91.94,91.94,0,0,0-13.37-3.31c-6.37-1-18.38-1.89-18.6,7.37a18.1,18.1,0,0,0,.8,5.27c.57,2.11,1.24,4.2,2,6.25A81.94,81.94,0,0,0,602,203c1.86,3.37,4.16,6.33,7.95,7.56a11,11,0,0,0,5.53.37,13,13,0,0,0,5-2.49,20.17,20.17,0,0,0,6-9,20,20,0,0,1,2.2-4.81,5.49,5.49,0,0,1,4.93-2.19c4.13.25,7,3.74,9.41,6.67L652,210l18.28,21.94,4.46,5.34c.65.78,1.76-.34,1.11-1.11q-8.8-10.56-17.63-21.1l-8.93-10.69L645,199.13a56.65,56.65,0,0,0-3.9-4.43c-2.54-2.49-6-4.38-9.66-3.56s-4.94,4.11-6.09,7.19a16.76,16.76,0,0,1-6.3,8.48,14.21,14.21,0,0,1-4.89,1.8,8.85,8.85,0,0,1-5.24-.26,9.85,9.85,0,0,1-4.21-3.93,50.73,50.73,0,0,1-2.9-5.2A81.06,81.06,0,0,1,597,187.41c-1-3.19-2.65-7.53-.81-10.71,2-3.4,7-3.38,10.4-3.3a56.08,56.08,0,0,1,13.11,2.19c4.25,1.15,8.44,2.5,12.58,4a155.51,155.51,0,0,1,23,10.35c6,3.35,12,7.61,15.7,13.51a23.92,23.92,0,0,1,3.86,10.16c.49,4.2.2,8.44.46,12.65a34.07,34.07,0,0,0,.86,6,.76.76,0,0,0,.73.56c1.68-.16,2.64-1.41,3.22-2.9a46.18,46.18,0,0,0,1.59-6.59c1.11-4.92,2.34-9.82,3.43-14.75a13.38,13.38,0,0,0,.15-6.88,11.17,11.17,0,0,0-3.15-4.69,54.64,54.64,0,0,0-4.73-3.7c-1.86-1.37-3.71-2.74-5.59-4.08a93,93,0,0,0-25.16-13.07c-4.62-1.5-9.32-2.69-14-3.83s-9.43-2.32-14.2-3.23a81,81,0,0,0-14.65-1.6c-3.85,0-8.1.7-11.31,3-6.35,4.51-6.32,13.06-4.55,19.88a55,55,0,0,0,12,22.68c2.62,2.93,6.15,5.85,10.18,6.35s7.81-2.38,10.45-5.28c1.39-1.52,2.61-3.17,3.94-4.73a11.41,11.41,0,0,1,4.77-3.71,7.48,7.48,0,0,1,5.09-.05,5.43,5.43,0,0,1,3.2,4.54c.39,2.44.46,4.95.66,7.4A39.13,39.13,0,0,0,639,224c.79,3.12,3.19,5.84,6.68,5.14a3.61,3.61,0,0,0,2.8-2.38h-1.22a6.37,6.37,0,0,1,.13,2.85,12.68,12.68,0,0,1-.83,3.54,4.17,4.17,0,0,1-2.64,2.22,18.62,18.62,0,0,1-4.47,1c-2.57.31-5.47.24-7.74-1.14a5.15,5.15,0,0,1-2.22-2.48,15.67,15.67,0,0,1-.62-3.4c-.31-2.69-.57-5.41-.72-8.12a60.77,60.77,0,0,1,.57-11.67c.25-1.87.58-3.72.92-5.56.1-.54.19-1.3.68-1.64s1.18-.07,1.66.16a15.45,15.45,0,0,1,3.94,3.41l4.17,4.19,8.46,8.51c2.78,2.8,5.7,5.43,8.58,8.13,1.44,1.35,2.88,2.7,4.3,4.07s2.58,2.68,3.94,3.95c2.38,2.25,5.15,4.25,8.46,4.74a8.48,8.48,0,0,0,7.87-2.72,14.19,14.19,0,0,0,2.82-7.61c.37-3,.15-6.13.82-9.15a10.32,10.32,0,0,1,1.79-4.18,18.65,18.65,0,0,1,3.53-3,12.33,12.33,0,0,0,4.9-6.88,12.71,12.71,0,0,0-.62-8,9.82,9.82,0,0,0-12.75-4.79,8.16,8.16,0,0,0-2.92,2.15c-.51.6.33,1.47.88.88Z"/><path d="M674.45,235.53c-.56,3.76,4.57,5.07,7.38,4.87,4.4-.3,8.68-2.3,12.32-4.71a101.55,101.55,0,0,0,11-9c3.87-3.44,7.63-7,11.36-10.59a55.74,55.74,0,0,0,5.15-5.49c1.5-1.9,3.19-4.11,3.75-6.5a.65.65,0,0,0-1.18-.5c-1.18,1.77-2.08,3.68-3.4,5.37a43.25,43.25,0,0,1-4.2,4.57c-3.35,3.23-7,6.1-10.54,9.16s-6.68,6.17-10.19,9.06c-3.17,2.61-6.6,5-10.6,6.12a12.87,12.87,0,0,1-6.06.49,5.59,5.59,0,0,1-4.15-3,.35.35,0,0,0-.64.09Z"/><path d="M681.26,194.76c2.43.83,4.85,1.69,7.28,2.52,2,.66,3.1-.4,3.77-2.18a20.8,20.8,0,0,0,.86-10.92,21.62,21.62,0,0,0-4.53-9.84,23.31,23.31,0,0,0-9.54-6.62c-8.27-3.3-17.35-2.93-26.05-3.86a42.17,42.17,0,0,1-13.71-3.75c-4.19-2-8.32-4.26-12.8-5.57s-9.69-1.7-14,.64a14.64,14.64,0,0,0-7.29,9.71A.85.85,0,0,0,606,166c5.59-.18,7.13-6.3,9.26-10.34a9.85,9.85,0,0,1,5.68-5,15.72,15.72,0,0,1,7.85-.45,82.25,82.25,0,0,0,9.33,1.47,23.67,23.67,0,0,0,6.92-.57,42,42,0,0,0,12.18-5.32c7.78-4.68,14.81-11.07,23.91-13.07,4.68-1,11.52-.86,13.25,4.68.8,2.56-.6,4.56-2,6.6s-1.85,4.33-.41,6.37a9.13,9.13,0,0,0,5.58,3.24c2.35.54,4.91.52,7.06,1.75,4.59,2.66,2.35,9.08,2.27,13.29a13.57,13.57,0,0,0,.35,3.42c.18.77,1.36.45,1.18-.32-1.13-4.7,1.57-9.76-.26-14.32a7.5,7.5,0,0,0-5-4.24c-2.28-.72-4.85-.76-7-1.9s-3.41-2.66-2.74-5,2.4-4.19,2.65-6.62a7.85,7.85,0,0,0-2.59-6.31,11.34,11.34,0,0,0-7-2.79c-4.76-.33-9.53,1.24-13.79,3.21a115.6,115.6,0,0,0-12.08,6.92c-3.89,2.39-7.78,4.93-12,6.62a26.62,26.62,0,0,1-14.44,1.81c-5.21-.58-11.36-1.55-16.08,1.41a12.85,12.85,0,0,0-4.63,5.86c-1.09,2.38-2.1,4.92-4.18,6.62a5.3,5.3,0,0,1-3.25,1.34l.8,1.06A12.87,12.87,0,0,1,612.7,157c3.56-2.15,7.92-2.18,11.85-1.15,4.1,1.08,7.77,3.21,11.52,5.13a43,43,0,0,0,12.23,4.27c8.28,1.44,16.76.61,25,2.2a27.41,27.41,0,0,1,10.7,4.27,19.38,19.38,0,0,1,6.62,8.18,20.47,20.47,0,0,1,1.43,11.56,19,19,0,0,1-.68,2.7,6,6,0,0,1-.62,1.48c-.45.71-1,.74-1.78.55-2.52-.64-5-1.56-7.48-2.34-.57-.18-.8.69-.24.88Z"/><path d="M707,171.51c-1.68,5.58-7.84,8.14-10.14,13.36-1.43,3.27-.77,7,.17,10.33.7,2.48,2.24,5.49,5.29,5.13,1.82-.22,3.17-1.52,4.41-2.74,1.44-1.42,2.85-2.87,4.2-4.36q4.11-4.56,8-9.3c2.57-3.12,5.12-6.26,7.55-9.49s4.64-6.59,7-9.87c1.33-1.87,2.61-3.76,3.95-5.62s2.7-3.5,3.8-5.38c.85-1.47,1.43-3.32.62-4.93a3,3,0,0,0-3.42-1.75.28.28,0,0,0,.08.55c1.67-.1,2.65,1.78,2.42,3.26s-1.39,3-2.33,4.22c-2.22,3-4.48,5.88-6.76,8.8s-4.59,5.66-6.88,8.49-4.52,5.75-6.83,8.59-4.59,5.54-7,8.25-4.74,5.59-7.3,8.16c-1,1-2.22,1.9-3.55,1a5.76,5.76,0,0,1-1.89-3.16c-.93-3.09-1.68-6.76-.25-9.81,2.42-5.13,8.32-7.81,10-13.43a.58.58,0,0,0-1.11-.31Z"/><path d="M740.21,146.6c-2.22,0-4.09,1.12-5.84,2.36-2.16,1.52-4.29,3.06-6.44,4.59q-6.46,4.63-12.91,9.31l-3.09,2.22a8.93,8.93,0,0,0-2.6,2.16,3.27,3.27,0,0,0,0,2.67,7.7,7.7,0,0,1,.37,2.52c-.12,3.21-2.17,6.08-3.82,8.7-1.91,3.06-4,6.42-3.64,10.17,0,.32.34.69.7.54,8.12-3.4,14.1-10,19.83-16.42a123.25,123.25,0,0,1,9.17-9.67c3.36-3.06,7.15-5.72,10.09-9.21,3.33-4,4.52-8.88,5.74-13.79A110.37,110.37,0,0,0,750.83,126a49.91,49.91,0,0,0-.84-15.18,31,31,0,0,0-6.5-13.17A56.2,56.2,0,0,0,733,88.19c-4.12-3-8.36-5.84-12.7-8.48a64.39,64.39,0,0,0-14-6.5,67.35,67.35,0,0,0-15.21-2.9,99.84,99.84,0,0,0-15.66.14,70.22,70.22,0,0,0-14.67,2.62,44.24,44.24,0,0,0-13.65,6.81,99.68,99.68,0,0,0-11,9.44,53.21,53.21,0,0,0-8.59,10.89,37,37,0,0,0-2.76,5.92,53.16,53.16,0,0,0-1.88,7.48,33.25,33.25,0,0,1-2.47,7.78,62.85,62.85,0,0,0-3.16,6.94,21.3,21.3,0,0,0,.35,14.37c.76,1.94,3,4.61,1.7,6.71-.29.47.45.9.74.43,1.2-1.91.09-4.07-.71-5.92a22.06,22.06,0,0,1-1.81-7.18,20.4,20.4,0,0,1,.72-7.21,44,44,0,0,1,3-6.94,31.92,31.92,0,0,0,2.48-7c.55-2.5.93-5,1.68-7.5a38,38,0,0,1,6.27-11.84,68.22,68.22,0,0,1,9.7-10,66.14,66.14,0,0,1,12-8.56c8.8-4.64,19-6.08,28.89-6.15,10.14-.08,20.53,1.36,29.82,5.6a95.54,95.54,0,0,1,13.33,7.8,102.1,102.1,0,0,1,11.27,8.33,33.17,33.17,0,0,1,8.46,11.19,39.56,39.56,0,0,1,3.27,14,70.23,70.23,0,0,1-1.25,15.71c-.47,2.69-1.05,5.36-1.61,8-.53,2.5-1,5-1.72,7.48-1.45,4.63-4.61,8.05-8.17,11.19a127.35,127.35,0,0,0-9.43,9c-5.72,6.21-11,13.16-18,17.91a32.71,32.71,0,0,1-5.58,3l.7.53c-.57-6.5,5.79-11,7.26-17a8.69,8.69,0,0,0,0-4.27c-.11-.44-.3-.88-.38-1.33-.13-.79.3-1.2.87-1.63,1.07-.79,2.15-1.56,3.22-2.34,4.06-3,8.13-5.89,12.18-8.86l6.7-4.92c2.06-1.52,4.28-3.52,7-3.52a.44.44,0,0,0,0-.87Z"/><path d="M724.9,205.61a14,14,0,0,0,1.66-3.46,23.63,23.63,0,0,0,.66-3.63c.31-2.57.38-5.19.45-7.78.14-5.22.28-10.39,2.18-15.33a29.46,29.46,0,0,1,8.69-12.17,11.52,11.52,0,0,1,6.94-3,6,6,0,0,1,5.33,3.46,13.23,13.23,0,0,1,1,6.46,31.56,31.56,0,0,1-1.89,8.22c-.9,2.65-2.18,5.15-3.11,7.78a44.9,44.9,0,0,1-3.14,7.47,38.19,38.19,0,0,1-4.71,6.64c-1.59,1.76-3.87,3.78-6.42,2.84-1.42-.52-1.87-1.86-2-3.25a13,13,0,0,1,.1-3.69,5.27,5.27,0,0,1,1.66-3.08,10.48,10.48,0,0,1,3.55-1.65,13.92,13.92,0,0,0,9-8.88,14.1,14.1,0,0,0,.3-6.86,11.15,11.15,0,0,0-3.57-5.92c-.37-.34-.78-.63-1.17-.94a2.07,2.07,0,0,1-.64-.68c0-.05-.14-.65.09-.5l-.26-1L736,174.5a.63.63,0,0,0,.38.92c1.31.27,3,.87,3.51,2.28a1.78,1.78,0,0,1-1.49,2.44c-1.16,0-2.25-.4-3.4-.06a2.43,2.43,0,0,0-1.76,2.56,9.13,9.13,0,0,0,.74,2.13,3.36,3.36,0,0,1-.08,2.19,13.1,13.1,0,0,1-2.54,3.84,23.09,23.09,0,0,0-4.22,7.44,10.46,10.46,0,0,0,.38,7.85,36.71,36.71,0,0,0,2.57,3.76,7.71,7.71,0,0,1,1.21,3.79,20,20,0,0,1,.1,4,16.67,16.67,0,0,1-1,3.91,19.31,19.31,0,0,1-4.82,6.93c-4.33,4.14-10,6.38-15.44,8.74a32.25,32.25,0,0,0-7.71,4.47c-2.48,2.06-4.26,4.81-6.72,6.88a34.32,34.32,0,0,1-8.31,5,20.12,20.12,0,0,1-9.4,2,15.61,15.61,0,0,1-13.5-10.22,16.72,16.72,0,0,1-.94-4.48c-.08-1.27.14-2.54,0-3.8a2.44,2.44,0,0,0-1.34-2.13c-1.12-.4-2.35.52-3.23,1.11-2.15,1.46-4,3.54-6.49,4.47-2.87,1.06-5.42-.42-7.95-1.66a13.6,13.6,0,0,0-3.75-1.31c-.62-.1-.89.85-.26.95,2.89.46,5.21,2.45,8,3.15,2.62.66,5-.27,7.07-1.8,1.14-.83,2.19-1.76,3.33-2.59.89-.65,3-2.39,3.49-.61.34,1.25,0,2.67,0,3.94a16,16,0,0,0,.67,4.29,16.88,16.88,0,0,0,12.15,11.54c6.35,1.54,12.74-1.06,18.09-4.35a28.48,28.48,0,0,0,3.89-2.84,43.35,43.35,0,0,0,3.57-3.73,24.49,24.49,0,0,1,7.64-5.71c2.85-1.39,5.84-2.44,8.74-3.7a47.1,47.1,0,0,0,8-4.41c4.94-3.45,8.58-8.48,8.87-14.66a10.37,10.37,0,0,0-.55-4.29,17.72,17.72,0,0,0-2-3.68,33.94,33.94,0,0,1-2.72-3.82,8.06,8.06,0,0,1-.78-4.27,17.32,17.32,0,0,1,3.51-8.42c.9-1.29,2-2.45,2.91-3.7a5.94,5.94,0,0,0,1.42-3.89,12.86,12.86,0,0,0-.47-2c-.14-.63,0-.81.58-.85a10.31,10.31,0,0,0,3.5-.36c2.28-1,2.23-4,.77-5.66a6.45,6.45,0,0,0-3.48-1.83l.37.92,3.78-7.68a.76.76,0,0,0-.27-1,1.56,1.56,0,0,0-2.27.85c-.46,1.09.32,2,1.05,2.73a15.35,15.35,0,0,1,3.75,6.68,11.54,11.54,0,0,1-5.67,13.12c-2.15,1.13-4.84,1.39-6.39,3.45s-1.61,4.73-1.39,7.06a4.18,4.18,0,0,0,4.4,4.11c2.66-.06,4.72-2.1,6.36-4a42.6,42.6,0,0,0,5.05-7.18,85.17,85.17,0,0,0,4.35-7.66c2.42-5.55,4.87-11.5,4.09-17.69-.59-4.7-3.83-9.46-9.07-9s-9.8,5-12.73,9.2a31.7,31.7,0,0,0-5.43,15.28c-.55,5.81.11,11.74-1.64,17.4a38.51,38.51,0,0,1-1.36,4c-.37.83.75,1.55,1.24.73Z"/><path d="M640.15,237.56c-6.86,6.31-16.28,9.19-22.54,16.22a19.12,19.12,0,0,0-5.18,10.94c-.35,4.43,1.65,8.56,4.51,11.82s6.64,6,11,6.71a17,17,0,0,0,11-1.93c7.16-4,9.79-13,6.62-20.44-3.51-8.24-13.88-11.72-21.83-7.84l.56,1c4.73-2.83,10.68-4.12,16-2.31a12.83,12.83,0,0,1,8.55,10.51,9.9,9.9,0,0,1-1.72,7.09c-.34.48.43,1.08.82.63,4.8-5.64,13.87-8.87,13.83-17.5a7,7,0,0,0-5.51-7c-3.51-.85-7.31.17-10.74-1.1-1.74-.64-3-2.38-4.93-2.57s-3.46,1.68-5.09,2.56c-3.68,2-8.2,1.71-12.11.61-4.61-1.28-8.81-3.67-13.35-5.15-1.83-.6-3.92-.95-5.7,0a5,5,0,0,0-2.28,2.9,7.92,7.92,0,0,0,2.66,8.46c3.75,2.78,8.76,2.42,13.14,2,.53-.06,1-.76.49-1.18a44.78,44.78,0,0,0-20.3-9.52l.64.64a7.24,7.24,0,0,1,2.07-5.83,1.08,1.08,0,0,0-.22-1.69,66.34,66.34,0,0,1-21.53-19,59.12,59.12,0,0,1-7.31-13.52,51.23,51.23,0,0,1-3.46-15.53,42.7,42.7,0,0,1,8.87-27.47,63.16,63.16,0,0,1,21-17.46c3.88-2.07,8-3.55,11.94-5.5,3.36-1.68,6.89-3.94,8.41-7.54a9.87,9.87,0,0,0,.67-2.63.55.55,0,0,0-.55-.55c-5.25.12-9.86,3.43-14.23,6-4.7,2.75-9.46,5.4-14,8.39-8.62,5.68-16.64,12.31-22.64,20.79-5.7,8-9.33,17.5-9.23,27.43.12,10.48,4.06,20.68,9.87,29.29s13.57,16,21.66,22.67c1,.84,2.05,1.66,3.09,2.49.51.41,1.24-.32.72-.73-8-6.37-15.75-13.24-22-21.41s-10.86-17.8-12-28.09c-1.05-9.83,1.65-19.44,6.8-27.8,5.28-8.54,12.77-15.49,20.87-21.32,4.25-3.06,8.68-5.88,13.15-8.58,2.29-1.38,4.62-2.69,7-4a37.59,37.59,0,0,1,7.06-3.4,13.32,13.32,0,0,1,3.86-.62l-.55-.55c-.56,4.23-4.17,6.89-7.69,8.74-3.9,2.05-8.09,3.47-12,5.49a66.5,66.5,0,0,0-21.51,17.17,47,47,0,0,0-10.63,26.59c-.6,10.79,3.14,21.4,9,30.37,5.44,8.35,12.85,14.94,21.2,20.27,1,.66,2.06,1.28,3.12,1.89l-.22-1.7a7.72,7.72,0,0,0-2,3.68,8.44,8.44,0,0,0-.3,4.17.9.9,0,0,0,.64.64A40.91,40.91,0,0,1,617.34,253l.49-1.18c-3.72.42-7.92.89-11.37-.92a6.71,6.71,0,0,1-3.5-6.94,4.21,4.21,0,0,1,1.79-3c1.75-1.07,3.93-.37,5.7.25,4.15,1.46,8.06,3.56,12.3,4.78a19.62,19.62,0,0,0,10.66.37,12.93,12.93,0,0,0,4.51-2.33,3.5,3.5,0,0,1,2.75-1.11,7.37,7.37,0,0,1,2.53,1.45c2.83,1.95,6.24,1.69,9.51,1.78s6.79.92,7.74,4.49-.93,7.46-3.42,10c-3.08,3.11-7,5.26-9.86,8.62l.82.63c2.9-4,2.31-9.57-.29-13.61-3.11-4.82-8.79-6.82-14.36-6.34a23,23,0,0,0-9.65,3.17.56.56,0,0,0,.56,1c6.69-3.21,15.53-.78,19.29,5.71s2.19,15.34-4.07,19.66a15.8,15.8,0,0,1-10.16,2.73c-4.09-.32-7.67-2.57-10.5-5.43s-5.25-6.85-5.18-11.16c.06-4,2.07-7.71,4.64-10.67,6.23-7.18,15.8-10,22.54-16.61.44-.43-.22-1.08-.66-.67Z"/><path d="M592.7,241.67c-12.23,6.55-15.93,21.45-22.43,32.66a90.9,90.9,0,0,1-14.61,19c-2.68,2.67-5.58,5.21-7.6,8.45a18.89,18.89,0,0,0-2.68,10.08c0,7.59,4.4,14.15,9.83,19.11a63.92,63.92,0,0,0,9.17,6.87c3,1.87,6.39,3.8,10,3.48,4.24-.38,8.49-1.9,12.55-3.08,3.87-1.12,8.3-2.08,11.13-5.13,4-4.31,5.73-10.17,7-15.77,1.35-6.13,2.09-12.41,4-18.42a34.65,34.65,0,0,1,1.57-4.15c.31-.68-.69-1.29-1-.6a120.52,120.52,0,0,1-7.17,12.42c-2.67,4.17-5.39,8.83-9.41,11.85a15.41,15.41,0,0,1-11.4,3.32.65.65,0,0,0-.71.29c-5.79,8.44-11.6,16.88-17.51,25.24-2.83,4-5.6,8.06-8.48,12a70.73,70.73,0,0,1-8.77,10.39c-6.65,6.25-15.49,10.3-24,13.38a124.5,124.5,0,0,1-27.71,6.21c-4.62.55-9.24,1.23-13.83,1.93s-9.42,1.31-14.08,2.27a101.63,101.63,0,0,0-25.19,9.35,94.12,94.12,0,0,1-12.27,5.25,53.73,53.73,0,0,1-12.8,3c-1.61.13-3.28-.09-3.8-1.83a5.9,5.9,0,0,1,.59-4.09c1.81-3.62,6.62-4.24,10-5.62,3.12-1.28,6.59-4,6.62-7.72,0-1.84-1-3.27-2-4.7a7,7,0,0,1-1.29-2.44,5.74,5.74,0,0,1,1-4.06c2.38-4.25,5.15-8.38,7.85-12.43,2.17-3.27,6.19-7.6,4.5-11.85a4.62,4.62,0,0,0-3.86-3.05,1.25,1.25,0,0,0-1.08.62q-8,10.71-14.91,22.13c-3.9,6.43-9.91,14.72-6.29,22.52a1,1,0,0,0,1.61.21c3-3.34,6-6.76,8.86-10.24.85-1-.54-2.5-1.49-1.49-4.83,5.15-9.55,10.69-12.1,17.37a26.34,26.34,0,0,0-1.4,5.15c-.31,1.88-.33,4-1.38,5.68-.85,1.36-2.72,2.48-4.17,1.29-1.09-.89-1.32-2.56-1.38-3.86a72.15,72.15,0,0,1,.68-10c.34-3.48.78-7,1.4-10.39a64.11,64.11,0,0,1,6.39-19.41,33.93,33.93,0,0,1,6.95-9.3c1.35-1.19,3.6-2.56,5.39-1.47,1.12.69,2.26,2.77.89,3.77l.77.1a15.51,15.51,0,0,0-13.85-2.7c-5.16,1.31-9.32,4.87-12.37,9.13-3.36,4.69-5.33,10.43-6.64,16-1.25,5.28-2.26,11.15-1.22,16.55.82,4.25,3.19,8.76,8,9.14a.48.48,0,0,0,.47-.48c-.08-1.18-.15-2.37-.25-3.56-.07-.92-.41-1-1.16-1.47a20.82,20.82,0,0,1-4.14-3.81,21.5,21.5,0,0,1-4.65-10.09,20.5,20.5,0,0,1,8.76-19.92.66.66,0,0,0-.67-1.14,44.54,44.54,0,0,0-13.5,11.22c-.64.83.52,2,1.17,1.17a43.71,43.71,0,0,1,5.75-6.33,40.94,40.94,0,0,1,7.25-4.92l-.67-1.14c-9.77,6.5-12.91,20.36-6,30.09a21.89,21.89,0,0,0,7,6.38l-.27-.48.43,4,.48-.48c-4.19-.16-6-4.5-6.68-8.08-.86-4.89.17-10.19,1.33-14.94a53.81,53.81,0,0,1,5.75-14.53c2.36-4.05,5.52-7.78,9.86-9.78,4.72-2.18,10.72-2.25,14.94,1.07a.67.67,0,0,0,.9,0c2.25-1.75.68-5.26-1.55-6.2-3.48-1.48-6.85,2-8.84,4.4a52.17,52.17,0,0,0-10.05,20.7,132.58,132.58,0,0,0-3.38,23.9c-.19,2.73-.49,6.75,2.25,8.42a4.17,4.17,0,0,0,4.46-.25,7.49,7.49,0,0,0,2.91-4.83,54.15,54.15,0,0,1,1.63-6.88,33.45,33.45,0,0,1,3.19-6.32A107.14,107.14,0,0,1,424,388.48l-1.65-1.28a89.29,89.29,0,0,1-8.66,10.07l1.71.45c-1.55-3.79-.31-7.74,1.37-11.27a113.19,113.19,0,0,1,6-10.47q6.6-10.73,14.12-20.86l-1.08.62c2.13.26,1.85,3.27,1.3,4.62a68.57,68.57,0,0,1-3.49,6.62c-2.39,4.42-5.22,8.65-7.44,13.16a6.82,6.82,0,0,0-.64,5.55c.68,1.71,2.23,3,2.75,4.78,1.36,4.74-4.53,7.41-8,8.52s-7.44,2-9.41,5.3c-1.51,2.54-1.56,6.41,1,8.33,1.62,1.22,3.6,1.09,5.5.8a53.5,53.5,0,0,0,6.41-1.43,101.24,101.24,0,0,0,12.38-4.63c4.13-1.81,8.34-3.42,12.45-5.28A106.78,106.78,0,0,1,461,397.16a116.23,116.23,0,0,1,14-3.4c4.8-.85,9.72-1.13,14.58-1.57a135.73,135.73,0,0,0,27.85-5.06c8.85-2.72,17.83-6.48,25.41-11.87s12.57-12.95,17.63-20.55c5.71-8.58,11.37-17.19,17.16-25.72l4.31-6.35-.71.29c6.42,1,12.53-2.58,16.41-7.51a129,129,0,0,0,9.18-13.95c1.31-2.21,2.62-4.43,3.74-6.74l-1-.6c-5,10.66-3.89,23.25-9.46,33.66a16.15,16.15,0,0,1-4.63,5.79,19.73,19.73,0,0,1-4.82,2A99.69,99.69,0,0,1,577,339a11.26,11.26,0,0,1-6.22-.26c-3.48-1.26-6.6-3.82-9.56-6-5.94-4.33-11-9.6-13.14-16.76a16.74,16.74,0,0,1-.13-10.54c1.25-3.59,3.94-6.39,6.6-9a103.22,103.22,0,0,0,14.27-17.08c3.82-5.86,6.64-12.19,9.71-18.46,2.78-5.67,6-11.33,10.72-15.59a24.74,24.74,0,0,1,3.95-2.87.46.46,0,0,0-.47-.8Z"/><path d="M412.17,413.23c-2.33,3.72-4.31,7.61-6.86,11.2s-5.14,7.1-7.87,10.55l2.17,1.26c.8-3.08,1.8-6.11,2.46-9.22a64.27,64.27,0,0,1,2.61-9.16c.26-.71-.86-1-1.13-.31-1.14,3-2.42,5.92-3.69,8.87a60.36,60.36,0,0,0-2.75,9.13c-.29,1.15,1.32,2.35,2.17,1.26a98.92,98.92,0,0,0,7.63-11.26,103.15,103.15,0,0,0,6.36-11.86c.27-.65-.75-1-1.1-.46Z"/><path d="M383.86,384.9c-2.69,2.61-2.69,6.53-1.31,9.81a15.31,15.31,0,0,0,7.64,7.63.53.53,0,0,0,.53-.91c-2.59-1.91-5.15-4-6.41-7.07a10.85,10.85,0,0,1,.47-8.75.59.59,0,0,0-.92-.71Z"/><path d="M435.81,365.2a3.55,3.55,0,0,0,.1,4.78c1.47,1.52,3.81,2.1,5.8,2.56a24.78,24.78,0,0,0,14-.5c4.53-1.62,8.7-4.27,12.86-6.64s8.48-5,12.64-7.57c8.47-5.31,16.61-11.08,25.32-16q6.39-3.62,13-6.8,3.24-1.56,6.53-3a38.17,38.17,0,0,1,6.83-2.69c5.46-1.23,8.28,4.69,10,8.85a42.5,42.5,0,0,1,3,15.88l.64-.64c-2.45.12-2.79-4.17-3.25-5.81a34,34,0,0,0-6-12c-.91-1.17-2.13-2.35-2.5-3.83-.41-1.69.89-3.05,1.85-4.29l3.16-4.08q3.64-4.71,7.28-9.43c.57-.74-.69-1.47-1.25-.74q-3.57,4.65-7.12,9.32l-3.44,4.53c-.95,1.24-2,2.55-1.87,4.2a7,7,0,0,0,1.79,3.78,49.56,49.56,0,0,1,3,4.14,33.54,33.54,0,0,1,4.05,9.43c.58,2.23,1.21,6.19,4.3,6a.65.65,0,0,0,.64-.64A43.48,43.48,0,0,0,542.29,334a14.21,14.21,0,0,0-3.35-4.51,7.11,7.11,0,0,0-5.31-1.73,21.86,21.86,0,0,0-6.54,2.2q-6.57,2.9-12.94,6.21c-8.71,4.51-17,9.69-25.21,15s-16.67,10.44-25.36,15c-4.7,2.48-9.64,4.34-15,4.5a25,25,0,0,1-7.74-.85c-1.51-.43-5.67-1.69-4.23-4a.5.5,0,0,0-.79-.61Z"/><path d="M547.07,315a13.53,13.53,0,0,1,7.68-6.35l-.63-.36c2.16,7.81,5.46,15.91,12.42,20.62a18.32,18.32,0,0,0,10.8,3.33c3.74-.15,7.12-1.81,10.4-3.45,3.55-1.77,7.84-4.15,11.94-3l-.5-.65c-.79,10.35-1.35,20.71-2.62,31-.63,5.09-1.43,10.16-2.27,15.21q-.62,3.72-1.32,7.41c-.23,1.23-.5,2.45-.73,3.69s-.3,2.61-.54,3.9a6,6,0,0,1-1.15,2.9,4.84,4.84,0,0,1-2.68,1.32,29.82,29.82,0,0,1-6.68.15c-4.84-.18-9.67-.57-14.51-.73a85,85,0,0,0-14.27.39,47,47,0,0,0-13.55,4.1c-4.32,2-8.43,4.49-12.77,6.5a111.46,111.46,0,0,1-12.94,5.11,92.12,92.12,0,0,1-41,3.13c-2.13-.34-4.65-1.24-6.79-.58a7.22,7.22,0,0,0-2.35,1.41c-1.05.86-2.07,1.77-3.1,2.66-3.59,3.09-7.43,6.05-10.54,9.64a23,23,0,0,0-5.59,12c-.46,3.39-.27,7.84,3,9.89a4,4,0,0,0,4.57-.25c1.58-1.18,2.19-3,2.88-4.8a24.33,24.33,0,0,1,2.63-4.59,22.48,22.48,0,0,1,3.65-4.2,28.62,28.62,0,0,1,4.63-3.15c1.7-1,3.46-1.9,5.24-2.75s3.46-1.61,5.23-2.32c.63-.26.35-1.29-.28-1a99.54,99.54,0,0,0-10.47,4.61,40.81,40.81,0,0,0-4.7,3,41.38,41.38,0,0,0-4.23,3.34,16.73,16.73,0,0,0-3.3,4.44c-.83,1.61-1.26,3.45-2.19,5a2,2,0,0,1-3.32.52,6.92,6.92,0,0,1-1.81-4.41,19.91,19.91,0,0,1,4.28-12.83c2.79-3.65,6.5-6.53,10-9.5l2.91-2.51a17,17,0,0,1,2.79-2.22,5,5,0,0,1,3.45-.21c1.16.21,2.31.42,3.47.6a98.49,98.49,0,0,0,13.51,1.14,101.58,101.58,0,0,0,26.93-3.45,85.35,85.35,0,0,0,12.74-4.43c4.31-1.88,8.33-4.34,12.47-6.54a48.11,48.11,0,0,1,13-4.88,66.14,66.14,0,0,1,14.11-1.23c4.79.07,9.57.4,14.35.6,2.28.09,4.57.24,6.84.18a8.29,8.29,0,0,0,5.25-1.55c1.69-1.43,2.18-3.67,2.79-5.69a72.59,72.59,0,0,0,1.64-7.33q1.43-7.38,2.41-14.84a239.85,239.85,0,0,0,2.46-30.27c0-2.51,0-5-.12-7.52a.68.68,0,0,0-.5-.65,13.83,13.83,0,0,0-5,0,22.35,22.35,0,0,0-4.81,1.69c-3.34,1.53-6.52,3.55-10.13,4.44-7.92,1.95-15.47-3.26-19.57-9.69a48.34,48.34,0,0,1-5.41-12.95.51.51,0,0,0-.62-.35,14.52,14.52,0,0,0-8.21,6.87c-.28.52.51,1,.8.46Z"/><path d="M474.06,421.45a37.64,37.64,0,0,0-6.37,11.93,48.82,48.82,0,0,0-2,14.42c0,2.56.08,5.13.24,7.69q.09,1.67.21,3.33a7,7,0,0,0,.7,3.33,3.68,3.68,0,0,0,4.24,1.29,6.21,6.21,0,0,0,3.83-3.68,50.2,50.2,0,0,0,1.61-6.53q.87-3.64,2.07-7.2c.76-2.25,1.6-4.47,2.56-6.63a45.54,45.54,0,0,1,2.73-5.62c2-3.21,4.92-5.78,8.87-5.71,3.46.07,6.91,2.22,6.85,6a10.35,10.35,0,0,1-2.57,6.09c-1.55,1.92-3.35,3.65-5.07,5.41-.88.91-1.81,1.77-2.71,2.65s-1.8,1.95-2.68,2.94l-5.21,5.77c-2.38,2.64-7,6.58-4.54,10.55,2.05,3.29,6.41,3.52,9.58,1.9a23.46,23.46,0,0,0,4.88-3.65c1.91-1.74,3.82-3.47,5.69-5.25q5.56-5.31,11.27-10.48c3.37-3.05,6.7-6.4,10.67-8.7a15.51,15.51,0,0,1,6.29-2.12c2.59-.25,5.18.16,7.76-.06,4.89-.4,9.45-2.26,14-4l7.39-2.81a53.09,53.09,0,0,0,6-2.47,10.07,10.07,0,0,0,4.41-4.23,16.07,16.07,0,0,0,1.51-6.09,22.82,22.82,0,0,0-5.85-17,.55.55,0,0,0-.93.39c.49,4.69,1,9.36,1.67,14a29.56,29.56,0,0,0,1.2,6.2,8.81,8.81,0,0,0,2.79,4.28c2.94,2.09,6.68,2.06,10.14,2.07a99.85,99.85,0,0,1,13.71.95,102.75,102.75,0,0,1,15.4,3.4c1.63.5,2.33-2,.7-2.54A103.3,103.3,0,0,0,579,427c-3.63-.13-7.23.1-10.8-.72a7.59,7.59,0,0,1-3.94-2.22c-1.26-1.44-1.41-3.89-1.68-5.7-.79-5.11-1.47-10.25-2-15.4l-.93.39a21.91,21.91,0,0,1,5.22,11.2c.61,3.94.43,9.26-2.56,12.27a14.4,14.4,0,0,1-5.3,3c-2.29.86-4.6,1.68-6.91,2.51-4.48,1.63-9.07,3.53-13.83,4.14s-9.51-.62-14.16.68c-4.13,1.15-7.59,3.87-10.77,6.64-7.38,6.44-14.63,13.11-21.42,20.17-2.42,2.52-5.75,5.8-9.58,4.21a3.34,3.34,0,0,1-2.29-3.78c.49-2.12,2.58-3.82,4-5.34,3.4-3.67,6.95-7.24,10.08-11.14,2.78-3.47,6.35-6.65,8.11-10.82a7.11,7.11,0,0,0-2.35-8.86,10,10,0,0,0-8.67-1.05c-3.58,1.23-6.32,4.26-8.33,7.35a50,50,0,0,0-5.17,12.05c-.73,2.28-1.37,4.59-1.9,6.92-.48,2.08-.71,4.24-1.38,6.27-.47,1.45-2.13,2.9-3.71,1.94-.85-.51-.84-1.68-.91-2.55-.11-1.27-.21-2.55-.3-3.83a78.7,78.7,0,0,1,0-14.48,37.7,37.7,0,0,1,4.07-13.36,37.13,37.13,0,0,1,3.4-5.34c.38-.51-.49-1.19-.89-.69Z"/><path d="M600.4,432.4c10.94,2.66,22,4.75,33,7s22.13,4.43,33.21,6.6,22.26,4.47,33.44,6.34q8.31,1.4,16.63,2.71c5.31.84,10.61,1.79,15.94,2.53a60.64,60.64,0,0,0,14.05.59,21.16,21.16,0,0,0,12.4-5.53c3.68-3.35,6.38-7.8,9.23-11.83l9.9-14c1.64-2.33,3.15-4.75,4.67-7.16s3.08-4.78,4.83-7.07a21.46,21.46,0,0,0,3.72-6.34,10.76,10.76,0,0,0-.09-6.57c-1.44-4.37-5.06-7.77-8.54-10.58a92.78,92.78,0,0,0-12-8.23,98.19,98.19,0,0,0-13.13-6.28,78.3,78.3,0,0,0-14-4c-2.35-.45-4.72-.8-7.1-1.08a71.39,71.39,0,0,0-7.14-.62c-1.46,0-3.45.43-4.29,1.76-.93,1.5.31,3,1.73,3.43a11.4,11.4,0,0,0,7.14-.25l-.65-.85a85,85,0,0,0-6.19,9.94,87,87,0,0,0-4.83,10.42.51.51,0,0,0,.49.64c12.18-1,22.59,7.66,31.12,15.26,2.31,2.07,5.95,5.05,4.72,8.57l.87-.36c-8.88-6.63-17.92-13.27-28-17.95a65.35,65.35,0,0,0-15.07-5,58.75,58.75,0,0,0-17.26-.47c-6.26.65-12.48,1.55-18.76,2q-9.15.71-18.32.76c-11.91.07-23.83-.61-35.7-1.64-13.82-1.2-27.6-2.85-41.38-4.36-1.08-.11-1.07,1.57,0,1.68,24,2.61,47.94,6,72.1,6.13a260.59,260.59,0,0,0,36.71-2.42c6-.82,12-1.59,18-1.05a55.73,55.73,0,0,1,15.7,4c11.45,4.6,21.55,12,31.38,19.33a.59.59,0,0,0,.87-.35c1-2.92-.87-5.64-2.83-7.65a86,86,0,0,0-7.4-6.48c-4.92-4-10.27-7.68-16.35-9.66a28.65,28.65,0,0,0-10.4-1.37l.49.65A82.89,82.89,0,0,1,728.15,383a86.18,86.18,0,0,1,6.22-9.5c.31-.4-.2-1-.65-.85a11.21,11.21,0,0,1-3.9.6c-1,0-2.93-.11-3.54-1.07-1.18-1.85,3.24-2,4.1-1.93a73.74,73.74,0,0,1,13.42,2.47,109.85,109.85,0,0,1,25.4,10.2,95,95,0,0,1,11.5,7.77c3.29,2.6,6.73,5.6,8.23,9.63a9,9,0,0,1,.14,6.32,29.93,29.93,0,0,1-3.67,6.43c-2.91,4.45-6.57,8.39-9.64,12.73l-9.43,13.33c-2.74,3.86-5.33,7.92-8.7,11.28a21.5,21.5,0,0,1-11.51,5.79c-4.43.85-9.08.23-13.49-.45-10.21-1.58-20.35-3.62-30.48-5.63-10.4-2.06-20.84-3.92-31.25-5.95s-20.84-4.11-31.25-6.2-20.68-4.3-31.06-6.16c-2.56-.46-5.12-.85-7.69-1.24-1.17-.18-1.72,1.54-.5,1.83Z"/><path d="M726.16,371.33a588.29,588.29,0,0,1,24.05-56.7c9-18.36,19.22-36.14,30-53.51,8.87-14.35,20.32-30.35,38.79-31.25a28.09,28.09,0,0,1,11.39,1.57,19.93,19.93,0,0,1,9,7.47c4.81,7.12,5.47,16.22,5.55,24.57a229.89,229.89,0,0,1-8.1,62.56q-1,3.69-2.14,7.33a.86.86,0,0,0,1.57.66c8.07-16,15-32.76,18.51-50.38,3.22-16,3.62-32.58-.49-48.43-3.61-13.94-10.49-27.27-20.72-37.5-10.7-10.7-26.88-19.75-42.45-16.16-8,1.83-14.58,7-20.39,12.52a158.76,158.76,0,0,0-17.87,20q-2,2.61-3.82,5.31a.82.82,0,0,0,.7,1.23c7.58-.7,16-1.56,23.1,1.92,5.5,2.71,10.51,8.79,9.43,15.27-1,6.28-7.53,9.58-13.19,10.76-7.92,1.65-16.05-.9-24-.84a50.72,50.72,0,0,0-24.48,6.69l1.25,1.25a69.7,69.7,0,0,1,12.87-17.65c4.91-4.86,10.76-9.05,17.52-10.82a23.25,23.25,0,0,1,17.82,2.25,17.89,17.89,0,0,1,3.57,2.85c1.08,1.12,2.57,2.72,2.6,4.37,0,1.82-2.08,2.85-3.47,3.55a22,22,0,0,1-4.14,1.55c-11.14,3-25-1.14-34.3,7.31a30.39,30.39,0,0,0-5.9,8.05c-1.8,3.27-3.49,6.61-5.12,10-3.3,6.81-6.31,13.75-9.09,20.79A447.34,447.34,0,0,0,700,331.18c-2.07,7.4-4,14.83-5.9,22.27q-1.41,5.54-2.77,11.08c-.91,3.68-1.93,7.36-2.69,11.08-.68,3.37-1.06,7.08.39,10.31a9.21,9.21,0,0,0,5.74,5c7,2,9.15-7,11.25-11.76,6.11-13.74,10.89-28,15.55-42.27s9.3-28.65,14.89-42.63c2.79-7,5.76-13.91,9.13-20.63,2.82-5.63,6.1-12.88,13-14.21a8.13,8.13,0,0,1,7.74,2.26l-.18-.69a30.37,30.37,0,0,1-6.25,10.59l.66-.17a25.8,25.8,0,0,0-10-1.55.68.68,0,0,0-.33,1.25,27.57,27.57,0,0,1,7,6.39l.46-1.11-10.53.31a.64.64,0,0,0-.45,1.08l5.3,4.78-.1-.75c-3.85,7.62-7.61,15.31-10.93,23.18s-6.33,15.74-9.08,23.77a355.92,355.92,0,0,0-13.12,49.53c-.42,2.19-.87,4.38-1.16,6.58a9.12,9.12,0,0,0,.75,5.87c1.2,2,4.66,5,7,3,.6-.5-.26-1.36-.86-.86-1.08.91-2.85-.43-3.66-1.15a5.92,5.92,0,0,1-2.1-4.34,26.13,26.13,0,0,1,.76-5.89q.56-3,1.16-5.91,2.39-11.7,5.52-23.24a363.61,363.61,0,0,1,15.49-45.18c3.5-8.37,7.17-16.66,11.29-24.75a.61.61,0,0,0-.09-.74l-5.27-4.8-.45,1.07,10.53-.27c.44,0,.88-.57.56-1a28.73,28.73,0,0,0-7.37-6.75l-.34,1.24a24.76,24.76,0,0,1,9.61,1.53.67.67,0,0,0,.67-.18,32.08,32.08,0,0,0,6.65-11.18.73.73,0,0,0-.18-.69c-4-4.5-10.94-3.2-15.08.28a28.22,28.22,0,0,0-6.05,8c-1.83,3.26-3.51,6.61-5.14,10-6.61,13.6-11.78,27.87-16.63,42.17S715,350,709.9,364.34c-2.55,7.14-4.8,14.48-8.09,21.33a7.59,7.59,0,0,1-3.16,3.78,5.12,5.12,0,0,1-4.06,0c-3.21-1.22-4.91-4.3-5.16-7.6-.3-3.84.9-7.67,1.81-11.36s1.85-7.51,2.78-11.26c1.88-7.51,3.8-15,5.83-22.49,4-14.85,8.5-29.59,13.92-44q4.11-10.92,9-21.5,2.44-5.23,5.13-10.36a47.57,47.57,0,0,1,5.65-9.15c8.65-10,23.4-5.7,34.82-8.49,2.71-.66,5.88-1.72,7.93-3.69,2.55-2.45.73-5.54-1.18-7.73-3.93-4.49-9.94-6.75-15.81-7-13.94-.54-25.7,10.25-33.4,20.77a70.91,70.91,0,0,0-5.67,9.13.92.92,0,0,0,1.25,1.25,46.69,46.69,0,0,1,23.56-5.79c8.39.17,16.95,2.68,25.29.75,6.13-1.43,12-5.69,13.43-12.11s-2.65-13-8-16.51c-7.6-5-17.47-4.16-26.09-3.36l.71,1.23a159.51,159.51,0,0,1,16.67-20.36c5.62-5.79,11.69-11.69,19.14-15,15-6.74,32.06,1.19,43.42,11.34,10.55,9.42,17.85,22.08,22,35.52,4.59,15,5,30.84,2.5,46.27-2.79,17.2-8.94,33.69-16.47,49.35-.94,2-1.91,3.91-2.89,5.85l1.56.66a232.67,232.67,0,0,0,10.37-63.92c.18-9,.32-18.57-3.14-27a24.64,24.64,0,0,0-7.09-9.91A25.63,25.63,0,0,0,826,228c-8-1.76-16.54.08-23.52,4.22-8,4.78-14.19,12.08-19.42,19.71-5.73,8.37-10.82,17.21-15.76,26.06q-7.68,13.77-14.57,27.93c-9.2,18.88-17.66,38.09-25,57.77q-1.36,3.66-2.68,7.34c-.26.74.9,1.05,1.16.32Z"/><path d="M613.3,265.74c-.45,4.53-.88,9.11-1.72,13.59-.82,4.3-1.69,8.6-2.47,12.91-1.6,8.75-3.61,17.44-5.81,26.05-2.14,8.41-4.66,16.74-5.68,25.39a59,59,0,0,0-.25,12.88c.36,3.4.72,7.53,3.62,9.79a10,10,0,0,0,9.68,1c3.82-1.57,6.54-4.8,8.94-8l-1.19-.15c.81,5.28-4.45,10.57-9.74,9.85-1.32-.18-2.76-.75-3.88.28s-1.33,2.68-1.75,3.94l-3.57,10.58a36.65,36.65,0,0,1-1.91,5.19c-.68,1.3-1.68,2.61-3.28,2.57l.49.37c-1.28-3.67-.13-7.35,1.48-10.72,1.68-3.54,3.82-6.87,5.11-10.59a15.59,15.59,0,0,0,.91-6.2l-1.12.3c1.5,2.08,4.27,1.94,6.44,1.11a20.41,20.41,0,0,0,6.55-4.49c4.19-4,7.12-9.1,9.53-14.3,2.77-6,5.13-12.14,7.56-18.24,2.7-6.75,5.3-13.54,7.71-20.4,2.72-7.75,5.18-15.59,7.21-23.55l-1.23-.16a75.09,75.09,0,0,1-3.81,25.45c-1.19,3.57-2.51,7.35-4.72,10.45-1.84,2.58-5,4.89-8.21,3.21s-4.36-5.7-5.22-8.86l-.9.69a77.58,77.58,0,0,0,10.33,5c3.52,1.38,7.23,2.22,10.74,3.63,3.09,1.24,5.38,3.4,7.93,5.47,2.21,1.78,4.58,3.73,7.43,4.35a8,8,0,0,0,4.14-.18,18.47,18.47,0,0,1,2.36-.85c1-.17,1.58.51,2,1.34a7.91,7.91,0,0,1-1.13,8.83,8.22,8.22,0,0,1-8.5,2.14,15.82,15.82,0,0,1-4.15-2.53,9.51,9.51,0,0,0-4.41-1.95c-2-.27-4,.31-5.91-.7a7.36,7.36,0,0,1-3.29-3.69c-1.56-3.74.34-7.94,2.93-10.69l-1.07-.29c1.27,5.4,6.86,7.91,11.56,9.7.67.26,1.16-.88.49-1.16a37.07,37.07,0,0,0-26.15-1.24.64.64,0,0,0-.15,1.15,37.4,37.4,0,0,0,11.64,4.64c4.3.91,8.89.46,13,2.13,2.05.83,4,2,5.91,3s4,2,6,2.86a94.42,94.42,0,0,0,24.82,6.9c1,.13,2,.25,3,.33.84.08,2.16.44,2.92.05a4.6,4.6,0,0,0,2.1-3.18,7.43,7.43,0,0,0-3.29-7.42c-3.19-2.18-7.4-2.59-11.1-3.29q-7.77-1.47-15.56-2.89c-4.42-.81-9-1.78-12.6-4.57-.62-.47-1.21.57-.61,1a25,25,0,0,0,10.18,4.16c4.16.88,8.37,1.54,12.56,2.25s8.3,1.18,12.33,2.21c3.22.81,6.58,2.62,7.1,6.22a4.68,4.68,0,0,1-1,3.84,1.37,1.37,0,0,1-.85.54,7.69,7.69,0,0,1-1.58-.15l-3.15-.38a93,93,0,0,1-12.27-2.41A95.81,95.81,0,0,1,665.31,346c-3.88-1.6-7.5-3.63-11.25-5.49a19.61,19.61,0,0,0-6.23-2c-2.42-.33-4.87-.36-7.27-.79a36.14,36.14,0,0,1-12.68-4.82l-.15,1.15a36.08,36.08,0,0,1,25.17,1.13l.49-1.17c-4.23-1.6-9.62-3.87-10.67-8.81a.64.64,0,0,0-1.06-.28c-2.56,2.59-4.41,6.19-4,9.91a8.93,8.93,0,0,0,5.31,7.49c1.91.76,3.9.37,5.89.51s3.45,1.34,4.94,2.36c2.87,1.94,6.17,2.73,9.5,1.45a9.28,9.28,0,0,0,5.82-7.2c.48-2.61-.05-7.73-3.48-8.09-1.77-.19-3.34,1-5.12,1A8.27,8.27,0,0,1,656.4,331c-2.88-1.73-5.23-4.22-8-6.11-3.75-2.55-8.15-3.36-12.41-4.66a64.66,64.66,0,0,1-13.3-5.64.62.62,0,0,0-.91.69c.81,3.13,2,6.7,4.58,8.83a6.73,6.73,0,0,0,8.72-.2c3-2.44,4.57-6.28,5.95-9.79a75.21,75.21,0,0,0,3.88-13.58,76.43,76.43,0,0,0,1.27-15.83.63.63,0,0,0-1.23-.17A335.34,335.34,0,0,1,631.84,324c-2.41,6.18-4.86,12.36-7.44,18.47-2.15,5.1-4.54,10.21-8,14.59a28.09,28.09,0,0,1-6.69,6.32c-2.08,1.37-5.7,3.15-7.65.68a.6.6,0,0,0-1,.42c.74,8.1-6.23,14.22-7.65,21.83a11.67,11.67,0,0,0,.37,5.95.55.55,0,0,0,.49.38c2.71.07,4.15-2.66,5-4.86,1.36-3.72,2.61-7.48,3.92-11.21.63-1.83,1.15-3.77,2-5.54.49-1.09,1.32-1.14,2.4-.92a10.38,10.38,0,0,0,2.16.27,10.2,10.2,0,0,0,7.17-3.22,9.85,9.85,0,0,0,2.82-8.3c-.09-.62-.9-.54-1.19-.15-2.14,2.88-4.59,5.8-7.94,7.31a8.83,8.83,0,0,1-8.51-.53,6.92,6.92,0,0,1-2.54-4.29,38.81,38.81,0,0,1-.85-6,55.57,55.57,0,0,1,.58-12.36c1.29-8.24,3.79-16.25,6.19-24.21a228.65,228.65,0,0,0,5.88-24.64A134.43,134.43,0,0,0,613.06,280c.38-4.77.93-9.52,1.26-14.3,0-.66-1-.64-1,0Z"/><path d="M744.15,153a30.44,30.44,0,0,1,18.5-12.82,28.85,28.85,0,0,1,11.52-.42c1.33.23,4.08.92,3.7,2.8-.2,1-1.2,1.74-1.9,2.39a24.6,24.6,0,0,0-2.14,2.31c-2.57,3.14-4.5,7.14-3.78,11.3a9.57,9.57,0,0,0,7.1,7.43,10.92,10.92,0,0,0,10.38-2.79,13,13,0,0,0,4.13-9.92c-.08-3.65-2.19-7.58-6.07-8.21-3.08-.51-6.75,1-7.41,4.33l1,.13c-.13-3.54,3.49-6.75,7-5.73a5.87,5.87,0,0,1,3.67,7.56.56.56,0,0,0,.93.54c2.37-2.87,4.75-5.73,7.09-8.61l-.6.16c4.87.69,10.6.45,13.66-4a7.21,7.21,0,0,0,1.14-6.06c-.75-2.43-2.9-4.19-4.84-5.69-7.73-6-19.12-8.73-27.19-1.84-3.83,3.28-6.17,8.27-5.27,13.33a.66.66,0,0,0,1,.39,17.31,17.31,0,0,1,10.83-3.38,16.77,16.77,0,0,1,5.63,1.14c1.94.77,3.75,1.91,5.8,2.4a5.8,5.8,0,0,0,5-.84,22.29,22.29,0,0,0,3.11-3.47,4.86,4.86,0,0,1,1.71-1.34c1-.42,2.23-.23,3.31-.48a4.61,4.61,0,0,0,3.13-2.59,6.1,6.1,0,0,0-2.51-7.83,8.23,8.23,0,0,0-5-.9,10,10,0,0,0-2.4.59c-.93.37-1.39.69-1.32,1.76a4,4,0,0,0,2.88,3.26c1.77.59,3.59-.1,5.14-1s3.26-2,5-2.75a29.06,29.06,0,0,1,5.28-1.79A32.74,32.74,0,0,1,843,124.61a27.78,27.78,0,0,1,9.09,6.88,15.59,15.59,0,0,1,3.8,11.38c-.31,4.26-2.11,8.31-4.25,11.95A80.2,80.2,0,0,1,844.32,165,203.68,203.68,0,0,1,827,183c-6.07,5.72-12.22,11.39-17.91,17.51a239.17,239.17,0,0,0-17.18,21.28q-2,2.77-4.08,5.58h1.24a29.09,29.09,0,0,0-11.13-9.15l.14,1.09c2.78-3.34,8.75-2.81,10.84,1a.67.67,0,0,0,1.15,0c.75-1.7,1.48-3.41,2.22-5.12a.67.67,0,0,0-.1-.76,5.76,5.76,0,0,0-3.34-1.59c-1.3-.27-2.77-.51-3.49-1.78-.46-.81-.06-1.9.95-1.74a6.09,6.09,0,0,1,2.18,1.11c1.33.85,3,2.05,4.64,1.7a1.26,1.26,0,0,0,1-.59,6.52,6.52,0,0,0,.5-2.09,12.44,12.44,0,0,0-.21-4.59l-.16.59Q806.65,194.1,818.36,182c7.8-8.06,15.58-16.13,22.84-24.69,3.25-3.82,7.14-8.07,7.94-13.22a10.45,10.45,0,0,0-4.79-10.6c-3.29-2-7.34-2.74-11.12-3.2-4.34-.53-9.1-.9-13.37.26a12.44,12.44,0,0,0-5.7,3.27,19.22,19.22,0,0,0-3.55,5.74c-1.76,4-3.24,8.86-7.41,11a6.4,6.4,0,0,1-3.18.72.7.7,0,0,0-.19,1.37c7.52,1.83,12.91,9.84,11.62,17.51l.69-.52c-7.71-1-14.53,3.52-21.35,6.35a25.72,25.72,0,0,1-10.56,2.31,22.58,22.58,0,0,1-9.42-2.43,23.65,23.65,0,0,1-12.46-14.85,11.16,11.16,0,0,1-.42-5.22c.46-1.84,2.26-2.39,3.79-3.13a5.21,5.21,0,0,0,3.12-3.31,5.61,5.61,0,0,0-1.1-4.39c-2.5-3.61-6.43-5.48-9.66-8.3-2.88-2.52-6.21-7.22-4.15-11.15l-.43.25a53.35,53.35,0,0,1,28.57,11.92c.58.48,1.43-.35.84-.85a52.15,52.15,0,0,0-13.71-8.3,53.37,53.37,0,0,0-15.7-3.76.49.49,0,0,0-.42.25,10.31,10.31,0,0,0,.75,10.62,20.69,20.69,0,0,0,4.54,4.42c1.61,1.2,3.41,2,5.1,3.1a8.35,8.35,0,0,1,3.77,4.23c.55,1.81-.55,3.05-2.09,3.83s-3.18,1.29-4.12,2.78-.85,3.48-.6,5.2c1,6.77,5.3,12.69,10.94,16.41A23.86,23.86,0,0,0,787,178.93c8.35-2.38,16-9,25.13-7.82a.72.72,0,0,0,.69-.53,17.35,17.35,0,0,0-12.63-19.24l-.18,1.37c4.33.12,7.55-3.44,9.44-7,2-3.84,3-8.53,6.49-11.46s8.72-2.91,13.13-2.62c3.79.24,7.65.65,11.14,2.24,3.16,1.44,6.17,3.89,6.51,7.58.44,4.91-3.4,9.23-6.33,12.71-7,8.3-13.87,16.7-21.27,24.63q-12.45,13.32-25.78,25.77a.61.61,0,0,0-.16.59,11,11,0,0,1,.24,4c0,.36-.1,1.49-.35,1.73s-.64.12-.87.09c-1.41-.17-2.67-1.26-3.86-2-1-.56-2.2-1.2-3.27-.57-1.52.89-1.16,2.79-.1,3.88a5.6,5.6,0,0,0,2.9,1.45c1.23.28,2.55.47,3.41,1.47l-.09-.75c-.77,1.69-1.55,3.38-2.3,5.08h1.15c-2.48-4.56-9.62-5.33-13-1.34a.7.7,0,0,0,.14,1.09,27.72,27.72,0,0,1,10.59,8.67.73.73,0,0,0,1.24,0c7.7-10.47,15.48-20.86,24.64-30.12,8.39-8.47,17.46-16.24,25.65-24.91a117.18,117.18,0,0,0,11.22-13.64c3.35-4.82,6.33-10.27,6.85-16.22,1-11.6-10.06-19.68-20.22-22.15a34.72,34.72,0,0,0-15.48-.21,31.89,31.89,0,0,0-7.33,2.56c-1.23.61-2.37,1.34-3.56,2s-2.67,1.43-4.07,1.11c-1-.23-2.31-1.14-2.08-2.35l-.38.5c2.86-1.29,7.7-1,8.43,2.78a4.34,4.34,0,0,1-.93,3.7c-1.29,1.36-3.55.75-5.1,1.71-2.87,1.78-3.85,6.28-8,5.56-2.07-.37-3.92-1.51-5.84-2.3a17.79,17.79,0,0,0-5.57-1.28A18.55,18.55,0,0,0,775,138.4l1,.39c-.85-4.62,1.44-9.13,4.91-12.1a16.62,16.62,0,0,1,13.86-3.45,27.47,27.47,0,0,1,13.8,7.2c1.93,1.82,3.07,4.07,2.1,6.7a8,8,0,0,1-5.37,4.79,14.45,14.45,0,0,1-4.58.54,21.46,21.46,0,0,1-2.27-.16c-.78-.09-1.18-.3-1.71.32-2.34,2.73-4.52,5.62-6.77,8.44l.92.53a6.9,6.9,0,0,0-4.7-8.82c-4-.91-8.1,2.68-8,6.7,0,.53.83.68,1,.13.67-3,4.27-4.17,7-3.32,3.44,1.07,4.67,5.26,4.15,8.48a11.3,11.3,0,0,1-6.17,8.21,8.84,8.84,0,0,1-9.31-.93,7.56,7.56,0,0,1-2.83-4.05,8.7,8.7,0,0,1,.64-5.66,18.71,18.71,0,0,1,3.37-5.06c1.19-1.31,3.06-2.52,3.48-4.35.87-3.79-4.18-4.7-6.81-5a30.63,30.63,0,0,0-10.57.9,31.65,31.65,0,0,0-18.76,13.57c-.35.56.53,1.06.88.51Z"/><path d="M749.66,128.18c1.76,7.42,9.15,10.87,13.39,16.61,2,2.64,3.19,5.93,2.48,9.23a6.87,6.87,0,0,1-2.23,3.87c-1.19,1-2.6,1.87-3,3.53a6.87,6.87,0,0,0,1.21,4.75,46.51,46.51,0,0,0,3,4.58,21.85,21.85,0,0,0,3.6,3.9,19.46,19.46,0,0,0,4,2.41c2.77,1.31,6,2.35,8.05,4.73.58.67,1.24,1.68.88,2.6a1.91,1.91,0,0,1-1.48,1,8.58,8.58,0,0,1-4.35-.68c-4.53-1.53-9.1-3-13.59-4.61-3-1.12-6.67-2.64-7.53-6.09-.31-1.24-2.1-.7-1.89.52.57,3.27,3.49,5.36,6.31,6.66a84.25,84.25,0,0,0,12.09,4.18,48.55,48.55,0,0,0,6.06,1.45,7.27,7.27,0,0,0,4-.43,2.84,2.84,0,0,0,1.66-3.12,7.4,7.4,0,0,0-2.94-4c-2.64-2.08-5.94-3-8.83-4.62-3.46-2-5.68-5.27-7.74-8.58-1-1.65-2.23-3.91-.68-5.62,1.13-1.23,2.58-1.93,3.49-3.39a10.67,10.67,0,0,0,.53-9.18c-3-8.17-13-11.5-15.46-20a.58.58,0,0,0-1.12.31Z"/><path d="M525,439.28c6.59,1.27,12.58,4.41,18.74,7q5,2.07,10,4.07,16.37,6.53,32.79,12.92,23,9,46,18l55.21,21.46,60.44,23.43Q778.86,538,809.5,549.78q28.88,11.07,57.7,22.31l50.32,19.51q19.26,7.5,38.51,15c7.49,2.94,15,5.82,22.45,8.86.94.39,1.91.78,2.44,1,1,.45,1.94-1.08.89-1.53-5.92-2.6-11.93-5-17.93-7.42-11.53-4.65-23.12-9.18-34.69-13.73q-23.93-9.41-47.88-18.74-28.17-11-56.37-22-30.41-11.83-60.79-23.68t-61-23.67q-28.53-11.06-57-22.14-24.51-9.51-49-19.07-18.18-7.11-36.34-14.28l-12.15-4.83q-2.21-.87-4.39-1.77l-1.74-.71-.7-.29-.48-.2c-5.2-2.21-10.36-4.4-16-5.08-1.06-.13-1.3,1.66-.25,1.86Z"/><path d="M477.36,410c-4.38-2.06-8.87-3.91-13.38-5.67l-6.65-2.61-3.41-1.34a23.36,23.36,0,0,0-3.61-1.25,1.11,1.11,0,0,0-.85,2,41.71,41.71,0,0,0,6.73,2.76l6.83,2.61c4.54,1.74,9.12,3.41,13.76,4.85.8.25,1.36-1,.58-1.37Z"/><path d="M835.13,334.09a308.55,308.55,0,0,1-24.52,53.22c-2.81,4.76-5.76,9.41-8.92,13.94-.52.74.6,1.54,1.22.94,8.56-8.4,17.14-16.88,24.16-26.66A80.46,80.46,0,0,0,835.93,360a177.56,177.56,0,0,0,6-17.55,93.14,93.14,0,0,1,8-19.8l-1.51-.41c1.32,18.68,2.48,38.08-3.13,56.22a62.75,62.75,0,0,1-13.62,24c-6.08,6.64-13.37,12-20.77,17.08s-14.87,9.82-21.84,15.37A102.44,102.44,0,0,0,770,454.87a100.41,100.41,0,0,0-13.07,24.53c-1.72,4.69-2.95,9.54-4.51,14.29a55.84,55.84,0,0,1-3,7.59c-1.05,2.11-2.51,5.14-5.4,4.31-5.86-1.68-3.18-11-2.62-15.15.66-4.84,1.08-9.81,2.35-14.55s3.8-8.81,8.23-11.4c4.24-2.48,8.75-4.46,13-6.95,17-10,31.9-23.06,47.61-34.89,3.93-3,7.93-5.86,12-8.61a46.26,46.26,0,0,1,6.15-3.86,4.43,4.43,0,0,1,3.56-.44c1.38.59,1.61,2.21,1.61,3.54,0,5.23-1.75,10.56-3.61,15.39-2,5.21-4.44,10.28-6.74,15.38l-14.07,31.2q-3.52,7.81-7,15.61c-2,4.45-4.06,9.05-7.74,12.39-6.67,6.06-16.48,6.65-25,6.66-4,0-8.3.11-12.12-1.32a8.57,8.57,0,0,1-4.71-3.88c-1.28-2.43-.93-5.27-.12-7.79,1.48-4.59,4.29-8.91,6.83-13a130.81,130.81,0,0,1,8.34-11.76,128.23,128.23,0,0,1,31.37-28.11l-.9-.51c-.45,13.22-7.62,24.84-12,37-2.11,5.84-3.77,11.89-3.67,18.15.12,7.32,3.59,14.35,2.91,21.68-.56,6.17-4.46,12.14-11.31,11.45-3.92-.4-7.67-2.35-11.22-4l-11.46-5.16q-11.44-5.18-22.88-10.39c-3.56-1.62-7.14-3.2-10.67-4.88a33,33,0,0,1-8.87-5.61c-6-5.76-7.24-15-7.65-22.87a77.74,77.74,0,0,1,3.34-26.77.68.68,0,0,0-.83-.82,98.56,98.56,0,0,1-16.38,3.44,51.57,51.57,0,0,1-16.33-1.15c-5.37-1.18-10.62-2.9-15.9-4.44s-10.53-3-15.82-4.43c-10.65-2.91-21.52-5.09-32.39-7-10.63-1.86-21.71-3.93-32.54-3.21a58.63,58.63,0,0,0-30.36,11.07c-1,.75,0,2.49,1,1.73A56.08,56.08,0,0,1,574.55,437c10.93-1.06,22,1.23,32.78,3s21.52,4.12,32.23,6.47q8,1.75,16,4c5.22,1.44,10.39,3.07,15.67,4.29a55.33,55.33,0,0,0,17.57,1.57c6-.54,11.78-2.17,17.59-3.67l-.83-.82a78.05,78.05,0,0,0-3.62,24.56c.12,7.26.85,15.3,4.47,21.75s10.43,9.56,17,12.55c8,3.65,16,7.28,23.93,10.95l12,5.52c3.77,1.73,7.49,3.63,11.32,5.22,3.39,1.41,7.18,2.4,10.79,1.22a11.87,11.87,0,0,0,6.32-5.2c3.71-6.06,2.56-13.23,1.08-19.77a63.82,63.82,0,0,1-2-11.54,38.29,38.29,0,0,1,1.13-10.28C791.32,472,801,459.12,801.5,443.57a.6.6,0,0,0-.89-.51,131,131,0,0,0-41.25,42.21c-3.91,6.44-11.48,18.42-1.91,23.69,3.44,1.89,7.6,2.09,11.43,2.15a84.35,84.35,0,0,0,13.94-.67A29.82,29.82,0,0,0,795,506.13c4-2.67,6.67-6.59,8.77-10.87,5.25-10.76,9.91-21.85,14.84-32.76s10.11-21.47,14.51-32.44a51.6,51.6,0,0,0,4-15.95c.1-1.76,0-3.81-1.46-5.05s-3.52-1-5.2-.27a37.75,37.75,0,0,0-6.21,3.81q-3.33,2.25-6.58,4.61c-4.11,3-8.14,6.07-12.13,9.2C797.17,433,788.9,439.75,780.27,446a202.9,202.9,0,0,1-26.82,16.46c-4.29,2.21-7.6,5.06-9.47,9.59s-2.28,9.19-2.89,13.86L740,494.72c-.32,2.52-.86,5.16-.14,7.66,1,3.45,5.18,5.95,8.11,3,1.59-1.61,2.51-4,3.38-6.06a77.2,77.2,0,0,0,2.63-7.44c1.55-5.05,3-10.1,5-15a101.34,101.34,0,0,1,15.93-26.37,114.23,114.23,0,0,1,22-19.79c15.3-10.85,32.69-20.23,42.85-36.64,10.46-16.91,11.6-37.59,11-57-.14-5-.41-9.93-.71-14.89a.82.82,0,0,0-1.51-.41c-6.18,10.5-9.09,22.55-13.4,33.86-4.38,11.52-11.16,21.54-19.31,30.73-4.48,5.06-9.24,9.86-14,14.65L803,402a266.59,266.59,0,0,0,27.71-51.75c2.07-5.22,3.8-10.53,5.38-15.92.19-.64-.77-.89-1-.27Z"/><path d="M652.11,729.64c7.41-26.83,13.58-54,20.17-81.07,1.87-7.65,3.63-15.32,5.38-23a1.11,1.11,0,0,0-.5-1.22c-3.78-2.12-7.68-4.05-11.56-6s-7.82-4.08-11.69-6.24c-7.63-4.26-15.48-8.17-23.29-12.09-15.66-7.85-31.53-15.28-47.43-22.63s-31.72-14.53-47.54-21.89-31.65-14.95-47.2-23-30.83-16.49-45.72-25.66q-2.76-1.69-5.51-3.44A.88.88,0,0,0,436,504c-6.13,21.94-12.85,43.68-20.41,65.17-2.14,6.07-4.38,12.1-6.54,18.16a1.3,1.3,0,0,0,.6,1.47q23.28,13.37,46.64,26.61t46.6,26.68l46.33,26.62,46.31,26.62q23.12,13.29,46.27,26.53l5.72,3.28A1.3,1.3,0,0,0,649.4,724a89.18,89.18,0,0,1,1.41-13.13c1.08-7.49,2.3-15,3.54-22.43,2.73-16.36,5.52-32.71,8.61-49,1-5.09,1.77-10.31,3.09-15.32a.66.66,0,0,0-1.27-.35c-3.09,11.68-5.19,23.67-7.5,35.53-3.15,16.25-6.2,32.53-8.63,48.91-.77,5.18-1.84,10.55-1.81,15.8l1.92-1.1q-23.13-13.26-46.26-26.53l-46.33-26.49-46.39-26.52c-15.54-8.89-31.1-17.74-46.59-26.71s-31-17.92-46.51-26.82l-5.77-3.31.6,1.47c3.82-10.7,7.28-21.56,10.66-32.41S429,533.86,432.26,523q2.75-9.24,5.36-18.53l-1.27.51c14.76,9.37,30,18,45.46,26.12s31.24,15.77,47.08,23.19,31.71,14.58,47.6,21.79,31.88,14.58,47.66,22.21Q636,604,647.66,610c3.85,2,7.71,4,11.56,6s7.6,4.53,11.33,6.86c1.83,1.15,3.66,2.31,5.52,3.43l-.49-1.22c-7,27-13.5,54-20,81.12q-2.76,11.49-5.24,23a.92.92,0,0,0,1.78.49Z"/><path d="M666.15,623.12c-5.81-5.45-12-10.47-18-15.7l.11.88c1.68-2.62,3.51-5.14,5.2-7.76s3.25-5.16,4.86-7.76q4.84-7.86,9.76-15.68Q678,561.4,688.29,546q2.88-4.31,5.78-8.58l2.86-4.2a51.88,51.88,0,0,0,3-4.53,1.21,1.21,0,0,0-.72-1.76A74.92,74.92,0,0,1,688.91,522c-3.38-1.79-6.64-3.81-10.07-5.5-3.27-1.62-6.66-3-10-4.49s-6.77-3.24-10.25-4.68c-7.11-2.93-14.36-5.5-21.49-8.41s-14.17-6-21.25-9c-8-3.37-15.9-6.82-24-9.67-1-.35-1.37,1.17-.43,1.55,7.14,2.9,14.3,5.75,21.4,8.75s14,6,21,8.92,14.23,5.59,21.35,8.39c3.56,1.41,7.06,2.93,10.5,4.62,3.29,1.62,6.7,3,10,4.52,3.86,1.78,7.48,4,11.21,6s7.7,3.79,11.32,6l-.24-1.89a78.8,78.8,0,0,0-5.36,7.6q-2.62,3.86-5.22,7.73-5.15,7.66-10.19,15.41-10.14,15.55-19.87,31.36-2.75,4.49-5.39,9c-1.75,3-3.3,6.18-5,9.26a.74.74,0,0,0,.26,1c6.3,4.77,12.17,10.14,18.06,15.39.56.5,1.39-.31.83-.83Z"/><path d="M590.82,480.21c-4,3.22-8,6.32-12,9.42q-8.79,6.75-17.53,13.57-9.78,7.57-19.5,15.23c-5.92,4.69-11.83,9.4-17.63,14.25a142.47,142.47,0,0,0-12.2,10.84c-.31.33-.61.67-.93,1-.62.65.36,1.63,1,1,1.5-1.56,3.18-3,4.79-4.42,2.17-1.94,4.38-3.83,6.6-5.69,5.65-4.74,11.4-9.37,17.17-13.95q9.68-7.69,19.44-15.29,8.94-7,17.89-14c4.28-3.37,8.56-6.75,12.74-10.25l1-.89c.58-.5-.26-1.31-.84-.84Z"/><path d="M414.38,413.81c3.67,4.57,8.28,8.18,12.91,11.72,2.3,1.75,4.63,3.46,7,5.17s4.66,3.67,7.16,5.19a68.75,68.75,0,0,1,7.77,5.47q1.83,1.49,3.65,3c.56.47,1.13.93,1.67,1.42a18.78,18.78,0,0,1,1.57,1.76c2,2.26,4.4,4.24,6.58,6.35a9,9,0,0,1,2.21,3.15c.48,1.3.51,2.71.91,4,.63,2.11,2.49,4.07,4.85,3.21,1.15-.41,2.13-1.42,3.34-1.67.43-.08,1.92.09,1.73.72l.51-.65A3.53,3.53,0,0,0,475,467a4.93,4.93,0,0,0,4.17,3.18c2.62.4,5.25-.23,7.82.64s4.77,2.59,7,4.14c9.68,6.73,19.19,13.79,28.46,21.09q7.92,6.26,15.62,12.8l.26-2L497,525.57l-11.75,5.33a1.3,1.3,0,1,0,1.32,2.24l41.28-18.73,11.75-5.33a1.3,1.3,0,0,0,.26-2q-13.79-11.73-28.35-22.54c-4.82-3.58-9.71-7.07-14.7-10.4a33.06,33.06,0,0,0-7.11-3.85A19.78,19.78,0,0,0,482,469.2c-2.28.09-5.17.09-5.81-2.6-.16-.65-.19-1.52.53-1.83s1-.32,1.19-1a2.14,2.14,0,0,0-.13-1.47c-.84-1.76-3.32-1.91-4.76-.85-1,.7-1.66,1.73-2.82,2.13-1.32.45-2.41-.52-3-1.63-1.22-2.43,0-5.35-1.29-7.73a11.51,11.51,0,0,0-2.53-2.82c-1.11-1-2.31-1.95-3.48-2.9a41.31,41.31,0,0,0-3.51-2.69,33.61,33.61,0,0,1-3.64-3c-2.3-2-4.68-3.92-7-6-1.16-1.05-2.25-2.19-3.41-3.25s-2.26-1.74-3.39-2.58c-2.28-1.7-4.58-3.37-6.86-5.06-4.55-3.38-8.93-6.95-13.24-10.63l-3.24-2.77a.9.9,0,0,0-1.27,1.27Z"/><path d="M420.91,550.64c-3.67,1.35-7.39,2.57-11.08,3.85-7.61,2.64-15.23,5.24-22.84,7.87l-31.7,11-37.73,13q-20.37,7.05-40.76,14.07-20.62,7.09-41.24,14.2-19.29,6.63-38.59,13.23-16.69,5.7-33.39,11.35-12.59,4.26-25.19,8.43c-4.69,1.55-9.47,3-14.06,4.78l-.81.31a6.59,6.59,0,0,0-.65.33c-.63.35.8-.3.11-.13-1.15.28-.66,2.06.49,1.77.64-.16-.69-.13-.3-.1a4,4,0,0,0,.91,0c.29,0,.58-.1.86-.16a24.1,24.1,0,0,0,2.41-.56c2.4-.72,4.78-1.48,7.18-2.21,7.64-2.33,15.19-5,22.77-7.56q15.84-5.34,31.66-10.74,18.85-6.43,37.7-12.91,20.37-7,40.74-14,20.63-7.12,41.24-14.28,19.31-6.7,38.59-13.43,16.71-5.84,33.39-11.71c8.4-3,16.81-5.91,25.19-8.95,4.71-1.71,9.44-3.38,14.14-5.14l1.45-.55c1.07-.42.62-2.16-.49-1.75Z"/><path d="M49.55,455.56c.84,2.41,1.69,4.83,2.54,7.24q2.63,7.53,5.23,15.06c2.42,7,4.89,13.95,7.34,20.92q4.36,12.38,8.68,24.77c3.11,8.92,6.14,17.87,9.28,26.78s6.34,17.94,9.52,26.9q4.44,12.53,8.89,25l7.56,21.24q2.75,7.74,5.51,15.48,1.4,3.94,2.81,7.89a44.65,44.65,0,0,0,3.38,7.88,1.28,1.28,0,0,0,2.22-1.29c-2.21-3.88-3.5-8.41-5-12.63q-2.49-6.95-5-13.9l-7.14-20q-4.34-12.17-8.69-24.32Q92,569.39,87.25,556.18q-4.86-13.48-9.83-26.95-4.65-12.63-9.2-25.32Q64.28,493,60.32,482c-2-5.53-4-11-6-16.57l-3.35-9.24c-.11-.31-.22-.63-.34-.94-.23-.64-1.26-.37-1,.29Z"/><path d="M50.07,456.05c3.93-.45,7.79-1,11.78-1.49,8.63-1.14,17.26-2.32,25.88-3.48l36.37-4.94,43.6-5.93,47.61-6.45,48-6.47q22.53-3,45-6,19.23-2.56,38.48-5.09l28.71-3.76c5.18-.68,10.36-1.4,15.56-1.88.47,0,.93-.1,1.4-.11.9,0,.91-1.44,0-1.41-3.94.13-7.91.75-11.81,1.21q-13,1.5-25.92,3.15-18.22,2.36-36.44,4.76Q296.4,421,274.51,424L227,430.37l-47.87,6.49L134.06,443q-19.31,2.64-38.62,5.3-14.32,2-28.67,4c-5.16.74-10.35,1.42-15.5,2.27l-1.37.23c-.71.12-.55,1.34.17,1.25Z"/><path d="M384.77,381.93c-2.13-.83-3.74-1.51-5.87-2.37-4-1.61-7.88-3.18-12-4.79q-8.3-3.27-16.61-6.52l-19.78-7.66-21.45-8.28-21.73-8.37c-6.77-2.6-13.56-5.17-20.35-7.76q-8.76-3.36-17.56-6.66c-4.44-1.65-8.86-3.33-13.3-5q-3.77-1.41-7.54-2.75l-.8-.28c-.95-.34-1.36,1.17-.42,1.5l.17.06.19.08.47.18,1.26.49,3.81,1.5c4,1.58,8,3.14,12,4.71,5.54,2.17,11.06,4.37,16.61,6.53,6.59,2.56,13.19,5.1,19.77,7.69,7.13,2.81,14.29,5.56,21.44,8.32s14.47,5.61,21.72,8.4l20.33,7.82q8.78,3.34,17.56,6.66,6.66,2.49,13.32,4.91c2.51.92,5,1.84,7.56,2.69l.8.27c.9.29,1.23-1.06.38-1.39Z"/><path d="M342.28,580.64c4.82,3,9.82,6,14.8,9q11.64,6.92,23.26,13.89,14.71,8.82,29.39,17.75,16.81,10.2,33.57,20.49,18,11,35.88,22.08t36,22.38q17,10.63,34,21.37,15.16,9.58,30.3,19.22c8.15,5.22,16.28,10.47,24.35,15.82,5.5,3.64,11,7.3,16.36,11.12.86.62,1.73,1.23,2.57,1.88s1.87-.89.94-1.61c-4.38-3.38-9.3-6.9-14-10.13-7.45-5.08-15-10-22.53-15q-14.37-9.39-28.84-18.61c-11-7.06-22.16-14-33.26-21q-17.87-11.19-35.77-22.27t-36.1-22.27q-17.13-10.5-34.3-20.95-15.35-9.32-30.72-18.57c-8.31-5-16.62-10-25-14.87-5.69-3.32-11.36-6.79-17.27-9.73-.85-.42-1.92-.92-2.88-1.37a.78.78,0,0,0-.78,1.34Z"/><path d="M113.72,445.7c-.55-.36-1.09-.7-1.65-1a9.18,9.18,0,0,1-1.72-1.51,18.52,18.52,0,0,0-3.55-2.24q-3.76-2.26-7.48-4.63c-5.31-3.38-10.55-6.87-15.77-10.39-10.64-7.17-21.19-14.5-32.09-21.28a170.77,170.77,0,0,0-17-9.61c-.92-.43-1.73.87-.81,1.39,10.45,6,20.58,12.37,30.57,19.06,10.67,7.15,21.2,14.5,32,21.4q4.22,2.68,8.48,5.26a44.24,44.24,0,0,0,4.21,2.44c.71.33,1.55.28,2.24.62s1.44.74,2.19,1.07a.32.32,0,0,0,.33-.55Z"/><path class="cls-3" d="M94,445.52a922.35,922.35,0,0,0-92.12-63C7.43,483.9,13,585.64,4.7,686.81c-2.59,31.48-6.5,63.35-1.15,94.48.77,4.45,1.8,9.05,4.59,12.61,6,7.72,17.5,7.73,27.29,7.09q73.23-4.82,146.66-5.67c15.48-.18,31-.22,46.31,2.38,14.1,2.41,27.78,7,42,8.67,25.91,3,51.75-4.25,77.62-7.47,27-3.36,54.32-2.39,81.51-1.41l54.54,2c39.94,1.44,80,2.9,119.36,10.07,8.55,1.56,18,3.26,25.44-1.15,10.29-6,11.59-21.32,5.92-31.83s-16.18-17.34-26.27-23.7q-127.15-80.1-257.15-155.57c-5.79-3.37-11.83-6.8-18.51-7.34s-13.36,1.94-19.68,4.38L105.75,674.49Q69,562.5,35,449.64a301.16,301.16,0,0,1,56.85-6.49"/><path class="cls-3" d="M379.11,372l-168.7-73.32c-5.36-2.33-10.88-4.77-14.86-9-6.25-6.7-7.54-16.61-7.41-25.77.28-20.08,7.16-41.68,24-52.58,10.56-6.82,23.84-8.7,34-16.11,17.53-12.77,20.5-37.15,29.21-57,15.71-35.81,51.3-58,84.89-78,33.07-19.69,66.63-39.6,103.68-50C510-2.89,558.81-.53,606.6,1.93l135.78,7c103.16,5.31,206.69,10.63,309.62,2,6.16-.52,12.58-1.05,18.32,1.24,17.44,7,16,31.76,11.84,50.06a1714.23,1714.23,0,0,0-32.39,188.43c-2.12,18.45-3.94,37.07-2.22,55.56,2.56,27.43,12.87,53.9,13.34,81.44.33,20-4.56,39.73-8.14,59.45-10.39,57.17-9.88,115.69-9.33,173.79a659.62,659.62,0,0,0-108.58-48.09c-45.23-15.33-92.25-25.79-135.78-45.44,54.77-78.57,67.19-178.79,68.49-274.56.31-23.41-4.87-53.36-27.76-58.31,9.51-12,19.31-24.48,22.62-39.41s-2-32.93-15.85-39.3c-7.12-3.26-15.28-3-23.11-2.77l-66.3,2.34C749.58,89.79,728.08,68.87,702.36,62s-54.79.53-74.09,18.88c-13.12,12.47-21.54,29.11-33.94,42.29-12.91,13.73-30,23.63-40.23,39.49-13.81,21.49-11.08,52.21,6.31,70.93,3.69,4,8.11,7.7,9.65,12.9,2.36,7.93-2.75,16-7.82,22.52a371.81,371.81,0,0,1-112.55,96.78,31.28,31.28,0,0,1-1.9-24.26,104.2,104.2,0,0,0-64.87,32.33"/><path d="M448.28,728.83C438,712.09,416.6,703.51,397.53,708c-11.23,2.63-21.2,8.82-32.23,12a47.6,47.6,0,0,1-17.6,1.76,125.87,125.87,0,0,1-18.26-3.46c-11.06-2.63-22.41-5.06-33.62-1.79-10.58,3.08-19.61,9.72-29.66,14a51.46,51.46,0,0,1-17.65,4.2,79.22,79.22,0,0,1-18.31-1.44c-12-2.15-23.6-5.84-35.67-7.41s-24-.13-35.91,1.07c-11.63,1.16-23.84,2.27-35.27-.88a49.12,49.12,0,0,1-8.54-3.22c-.26-.13-.48.25-.23.38C135.83,734.2,160.42,726,183,726c12.39,0,24.32,3.07,36.31,5.85,11.34,2.64,23.12,5,34.78,3.17,11.08-1.74,20.47-7.85,30.29-12.84a59.2,59.2,0,0,1,15.58-5.78,50.83,50.83,0,0,1,18.32.35c11.51,2,22.77,6.21,34.57,6.08,11.48-.13,21.73-5.35,32.09-9.68a72.35,72.35,0,0,1,16-5,45,45,0,0,1,15.7.25A48.55,48.55,0,0,1,443.12,723a46.82,46.82,0,0,1,4.71,6.06c.18.28.63,0,.45-.27Z"/><path d="M593,783.61c-9.32-9.4-24.16-7.14-35.7-4.15-7.78,2-15.74,4.44-23.88,4.08a28.67,28.67,0,0,1-11.52-3c-3.27-1.63-6.28-3.71-9.42-5.57a36,36,0,0,0-9.66-4.17,35.18,35.18,0,0,0-10.07-.89c-7.15.35-14.1,2.37-20.92,4.38-7.15,2.1-14.35,4.35-21.8,5-6.81.62-13.66-.12-20.42-.94-12.33-1.49-26.58-4.17-37.91,2.5a26,26,0,0,0-3.74,2.68c-.33.28.14.73.46.47,10.63-8.52,24.69-6.93,37.32-5.39,6.65.81,13.32,1.72,20,1.62,7.07-.11,13.94-1.73,20.71-3.67,13.35-3.81,28.24-9.5,41.74-3.1,6.45,3.06,11.94,8,19,9.83,7.44,1.93,15.24.58,22.57-1.2,6.89-1.67,13.67-3.83,20.77-4.39,6.23-.49,12.88.08,18.3,3.44a19.8,19.8,0,0,1,3.65,2.93.36.36,0,0,0,.51-.51Z"/><path d="M186.26,696c-4.55-7.85-15.18-8.71-23.2-7.09-5.88,1.18-11.48,3.42-17.35,4.6a32.3,32.3,0,0,1-9,.66,35.19,35.19,0,0,1-8.17-1.79c-5.36-1.77-10.42-4.33-15.79-6a43.21,43.21,0,0,0-14.64-1.92c-9.84.33-19.39,3-29,4.64-8.95,1.5-18.76,2.21-26.91-2.55-1-.57-1.93-1.2-2.86-1.86-.29-.21-.66.27-.38.5,7,5.76,16.46,6.35,25.11,5.35,9.74-1.11,19.21-3.92,29-5a50.26,50.26,0,0,1,14.44.21c5.47,1,10.56,3.3,15.68,5.37S133.42,695,139,694.94c5.9,0,11.57-1.9,17.17-3.54,5-1.47,10-2.74,15.18-2.46,4.45.23,9.12,1.52,12.38,4.71a13.57,13.57,0,0,1,2.1,2.62.27.27,0,0,0,.46-.27Z"/><path d="M161.11,771.22c-6-4.49-13.53-5.94-20.9-6.27-7.91-.36-15.82.38-23.73,0a51.29,51.29,0,0,1-11.81-1.8c-4.09-1.19-7.86-3.2-11.8-4.8a25.56,25.56,0,0,0-13.11-2c-4.76.61-9.37,2.23-14,3.56-10.92,3.19-21.89,6.25-32.74,9.65a.29.29,0,0,0,.15.56c9.64-2.61,19.19-5.53,28.78-8.33,4.72-1.38,9.44-2.94,14.23-4a28.65,28.65,0,0,1,7.37-.88,23,23,0,0,1,6.57,1.27c4.1,1.36,7.89,3.48,12,4.95a45,45,0,0,0,11.13,2.37c7.76.74,15.57.07,23.35.13,8.49.06,17.12,1.13,24.2,6.21.33.23.63-.3.32-.54Z"/><path d="M848.28,515.25A51.3,51.3,0,0,1,868.4,507a48,48,0,0,1,22.17,1.4c7.86,2.44,14.8,7.18,22.85,9.11s16.63,1.71,25,1.71l54.74,0c8.8,0,17.8-.47,26.52,1,8.31,1.35,15.56,5.42,23.41,8.19,15.84,5.57,33,3.47,49.14.65,2.06-.36,4.1-.74,6.15-1.11.52-.1.3-.88-.21-.78-16.65,3.05-34.24,6.22-50.93,1.68-8.06-2.2-15.31-6.62-23.43-8.62-8.37-2.06-17.1-1.78-25.65-1.77l-54.74,0c-8.76,0-17.71.47-26.38-1a50.59,50.59,0,0,1-12.35-3.85c-3.72-1.67-7.34-3.56-11.16-5a49.21,49.21,0,0,0-41.4,3.38,35.7,35.7,0,0,0-4.19,2.82c-.28.22.09.7.38.5Z"/><path d="M379.14,263.07c-16.3-8.11-34.56,1.31-50.33,6.19-8.71,2.7-18,4.78-27.13,2.87-10-2.11-18.27-8.75-27.88-12a33.07,33.07,0,0,0-14.44-1.52,70.69,70.69,0,0,0-14.25,3.52c-9.22,3.08-18.87,7.21-28.8,6-9.41-1.18-16.9-7.56-24.59-12.53A42.72,42.72,0,0,0,180.39,250a23.62,23.62,0,0,0-13.15.25c-5.08,1.47-9.86,4-15.11,4.88-4.83.82-9.51-.31-13.94-2.22-7.49-3.24-14.67-8.91-23.08-9.41a15.77,15.77,0,0,0-5.83.75.36.36,0,0,0,.19.69c8.73-2.52,16.84,3,24.29,6.73A39.32,39.32,0,0,0,145.64,256c4.8.72,9.39-.52,13.87-2.16,4.89-1.8,9.82-4,15.15-3.9a27.18,27.18,0,0,1,12.53,3.79c7.71,4.24,14.35,10.41,22.67,13.53,19.38,7.26,37.08-9.8,56.43-8,10.37.93,18.95,7.58,28.34,11.4,8.44,3.44,17.19,3.48,26,1.54s17.49-5.49,26.24-8.19c8.27-2.56,17.16-4.59,25.78-2.61a29.71,29.71,0,0,1,6.21,2.17c.31.14.59-.31.27-.47Z"/><path d="M453.77,331.41c-7.2-8.73-20-3.91-29.08-1.71-5.5,1.33-11.38,2.57-17,1.43-6.9-1.4-11.88-6.66-17.36-10.66a40.29,40.29,0,0,0-15.72-6.94,58.9,58.9,0,0,0-16.87-.73c-12.21,1-24.07,4.41-36,6.81s-24.13,3.84-36.08.84a38,38,0,0,1-4.17-1.31c-.37-.13-.53.45-.16.59,11.18,4.32,23.38,3.59,35,1.62,12.12-2.06,24-5.53,36.14-7.23,11.42-1.6,23.46-1.41,33.73,4.45,5.82,3.33,10.37,8.54,16.41,11.5,5.2,2.55,10.93,2.47,16.52,1.5s11.2-2.8,16.88-3.86c4.86-.91,10.26-1.29,14.59,1.52a14,14,0,0,1,2.88,2.55c.22.26.58-.11.37-.37Z"/></g></g></svg>