<svg xmlns="http://www.w3.org/2000/svg" viewBox="0 0 1109.18 802.49"><defs><style>.cls-1{fill:#fccc7b;}.cls-2{fill:#b9d5d7;}</style></defs><g id="Layer_2" data-name="Layer 2"><g id="Layer_1-2" data-name="Layer 1"><path class="cls-1" d="M464.08,548.08c-5.9-6.8-12.22-15.26-9.76-23.92,2.16-7.63,10.16-11.73,17.15-15.47,17.47-9.34,33.86-22.48,42-40.55,4-8.94,5.83-18.68,8.08-28.21,3.07-13.1,7.2-26.37,15.7-36.8,5.87-7.19,13.53-12.67,21.09-18.06,12.43-8.86,25.84-18.07,41.11-18.62a14.08,14.08,0,0,1,6.72,1.06c2.2,1.06,3.83,3,5.38,4.88l28.38,34.31c4.28,5.18,8.64,10.49,11,16.8,2.2,5.94,2.46,12.4,2.49,18.73,0,8.31-.3,16.7-2.26,24.77-3.83,15.76-13.67,29.69-16.42,45.66-2.48,14.35,1,29,4.39,43.12l14.72,60.73a51.64,51.64,0,0,0-30.62-1.58c-8,2.08-17.09,6-24,1.38-3.13-2.07-5-5.51-6.72-8.87a152.29,152.29,0,0,1-13.52-40.85,226.06,226.06,0,0,1,3.8,38.5c.06,4.39-.27,9.36-3.61,12.2-4.27,3.64-10.67,1.74-16.26,1.23-13.81-1.25-27.58,7.42-41.06,4.16a15.24,15.24,0,0,1-8.79-5.27,16.07,16.07,0,0,1-2.77-8.06c-1.11-11,4.08-21.5,7.58-32a109.36,109.36,0,0,0,2.23-61.26,5.23,5.23,0,0,0-1.39-2.83c-1.76-1.51-4.43-.25-6.36,1q-23.79,15.87-47.17,32.35"/><path d="M549.22,299.65c1.2,5.47,3.19,10.75,4.68,16.15,1.83,6.65,3.67,13.3,5.58,19.93a.9.9,0,0,0,1.31.53c3.09-1.82,4.59-5.06,7.13-7.46,2.15-2,7.26-3.7,8.44.29.81,2.72-2.34,5.92-3.74,8a15.07,15.07,0,0,0-2,3.83c-.52,1.63-.24,3.65-1.19,5.12a3.37,3.37,0,0,1-5,.37c-1.56-1.49-1.52-3.89-.8-5.76l-1,.43c2.52,1.47,5.19-.91,5.87-3.32.55-2,.26-4.12,1.08-6,.69-1.57,3.11-3.15,4.49-1.45l-.06-.43-3.29,5.28c-.24.39.3.78.63.48a20,20,0,0,1,6.62-4.15l-.51-.2c2,2.62.5,6.2.67,9.19a5.85,5.85,0,0,0,1.33,3.61c1.08,1.25,2.64,2,4,2.92,5.85,4.26,9.2,11.45,16.07,14.41a13.56,13.56,0,0,0,8.82,1,9.12,9.12,0,0,0,6.17-6.42c1.34-4.14,1.87-8.66,2.72-12.92.91-4.54,1.94-9,2.93-13.55,1.78-8.13,2.8-17.14.26-25.21A33.24,33.24,0,0,0,608.61,288c-12.2-9.26-29.66-9.74-43.47-3.94-6.18,2.59-12,6.66-15.57,12.42A25.88,25.88,0,0,0,546,306.64c-.58,4-.59,8.06-1.32,12a24.47,24.47,0,0,1-1.77,5.8.87.87,0,0,0,.13,1,11.4,11.4,0,0,0,7.87,3.55c1.23.05,1.16-1.74,0-1.88-1.87-.22-3.72-.44-5.59-.62a1,1,0,0,0-.93.7,84.38,84.38,0,0,0-1.45,9.21c-.3,3.11-.29,6.21-.39,9.32a101.7,101.7,0,0,0,1.07,18.86c.21,1.41.54,2.82.87,4.21a7.28,7.28,0,0,0,1.37,3.43c1.53,1.63,4.1,1,6,.49A23.58,23.58,0,0,0,569,351.52l-1.24.33c3.33,5.1-1.48,10.91-4.51,14.83-2.85,3.68-6,8.41-4.11,13.22.19.48,1.09.68,1.18,0,1-7.54,7.63-12.69,14.35-15.25A44.09,44.09,0,0,1,599,362.92a43.51,43.51,0,0,1,13,5l.67-1.6a41.84,41.84,0,0,0-41.2,7.27c-2.18,1.8-4.26,3.72-6.6,5.3a45,45,0,0,1-7.85,3.93,59.12,59.12,0,0,0-23.67,17.44c-6.78,8.53-10.76,18.82-13.77,29.19-3.78,13.07-7.24,26.25-10.85,39.37a.9.9,0,0,0,.62,1.08,24.26,24.26,0,0,1,17.2,16.9.68.68,0,0,0,1.32-.18,38.37,38.37,0,0,0-1.49-15.47c-1.18-3.72-3.54-6.66-7.69-6.79s-7.69,2.42-10.28,5.5c-3,3.54-5.44,7.49-8.45,11A114.22,114.22,0,0,1,479,500c-6.85,4.83-14.69,8.24-21.23,13.5a22.62,22.62,0,0,0-6.9,8.39,15.52,15.52,0,0,0-.2,11.51c1.55,4.25,4.39,7.91,7.21,11.39,2.44,3,5.62,5.78,9.69,4a53.58,53.58,0,0,0,6.86-4.1l7.13-4.43,14.26-8.88c8.77-5.46,17.64-10.82,26.08-16.81C537,503.9,551.51,490.3,558,472.45a66.85,66.85,0,0,0,2-6.65.6.6,0,0,0-1.15-.31c-4.29,17.27-16.5,31.41-30.11,42.28A250.83,250.83,0,0,1,505,524.1c-8.63,5.41-17.29,10.77-25.93,16.16l-6.69,4.16c-2,1.22-4.12,3-6.42,3.54s-4.32-1-5.84-2.6a53.91,53.91,0,0,1-4.06-5.09c-2.67-3.66-5.12-7.88-5.08-12.55a14.94,14.94,0,0,1,3.86-9.54c4.89-5.7,12-8.9,18.32-12.71a108.23,108.23,0,0,0,29.31-25.9c2.65-3.36,4.92-7.16,7.92-10.23,2.81-2.88,7.44-5.23,11.38-3.06,2,1.1,2.94,3.27,3.57,5.36a34.67,34.67,0,0,1,1.44,7.69,37.6,37.6,0,0,1-.21,7.27l1.31-.18a25.63,25.63,0,0,0-18-18.23l.61,1.08q4.81-17.16,9.62-34.32c2.89-10.28,5.85-20.91,11.7-30a54.11,54.11,0,0,1,21.9-19.36c4.84-2.3,9.81-3.89,14.11-7.21,4.08-3.17,7.79-6.59,12.47-8.89a40.63,40.63,0,0,1,32-1.53c1,.36,1.5-1.1.67-1.6a44.8,44.8,0,0,0-25.43-6.28c-8.13.51-16.67,3.07-22.69,8.77a17.81,17.81,0,0,0-5.71,10.86l1.2-.16c-2.41-5.73,2.77-10.77,5.91-14.94,2.81-3.74,5.49-9,2.68-13.46a.67.67,0,0,0-1.24.34,22.07,22.07,0,0,1-14.43,19c-1.61.58-5.17,2-6.24,0a12.87,12.87,0,0,1-.85-3.43c-.29-1.4-.58-2.8-.85-4.21a91.63,91.63,0,0,1-1.59-16.61,81.19,81.19,0,0,1,2.61-18.53l-.92.7c1.86.23,3.72.41,5.59.59v-1.88a9.53,9.53,0,0,1-6.67-2.87l.13,1c3.07-7,1.87-14.82,3.82-22.09,1.74-6.47,6.39-11.58,12-15.05,12.23-7.58,29.39-9,42.34-2.43a33.88,33.88,0,0,1,14.31,13.52,27.6,27.6,0,0,1,3.4,10.29,45,45,0,0,1-.65,12.36c-.72,4.23-1.65,8.43-2.43,12.65s-1.63,8.23-2.49,12.34c-.41,2-.81,4-1.25,6a12.72,12.72,0,0,1-2.25,5.58c-2,2.31-5.09,2.76-7.92,2.2-7.75-1.53-11.34-9-17.14-13.52-1.54-1.19-3.27-1.93-4.88-3-1.78-1.17-2.22-2.93-2.16-5,.09-2.9,1-6.05-1-8.54a.45.45,0,0,0-.44-.12,21,21,0,0,0-6.94,4.46l.62.48,3.22-5.32a.36.36,0,0,0-.05-.43c-1.64-2-4.67-.54-5.7,1.34-1,1.72-.86,3.77-1.31,5.63-.41,1.68-2.19,4.35-4.22,3.06a.72.72,0,0,0-1,.26c-1.55,3.54-.43,8.42,3.94,9a4.52,4.52,0,0,0,4.53-1.83c1.26-1.94.72-4.36,1.39-6.47,1.14-3.61,4.68-6.38,5.14-10.22.43-3.64-2.92-5.61-6.19-4.93-5.2,1.09-6.94,6.66-11.25,9.08l1.31.53c-1.76-6.67-3.59-13.32-5.42-20a50.21,50.21,0,0,0-2.67-8.33,71.1,71.1,0,0,1-3.11-7.51.4.4,0,0,0-.78.21Z"/><path d="M557.28,472.46c2.91-7,5.83-13.92,8.61-20.95,2.62-6.65,5.1-13.44,6.25-20.52,1-6.15,1.06-12.64-.95-18.6a30.58,30.58,0,0,0-8.47-13,20.9,20.9,0,0,0-15.5-5.59l.13.93c5.84-1,14.79-1.82,18.65,3.83a.48.48,0,0,0,.74.09,48.89,48.89,0,0,0,8.79-9.16,46.44,46.44,0,0,0,5.6-11.45l-1.14.46c5.76,3.4,12.47,2.53,18.77,1.59,6.45-1,13.43-2.25,19.31,1.36a.91.91,0,0,0,1.33-1l-3.75-15.94-1,.43A143.21,143.21,0,0,0,628.34,387a137.68,137.68,0,0,0,17.46,18.66c3.15,2.85,6.29,5.86,8.22,9.7,2.06,4.08,2.62,8.72,2.93,13.23a130.48,130.48,0,0,1-1.14,28.34,132.17,132.17,0,0,1-7.11,27.18c-3.26,8.56-7.64,16.7-10.17,25.54a57.23,57.23,0,0,0-.9,26.38c1.67,9,4.88,17.72,8.08,26.31a232,232,0,0,1,8.65,26.57,146.13,146.13,0,0,1,4.12,28.75c.1,2.38.13,4.76.12,7.14l1.59-.66c-10.49-9.15-25.37-6.75-37.86-4.36-1.79.35-3.57.69-5.36,1a17,17,0,0,1-6,.44c-3.26-.6-5.17-3.93-6.69-6.57A67.24,67.24,0,0,1,598,598.18c-3-11.15-5-23.23-12.22-32.59-2-2.55-4.4-4.74-6.24-7.39a20.35,20.35,0,0,1-3.21-9.82,194.07,194.07,0,0,1-1-22.75,220.5,220.5,0,0,1,6.44-50.57l-1.69-.23a182.3,182.3,0,0,1,1.26,26.43c-.12,8.79-.42,17.61-1,26.39a133.57,133.57,0,0,1-1.4,13.54c-.68,4.22-1.71,8.36-2.73,12.51a117.33,117.33,0,0,0-2.58,12.44,80.69,80.69,0,0,0-.61,12.14c.12,8.2,1,16.46,0,24.65a44.87,44.87,0,0,1-1.17,6.2c-.5,1.89-1,4.41-2.74,5.57-1.52,1-3.55.92-5.3.89-2.11,0-4.21,0-6.31.1a92.39,92.39,0,0,0-24.52,4.76c-6.57,2.19-15.9,5.12-21.24-1.23-2.38-2.82-2.33-6.79-2.39-10.28-.05-2.92,0-5.85.06-8.77a141.92,141.92,0,0,1,1.59-19.2c.21-1.23.45-2.45.76-3.67a.66.66,0,0,0-1.21-.5c-1,1.43-1.07,3.41-1,5.09a28.65,28.65,0,0,0,1.16,7.24,17.72,17.72,0,0,0,2.65,5.87c1.46,1.93,3.81,2.5,6.12,2.74,3.69.38,7.43-.43,11-1l6.37-1.06a29.67,29.67,0,0,0,5.2-1.09c2.91-1,4.46-3.39,5-6.34a106.76,106.76,0,0,0,1.18-11.45q1.37-14.71,2.73-29.43a.56.56,0,0,0-.83-.47,40,40,0,0,1-35.92,4.27.54.54,0,0,0-.66.38,24.62,24.62,0,0,0-1,12.76.55.55,0,0,0,.52.39l33-.69a.53.53,0,0,0,.27-1,35.45,35.45,0,0,0-12.74-4.16c-4.21-.69-8.66-1.49-12.92-.9-3.58.5-6.84,2.18-8.58,5.45-1.44,2.71-1.58,6,.48,8.44a.53.53,0,0,0,.88-.23,226.78,226.78,0,0,0,6.64-54.72.8.8,0,0,0-1.35-.56,140.84,140.84,0,0,1-39,25.35q-2.81,1.23-5.64,2.32a12.42,12.42,0,0,1-6.25,1.1c-3.76-.59-6.4-4.26-9.36-6.35-6-4.24-13.45-6.71-20.52-8.65-1.65-.45-3.63-.81-5.19.12a3.58,3.58,0,0,0-1.83,3.21c.16,1.92,2.57,1.81,4.07,2.08a57.8,57.8,0,0,0,7,.89l-.64-.64c-.26,2.85-3.67,3.57-6,3.76a18,18,0,0,1-8.58-1.43c-2.57-1.16-4.66-3.3-4.51-6.28.12-2.31,1.54-4.83,4.11-4.8l-.2-1.49c-4.47,1.19-9.15,2.41-12.9,5.24-1,.74,0,2.42,1,1.67,3.68-2.78,8-4.16,12.33-5.44a.76.76,0,0,0-.2-1.49c-3.09,0-5.07,2.69-5.44,5.53-.44,3.45,1.55,6.28,4.48,7.93a18.63,18.63,0,0,0,10.94,2.11c2.92-.36,6.15-2,6.28-5.31a.63.63,0,0,0-.63-.63,35.08,35.08,0,0,1-6.31-.46,13,13,0,0,1-2.9-.68c-.59-.28-.87-.34-.77-1.09a2.4,2.4,0,0,1,.87-1.37c1.5-1.23,3.66-.46,5.3,0,1.81.55,3.62,1.1,5.42,1.69a66.19,66.19,0,0,1,9.93,4,44.51,44.51,0,0,1,8.9,6.41c2.53,2.25,5.2,3.42,8.64,2.89s6.9-2.16,10.15-3.56a129.28,129.28,0,0,0,19.34-10.45A138.73,138.73,0,0,0,520,517.43l-1.35-.55a225.24,225.24,0,0,1-6.07,54.44l.87-.23c-2.1-2.43-1.38-5.93.39-8.33,2.27-3.1,6.2-4,9.85-4A61.48,61.48,0,0,1,535,560.11a32.39,32.39,0,0,1,10.94,3.8l.26-1-33,.67.51.39a23.54,23.54,0,0,1,1.06-12.19l-.66.38a41,41,0,0,0,36.75-4.36l-.82-.48-2.19,23.23-1.1,11.62c-.29,3-.17,7-2.28,9.49s-6.11,2.52-9,3c-3.72.61-7.44,1.37-11.19,1.75-2.71.27-6.65.52-8.94-1.27-1.36-1.06-2.12-3-2.69-4.56a28.34,28.34,0,0,1-1.6-7.33c-.15-1.83-.31-4.22.8-5.81l-1.21-.51c-1.52,6-1.92,12.33-2.25,18.49-.17,3.34-.27,6.7-.29,10a53.23,53.23,0,0,0,.41,9.36c1.27,7.42,8.62,10.37,15.47,9.53,4.16-.52,8.07-2.08,12-3.31a88.76,88.76,0,0,1,13.1-3,85.67,85.67,0,0,1,13.67-.94c3.29,0,7.15.27,9.08-3a21.22,21.22,0,0,0,2-5.75,50,50,0,0,0,1-6,90.37,90.37,0,0,0,.42-13c-.2-8.78-.86-17.53.75-26.24s4.33-17.2,5.41-26.06c1.12-9.21,1.27-18.53,1.54-27.78a242.54,242.54,0,0,0-.41-27.76q-.29-3.42-.75-6.83c-.12-.88-1.44-1.26-1.69-.23a220.49,220.49,0,0,0-5.79,68.46,52.67,52.67,0,0,0,1.38,10.54,20.93,20.93,0,0,0,4.74,8.13,62.92,62.92,0,0,1,6,7.4,44.75,44.75,0,0,1,4,8c2.23,5.7,3.54,11.71,5,17.64a97,97,0,0,0,5.36,16.92,38.68,38.68,0,0,0,4.38,7.55A8.93,8.93,0,0,0,613,623.1c4.09-.14,8.23-1.28,12.25-2a88.29,88.29,0,0,1,13-1.65c7.28-.25,14.9,1.23,20.64,6a.94.94,0,0,0,1.59-.66,177.49,177.49,0,0,0-10.51-56c-6.09-17-14.24-35.13-10.75-53.6,1.74-9.18,6.06-17.56,9.57-26.14a133.3,133.3,0,0,0,9.89-54.71c-.28-8.63-.92-17.54-6.8-24.36-2.79-3.24-6.18-5.9-9.31-8.8a126.46,126.46,0,0,1-9-9.24,110.54,110.54,0,0,1-15.15-21.76c-1-1.91-1.93-3.85-2.82-5.8-.28-.62-1.14-.16-1,.43l3.08,16.12,1.33-1c-5.46-3.69-12.39-2.84-18.54-1.94-6.4.93-13.67,2.49-19.67-.78a.79.79,0,0,0-1.14.46,45.41,45.41,0,0,1-5.06,11.31,41.53,41.53,0,0,1-8.5,9.06l.74.09c-4.14-6.07-13.4-5.4-19.72-4.26-.52.09-.4,1,.13.93,10.88-.88,19.67,8.08,23,17.74,4.26,12.4-.23,26-4.72,37.67-2.84,7.41-5.74,14.8-8.56,22.22-.09.23.27.32.36.1Z"/><path d="M413.91,530.53a7.68,7.68,0,0,0-2.54,7.71,8.6,8.6,0,0,0,5.18,5.73l-.34-.59a2.83,2.83,0,0,1-2.88,1.6,8,8,0,0,1-3.93-1.81c-2.3-1.62-4.6-3.39-4.79-6.42-.35-5.51,3.87-10.29,8.42-12.75a31.1,31.1,0,0,1,9.54-3,.4.4,0,0,0,0-.77c-3.47-.84-7.45-1.71-10.9-.32a8.94,8.94,0,0,0-4.11,3.51c-.57.87-1.13,1.76-1.69,2.64a15.78,15.78,0,0,0-1.48,2.78,16.42,16.42,0,0,0-1.09,3.62c-.08.59-.14,1.18-.18,1.78s0,1.29-.06,1.91l.4-.52c-.79.27-1.24-.37-1.54-1a6.25,6.25,0,0,1-.39-2.84,33.79,33.79,0,0,1,.65-6.43,15.81,15.81,0,0,1,2.27-5.65,12.43,12.43,0,0,1,5-4.09,32,32,0,0,1,7-2.26.35.35,0,0,0,.08-.63,20.3,20.3,0,0,0-8.68-2.85l.19.71a19.75,19.75,0,0,1,8.39-2.43,37.23,37.23,0,0,1,8.87.67c6.16,1,12.43.74,18.65,1a33.86,33.86,0,0,1,4.7.47,30.13,30.13,0,0,1,4.28,1.18c1.85.61,4.49,1.31,6.14-.14,2.33-2.05-.11-5.46-1.24-7.46-1.56-2.78-3.24-5.49-5-8.14s-3.6-5.19-5.54-7.68q-1.47-1.87-3-3.71a45.42,45.42,0,0,0-3.07-3.44,6.71,6.71,0,0,0-3.77-1.9,26.87,26.87,0,0,0-4.83,0q-5.25.18-10.5.39-21,.85-42,2.49t-41.85,4.07c-1.7.2-3.4.43-5.1.67-.41.06-.42.58-.22.82a20.26,20.26,0,0,0,4.52,4.25,29.21,29.21,0,0,0,5.76,2.8c4.76,1.82,9.57,3.52,14.37,5.25l30.12,10.86,8.38,3c2.83,1,5.72,1.89,8.55,2.91,1,.35,1.37-1.19.42-1.53-2.48-.9-4.93-1.92-7.39-2.85s-5-1.8-7.44-2.7l-14.64-5.3c-9.88-3.57-19.75-7.17-29.65-10.69-2.2-.78-4.4-1.6-6.52-2.58a14.48,14.48,0,0,1-5.71-4l-.42.74c6.8-.67,13.59-1.48,20.4-2.15s13.61-1.29,20.43-1.84c13.64-1.1,27.3-2,41-2.7,6.79-.36,13.6-.81,20.4-.91a6.54,6.54,0,0,1,4.38,1.18,23.4,23.4,0,0,1,3.05,3.24q3.07,3.57,5.87,7.37c1.84,2.51,3.59,5.09,5.22,7.73q1.23,2,2.38,4a32.75,32.75,0,0,1,2.19,4.14c.44,1.1.54,2.69-.82,3.15a5.27,5.27,0,0,1-3.06-.26c-1.22-.36-2.37-.9-3.58-1.29a26.37,26.37,0,0,0-4.48-1,71,71,0,0,0-9.33-.51c-3,0-6-.22-9-.51a61.12,61.12,0,0,0-8.77-.15,31.45,31.45,0,0,0-8.25,1.19,18.82,18.82,0,0,0-3.66,1.65.39.39,0,0,0,.2.72,19.5,19.5,0,0,1,8.33,2.67l.08-.63c-4.62,1.12-9.46,2.34-12.24,6.56-2.58,3.89-2.73,8.89-3,13.4-.07,1.47.41,4.85,2.68,4.07a.58.58,0,0,0,.4-.53,13.06,13.06,0,0,1,.39-1.49c.13-.48.27-1,.42-1.42.3-.93.5-1.9.78-2.85s.59-1.87.86-2.81a14,14,0,0,1,1-2.81,9,9,0,0,1,3.78-3.89,10.48,10.48,0,0,1,5.1-.87,31,31,0,0,1,5.89,1v-.77c-6.22,1.06-12.61,3.45-16.27,8.89a12.29,12.29,0,0,0-2.23,8.43c.47,3.11,3,5,5.47,6.63a7.33,7.33,0,0,0,4.67,1.7,3.57,3.57,0,0,0,3.13-2.21.48.48,0,0,0-.33-.58,6.4,6.4,0,0,1-3.9-5.2,7.3,7.3,0,0,1,2.3-6c.88-.79-.4-2-1.29-1.29Z"/><path d="M404,515.66a3.31,3.31,0,0,0,1.57-3.71,4.55,4.55,0,0,0-3.06-3.55,8.84,8.84,0,0,0-6.11.49,4.46,4.46,0,0,1-1.37.39c-.71,0-.88-.53-1-1.12a16.19,16.19,0,0,0-.9-3,15.44,15.44,0,0,0-5.79-7c-1-.64-1.91-1.36-2.91-2-1.85-1.16-3.94-1.94-5.64-3.34a7.46,7.46,0,0,1-3-4.74c-.21-2.05,1.15-3.8,2.2-5.42.62-.94,1.11-1.94,1.73-2.88q.3-.45.63-.9l.15-.2.09-.11c.08-.11-.11.14,0,0l.4-.5c.54-.65,1.11-1.28,1.69-1.89a76.34,76.34,0,0,1,9.77-8.35c4.4-3.27,9-6.29,13.59-9.22,5.15-3.25,10.38-6.35,15.66-9.38s10.74-6,16.16-9q7.5-4,15.06-7.94,6.18-3.18,12.38-6.31l4.67-2.35a29.65,29.65,0,0,0,3.4-1.78l.56-.39.26-.18a1.74,1.74,0,0,0,.29-.25c.27-.25-.39.27-.07.1.89-.46.1-1.81-.79-1.34l-.13.06.6-.08a3.49,3.49,0,0,0-1.62.42,17.06,17.06,0,0,0-1.78.85l-4.12,2.07q-5.77,2.91-11.54,5.86-7.31,3.75-14.53,7.59-8,4.27-16,8.74t-15.92,9.34c-4.83,3-9.6,6-14.22,9.31a106.37,106.37,0,0,0-11,8.73,42.5,42.5,0,0,0-3.77,3.94c-.51.63-1,1.27-1.46,1.95-.56.84-1,1.75-1.55,2.6-1.08,1.7-2.38,3.39-2.68,5.45a7.62,7.62,0,0,0,1.8,5.77,14.63,14.63,0,0,0,5,3.83,25.76,25.76,0,0,0,3.25,1.38,13.24,13.24,0,0,1,3.14,1.41,14.15,14.15,0,0,1,4.36,4.65,14.34,14.34,0,0,1,1.29,2.92,11.43,11.43,0,0,0,.81,2.8,2,2,0,0,0,2.27.61c1-.26,2-.73,3-.93,1.92-.37,4.35-.13,5.43,1.74.74,1.28.77,3.24-.55,4.17a.33.33,0,0,0,.33.57Z"/><path d="M473.27,421.4a20.19,20.19,0,0,0,10.15-.33c2.74-.83,6.3-2.29,6.82-5.49.46-2.84-1.74-5.21-4.41-5.88-3-.75-6.46.45-9,2s-4.81,3.89-4.42,7c0,.36.6.66.79.22a10.89,10.89,0,0,1,10-6.59l-.14-.54a78.36,78.36,0,0,1-13.12,7.4q-6.82,3.19-13.57,6.58c-9.05,4.53-18,9.26-26.8,14.26s-17.48,10.22-26,15.66-16.9,11.14-25.16,17c-4.08,2.89-8.14,5.8-12.12,8.83-3.62,2.77-7.16,6.17-7.71,10.94a8.52,8.52,0,0,0,.24,3.26.68.68,0,0,0,.64.49c13.2.45,25.41,7.6,35.38,15.76,1.44,1.19,2.86,2.41,4.27,3.64s2.66,2.59,4,3.89c.45.44,1.14-.25.69-.69-1.22-1.2-2.52-2.33-3.78-3.48s-2.52-2.35-3.83-3.47a98.32,98.32,0,0,0-7.93-6.16,62.81,62.81,0,0,0-17.87-8.9,51,51,0,0,0-10.91-1.93l.65.5c-1.13-4.82,2.27-8.86,5.72-11.73,3.76-3.12,7.79-5.95,11.74-8.82q12.09-8.79,24.67-16.88t25.49-15.59c8.62-5,17.36-9.78,26.23-14.31,4.45-2.27,8.93-4.47,13.43-6.64a118.61,118.61,0,0,0,12.93-7c1-.67,2-1.37,3-2.08a.29.29,0,0,0-.15-.54,11.52,11.52,0,0,0-10.72,6.74l.79.21c-.32-2.46,1.33-4.46,3.25-5.78a13.74,13.74,0,0,1,7.55-2.55,5,5,0,0,1,3.69,1.39,3.82,3.82,0,0,1,1.15,3.21,4.64,4.64,0,0,1-2.11,2.49,13.62,13.62,0,0,1-3.65,1.69,18.12,18.12,0,0,1-9.33.43c-1.22-.27-1.74,1.6-.51,1.87Z"/><path d="M402.64,518.73c-1-.37-1.93-.74-2.94-1l-3-.81-6-1.62c-4-1.07-7.92-2.12-11.88-3.21q-11.71-3.23-23.24-7.07-5.74-1.94-11.43-4-2.85-1.05-5.67-2.14c-1.72-.66-3.47-1.29-5.12-2.1-2.7-1.31-4.89-3.2-5.73-6.16a9.53,9.53,0,0,1,1.07-7.42,8.22,8.22,0,0,1,2.79-2.74c1.3-.79,2.73-1.35,4-2.19a6.66,6.66,0,0,0,2.77-3.31,7,7,0,0,0-.05-4.38c-1-3.2-3.81-5.18-6.8-6.44a44.44,44.44,0,0,0-5.09-1.65c-1.91-.53-3.84-1-5.78-1.42-.92-.19-1.85-.38-2.78-.49a3.24,3.24,0,0,0-2.24.37,11.11,11.11,0,0,0-3,3.68,34.68,34.68,0,0,0-3.83,9.55c-1.76,7-2.1,14.29-2.27,21.44a127.68,127.68,0,0,0,1.31,22.95,87.44,87.44,0,0,0,2.48,11.2c.52,1.78,1.18,3.51,1.75,5.27.36,1.11.47,2.29.82,3.41a3.28,3.28,0,0,0,1.86,2.42c.91.28,1.29-1.14.39-1.41s-1.06-1.93-1.22-2.61c-.31-1.25-.66-2.4-1.08-3.61a79.7,79.7,0,0,1-3-10.83,112.53,112.53,0,0,1-2.06-22.51c0-3.76.12-7.52.35-11.27a95,95,0,0,1,1.08-10.1,46.39,46.39,0,0,1,2.76-9.82,35.62,35.62,0,0,1,2.38-4.64,11,11,0,0,1,1.26-1.83,2.4,2.4,0,0,1,2.57-.68,84.38,84.38,0,0,1,11.05,3c3,1.08,6.21,2.55,7.58,5.63a6,6,0,0,1,.34,4.22,5.86,5.86,0,0,1-3,3.13c-1.28.71-2.65,1.25-3.86,2.07a9.56,9.56,0,0,0-2.65,2.69,11.59,11.59,0,0,0-1.72,7.44,9.84,9.84,0,0,0,3.87,7.1,20,20,0,0,0,4.55,2.45c1.75.73,3.53,1.4,5.31,2.08q5.55,2.11,11.15,4.07c15,5.24,30.37,9.34,45.73,13.44l2.89.77a28.8,28.8,0,0,0,2.94.57.76.76,0,0,0,.4-1.47Z"/><path d="M447.33,508.9a7,7,0,0,0-3.61-3.63,39.61,39.61,0,0,0-6-2.43,37.41,37.41,0,0,1-6.32-2.26c-1.85-1-4-1.46-6-2.34-3.27-1.48-6.49-3.73-8.2-7a12.6,12.6,0,0,1-.42-10.6c1.53-3.72,4.43-6.73,7.41-9.33A87.11,87.11,0,0,1,435,463.49c8.07-5.14,16.34-10,24.48-15,4.14-2.55,8.13-5.32,12.26-7.88s8.33-5.15,12.51-7.7a22.25,22.25,0,0,0,2.83-2c.26-.22,0-.74-.35-.6a47.08,47.08,0,0,0-6.37,3.6L474,437.77c-4.26,2.57-8.57,5.05-12.89,7.53s-8.54,5.13-12.79,7.72-8.26,5-12.36,7.56a110.19,110.19,0,0,0-11.1,7.69,35.42,35.42,0,0,0-8.62,9.28c-2,3.37-3.08,7.54-1.64,11.32a19.44,19.44,0,0,0,6.79,8.36,31,31,0,0,0,4.75,2.94,29,29,0,0,0,3.1,1.3,6.14,6.14,0,0,0,1.62.42,11.9,11.9,0,0,1,1.68.34c2.19.54,4.35,1.24,6.48,2a24.14,24.14,0,0,1,5.87,2.67,5.42,5.42,0,0,1,1.9,2.24c.13.31.65.09.54-.22Z"/><path d="M486,431a.5.5,0,0,0,0-1,.5.5,0,0,0,0,1Z"/><path d="M486.42,430.88a4.46,4.46,0,0,1,2.22-.8,18.08,18.08,0,0,1,2.44-.31,18.91,18.91,0,0,0,5.08-.68,12.58,12.58,0,0,0,7.52-6.8c1.19-2.77.18-7.09-3.47-6.88a19.18,19.18,0,0,0-9.58,3.75,20.31,20.31,0,0,0-7,8.86c-.12.32.24.57.51.51a28.11,28.11,0,0,0,14.19-7.95.24.24,0,0,0-.17-.41c-5,.54-9.27,3.5-13.19,6.51a160.84,160.84,0,0,1-14,9.83c-9.8,6-20.06,11.24-30,17a247.5,247.5,0,0,0-28.55,18.63c-2.21,1.71-4.38,3.47-6.49,5.31a16.44,16.44,0,0,0-2.67,2.86,9.11,9.11,0,0,0-1.31,3.17,12.88,12.88,0,0,1-.91,3.18c-.56,1-1.7,1.29-2.34,2.2-1.68,2.39,2.07,4.21,3.61,5.28,4.23,2.94,8.33,6.11,12.81,8.69a40.18,40.18,0,0,0,6.77,3.18,17.49,17.49,0,0,0,3.71.91,20.11,20.11,0,0,0,3.63.21,4.32,4.32,0,0,0,2.95-1.17.42.42,0,0,0-.18-.69,43,43,0,0,1-5.53-1.91q-2.73-1.1-5.34-2.42a72.9,72.9,0,0,1-9.88-6.07c-1.58-1.14-3.11-2.33-4.6-3.6a32.13,32.13,0,0,0-4.24-3.58c-1.79-1-3.59-.48-5.45,0q-3.1.85-6.27,1.43A75.61,75.61,0,0,1,376,490.38a.54.54,0,0,0,0,1.08,75.44,75.44,0,0,0,12.74-.86c2.12-.32,4.22-.75,6.3-1.27,1.06-.26,2.11-.55,3.15-.86a5,5,0,0,1,3-.22,7.06,7.06,0,0,1,2.3,1.58c.69.62,1.38,1.24,2.09,1.84,1.44,1.22,2.93,2.39,4.45,3.5a72.09,72.09,0,0,0,9.82,5.95c1.9.95,3.84,1.84,5.8,2.65s4.08,1.49,6.11,2.26l-.19-.7a4.19,4.19,0,0,1-3.43.45,28.4,28.4,0,0,1-3.47-1,39.44,39.44,0,0,1-6.63-2.63c-4.4-2.29-8.35-5.29-12.42-8.07-1-.7-2.05-1.39-3.09-2.06-.48-.31-1-.61-1.45-.93-.33-.21-1-.63-1.05-1.08s.51-.61.77-.78a5.33,5.33,0,0,0,1.33-1.22,7.31,7.31,0,0,0,1.13-2.82,14.31,14.31,0,0,1,.84-3.16,9.88,9.88,0,0,1,2.26-2.88c1.95-1.85,4-3.55,6.13-5.23a223.33,223.33,0,0,1,27.14-18.23c9.55-5.59,19.35-10.74,28.88-16.37a109.75,109.75,0,0,0,13.9-9.41c3.78-3.1,7.47-6.62,12.11-8.37a16.79,16.79,0,0,1,3.61-.92l-.17-.41a24.71,24.71,0,0,1-14.07,7.49l.47.61a20.73,20.73,0,0,1,14.13-11.81c1.51-.35,3.47-.44,4,1.38a5.54,5.54,0,0,1-.65,3.81,10.66,10.66,0,0,1-6.77,5.69,30.57,30.57,0,0,1-5.06.52,5.92,5.92,0,0,0-2.58.7,4.91,4.91,0,0,0-1.71,1.68c-.3.49.34.9.74.57Z"/><path d="M415.23,470.07l-.29.34a.17.17,0,0,0-.05.12.18.18,0,0,0,.05.11.16.16,0,0,0,.11.05.26.26,0,0,0,.12-.05l.33-.29a.19.19,0,0,0,0-.28.19.19,0,0,0-.13-.05.24.24,0,0,0-.14.05Z"/><path d="M415.34,470.39c0-.11.34-.46.42-.64a2.38,2.38,0,0,0,.12-.59c.06-.43.09-.85.12-1.28.05-.91.08-1.82.09-2.74a27.72,27.72,0,0,0-.15-5.39.64.64,0,0,0-.63-.48c-1.2.06-2.42-.1-3.62-.12s-2.25,0-3.38.05-2.25.15-3.37.28l-1.59.22a2.49,2.49,0,0,0-1.58.5.43.43,0,0,0,.09.68,2,2,0,0,0,1.33,0c.58-.1,1.16-.18,1.75-.26,1.12-.14,2.24-.24,3.37-.3s2.25-.08,3.38-.06a16.56,16.56,0,0,1,3.45.26l-.49-.63a22.77,22.77,0,0,0,0,2.74q0,1.3,0,2.61v2.61c0,.41,0,.83,0,1.24a2.22,2.22,0,0,0,.08.63c.08.21.33.4.34.61s.18.15.2,0Z"/><path d="M397.08,460.71c-2.53-.15-5.09-.11-7.62-.11H366.59q-15.24,0-30.49.08l-17.24.11a.64.64,0,0,0,0,1.27q15.24,0,30.49-.11t30.48-.23l8.63-.08c2.86,0,5.76,0,8.62-.2a.36.36,0,0,0,0-.72Z"/><path d="M314.82,540.76c5.63.51,11.3.48,16.95.51s11.23,0,16.84,0c11.26-.06,22.52-.32,33.78-.67,6.32-.2,12.63-.75,18.94-1.08a.54.54,0,0,0,.52-.52c0-1.82-.07-3.64-.08-5.47a.48.48,0,0,0-.47-.47A94.32,94.32,0,0,0,376,534.17a.65.65,0,0,0-.47.63c-.1,5.71-.37,11.42-.84,17.12-.23,2.85-.5,5.7-.83,8.54s-.8,5.58-1.24,8.37c-.49,3.19-1,6.37-1.6,9.54a1,1,0,0,0,.94,1.24q11.4-.42,22.8-.56,5.67-.07,11.34-.07c3.78,0,7.56-.08,11.34-.06,4.28,0,8.56.1,12.84.1a.7.7,0,0,0,0-1.39c-3.82-.2-7.64-.29-11.47-.38s-7.56-.23-11.34-.24q-11.34,0-22.68.25-6.4.15-12.83.39l.95,1.24c.51-2.86,1-5.72,1.36-8.59s.62-5.67.93-8.51q1-8.56,1.36-17.2c.15-3.26.24-6.53.27-9.79l-.48.63a91.92,91.92,0,0,1,12.48-1.67,85.52,85.52,0,0,1,12.5.24l-.47-.47c0,1.83,0,3.65,0,5.47l.51-.51c-5.64.17-11.29.2-16.94.24s-11.22.27-16.83.36q-16.89.25-33.79.23c-6.32,0-12.65-.21-18.95.15a.65.65,0,0,0,0,1.29Z"/><path d="M430.14,578.74a32,32,0,0,0,.88-6.62q.21-3.4.47-6.81.5-6.69,1.18-13.34c.13-1.27.25-2.53.39-3.79l.21-2c0-.26.05-.52.09-.78s-.21.23,0-.05a.44.44,0,0,0,.16-.17c.12-.14.1-.13,0,0h-.65l-.09-.12a.58.58,0,0,0,1.1,0,1.28,1.28,0,0,0-.38-1.15,1,1,0,0,0-1.13-.15c-1,.44-1,1.84-1.07,2.75-.13,1.14-.25,2.28-.38,3.42q-.37,3.47-.67,6.93c-.41,4.65-.76,9.3-1,14a32.64,32.64,0,0,0,.15,7.84c.07.41.69.37.79,0Z"/><path d="M432.62,544.69a47,47,0,0,0,5.93.26l3,0a11.56,11.56,0,0,0,3-.13.51.51,0,0,0,0-1,11.16,11.16,0,0,0-2.89-.13l-3.08,0a47,47,0,0,0-5.93.26c-.33,0-.33.62,0,.67Z"/><path d="M443.85,544.51c-.17,1.15-.26,1.79-.39,3,0,0,0,.16,0,0l0,.25c0,.07,0,.14,0,.22s0,.34-.05.52,0,.31,0,.47c0,.35,0-.27,0,.28a2.83,2.83,0,0,0,0,.29c-.07.78-.12,1.56-.17,2.34q-.39,6.23-.82,12.43-.56,8.16-1.13,16.31-.66,9.54-1.34,19.06-.74,10.25-1.48,20.49t-1.51,20.55q-.72,9.78-1.45,19.54c-.43,5.72-.84,11.44-1.28,17.16-.34,4.51-.59,9-.92,13.53-.21,2.87-.44,5.74-.63,8.62,0,.4,0,.8-.08,1.2-.08.74,1.08.73,1.16,0a.68.68,0,0,1,0-.14c0-.11,0-.21,0-.32s.08-.53.11-.79c.07-.55.15-1.09.22-1.64.17-1.45.29-2.9.43-4.35.39-4.13.75-8.27,1.16-12.39.54-5.46.92-10.93,1.36-16.39.5-6.33,1-12.66,1.45-19q.76-10.25,1.51-20.48t1.48-20.56q.69-9.76,1.36-19.53.6-8.55,1.15-17.1.43-6.76.85-13.54c.1-1.67.2-3.34.26-5,0-.66,0-1.33,0-2v-1.23a2,2,0,0,1,0-.25c0-.19,0,.1,0-.15s-.05-.8-.08-1.21c0-.58-1-.82-1.11-.14Z"/><path d="M433.29,701.42a14.55,14.55,0,0,0,3.49-.72c1.1-.28,2.19-.58,3.28-.89q3.4-1,6.76-2c1-.3.56-1.83-.42-1.53-2.24.7-4.49,1.39-6.75,2.05l-3.27.95A15.45,15.45,0,0,0,433,700.4a.55.55,0,0,0,.27,1Z"/><path d="M446.59,697.69c.06-.27.13-.54.19-.8a1.38,1.38,0,0,0,.06-.26s.05-.12,0-.14v0c0-.13,0,0-.21.25.05-.07.16-.1.2-.2a2.84,2.84,0,0,0,.14-.79c.19-1.41.33-2.36.48-3.76,0-.26.07-.71.11-1.16s.08-.84.13-1.25.09-.9.14-1.35.11-1,.15-1.42c.2-2.15.37-4.3.56-6.45.47-5.34.91-10.69,1.35-16q.81-9.56,1.61-19.09l1.77-20.7q.92-10.49,1.82-21c.57-6.56,1.16-13.11,1.72-19.66l1.47-17c.38-4.31.75-8.62,1.15-12.92.23-2.48.39-5,.64-7.43,0-.16,0-.31.05-.46a1.1,1.1,0,0,0,0-.18s0,.19,0,0c.14-.9-1.24-1.29-1.38-.38-.29,1.89-.53,3.78-.76,5.67-.45,3.66-.77,7.34-1.12,11q-.74,7.62-1.45,15.23-.84,9.14-1.64,18.26-.87,9.93-1.72,19.85-.89,10.13-1.74,20.25-.83,9.71-1.63,19.42-.74,8.61-1.44,17.23c-.37,4.56-.71,9.13-1.05,13.69-.13,1.72-.19,3.45-.3,5.17,0,.69-.08,1.38-.09,2.07,0,.29,0,.59,0,.89s0,.52,0,.82-.15,1.33.17,1.59l-.15-.37c0,.44.08.89.14,1.33s.51.45.59.08Z"/><path d="M343.75,540.13c-.41,2.67-.58,5.07-.79,7.8l-1,13.32c-.44,5.82-.9,11.64-1.32,17.46q-.74,10.2-1.48,20.41-.79,11-1.6,21.93t-1.61,22q-.76,10.46-1.54,20.92-.69,9.19-1.37,18.38c-.36,4.83-.65,9.66-1,14.49-.2,3.08-.39,6.16-.55,9.24,0,.43,0,.87-.07,1.3-.07.87,1.28.86,1.35,0,0,0,0-.19,0-.07s0-.15,0-.21,0-.23,0-.34,0-.49.08-.73l.18-1.75c.16-1.56.3-3.11.43-4.67.39-4.46.82-8.8,1.16-13.28q.66-8.77,1.31-17.55.76-10.17,1.51-20.34.81-11,1.61-21.93t1.61-22q.75-10.46,1.49-20.92.64-9.15,1.23-18.3c.3-4.83.62-9.67.88-14.5.1-1.79.19-3.57.27-5.36,0-.72.08-1.43.09-2.14,0-.31,0-.62,0-.92a7.1,7.1,0,0,0,0-.83c0-.43,0-.86-.07-1.29s-.8-.66-.89-.12Z"/><path d="M332.32,707.8a23.91,23.91,0,0,0,3.59-.06c1.2,0,2.41,0,3.61,0,2.36.07,4.7.29,7.05.42a62.7,62.7,0,0,0,7,.06,32.63,32.63,0,0,0,3.55-.38c.58-.1,1.17-.22,1.74-.36a2.72,2.72,0,0,0,1.52-.68.61.61,0,0,0-.26-1,3.53,3.53,0,0,0-1.67.16c-.59.13-1.17.24-1.76.32a30.31,30.31,0,0,1-3.56.28c-2.34.06-4.68-.12-7-.29s-4.7-.34-7.05-.38c-1.21,0-2.41,0-3.61.12a9.75,9.75,0,0,0-3.42.74c-.56.27-.2,1,.28,1Z"/><path d="M360.57,705.93c0-.08.25-.81.24-.81l-.13.21a.66.66,0,0,0,.17-.29c0,.06.06-.41,0-.12,0-.08,0-.17.05-.25s.06-.37.08-.55,0-.19.05-.29,0,.17,0,0,0-.2,0-.3,0-.22.05-.33l0-.16,0-.27c0,.11,0,.13,0,0,.09-.75.12-.94.2-1.65.3-2.71.54-5.42.76-8.14.62-7.73,1.17-15.47,1.7-23.22q.94-13.49,1.86-27c.55-8,1.1-16.07,1.7-24.1.22-3,.44-5.94.69-8.9.15-1.89.45-3.81.42-5.7,0-.15,0-.29,0-.44v-.19c0-.1,0-.15,0-.27-.14-.7-.05.64,0,.29a.81.81,0,0,0-.54-1,.78.78,0,0,0-.95.54,2.54,2.54,0,0,1,0,.29l.23-.54a2.54,2.54,0,0,0-.42,1.11c0,.11-.14.66-.06.24,0,.08,0,.17,0,.25s-.07.37-.1.56c-.16,1-.21,2.06-.3,3.08-.24,2.73-.45,5.47-.66,8.2q-.89,11.64-1.66,23.29-.93,13.49-1.84,27-.81,12-1.64,23.93c-.21,3-.44,5.91-.62,8.87-.07,1.1-.15,2.19-.2,3.29,0,.44,0,.89,0,1.33,0,.17,0,.34,0,.51a2.11,2.11,0,0,0,0,.25s0,.09,0,.13a.63.63,0,0,0,.09.33c-.05-.27-.08-.34-.07-.21a2.81,2.81,0,0,0,0,.81.49.49,0,0,0,1,.13Z"/><path d="M367.64,604.28a19.85,19.85,0,0,0,6.1.56c2,0,4,0,6,0q6.11,0,12.21-.16,12.09-.23,24.18-.71l6.73-.3c.93,0,1.88-.14,2.82-.11a4.2,4.2,0,0,1,1.6.65.7.7,0,0,0,1-.78c-.22-1.59-1.9-1.9-3.25-1.84-2,.08-4,.19-5.93.27q-6.23.27-12.46.47-12.52.39-25,.51l-7,0c-2.32,0-4.73-.15-7,.56a.45.45,0,0,0,0,.86Z"/><path d="M427.34,603h-.07l.36.2-.47.41c0,.16,0,.32,0,.48a7.17,7.17,0,0,1-.07.81,12.49,12.49,0,0,0-.16,1.37c0,1-.06,2.1-.08,3.15,0,1.94-.1,3.89-.16,5.83-.12,3.9-.32,7.8-.56,11.7-.48,7.9-1.18,15.8-1.94,23.68s-1.56,15.71-2.24,23.57c-.34,3.9-.66,7.8-1,11.7a50.45,50.45,0,0,0-.38,5.48,7.27,7.27,0,0,0,.8,3.3c1.13,2.13,3.35,3.22,5.51,4.05a32.12,32.12,0,0,1,7,3.07c.66.46,1.25-.6.62-1.06a29.84,29.84,0,0,0-6.24-3.12c-1.77-.77-3.9-1.66-5-3.32a5.21,5.21,0,0,1-.85-2.92,49.7,49.7,0,0,1,.43-5.72c.37-4.06.72-8.13,1.1-12.19,1.48-16.15,3.3-32.28,4.18-48.47.24-4.54.45-9.1.42-13.64,0-1.13,0-2.26,0-3.39,0-.57,0-1.14-.05-1.7s-.17-1.12-.24-1.7.11-1.86-.76-1.88a.59.59,0,0,0-.4,1,.4.4,0,0,0,.39.1h.07a.4.4,0,0,0-.11-.79Z"/><path d="M659.57,625.27a17.76,17.76,0,0,0-7.83-9.93,2.74,2.74,0,0,0-3.87.76,7.79,7.79,0,0,0-.68,4.57c.19,2.39.52,4.73.49,7.14a48.51,48.51,0,0,1-.68,8.08,123.22,123.22,0,0,1-4.3,15.76q-5,15.76-10.88,31.25-2.93,7.74-6.07,15.4-1.59,3.87-3.24,7.73a35,35,0,0,1-3,6c-1.13,1.68-2.79,3-4.93,2.79s-3.87-1.54-5.48-2.72a32.32,32.32,0,0,0-5.7-3.73,29.2,29.2,0,0,0-6.91-2c-5.43-1-10.91-1.76-16.37-2.5s-11.22-1.39-16.87-1.7a120.09,120.09,0,0,0-16.86.16c-5.56.47-11.07,1.31-16.6,2-2.74.33-5.49.63-8.24.83-1.42.1-2.85.17-4.28.21a21.34,21.34,0,0,1-3.75-.1,5.53,5.53,0,0,1-4.54-4.21,29.8,29.8,0,0,1-1.08-7.21c-.66-11.12,1.22-22.19,2.54-33.2a233.32,233.32,0,0,0,1.66-33.73c0-1.35-.08-2.69-.14-4s-.29-2.78-.37-4.17c-.07-1.06-1.73-1.07-1.67,0,.09,1.38,0,2.78.07,4.17s.12,2.88.15,4.32q.1,4.26,0,8.5c-.08,5.62-.36,11.24-.86,16.83-1,11.08-3,22.1-3.08,33.25a83,83,0,0,0,.35,8.35,35.84,35.84,0,0,0,1.11,7.15,7.25,7.25,0,0,0,3.4,4.55c2.17,1.1,4.84.84,7.2.75,11.21-.43,22.22-2.94,33.43-3.32s22.65,1,33.84,2.65c2.79.42,5.58.86,8.37,1.3a43,43,0,0,1,7.28,1.62,21.46,21.46,0,0,1,6,3.44,22.87,22.87,0,0,0,5.37,3.45,7,7,0,0,0,5.75-.2,9.83,9.83,0,0,0,4-4.41c1.16-2.22,2.06-4.6,3-6.91,1.08-2.56,2.15-5.14,3.19-7.71q6.23-15.35,11.61-31,2.71-7.89,5.21-15.86a92.12,92.12,0,0,0,3.86-15.77,31.9,31.9,0,0,0,.12-8c-.28-2.17-1.21-4.19-1.37-6.37-.1-1.38,0-3.85,1.86-4,1.23-.08,2.43.94,3.33,1.67a17.23,17.23,0,0,1,2.44,2.39,17.61,17.61,0,0,1,3.28,5.89c.13.4.77.23.64-.18Z"/><path d="M557.51,472.72a10,10,0,0,0,1.2-2.48c.37-.92.65-1.87,1-2.8.7-1.81,1.49-3.6,2.3-5.37,1.64-3.62,3.05-7.38,4.37-11.13.36-1,.68-2.09,1-3.14a16.53,16.53,0,0,0,.68-3.18c0-.23-.31-.24-.39-.05-.34.92-.58,1.9-.89,2.84s-.65,1.81-1,2.7c-.76,1.87-1.65,3.68-2.58,5.47s-1.93,3.41-2.74,5.2-1.62,3.6-2.26,5.47c-.35,1-.73,2.08-1,3.14a10.2,10.2,0,0,0-.23,1.66,4.14,4.14,0,0,0,0,1.53.32.32,0,0,0,.52.14Z"/><path d="M1043.32,264.72c-31.79,10.07-63.5,20.38-95.22,30.65q-13.53,4.38-27,8.86l1.08.61c-1.85-5.74,1-11.75,5.61-15.29a13.94,13.94,0,0,1,8-3c1.1,0,3.16-.14,3.75.88.86,1.48-.14,4.07-.86,5.39-3.58,6.52-12.29,6.59-18.47,9a41,41,0,0,0-14.29,9.59c-20.84,21.14-18.82,52.66-23.88,79.74-5.44,29.1-21.82,54-36.84,78.93-14.81,24.56-29.21,51.06-31.09,80.29a79.43,79.43,0,0,0,7.63,40.21c5.78,11.8,14.31,22,23.69,31.08,4.89,4.74,10,9.22,15.26,13.58s10.2,8.62,15.61,12.46,11.56,6.72,18.33,6.25A29.09,29.09,0,0,0,911,647c10.67-8.92,14.32-23.4,16.44-36.54a210.29,210.29,0,0,0,1.92-44.71c-1.65-30.67-7.93-60.83-11.4-91.3a294,294,0,0,1-2.13-46c.68-15.95,3.73-31.55,6.94-47.15,3.13-15.26,6.17-30.65,6.49-46.28.13-6.16.07-12.22-2.62-17.9-1.77-3.71-5-8.09-9.52-8.17a7.36,7.36,0,0,0-2.78.54c-1.16.46-.92.86-1.08,2.14q-.78,6.07-1.48,12.16c-.94,8.25-1.73,16.51-2.45,24.78-1.43,16.41-2.61,32.84-4,49.25-2.66,31.35-6.1,62.76-13.58,93.38C885,518.72,875,545.73,860,570a197.23,197.23,0,0,1-12.41,17.84c-2.13,2.74-4.4,5.34-6.6,8-1.84,2.24-3.69,4.75-4.1,7.7-.7,5,3.38,9.44,7.28,12s8.65,4,13.25,5c9.08,2,20.53,2.6,27.27,9.89,7.89,8.54,3.21,24,14.94,29.81,4.91,2.43,10.79,2.09,16,.94,6.89-1.53,13.41-4.52,19.92-7.18l46.66-19.1,46.65-19.1,11.57-4.73c3.64-1.49,7.45-2.79,11-4.53a5.78,5.78,0,0,0,3.37-6.5c-.52-3.27-2-6.43-2.72-9.67-3.06-13.62-1.34-27.77,1.46-41.27,2.89-13.95,7-27.64,9.19-41.72a109.8,109.8,0,0,0,1.49-20.16,117.79,117.79,0,0,0-3.35-22.71c-1.8-7.94-3.66-15.84-4.77-23.92s-1.72-16.41-2.07-24.65c-.72-16.63-.81-33.31-1.13-50s-.79-33.19-.9-49.78c-.1-16,.41-32,3.55-47.73.13-.65-.87-.93-1-.27-3.14,15.69-3.78,31.66-3.7,47.62.09,16.2.52,32.41.8,48.61.3,16.41.39,32.84,1,49.25a248.48,248.48,0,0,0,5.9,46.82c1.78,7.75,3.61,15.54,4.12,23.5a101.63,101.63,0,0,1-1,21.06c-2,13.79-5.92,27.19-8.93,40.77-2.87,12.94-5.09,26.27-3.35,39.54a65.07,65.07,0,0,0,2,9.48c.44,1.55,1,3.06,1.41,4.63.62,2.61-.1,4.34-2.53,5.49-7.43,3.5-15.3,6.28-22.9,9.39l-92.22,37.75c-6.35,2.59-12.63,5.6-19.32,7.24-5.57,1.37-12.13,2.13-17.21-1.18-5.65-3.69-6.44-10.73-7.71-16.79-1.07-5.1-2.85-9.93-7-13.37-7.22-6-17.53-6.65-26.34-8.67-4.63-1.06-9.35-2.44-13.27-5.22a16.45,16.45,0,0,1-5.41-6.07c-1.91-4,.1-7.77,2.62-10.92,4.24-5.3,8.65-10.41,12.59-16a205,205,0,0,0,11-17.35,247.63,247.63,0,0,0,17.17-37.34c9.85-26.79,15.61-54.86,19.36-83.1,4.26-32.14,6-64.55,8.76-96.84.7-8.14,1.46-16.27,2.33-24.39q.32-3,.67-6.08c.17-1.52-.06-5.26,1.34-6.13,2.3-1.43,5.6.21,7.33,1.75,4.19,3.75,6.18,10,6.43,15.51a136.54,136.54,0,0,1-1.15,23.39c-2,15.72-5.82,31.12-8.69,46.67a224.37,224.37,0,0,0-3.89,44.87c.53,30.26,6.38,60.07,10.37,90,3.92,29.38,6.57,60.5-1,89.53-3.49,13.31-11.19,27-25.55,30.54-7.21,1.76-14-.37-20-4.37-5.82-3.86-11.16-8.58-16.52-13-20.38-17-40.54-37-45.44-64.14-5.24-29,6.53-58.52,20.61-83.34,14-24.66,31-47.84,40.91-74.62,5.28-14.29,7.27-29,8.9-44.1,1.57-14.42,3.12-28.88,9.74-42,5.57-11.07,14.41-20.88,26.59-24.51,5.83-1.74,12.67-2.51,16.22-8.12a8.72,8.72,0,0,0,1.3-6.9c-.59-2.11-3.7-2-5.54-1.86-9.45.59-17.67,10.73-14.8,20.08a.91.91,0,0,0,1.09.62c31.79-10.07,63.5-20.39,95.2-30.75q13.5-4.41,27-8.89c1-.33.57-1.89-.44-1.57Z"/><path d="M1055.43,268.28a10.89,10.89,0,0,0-3.64-6.53,17.7,17.7,0,0,0-8.42-3.32c-3.68-.6-7.45-.69-11.17-.95q-6-.42-12-.94c-15.87-1.38-31.69-3.26-47.49-5.27s-31.45-4.12-47.2-6-31.65-3.57-47.53-4.61c-6.92-.45-13.87-.57-20.76-1.37-6.23-.73-12.78-2.1-18.15-5.51a26.2,26.2,0,0,1-3.72-2.93l-.71,1.22a97.25,97.25,0,0,1,33.87,21.48c5,4.75,9.56,9.83,14.34,14.76s9.85,9.79,15.06,14.39A178.18,178.18,0,0,0,916,297.26l-.43-1c-.61,3.58-4.68,5-7.89,4.36-4.08-.77-7.58-3.86-10.86-6.22-3.67-2.64-7.3-5.34-10.7-8.31s-6.3-5.95-9.29-9.08a169.71,169.71,0,0,0-17.47-16.44c-5.8-4.58-11.87-8.83-17.63-13.48-6.42-5.17-12.49-10.89-17-17.86-.41-.64-1.44-.05-1,.6,8.47,13.19,22,21.58,34.07,31,3.08,2.41,6.1,4.9,8.95,7.57,3.32,3.11,6.41,6.43,9.55,9.71a135.19,135.19,0,0,0,9.83,9.47c3.52,3,7.25,5.71,11,8.4,3.58,2.56,7.51,5.83,12.12,6,3.45.15,7.17-1.79,8.1-5.28a.92.92,0,0,0-.24-.9c-5.5-4.48-11.17-8.72-16.52-13.39s-10.3-9.35-15.17-14.31c-9.6-9.79-18.57-20.2-30.12-27.78a86.61,86.61,0,0,0-20.27-9.68.74.74,0,0,0-.71,1.22c9.51,8.37,22.63,9.06,34.66,9.68,15.73.81,31.43,2.25,47.08,4s31.48,3.8,47.21,5.8,31.31,3.92,47,5.44q11.71,1.14,23.46,1.92c3.86.25,7.8.31,11.58,1.23,3,.74,6,2,7.77,4.64a11.22,11.22,0,0,1,1.58,3.91c.11.47.81.27.72-.19Z"/><path d="M823.41,229.28c-3.52,3.52-4,8.42-4.57,13.13q-1.26,9.76-2.49,19.54-2.48,19.55-4.87,39.1-4.79,39.13-9,78.32c-5.5,52.22-9.66,104.55-11.51,157-1,29.36-1.41,58.73-.82,88.1a.64.64,0,0,0,1.08.45c6.07-6.36,16.13-3.44,21.13,2.67a29.69,29.69,0,0,1,5.52,11.83c1.18,4.77,1.16,9.44,1.53,14.29.26,3.45,2.5,4.74,5.7,5.12,5,.58,10,.85,15.06,1.21q15.35,1.08,30.71,1.57,17.5.51,35,.25a.58.58,0,0,0,0-1.15q-32,.25-64-1.88c-5.39-.37-10.81-.69-16.18-1.27-2.92-.32-4.88-1.26-5-4.51-.1-2.48-.09-4.93-.39-7.4-.95-8-3.54-16.77-10.14-22-5.65-4.45-14.59-5.13-19.83.35l1.08.44c-1-51.92,1-103.81,4.91-155.58,3.84-51.54,9.32-102.95,15.48-154.25q2.61-21.71,5.35-43.37,1.33-10.62,2.69-21.25c.46-3.68.86-7.37,1.42-11,.46-3.07,1.16-6.22,3.26-8.61.67-.76-.39-1.85-1.12-1.12Z"/><path d="M1042.87,264.8c-10.7-2.48-21,2.6-31.49,3.59a107.4,107.4,0,0,1-16.73,0c-5.55-.34-11.1-.78-16.64-1.25q-16.66-1.44-33.23-3.63-16.75-2.19-33.39-5.1-8.24-1.42-16.43-3c-2.6-.5-5.2-1-7.78-1.58a27.64,27.64,0,0,1-6.62-2.24,14.42,14.42,0,0,1-2.95-2l-.39.95,18,.23,8.91.11a59.59,59.59,0,0,0,8-.18,14.86,14.86,0,0,0,6.68-2.33,16.37,16.37,0,0,0,4.51-4.83c2.69-4.26,3.63-9.24,4.89-14a37.16,37.16,0,0,1,2.74-7.61,39.41,39.41,0,0,1,4.1-6.23c3.06-3.91,6.52-7.48,9.44-11.51,5.72-7.91,9.44-17.09,11.89-26.5A143.87,143.87,0,0,0,959.3,163c.75-4.94,1.26-9.91,2.07-14.84.2-1.21.26-2.44.36-3.66l-1.23.94c3.91,1.34,8.83,2.89,12.65.46,2.84-1.81,4.44-5.34,2.73-8.45a.74.74,0,0,0-.65-.37c-2,0-3.94.06-5.9,0s-3.94-.3-5.89-.53a98.18,98.18,0,0,1-11.79-2.17.53.53,0,0,0-.65.37c-.63,2.31-1.33,4.59-1.88,6.92a.89.89,0,0,0,.4,1l1.91,1.33-.41-1c-.19,1.07-.38,2.14-.55,3.22a1,1,0,0,0,.9,1.18,74.09,74.09,0,0,1,14.5,3l-.6-.78c-.07,6.5-.57,13-1,19.5s-1.1,13-1.84,19.46q-2.19,19.4-5.74,38.62-.9,4.84-1.87,9.68c-.32,1.58-.65,3.16-1,4.74a34.44,34.44,0,0,1-1,4.53c-.82,2.31-4,1.41-5-.24-1.6-2.56-.39-6.15.14-8.86q3.82-19.26,6.92-38.66t5.42-38.88c.19-1.62.38-3.24.56-4.86.08-.69-1-.69-1.09,0q-2.34,20.42-5.52,40.71t-7.12,40.28c-.57,2.85-1.56,6-1,8.88a5,5,0,0,0,4.28,4.25,3.52,3.52,0,0,0,2.63-.66,5.36,5.36,0,0,0,1.51-3.28q1.11-5,2.08-10Q960.5,215,963,194.94t3.62-40.37c.09-1.67.18-3.34.31-5a.83.83,0,0,0-.6-.79,57.38,57.38,0,0,0-14.93-3.28l.9,1.18c.17-1.07.32-2.15.48-3.23a1,1,0,0,0-.41-1l-2-1.26.4,1c.49-2.35.82-4.73,1.23-7.1l-.65.38a106.19,106.19,0,0,0,11.75,2.21,107,107,0,0,0,12.11,1l-.65-.37c1.31,2.39-.93,5.28-3,6.32-3.26,1.65-7.38.12-10.56-1a1,1,0,0,0-1.23.94c-.43,4.84-.63,9.67-1.24,14.5s-1.45,9.7-2.53,14.47c-2.13,9.39-5.36,18.61-10.55,26.77a107.29,107.29,0,0,1-9,11.5c-3.11,3.66-6.06,7.49-7.85,12-1.94,4.85-2.54,10.12-4.42,15-1.65,4.25-4.39,8.44-8.9,10a23.26,23.26,0,0,1-7.61.94c-2.84,0-5.68,0-8.52-.08l-17.66-.18-4.28,0a.56.56,0,0,0-.4.95c3.51,3.1,8.12,4.17,12.59,5.07q8.28,1.67,16.58,3.16,16.6,3,33.34,5.28t33.34,3.89q8.4.81,16.82,1.46c5.57.43,11.16.85,16.76.75a91.05,91.05,0,0,0,16.19-2c5.28-1.07,10.56-2.16,16-2.07a26.19,26.19,0,0,1,4,.38c.93.16,1.34-1.21.4-1.43Z"/><path d="M986.61,253.52c.65-5.61,1-11.23,1.43-16.86s.8-11.23,1.24-16.84c.89-11.19,1.76-22.37,2.86-33.53q.47-4.69,1-9.39c.33-3.18.56-6.4,1.15-9.54a.84.84,0,0,0-.59-1,115.72,115.72,0,0,0-12-1.39l.9.9c.13-1.54.22-3.08.48-4.6a22,22,0,0,1,1-4.26c.56-1.39,1.74-1.52,3.08-1.38a14,14,0,0,0,3.66,0c2.58-.41,5.29-1.65,7.93-.94a6.42,6.42,0,0,1,3.27,9.58l.48-.12a39.13,39.13,0,0,0-7-1.73,32.37,32.37,0,0,0-7.23-.11.54.54,0,0,0-.52.68c1.71,5.28,1.43,11.14.65,16.56-.8,5.58-2.2,11.06-3.35,16.58-2.36,11.3-4.15,22.73-5.42,34.21Q978.52,240,978,249.81l.74-.43a16.77,16.77,0,0,0-10-2.83,40.48,40.48,0,0,0-5.5.41c-.93.13-1.85.28-2.77.43a12.3,12.3,0,0,1-2.7.32,2.4,2.4,0,0,1-2.32-1.61,7.77,7.77,0,0,1-.32-2.84,15.24,15.24,0,0,1,1.42-5.85c1.67-3.74,4.41-6.8,7.25-9.7a84.9,84.9,0,0,0,8.22-9,44.81,44.81,0,0,0,5.11-9.15c2.8-6.6,4.32-13.64,5.81-20.62s3-14.17,5.65-20.9c.34-.86.7-1.71,1.08-2.56.25-.54-.56-1-.81-.47-3.05,6.71-4.76,13.9-6.32,21.07s-3,14.39-5.59,21.25A47,47,0,0,1,972,217a65.08,65.08,0,0,1-8.2,9.28,37.76,37.76,0,0,0-7.49,9.66,18.46,18.46,0,0,0-1.79,5.56,9.17,9.17,0,0,0,.42,5.29c.82,1.6,2.61,1.74,4.2,1.52,1.89-.26,3.77-.59,5.67-.77,3.69-.34,7.65-.3,11.07,1.31a12.83,12.83,0,0,1,2.31,1.38c.32.23.72-.09.74-.43.68-11.68,1.91-23.34,3.7-34.9q1.33-8.59,3.06-17.11c1.12-5.58,2.52-11.12,3.41-16.74a57,57,0,0,0,.81-9.21,39.43,39.43,0,0,0-1.19-9.18l-.51.68a51.21,51.21,0,0,1,7,.35,39.87,39.87,0,0,1,6.95,1.34.5.5,0,0,0,.55-.22c2.56-3.32,1-8.74-2.61-10.61-2.52-1.28-5.34-.44-7.92.16a13.4,13.4,0,0,1-4.63.4c-1.18-.13-2.51-.28-3.47.56a3.74,3.74,0,0,0-1,1.78c-.29.88-.54,1.78-.81,2.67a57.7,57.7,0,0,0-1.49,5.82c-.08.42.11,1,.62,1.1A116.77,116.77,0,0,0,993.44,168l-.85-.84c-.08,2.81-.46,5.6-.75,8.4s-.58,5.6-.86,8.4c-.56,5.6-1.08,11.21-1.61,16.82q-1.61,16.81-2.79,33.67c-.45,6.36-.88,12.72-.9,19.09,0,.62.87.58.93,0Z"/><path d="M1047.38,607.74a99.38,99.38,0,0,0-.45,12.45c0,4.18,0,8.37,0,12.56q0,12.56,0,25.12v64.35a138.06,138.06,0,0,0,.3,14.1.7.7,0,0,0,1.39,0,122.34,122.34,0,0,0,.3-12.56V686.07q0-25.12,0-50.25c0-4.69,0-9.4,0-14.1s.16-9.38-.47-14a.53.53,0,0,0-1,0Z"/><path d="M792.51,622.61a95.08,95.08,0,0,0-.36,12.41q0,6.24,0,12.49v95.87a63,63,0,0,0,.2,7.14.8.8,0,0,0,1.59,0,56.51,56.51,0,0,0,.2-6.38V650.57q0-7,0-14c0-2.29,0-4.59,0-6.88a61.58,61.58,0,0,0-.34-7.06.65.65,0,0,0-1.25,0Z"/><path d="M802.76,622a18.57,18.57,0,0,0-.39,3.32c-.06,1.12-.15,2.25-.18,3.37-.05,2.28-.09,4.57-.09,6.85q0,6.79,0,13.59v38.76c0,.66,0,1.33,0,2a12.54,12.54,0,0,0,.32,1.93.7.7,0,0,0,1.34,0c.1-.51.24-1,.3-1.55s0-1.25,0-1.87V664.57c0-9.1,0-18.19,0-27.29,0-2.58,0-5.15-.08-7.73,0-1.25-.13-2.49-.18-3.74a21.26,21.26,0,0,0-.41-3.82.32.32,0,0,0-.62,0Z"/><path d="M803.78,692.38c5,.35,10,.32,14.93.43,6.55.14,13.1.33,19.65.53,16.28.51,32.56,1.13,48.84,1.76q27,1,53.95,2.12,24.84,1,49.68,1.83c12.26.4,24.57,1,36.84.68,1.06,0,2.13-.08,3.19-.08a.69.69,0,0,0,0-1.38c-5,0-10-.28-14.93-.45-6.55-.22-13.1-.39-19.65-.59q-24.42-.76-48.84-1.75l-54-2.13c-16.56-.64-33.12-1.28-49.68-1.82-12.26-.4-24.57-1-36.84-.84-1.07,0-2.13.09-3.19.16a.77.77,0,0,0,0,1.53Z"/><path d="M1031.38,698.86a12,12,0,0,0,.47-4.14c0-1.34,0-2.67,0-4v-8.25c0-5.49-.07-11-.11-16.49q-.12-16.54-.22-33.1,0-4.62-.07-9.24c0-3.13,0-6.26-.22-9.37a.37.37,0,0,0-.74,0c-.22,2.74-.19,5.49-.21,8.24l-.06,8.25q0,8.24-.1,16.49l-.24,33.1c0,3.08,0,6.16,0,9.24v4.63a13.64,13.64,0,0,0,.47,4.64.54.54,0,0,0,1,0Z"/><path d="M1048.51,736.27a25,25,0,0,0-7.75-.75,50.47,50.47,0,0,0-7.85.81l1.16.89c.22-3.3.26-6.61.36-9.92s.33-6.62.28-9.91l-1.94.26c.21.55.42,1.08.64,1.62a.79.79,0,0,0,1.53-.42c-.08-.58-.17-1.15-.27-1.72-.2-1.16-1.86-.78-1.93.26-.24,3.29-.21,6.62-.29,9.91s-.24,6.61-.21,9.92a.93.93,0,0,0,1.16.88,41.86,41.86,0,0,1,7.48-1.06c2.51-.14,5,.11,7.52,0a.4.4,0,0,0,.11-.78Z"/><path d="M1033.64,715.76c-7.54-1-15.25-.91-22.85-1.17l-22.67-.78q-22.27-.76-44.54-1.56-44.43-1.56-88.87-3.12c-17-.59-34-1.45-50.93-1.25a.53.53,0,0,0,0,1c15.14,1.17,30.34,1.48,45.51,2l44.55,1.56q44.43,1.56,88.86,3.12l25.36.86,12.76.43a127.49,127.49,0,0,0,12.82,0,.58.58,0,0,0,0-1.15Z"/><path d="M803.91,708.76a8.66,8.66,0,0,0-.6,3.81c0,1.32,0,2.65,0,4v8.08c0,5.38,0,10.77,0,16.15,0,3.07.06,6.13.12,9.2a.87.87,0,0,0,1.74,0c.21-10.77.13-21.54.11-32.31,0-1.49,0-3,0-4.47a10.22,10.22,0,0,0-.61-4.43.4.4,0,0,0-.68,0Z"/><path d="M804.1,750a12,12,0,0,0-5.19-1.3,15.72,15.72,0,0,0-2.74.13c-.92.13-1.8.45-2.71.57a.76.76,0,0,0-.53.54l0,.1a.61.61,0,0,0,.15.59l.07,0a.8.8,0,0,0,.92.12,7.45,7.45,0,0,1,2.46-.73,14.9,14.9,0,0,1,2.4-.24,21.53,21.53,0,0,1,5,.64c.27.06.46-.33.2-.47Z"/><path class="cls-2" d="M1105.2,189.23q-.35-20.79-.7-41.56c-.3-17.49-.59-117.4-.89-134.89,0-2.75-.19-5.77-2-7.82s-4.67-2.49-7.33-2.74-5.25-.37-7.88-.39c-7.33-1.65-21.83.72-27,.7l-68.92-.25L848.8,1.75,569.31.71,446.6.25C365,0,283.38-.36,201.79,1.11,142.27,2.19,82.76,4.2,23.23,4.54c-2.7,50.24-5.4,182.92-8.1,233.16-.53,9.9-1,20,1.54,29.56,2.45,9.11,7.65,17.53,8.34,26.93,1.35,18.23-21,34.39-19.87,52.63C6,361.16,17.2,373.1,19.07,387.35c2.23,16.93-8.9,32.35-14.23,48.57-10.6,32.2-.47,62.94-.51,96.81,0,20,0,40,.73,60.06C7.81,671.7-3.47,730,13.13,796a145.46,145.46,0,0,1,101.1-1.79c14.4,5.11,30.59,12.47,44.05,5.25,6.08-3.26,10.36-9,15.73-13.34,16.67-13.4,40.89-11.12,61.45-5.24s41.21,14.78,62.46,12.34c16.17-1.85,31-10.18,47.15-12.37,39.7-5.4,80.58,26.7,117.76,11.8,9.5-3.81,17.69-10.45,27.3-13.95,41.4-15.11,87.31,32.3,128.1,15.63,8.7-3.55,16.11-9.78,24.88-13.13C672,770.16,702,793,732.37,798.71c43.1,8.14,87.19-18.78,130.21-10.26,23.47,4.66,47,19.66,69.55,11.76,11.51-4,20.46-13.55,32-17.63,37.95-13.48,82.8,36.3,115.59,12.93.93-.66,1.8-1.37,2.64-2.1a45.69,45.69,0,0,0,18.48-20c7-14.79,7.24-31.76,7.36-48.12q.28-40.87.58-81.75.23-31.87.38-63.77C1109.59,449.55,1107.4,319.38,1105.2,189.23ZM656.67,576.12c3.5,13.41,8.64,26.93,7,40.69-.9,7.36-3.72,14.33-6.5,21.21q-14.1,34.83-27.78,69.84a16.9,16.9,0,0,1-22.22,9.37c-15-6.08-34.21-4.21-51.11-2.37-23.16,2.51-52.29-.09-61.3-21.58-3.8-9-2.77-19.31-1.67-29.06q6.88-61.37,13.78-122.71c-.5,4.45-28.21,9.85-32.37,13.38-8.79,7.44-8.16,14-9.6,25.94-3.75,31-7.31,62.11-11,93.17-1.68,14.28-8.88,33-23,30.55-12.43-2.17-15-18.67-14.62-31.29l1.83-61.15a98.76,98.76,0,0,0-45.8,1.1q-3.63,36.84-7.27,73.67c-1.1,11.2-3.64,24.46-14,28.86s-22.44-3.73-26.55-14.13-2.43-22.08-.7-33.12l12.39-78.93c1.67-10.61,3.19-22.14-2-31.55s-20.1-13.77-26.68-5.28a117.72,117.72,0,0,1-4.85-83c1.39-4.38,3.17-8.88,6.66-11.88,6-5.18,15-4.31,22.91-3.66a184.69,184.69,0,0,0,86-13.6c18-7.5,34.55-17.78,50.7-28.71l10.79-5.93c5.27-2.89,11.73-5.82,17-2.93a21.7,21.7,0,0,1-.51,8.26c4.11-1.85,9.22,1.58,10.17,6s-1.36,9-4.7,12-7.58,4.83-11.69,6.69a246.75,246.75,0,0,0-58.93,37.53c12.38-1.71,25.08,8.69,25.84,21.16.11,1.74.11,3.73,1.42,4.89s3.59.86,5.38.29c14.07-4.47,25.33-15.38,33.39-27.74s13.34-26.28,19.12-39.87c7.76-18.24,16.73-36.4,30.48-50.68-9.35-2.37-11.38-14.61-11.16-24.26q.27-11.44,1.21-22.86c1.7-20.64,6.76-43.79,24.5-54.49,11-6.61,25-6.87,37.08-2.71a71.37,71.37,0,0,1,23.43,14.12c9.18,14.09,13.33,31.52,10.16,48.08-1.42,7.4-4.14,14.87-2.75,22.29,2.84,15.19,20.44,22,30.49,33.73,20.81,24.3,5.31,60.73-2.85,91.66A176.49,176.49,0,0,0,656.67,576.12ZM1024.3,740.73c-18.29-4,31.59-13.48-26.78-19.74-57.8-6.2-127-3.6-182.92-8.62,1.76,9.15,2.6,26-.58,34.77s-13.25,15.74-21.85,12.15c-8.95-3.74-10.78-15.4-11.24-25.09A2360.48,2360.48,0,0,1,791.38,375c5.13-48.47,11.74-97.18,15.14-145.82,14.66-9.87,37.25-7.75,55.92-4.1l56.54,11c-4.43-28.8,31.68-49.47,33.91-78.53-7.81,5-17.89-6.43-14.79-15.17s13.21-12.83,22.43-13.76c6.76-.68,15.56,1.39,16.49,8.12a15,15,0,0,1-.31,4.53q-6,34.88-11.92,69.76a63,63,0,0,0,13.53-48.57c-.51-3.5-1-7.88,2-9.84,1.63-1.09,3.75-1,5.7-.75a120.14,120.14,0,0,1,19.62,3.8c3.41,5.29-1,13.58-7.25,13.77q-2.6,39.16-5.2,78.32a249.5,249.5,0,0,1,48.47,4.34c8.54,1.61,18.22,4.67,21.45,12.75,1.74,4.37,1.14,9.27.56,13.94a563.19,563.19,0,0,0,1,145.31c3.16,23,7.75,45.87,7.71,69.06,0,15.86-2.22,31.62-4.41,47.33s-4.41,31.61-6.62,47.42c-7.22,51.7-10.91,102.73-9.28,154.38C1041.64,743,1031.49,742.3,1024.3,740.73Z"/><path class="cls-2" d="M425.52,544.53c-2.79-1.22-3.27-4.85-4.41-7.67-.39-1-1.51-2-2.28-1.33a1.37,1.37,0,0,0-.37.75c-.38,1.72.65,3.39,1.4,5s1.11,3.75-.21,4.9a4.11,4.11,0,0,1-2.12.8c-5.88.84-11.58-1.93-17.38-3.18s-11.6-1-17.42-.73l-1.45-.13L377,570.14c-.22,1.34-.34,3,.72,3.82a3.68,3.68,0,0,0,1.51.63c8.22,2,16.82,1.45,25.26.85l18.95-1.34a2.47,2.47,0,0,0,1.49-.44,2.44,2.44,0,0,0,.62-1.66l2.7-23.8a3.35,3.35,0,0,0-.38-2.52C427.27,545,426.32,544.88,425.52,544.53Z"/><path class="cls-2" d="M1023.29,622.55c-30.37,17.53-64.19,28.07-97.68,38.47a120.32,120.32,0,0,1-17.47,4.47c-6.86,1-13.84.88-20.77.71l-60-1.42c-4.6-.11-10-.65-12.37-4.59-1.33-2.17-1.34-4.88-1.23-7.42.43-9.38.84-21.25-7.62-25.33l.48.5q1.26,27.33.86,54.69c7.7,2.89,16.11,3.12,24.33,3.3l192.48,4.43Q1022.2,656.5,1023.29,622.55Z"/><path d="M666.15,731.38c-11.16-9-25.45-12.48-39.48-13.7-7.34-.64-14.72-.69-22.08-.6-8.66.1-17.35.21-26,.93s-17,2.59-25.47,3.88-17.24,1.52-25.3-2c-6.76-3-12.87-7.67-20.22-9.19-6.06-1.25-12.27-.09-18.11,1.67-6.09,1.84-11.95,4.38-18.06,6.18-5.55,1.63-11.54,2.67-17.16.77a19.47,19.47,0,0,1-4.1-1.94c-.43-.27-.82.4-.4.68,10.45,6.85,23.19,1.05,33.64-2.7,5.92-2.12,12.07-4.2,18.41-4.29,7.53-.11,13.86,3.51,20.29,7a48.41,48.41,0,0,0,10.36,4.45,40.54,40.54,0,0,0,12.22,1.19c8.38-.35,16.56-2.47,24.83-3.73a212.41,212.41,0,0,1,27.15-1.87c7.51-.16,15-.31,22.52,0,14.41.55,29.4,2.74,41.81,10.59a53.45,53.45,0,0,1,4.62,3.27c.37.28.89-.23.52-.53Z"/><path d="M1068.91,748.2q-18.5-1.74-37-3.25c-12.13-1-24.28-2.06-36.43-2.73-4.93-.28-10.22-.22-14.63,2.28-4.09,2.31-6.5,6.57-10.31,9.23-6.49,4.54-14.3,1-20.63-2-5.83-2.72-13-6.75-19.62-4.29a13,13,0,0,0-2.15,1,.46.46,0,0,0,.46.79c6.33-3.8,13.73-.07,19.68,2.7s13.1,6.53,19.76,4.06c4.23-1.57,6.82-5.33,10-8.31a16.11,16.11,0,0,1,6.41-3.83,26.39,26.39,0,0,1,7.55-1c5.77,0,11.58.65,17.33,1.06q9.22.66,18.44,1.36c12.23.92,24.45,2,36.68,2.94l4.51.38c.32,0,.31-.46,0-.49Z"/><path d="M832.83,761.54l-69.75-1.82c-5.51-.15-11.13-.51-16.58.48-5,.91-9.39,3.39-14.11,5.11a20.07,20.07,0,0,1-12.66.78,34.83,34.83,0,0,1-9.78-5c-6-4-11.56-9.15-18.52-11.43a19.64,19.64,0,0,0-10.8-.45c-4.44,1.07-8.44,3.37-12.62,5.14a26,26,0,0,1-14.76,1.91c-4.8-.8-9.41-2.47-14.15-3.55a28.36,28.36,0,0,0-13.76-.16c-5.09,1.37-9.75,3.95-14.83,5.39-21,5.91-42.94-1.41-62.46-9.07-2.48-1-5-2-7.43-3-.54-.21-.76.64-.24.86,19.15,8.06,40.2,16.34,61.39,13.89a57.74,57.74,0,0,0,15-3.82c4.92-2,9.73-4.22,15.14-4.12,9.67.17,18.58,5.82,28.36,4.81,9.14-.95,16.55-8.42,25.95-7.93,7.57.4,13.9,5.56,19.79,9.81,5.59,4,11.79,8.36,19,8.3,4.61,0,8.85-2,13-3.77a43,43,0,0,1,7.69-2.69,41.32,41.32,0,0,1,8.67-.85c11.62-.11,23.29.52,34.92.8l34.87.86,8.72.21c.49,0,.49-.74,0-.75Z"/><path d="M386.82,722.14c-5.61-3.58-12.32-4.44-18.83-4.69-7.66-.29-15.34-.24-23-.34l-24.1-.31c-7.8-.1-15.62-.08-23.42-.33-7.56-.25-14.95-1.22-21.93-4.28-6.09-2.67-11.9-6.09-18.59-7-10.94-1.51-21.81,2.39-32.14,5.45-9.81,2.92-21.19,6.24-31,1.57a25.43,25.43,0,0,1-3.31-1.92c-.5-.35-1,.47-.47.81,8.83,6,19.58,4.64,29.36,2,10.74-2.85,21.46-7.36,32.74-7.34a32.2,32.2,0,0,1,8.4,1.07,60.52,60.52,0,0,1,9.86,4,76.2,76.2,0,0,0,9.45,4A52.37,52.37,0,0,0,290.57,717c7.58.77,15.26.57,22.87.66q11.94.14,23.9.27l24.1.27c6.83.07,13.94,0,20.44,2.4a24.16,24.16,0,0,1,4.52,2.26c.45.29.86-.42.42-.71Z"/><path d="M256,684.61c-3.06-4.52-8.28-6.35-13.56-6.5-6.46-.19-12.4,2-18.35,4.21-7.1,2.68-15,5.54-22.53,3-6.4-2.15-11.25-7.28-17.51-9.74-12.65-5-25.2,4-36.91,7.66A35.74,35.74,0,0,1,136.37,685a67.94,67.94,0,0,1-12.53-1.56l-25-4.85c-16.76-3.25-33.51-6.62-50.3-9.71l-6.28-1.15c-.44-.08-.63.58-.18.67,16.59,3.38,33.22,6.54,49.85,9.76L116.75,683c7.79,1.5,15.92,3.68,23.91,2.62,6.53-.87,12.58-3.67,18.6-6.17S171.48,674.46,178,675c7,.55,12.14,5.07,17.89,8.49a24.06,24.06,0,0,0,9.13,3.43,27.43,27.43,0,0,0,10.58-.95c6.81-1.79,13.11-5.24,20-6.54,5.49-1,12-1,16.66,2.38a12.46,12.46,0,0,1,3.05,3.18c.25.37.86,0,.61-.35Z"/><path d="M661,633.63a10,10,0,0,1,15-1,32.5,32.5,0,0,0,3.59,3.25,11.52,11.52,0,0,0,4.2,1.79,25.87,25.87,0,0,0,9.16-.11c3.79-.56,7.56-1.17,11.38-1.5s7.72-.54,11.58-.72c7.77-.36,15.55-.82,23.34-.92,4.38-.05,8.77,0,13.14.35s8.79,1.12,13.19,1.88a.37.37,0,0,0,.2-.72,66.25,66.25,0,0,0-11.72-1.87c-3.91-.35-7.84-.49-11.77-.5-8,0-16,.47-24,.84a206.86,206.86,0,0,0-23.58,2.06c-3.37.54-6.9,1.13-10.3.5a11.06,11.06,0,0,1-4.52-1.87c-1.46-1-2.61-2.44-4-3.61-4.58-4-12.06-3.33-15.62,1.72-.3.42.38.8.68.4Z"/><path d="M305.59,653.34c-1.41-3.27-4.73-4.75-8.11-5.08-4.24-.41-8.11,1-12.05,2.33a32.35,32.35,0,0,1-7.89,2,12.52,12.52,0,0,1-7.42-1.69c-2-1.11-3.87-2.46-6.14-2.87a12.68,12.68,0,0,0-6.63.87c-2.31.86-4.49,2-6.8,2.88a20.3,20.3,0,0,1-7.6,1.29c-5.36-.1-10.53-1.88-15.64-3.35a63.27,63.27,0,0,0-15.08-2.59,130.58,130.58,0,0,0-15.32.52c-10.15.79-20.62,1.9-30.61-.74-1.21-.32-2.41-.7-3.59-1.13-.26-.09-.36.32-.11.42,9.38,3.75,19.66,3.3,29.55,2.56,10.1-.77,20.4-1.89,30.38.43,5.14,1.2,10.11,3.09,15.31,4a27.7,27.7,0,0,0,7.38.48,22.23,22.23,0,0,0,6.83-1.78c4.46-1.88,9.19-4.73,14.06-2.49,2.06.95,3.87,2.4,6,3.19a13.63,13.63,0,0,0,7,.45c5.24-.88,9.95-3.78,15.29-4.17,4.05-.3,8.81.64,10.59,4.76.17.4.75.05.58-.34Z"/></g></g></svg>