<svg xmlns="http://www.w3.org/2000/svg" xmlns:xlink="http://www.w3.org/1999/xlink" width="1024" zoomAndPan="magnify" viewBox="0 0 768 576" height="768" preserveAspectRatio="xMidYMid meet" version="1.0"><defs><filter x="0%" y="0%" width="100%" height="100%" id="id1"><feColorMatrix values="0 0 0 0 1 0 0 0 0 1 0 0 0 0 1 0 0 0 1 0" color-interpolation-filters="sRGB"/></filter><g/><mask id="id2"><g filter="url(#id1)"><rect x="-76.8" width="921.6" fill="rgb(0%, 0%, 0%)" y="-57.6" height="691.2" fill-opacity="0.2471"/></g></mask><clipPath id="id3"><path d="M 0.28125 1 L 681.640625 1 L 681.640625 2 L 0.28125 2 Z M 0.28125 1 " clip-rule="nonzero"/></clipPath><clipPath id="id4"><rect x="0" width="682" y="0" height="3"/></clipPath><mask id="id5"><g filter="url(#id1)"><rect x="-76.8" width="921.6" fill="rgb(0%, 0%, 0%)" y="-57.6" height="691.2" fill-opacity="0.2471"/></g></mask><clipPath id="id6"><path d="M 0.28125 0 L 681.640625 0 L 681.640625 1.679688 L 0.28125 1.679688 Z M 0.28125 0 " clip-rule="nonzero"/></clipPath><clipPath id="id7"><rect x="0" width="682" y="0" height="2"/></clipPath><mask id="id8"><g filter="url(#id1)"><rect x="-76.8" width="921.6" fill="rgb(0%, 0%, 0%)" y="-57.6" height="691.2" fill-opacity="0.2471"/></g></mask><clipPath id="id9"><path d="M 0.28125 1 L 681.640625 1 L 681.640625 2 L 0.28125 2 Z M 0.28125 1 " clip-rule="nonzero"/></clipPath><clipPath id="id10"><rect x="0" width="682" y="0" height="2"/></clipPath><mask id="id11"><g filter="url(#id1)"><rect x="-76.8" width="921.6" fill="rgb(0%, 0%, 0%)" y="-57.6" height="691.2" fill-opacity="0.6"/></g></mask><clipPath id="id12"><path d="M 0.28125 1 L 681.640625 1 L 681.640625 2.558594 L 0.28125 2.558594 Z M 0.28125 1 " clip-rule="nonzero"/></clipPath><clipPath id="id13"><rect x="0" width="682" y="0" height="3"/></clipPath></defs><g fill="rgb(100%, 100%, 100%)" fill-opacity="1"><g transform="translate(53.124344, 561.617229)"><g><path d="M 4.25 0 L 1.28125 -4.71875 L 1.3125 -4.328125 L 1.328125 -3.671875 L 1.328125 0 L 0.65625 0 L 0.65625 -5.53125 L 1.53125 -5.53125 L 4.53125 -0.796875 C 4.5 -1.304688 4.484375 -1.675781 4.484375 -1.90625 L 4.484375 -5.53125 L 5.15625 -5.53125 L 5.15625 0 Z M 4.25 0 "/></g></g></g><g fill="rgb(100%, 100%, 100%)" fill-opacity="1"><g transform="translate(58.929898, 561.617229)"><g><path d="M 1.625 0.078125 C 1.195312 0.078125 0.875 -0.03125 0.65625 -0.25 C 0.445312 -0.476562 0.34375 -0.789062 0.34375 -1.1875 C 0.34375 -1.625 0.484375 -1.957031 0.765625 -2.1875 C 1.054688 -2.425781 1.523438 -2.554688 2.171875 -2.578125 L 3.125 -2.59375 L 3.125 -2.828125 C 3.125 -3.171875 3.050781 -3.414062 2.90625 -3.5625 C 2.757812 -3.71875 2.53125 -3.796875 2.21875 -3.796875 C 1.90625 -3.796875 1.675781 -3.738281 1.53125 -3.625 C 1.382812 -3.519531 1.296875 -3.347656 1.265625 -3.109375 L 0.53125 -3.1875 C 0.65625 -3.945312 1.222656 -4.328125 2.234375 -4.328125 C 2.765625 -4.328125 3.164062 -4.203125 3.4375 -3.953125 C 3.707031 -3.710938 3.84375 -3.363281 3.84375 -2.90625 L 3.84375 -1.0625 C 3.84375 -0.851562 3.867188 -0.695312 3.921875 -0.59375 C 3.984375 -0.488281 4.09375 -0.4375 4.25 -0.4375 C 4.3125 -0.4375 4.382812 -0.445312 4.46875 -0.46875 L 4.46875 -0.03125 C 4.289062 0.0195312 4.109375 0.046875 3.921875 0.046875 C 3.660156 0.046875 3.46875 -0.0195312 3.34375 -0.15625 C 3.226562 -0.300781 3.164062 -0.519531 3.15625 -0.8125 L 3.125 -0.8125 C 2.945312 -0.488281 2.738281 -0.257812 2.5 -0.125 C 2.257812 0.0078125 1.96875 0.078125 1.625 0.078125 Z M 1.78125 -0.453125 C 2.039062 -0.453125 2.269531 -0.507812 2.46875 -0.625 C 2.675781 -0.75 2.835938 -0.910156 2.953125 -1.109375 C 3.066406 -1.316406 3.125 -1.53125 3.125 -1.75 L 3.125 -2.09375 L 2.359375 -2.078125 C 2.023438 -2.078125 1.769531 -2.046875 1.59375 -1.984375 C 1.425781 -1.921875 1.296875 -1.820312 1.203125 -1.6875 C 1.109375 -1.5625 1.0625 -1.390625 1.0625 -1.171875 C 1.0625 -0.941406 1.125 -0.765625 1.25 -0.640625 C 1.375 -0.515625 1.550781 -0.453125 1.78125 -0.453125 Z M 1.78125 -0.453125 "/></g></g></g><g fill="rgb(100%, 100%, 100%)" fill-opacity="1"><g transform="translate(63.400841, 561.617229)"><g><path d="M 2.171875 -0.03125 C 1.941406 0.03125 1.707031 0.0625 1.46875 0.0625 C 0.894531 0.0625 0.609375 -0.257812 0.609375 -0.90625 L 0.609375 -3.734375 L 0.125 -3.734375 L 0.125 -4.25 L 0.640625 -4.25 L 0.84375 -5.203125 L 1.3125 -5.203125 L 1.3125 -4.25 L 2.109375 -4.25 L 2.109375 -3.734375 L 1.3125 -3.734375 L 1.3125 -1.046875 C 1.3125 -0.847656 1.34375 -0.707031 1.40625 -0.625 C 1.476562 -0.539062 1.597656 -0.5 1.765625 -0.5 C 1.859375 -0.5 1.992188 -0.515625 2.171875 -0.546875 Z M 2.171875 -0.03125 "/></g></g></g><g fill="rgb(100%, 100%, 100%)" fill-opacity="1"><g transform="translate(65.63435, 561.617229)"><g><path d="M 1.234375 -4.25 L 1.234375 -1.5625 C 1.234375 -1.28125 1.257812 -1.0625 1.3125 -0.90625 C 1.375 -0.75 1.460938 -0.632812 1.578125 -0.5625 C 1.703125 -0.5 1.878906 -0.46875 2.109375 -0.46875 C 2.453125 -0.46875 2.71875 -0.582031 2.90625 -0.8125 C 3.101562 -1.050781 3.203125 -1.375 3.203125 -1.78125 L 3.203125 -4.25 L 3.921875 -4.25 L 3.921875 -0.90625 C 3.921875 -0.414062 3.925781 -0.113281 3.9375 0 L 3.265625 0 C 3.265625 -0.0078125 3.265625 -0.0390625 3.265625 -0.09375 C 3.265625 -0.15625 3.257812 -0.222656 3.25 -0.296875 C 3.25 -0.378906 3.242188 -0.523438 3.234375 -0.734375 C 3.066406 -0.429688 2.875 -0.21875 2.65625 -0.09375 C 2.445312 0.0195312 2.1875 0.078125 1.875 0.078125 C 1.40625 0.078125 1.0625 -0.0351562 0.84375 -0.265625 C 0.625 -0.492188 0.515625 -0.878906 0.515625 -1.421875 L 0.515625 -4.25 Z M 1.234375 -4.25 "/></g></g></g><g fill="rgb(100%, 100%, 100%)" fill-opacity="1"><g transform="translate(70.105293, 561.617229)"><g><path d="M 0.5625 0 L 0.5625 -3.265625 C 0.5625 -3.554688 0.550781 -3.882812 0.53125 -4.25 L 1.203125 -4.25 C 1.222656 -3.769531 1.234375 -3.484375 1.234375 -3.390625 L 1.25 -3.390625 C 1.363281 -3.742188 1.492188 -3.988281 1.640625 -4.125 C 1.785156 -4.257812 1.992188 -4.328125 2.265625 -4.328125 C 2.359375 -4.328125 2.453125 -4.316406 2.546875 -4.296875 L 2.546875 -3.640625 C 2.453125 -3.671875 2.328125 -3.6875 2.171875 -3.6875 C 1.878906 -3.6875 1.65625 -3.554688 1.5 -3.296875 C 1.34375 -3.046875 1.265625 -2.6875 1.265625 -2.21875 L 1.265625 0 Z M 0.5625 0 "/></g></g></g><g fill="rgb(100%, 100%, 100%)" fill-opacity="1"><g transform="translate(72.782364, 561.617229)"><g><path d="M 1.625 0.078125 C 1.195312 0.078125 0.875 -0.03125 0.65625 -0.25 C 0.445312 -0.476562 0.34375 -0.789062 0.34375 -1.1875 C 0.34375 -1.625 0.484375 -1.957031 0.765625 -2.1875 C 1.054688 -2.425781 1.523438 -2.554688 2.171875 -2.578125 L 3.125 -2.59375 L 3.125 -2.828125 C 3.125 -3.171875 3.050781 -3.414062 2.90625 -3.5625 C 2.757812 -3.71875 2.53125 -3.796875 2.21875 -3.796875 C 1.90625 -3.796875 1.675781 -3.738281 1.53125 -3.625 C 1.382812 -3.519531 1.296875 -3.347656 1.265625 -3.109375 L 0.53125 -3.1875 C 0.65625 -3.945312 1.222656 -4.328125 2.234375 -4.328125 C 2.765625 -4.328125 3.164062 -4.203125 3.4375 -3.953125 C 3.707031 -3.710938 3.84375 -3.363281 3.84375 -2.90625 L 3.84375 -1.0625 C 3.84375 -0.851562 3.867188 -0.695312 3.921875 -0.59375 C 3.984375 -0.488281 4.09375 -0.4375 4.25 -0.4375 C 4.3125 -0.4375 4.382812 -0.445312 4.46875 -0.46875 L 4.46875 -0.03125 C 4.289062 0.0195312 4.109375 0.046875 3.921875 0.046875 C 3.660156 0.046875 3.46875 -0.0195312 3.34375 -0.15625 C 3.226562 -0.300781 3.164062 -0.519531 3.15625 -0.8125 L 3.125 -0.8125 C 2.945312 -0.488281 2.738281 -0.257812 2.5 -0.125 C 2.257812 0.0078125 1.96875 0.078125 1.625 0.078125 Z M 1.78125 -0.453125 C 2.039062 -0.453125 2.269531 -0.507812 2.46875 -0.625 C 2.675781 -0.75 2.835938 -0.910156 2.953125 -1.109375 C 3.066406 -1.316406 3.125 -1.53125 3.125 -1.75 L 3.125 -2.09375 L 2.359375 -2.078125 C 2.023438 -2.078125 1.769531 -2.046875 1.59375 -1.984375 C 1.425781 -1.921875 1.296875 -1.820312 1.203125 -1.6875 C 1.109375 -1.5625 1.0625 -1.390625 1.0625 -1.171875 C 1.0625 -0.941406 1.125 -0.765625 1.25 -0.640625 C 1.375 -0.515625 1.550781 -0.453125 1.78125 -0.453125 Z M 1.78125 -0.453125 "/></g></g></g><g fill="rgb(100%, 100%, 100%)" fill-opacity="1"><g transform="translate(77.253307, 561.617229)"><g><path d="M 0.546875 0 L 0.546875 -5.828125 L 1.25 -5.828125 L 1.25 0 Z M 0.546875 0 "/></g></g></g><g fill="rgb(100%, 100%, 100%)" fill-opacity="1"><g transform="translate(79.039329, 561.617229)"><g/></g></g><g fill="rgb(100%, 100%, 100%)" fill-opacity="1"><g transform="translate(81.272838, 561.617229)"><g><path d="M 1.078125 -2.140625 C 1.078125 -1.578125 1.164062 -1.160156 1.34375 -0.890625 C 1.519531 -0.617188 1.789062 -0.484375 2.15625 -0.484375 C 2.40625 -0.484375 2.613281 -0.550781 2.78125 -0.6875 C 2.945312 -0.820312 3.050781 -1.03125 3.09375 -1.3125 L 3.8125 -1.265625 C 3.757812 -0.859375 3.582031 -0.53125 3.28125 -0.28125 C 2.988281 -0.0390625 2.617188 0.078125 2.171875 0.078125 C 1.578125 0.078125 1.125 -0.109375 0.8125 -0.484375 C 0.5 -0.859375 0.34375 -1.40625 0.34375 -2.125 C 0.34375 -2.84375 0.5 -3.390625 0.8125 -3.765625 C 1.125 -4.140625 1.578125 -4.328125 2.171875 -4.328125 C 2.597656 -4.328125 2.953125 -4.210938 3.234375 -3.984375 C 3.523438 -3.765625 3.707031 -3.457031 3.78125 -3.0625 L 3.0625 -3 C 3.019531 -3.238281 2.925781 -3.425781 2.78125 -3.5625 C 2.632812 -3.707031 2.421875 -3.78125 2.140625 -3.78125 C 1.765625 -3.78125 1.492188 -3.65625 1.328125 -3.40625 C 1.160156 -3.15625 1.078125 -2.734375 1.078125 -2.140625 Z M 1.078125 -2.140625 "/></g></g></g><g fill="rgb(100%, 100%, 100%)" fill-opacity="1"><g transform="translate(85.292369, 561.617229)"><g><path d="M 1.625 0.078125 C 1.195312 0.078125 0.875 -0.03125 0.65625 -0.25 C 0.445312 -0.476562 0.34375 -0.789062 0.34375 -1.1875 C 0.34375 -1.625 0.484375 -1.957031 0.765625 -2.1875 C 1.054688 -2.425781 1.523438 -2.554688 2.171875 -2.578125 L 3.125 -2.59375 L 3.125 -2.828125 C 3.125 -3.171875 3.050781 -3.414062 2.90625 -3.5625 C 2.757812 -3.71875 2.53125 -3.796875 2.21875 -3.796875 C 1.90625 -3.796875 1.675781 -3.738281 1.53125 -3.625 C 1.382812 -3.519531 1.296875 -3.347656 1.265625 -3.109375 L 0.53125 -3.1875 C 0.65625 -3.945312 1.222656 -4.328125 2.234375 -4.328125 C 2.765625 -4.328125 3.164062 -4.203125 3.4375 -3.953125 C 3.707031 -3.710938 3.84375 -3.363281 3.84375 -2.90625 L 3.84375 -1.0625 C 3.84375 -0.851562 3.867188 -0.695312 3.921875 -0.59375 C 3.984375 -0.488281 4.09375 -0.4375 4.25 -0.4375 C 4.3125 -0.4375 4.382812 -0.445312 4.46875 -0.46875 L 4.46875 -0.03125 C 4.289062 0.0195312 4.109375 0.046875 3.921875 0.046875 C 3.660156 0.046875 3.46875 -0.0195312 3.34375 -0.15625 C 3.226562 -0.300781 3.164062 -0.519531 3.15625 -0.8125 L 3.125 -0.8125 C 2.945312 -0.488281 2.738281 -0.257812 2.5 -0.125 C 2.257812 0.0078125 1.96875 0.078125 1.625 0.078125 Z M 1.78125 -0.453125 C 2.039062 -0.453125 2.269531 -0.507812 2.46875 -0.625 C 2.675781 -0.75 2.835938 -0.910156 2.953125 -1.109375 C 3.066406 -1.316406 3.125 -1.53125 3.125 -1.75 L 3.125 -2.09375 L 2.359375 -2.078125 C 2.023438 -2.078125 1.769531 -2.046875 1.59375 -1.984375 C 1.425781 -1.921875 1.296875 -1.820312 1.203125 -1.6875 C 1.109375 -1.5625 1.0625 -1.390625 1.0625 -1.171875 C 1.0625 -0.941406 1.125 -0.765625 1.25 -0.640625 C 1.375 -0.515625 1.550781 -0.453125 1.78125 -0.453125 Z M 1.78125 -0.453125 "/></g></g></g><g fill="rgb(100%, 100%, 100%)" fill-opacity="1"><g transform="translate(89.763312, 561.617229)"><g><path d="M 4.140625 -2.140625 C 4.140625 -0.660156 3.617188 0.078125 2.578125 0.078125 C 1.921875 0.078125 1.476562 -0.164062 1.25 -0.65625 L 1.234375 -0.65625 C 1.242188 -0.632812 1.25 -0.410156 1.25 0.015625 L 1.25 1.671875 L 0.546875 1.671875 L 0.546875 -3.390625 C 0.546875 -3.828125 0.535156 -4.113281 0.515625 -4.25 L 1.203125 -4.25 C 1.203125 -4.238281 1.203125 -4.203125 1.203125 -4.140625 C 1.210938 -4.078125 1.21875 -3.976562 1.21875 -3.84375 C 1.226562 -3.707031 1.234375 -3.613281 1.234375 -3.5625 L 1.25 -3.5625 C 1.382812 -3.820312 1.550781 -4.015625 1.75 -4.140625 C 1.957031 -4.265625 2.234375 -4.328125 2.578125 -4.328125 C 3.097656 -4.328125 3.488281 -4.148438 3.75 -3.796875 C 4.007812 -3.441406 4.140625 -2.890625 4.140625 -2.140625 Z M 3.390625 -2.125 C 3.390625 -2.71875 3.3125 -3.140625 3.15625 -3.390625 C 3 -3.648438 2.742188 -3.78125 2.390625 -3.78125 C 2.109375 -3.78125 1.890625 -3.71875 1.734375 -3.59375 C 1.578125 -3.476562 1.457031 -3.296875 1.375 -3.046875 C 1.289062 -2.796875 1.25 -2.472656 1.25 -2.078125 C 1.25 -1.515625 1.335938 -1.097656 1.515625 -0.828125 C 1.691406 -0.566406 1.984375 -0.4375 2.390625 -0.4375 C 2.734375 -0.4375 2.984375 -0.566406 3.140625 -0.828125 C 3.304688 -1.085938 3.390625 -1.519531 3.390625 -2.125 Z M 3.390625 -2.125 "/></g></g></g><g fill="rgb(100%, 100%, 100%)" fill-opacity="1"><g transform="translate(94.234255, 561.617229)"><g><path d="M 0.53125 -5.15625 L 0.53125 -5.828125 L 1.25 -5.828125 L 1.25 -5.15625 Z M 0.53125 0 L 0.53125 -4.25 L 1.25 -4.25 L 1.25 0 Z M 0.53125 0 "/></g></g></g><g fill="rgb(100%, 100%, 100%)" fill-opacity="1"><g transform="translate(96.020278, 561.617229)"><g><path d="M 2.171875 -0.03125 C 1.941406 0.03125 1.707031 0.0625 1.46875 0.0625 C 0.894531 0.0625 0.609375 -0.257812 0.609375 -0.90625 L 0.609375 -3.734375 L 0.125 -3.734375 L 0.125 -4.25 L 0.640625 -4.25 L 0.84375 -5.203125 L 1.3125 -5.203125 L 1.3125 -4.25 L 2.109375 -4.25 L 2.109375 -3.734375 L 1.3125 -3.734375 L 1.3125 -1.046875 C 1.3125 -0.847656 1.34375 -0.707031 1.40625 -0.625 C 1.476562 -0.539062 1.597656 -0.5 1.765625 -0.5 C 1.859375 -0.5 1.992188 -0.515625 2.171875 -0.546875 Z M 2.171875 -0.03125 "/></g></g></g><g fill="rgb(100%, 100%, 100%)" fill-opacity="1"><g transform="translate(98.253787, 561.617229)"><g><path d="M 1.625 0.078125 C 1.195312 0.078125 0.875 -0.03125 0.65625 -0.25 C 0.445312 -0.476562 0.34375 -0.789062 0.34375 -1.1875 C 0.34375 -1.625 0.484375 -1.957031 0.765625 -2.1875 C 1.054688 -2.425781 1.523438 -2.554688 2.171875 -2.578125 L 3.125 -2.59375 L 3.125 -2.828125 C 3.125 -3.171875 3.050781 -3.414062 2.90625 -3.5625 C 2.757812 -3.71875 2.53125 -3.796875 2.21875 -3.796875 C 1.90625 -3.796875 1.675781 -3.738281 1.53125 -3.625 C 1.382812 -3.519531 1.296875 -3.347656 1.265625 -3.109375 L 0.53125 -3.1875 C 0.65625 -3.945312 1.222656 -4.328125 2.234375 -4.328125 C 2.765625 -4.328125 3.164062 -4.203125 3.4375 -3.953125 C 3.707031 -3.710938 3.84375 -3.363281 3.84375 -2.90625 L 3.84375 -1.0625 C 3.84375 -0.851562 3.867188 -0.695312 3.921875 -0.59375 C 3.984375 -0.488281 4.09375 -0.4375 4.25 -0.4375 C 4.3125 -0.4375 4.382812 -0.445312 4.46875 -0.46875 L 4.46875 -0.03125 C 4.289062 0.0195312 4.109375 0.046875 3.921875 0.046875 C 3.660156 0.046875 3.46875 -0.0195312 3.34375 -0.15625 C 3.226562 -0.300781 3.164062 -0.519531 3.15625 -0.8125 L 3.125 -0.8125 C 2.945312 -0.488281 2.738281 -0.257812 2.5 -0.125 C 2.257812 0.0078125 1.96875 0.078125 1.625 0.078125 Z M 1.78125 -0.453125 C 2.039062 -0.453125 2.269531 -0.507812 2.46875 -0.625 C 2.675781 -0.75 2.835938 -0.910156 2.953125 -1.109375 C 3.066406 -1.316406 3.125 -1.53125 3.125 -1.75 L 3.125 -2.09375 L 2.359375 -2.078125 C 2.023438 -2.078125 1.769531 -2.046875 1.59375 -1.984375 C 1.425781 -1.921875 1.296875 -1.820312 1.203125 -1.6875 C 1.109375 -1.5625 1.0625 -1.390625 1.0625 -1.171875 C 1.0625 -0.941406 1.125 -0.765625 1.25 -0.640625 C 1.375 -0.515625 1.550781 -0.453125 1.78125 -0.453125 Z M 1.78125 -0.453125 "/></g></g></g><g fill="rgb(100%, 100%, 100%)" fill-opacity="1"><g transform="translate(102.72473, 561.617229)"><g><path d="M 0.546875 0 L 0.546875 -5.828125 L 1.25 -5.828125 L 1.25 0 Z M 0.546875 0 "/></g></g></g><g fill="rgb(100%, 100%, 100%)" fill-opacity="1"><g transform="translate(197.013506, 561.617229)"><g><path d="M 4.578125 0 L 3.140625 -2.296875 L 1.40625 -2.296875 L 1.40625 0 L 0.65625 0 L 0.65625 -5.53125 L 3.265625 -5.53125 C 3.890625 -5.53125 4.367188 -5.390625 4.703125 -5.109375 C 5.046875 -4.835938 5.21875 -4.453125 5.21875 -3.953125 C 5.21875 -3.535156 5.097656 -3.1875 4.859375 -2.90625 C 4.617188 -2.632812 4.285156 -2.460938 3.859375 -2.390625 L 5.4375 0 Z M 4.46875 -3.9375 C 4.46875 -4.257812 4.359375 -4.503906 4.140625 -4.671875 C 3.921875 -4.847656 3.601562 -4.9375 3.1875 -4.9375 L 1.40625 -4.9375 L 1.40625 -2.890625 L 3.21875 -2.890625 C 3.613281 -2.890625 3.921875 -2.984375 4.140625 -3.171875 C 4.359375 -3.359375 4.46875 -3.613281 4.46875 -3.9375 Z M 4.46875 -3.9375 "/></g></g></g><g fill="rgb(100%, 100%, 100%)" fill-opacity="1"><g transform="translate(202.81906, 561.617229)"><g><path d="M 1.078125 -1.96875 C 1.078125 -1.488281 1.175781 -1.113281 1.375 -0.84375 C 1.582031 -0.582031 1.878906 -0.453125 2.265625 -0.453125 C 2.578125 -0.453125 2.820312 -0.515625 3 -0.640625 C 3.1875 -0.765625 3.316406 -0.921875 3.390625 -1.109375 L 4 -0.921875 C 3.75 -0.253906 3.171875 0.078125 2.265625 0.078125 C 1.640625 0.078125 1.160156 -0.109375 0.828125 -0.484375 C 0.503906 -0.859375 0.34375 -1.414062 0.34375 -2.15625 C 0.34375 -2.851562 0.503906 -3.390625 0.828125 -3.765625 C 1.160156 -4.140625 1.632812 -4.328125 2.25 -4.328125 C 3.5 -4.328125 4.125 -3.578125 4.125 -2.078125 L 4.125 -1.96875 Z M 3.390625 -2.515625 C 3.347656 -2.960938 3.234375 -3.289062 3.046875 -3.5 C 2.859375 -3.707031 2.585938 -3.8125 2.234375 -3.8125 C 1.890625 -3.8125 1.613281 -3.695312 1.40625 -3.46875 C 1.207031 -3.238281 1.101562 -2.921875 1.09375 -2.515625 Z M 3.390625 -2.515625 "/></g></g></g><g fill="rgb(100%, 100%, 100%)" fill-opacity="1"><g transform="translate(207.290003, 561.617229)"><g><path d="M 3.734375 -1.171875 C 3.734375 -0.773438 3.582031 -0.46875 3.28125 -0.25 C 2.976562 -0.03125 2.550781 0.078125 2 0.078125 C 1.476562 0.078125 1.070312 -0.00390625 0.78125 -0.171875 C 0.5 -0.347656 0.3125 -0.625 0.21875 -1 L 0.84375 -1.125 C 0.90625 -0.894531 1.03125 -0.722656 1.21875 -0.609375 C 1.40625 -0.503906 1.664062 -0.453125 2 -0.453125 C 2.363281 -0.453125 2.628906 -0.507812 2.796875 -0.625 C 2.960938 -0.738281 3.046875 -0.90625 3.046875 -1.125 C 3.046875 -1.289062 2.988281 -1.425781 2.875 -1.53125 C 2.757812 -1.632812 2.570312 -1.71875 2.3125 -1.78125 L 1.8125 -1.921875 C 1.40625 -2.023438 1.113281 -2.125 0.9375 -2.21875 C 0.769531 -2.320312 0.632812 -2.445312 0.53125 -2.59375 C 0.4375 -2.738281 0.390625 -2.914062 0.390625 -3.125 C 0.390625 -3.507812 0.523438 -3.800781 0.796875 -4 C 1.078125 -4.207031 1.484375 -4.3125 2.015625 -4.3125 C 2.484375 -4.3125 2.851562 -4.226562 3.125 -4.0625 C 3.40625 -3.90625 3.582031 -3.644531 3.65625 -3.28125 L 3.015625 -3.203125 C 2.984375 -3.390625 2.878906 -3.53125 2.703125 -3.625 C 2.535156 -3.726562 2.304688 -3.78125 2.015625 -3.78125 C 1.691406 -3.78125 1.453125 -3.734375 1.296875 -3.640625 C 1.148438 -3.546875 1.078125 -3.398438 1.078125 -3.203125 C 1.078125 -3.078125 1.109375 -2.972656 1.171875 -2.890625 C 1.234375 -2.816406 1.328125 -2.75 1.453125 -2.6875 C 1.578125 -2.632812 1.835938 -2.5625 2.234375 -2.46875 C 2.609375 -2.375 2.875 -2.285156 3.03125 -2.203125 C 3.195312 -2.128906 3.328125 -2.039062 3.421875 -1.9375 C 3.523438 -1.84375 3.601562 -1.734375 3.65625 -1.609375 C 3.707031 -1.484375 3.734375 -1.335938 3.734375 -1.171875 Z M 3.734375 -1.171875 "/></g></g></g><g fill="rgb(100%, 100%, 100%)" fill-opacity="1"><g transform="translate(211.309534, 561.617229)"><g><path d="M 4.140625 -2.125 C 4.140625 -1.382812 3.972656 -0.832031 3.640625 -0.46875 C 3.316406 -0.101562 2.84375 0.078125 2.21875 0.078125 C 1.59375 0.078125 1.125 -0.109375 0.8125 -0.484375 C 0.5 -0.867188 0.34375 -1.414062 0.34375 -2.125 C 0.34375 -3.59375 0.976562 -4.328125 2.25 -4.328125 C 2.894531 -4.328125 3.367188 -4.144531 3.671875 -3.78125 C 3.984375 -3.425781 4.140625 -2.875 4.140625 -2.125 Z M 3.390625 -2.125 C 3.390625 -2.71875 3.300781 -3.144531 3.125 -3.40625 C 2.957031 -3.675781 2.664062 -3.8125 2.25 -3.8125 C 1.84375 -3.8125 1.546875 -3.675781 1.359375 -3.40625 C 1.171875 -3.132812 1.078125 -2.707031 1.078125 -2.125 C 1.078125 -1.5625 1.164062 -1.140625 1.34375 -0.859375 C 1.53125 -0.578125 1.820312 -0.4375 2.21875 -0.4375 C 2.632812 -0.4375 2.929688 -0.570312 3.109375 -0.84375 C 3.296875 -1.125 3.390625 -1.550781 3.390625 -2.125 Z M 3.390625 -2.125 "/></g></g></g><g fill="rgb(100%, 100%, 100%)" fill-opacity="1"><g transform="translate(215.780477, 561.617229)"><g><path d="M 1.234375 -4.25 L 1.234375 -1.5625 C 1.234375 -1.28125 1.257812 -1.0625 1.3125 -0.90625 C 1.375 -0.75 1.460938 -0.632812 1.578125 -0.5625 C 1.703125 -0.5 1.878906 -0.46875 2.109375 -0.46875 C 2.453125 -0.46875 2.71875 -0.582031 2.90625 -0.8125 C 3.101562 -1.050781 3.203125 -1.375 3.203125 -1.78125 L 3.203125 -4.25 L 3.921875 -4.25 L 3.921875 -0.90625 C 3.921875 -0.414062 3.925781 -0.113281 3.9375 0 L 3.265625 0 C 3.265625 -0.0078125 3.265625 -0.0390625 3.265625 -0.09375 C 3.265625 -0.15625 3.257812 -0.222656 3.25 -0.296875 C 3.25 -0.378906 3.242188 -0.523438 3.234375 -0.734375 C 3.066406 -0.429688 2.875 -0.21875 2.65625 -0.09375 C 2.445312 0.0195312 2.1875 0.078125 1.875 0.078125 C 1.40625 0.078125 1.0625 -0.0351562 0.84375 -0.265625 C 0.625 -0.492188 0.515625 -0.878906 0.515625 -1.421875 L 0.515625 -4.25 Z M 1.234375 -4.25 "/></g></g></g><g fill="rgb(100%, 100%, 100%)" fill-opacity="1"><g transform="translate(220.25142, 561.617229)"><g><path d="M 0.5625 0 L 0.5625 -3.265625 C 0.5625 -3.554688 0.550781 -3.882812 0.53125 -4.25 L 1.203125 -4.25 C 1.222656 -3.769531 1.234375 -3.484375 1.234375 -3.390625 L 1.25 -3.390625 C 1.363281 -3.742188 1.492188 -3.988281 1.640625 -4.125 C 1.785156 -4.257812 1.992188 -4.328125 2.265625 -4.328125 C 2.359375 -4.328125 2.453125 -4.316406 2.546875 -4.296875 L 2.546875 -3.640625 C 2.453125 -3.671875 2.328125 -3.6875 2.171875 -3.6875 C 1.878906 -3.6875 1.65625 -3.554688 1.5 -3.296875 C 1.34375 -3.046875 1.265625 -2.6875 1.265625 -2.21875 L 1.265625 0 Z M 0.5625 0 "/></g></g></g><g fill="rgb(100%, 100%, 100%)" fill-opacity="1"><g transform="translate(222.928491, 561.617229)"><g><path d="M 1.078125 -2.140625 C 1.078125 -1.578125 1.164062 -1.160156 1.34375 -0.890625 C 1.519531 -0.617188 1.789062 -0.484375 2.15625 -0.484375 C 2.40625 -0.484375 2.613281 -0.550781 2.78125 -0.6875 C 2.945312 -0.820312 3.050781 -1.03125 3.09375 -1.3125 L 3.8125 -1.265625 C 3.757812 -0.859375 3.582031 -0.53125 3.28125 -0.28125 C 2.988281 -0.0390625 2.617188 0.078125 2.171875 0.078125 C 1.578125 0.078125 1.125 -0.109375 0.8125 -0.484375 C 0.5 -0.859375 0.34375 -1.40625 0.34375 -2.125 C 0.34375 -2.84375 0.5 -3.390625 0.8125 -3.765625 C 1.125 -4.140625 1.578125 -4.328125 2.171875 -4.328125 C 2.597656 -4.328125 2.953125 -4.210938 3.234375 -3.984375 C 3.523438 -3.765625 3.707031 -3.457031 3.78125 -3.0625 L 3.0625 -3 C 3.019531 -3.238281 2.925781 -3.425781 2.78125 -3.5625 C 2.632812 -3.707031 2.421875 -3.78125 2.140625 -3.78125 C 1.765625 -3.78125 1.492188 -3.65625 1.328125 -3.40625 C 1.160156 -3.15625 1.078125 -2.734375 1.078125 -2.140625 Z M 1.078125 -2.140625 "/></g></g></g><g fill="rgb(100%, 100%, 100%)" fill-opacity="1"><g transform="translate(226.948022, 561.617229)"><g><path d="M 1.078125 -1.96875 C 1.078125 -1.488281 1.175781 -1.113281 1.375 -0.84375 C 1.582031 -0.582031 1.878906 -0.453125 2.265625 -0.453125 C 2.578125 -0.453125 2.820312 -0.515625 3 -0.640625 C 3.1875 -0.765625 3.316406 -0.921875 3.390625 -1.109375 L 4 -0.921875 C 3.75 -0.253906 3.171875 0.078125 2.265625 0.078125 C 1.640625 0.078125 1.160156 -0.109375 0.828125 -0.484375 C 0.503906 -0.859375 0.34375 -1.414062 0.34375 -2.15625 C 0.34375 -2.851562 0.503906 -3.390625 0.828125 -3.765625 C 1.160156 -4.140625 1.632812 -4.328125 2.25 -4.328125 C 3.5 -4.328125 4.125 -3.578125 4.125 -2.078125 L 4.125 -1.96875 Z M 3.390625 -2.515625 C 3.347656 -2.960938 3.234375 -3.289062 3.046875 -3.5 C 2.859375 -3.707031 2.585938 -3.8125 2.234375 -3.8125 C 1.890625 -3.8125 1.613281 -3.695312 1.40625 -3.46875 C 1.207031 -3.238281 1.101562 -2.921875 1.09375 -2.515625 Z M 3.390625 -2.515625 "/></g></g></g><g fill="rgb(100%, 100%, 100%)" fill-opacity="1"><g transform="translate(231.418965, 561.617229)"><g/></g></g><g fill="rgb(100%, 100%, 100%)" fill-opacity="1"><g transform="translate(233.652474, 561.617229)"><g><path d="M 0.75 0 L 0.75 -5.53125 L 1.5 -5.53125 L 1.5 0 Z M 0.75 0 "/></g></g></g><g fill="rgb(100%, 100%, 100%)" fill-opacity="1"><g transform="translate(235.885983, 561.617229)"><g><path d="M 3.234375 0 L 3.234375 -2.703125 C 3.234375 -2.972656 3.207031 -3.1875 3.15625 -3.34375 C 3.101562 -3.5 3.015625 -3.609375 2.890625 -3.671875 C 2.773438 -3.742188 2.597656 -3.78125 2.359375 -3.78125 C 2.023438 -3.78125 1.757812 -3.660156 1.5625 -3.421875 C 1.363281 -3.191406 1.265625 -2.875 1.265625 -2.46875 L 1.265625 0 L 0.5625 0 L 0.5625 -3.34375 C 0.5625 -3.84375 0.550781 -4.144531 0.53125 -4.25 L 1.203125 -4.25 C 1.203125 -4.238281 1.203125 -4.203125 1.203125 -4.140625 C 1.210938 -4.085938 1.21875 -4.019531 1.21875 -3.9375 C 1.21875 -3.863281 1.222656 -3.726562 1.234375 -3.53125 L 1.25 -3.53125 C 1.40625 -3.820312 1.585938 -4.023438 1.796875 -4.140625 C 2.015625 -4.265625 2.285156 -4.328125 2.609375 -4.328125 C 3.066406 -4.328125 3.40625 -4.210938 3.625 -3.984375 C 3.84375 -3.753906 3.953125 -3.367188 3.953125 -2.828125 L 3.953125 0 Z M 3.234375 0 "/></g></g></g><g fill="rgb(100%, 100%, 100%)" fill-opacity="1"><g transform="translate(240.356926, 561.617229)"><g><path d="M 2.171875 -0.03125 C 1.941406 0.03125 1.707031 0.0625 1.46875 0.0625 C 0.894531 0.0625 0.609375 -0.257812 0.609375 -0.90625 L 0.609375 -3.734375 L 0.125 -3.734375 L 0.125 -4.25 L 0.640625 -4.25 L 0.84375 -5.203125 L 1.3125 -5.203125 L 1.3125 -4.25 L 2.109375 -4.25 L 2.109375 -3.734375 L 1.3125 -3.734375 L 1.3125 -1.046875 C 1.3125 -0.847656 1.34375 -0.707031 1.40625 -0.625 C 1.476562 -0.539062 1.597656 -0.5 1.765625 -0.5 C 1.859375 -0.5 1.992188 -0.515625 2.171875 -0.546875 Z M 2.171875 -0.03125 "/></g></g></g><g fill="rgb(100%, 100%, 100%)" fill-opacity="1"><g transform="translate(242.590435, 561.617229)"><g><path d="M 1.078125 -1.96875 C 1.078125 -1.488281 1.175781 -1.113281 1.375 -0.84375 C 1.582031 -0.582031 1.878906 -0.453125 2.265625 -0.453125 C 2.578125 -0.453125 2.820312 -0.515625 3 -0.640625 C 3.1875 -0.765625 3.316406 -0.921875 3.390625 -1.109375 L 4 -0.921875 C 3.75 -0.253906 3.171875 0.078125 2.265625 0.078125 C 1.640625 0.078125 1.160156 -0.109375 0.828125 -0.484375 C 0.503906 -0.859375 0.34375 -1.414062 0.34375 -2.15625 C 0.34375 -2.851562 0.503906 -3.390625 0.828125 -3.765625 C 1.160156 -4.140625 1.632812 -4.328125 2.25 -4.328125 C 3.5 -4.328125 4.125 -3.578125 4.125 -2.078125 L 4.125 -1.96875 Z M 3.390625 -2.515625 C 3.347656 -2.960938 3.234375 -3.289062 3.046875 -3.5 C 2.859375 -3.707031 2.585938 -3.8125 2.234375 -3.8125 C 1.890625 -3.8125 1.613281 -3.695312 1.40625 -3.46875 C 1.207031 -3.238281 1.101562 -2.921875 1.09375 -2.515625 Z M 3.390625 -2.515625 "/></g></g></g><g fill="rgb(100%, 100%, 100%)" fill-opacity="1"><g transform="translate(247.061379, 561.617229)"><g><path d="M 3.234375 0 L 3.234375 -2.703125 C 3.234375 -2.972656 3.207031 -3.1875 3.15625 -3.34375 C 3.101562 -3.5 3.015625 -3.609375 2.890625 -3.671875 C 2.773438 -3.742188 2.597656 -3.78125 2.359375 -3.78125 C 2.023438 -3.78125 1.757812 -3.660156 1.5625 -3.421875 C 1.363281 -3.191406 1.265625 -2.875 1.265625 -2.46875 L 1.265625 0 L 0.5625 0 L 0.5625 -3.34375 C 0.5625 -3.84375 0.550781 -4.144531 0.53125 -4.25 L 1.203125 -4.25 C 1.203125 -4.238281 1.203125 -4.203125 1.203125 -4.140625 C 1.210938 -4.085938 1.21875 -4.019531 1.21875 -3.9375 C 1.21875 -3.863281 1.222656 -3.726562 1.234375 -3.53125 L 1.25 -3.53125 C 1.40625 -3.820312 1.585938 -4.023438 1.796875 -4.140625 C 2.015625 -4.265625 2.285156 -4.328125 2.609375 -4.328125 C 3.066406 -4.328125 3.40625 -4.210938 3.625 -3.984375 C 3.84375 -3.753906 3.953125 -3.367188 3.953125 -2.828125 L 3.953125 0 Z M 3.234375 0 "/></g></g></g><g fill="rgb(100%, 100%, 100%)" fill-opacity="1"><g transform="translate(251.532322, 561.617229)"><g><path d="M 3.734375 -1.171875 C 3.734375 -0.773438 3.582031 -0.46875 3.28125 -0.25 C 2.976562 -0.03125 2.550781 0.078125 2 0.078125 C 1.476562 0.078125 1.070312 -0.00390625 0.78125 -0.171875 C 0.5 -0.347656 0.3125 -0.625 0.21875 -1 L 0.84375 -1.125 C 0.90625 -0.894531 1.03125 -0.722656 1.21875 -0.609375 C 1.40625 -0.503906 1.664062 -0.453125 2 -0.453125 C 2.363281 -0.453125 2.628906 -0.507812 2.796875 -0.625 C 2.960938 -0.738281 3.046875 -0.90625 3.046875 -1.125 C 3.046875 -1.289062 2.988281 -1.425781 2.875 -1.53125 C 2.757812 -1.632812 2.570312 -1.71875 2.3125 -1.78125 L 1.8125 -1.921875 C 1.40625 -2.023438 1.113281 -2.125 0.9375 -2.21875 C 0.769531 -2.320312 0.632812 -2.445312 0.53125 -2.59375 C 0.4375 -2.738281 0.390625 -2.914062 0.390625 -3.125 C 0.390625 -3.507812 0.523438 -3.800781 0.796875 -4 C 1.078125 -4.207031 1.484375 -4.3125 2.015625 -4.3125 C 2.484375 -4.3125 2.851562 -4.226562 3.125 -4.0625 C 3.40625 -3.90625 3.582031 -3.644531 3.65625 -3.28125 L 3.015625 -3.203125 C 2.984375 -3.390625 2.878906 -3.53125 2.703125 -3.625 C 2.535156 -3.726562 2.304688 -3.78125 2.015625 -3.78125 C 1.691406 -3.78125 1.453125 -3.734375 1.296875 -3.640625 C 1.148438 -3.546875 1.078125 -3.398438 1.078125 -3.203125 C 1.078125 -3.078125 1.109375 -2.972656 1.171875 -2.890625 C 1.234375 -2.816406 1.328125 -2.75 1.453125 -2.6875 C 1.578125 -2.632812 1.835938 -2.5625 2.234375 -2.46875 C 2.609375 -2.375 2.875 -2.285156 3.03125 -2.203125 C 3.195312 -2.128906 3.328125 -2.039062 3.421875 -1.9375 C 3.523438 -1.84375 3.601562 -1.734375 3.65625 -1.609375 C 3.707031 -1.484375 3.734375 -1.335938 3.734375 -1.171875 Z M 3.734375 -1.171875 "/></g></g></g><g fill="rgb(100%, 100%, 100%)" fill-opacity="1"><g transform="translate(255.551853, 561.617229)"><g><path d="M 0.53125 -5.15625 L 0.53125 -5.828125 L 1.25 -5.828125 L 1.25 -5.15625 Z M 0.53125 0 L 0.53125 -4.25 L 1.25 -4.25 L 1.25 0 Z M 0.53125 0 "/></g></g></g><g fill="rgb(100%, 100%, 100%)" fill-opacity="1"><g transform="translate(257.337875, 561.617229)"><g><path d="M 2.171875 -0.03125 C 1.941406 0.03125 1.707031 0.0625 1.46875 0.0625 C 0.894531 0.0625 0.609375 -0.257812 0.609375 -0.90625 L 0.609375 -3.734375 L 0.125 -3.734375 L 0.125 -4.25 L 0.640625 -4.25 L 0.84375 -5.203125 L 1.3125 -5.203125 L 1.3125 -4.25 L 2.109375 -4.25 L 2.109375 -3.734375 L 1.3125 -3.734375 L 1.3125 -1.046875 C 1.3125 -0.847656 1.34375 -0.707031 1.40625 -0.625 C 1.476562 -0.539062 1.597656 -0.5 1.765625 -0.5 C 1.859375 -0.5 1.992188 -0.515625 2.171875 -0.546875 Z M 2.171875 -0.03125 "/></g></g></g><g fill="rgb(100%, 100%, 100%)" fill-opacity="1"><g transform="translate(259.571384, 561.617229)"><g><path d="M 0.75 1.671875 C 0.550781 1.671875 0.390625 1.65625 0.265625 1.625 L 0.265625 1.09375 C 0.359375 1.113281 0.46875 1.125 0.59375 1.125 C 1.03125 1.125 1.378906 0.800781 1.640625 0.15625 L 1.703125 -0.015625 L 0.015625 -4.25 L 0.78125 -4.25 L 1.671875 -1.90625 C 1.679688 -1.863281 1.695312 -1.816406 1.71875 -1.765625 C 1.738281 -1.710938 1.796875 -1.539062 1.890625 -1.25 C 1.992188 -0.96875 2.050781 -0.804688 2.0625 -0.765625 L 2.328125 -1.546875 L 3.265625 -4.25 L 4 -4.25 L 2.375 0 C 2.195312 0.457031 2.03125 0.796875 1.875 1.015625 C 1.726562 1.234375 1.5625 1.394531 1.375 1.5 C 1.1875 1.613281 0.976562 1.671875 0.75 1.671875 Z M 0.75 1.671875 "/></g></g></g><g fill="rgb(100%, 100%, 100%)" fill-opacity="1"><g transform="translate(358.108755, 561.617229)"><g><path d="M 5 -1.53125 C 5 -1.019531 4.796875 -0.625 4.390625 -0.34375 C 3.992188 -0.0625 3.4375 0.078125 2.71875 0.078125 C 1.363281 0.078125 0.578125 -0.390625 0.359375 -1.328125 L 1.09375 -1.46875 C 1.175781 -1.132812 1.351562 -0.890625 1.625 -0.734375 C 1.894531 -0.578125 2.265625 -0.5 2.734375 -0.5 C 3.222656 -0.5 3.597656 -0.582031 3.859375 -0.75 C 4.117188 -0.914062 4.25 -1.160156 4.25 -1.484375 C 4.25 -1.671875 4.207031 -1.816406 4.125 -1.921875 C 4.039062 -2.035156 3.925781 -2.128906 3.78125 -2.203125 C 3.632812 -2.273438 3.457031 -2.335938 3.25 -2.390625 C 3.039062 -2.441406 2.8125 -2.492188 2.5625 -2.546875 C 2.125 -2.648438 1.789062 -2.75 1.5625 -2.84375 C 1.332031 -2.9375 1.148438 -3.039062 1.015625 -3.15625 C 0.890625 -3.28125 0.789062 -3.421875 0.71875 -3.578125 C 0.65625 -3.742188 0.625 -3.929688 0.625 -4.140625 C 0.625 -4.609375 0.804688 -4.972656 1.171875 -5.234375 C 1.535156 -5.492188 2.054688 -5.625 2.734375 -5.625 C 3.359375 -5.625 3.835938 -5.523438 4.171875 -5.328125 C 4.503906 -5.140625 4.738281 -4.8125 4.875 -4.34375 L 4.125 -4.21875 C 4.039062 -4.507812 3.882812 -4.71875 3.65625 -4.84375 C 3.4375 -4.976562 3.125 -5.046875 2.71875 -5.046875 C 2.28125 -5.046875 1.941406 -4.972656 1.703125 -4.828125 C 1.472656 -4.679688 1.359375 -4.460938 1.359375 -4.171875 C 1.359375 -4.003906 1.398438 -3.863281 1.484375 -3.75 C 1.578125 -3.644531 1.707031 -3.550781 1.875 -3.46875 C 2.050781 -3.394531 2.394531 -3.300781 2.90625 -3.1875 C 3.070312 -3.144531 3.238281 -3.101562 3.40625 -3.0625 C 3.570312 -3.019531 3.734375 -2.972656 3.890625 -2.921875 C 4.046875 -2.867188 4.191406 -2.800781 4.328125 -2.71875 C 4.460938 -2.644531 4.578125 -2.550781 4.671875 -2.4375 C 4.773438 -2.332031 4.851562 -2.203125 4.90625 -2.046875 C 4.96875 -1.898438 5 -1.726562 5 -1.53125 Z M 5 -1.53125 "/></g></g></g><g fill="rgb(100%, 100%, 100%)" fill-opacity="1"><g transform="translate(363.470747, 561.617229)"><g><path d="M 4.140625 -2.125 C 4.140625 -1.382812 3.972656 -0.832031 3.640625 -0.46875 C 3.316406 -0.101562 2.84375 0.078125 2.21875 0.078125 C 1.59375 0.078125 1.125 -0.109375 0.8125 -0.484375 C 0.5 -0.867188 0.34375 -1.414062 0.34375 -2.125 C 0.34375 -3.59375 0.976562 -4.328125 2.25 -4.328125 C 2.894531 -4.328125 3.367188 -4.144531 3.671875 -3.78125 C 3.984375 -3.425781 4.140625 -2.875 4.140625 -2.125 Z M 3.390625 -2.125 C 3.390625 -2.71875 3.300781 -3.144531 3.125 -3.40625 C 2.957031 -3.675781 2.664062 -3.8125 2.25 -3.8125 C 1.84375 -3.8125 1.546875 -3.675781 1.359375 -3.40625 C 1.171875 -3.132812 1.078125 -2.707031 1.078125 -2.125 C 1.078125 -1.5625 1.164062 -1.140625 1.34375 -0.859375 C 1.53125 -0.578125 1.820312 -0.4375 2.21875 -0.4375 C 2.632812 -0.4375 2.929688 -0.570312 3.109375 -0.84375 C 3.296875 -1.125 3.390625 -1.550781 3.390625 -2.125 Z M 3.390625 -2.125 "/></g></g></g><g fill="rgb(100%, 100%, 100%)" fill-opacity="1"><g transform="translate(367.94169, 561.617229)"><g><path d="M 1.078125 -2.140625 C 1.078125 -1.578125 1.164062 -1.160156 1.34375 -0.890625 C 1.519531 -0.617188 1.789062 -0.484375 2.15625 -0.484375 C 2.40625 -0.484375 2.613281 -0.550781 2.78125 -0.6875 C 2.945312 -0.820312 3.050781 -1.03125 3.09375 -1.3125 L 3.8125 -1.265625 C 3.757812 -0.859375 3.582031 -0.53125 3.28125 -0.28125 C 2.988281 -0.0390625 2.617188 0.078125 2.171875 0.078125 C 1.578125 0.078125 1.125 -0.109375 0.8125 -0.484375 C 0.5 -0.859375 0.34375 -1.40625 0.34375 -2.125 C 0.34375 -2.84375 0.5 -3.390625 0.8125 -3.765625 C 1.125 -4.140625 1.578125 -4.328125 2.171875 -4.328125 C 2.597656 -4.328125 2.953125 -4.210938 3.234375 -3.984375 C 3.523438 -3.765625 3.707031 -3.457031 3.78125 -3.0625 L 3.0625 -3 C 3.019531 -3.238281 2.925781 -3.425781 2.78125 -3.5625 C 2.632812 -3.707031 2.421875 -3.78125 2.140625 -3.78125 C 1.765625 -3.78125 1.492188 -3.65625 1.328125 -3.40625 C 1.160156 -3.15625 1.078125 -2.734375 1.078125 -2.140625 Z M 1.078125 -2.140625 "/></g></g></g><g fill="rgb(100%, 100%, 100%)" fill-opacity="1"><g transform="translate(371.961221, 561.617229)"><g><path d="M 0.53125 -5.15625 L 0.53125 -5.828125 L 1.25 -5.828125 L 1.25 -5.15625 Z M 0.53125 0 L 0.53125 -4.25 L 1.25 -4.25 L 1.25 0 Z M 0.53125 0 "/></g></g></g><g fill="rgb(100%, 100%, 100%)" fill-opacity="1"><g transform="translate(373.747243, 561.617229)"><g><path d="M 1.625 0.078125 C 1.195312 0.078125 0.875 -0.03125 0.65625 -0.25 C 0.445312 -0.476562 0.34375 -0.789062 0.34375 -1.1875 C 0.34375 -1.625 0.484375 -1.957031 0.765625 -2.1875 C 1.054688 -2.425781 1.523438 -2.554688 2.171875 -2.578125 L 3.125 -2.59375 L 3.125 -2.828125 C 3.125 -3.171875 3.050781 -3.414062 2.90625 -3.5625 C 2.757812 -3.71875 2.53125 -3.796875 2.21875 -3.796875 C 1.90625 -3.796875 1.675781 -3.738281 1.53125 -3.625 C 1.382812 -3.519531 1.296875 -3.347656 1.265625 -3.109375 L 0.53125 -3.1875 C 0.65625 -3.945312 1.222656 -4.328125 2.234375 -4.328125 C 2.765625 -4.328125 3.164062 -4.203125 3.4375 -3.953125 C 3.707031 -3.710938 3.84375 -3.363281 3.84375 -2.90625 L 3.84375 -1.0625 C 3.84375 -0.851562 3.867188 -0.695312 3.921875 -0.59375 C 3.984375 -0.488281 4.09375 -0.4375 4.25 -0.4375 C 4.3125 -0.4375 4.382812 -0.445312 4.46875 -0.46875 L 4.46875 -0.03125 C 4.289062 0.0195312 4.109375 0.046875 3.921875 0.046875 C 3.660156 0.046875 3.46875 -0.0195312 3.34375 -0.15625 C 3.226562 -0.300781 3.164062 -0.519531 3.15625 -0.8125 L 3.125 -0.8125 C 2.945312 -0.488281 2.738281 -0.257812 2.5 -0.125 C 2.257812 0.0078125 1.96875 0.078125 1.625 0.078125 Z M 1.78125 -0.453125 C 2.039062 -0.453125 2.269531 -0.507812 2.46875 -0.625 C 2.675781 -0.75 2.835938 -0.910156 2.953125 -1.109375 C 3.066406 -1.316406 3.125 -1.53125 3.125 -1.75 L 3.125 -2.09375 L 2.359375 -2.078125 C 2.023438 -2.078125 1.769531 -2.046875 1.59375 -1.984375 C 1.425781 -1.921875 1.296875 -1.820312 1.203125 -1.6875 C 1.109375 -1.5625 1.0625 -1.390625 1.0625 -1.171875 C 1.0625 -0.941406 1.125 -0.765625 1.25 -0.640625 C 1.375 -0.515625 1.550781 -0.453125 1.78125 -0.453125 Z M 1.78125 -0.453125 "/></g></g></g><g fill="rgb(100%, 100%, 100%)" fill-opacity="1"><g transform="translate(378.218187, 561.617229)"><g><path d="M 0.546875 0 L 0.546875 -5.828125 L 1.25 -5.828125 L 1.25 0 Z M 0.546875 0 "/></g></g></g><g fill="rgb(100%, 100%, 100%)" fill-opacity="1"><g transform="translate(380.004209, 561.617229)"><g/></g></g><g fill="rgb(100%, 100%, 100%)" fill-opacity="1"><g transform="translate(382.237718, 561.617229)"><g><path d="M 1.078125 -2.140625 C 1.078125 -1.578125 1.164062 -1.160156 1.34375 -0.890625 C 1.519531 -0.617188 1.789062 -0.484375 2.15625 -0.484375 C 2.40625 -0.484375 2.613281 -0.550781 2.78125 -0.6875 C 2.945312 -0.820312 3.050781 -1.03125 3.09375 -1.3125 L 3.8125 -1.265625 C 3.757812 -0.859375 3.582031 -0.53125 3.28125 -0.28125 C 2.988281 -0.0390625 2.617188 0.078125 2.171875 0.078125 C 1.578125 0.078125 1.125 -0.109375 0.8125 -0.484375 C 0.5 -0.859375 0.34375 -1.40625 0.34375 -2.125 C 0.34375 -2.84375 0.5 -3.390625 0.8125 -3.765625 C 1.125 -4.140625 1.578125 -4.328125 2.171875 -4.328125 C 2.597656 -4.328125 2.953125 -4.210938 3.234375 -3.984375 C 3.523438 -3.765625 3.707031 -3.457031 3.78125 -3.0625 L 3.0625 -3 C 3.019531 -3.238281 2.925781 -3.425781 2.78125 -3.5625 C 2.632812 -3.707031 2.421875 -3.78125 2.140625 -3.78125 C 1.765625 -3.78125 1.492188 -3.65625 1.328125 -3.40625 C 1.160156 -3.15625 1.078125 -2.734375 1.078125 -2.140625 Z M 1.078125 -2.140625 "/></g></g></g><g fill="rgb(100%, 100%, 100%)" fill-opacity="1"><g transform="translate(386.257249, 561.617229)"><g><path d="M 1.625 0.078125 C 1.195312 0.078125 0.875 -0.03125 0.65625 -0.25 C 0.445312 -0.476562 0.34375 -0.789062 0.34375 -1.1875 C 0.34375 -1.625 0.484375 -1.957031 0.765625 -2.1875 C 1.054688 -2.425781 1.523438 -2.554688 2.171875 -2.578125 L 3.125 -2.59375 L 3.125 -2.828125 C 3.125 -3.171875 3.050781 -3.414062 2.90625 -3.5625 C 2.757812 -3.71875 2.53125 -3.796875 2.21875 -3.796875 C 1.90625 -3.796875 1.675781 -3.738281 1.53125 -3.625 C 1.382812 -3.519531 1.296875 -3.347656 1.265625 -3.109375 L 0.53125 -3.1875 C 0.65625 -3.945312 1.222656 -4.328125 2.234375 -4.328125 C 2.765625 -4.328125 3.164062 -4.203125 3.4375 -3.953125 C 3.707031 -3.710938 3.84375 -3.363281 3.84375 -2.90625 L 3.84375 -1.0625 C 3.84375 -0.851562 3.867188 -0.695312 3.921875 -0.59375 C 3.984375 -0.488281 4.09375 -0.4375 4.25 -0.4375 C 4.3125 -0.4375 4.382812 -0.445312 4.46875 -0.46875 L 4.46875 -0.03125 C 4.289062 0.0195312 4.109375 0.046875 3.921875 0.046875 C 3.660156 0.046875 3.46875 -0.0195312 3.34375 -0.15625 C 3.226562 -0.300781 3.164062 -0.519531 3.15625 -0.8125 L 3.125 -0.8125 C 2.945312 -0.488281 2.738281 -0.257812 2.5 -0.125 C 2.257812 0.0078125 1.96875 0.078125 1.625 0.078125 Z M 1.78125 -0.453125 C 2.039062 -0.453125 2.269531 -0.507812 2.46875 -0.625 C 2.675781 -0.75 2.835938 -0.910156 2.953125 -1.109375 C 3.066406 -1.316406 3.125 -1.53125 3.125 -1.75 L 3.125 -2.09375 L 2.359375 -2.078125 C 2.023438 -2.078125 1.769531 -2.046875 1.59375 -1.984375 C 1.425781 -1.921875 1.296875 -1.820312 1.203125 -1.6875 C 1.109375 -1.5625 1.0625 -1.390625 1.0625 -1.171875 C 1.0625 -0.941406 1.125 -0.765625 1.25 -0.640625 C 1.375 -0.515625 1.550781 -0.453125 1.78125 -0.453125 Z M 1.78125 -0.453125 "/></g></g></g><g fill="rgb(100%, 100%, 100%)" fill-opacity="1"><g transform="translate(390.728192, 561.617229)"><g><path d="M 4.140625 -2.140625 C 4.140625 -0.660156 3.617188 0.078125 2.578125 0.078125 C 1.921875 0.078125 1.476562 -0.164062 1.25 -0.65625 L 1.234375 -0.65625 C 1.242188 -0.632812 1.25 -0.410156 1.25 0.015625 L 1.25 1.671875 L 0.546875 1.671875 L 0.546875 -3.390625 C 0.546875 -3.828125 0.535156 -4.113281 0.515625 -4.25 L 1.203125 -4.25 C 1.203125 -4.238281 1.203125 -4.203125 1.203125 -4.140625 C 1.210938 -4.078125 1.21875 -3.976562 1.21875 -3.84375 C 1.226562 -3.707031 1.234375 -3.613281 1.234375 -3.5625 L 1.25 -3.5625 C 1.382812 -3.820312 1.550781 -4.015625 1.75 -4.140625 C 1.957031 -4.265625 2.234375 -4.328125 2.578125 -4.328125 C 3.097656 -4.328125 3.488281 -4.148438 3.75 -3.796875 C 4.007812 -3.441406 4.140625 -2.890625 4.140625 -2.140625 Z M 3.390625 -2.125 C 3.390625 -2.71875 3.3125 -3.140625 3.15625 -3.390625 C 3 -3.648438 2.742188 -3.78125 2.390625 -3.78125 C 2.109375 -3.78125 1.890625 -3.71875 1.734375 -3.59375 C 1.578125 -3.476562 1.457031 -3.296875 1.375 -3.046875 C 1.289062 -2.796875 1.25 -2.472656 1.25 -2.078125 C 1.25 -1.515625 1.335938 -1.097656 1.515625 -0.828125 C 1.691406 -0.566406 1.984375 -0.4375 2.390625 -0.4375 C 2.734375 -0.4375 2.984375 -0.566406 3.140625 -0.828125 C 3.304688 -1.085938 3.390625 -1.519531 3.390625 -2.125 Z M 3.390625 -2.125 "/></g></g></g><g fill="rgb(100%, 100%, 100%)" fill-opacity="1"><g transform="translate(395.199135, 561.617229)"><g><path d="M 0.53125 -5.15625 L 0.53125 -5.828125 L 1.25 -5.828125 L 1.25 -5.15625 Z M 0.53125 0 L 0.53125 -4.25 L 1.25 -4.25 L 1.25 0 Z M 0.53125 0 "/></g></g></g><g fill="rgb(100%, 100%, 100%)" fill-opacity="1"><g transform="translate(396.985157, 561.617229)"><g><path d="M 2.171875 -0.03125 C 1.941406 0.03125 1.707031 0.0625 1.46875 0.0625 C 0.894531 0.0625 0.609375 -0.257812 0.609375 -0.90625 L 0.609375 -3.734375 L 0.125 -3.734375 L 0.125 -4.25 L 0.640625 -4.25 L 0.84375 -5.203125 L 1.3125 -5.203125 L 1.3125 -4.25 L 2.109375 -4.25 L 2.109375 -3.734375 L 1.3125 -3.734375 L 1.3125 -1.046875 C 1.3125 -0.847656 1.34375 -0.707031 1.40625 -0.625 C 1.476562 -0.539062 1.597656 -0.5 1.765625 -0.5 C 1.859375 -0.5 1.992188 -0.515625 2.171875 -0.546875 Z M 2.171875 -0.03125 "/></g></g></g><g fill="rgb(100%, 100%, 100%)" fill-opacity="1"><g transform="translate(399.218666, 561.617229)"><g><path d="M 1.625 0.078125 C 1.195312 0.078125 0.875 -0.03125 0.65625 -0.25 C 0.445312 -0.476562 0.34375 -0.789062 0.34375 -1.1875 C 0.34375 -1.625 0.484375 -1.957031 0.765625 -2.1875 C 1.054688 -2.425781 1.523438 -2.554688 2.171875 -2.578125 L 3.125 -2.59375 L 3.125 -2.828125 C 3.125 -3.171875 3.050781 -3.414062 2.90625 -3.5625 C 2.757812 -3.71875 2.53125 -3.796875 2.21875 -3.796875 C 1.90625 -3.796875 1.675781 -3.738281 1.53125 -3.625 C 1.382812 -3.519531 1.296875 -3.347656 1.265625 -3.109375 L 0.53125 -3.1875 C 0.65625 -3.945312 1.222656 -4.328125 2.234375 -4.328125 C 2.765625 -4.328125 3.164062 -4.203125 3.4375 -3.953125 C 3.707031 -3.710938 3.84375 -3.363281 3.84375 -2.90625 L 3.84375 -1.0625 C 3.84375 -0.851562 3.867188 -0.695312 3.921875 -0.59375 C 3.984375 -0.488281 4.09375 -0.4375 4.25 -0.4375 C 4.3125 -0.4375 4.382812 -0.445312 4.46875 -0.46875 L 4.46875 -0.03125 C 4.289062 0.0195312 4.109375 0.046875 3.921875 0.046875 C 3.660156 0.046875 3.46875 -0.0195312 3.34375 -0.15625 C 3.226562 -0.300781 3.164062 -0.519531 3.15625 -0.8125 L 3.125 -0.8125 C 2.945312 -0.488281 2.738281 -0.257812 2.5 -0.125 C 2.257812 0.0078125 1.96875 0.078125 1.625 0.078125 Z M 1.78125 -0.453125 C 2.039062 -0.453125 2.269531 -0.507812 2.46875 -0.625 C 2.675781 -0.75 2.835938 -0.910156 2.953125 -1.109375 C 3.066406 -1.316406 3.125 -1.53125 3.125 -1.75 L 3.125 -2.09375 L 2.359375 -2.078125 C 2.023438 -2.078125 1.769531 -2.046875 1.59375 -1.984375 C 1.425781 -1.921875 1.296875 -1.820312 1.203125 -1.6875 C 1.109375 -1.5625 1.0625 -1.390625 1.0625 -1.171875 C 1.0625 -0.941406 1.125 -0.765625 1.25 -0.640625 C 1.375 -0.515625 1.550781 -0.453125 1.78125 -0.453125 Z M 1.78125 -0.453125 "/></g></g></g><g fill="rgb(100%, 100%, 100%)" fill-opacity="1"><g transform="translate(403.68961, 561.617229)"><g><path d="M 0.546875 0 L 0.546875 -5.828125 L 1.25 -5.828125 L 1.25 0 Z M 0.546875 0 "/></g></g></g><g fill="rgb(100%, 100%, 100%)" fill-opacity="1"><g transform="translate(501.335783, 561.617229)"><g><path d="M 0.75 0 L 0.75 -5.53125 L 1.5 -5.53125 L 1.5 0 Z M 0.75 0 "/></g></g></g><g fill="rgb(100%, 100%, 100%)" fill-opacity="1"><g transform="translate(503.569292, 561.617229)"><g><path d="M 3.234375 0 L 3.234375 -2.703125 C 3.234375 -2.972656 3.207031 -3.1875 3.15625 -3.34375 C 3.101562 -3.5 3.015625 -3.609375 2.890625 -3.671875 C 2.773438 -3.742188 2.597656 -3.78125 2.359375 -3.78125 C 2.023438 -3.78125 1.757812 -3.660156 1.5625 -3.421875 C 1.363281 -3.191406 1.265625 -2.875 1.265625 -2.46875 L 1.265625 0 L 0.5625 0 L 0.5625 -3.34375 C 0.5625 -3.84375 0.550781 -4.144531 0.53125 -4.25 L 1.203125 -4.25 C 1.203125 -4.238281 1.203125 -4.203125 1.203125 -4.140625 C 1.210938 -4.085938 1.21875 -4.019531 1.21875 -3.9375 C 1.21875 -3.863281 1.222656 -3.726562 1.234375 -3.53125 L 1.25 -3.53125 C 1.40625 -3.820312 1.585938 -4.023438 1.796875 -4.140625 C 2.015625 -4.265625 2.285156 -4.328125 2.609375 -4.328125 C 3.066406 -4.328125 3.40625 -4.210938 3.625 -3.984375 C 3.84375 -3.753906 3.953125 -3.367188 3.953125 -2.828125 L 3.953125 0 Z M 3.234375 0 "/></g></g></g><g fill="rgb(100%, 100%, 100%)" fill-opacity="1"><g transform="translate(508.040236, 561.617229)"><g><path d="M 2.171875 -0.03125 C 1.941406 0.03125 1.707031 0.0625 1.46875 0.0625 C 0.894531 0.0625 0.609375 -0.257812 0.609375 -0.90625 L 0.609375 -3.734375 L 0.125 -3.734375 L 0.125 -4.25 L 0.640625 -4.25 L 0.84375 -5.203125 L 1.3125 -5.203125 L 1.3125 -4.25 L 2.109375 -4.25 L 2.109375 -3.734375 L 1.3125 -3.734375 L 1.3125 -1.046875 C 1.3125 -0.847656 1.34375 -0.707031 1.40625 -0.625 C 1.476562 -0.539062 1.597656 -0.5 1.765625 -0.5 C 1.859375 -0.5 1.992188 -0.515625 2.171875 -0.546875 Z M 2.171875 -0.03125 "/></g></g></g><g fill="rgb(100%, 100%, 100%)" fill-opacity="1"><g transform="translate(510.273745, 561.617229)"><g><path d="M 1.078125 -1.96875 C 1.078125 -1.488281 1.175781 -1.113281 1.375 -0.84375 C 1.582031 -0.582031 1.878906 -0.453125 2.265625 -0.453125 C 2.578125 -0.453125 2.820312 -0.515625 3 -0.640625 C 3.1875 -0.765625 3.316406 -0.921875 3.390625 -1.109375 L 4 -0.921875 C 3.75 -0.253906 3.171875 0.078125 2.265625 0.078125 C 1.640625 0.078125 1.160156 -0.109375 0.828125 -0.484375 C 0.503906 -0.859375 0.34375 -1.414062 0.34375 -2.15625 C 0.34375 -2.851562 0.503906 -3.390625 0.828125 -3.765625 C 1.160156 -4.140625 1.632812 -4.328125 2.25 -4.328125 C 3.5 -4.328125 4.125 -3.578125 4.125 -2.078125 L 4.125 -1.96875 Z M 3.390625 -2.515625 C 3.347656 -2.960938 3.234375 -3.289062 3.046875 -3.5 C 2.859375 -3.707031 2.585938 -3.8125 2.234375 -3.8125 C 1.890625 -3.8125 1.613281 -3.695312 1.40625 -3.46875 C 1.207031 -3.238281 1.101562 -2.921875 1.09375 -2.515625 Z M 3.390625 -2.515625 "/></g></g></g><g fill="rgb(100%, 100%, 100%)" fill-opacity="1"><g transform="translate(514.744688, 561.617229)"><g><path d="M 0.546875 0 L 0.546875 -5.828125 L 1.25 -5.828125 L 1.25 0 Z M 0.546875 0 "/></g></g></g><g fill="rgb(100%, 100%, 100%)" fill-opacity="1"><g transform="translate(516.53071, 561.617229)"><g><path d="M 0.546875 0 L 0.546875 -5.828125 L 1.25 -5.828125 L 1.25 0 Z M 0.546875 0 "/></g></g></g><g fill="rgb(100%, 100%, 100%)" fill-opacity="1"><g transform="translate(518.316732, 561.617229)"><g><path d="M 1.078125 -1.96875 C 1.078125 -1.488281 1.175781 -1.113281 1.375 -0.84375 C 1.582031 -0.582031 1.878906 -0.453125 2.265625 -0.453125 C 2.578125 -0.453125 2.820312 -0.515625 3 -0.640625 C 3.1875 -0.765625 3.316406 -0.921875 3.390625 -1.109375 L 4 -0.921875 C 3.75 -0.253906 3.171875 0.078125 2.265625 0.078125 C 1.640625 0.078125 1.160156 -0.109375 0.828125 -0.484375 C 0.503906 -0.859375 0.34375 -1.414062 0.34375 -2.15625 C 0.34375 -2.851562 0.503906 -3.390625 0.828125 -3.765625 C 1.160156 -4.140625 1.632812 -4.328125 2.25 -4.328125 C 3.5 -4.328125 4.125 -3.578125 4.125 -2.078125 L 4.125 -1.96875 Z M 3.390625 -2.515625 C 3.347656 -2.960938 3.234375 -3.289062 3.046875 -3.5 C 2.859375 -3.707031 2.585938 -3.8125 2.234375 -3.8125 C 1.890625 -3.8125 1.613281 -3.695312 1.40625 -3.46875 C 1.207031 -3.238281 1.101562 -2.921875 1.09375 -2.515625 Z M 3.390625 -2.515625 "/></g></g></g><g fill="rgb(100%, 100%, 100%)" fill-opacity="1"><g transform="translate(522.787675, 561.617229)"><g><path d="M 1.078125 -2.140625 C 1.078125 -1.578125 1.164062 -1.160156 1.34375 -0.890625 C 1.519531 -0.617188 1.789062 -0.484375 2.15625 -0.484375 C 2.40625 -0.484375 2.613281 -0.550781 2.78125 -0.6875 C 2.945312 -0.820312 3.050781 -1.03125 3.09375 -1.3125 L 3.8125 -1.265625 C 3.757812 -0.859375 3.582031 -0.53125 3.28125 -0.28125 C 2.988281 -0.0390625 2.617188 0.078125 2.171875 0.078125 C 1.578125 0.078125 1.125 -0.109375 0.8125 -0.484375 C 0.5 -0.859375 0.34375 -1.40625 0.34375 -2.125 C 0.34375 -2.84375 0.5 -3.390625 0.8125 -3.765625 C 1.125 -4.140625 1.578125 -4.328125 2.171875 -4.328125 C 2.597656 -4.328125 2.953125 -4.210938 3.234375 -3.984375 C 3.523438 -3.765625 3.707031 -3.457031 3.78125 -3.0625 L 3.0625 -3 C 3.019531 -3.238281 2.925781 -3.425781 2.78125 -3.5625 C 2.632812 -3.707031 2.421875 -3.78125 2.140625 -3.78125 C 1.765625 -3.78125 1.492188 -3.65625 1.328125 -3.40625 C 1.160156 -3.15625 1.078125 -2.734375 1.078125 -2.140625 Z M 1.078125 -2.140625 "/></g></g></g><g fill="rgb(100%, 100%, 100%)" fill-opacity="1"><g transform="translate(526.807206, 561.617229)"><g><path d="M 2.171875 -0.03125 C 1.941406 0.03125 1.707031 0.0625 1.46875 0.0625 C 0.894531 0.0625 0.609375 -0.257812 0.609375 -0.90625 L 0.609375 -3.734375 L 0.125 -3.734375 L 0.125 -4.25 L 0.640625 -4.25 L 0.84375 -5.203125 L 1.3125 -5.203125 L 1.3125 -4.25 L 2.109375 -4.25 L 2.109375 -3.734375 L 1.3125 -3.734375 L 1.3125 -1.046875 C 1.3125 -0.847656 1.34375 -0.707031 1.40625 -0.625 C 1.476562 -0.539062 1.597656 -0.5 1.765625 -0.5 C 1.859375 -0.5 1.992188 -0.515625 2.171875 -0.546875 Z M 2.171875 -0.03125 "/></g></g></g><g fill="rgb(100%, 100%, 100%)" fill-opacity="1"><g transform="translate(529.040715, 561.617229)"><g><path d="M 1.234375 -4.25 L 1.234375 -1.5625 C 1.234375 -1.28125 1.257812 -1.0625 1.3125 -0.90625 C 1.375 -0.75 1.460938 -0.632812 1.578125 -0.5625 C 1.703125 -0.5 1.878906 -0.46875 2.109375 -0.46875 C 2.453125 -0.46875 2.71875 -0.582031 2.90625 -0.8125 C 3.101562 -1.050781 3.203125 -1.375 3.203125 -1.78125 L 3.203125 -4.25 L 3.921875 -4.25 L 3.921875 -0.90625 C 3.921875 -0.414062 3.925781 -0.113281 3.9375 0 L 3.265625 0 C 3.265625 -0.0078125 3.265625 -0.0390625 3.265625 -0.09375 C 3.265625 -0.15625 3.257812 -0.222656 3.25 -0.296875 C 3.25 -0.378906 3.242188 -0.523438 3.234375 -0.734375 C 3.066406 -0.429688 2.875 -0.21875 2.65625 -0.09375 C 2.445312 0.0195312 2.1875 0.078125 1.875 0.078125 C 1.40625 0.078125 1.0625 -0.0351562 0.84375 -0.265625 C 0.625 -0.492188 0.515625 -0.878906 0.515625 -1.421875 L 0.515625 -4.25 Z M 1.234375 -4.25 "/></g></g></g><g fill="rgb(100%, 100%, 100%)" fill-opacity="1"><g transform="translate(533.511659, 561.617229)"><g><path d="M 1.625 0.078125 C 1.195312 0.078125 0.875 -0.03125 0.65625 -0.25 C 0.445312 -0.476562 0.34375 -0.789062 0.34375 -1.1875 C 0.34375 -1.625 0.484375 -1.957031 0.765625 -2.1875 C 1.054688 -2.425781 1.523438 -2.554688 2.171875 -2.578125 L 3.125 -2.59375 L 3.125 -2.828125 C 3.125 -3.171875 3.050781 -3.414062 2.90625 -3.5625 C 2.757812 -3.71875 2.53125 -3.796875 2.21875 -3.796875 C 1.90625 -3.796875 1.675781 -3.738281 1.53125 -3.625 C 1.382812 -3.519531 1.296875 -3.347656 1.265625 -3.109375 L 0.53125 -3.1875 C 0.65625 -3.945312 1.222656 -4.328125 2.234375 -4.328125 C 2.765625 -4.328125 3.164062 -4.203125 3.4375 -3.953125 C 3.707031 -3.710938 3.84375 -3.363281 3.84375 -2.90625 L 3.84375 -1.0625 C 3.84375 -0.851562 3.867188 -0.695312 3.921875 -0.59375 C 3.984375 -0.488281 4.09375 -0.4375 4.25 -0.4375 C 4.3125 -0.4375 4.382812 -0.445312 4.46875 -0.46875 L 4.46875 -0.03125 C 4.289062 0.0195312 4.109375 0.046875 3.921875 0.046875 C 3.660156 0.046875 3.46875 -0.0195312 3.34375 -0.15625 C 3.226562 -0.300781 3.164062 -0.519531 3.15625 -0.8125 L 3.125 -0.8125 C 2.945312 -0.488281 2.738281 -0.257812 2.5 -0.125 C 2.257812 0.0078125 1.96875 0.078125 1.625 0.078125 Z M 1.78125 -0.453125 C 2.039062 -0.453125 2.269531 -0.507812 2.46875 -0.625 C 2.675781 -0.75 2.835938 -0.910156 2.953125 -1.109375 C 3.066406 -1.316406 3.125 -1.53125 3.125 -1.75 L 3.125 -2.09375 L 2.359375 -2.078125 C 2.023438 -2.078125 1.769531 -2.046875 1.59375 -1.984375 C 1.425781 -1.921875 1.296875 -1.820312 1.203125 -1.6875 C 1.109375 -1.5625 1.0625 -1.390625 1.0625 -1.171875 C 1.0625 -0.941406 1.125 -0.765625 1.25 -0.640625 C 1.375 -0.515625 1.550781 -0.453125 1.78125 -0.453125 Z M 1.78125 -0.453125 "/></g></g></g><g fill="rgb(100%, 100%, 100%)" fill-opacity="1"><g transform="translate(537.982602, 561.617229)"><g><path d="M 0.546875 0 L 0.546875 -5.828125 L 1.25 -5.828125 L 1.25 0 Z M 0.546875 0 "/></g></g></g><g fill="rgb(100%, 100%, 100%)" fill-opacity="1"><g transform="translate(539.768624, 561.617229)"><g/></g></g><g fill="rgb(100%, 100%, 100%)" fill-opacity="1"><g transform="translate(542.002133, 561.617229)"><g><path d="M 1.078125 -2.140625 C 1.078125 -1.578125 1.164062 -1.160156 1.34375 -0.890625 C 1.519531 -0.617188 1.789062 -0.484375 2.15625 -0.484375 C 2.40625 -0.484375 2.613281 -0.550781 2.78125 -0.6875 C 2.945312 -0.820312 3.050781 -1.03125 3.09375 -1.3125 L 3.8125 -1.265625 C 3.757812 -0.859375 3.582031 -0.53125 3.28125 -0.28125 C 2.988281 -0.0390625 2.617188 0.078125 2.171875 0.078125 C 1.578125 0.078125 1.125 -0.109375 0.8125 -0.484375 C 0.5 -0.859375 0.34375 -1.40625 0.34375 -2.125 C 0.34375 -2.84375 0.5 -3.390625 0.8125 -3.765625 C 1.125 -4.140625 1.578125 -4.328125 2.171875 -4.328125 C 2.597656 -4.328125 2.953125 -4.210938 3.234375 -3.984375 C 3.523438 -3.765625 3.707031 -3.457031 3.78125 -3.0625 L 3.0625 -3 C 3.019531 -3.238281 2.925781 -3.425781 2.78125 -3.5625 C 2.632812 -3.707031 2.421875 -3.78125 2.140625 -3.78125 C 1.765625 -3.78125 1.492188 -3.65625 1.328125 -3.40625 C 1.160156 -3.15625 1.078125 -2.734375 1.078125 -2.140625 Z M 1.078125 -2.140625 "/></g></g></g><g fill="rgb(100%, 100%, 100%)" fill-opacity="1"><g transform="translate(546.021664, 561.617229)"><g><path d="M 1.625 0.078125 C 1.195312 0.078125 0.875 -0.03125 0.65625 -0.25 C 0.445312 -0.476562 0.34375 -0.789062 0.34375 -1.1875 C 0.34375 -1.625 0.484375 -1.957031 0.765625 -2.1875 C 1.054688 -2.425781 1.523438 -2.554688 2.171875 -2.578125 L 3.125 -2.59375 L 3.125 -2.828125 C 3.125 -3.171875 3.050781 -3.414062 2.90625 -3.5625 C 2.757812 -3.71875 2.53125 -3.796875 2.21875 -3.796875 C 1.90625 -3.796875 1.675781 -3.738281 1.53125 -3.625 C 1.382812 -3.519531 1.296875 -3.347656 1.265625 -3.109375 L 0.53125 -3.1875 C 0.65625 -3.945312 1.222656 -4.328125 2.234375 -4.328125 C 2.765625 -4.328125 3.164062 -4.203125 3.4375 -3.953125 C 3.707031 -3.710938 3.84375 -3.363281 3.84375 -2.90625 L 3.84375 -1.0625 C 3.84375 -0.851562 3.867188 -0.695312 3.921875 -0.59375 C 3.984375 -0.488281 4.09375 -0.4375 4.25 -0.4375 C 4.3125 -0.4375 4.382812 -0.445312 4.46875 -0.46875 L 4.46875 -0.03125 C 4.289062 0.0195312 4.109375 0.046875 3.921875 0.046875 C 3.660156 0.046875 3.46875 -0.0195312 3.34375 -0.15625 C 3.226562 -0.300781 3.164062 -0.519531 3.15625 -0.8125 L 3.125 -0.8125 C 2.945312 -0.488281 2.738281 -0.257812 2.5 -0.125 C 2.257812 0.0078125 1.96875 0.078125 1.625 0.078125 Z M 1.78125 -0.453125 C 2.039062 -0.453125 2.269531 -0.507812 2.46875 -0.625 C 2.675781 -0.75 2.835938 -0.910156 2.953125 -1.109375 C 3.066406 -1.316406 3.125 -1.53125 3.125 -1.75 L 3.125 -2.09375 L 2.359375 -2.078125 C 2.023438 -2.078125 1.769531 -2.046875 1.59375 -1.984375 C 1.425781 -1.921875 1.296875 -1.820312 1.203125 -1.6875 C 1.109375 -1.5625 1.0625 -1.390625 1.0625 -1.171875 C 1.0625 -0.941406 1.125 -0.765625 1.25 -0.640625 C 1.375 -0.515625 1.550781 -0.453125 1.78125 -0.453125 Z M 1.78125 -0.453125 "/></g></g></g><g fill="rgb(100%, 100%, 100%)" fill-opacity="1"><g transform="translate(550.492607, 561.617229)"><g><path d="M 4.140625 -2.140625 C 4.140625 -0.660156 3.617188 0.078125 2.578125 0.078125 C 1.921875 0.078125 1.476562 -0.164062 1.25 -0.65625 L 1.234375 -0.65625 C 1.242188 -0.632812 1.25 -0.410156 1.25 0.015625 L 1.25 1.671875 L 0.546875 1.671875 L 0.546875 -3.390625 C 0.546875 -3.828125 0.535156 -4.113281 0.515625 -4.25 L 1.203125 -4.25 C 1.203125 -4.238281 1.203125 -4.203125 1.203125 -4.140625 C 1.210938 -4.078125 1.21875 -3.976562 1.21875 -3.84375 C 1.226562 -3.707031 1.234375 -3.613281 1.234375 -3.5625 L 1.25 -3.5625 C 1.382812 -3.820312 1.550781 -4.015625 1.75 -4.140625 C 1.957031 -4.265625 2.234375 -4.328125 2.578125 -4.328125 C 3.097656 -4.328125 3.488281 -4.148438 3.75 -3.796875 C 4.007812 -3.441406 4.140625 -2.890625 4.140625 -2.140625 Z M 3.390625 -2.125 C 3.390625 -2.71875 3.3125 -3.140625 3.15625 -3.390625 C 3 -3.648438 2.742188 -3.78125 2.390625 -3.78125 C 2.109375 -3.78125 1.890625 -3.71875 1.734375 -3.59375 C 1.578125 -3.476562 1.457031 -3.296875 1.375 -3.046875 C 1.289062 -2.796875 1.25 -2.472656 1.25 -2.078125 C 1.25 -1.515625 1.335938 -1.097656 1.515625 -0.828125 C 1.691406 -0.566406 1.984375 -0.4375 2.390625 -0.4375 C 2.734375 -0.4375 2.984375 -0.566406 3.140625 -0.828125 C 3.304688 -1.085938 3.390625 -1.519531 3.390625 -2.125 Z M 3.390625 -2.125 "/></g></g></g><g fill="rgb(100%, 100%, 100%)" fill-opacity="1"><g transform="translate(554.96355, 561.617229)"><g><path d="M 0.53125 -5.15625 L 0.53125 -5.828125 L 1.25 -5.828125 L 1.25 -5.15625 Z M 0.53125 0 L 0.53125 -4.25 L 1.25 -4.25 L 1.25 0 Z M 0.53125 0 "/></g></g></g><g fill="rgb(100%, 100%, 100%)" fill-opacity="1"><g transform="translate(556.749573, 561.617229)"><g><path d="M 2.171875 -0.03125 C 1.941406 0.03125 1.707031 0.0625 1.46875 0.0625 C 0.894531 0.0625 0.609375 -0.257812 0.609375 -0.90625 L 0.609375 -3.734375 L 0.125 -3.734375 L 0.125 -4.25 L 0.640625 -4.25 L 0.84375 -5.203125 L 1.3125 -5.203125 L 1.3125 -4.25 L 2.109375 -4.25 L 2.109375 -3.734375 L 1.3125 -3.734375 L 1.3125 -1.046875 C 1.3125 -0.847656 1.34375 -0.707031 1.40625 -0.625 C 1.476562 -0.539062 1.597656 -0.5 1.765625 -0.5 C 1.859375 -0.5 1.992188 -0.515625 2.171875 -0.546875 Z M 2.171875 -0.03125 "/></g></g></g><g fill="rgb(100%, 100%, 100%)" fill-opacity="1"><g transform="translate(558.983082, 561.617229)"><g><path d="M 1.625 0.078125 C 1.195312 0.078125 0.875 -0.03125 0.65625 -0.25 C 0.445312 -0.476562 0.34375 -0.789062 0.34375 -1.1875 C 0.34375 -1.625 0.484375 -1.957031 0.765625 -2.1875 C 1.054688 -2.425781 1.523438 -2.554688 2.171875 -2.578125 L 3.125 -2.59375 L 3.125 -2.828125 C 3.125 -3.171875 3.050781 -3.414062 2.90625 -3.5625 C 2.757812 -3.71875 2.53125 -3.796875 2.21875 -3.796875 C 1.90625 -3.796875 1.675781 -3.738281 1.53125 -3.625 C 1.382812 -3.519531 1.296875 -3.347656 1.265625 -3.109375 L 0.53125 -3.1875 C 0.65625 -3.945312 1.222656 -4.328125 2.234375 -4.328125 C 2.765625 -4.328125 3.164062 -4.203125 3.4375 -3.953125 C 3.707031 -3.710938 3.84375 -3.363281 3.84375 -2.90625 L 3.84375 -1.0625 C 3.84375 -0.851562 3.867188 -0.695312 3.921875 -0.59375 C 3.984375 -0.488281 4.09375 -0.4375 4.25 -0.4375 C 4.3125 -0.4375 4.382812 -0.445312 4.46875 -0.46875 L 4.46875 -0.03125 C 4.289062 0.0195312 4.109375 0.046875 3.921875 0.046875 C 3.660156 0.046875 3.46875 -0.0195312 3.34375 -0.15625 C 3.226562 -0.300781 3.164062 -0.519531 3.15625 -0.8125 L 3.125 -0.8125 C 2.945312 -0.488281 2.738281 -0.257812 2.5 -0.125 C 2.257812 0.0078125 1.96875 0.078125 1.625 0.078125 Z M 1.78125 -0.453125 C 2.039062 -0.453125 2.269531 -0.507812 2.46875 -0.625 C 2.675781 -0.75 2.835938 -0.910156 2.953125 -1.109375 C 3.066406 -1.316406 3.125 -1.53125 3.125 -1.75 L 3.125 -2.09375 L 2.359375 -2.078125 C 2.023438 -2.078125 1.769531 -2.046875 1.59375 -1.984375 C 1.425781 -1.921875 1.296875 -1.820312 1.203125 -1.6875 C 1.109375 -1.5625 1.0625 -1.390625 1.0625 -1.171875 C 1.0625 -0.941406 1.125 -0.765625 1.25 -0.640625 C 1.375 -0.515625 1.550781 -0.453125 1.78125 -0.453125 Z M 1.78125 -0.453125 "/></g></g></g><g fill="rgb(100%, 100%, 100%)" fill-opacity="1"><g transform="translate(563.454025, 561.617229)"><g><path d="M 0.546875 0 L 0.546875 -5.828125 L 1.25 -5.828125 L 1.25 0 Z M 0.546875 0 "/></g></g></g><g fill="rgb(100%, 100%, 100%)" fill-opacity="1"><g transform="translate(662.879338, 561.617229)"><g><path d="M 0.40625 -2.796875 C 0.40625 -3.691406 0.644531 -4.382812 1.125 -4.875 C 1.601562 -5.375 2.28125 -5.625 3.15625 -5.625 C 3.769531 -5.625 4.265625 -5.519531 4.640625 -5.3125 C 5.023438 -5.101562 5.320312 -4.769531 5.53125 -4.3125 L 4.828125 -4.109375 C 4.660156 -4.421875 4.4375 -4.644531 4.15625 -4.78125 C 3.882812 -4.925781 3.546875 -5 3.140625 -5 C 2.503906 -5 2.015625 -4.804688 1.671875 -4.421875 C 1.335938 -4.035156 1.171875 -3.492188 1.171875 -2.796875 C 1.171875 -2.097656 1.347656 -1.546875 1.703125 -1.140625 C 2.066406 -0.734375 2.5625 -0.53125 3.1875 -0.53125 C 3.550781 -0.53125 3.890625 -0.582031 4.203125 -0.6875 C 4.515625 -0.800781 4.769531 -0.953125 4.96875 -1.140625 L 4.96875 -2.140625 L 3.3125 -2.140625 L 3.3125 -2.765625 L 5.65625 -2.765625 L 5.65625 -0.859375 C 5.363281 -0.554688 5.003906 -0.320312 4.578125 -0.15625 C 4.148438 0 3.6875 0.078125 3.1875 0.078125 C 2.613281 0.078125 2.113281 -0.0351562 1.6875 -0.265625 C 1.269531 -0.492188 0.953125 -0.820312 0.734375 -1.25 C 0.515625 -1.6875 0.40625 -2.203125 0.40625 -2.796875 Z M 0.40625 -2.796875 "/></g></g></g><g fill="rgb(100%, 100%, 100%)" fill-opacity="1"><g transform="translate(669.132378, 561.617229)"><g><path d="M 4.140625 -2.125 C 4.140625 -1.382812 3.972656 -0.832031 3.640625 -0.46875 C 3.316406 -0.101562 2.84375 0.078125 2.21875 0.078125 C 1.59375 0.078125 1.125 -0.109375 0.8125 -0.484375 C 0.5 -0.867188 0.34375 -1.414062 0.34375 -2.125 C 0.34375 -3.59375 0.976562 -4.328125 2.25 -4.328125 C 2.894531 -4.328125 3.367188 -4.144531 3.671875 -3.78125 C 3.984375 -3.425781 4.140625 -2.875 4.140625 -2.125 Z M 3.390625 -2.125 C 3.390625 -2.71875 3.300781 -3.144531 3.125 -3.40625 C 2.957031 -3.675781 2.664062 -3.8125 2.25 -3.8125 C 1.84375 -3.8125 1.546875 -3.675781 1.359375 -3.40625 C 1.171875 -3.132812 1.078125 -2.707031 1.078125 -2.125 C 1.078125 -1.5625 1.164062 -1.140625 1.34375 -0.859375 C 1.53125 -0.578125 1.820312 -0.4375 2.21875 -0.4375 C 2.632812 -0.4375 2.929688 -0.570312 3.109375 -0.84375 C 3.296875 -1.125 3.390625 -1.550781 3.390625 -2.125 Z M 3.390625 -2.125 "/></g></g></g><g fill="rgb(100%, 100%, 100%)" fill-opacity="1"><g transform="translate(673.603321, 561.617229)"><g><path d="M 2.40625 0 L 1.578125 0 L 0.03125 -4.25 L 0.78125 -4.25 L 1.71875 -1.484375 C 1.75 -1.378906 1.835938 -1.066406 1.984375 -0.546875 L 2.125 -1.015625 L 2.28125 -1.484375 L 3.25 -4.25 L 4 -4.25 Z M 2.40625 0 "/></g></g></g><g fill="rgb(100%, 100%, 100%)" fill-opacity="1"><g transform="translate(677.622852, 561.617229)"><g><path d="M 1.078125 -1.96875 C 1.078125 -1.488281 1.175781 -1.113281 1.375 -0.84375 C 1.582031 -0.582031 1.878906 -0.453125 2.265625 -0.453125 C 2.578125 -0.453125 2.820312 -0.515625 3 -0.640625 C 3.1875 -0.765625 3.316406 -0.921875 3.390625 -1.109375 L 4 -0.921875 C 3.75 -0.253906 3.171875 0.078125 2.265625 0.078125 C 1.640625 0.078125 1.160156 -0.109375 0.828125 -0.484375 C 0.503906 -0.859375 0.34375 -1.414062 0.34375 -2.15625 C 0.34375 -2.851562 0.503906 -3.390625 0.828125 -3.765625 C 1.160156 -4.140625 1.632812 -4.328125 2.25 -4.328125 C 3.5 -4.328125 4.125 -3.578125 4.125 -2.078125 L 4.125 -1.96875 Z M 3.390625 -2.515625 C 3.347656 -2.960938 3.234375 -3.289062 3.046875 -3.5 C 2.859375 -3.707031 2.585938 -3.8125 2.234375 -3.8125 C 1.890625 -3.8125 1.613281 -3.695312 1.40625 -3.46875 C 1.207031 -3.238281 1.101562 -2.921875 1.09375 -2.515625 Z M 3.390625 -2.515625 "/></g></g></g><g fill="rgb(100%, 100%, 100%)" fill-opacity="1"><g transform="translate(682.093796, 561.617229)"><g><path d="M 0.5625 0 L 0.5625 -3.265625 C 0.5625 -3.554688 0.550781 -3.882812 0.53125 -4.25 L 1.203125 -4.25 C 1.222656 -3.769531 1.234375 -3.484375 1.234375 -3.390625 L 1.25 -3.390625 C 1.363281 -3.742188 1.492188 -3.988281 1.640625 -4.125 C 1.785156 -4.257812 1.992188 -4.328125 2.265625 -4.328125 C 2.359375 -4.328125 2.453125 -4.316406 2.546875 -4.296875 L 2.546875 -3.640625 C 2.453125 -3.671875 2.328125 -3.6875 2.171875 -3.6875 C 1.878906 -3.6875 1.65625 -3.554688 1.5 -3.296875 C 1.34375 -3.046875 1.265625 -2.6875 1.265625 -2.21875 L 1.265625 0 Z M 0.5625 0 "/></g></g></g><g fill="rgb(100%, 100%, 100%)" fill-opacity="1"><g transform="translate(684.770866, 561.617229)"><g><path d="M 3.234375 0 L 3.234375 -2.703125 C 3.234375 -2.972656 3.207031 -3.1875 3.15625 -3.34375 C 3.101562 -3.5 3.015625 -3.609375 2.890625 -3.671875 C 2.773438 -3.742188 2.597656 -3.78125 2.359375 -3.78125 C 2.023438 -3.78125 1.757812 -3.660156 1.5625 -3.421875 C 1.363281 -3.191406 1.265625 -2.875 1.265625 -2.46875 L 1.265625 0 L 0.5625 0 L 0.5625 -3.34375 C 0.5625 -3.84375 0.550781 -4.144531 0.53125 -4.25 L 1.203125 -4.25 C 1.203125 -4.238281 1.203125 -4.203125 1.203125 -4.140625 C 1.210938 -4.085938 1.21875 -4.019531 1.21875 -3.9375 C 1.21875 -3.863281 1.222656 -3.726562 1.234375 -3.53125 L 1.25 -3.53125 C 1.40625 -3.820312 1.585938 -4.023438 1.796875 -4.140625 C 2.015625 -4.265625 2.285156 -4.328125 2.609375 -4.328125 C 3.066406 -4.328125 3.40625 -4.210938 3.625 -3.984375 C 3.84375 -3.753906 3.953125 -3.367188 3.953125 -2.828125 L 3.953125 0 Z M 3.234375 0 "/></g></g></g><g fill="rgb(100%, 100%, 100%)" fill-opacity="1"><g transform="translate(689.241809, 561.617229)"><g><path d="M 1.625 0.078125 C 1.195312 0.078125 0.875 -0.03125 0.65625 -0.25 C 0.445312 -0.476562 0.34375 -0.789062 0.34375 -1.1875 C 0.34375 -1.625 0.484375 -1.957031 0.765625 -2.1875 C 1.054688 -2.425781 1.523438 -2.554688 2.171875 -2.578125 L 3.125 -2.59375 L 3.125 -2.828125 C 3.125 -3.171875 3.050781 -3.414062 2.90625 -3.5625 C 2.757812 -3.71875 2.53125 -3.796875 2.21875 -3.796875 C 1.90625 -3.796875 1.675781 -3.738281 1.53125 -3.625 C 1.382812 -3.519531 1.296875 -3.347656 1.265625 -3.109375 L 0.53125 -3.1875 C 0.65625 -3.945312 1.222656 -4.328125 2.234375 -4.328125 C 2.765625 -4.328125 3.164062 -4.203125 3.4375 -3.953125 C 3.707031 -3.710938 3.84375 -3.363281 3.84375 -2.90625 L 3.84375 -1.0625 C 3.84375 -0.851562 3.867188 -0.695312 3.921875 -0.59375 C 3.984375 -0.488281 4.09375 -0.4375 4.25 -0.4375 C 4.3125 -0.4375 4.382812 -0.445312 4.46875 -0.46875 L 4.46875 -0.03125 C 4.289062 0.0195312 4.109375 0.046875 3.921875 0.046875 C 3.660156 0.046875 3.46875 -0.0195312 3.34375 -0.15625 C 3.226562 -0.300781 3.164062 -0.519531 3.15625 -0.8125 L 3.125 -0.8125 C 2.945312 -0.488281 2.738281 -0.257812 2.5 -0.125 C 2.257812 0.0078125 1.96875 0.078125 1.625 0.078125 Z M 1.78125 -0.453125 C 2.039062 -0.453125 2.269531 -0.507812 2.46875 -0.625 C 2.675781 -0.75 2.835938 -0.910156 2.953125 -1.109375 C 3.066406 -1.316406 3.125 -1.53125 3.125 -1.75 L 3.125 -2.09375 L 2.359375 -2.078125 C 2.023438 -2.078125 1.769531 -2.046875 1.59375 -1.984375 C 1.425781 -1.921875 1.296875 -1.820312 1.203125 -1.6875 C 1.109375 -1.5625 1.0625 -1.390625 1.0625 -1.171875 C 1.0625 -0.941406 1.125 -0.765625 1.25 -0.640625 C 1.375 -0.515625 1.550781 -0.453125 1.78125 -0.453125 Z M 1.78125 -0.453125 "/></g></g></g><g fill="rgb(100%, 100%, 100%)" fill-opacity="1"><g transform="translate(693.712752, 561.617229)"><g><path d="M 3.234375 0 L 3.234375 -2.703125 C 3.234375 -2.972656 3.207031 -3.1875 3.15625 -3.34375 C 3.101562 -3.5 3.015625 -3.609375 2.890625 -3.671875 C 2.773438 -3.742188 2.597656 -3.78125 2.359375 -3.78125 C 2.023438 -3.78125 1.757812 -3.660156 1.5625 -3.421875 C 1.363281 -3.191406 1.265625 -2.875 1.265625 -2.46875 L 1.265625 0 L 0.5625 0 L 0.5625 -3.34375 C 0.5625 -3.84375 0.550781 -4.144531 0.53125 -4.25 L 1.203125 -4.25 C 1.203125 -4.238281 1.203125 -4.203125 1.203125 -4.140625 C 1.210938 -4.085938 1.21875 -4.019531 1.21875 -3.9375 C 1.21875 -3.863281 1.222656 -3.726562 1.234375 -3.53125 L 1.25 -3.53125 C 1.40625 -3.820312 1.585938 -4.023438 1.796875 -4.140625 C 2.015625 -4.265625 2.285156 -4.328125 2.609375 -4.328125 C 3.066406 -4.328125 3.40625 -4.210938 3.625 -3.984375 C 3.84375 -3.753906 3.953125 -3.367188 3.953125 -2.828125 L 3.953125 0 Z M 3.234375 0 "/></g></g></g><g fill="rgb(100%, 100%, 100%)" fill-opacity="1"><g transform="translate(698.183696, 561.617229)"><g><path d="M 1.078125 -2.140625 C 1.078125 -1.578125 1.164062 -1.160156 1.34375 -0.890625 C 1.519531 -0.617188 1.789062 -0.484375 2.15625 -0.484375 C 2.40625 -0.484375 2.613281 -0.550781 2.78125 -0.6875 C 2.945312 -0.820312 3.050781 -1.03125 3.09375 -1.3125 L 3.8125 -1.265625 C 3.757812 -0.859375 3.582031 -0.53125 3.28125 -0.28125 C 2.988281 -0.0390625 2.617188 0.078125 2.171875 0.078125 C 1.578125 0.078125 1.125 -0.109375 0.8125 -0.484375 C 0.5 -0.859375 0.34375 -1.40625 0.34375 -2.125 C 0.34375 -2.84375 0.5 -3.390625 0.8125 -3.765625 C 1.125 -4.140625 1.578125 -4.328125 2.171875 -4.328125 C 2.597656 -4.328125 2.953125 -4.210938 3.234375 -3.984375 C 3.523438 -3.765625 3.707031 -3.457031 3.78125 -3.0625 L 3.0625 -3 C 3.019531 -3.238281 2.925781 -3.425781 2.78125 -3.5625 C 2.632812 -3.707031 2.421875 -3.78125 2.140625 -3.78125 C 1.765625 -3.78125 1.492188 -3.65625 1.328125 -3.40625 C 1.160156 -3.15625 1.078125 -2.734375 1.078125 -2.140625 Z M 1.078125 -2.140625 "/></g></g></g><g fill="rgb(100%, 100%, 100%)" fill-opacity="1"><g transform="translate(702.203227, 561.617229)"><g><path d="M 1.078125 -1.96875 C 1.078125 -1.488281 1.175781 -1.113281 1.375 -0.84375 C 1.582031 -0.582031 1.878906 -0.453125 2.265625 -0.453125 C 2.578125 -0.453125 2.820312 -0.515625 3 -0.640625 C 3.1875 -0.765625 3.316406 -0.921875 3.390625 -1.109375 L 4 -0.921875 C 3.75 -0.253906 3.171875 0.078125 2.265625 0.078125 C 1.640625 0.078125 1.160156 -0.109375 0.828125 -0.484375 C 0.503906 -0.859375 0.34375 -1.414062 0.34375 -2.15625 C 0.34375 -2.851562 0.503906 -3.390625 0.828125 -3.765625 C 1.160156 -4.140625 1.632812 -4.328125 2.25 -4.328125 C 3.5 -4.328125 4.125 -3.578125 4.125 -2.078125 L 4.125 -1.96875 Z M 3.390625 -2.515625 C 3.347656 -2.960938 3.234375 -3.289062 3.046875 -3.5 C 2.859375 -3.707031 2.585938 -3.8125 2.234375 -3.8125 C 1.890625 -3.8125 1.613281 -3.695312 1.40625 -3.46875 C 1.207031 -3.238281 1.101562 -2.921875 1.09375 -2.515625 Z M 3.390625 -2.515625 "/></g></g></g><g mask="url(#id2)"><g transform="matrix(1, 0, 0, 1, 41, 121)"><g clip-path="url(#id4)"><g clip-path="url(#id3)"><path fill="rgb(100%, 100%, 100%)" d="M 0.371094 1.015625 L 681.355469 1.015625 L 681.355469 1.765625 L 0.371094 1.765625 Z M 0.371094 1.015625 " fill-opacity="1" fill-rule="nonzero"/></g></g></g></g><g mask="url(#id5)"><g transform="matrix(1, 0, 0, 1, 41, 264)"><g clip-path="url(#id7)"><g clip-path="url(#id6)"><path fill="rgb(100%, 100%, 100%)" d="M 0.371094 0.515625 L 681.355469 0.515625 L 681.355469 1.265625 L 0.371094 1.265625 Z M 0.371094 0.515625 " fill-opacity="1" fill-rule="nonzero"/></g></g></g></g><g mask="url(#id8)"><g transform="matrix(1, 0, 0, 1, 41, 406)"><g clip-path="url(#id10)"><g clip-path="url(#id9)"><path fill="rgb(100%, 100%, 100%)" d="M 0.371094 1.015625 L 681.355469 1.015625 L 681.355469 1.765625 L 0.371094 1.765625 Z M 0.371094 1.015625 " fill-opacity="1" fill-rule="nonzero"/></g></g></g></g><g mask="url(#id11)"><g transform="matrix(1, 0, 0, 1, 41, 548)"><g clip-path="url(#id13)"><g clip-path="url(#id12)"><path fill="rgb(100%, 100%, 100%)" d="M 0.371094 1.515625 L 681.355469 1.515625 L 681.355469 2.265625 L 0.371094 2.265625 Z M 0.371094 1.515625 " fill-opacity="1" fill-rule="nonzero"/></g></g></g></g><g fill="rgb(100%, 100%, 100%)" fill-opacity="1"><g transform="translate(26.171483, 125.014563)"><g><path d="M 4.125 -1.8125 C 4.125 -1.226562 3.960938 -0.765625 3.640625 -0.421875 C 3.328125 -0.0859375 2.890625 0.078125 2.328125 0.078125 C 1.710938 0.078125 1.238281 -0.148438 0.90625 -0.609375 C 0.570312 -1.078125 0.40625 -1.753906 0.40625 -2.640625 C 0.40625 -3.597656 0.578125 -4.332031 0.921875 -4.84375 C 1.265625 -5.363281 1.753906 -5.625 2.390625 -5.625 C 3.222656 -5.625 3.75 -5.242188 3.96875 -4.484375 L 3.296875 -4.375 C 3.148438 -4.820312 2.84375 -5.046875 2.375 -5.046875 C 1.976562 -5.046875 1.664062 -4.859375 1.4375 -4.484375 C 1.21875 -4.109375 1.109375 -3.5625 1.109375 -2.84375 C 1.234375 -3.082031 1.410156 -3.265625 1.640625 -3.390625 C 1.878906 -3.515625 2.148438 -3.578125 2.453125 -3.578125 C 2.960938 -3.578125 3.367188 -3.414062 3.671875 -3.09375 C 3.972656 -2.78125 4.125 -2.351562 4.125 -1.8125 Z M 3.40625 -1.78125 C 3.40625 -2.175781 3.304688 -2.484375 3.109375 -2.703125 C 2.910156 -2.921875 2.632812 -3.03125 2.28125 -3.03125 C 1.957031 -3.03125 1.691406 -2.929688 1.484375 -2.734375 C 1.285156 -2.546875 1.1875 -2.285156 1.1875 -1.953125 C 1.1875 -1.523438 1.289062 -1.171875 1.5 -0.890625 C 1.707031 -0.617188 1.976562 -0.484375 2.3125 -0.484375 C 2.65625 -0.484375 2.921875 -0.597656 3.109375 -0.828125 C 3.304688 -1.054688 3.40625 -1.375 3.40625 -1.78125 Z M 3.40625 -1.78125 "/></g></g></g><g fill="rgb(100%, 100%, 100%)" fill-opacity="1"><g transform="translate(30.642426, 125.014563)"><g><path d="M 4.15625 -2.765625 C 4.15625 -1.847656 3.992188 -1.144531 3.671875 -0.65625 C 3.347656 -0.164062 2.867188 0.078125 2.234375 0.078125 C 1.585938 0.078125 1.101562 -0.160156 0.78125 -0.640625 C 0.46875 -1.128906 0.3125 -1.835938 0.3125 -2.765625 C 0.3125 -3.722656 0.46875 -4.4375 0.78125 -4.90625 C 1.09375 -5.382812 1.582031 -5.625 2.25 -5.625 C 2.90625 -5.625 3.382812 -5.382812 3.6875 -4.90625 C 4 -4.425781 4.15625 -3.710938 4.15625 -2.765625 Z M 3.4375 -2.765625 C 3.4375 -3.566406 3.34375 -4.144531 3.15625 -4.5 C 2.976562 -4.863281 2.675781 -5.046875 2.25 -5.046875 C 1.8125 -5.046875 1.5 -4.867188 1.3125 -4.515625 C 1.125 -4.160156 1.03125 -3.578125 1.03125 -2.765625 C 1.03125 -1.984375 1.125 -1.410156 1.3125 -1.046875 C 1.507812 -0.679688 1.816406 -0.5 2.234375 -0.5 C 2.648438 -0.5 2.953125 -0.679688 3.140625 -1.046875 C 3.335938 -1.421875 3.4375 -1.992188 3.4375 -2.765625 Z M 3.4375 -2.765625 "/></g></g></g><g fill="rgb(100%, 100%, 100%)" fill-opacity="1"><g transform="translate(35.112889, 125.014563)"><g/></g></g><g fill="rgb(100%, 100%, 100%)" fill-opacity="1"><g transform="translate(26.171483, 267.600448)"><g><path d="M 3.46875 -1.25 L 3.46875 0 L 2.796875 0 L 2.796875 -1.25 L 0.1875 -1.25 L 0.1875 -1.796875 L 2.71875 -5.53125 L 3.46875 -5.53125 L 3.46875 -1.8125 L 4.234375 -1.8125 L 4.234375 -1.25 Z M 2.796875 -4.734375 C 2.785156 -4.722656 2.742188 -4.65625 2.671875 -4.53125 C 2.609375 -4.40625 2.5625 -4.316406 2.53125 -4.265625 L 0.90625 -1.890625 L 0.84375 -1.8125 L 2.796875 -1.8125 Z M 2.796875 -4.734375 "/></g></g></g><g fill="rgb(100%, 100%, 100%)" fill-opacity="1"><g transform="translate(30.642426, 267.600448)"><g><path d="M 4.15625 -2.765625 C 4.15625 -1.847656 3.992188 -1.144531 3.671875 -0.65625 C 3.347656 -0.164062 2.867188 0.078125 2.234375 0.078125 C 1.585938 0.078125 1.101562 -0.160156 0.78125 -0.640625 C 0.46875 -1.128906 0.3125 -1.835938 0.3125 -2.765625 C 0.3125 -3.722656 0.46875 -4.4375 0.78125 -4.90625 C 1.09375 -5.382812 1.582031 -5.625 2.25 -5.625 C 2.90625 -5.625 3.382812 -5.382812 3.6875 -4.90625 C 4 -4.425781 4.15625 -3.710938 4.15625 -2.765625 Z M 3.4375 -2.765625 C 3.4375 -3.566406 3.34375 -4.144531 3.15625 -4.5 C 2.976562 -4.863281 2.675781 -5.046875 2.25 -5.046875 C 1.8125 -5.046875 1.5 -4.867188 1.3125 -4.515625 C 1.125 -4.160156 1.03125 -3.578125 1.03125 -2.765625 C 1.03125 -1.984375 1.125 -1.410156 1.3125 -1.046875 C 1.507812 -0.679688 1.816406 -0.5 2.234375 -0.5 C 2.648438 -0.5 2.953125 -0.679688 3.140625 -1.046875 C 3.335938 -1.421875 3.4375 -1.992188 3.4375 -2.765625 Z M 3.4375 -2.765625 "/></g></g></g><g fill="rgb(100%, 100%, 100%)" fill-opacity="1"><g transform="translate(35.112889, 267.600448)"><g/></g></g><g fill="rgb(100%, 100%, 100%)" fill-opacity="1"><g transform="translate(26.171483, 410.186341)"><g><path d="M 0.40625 0 L 0.40625 -0.5 C 0.539062 -0.800781 0.703125 -1.066406 0.890625 -1.296875 C 1.085938 -1.535156 1.289062 -1.75 1.5 -1.9375 C 1.707031 -2.132812 1.914062 -2.3125 2.125 -2.46875 C 2.332031 -2.632812 2.519531 -2.796875 2.6875 -2.953125 C 2.863281 -3.117188 3 -3.289062 3.09375 -3.46875 C 3.195312 -3.644531 3.25 -3.847656 3.25 -4.078125 C 3.25 -4.378906 3.160156 -4.613281 2.984375 -4.78125 C 2.804688 -4.945312 2.5625 -5.03125 2.25 -5.03125 C 1.945312 -5.03125 1.695312 -4.945312 1.5 -4.78125 C 1.300781 -4.625 1.1875 -4.398438 1.15625 -4.109375 L 0.4375 -4.171875 C 0.488281 -4.609375 0.675781 -4.957031 1 -5.21875 C 1.320312 -5.488281 1.738281 -5.625 2.25 -5.625 C 2.800781 -5.625 3.226562 -5.488281 3.53125 -5.21875 C 3.832031 -4.957031 3.984375 -4.585938 3.984375 -4.109375 C 3.984375 -3.890625 3.929688 -3.671875 3.828125 -3.453125 C 3.734375 -3.242188 3.585938 -3.03125 3.390625 -2.8125 C 3.203125 -2.601562 2.832031 -2.28125 2.28125 -1.84375 C 1.976562 -1.59375 1.738281 -1.367188 1.5625 -1.171875 C 1.382812 -0.972656 1.257812 -0.78125 1.1875 -0.59375 L 4.078125 -0.59375 L 4.078125 0 Z M 0.40625 0 "/></g></g></g><g fill="rgb(100%, 100%, 100%)" fill-opacity="1"><g transform="translate(30.642426, 410.186341)"><g><path d="M 4.15625 -2.765625 C 4.15625 -1.847656 3.992188 -1.144531 3.671875 -0.65625 C 3.347656 -0.164062 2.867188 0.078125 2.234375 0.078125 C 1.585938 0.078125 1.101562 -0.160156 0.78125 -0.640625 C 0.46875 -1.128906 0.3125 -1.835938 0.3125 -2.765625 C 0.3125 -3.722656 0.46875 -4.4375 0.78125 -4.90625 C 1.09375 -5.382812 1.582031 -5.625 2.25 -5.625 C 2.90625 -5.625 3.382812 -5.382812 3.6875 -4.90625 C 4 -4.425781 4.15625 -3.710938 4.15625 -2.765625 Z M 3.4375 -2.765625 C 3.4375 -3.566406 3.34375 -4.144531 3.15625 -4.5 C 2.976562 -4.863281 2.675781 -5.046875 2.25 -5.046875 C 1.8125 -5.046875 1.5 -4.867188 1.3125 -4.515625 C 1.125 -4.160156 1.03125 -3.578125 1.03125 -2.765625 C 1.03125 -1.984375 1.125 -1.410156 1.3125 -1.046875 C 1.507812 -0.679688 1.816406 -0.5 2.234375 -0.5 C 2.648438 -0.5 2.953125 -0.679688 3.140625 -1.046875 C 3.335938 -1.421875 3.4375 -1.992188 3.4375 -2.765625 Z M 3.4375 -2.765625 "/></g></g></g><g fill="rgb(100%, 100%, 100%)" fill-opacity="1"><g transform="translate(35.112889, 410.186341)"><g/></g></g><g fill="rgb(100%, 100%, 100%)" fill-opacity="1"><g transform="translate(30.648046, 552.772269)"><g><path d="M 4.15625 -2.765625 C 4.15625 -1.847656 3.992188 -1.144531 3.671875 -0.65625 C 3.347656 -0.164062 2.867188 0.078125 2.234375 0.078125 C 1.585938 0.078125 1.101562 -0.160156 0.78125 -0.640625 C 0.46875 -1.128906 0.3125 -1.835938 0.3125 -2.765625 C 0.3125 -3.722656 0.46875 -4.4375 0.78125 -4.90625 C 1.09375 -5.382812 1.582031 -5.625 2.25 -5.625 C 2.90625 -5.625 3.382812 -5.382812 3.6875 -4.90625 C 4 -4.425781 4.15625 -3.710938 4.15625 -2.765625 Z M 3.4375 -2.765625 C 3.4375 -3.566406 3.34375 -4.144531 3.15625 -4.5 C 2.976562 -4.863281 2.675781 -5.046875 2.25 -5.046875 C 1.8125 -5.046875 1.5 -4.867188 1.3125 -4.515625 C 1.125 -4.160156 1.03125 -3.578125 1.03125 -2.765625 C 1.03125 -1.984375 1.125 -1.410156 1.3125 -1.046875 C 1.507812 -0.679688 1.816406 -0.5 2.234375 -0.5 C 2.648438 -0.5 2.953125 -0.679688 3.140625 -1.046875 C 3.335938 -1.421875 3.4375 -1.992188 3.4375 -2.765625 Z M 3.4375 -2.765625 "/></g></g></g><g fill="rgb(100%, 100%, 100%)" fill-opacity="1"><g transform="translate(35.112889, 552.772269)"><g/></g></g><path fill="rgb(100%, 100%, 100%)" d="M 41.371094 549.890625 L 41.371094 232.027344 C 41.371094 231.632812 41.410156 231.246094 41.488281 230.859375 C 41.5625 230.472656 41.679688 230.097656 41.828125 229.734375 C 41.980469 229.371094 42.164062 229.027344 42.382812 228.699219 C 42.601562 228.375 42.847656 228.070312 43.128906 227.792969 C 43.40625 227.515625 43.707031 227.265625 44.035156 227.050781 C 44.363281 226.832031 44.707031 226.644531 45.070312 226.496094 C 45.433594 226.34375 45.808594 226.230469 46.195312 226.15625 C 46.582031 226.078125 46.972656 226.039062 47.363281 226.039062 L 110.289062 226.039062 C 110.679688 226.039062 111.070312 226.078125 111.457031 226.15625 C 111.84375 226.230469 112.21875 226.34375 112.582031 226.496094 C 112.945312 226.644531 113.289062 226.832031 113.617188 227.050781 C 113.945312 227.265625 114.246094 227.515625 114.527344 227.792969 C 114.804688 228.070312 115.050781 228.375 115.269531 228.699219 C 115.488281 229.027344 115.675781 229.371094 115.824219 229.734375 C 115.976562 230.097656 116.089844 230.472656 116.164062 230.859375 C 116.242188 231.246094 116.28125 231.632812 116.28125 232.027344 L 116.28125 549.890625 Z M 41.371094 549.890625 " fill-opacity="1" fill-rule="nonzero"/><path fill="rgb(100%, 100%, 100%)" d="M 192.890625 549.890625 L 192.890625 227.753906 C 192.890625 227.359375 192.929688 226.96875 193.007812 226.585938 C 193.082031 226.199219 193.195312 225.824219 193.347656 225.460938 C 193.5 225.097656 193.683594 224.753906 193.902344 224.425781 C 194.121094 224.097656 194.367188 223.796875 194.648438 223.519531 C 194.925781 223.242188 195.226562 222.992188 195.554688 222.773438 C 195.882812 222.554688 196.226562 222.371094 196.589844 222.21875 C 196.953125 222.070312 197.328125 221.957031 197.714844 221.878906 C 198.101562 221.804688 198.492188 221.765625 198.882812 221.765625 L 261.808594 221.765625 C 262.199219 221.765625 262.589844 221.804688 262.976562 221.878906 C 263.363281 221.957031 263.738281 222.070312 264.101562 222.21875 C 264.464844 222.371094 264.808594 222.554688 265.136719 222.773438 C 265.464844 222.992188 265.765625 223.242188 266.042969 223.519531 C 266.324219 223.796875 266.570312 224.097656 266.789062 224.425781 C 267.007812 224.753906 267.191406 225.097656 267.34375 225.460938 C 267.492188 225.824219 267.609375 226.199219 267.683594 226.585938 C 267.761719 226.96875 267.800781 227.359375 267.800781 227.753906 L 267.800781 549.890625 Z M 192.890625 549.890625 " fill-opacity="1" fill-rule="nonzero"/><path fill="rgb(100%, 100%, 100%)" d="M 344.410156 549.890625 L 344.410156 238.441406 C 344.410156 238.046875 344.449219 237.65625 344.527344 237.273438 C 344.601562 236.886719 344.714844 236.511719 344.867188 236.148438 C 345.015625 235.785156 345.203125 235.441406 345.421875 235.113281 C 345.640625 234.785156 345.886719 234.484375 346.164062 234.207031 C 346.445312 233.929688 346.746094 233.679688 347.074219 233.460938 C 347.402344 233.242188 347.746094 233.058594 348.109375 232.90625 C 348.472656 232.757812 348.847656 232.644531 349.234375 232.566406 C 349.621094 232.492188 350.007812 232.453125 350.402344 232.453125 L 413.324219 232.453125 C 413.71875 232.453125 414.109375 232.492188 414.496094 232.566406 C 414.882812 232.644531 415.253906 232.757812 415.621094 232.90625 C 415.984375 233.058594 416.328125 233.242188 416.65625 233.460938 C 416.980469 233.679688 417.285156 233.929688 417.5625 234.207031 C 417.839844 234.484375 418.089844 234.785156 418.308594 235.113281 C 418.527344 235.441406 418.710938 235.785156 418.863281 236.148438 C 419.011719 236.511719 419.125 236.886719 419.203125 237.273438 C 419.28125 237.65625 419.320312 238.046875 419.320312 238.441406 L 419.320312 549.890625 Z M 344.410156 549.890625 " fill-opacity="1" fill-rule="nonzero"/><path fill="rgb(100%, 100%, 100%)" d="M 495.929688 549.890625 L 495.929688 271.929688 C 495.929688 271.535156 495.96875 271.144531 496.042969 270.757812 C 496.121094 270.375 496.234375 270 496.386719 269.636719 C 496.535156 269.273438 496.71875 268.929688 496.9375 268.601562 C 497.15625 268.273438 497.40625 267.972656 497.683594 267.695312 C 497.960938 267.414062 498.265625 267.167969 498.59375 266.949219 C 498.917969 266.730469 499.265625 266.546875 499.628906 266.394531 C 499.992188 266.246094 500.367188 266.132812 500.753906 266.054688 C 501.136719 265.976562 501.527344 265.941406 501.921875 265.941406 L 564.84375 265.941406 C 565.238281 265.941406 565.628906 265.976562 566.015625 266.054688 C 566.398438 266.132812 566.773438 266.246094 567.136719 266.394531 C 567.5 266.546875 567.847656 266.730469 568.175781 266.949219 C 568.5 267.167969 568.804688 267.414062 569.082031 267.695312 C 569.359375 267.972656 569.609375 268.273438 569.828125 268.601562 C 570.046875 268.929688 570.230469 269.273438 570.382812 269.636719 C 570.53125 270 570.644531 270.375 570.722656 270.757812 C 570.800781 271.144531 570.835938 271.535156 570.835938 271.929688 L 570.835938 549.890625 Z M 495.929688 549.890625 " fill-opacity="1" fill-rule="nonzero"/><path fill="rgb(100%, 100%, 100%)" d="M 647.449219 549.890625 L 647.449219 189.277344 C 647.449219 188.882812 647.488281 188.496094 647.5625 188.109375 C 647.640625 187.722656 647.753906 187.347656 647.90625 186.984375 C 648.054688 186.621094 648.238281 186.277344 648.457031 185.949219 C 648.675781 185.625 648.925781 185.320312 649.203125 185.042969 C 649.480469 184.765625 649.785156 184.515625 650.113281 184.300781 C 650.4375 184.082031 650.785156 183.894531 651.148438 183.746094 C 651.511719 183.59375 651.886719 183.480469 652.273438 183.40625 C 652.65625 183.328125 653.046875 183.289062 653.441406 183.289062 L 716.363281 183.289062 C 716.757812 183.289062 717.148438 183.328125 717.53125 183.40625 C 717.917969 183.480469 718.292969 183.59375 718.65625 183.746094 C 719.019531 183.894531 719.367188 184.082031 719.691406 184.300781 C 720.019531 184.515625 720.324219 184.765625 720.601562 185.042969 C 720.878906 185.320312 721.128906 185.625 721.347656 185.949219 C 721.566406 186.277344 721.75 186.621094 721.898438 186.984375 C 722.050781 187.347656 722.164062 187.722656 722.242188 188.109375 C 722.316406 188.496094 722.355469 188.882812 722.355469 189.277344 L 722.355469 549.890625 Z M 647.449219 549.890625 " fill-opacity="1" fill-rule="nonzero"/></svg>