<svg xmlns="http://www.w3.org/2000/svg" viewBox="0 0 1128.04 778.04"><defs><style>.cls-1{fill:#cdb08e;}.cls-2{fill:#fdcd7b;}.cls-3{fill:#bad6d8;}</style></defs><g id="Layer_2" data-name="Layer 2"><g id="Layer_1-2" data-name="Layer 1"><g id="backgroundColor"><path class="cls-1" d="M1119.77,333.68c-.6-1.67-1.36-3.46-3-4.25a7.25,7.25,0,0,0-4.11-.29l-27.53,3.38,28.37-13.31c3-1.43,6.22-3,8.12-5.74,3.72-5.44.74-13.19-4.12-17.65-9.41-8.64-23.47-9.18-36.25-9.24l-40.86-.18c-5.55-8.14,1.59-17.9,1.37-27.75-.18-8.47,1.12-18.54-5.44-23.91-4.16-3.41-10-3.47-15.41-3.33-48.24,1.25-106.91,5.73-154.93,1-1.89-.19-3.92-.45-5.31-1.74-1.73-1.6-1.91-4.23-2-6.59l-1.44-54.85c-.16-6.07-1-13.26-6.32-16.15-2.74-1.48-6-1.38-9.13-1.25l-20,.86c-5.55.24-11.44.59-16,3.82s-6.79,8.79-8.8,14q-6.27,16.32-12.55,32.63c-3-1.16-4.06-4.84-4.69-8q-2.51-12.5-5-25c-1.07-5.35-2.33-11.06-6.26-14.85s-11.48-4.25-14.19.49l-.48-.79a1184,1184,0,0,1,28.43,193.3c.14,2.18.35,4.55,1.87,6.12a9,9,0,0,0,4.31,2.07c14.81,3.94,30.23,4.88,45.52,5.8,19,1.14,38.19,2.28,57.05-.4,14.34-2,28.31-6.26,42.68-8.13,34-4.42,68.27,4.52,102.54,4.1,29.72-.36,59.84-7.73,88.81-1.13A102.25,102.25,0,0,0,1119.77,333.68Z"/><path class="cls-1" d="M179.18,365.26l-1.86,0A14.41,14.41,0,0,0,179.18,365.26Z"/><path class="cls-1" d="M193.09,333.93c-2.12-6.28-2.26-13-3.42-19.55s-3.66-13.29-9.09-17.09c-26.49,7.17-54.24,7.84-81.67,8.55l-14.29.38-13.44.36c-17.75.47-35.49.94-53.23,1.79-3.81.18-8.32.82-10,4.23-1.51,3,0,6.57.64,9.9,1.54,8.39-2.94,17.94,1.66,25.12.32-6.47,7.37-11.7,13.65-10.12L23.25,336a8,8,0,0,1,.21,14.76c17.78-1.11,35.59-2.23,53.39-1.79a307.12,307.12,0,0,1,40.5,3.71c2.82.45,6,.85,8.27-.89.85-.66,1.49-1.57,2.37-2.19a7.68,7.68,0,0,1,3.37-1.14c8.52-1.26,17.07,1.91,25.69,2.06,12.39.22,25.23-5.74,36.77-1.23.27,8-6.76,15.44-14.67,16a180,180,0,0,0,19.56-1.24c0-7.28,0-14.72-2.32-21.61C195.44,339.54,194.06,336.81,193.09,333.93Z"/><path class="cls-1" d="M131.72,393c-4.42-2.25-9.42-3-14.32-3.82-1.72-.27-3.71-.47-5,.71s-1.33,3.1-2.56,4.21a5.76,5.76,0,0,1-2.41,1.09q-4.84,1.32-9.72,2.53a9.18,9.18,0,0,0-3.38,1.32A3.11,3.11,0,0,0,93,402.24c.53,1.88,3,2.25,4.93,2.25q19.19,0,38.36-1.05l.54.08,3.95.64C140,399.25,136.15,395.28,131.72,393Z"/><path class="cls-1" d="M59.92,380.62a2.4,2.4,0,0,0-1.55.27c-1.18.83-.21,2.81-.89,4.09-.54,1-1.9,1.21-3.06,1.28l-27.27,1.56c-2.47.14-5.36.53-6.54,2.7a9.57,9.57,0,0,1-1.09,2.11,3.84,3.84,0,0,1-2.73.91c-3.53.16-7.14-.44-10.57.43s-6.73,3.94-6.16,7.44c.49,3,3.64,4.93,6.66,5.21s6-.66,9-1.3c9.3-2,19-1,28.35-2.93A5.06,5.06,0,0,0,47,401c.71-.88.59-2.48-.48-2.86A57.42,57.42,0,0,0,61.3,396.9a9.72,9.72,0,0,0,4.46-1.85,3.72,3.72,0,0,0,1.11-4.37,4.24,4.24,0,0,0,4.9-6.77l1.21.28A33.23,33.23,0,0,0,59.92,380.62Z"/></g><g id="jacket"><path class="cls-2" d="M573.51,456.69a6.48,6.48,0,0,0-2.79-1.09c-5.47-1.32-10.69-4.14-16.32-4.05-3,0-5.91.92-8.84,1.52-5.95,1.23-12.07,1.36-18.14,1.49-38.27.81-72.17-.65-110.45.16l-8.6,25.88c-1.31,3.94-2.32,9,.9,11.62,3,2.4,7.31.89,11-.22,12.82-3.88,26.55-1.22,39.92-.47,30.67,1.73,61.69-6.74,91.94-1.36,4.88.87,11.21,1.45,13.51-2.95,2-3.81-.24-9.88,3.56-11.9a18.57,18.57,0,0,1,2.45-.83c2.55-1,4.09-3.69,4.42-6.4a22.84,22.84,0,0,0-.95-8.07A5.82,5.82,0,0,0,573.51,456.69Z"/><path class="cls-2" d="M614.89,360.61l-18.6-48.07c-4.34-11.22-9.07-23-18.51-30.44-14.65-11.59-36.48-9.61-51.77-20.33-2.17-1.52-4.64-3.38-7.18-2.64a7.43,7.43,0,0,0-3.26,2.47c-3.9,4.45-7,9.6-11.31,13.65s-10.35,7-16.08,5.51c-4.2-1.07-7.48-4.26-10.55-7.32L463.12,259c-5,7.34-10.34,14.94-18.17,19.17a56.45,56.45,0,0,1-12.25,4.33l-23.95,6.43a9.54,9.54,0,0,0-4.47,2.09,9.38,9.38,0,0,0-2,4c-2.21,7.35-3.94,14.83-5.78,22.28q-5.13,20.68-11.45,41.06l32.57-.53c3.27-.05,6.77-.17,9.46-2.05,2.17-1.51,3.48-3.95,4.71-6.29L452,311a6.35,6.35,0,0,0,.83-2.23,9.82,9.82,0,0,0-.52-3c-1.41-6.35,6.06-12.65,12.14-10.36s7.65,11.72,2.75,16c-1.24,1.08-2.73,1.83-4,2.87a22.14,22.14,0,0,0-4.49,5.75c-7.38,12-14.84,24.1-18.82,37.58l17.76.21a180.53,180.53,0,0,0,23.61-.76c4.67-.56,9.29-1.49,14-1.82a109,109,0,0,1,18.14.73l37.72,3.61-23-39.05a7.45,7.45,0,0,0-2.92-3.25c-1.37-.64-3-.38-4.46-.53-6.12-.6-9.43-9.11-5.82-14.08s12-5,16.12-.45a7.72,7.72,0,0,1,2.24,5.33c-.06,1.46-.68,2.89-.5,4.34a8.07,8.07,0,0,0,1.52,3.33q12.18,18.49,24.35,37a6.66,6.66,0,0,0,7.65,3.95l12.66-.81c1.91-.12,3.92-.22,5.63.63,3.09,1.54,4,5.47,4.45,8.89a262.6,262.6,0,0,1,2.36,41.85L588.4,409c11.67-2.08,24.65-6.17,29.68-16.9C622.71,382.25,618.81,370.73,614.89,360.61Z"/></g><g id="seacolor"><path class="cls-3" d="M796.82,386.59a9.26,9.26,0,0,0-8.23,2.83c-2,2.21-2,5.51-2,8.48,1.94,75.89-1.65,151.78.29,227.67.13,5.07.18,10.44-2.42,14.79s-8.91,6.87-12.9,3.75c-2.68-2.09-3.37-5.79-3.84-9.16a572.3,572.3,0,0,1-5.31-98.33c.14-4.45.28-9.16-1.93-13-4.82-8.42-16.91-7.83-26.51-6.4a499.62,499.62,0,0,1-134.69,1.66c1.89,55,1.6,98.33-.87,153.33-.19,4.14-.67,8.83-4,11.32-2.58,1.94-6.1,1.89-9.33,1.75-8.29-.35-19.58,1.45-28,.24-10.79-1.56-21.14,7-31.94,5.37-11.24-1.73-25.35-10.12-36.43-10.31-12.93-.22-20.34,6.66-32.78,11.05-9.54,3.36-21.43-1.42-28-9.11-4.67-5.46-5.74-13-6.63-20.18L406.92,545.38c-1-8.27-4.19-18.7-12.51-19.24L386,698.49c-12.85,2-25-8.37-29.6-20.54s-3.47-25.64-2.44-38.6a1624.25,1624.25,0,0,0,4.42-174.84c-13.38,5.64-46.94-77.18-57.62-67.35-5.62,5.17,40.85,83-5.14,101.76-5.37,2.19-1.82,11.4-1.39,17.19q4.92,67,9.85,134c-10.81-.24-20.05-8.73-24.48-18.6s-5-21-5.49-31.77l-3.75-81.27a497.53,497.53,0,0,1-64.75,31.11c-2.67,1-5.54,2.1-8.34,1.47-3.2-.71-5.54-3.44-7.26-6.23-8.25-13.41-7.36-30.62-3.08-45.77s11.58-29.33,15.59-44.56c5-18.91,7.78-49.06-.74-67.47-8.31-18-28.57-12.17-46.17-12.26L1.22,374q0,7.5.05,15l60-9.62c4.25-.68,9.08-1.22,12.43,1.48,7.43,6-1.12,17.58-9.55,22.08A131.91,131.91,0,0,1,9.77,418.18a126.53,126.53,0,0,0,47.29,4.38c5.08-.49,10.34-1.38,14.5-4.34s6.57-7.35,9.44-11.39c8.26-11.64,21.19-20.79,35.46-21.13s29,10.21,30.23,24.43c-43.82,6.86-93.1,1.19-136.91,8.05-3,.47-.83,13.63-2.77,16-1.8,2.17-1.94,5.23-2,8.05C2.75,548.12,7.66,654,5.43,760c-.1,4.7.09,10.08,3.67,13.12,2.86,2.43,7,2.54,10.7,2.53,54.87-.17,61.27-23.57,116.14-23.74,17.06,0,75.44,23.14,92.5,23.09,64.32-.19,125-15.94,193-.58,38.84,8.77,79.79-.25,119.18-6.07,21.06-3.11,42.51-7.85,63.41-3.8,17.91,3.46,34.7,13.27,52.94,13,11.39-.2,22.29-4.36,33.45-6.64,41.57-8.47,85.82,9.33,126.59-2.39,11.92-3.43,23.19-9.32,35.46-11.08,20.59-3,40.94,6,61.69,7.49,40.24,2.87,78.53-22.37,118.76-19.5,21.77,1.55,42.46,11.31,64.28,11.85,5.12.13,10.72-.45,14.42-4,4.42-4.24,4.6-11.13,4.49-17.26,0-57-2.15-114.06-3.22-171l-1.65-87.42c-.49-26.2,5.77-63.66-2-88.59-6.69-21.56-30-16.16-48.6-15.76-29.72.63-54.72,11.44-89.14,2.79C914.91,361.71,855.79,397.17,796.82,386.59Z"/></g><g id="outlines"><path d="M624.9,604.92a.5.5,0,0,0,0-1A.5.5,0,0,0,624.9,604.92Z"/><path d="M112.74,396.84a10.69,10.69,0,0,1-1.88.87,6.33,6.33,0,0,0-1.69.93,7.47,7.47,0,0,0-3.13-1.22,16.69,16.69,0,0,0-6.72.83,16.16,16.16,0,0,0-5.24,2.47,7,7,0,0,0-2.93,4.88.43.43,0,0,0,.31.4c2.91,1.1,6,.61,9,.29a23.07,23.07,0,0,1,4.7-.12,40.37,40.37,0,0,1,4.87,1,45.55,45.55,0,0,0,9.66,1.09,83.48,83.48,0,0,0,10.23-.72c1.91-.21,3.77-.69,5.68-.94s4-.4,5.92-.6c.29,0,.3-.49,0-.46l-5.18.44c-1.68.14-3.38.12-5.06.1a49.83,49.83,0,0,0-5,.37c-1.7.15-3.4.24-5.1.4a33.68,33.68,0,0,1-10-.38c-1.59-.33-3.16-.76-4.76-1a18.5,18.5,0,0,0-4.4-.17c-3.32.25-6.76,1.1-10,0,.54-3.55,4.4-5.39,7.49-6.31a15.64,15.64,0,0,1,6.53-.83,6.79,6.79,0,0,1,2.64,1,2.25,2.25,0,0,0-.24.52c-.4,1.43.79,2.56,2,3.06a16,16,0,0,0,3.34.6,6.77,6.77,0,0,0,2.06.89c.31.07.63-.35.34-.59a4.51,4.51,0,0,0-2-.89,21.14,21.14,0,0,1-3-2.49,16.73,16.73,0,0,0-1.53-1.28,6.41,6.41,0,0,1,1.45-.78,7,7,0,0,0,3-1.86c.69-.82,1.22-1.77,2-2.51a4.71,4.71,0,0,1,3.57.84,4.1,4.1,0,0,1,1.52,2c.22.69.3,1.42,1,1.81,1.39.78,3.17-.4,4.53.54a14.87,14.87,0,0,1,1.78,2,5.11,5.11,0,0,0,2.31,1.27,23.83,23.83,0,0,0,3.47.53l4.17.49a.37.37,0,0,0,.37-.37,7.14,7.14,0,0,0-2-4,11.22,11.22,0,0,0-4.42-2.47,55.13,55.13,0,0,1-5.32-2.4,20.45,20.45,0,0,0-5-2.05,8.31,8.31,0,0,0-4.37.13,5.28,5.28,0,0,0-2.07,1.31,4.35,4.35,0,0,0-.91.34c-.26.14,0,.53.23.39h0c-.19.23-.37.46-.55.71A6.51,6.51,0,0,1,112.74,396.84Zm-.06,5.74-.27,0c-1.2-.13-2.94-.52-3.34-1.87a1.3,1.3,0,0,1,.15-1.12,19,19,0,0,1,1.83,1.55C111.58,401.61,112.12,402.12,112.68,402.58Zm4.22-9.33a6.68,6.68,0,0,1,4.39-.69c3.21.48,5.88,2.64,8.8,3.92A30.38,30.38,0,0,1,135,399a6.44,6.44,0,0,1,2.95,3.61l-3.34-.35a29.05,29.05,0,0,1-3.48-.45,4.55,4.55,0,0,1-2.59-1.51,6.3,6.3,0,0,0-1.79-1.81,4.07,4.07,0,0,0-2.27-.24c-.78.07-1.88.31-2.45-.38a4.63,4.63,0,0,1-.52-1.37,4.64,4.64,0,0,0-.51-1,4.88,4.88,0,0,0-1.53-1.4,5.23,5.23,0,0,0-2.77-.73A.64.64,0,0,0,116.9,393.25Z"/><path d="M17.2,406.22c2.08,0,4.17,0,6.25,0q5.93,0,11.84-.06l6.05,0a44,44,0,0,0,5.51-.2,4.07,4.07,0,0,0,3.44-2.39,5.46,5.46,0,0,0-.08-3.92,66.11,66.11,0,0,0,13.85-.36c1.1-.15,2.2-.31,3.29-.53a2,2,0,0,0,1.73-1.34,12.35,12.35,0,0,0,.2-3.1c0-.59,0-1.19,0-1.78,2.17.28,4.35.59,6.52.84.16,0,.27-.14.28-.28a9,9,0,0,0-.23-2.79.18.18,0,0,0-.16-.14,12.06,12.06,0,0,0-7.19-5.74,13.81,13.81,0,0,0-4.8-.75,2.72,2.72,0,0,0-2.23,1,2,2,0,0,0-.07,2.14,4.82,4.82,0,0,0,2,1.75c.74.42,1.71.9,2,1.77-2.89,0-5.79-.15-8.69-.17s-5.94,0-8.91.05q-9,.18-17.93.86c-1.69.13-4.64.44-4.64,2.72a.3.3,0,0,0,.21.28l2.34.64a67.21,67.21,0,0,1-14,2.05c-1.27.05-2.55.07-3.82.05a26.72,26.72,0,0,0-2.83,0c-1.5.13-3.06.59-3.69,2.08a.24.24,0,0,0,.14.29.3.3,0,0,0,.06.11c1.35,1.53,2.69,3.07,4,4.61a5.82,5.82,0,0,0,3.76,2.29A50.06,50.06,0,0,0,17.2,406.22Zm-8.88-9c2.27,0,4.54,0,6.81-.1A74.5,74.5,0,0,0,29,394.9a.26.26,0,0,0,0-.5l-3.07-.89c.24-2,3.87-1.93,5.28-2q4.2-.3,8.4-.5c5.56-.26,11.14-.38,16.71-.35,3.17,0,6.37,0,9.53.21a.28.28,0,0,0,.28-.28c-.06-2-2.25-2.33-3.17-3.72a1.85,1.85,0,0,1-.38-1.12c.07-.46.66-.59,1-.69a11.59,11.59,0,0,1,2.69-.34,9.61,9.61,0,0,1,5.24,1.73,11.82,11.82,0,0,1,3.43,3.4,30.35,30.35,0,0,1-7-1,.53.53,0,0,0-.64.64,2.09,2.09,0,0,1-2.13,2.18,2.75,2.75,0,0,0-.7-.1.47.47,0,0,0-.12.91,2.45,2.45,0,0,0,.83.14,1.79,1.79,0,0,1,1,.94,71.78,71.78,0,0,1-16.44,2.11c-2.61,0-5.18-.28-7.63.81l-1.08.49A25.65,25.65,0,0,0,26.61,398c-.44.17-.26.87.2.72,2.42-.79,5-.4,7.45-.2a13.59,13.59,0,0,0,6.22-.7,22.55,22.55,0,0,1,6,2.35,2.82,2.82,0,0,1-1.92,1.33,13.91,13.91,0,0,1-4,.32c-2.93-.07-5.78-1-8.69-1.29-3.17-.35-6.24.19-9.38.56a39.57,39.57,0,0,1-8.77.06,37.55,37.55,0,0,1-9.62-2.38h0l0,0C4.91,397.34,6.84,397.22,8.32,397.23Zm31,.35a7.58,7.58,0,0,1-.82.21,14.62,14.62,0,0,1-3.74.1c-1.25-.1-2.52-.25-3.78-.32A23.84,23.84,0,0,1,39.31,397.58ZM8.17,403.36l-3.39-3.84A40.93,40.93,0,0,0,22,401.65c3.3-.32,6.54-.91,9.87-.52s6.3,1.22,9.48,1.64a8.42,8.42,0,0,0,4.23-.25A3.34,3.34,0,0,0,47.94,400a.69.69,0,0,0-.31-.76A26,26,0,0,0,42,397.14a9.06,9.06,0,0,1,3-.93,35.92,35.92,0,0,1,4.15,0,72.44,72.44,0,0,0,17.72-2,.46.46,0,0,0,.31-.54,2.63,2.63,0,0,0-.75-1.39A3.19,3.19,0,0,0,68.26,390a20.78,20.78,0,0,0,6.95.37l0,0c0,.09.12.17.17.27s.06.05.09.07a8.51,8.51,0,0,1,.07,2.08c-2.08-.31-4.16-.56-6.25-.84,0-.43,0-.86,0-1.29a.31.31,0,0,0-.6-.08c-.11.5-.23,1-.34,1.51a.3.3,0,0,0,.27.37c0,.54,0,1.08,0,1.62a15.94,15.94,0,0,1-.14,3c-.26,1.14-1.58,1.14-2.53,1.3-1.12.19-2.25.35-3.38.48a62.82,62.82,0,0,1-12.86.15c-.25,0-.34.27-.26.45a5,5,0,0,1,.12,4.17c-.76,1.5-2.47,1.77-4,1.83-3.52.14-7.06.09-10.59.1-7.35,0-14.71.15-22.07,0a6.85,6.85,0,0,1-2.77-.43A6.9,6.9,0,0,1,8.17,403.36Z"/><path d="M1127.33,360.54c-13.67-.83-27.38-.54-41.06-.13s-27.46.93-41.19.53c-1.93-.06-3.87,0-5.81-.09-.91,0-1.81,0-2.72-.08a2.32,2.32,0,0,1-1.36-.48,8.22,8.22,0,0,1-2.2-2.73,6.59,6.59,0,0,1-.89-2.69,34,34,0,0,0,9-1.51,26.44,26.44,0,0,1,4.56-1.42,14.77,14.77,0,0,1,4.94.53c3.16.69,6.24,1.71,9.41,2.35a29.71,29.71,0,0,0,9.31.5c3.12-.35,6.18-1.1,9.29-1.57a33.88,33.88,0,0,1,9.8,0c3.15.43,6.27,1.08,9.44,1.34a45.61,45.61,0,0,0,9-.27c3.16-.36,6.41-.59,9.49.37,1.38.43,2.71,1.62,4.22,1.39a21.17,21.17,0,0,1,2.49-.52,5.54,5.54,0,0,1,2.62.57.38.38,0,0,0,.52-.14c2.93-5.53,1.43-12.06-.09-17.78q-.69-2.61-1.41-5.22a27.08,27.08,0,0,0-1.61-4.72,10.09,10.09,0,0,0-5.59-5.28,4.75,4.75,0,0,1-1.88-1,3.1,3.1,0,0,0-1.51-1.14,3.51,3.51,0,0,0-2.14.46l-2.46,1a26.27,26.27,0,0,0-4.42,2.09,4.5,4.5,0,0,0-1.36,1.55,9.39,9.39,0,0,1-1,1.79,5.47,5.47,0,0,1-3.1,1.41,21,21,0,0,0-3.6.89,6.59,6.59,0,0,0-3,2.52,25.83,25.83,0,0,1-2.34,3.42c-1,1.06-2.73,2.15-4.25,1.46-1.18-.54-1.85-1.94-3.24-2a3.54,3.54,0,0,0-2.08.74,11.51,11.51,0,0,1-7.35,1.59,5.92,5.92,0,0,1,2-3.2,5.78,5.78,0,0,1,1.83-1c.79-.24,1.63-.27,2.42-.54a7,7,0,0,0,1.93-1.2c.68-.53,1.37-1.06,2.08-1.55a35.42,35.42,0,0,1,4.29-2.52,34.05,34.05,0,0,1,4.65-1.89c1.44-.47,3.24-.69,4.4-1.74a17.45,17.45,0,0,0,1.33-1.65,4.9,4.9,0,0,1,1.8-1.28,16.66,16.66,0,0,1,4.23-1c2.49-.38,5.57-1.6,6.57-4.13l2.75.71c.32.09.66-.38.35-.62-.9-.71,1.57-2.14,2-2.44,1.05-.71,2.1-1.38,3.19-2a60.39,60.39,0,0,1,6.7-3.43.3.3,0,0,0,.11-.43c-1-1.55.29-3.59-.76-5.21a12.15,12.15,0,0,0-2.08-2.16l-2.66-2.52c-.81-.78-1.63-1.59-2.47-2.35a3.34,3.34,0,0,0-2.33-1.12,11.56,11.56,0,0,0-2.86.78,8.16,8.16,0,0,1-3.26.23,17,17,0,0,1-3.22-.73,20.75,20.75,0,0,1-3.06-1.12c-.86-.44-.26-1.51-.43-2.28a1.65,1.65,0,0,0-1.4-1.29c-.81-.16-1.59-.06-2.22-.69s-1-1.4-1.59-2a6.43,6.43,0,0,0-4.61-1.7,23.24,23.24,0,0,0-5.56.67,9.89,9.89,0,0,0-2.66,1,10.89,10.89,0,0,0-2,1.61,7.72,7.72,0,0,1-2,1.61,2.37,2.37,0,0,1-2.42-.44,4.29,4.29,0,0,0-2.69-.76c-1,.07-2,.39-3.08.4a17.83,17.83,0,0,0-3.18-.14,5,5,0,0,0-2,.89c-1.26.9-2.25,2.2-3.65,2.91-1.74.89-3.44,0-4.91-1-1.63-1.1-3.14-2.32-5.12-2.7s-4.11.16-6.18.14a4.74,4.74,0,0,1-2.85-1.06,5.58,5.58,0,0,0-2.24-1.09c-3.2-.62-6,1.78-9,2.32a5,5,0,0,1-2.1-.05v-25q0-6.11,0-12.2c0-4,0-8.07-.18-12.09,0-.47,0-.94,0-1.41a6.85,6.85,0,0,0-.14-.89.56.56,0,0,0-.36-1c-22.48-.42-45-.19-67.46-.19H877.05c-6.17,0-12.38-.18-18.55.08q.11-21.37-.17-42.75c-.1-7.16-.23-14.32-.43-21.48-.1-3.62-.2-7.24-.32-10.86-.08-2.47,0-5.68-2.08-7.41a6.09,6.09,0,0,0-3.78-1.11c-1.38-.05-2.76,0-4.14,0a25.67,25.67,0,0,0-4.6.61c-7.48.07-15,.41-22.45.62a30.26,30.26,0,0,0-4.95.3,5.23,5.23,0,0,0-3.43,2.31,40.41,40.41,0,0,0-2.32,4.3q-1.23,2.4-2.4,4.83a358.29,358.29,0,0,0-15.61,38.85q-3.6,10.42-6.89,21c-1.53-6.21-3.19-12.39-4.78-18.58L775,188.4q-2.55-9.93-5.11-19.85c-.68-2.63-1.29-5.26-1.94-7.89a26.64,26.64,0,0,0-2.49-6.94,9.38,9.38,0,0,0-2.32-2.84,6.3,6.3,0,0,0-3.45-1.2c-2.94-.22-5.85.65-8.75,1q-3.6-22.17-7.19-44.35a.37.37,0,0,0-.55-.22,56.93,56.93,0,0,0-5.83,3.77c.41-1.12.81-2.25,1.2-3.38.16-.47-.32-.79-.73-.73-39.56,6-79.09,12.26-118.65,18.25-19.69,3-39.13,4.84-59.06,4.37s-39.48.19-59.29,1.53q-33.94,2.31-67.89,4.67c-.41,0-.42.67,0,.64q30.18-1.9,60.35-3.9c20-1.31,40-2.64,60.05-2.14,9.8.25,19.61.55,29.41,0,9.47-.52,18.9-1.64,28.3-3,19.82-2.79,39.59-6,59.37-9q33.36-5,66.69-10.2c-.48,1.39-1,2.77-1.49,4.14-8,6.29-14.46,14.38-20.16,22.87-8.4,12.5-15.86,25.57-24.57,37.88A413.24,413.24,0,0,1,660,210.54C649.28,222.4,637.1,232.93,626.64,245c-10.59,12.23-19,27.75-16.3,44.41a.38.38,0,0,0,.55.23c25.19-13.47,36.55-41.44,50.88-64.53,16-25.83,36.45-48.59,53.53-73.7,8.64-12.7,16.22-26,21.62-40.34.68-.51,1.36-1,2.06-1.48.43-.29,3.22-2.57,3.8-2.38,1.05.34,1.12,4.8,1.26,5.68q7.29,45.27,14.57,90.53c4.83,30.19,10.06,60.29,12.57,90.77,2.3,27.89,4.15,55.82,5.91,83.75a688.64,688.64,0,0,1,1.2,71.26c-.17,4.21-.39,8.42-.74,12.62-43-1.93-86-5.58-129.09-6.2,8.08-3.42,15.65-8.05,23-12.83a281,281,0,0,0,28.3-21.19c2.27-1.93,4.51-3.91,6.72-5.91s4.77-4,6.59-6.35c3.09-4-.46-9.49-1.81-13.61a165.19,165.19,0,0,1-7.68-38,168.84,168.84,0,0,1-.46-18.41.54.54,0,0,0-.91-.38c-15.85,12.36-20.1,33.21-28.36,50.48a141.43,141.43,0,0,1-37.21,47.26,179.53,179.53,0,0,1-28.49,19.28h-.23c-.87,0-1.73.06-2.59.1s-1.61.11-2.42.17-1.58.26-2.4.31a18,18,0,0,0-4.38.67,3.33,3.33,0,0,0-2,1.32.5.5,0,0,0-.36.5c0,1.15,0,2.3-.07,3.46l-.43.34c-5.18,4.65-4.08,14.55-4,21.05.2,22.1,1,44.2,1.62,66.3q1.23,42.45,2.41,84.9c.51,17.88,1.51,35.87,1,53.76,0,.69,0,1.39-.1,2.08a.32.32,0,0,0,0,.17,35.74,35.74,0,0,1-4.61-.42c-2.27-.36-4.51-.87-6.75-1.34.76-10.71.44-21.5.44-32.23V451.22c1.93,0,3.86-.08,5.79-.16a.53.53,0,0,0,.26-1s0,0,0-.05a5,5,0,0,0,.1-.66,13.64,13.64,0,0,0,.07-1.57q0-1.5,0-3c0-1,0-2,0-3v-1.62a2.45,2.45,0,0,0-.23-1.47.1.1,0,0,0-.05,0,.6.6,0,0,0-.5-.27c-1.84-.08-3.68-.13-5.51-.17q0-27.71,0-55.4c0-2.72-.07-5.42-.23-8.14a.77.77,0,0,0-.21-.49.55.55,0,0,0-.52-.41c-14.74-.71-29.55-.29-44.3-.09s-29.27.48-43.91.78c-29.22.61-58.43,1.33-87.65,1.77-16.54.25-33.09.3-49.63.42a1,1,0,0,0-.76,1.55c-.12,1.79-.09,3.6-.1,5.39v18q0,12,0,24v6.74c0,1.17,0,2.33,0,3.49,0,.88,0,1.75.1,2.62a.73.73,0,0,0,.34,1.35c7.57.25,15.15.15,22.73.19s15.15.06,22.73.06h45.45q45.22,0,90.44,0l25.51,0c6,0,12,0,18-.07v10c-5.1-.07-10.21-.05-15.3-.08-7.69,0-15.38-.12-23.07-.09q-23.07.1-46.15.26-45.92.3-91.83.59-12.94.06-25.9.1c-8.57,0-17.19-.19-25.75.13-.36-11.05-.55-22.11-.63-33.16s0-22-.1-33c0-6.24-.12-12.47-.12-18.71,4,0,8-.19,11.94-.24q7.64-.11,15.28-.3c10.17-.26,20.34-.73,30.51-1,5.51-.14,11.05-.09,16.52-.77a.58.58,0,0,0,.31.12c3.56.29,7.17.16,10.74.15q6,0,11.93-.1,13.28-.15,26.53-.42,13.9-.26,27.82-.56,13.41-.27,26.84-.5c7.76-.12,15.52-.16,23.28-.52.83,0,1.65-.1,2.47-.17a.47.47,0,0,0,.35-.77.28.28,0,0,0-.05-.21c-2.48-3.71-5-7.42-7.39-11.19s-4.84-7.61-7.28-11.41c-2.17-3.38-4.33-6.77-6.54-10.13l1.17-1.34q3.76,5.55,7.55,11.08c2.78,4.05,5.58,8.09,8.33,12.16,1.31,1.94,2.56,3.92,3.94,5.8a7.49,7.49,0,0,0,4.88,3.24,27.88,27.88,0,0,0,7.3.15,72.33,72.33,0,0,1,7.63-.57.49.49,0,0,0,.79-.25q.83-3.09,1.38-6.23c.11.53.22,1.05.36,1.56a8.28,8.28,0,0,0,3.42,5.06,5.3,5.3,0,0,0,4.94.4c.1.91.2,1.81.28,2.72a32.16,32.16,0,0,0,.33,3.53,2,2,0,0,0,1.07,1.45,10.86,10.86,0,0,0-.88,3.41,57.82,57.82,0,0,0-.07,7.09c.07,5.49.16,11,.22,16.48.07,6.2.08,12.4.13,18.59a.6.6,0,0,0,.59.59c10.07-.14,20.51-3,27.94-10.09a29.92,29.92,0,0,0,7.65-12.08,24.82,24.82,0,0,0,.43-14.38,80.67,80.67,0,0,0-3-8.53q-1.71-4.37-3.41-8.72l-6.78-17.32L598.34,307c-2.06-5.27-4-10.64-6.37-15.77a31.87,31.87,0,0,0-3.38-5.82,16.27,16.27,0,0,0-4.72-4.41,13.87,13.87,0,0,0-1.84-.84,5.78,5.78,0,0,0-1.4-1.81,31.27,31.27,0,0,0-9.24-5.47A47.62,47.62,0,0,0,561,270.45c-3.34-.5-6.79-1-9.82-2.6a15.09,15.09,0,0,1-2.16-1.36.51.51,0,0,0-.76.44,5,5,0,0,0,2.92,3.76,40.7,40.7,0,0,0,6.36,2.34l15.08,5.06,8.6,2.88h0a6,6,0,0,1,0,2.69c-.14,1-.29,2.06-.44,3.09q-.89,6.18-1.76,12.35c-.58,4.07-1.07,8.16-1.76,12.21-.33,2-.72,3.9-1.22,5.82-.25,1-.53,1.91-.83,2.85s-.57,1.64-1.46,1.94a5.56,5.56,0,0,1-.73.18,3.86,3.86,0,0,0-.46-1.19.52.52,0,0,0-.57-.23A97.71,97.71,0,0,1,547.7,322c-1.5-.11-3-.26-4.48-.44a2.27,2.27,0,0,0-1.92-.91,1.39,1.39,0,0,0-1.24.81c-.12.26,0,.69.3.75l2.39.31a15.91,15.91,0,0,0,.87,1.37c1.19,1.44,3.21,1,4.84.9l12.68-.83c2.15-.14,4.31-.29,6.46-.41,1.51-.08,3.07-.08,4.6-.21a2,2,0,0,1-.05.24,92.74,92.74,0,0,1-29.31,1.13c-1.27-.16-2.53-.34-3.79-.55-.39-.07-.89-.28-1.24,0a3.51,3.51,0,0,0-.61.71l-3.82-5.58-.48-.71c2.6-5.49,5-11.08,7.06-16.79,1.14-3.16,2.19-6.36,3.11-9.6.47-1.66.92-3.32,1.33-5,.2-.8.38-1.6.56-2.41a7.22,7.22,0,0,0,.38-2.43c-.21-1.55-2.43-2.11-3.7-2.44a24.55,24.55,0,0,0-4.83-.68c-3.13-.21-6.41-.21-9.28-1.58L546.45,266a.5.5,0,0,0-.12-.91A92.14,92.14,0,0,1,522,255a14.94,14.94,0,0,0-1.79-3.85c-.21-.31-.77-.4-.95,0a29.82,29.82,0,0,1-1.74,3.31c-.67,1.1-1.33,2.21-2.06,3.27a29.59,29.59,0,0,1-5,5.57c-3.51,3.08-7.86,5-11.39,8a12.92,12.92,0,0,0-3.9,6.06.7.7,0,0,0,.23.77c-1.43.32-2.86.68-4.31.91a9.15,9.15,0,0,1-5.57-.8l-.59-.3a5.33,5.33,0,0,1,1.66.48.92.92,0,0,0,1.11-1.43c-1-1.08-2.18-2.06-3.3-3l-3.28-2.89-6.37-5.59a44.8,44.8,0,0,1-5.24-5.25,19.23,19.23,0,0,1-3.51-6.55,32.2,32.2,0,0,1-1.21-7.89,48.42,48.42,0,0,0,13.8,13.85,42.43,42.43,0,0,0,5.26,3,.25.25,0,0,0,.37-.21,8.26,8.26,0,0,0-1-3.41l.35.14a.26.26,0,0,0,.15,0,37.71,37.71,0,0,0,5.66,1.29,28.81,28.81,0,0,0,6.82.06,15.17,15.17,0,0,0,6.17-1.44,40.41,40.41,0,0,0,4.59-3.19c1.45-1.12,2.84-2.32,4.24-3.5a22.48,22.48,0,0,0,2-1.8,19.36,19.36,0,0,0,2.19-3,21,21,0,0,0,2.67-6.23,24.8,24.8,0,0,0,.43-3.08,28.71,28.71,0,0,0,.24-3.21c0-.8,0-1.59-.06-2.38a3,3,0,0,0,3.24-.65c1.25-1.21,1.51-3.13,1.69-4.78.11-1,.12-2,.26-3,.07-.48.23-.94.31-1.42a15.27,15.27,0,0,1,.29-1.5,30,30,0,0,1,1.07-2.87,11.91,11.91,0,0,0,.65-2.82,7.1,7.1,0,0,0-.94-5.08c-.93-1.2-2.91-1.72-4-.43s-.45,2.85-1,4.13a.45.45,0,0,0,0-.11c.2-4,.53-7.93.79-11.89a49.83,49.83,0,0,0,.21-5.6c0-1-.22-1.9-.25-2.86s.14-1.92.19-2.89c.18-3.4-1.36-6.72-2.81-9.71a44.89,44.89,0,0,0-5-8.14A34,34,0,0,0,508,167.6c-3.68-3.82-9.14-5.43-14.26-6.2a35.55,35.55,0,0,0-16.61,1.24c-5.64,1.92-10.18,5.7-14.3,9.89a40.37,40.37,0,0,0-5.47,6.83,27.06,27.06,0,0,0-3.43,8.32c-1.68,7.17-1.12,14.69-.33,21.94a3.37,3.37,0,0,0-.31.21c-1.38,1.1-1.52,3-1.56,4.67a36.7,36.7,0,0,0,.43,6.28,22.28,22.28,0,0,0,.69,3.12c.3,1,.55,2,.92,3a11.65,11.65,0,0,1,.63,3.2,9.11,9.11,0,0,0,.53,2.59,3.19,3.19,0,0,0,5.73,1.08,20,20,0,0,0,1.14,5.48,28.86,28.86,0,0,0,2.5,5.08.28.28,0,0,0-.21.29,60.6,60.6,0,0,0,.46,8.3,18.41,18.41,0,0,0,2.9,7.22,33.6,33.6,0,0,0,5.05,5.67c2.08,2,4.22,3.86,6.34,5.78l3.8,3.42,1.66,1.5a11.11,11.11,0,0,0-1.5.23c-.67-.4-1.34-.82-2-1.23-1.51-.92-3-1.86-4.46-2.87a33,33,0,0,1-7.78-7.26,28.89,28.89,0,0,1-4.9-10.43.51.51,0,0,0-.94-.05c-.9,1-1.83,1.92-2.77,2.85-12.87-23.4-16.3-50.29-19.7-76.4-1.76-13.57-3.66-27.09-6.64-40.46-3.21-14.43-7.19-28.69-10.06-43.2C421,85.15,419.43,72.33,420,59.56c.09-.6.19-1.19.27-1.79.39-3,.65-6,.82-9.08.08-.21.15-.43.24-.64a.26.26,0,0,0-.2-.33c-.11-.35-.74-.41-.81,0-.11.71-.21,1.42-.31,2.12-.62,1.6-1.17,3.22-1.63,4.88-.66,2.41-1.22,4.84-1.81,7.27-1.18,4.84-2.4,9.74-4.7,14.19a18,18,0,0,1-2.07,3.31A10.81,10.81,0,0,1,408.37,81c-.12.09-.25.17-.38.25,3.39-11.89,6.25-24,7.1-36.34.1-1.4.16-2.81.2-4.21A10.33,10.33,0,0,0,421.05,34a8.56,8.56,0,0,0-6-10.72C411.57,22.21,405,23,405,27.73s5.16,8.46,9.53,7c0,1.57.05,3.14,0,4.71a8.1,8.1,0,0,1-1,.3C408,40.91,403,34.83,404.29,29.59a.66.66,0,0,0-1.27-.35s0,.07,0,.1a9.17,9.17,0,0,0-2.08,7.16,10.27,10.27,0,0,0,1.25,3.84,11.19,11.19,0,0,0,2.71,3,4.09,4.09,0,0,1,1.54,2.08,29.79,29.79,0,0,1,.56,3.11c.33,2.16.55,4.33.69,6.51a109.2,109.2,0,0,1,0,12.92c-.28,4.89-.83,9.75-1.27,14.62a.61.61,0,0,0,0,.27c-3.55,12.37-7.52,24.62-11.78,36.76a725.63,725.63,0,0,1-34.19,80.81c-12.69,25.69-26.49,50.82-39.43,76.39q-3.79,7.49-7.45,15c-1.22-15.79-2.82-31.55-6.56-47A134.82,134.82,0,0,0,298.85,221c-3.56-7.89-7.63-15.54-11.2-23.43-7.28-16.12-11.36-33.43-16-50.44q-3.57-13.15-7.13-26.31A209.41,209.41,0,0,1,258.86,95c-2.34-16.81-2.36-34.08-6.53-50.6-.53-2.08-1.07-4.15-1.72-6.19a.37.37,0,0,0-.71.2c2,8.37-4.06,17.3-12.36,19a39.15,39.15,0,0,0,5.87-7.93c3.21-6.06,2.55-12.45.72-18.84-.64-2.21-1.38-4.39-2-6.59-.31-1.38-.66-2.75-1.1-4.11a.57.57,0,0,0-1.09.3c.38,1.91.93,3.84,1.5,5.78a43.42,43.42,0,0,1-7.94,33.57l-.24.26c-.59.63-1.16,1.28-1.73,1.93.28-8.93.2-17.87-.31-26.8-.26-4.68-.66-9.37-1.21-14-.15-1.21-.16-2.56-1.23-3.34a3.2,3.2,0,0,0-1.3-.48c-.65-.15-4.77-.18-3.18-2.25a.27.27,0,0,0,.05-.11,28.73,28.73,0,0,0,4,.47c1.59.12,3.18.21,4.78.27s3.11.09,4.66.1,3.29.06,4.91-.08a.76.76,0,0,0,.7-.53,9.92,9.92,0,0,0,.47-3.3c0-1.24,0-2.48,0-3.72,0-.64,0-1.29,0-1.92a1.29,1.29,0,0,0-.43-1,2.42,2.42,0,0,0-1.15-.38l-2.06-.37c-1.2-.21-2.43-.45-3.67-.62-.08-.33-.16-.66-.25-1-.25-1-.37-2.16-1.54-2.49a4.88,4.88,0,0,0-3,.08,2.71,2.71,0,0,0-1.56,3.53c-1.68.26-3.35.59-5,.87a2.21,2.21,0,0,0-1.4.51,1.89,1.89,0,0,0-.38,1.17c-.11,1.45-.15,2.92-.21,4.38a.4.4,0,0,0,.4.4c2.78,0,5.57.09,8.35.14,1.3,0,2.62.1,3.93.06a2,2,0,0,0,2-1.09,2.6,2.6,0,0,0-.08-1.46c-.17-.68-.34-1.36-.5-2s-.35-1.42-.53-2.12l1.73.28c1.09.19,2.18.39,3.26.6.37.07,1,.07,1.11.49a7,7,0,0,1,0,1.65c0,2.11.28,4.49-.59,6.46-1.39,0-2.79.05-4.19,0-1.59,0-3.19,0-4.78-.1s-3.1-.13-4.65-.24a34.55,34.55,0,0,0-4.77-.22.54.54,0,0,0-.19,1c-1.11,1.6.9,2.86,2.37,3.1s1.07,0,2.11,1.24a4,4,0,0,1,1,2.9c.11,1.2.22,2.41.32,3.61.21,2.56.37,5.12.51,7.69.55,10,.71,20,.36,30-8.25,9.94-14.09,21.6-19.5,33.3-12.13,26.19-17.74,54.93-21.42,83.4-1.92,14.84-3.78,29.84-4.41,44.8a320.6,320.6,0,0,0,1.86,47.49c1,9.88,2.42,19.72,4,29.53-8.12,8.6-19.38,12.6-30.89,14.06a6.55,6.55,0,0,0,1.53-1.26,5.21,5.21,0,0,0,1.14-5.49,6.2,6.2,0,0,1,4.57,1.53.29.29,0,0,0,.44-.06,9.28,9.28,0,0,1,8.63-3.63.31.31,0,0,0,.37-.37c-.55-2.29,1.44-4.36,3.54-4.9,2.62-.67,5.26.55,7.58,1.62.12,0,.31,0,.29-.17-.38-3.59-.75-7.17-1.13-10.76a.31.31,0,0,0-.38-.29c-15.32,3.39-30.61,7.74-46.34,8.73-15.45,1-31-.46-46.38,1.6-3.81.51-7.54,1.37-11.33,2a32.56,32.56,0,0,1-11.77-.13c-3.71-.7-7.35-1.59-11.12-1.95a71.81,71.81,0,0,0-11.17-.1c-7.6.47-15.11,1.82-22.65,2.81-3.8.5-7.62.91-11.46,1.07-2.94.12-5.87.27-8.2,2.3a12.15,12.15,0,0,0-3.47,6.25,28,28,0,0,0-.89,7.89c0,.62.29.64.77,1.05a6.47,6.47,0,0,1,1.37,1.67,9.4,9.4,0,0,1,1.18,4.27c.18,3.44-1.19,6.62-2.52,9.72C1.87,340.72,1.2,342.31.68,344a.37.37,0,0,0,.16.4A8.94,8.94,0,0,1,6,353a.4.4,0,0,0,.59.34,14.72,14.72,0,0,0,4.69-3.15,25,25,0,0,0,3.29-4.75c1.28-2.05,3.57-2.47,5.74-3.12l6-1.78c-2.53,5.16-4.81,10.43-7.34,15.59a.4.4,0,0,0,.45.58,214.88,214.88,0,0,1,51.19-.9,30,30,0,0,0,11.63-.66,30.35,30.35,0,0,1,5.2-1.35c2-.22,3.33.61,4.76,2a6.11,6.11,0,0,0,4.39,1.65c2.08,0,4.18,0,6.26,0l13-.1q7.22-.06,14.44-.07c2.61,0,6.37-.3,7.16-3.35a.48.48,0,0,0-.7-.54c-.91.46-1.49-1.07-1.26-1.75.35-1,1.88-1.27,2.79-1.35,2.34-.2,4.68-.15,7-.37s4.66-.41,6.87.67c1.77.87,3.4,1.95,5.23,2.7a27.17,27.17,0,0,0,22.92-1.2c2-1.11,4.06-2.34,6.44-2.42a15.92,15.92,0,0,1,6.82,1.67,23.35,23.35,0,0,1,2.63,1.24l-27.75,10.7a.28.28,0,0,0-.2.26,3.07,3.07,0,0,0,.66,1.69c-.77.16-1.54.36-2.28.57-3.77,1.07-7.37,2.65-11.37,2.47s-8-1.68-11.94-2.72a32.76,32.76,0,0,0-5.8-1.09,22,22,0,0,0-5.89.37c-4,.77-7.81,2.38-11.75,3.45a26.92,26.92,0,0,1-6.24,1,39,39,0,0,1-6.82-.52c-2.17-.32-4.34-.69-6.52-.92a37.93,37.93,0,0,0-6.74-.09,114.35,114.35,0,0,0-13.25,2.18c-7.76,1.51-16,2.4-23.36-1.29a16.41,16.41,0,0,1-2.33-1.44c-.07-.05-.17.07-.1.12,5.88,4.78,13.92,5,21.1,4,4.47-.62,8.85-1.69,13.31-2.39a49.73,49.73,0,0,1,6.88-.65,42.92,42.92,0,0,1,7,.53c4.33.64,8.69,1.52,13.09.95,4-.53,7.82-2.06,11.68-3.24a33.93,33.93,0,0,1,6.05-1.36,20.93,20.93,0,0,1,6.12.26c4,.74,7.84,2.25,11.82,3.13a23.52,23.52,0,0,0,5.79.63,24.22,24.22,0,0,0,5.6-1,67.82,67.82,0,0,1,7.12-2,5.39,5.39,0,0,0,3.59.5,7.14,7.14,0,0,0,1-.33l.39.11a.61.61,0,0,0,.13,0h0a.62.62,0,0,0,.43,1c4.57.46,9.16.61,13.74,1l13.47,1c2.68,15.63,5.15,31.31,6.91,47.08s3.56,32.13.91,47.91a73.2,73.2,0,0,1-2.76,11.1.37.37,0,0,0,.06.36,27,27,0,0,1-2.65,4.51c-2.29,3.13-5.23,5.58-8,8.2a.4.4,0,0,0,.17.66c.87.27,1.75.49,2.63.67-2.59,2.58-1.95,6.76-1.85,10.09.26,9.26.55,18.51.82,27.77l.21,7.13a14.12,14.12,0,0,0,.64,4.48c1.14,3.1,4.21,3.83,6.95,2.19.22-.13.41-.28.62-.43a118.15,118.15,0,0,0,27.4-13.32,140.84,140.84,0,0,0,13.74-10.33,63.84,63.84,0,0,1,7.2-5.48,89.5,89.5,0,0,1,8.1-4.15,44.67,44.67,0,0,0,13.77-10.33c-1,5.14.19,10.52.83,15.65.44,3.54.77,7.09,1.13,10.64.9,9,1.85,18,2.66,27q1.39,15.43,2.64,30.89,1.2,14.73,2.35,29.45c.61,7.69,1.2,15.39,1.84,23.08l.18,2.16a.72.72,0,0,0,.33.56,3.79,3.79,0,0,0,3,3.6c2,.48,4.07-.86,5.13-2.52,1.53-2.39,1.44-5.55,1.42-8.31,0-3.26-.24-6.52-.42-9.77q-.39-7.2-.88-14.38c-.4-5.86-.84-11.72-1.27-17.58-.48-6.54-.89-13.08-1.39-19.62-.51-6.75-1-13.51-1.61-20.25q-.85-9.74-1.76-19.48-.81-8.77-1.67-17.55-.69-7.11-1.44-14.21c-.34-3.18-.68-6.37-1.08-9.54,0-.34-.09-.68-.14-1l10.79-6.09a117.67,117.67,0,0,0,10.25-6c3-2.17,3.49-5.29,2.79-8.78a96.69,96.69,0,0,0-3.53-12.13c-2.75-8-6.13-15.81-9.09-23.75a122,122,0,0,1-6.62-24.31,106.5,106.5,0,0,1,1.39-39.22,49,49,0,0,0,3.28,4.52c4.66,5.75,9.58,11.32,14.38,17Q326,405,341,422.37l7.36,8.53a.48.48,0,0,0,.81-.34c-2.16-23.84-5.91-50.56-25.72-66.65a47.06,47.06,0,0,0-13.58-7.56c-2.42-.9-4-2.14-3.45-5a35.37,35.37,0,0,1,1.93-5.33q1.88-5,3.76-9.94c5.18-13.68,10.34-27.37,15.59-41q15.58-40.58,32.16-80.76,16.7-40.5,34.4-80.58c9.72-22,20.17-44.28,24.69-68,.11,23.26,6.8,46.22,12.13,68.79a428.51,428.51,0,0,1,7.58,42.69c1.77,13.52,3.37,27.08,6.14,40.44,3,14.23,7.36,28.13,14.41,40.86a68.13,68.13,0,0,1-15.35,11.17.47.47,0,0,0-.21.51,32.57,32.57,0,0,0,1.64,3.86l-.17.06c-3.61,1.27-7.36,2.17-11.06,3.16-4.08,1.1-8.16,2.21-12.26,3.26-4.64,1.19-9.31,2.29-14,3.18l-.11,0a.43.43,0,0,0-.52.62c1.33,2.43,1.84,5.19,2.5,7.85q1.07,4.31,2.15,8.62c1.44,5.77,2.76,11.59,3.69,17.47a127.63,127.63,0,0,1,1.38,17,56.61,56.61,0,0,1-.19,6.11c-.38-2.79-.76-5.58-1.16-8.37-.86-6-1.87-11.93-3.28-17.8-1.37-5.72-3.37-11.26-4.77-17a42.8,42.8,0,0,1-1.35-8.71c0-1.1.07-2.52-1.19-3a2.39,2.39,0,0,0-2.65.91,11.7,11.7,0,0,0-1.44,3.5l-1.48,4.38q-1.46,4.34-2.85,8.68c-1.84,5.76-3.57,11.55-5,17.42-.72,2.93-1.39,5.88-2.25,8.77a64,64,0,0,1-2.88,7.8c-2.14,4.85-4.67,9.54-6.48,14.53a37.19,37.19,0,0,0-2,7.63c-.14,1-.44,2.29.48,3a2,2,0,0,0,.19.12q-6.19.17-12.38.26c-2.53,0-5.1-.06-7.62.17-2.32.21-4.62.53-6.95.56a.77.77,0,0,0-.76.76c.24,11.35.08,22.72.09,34.07,0,11,0,22,.22,33,.11,6.49.27,13,.52,19.46a.78.78,0,0,0,.94.74.85.85,0,0,0,.47.15c3.56.14,7.12.16,10.69.15-.38,7.72-.17,15.49-.17,23.22V546.6q0,46.92,0,93.83,0,13.23.05,26.46c0,8.81-.14,17.66.29,26.46a.62.62,0,0,0,1.23,0c.38-7.84.25-15.73.28-23.58s0-15.72,0-23.58q0-23.58.05-47.15V478.75c0-8.69.26-17.43-.17-26.11l8.85-.07c-.41,7.49-.18,15-.18,22.54V545c0,31.1-.05,62.2,0,93.3q0,13.15.08,26.31c0,8.75-.24,17.57.24,26.31a.63.63,0,0,0,.36.55.29.29,0,0,0,.18.34,7.16,7.16,0,0,0,1.09.41,7.62,7.62,0,0,0,1.05.16c.61.06,1.22.09,1.84.12s1.2,0,1.79,0a5.73,5.73,0,0,0,2.37-.37.72.72,0,0,0,.23-1,.78.78,0,0,0,.07-.23,67.17,67.17,0,0,0,.32-8.86v-8.51q0-8.68,0-17.37V552.3c0-6.5,0-13,0-19.49q0-4.78-.07-9.57c0-2.89,0-5.8-.15-8.68a6.63,6.63,0,0,0,1,.06l0,2.52c0,.5,0,1,0,1.49s.09,1,.15,1.49a.53.53,0,0,0,.15.32.66.66,0,0,0,.5.77,65.06,65.06,0,0,0,8.94.3h21.6a144.75,144.75,0,0,0-3.7,32.92,153.14,153.14,0,0,0,5.39,40.07c3.54,12.89,8,25.75,8.78,39.19.18,3,0,5.94.21,8.91.14,2.39.42,4.92,1.95,6.86a6.35,6.35,0,0,0,3,2.07c.93,1,1,2.48,1,3.72,0,1.91.1,3.82.24,5.72s.25,3.86.33,5.8c0,1,.08,2,.13,3a6.63,6.63,0,0,0,.29,2.67.39.39,0,0,0,.67,0,3.13,3.13,0,0,0,.14-1.43l0-1.48-.09-3.09c-.06-2.1-.06-4.19-.08-6.29a50,50,0,0,0-.26-5.74,5.55,5.55,0,0,0-.8-2.45,14.4,14.4,0,0,0,2.71.15c3.5-.13,7-.47,10.52-.78L468,649.36c3.61-.32,7.21-.79,10.82-1.15l4.33-.43c-.31,7.59-.84,15.18-1.7,22.73-.08.71,1,.7,1.11,0,.8-7.4,1.3-14.82,1.39-22.26a3.63,3.63,0,0,1,1.1,1.89l-.07,0a.46.46,0,0,0,.11.83,18.2,18.2,0,0,0,13.4-1.49c1.66-.92,3.06-2.43,2.64-4.46s-2.34-3.8-3.93-5.12l10.09,1.67A.59.59,0,0,0,508,641c0-.12,0-.23.05-.35a15.45,15.45,0,0,0,2.62,2.55,11.73,11.73,0,0,0,4.25,1.91c-.11,2.24-.35,4.47-.46,6.71s-.22,4.73-.29,7.09-.07,4.73-.17,7.09-.45,4.73,0,7c0,.19.29.15.34,0,.79-2.19.79-4.71,1-7s.46-4.72.6-7.09.21-4.73.21-7.09c0-2.17-.15-4.33-.22-6.49l.93.18a26.94,26.94,0,0,0,6.89.22c5.67-.51,11.23-2.29,17-1.94a32.8,32.8,0,0,1,8,1.65c2.64.84,5.29,1.66,7.91,2.52A36.9,36.9,0,0,0,569,650.28a41.23,41.23,0,0,1-10.68,1.25.43.43,0,0,0-.43.43,98.46,98.46,0,0,0,1.21,25.25c.12.66,1.13.38,1-.28a98.45,98.45,0,0,1-1.38-24.54,41.92,41.92,0,0,0,16.07-3.12q.09,19.44.26,38.89A28.21,28.21,0,0,0,567,689c-3.61.91-7.09,2.3-10.69,3.25a25.94,25.94,0,0,1-11.28.74,55.86,55.86,0,0,1-10.4-3.29A71.51,71.51,0,0,0,524,686.09a45.17,45.17,0,0,0-11.12-.94c-7.59.23-15,1.82-22.53,2.87a83.06,83.06,0,0,1-12,1,60.42,60.42,0,0,1-11.13-1.17c-7.22-1.38-14.25-3.6-21.44-5.09-6.59-1.37-13.55-2.17-20.17-.51a27,27,0,0,0-4.62,1.64c-.21.09-.06.45.16.37,13.72-5.45,28.13.17,41.67,3.3a68.41,68.41,0,0,0,21.66,1.83c7.62-.68,15.11-2.38,22.71-3.21a60.78,60.78,0,0,1,11.12-.3,41.81,41.81,0,0,1,11.19,2.5c6.72,2.43,13.16,5.79,20.48,5.73s13.91-3.82,21.07-4.63c7.82-.88,15.26,2.59,23,2.8,14.3.39,29.43-8.56,43.31-1.74a22.27,22.27,0,0,1,4.27,2.73c.16.13.38-.08.23-.23-4.63-4.41-11.22-5.65-17.41-5.6-7.59.05-15,2.12-22.44,3.16A48.15,48.15,0,0,1,595,691a.48.48,0,0,0,0-.17c.45-5.23.14-10.59.07-15.82-.15-10.27-.4-20.54-.66-30.8q-.39-15.11-.86-30.22c3.45,3,7.83,3.67,12.29,3.31,5-.4,10-1.78,15-2.39a29.32,29.32,0,0,1,7.31-.1,22.43,22.43,0,0,1,7.6,2.69c4.5,2.42,9.25,5.61,14.61,4.29,4.65-1.14,8-5,11.44-8.05a20.41,20.41,0,0,1,6.6-4.15,17.52,17.52,0,0,1,7.68-.75c5.62.6,10.9,3,16.16,5a60.28,60.28,0,0,0,8.2,2.54,30.52,30.52,0,0,0,9.24.56c6.64-.6,13-2.82,19.48-4a58,58,0,0,1,20.56,0c1.64.3,3.26.66,4.86,1.09a.21.21,0,0,0,.11-.4A62.67,62.67,0,0,0,735,611.47a65.08,65.08,0,0,0-9.85,1.18c-3.27.65-6.5,1.44-9.77,2.08a44,44,0,0,1-9.9,1,34.81,34.81,0,0,1-8.7-1.51c-5.45-1.59-10.63-4-16.14-5.44-5-1.28-10.25-1.48-14.9,1-4.33,2.33-7.35,6.38-11.37,9.14a11.86,11.86,0,0,1-6.7,2.31,16.91,16.91,0,0,1-7.67-2.39,73.55,73.55,0,0,0-7.3-3.71,20.35,20.35,0,0,0-7.2-1.31c-5-.05-9.87,1.2-14.74,2.07-4.57.81-9.63,1.49-14-.56a12.75,12.75,0,0,1-3-1.91.33.33,0,0,0-.31-.06c-.54-17.63-1.13-35.25-1.65-52.88-.71-23.72-1.48-47.44-1.83-71.17-.08-5.19-.33-10.46.06-15.65.3-3.94,1.15-7.44,3.49-9.89,0,.27,0,.54,0,.81q0,6.07,0,12.15,0,7.22,0,14.43,0,6.31,0,12.63a26.36,26.36,0,0,0,.45,6.28.22.22,0,0,0,.08.36s0,.08,0,.11a.05.05,0,0,0,.1,0s0-.05,0-.07c5.65.57,11.42.3,17.1.33l17.16.08q17,.06,34,.08h68.29c12.57,0,25.15.18,37.71-.09-.07,3.08.08,6.15.21,9.23.12,2.9.25,5.79.37,8.69q.33,7.62.67,15.23.53,11.73,1.11,23.45.48,9.39,1,18.77.57,9.9,1.18,19.8c.53,8.85,1,17.71,1.65,26.56.07,1,.16,2,.27,3a36.47,36.47,0,0,1-10.6.88c-10.88-.85-20.57-6.59-31.21-8.58a29.82,29.82,0,0,0-15.4.86c-5.39,1.88-10.15,5.12-15.22,7.68a45.23,45.23,0,0,1-34.14,2.75c-1.45-.47-2.87-1-4.27-1.6-.43-.19-.81.44-.38.64a45.26,45.26,0,0,0,33.41,1.5c5.39-1.88,10.15-5,15.19-7.62a38.06,38.06,0,0,1,8.08-3.22,26.59,26.59,0,0,1,8-.69c10.84.66,20.59,6.45,31.08,8.73a37.74,37.74,0,0,0,16.62-.15c6-1.36,11.69-3.73,17.61-5.35a61.92,61.92,0,0,1,17.72-2.09,55.69,55.69,0,0,1,17.59,3.06c1.48.53,3,1.13,4.4,1.75.16.07.29-.15.14-.23a61,61,0,0,0-16.79-5.23,53.87,53.87,0,0,0-17.42,0c-5.41.87-10.64,2.77-15.91,4.48,0-5.19-.47-10.4-.72-15.58s-.49-10.55-.73-15.83q-.69-15.52-1.21-31.06-.54-15.81-1-31.61-.52-16.89-1.08-33.77-.32-9.18-.65-18.36c-.24-6.39-.37-12.8-.77-19.18-.1-1.55-.22-3.1-.37-4.64l1.08.06a.72.72,0,0,0,.7-.7c1.73-18.46,1.54-37.19,1.08-55.71-.3-12.24-1-24.48-1.79-36.7a28.84,28.84,0,0,1,7.63-2.72,46.07,46.07,0,0,1,8.93-.8,34.25,34.25,0,0,1,8.83,1.21,91.18,91.18,0,0,1,8.74,3.31,27.56,27.56,0,0,0,8.69,2.14,28.59,28.59,0,0,0,9-1.46,38,38,0,0,1,9.77-2A35.64,35.64,0,0,1,849.79,371c6.39,1.75,12.86,4.49,19.58,4.51,6.32,0,11.83-3.65,18.07-4.12s11.61,3.27,17.71,3.22c3,0,5.81-1.13,8.56-2.23a24.73,24.73,0,0,1,9-2.26c12.76-.15,23.09,11.46,36.14,9.4a15.92,15.92,0,0,0,4-1.2c.36-.16.05-.68-.31-.53-6.05,2.67-12.8.86-18.62-1.54s-11.66-5.8-18.15-6.68a19.89,19.89,0,0,0-8.74.74c-2.86.91-5.55,2.29-8.47,3-6.25,1.57-11.77-2-17.83-2.75s-11.92,2.31-17.91,3.2c-6.9,1-13.23-1.78-19.85-3.15a76,76,0,0,0-9.83-1.62,30.57,30.57,0,0,0-9.43.89c-3.18.77-6.29,1.9-9.56,2.26A20,20,0,0,1,815,370.7c-2.9-1.08-5.69-2.44-8.61-3.48a35.76,35.76,0,0,0-8.67-1.91,34.64,34.64,0,0,0-17,2.94c-.92.39-1.81.83-2.68,1.3-.64-9.71-1.35-19.42-2-29.12-1.65-24.11-3-48.41-6.21-72.38-1.29-9.72-2.79-19.42-4.37-29.1,9.15.11,18.31.08,27.46,0q7-.08,14-.24c2.29-.06,4.57-.13,6.85-.23,1.09,0,2.19,0,3.27-.14a4.48,4.48,0,0,0,2.38-.79c1.44-1.1,1.72-3.26,2.18-4.89l1.89-6.72,3.78-13.44,7.53-26.76q3.78-13.44,7.58-26.88c.27-1,.56-1.94.85-2.9a28.41,28.41,0,0,1,7.06-.71c1.47,0,3.19-.12,4.44.79a4.79,4.79,0,0,1,1.63,3.41,42,42,0,0,1,.18,4.49l.12,5.37q.23,10.68.39,21.35.32,21.23.27,42.46c0,1.72,0,3.44,0,5.16a.64.64,0,0,0,.55.94c5.68.26,11.39.09,17.07.09h118c12.54,0,25.07,0,37.62-.19a43.27,43.27,0,0,0-.3,5.22q-.06,3-.06,6.05,0,6.09,0,12.18V348.6c0,4-.11,8.08.16,12.09.06.94.15,1.87.19,2.81a21.85,21.85,0,0,0-2.91-.91c-4.44-1-8.85.21-13.13,1.44a44.43,44.43,0,0,1-6.82,1.6,16.22,16.22,0,0,1-7-.61c-2.34-.74-4.55-1.85-6.9-2.56-.15,0-.3-.07-.46-.12.11-1.73.09-3.46.09-5.19V267.5c0-7.84.16-15.69-.14-23.52,0-1-.13-1.92-.19-2.88a.41.41,0,0,0-.73-.25c-2.59,0-5.19.16-7.78.3l-8.14.43q-8.37.45-16.75.83c-11.32.51-22.64,1-34,1.19-3.16.07-6.31.13-9.47.17s-6.15,0-9.2.17a.46.46,0,0,0-.72.24,87.77,87.77,0,0,0-.3,11.92v85.65c0,8.11,0,16.22.07,24.32a14.56,14.56,0,0,0,.3,2.87.4.4,0,0,0,.76,0,31.22,31.22,0,0,0,.33-5.88q0-3,0-6V259.12c0-4,.09-8.05-.07-12.06,0-.81-.1-1.6-.19-2.4,2.63.16,5.3.08,7.94.06,2.84,0,5.67-.06,8.51-.12,5.64-.1,11.29-.27,16.93-.47l10.11-.39v0c0,.29,0,.59,0,.88,0,.92,0,1.85,0,2.78,0,3,0,6,0,9.07q0,6.39.06,12.78c0,5.1,0,10.2,0,15.3q0,8.31,0,16.63c0,5.57,0,11.14,0,16.71,0,5.25,0,10.49-.06,15.74q0,6.76-.1,13.52,0,5.06-.13,10.11c0,1.41-.06,2.83-.12,4.24a56.49,56.49,0,0,0-8.72-1.46c-1.15-.08-2.35,0-3.5,0s-2.32.11-3.48.2a23.7,23.7,0,0,0-6.4,1.34,14.37,14.37,0,0,0-2.91,1.45.17.17,0,0,0,.17.3A24.29,24.29,0,0,1,939,360.91c1.19.12,2.37.41,3.56.61s2.22.37,3.33.59c1.48.29,2.94.62,4.41,1h0v.1a.5.5,0,0,0,.47.62l2.94.06a51.12,51.12,0,0,0,14.93,1.53A61.87,61.87,0,0,0,977,364c2.45,0,4.9-.09,7.36-.17,2.64-.09,5.29-.16,7.92-.46a.62.62,0,0,0,.87-.1l.32,0c1.41.42,2.79,1,4.16,1.51a18.27,18.27,0,0,0,13.15,1.09c4.41-1,8.72-2.89,13.31-2.9,4.81,0,8.93,2.61,13.29,4.32a24.67,24.67,0,0,0,14.32,1.06c4.53-1,9.13-2.88,13.85-2.38a11.51,11.51,0,0,1,3.45.91c.33.15.63-.33.3-.5-4.21-2-8.84-1-13.16.16a56.49,56.49,0,0,1-7.22,1.61,22.5,22.5,0,0,1-7.8-.41c-3.48-.81-6.6-2.61-9.89-3.93a.32.32,0,0,0,0-.14c.11-2,.3-4,.32-6v-.57a11.27,11.27,0,0,0,1.82,2.93,5.31,5.31,0,0,0,2.18,1.69,7.41,7.41,0,0,0,1.88.25c.91.08,1.81.15,2.72.21,7,.51,14,.49,21,.4,14.11-.17,28.21-.88,42.32-1,7.91-.08,15.83,0,23.73.52A.76.76,0,0,0,1127.33,360.54Zm-470-129.72C645.67,250.69,635,273.49,615,286.36c-.57.37-3.27,2.42-3.72,2.21-.88-.41-.69-3.4-.72-4.23a41.46,41.46,0,0,1,1.21-11.26,58.65,58.65,0,0,1,8.5-18.68c7.8-11.61,18.52-20.88,28.26-30.78a415.09,415.09,0,0,0,51.24-63.52c6.72-10.25,12.72-21,20-30.92a92.93,92.93,0,0,1,12.38-14.12c1-.89,2-1.76,3-2.59C717.84,156.9,681.25,190.16,657.35,230.82Zm-189.2,18.46c-.07-.08-.13-.18-.2-.26a34.44,34.44,0,0,0,8.23,6.72,44.14,44.14,0,0,0,6.13,2.82.37.37,0,0,0,.16.1l.33.1a7.78,7.78,0,0,1,.91,3.15A49.55,49.55,0,0,1,468.15,249.28Zm52.46-31a16.7,16.7,0,0,1-.56,4.3,8.89,8.89,0,0,0-.34,1.35,5.21,5.21,0,0,1-.16,1.52,19.67,19.67,0,0,1-.95,2c0-.34,0-.69.06-1a28.78,28.78,0,0,1,.91-4.69C519.88,220.54,520.21,219.37,520.61,218.25Zm-.47-3.87h0a.34.34,0,0,0,.09-.08A.41.41,0,0,1,520.14,214.38Zm-.58-.12a11.22,11.22,0,0,1-2.79-1.27,14.9,14.9,0,0,1-2.88-2.37c-.07-.07-.2,0-.14.11a6,6,0,0,0,.38.47,12.8,12.8,0,0,0-4-2.36,13.11,13.11,0,0,0-5.7-.62,48.63,48.63,0,0,0-6.22,1c-1.46.32-3.16.89-3.72,2.41a3.46,3.46,0,0,0,.17,2.47,24.42,24.42,0,0,1,1,2.87,11.13,11.13,0,0,1,.26,3.15,5.9,5.9,0,0,0,.15,2.33c.65,1.74,2.57,1.33,3.91,2.07a2.89,2.89,0,0,1,1.49,2.08A1.73,1.73,0,0,1,501,228a1.58,1.58,0,0,1-.44.37c-.26.14-.3.05-.55,0a4.36,4.36,0,0,0-2.59-.28,1.86,1.86,0,0,0-1,.67c.23-1.71-.08-4.34-1.84-5.08-1.27-.53-3,.09-4.1.83a2,2,0,0,0-.85,2.49,2.11,2.11,0,0,1-2.69-.82,1.76,1.76,0,0,1,1.29-2.46c.3,0,.22-.51-.07-.52a4.42,4.42,0,0,0-4.27,3.87,2.91,2.91,0,0,0,.87,2.7,1.59,1.59,0,0,0,1.21.25.2.2,0,0,0,.12.27c.73.13,1.49.34,2.23.4a6.24,6.24,0,0,0,1.63-.14,4.23,4.23,0,0,0,.93.91,3.19,3.19,0,0,0,2.37.48l1.16-.11a8.09,8.09,0,0,0,0,1.57c.11,1,.69,2.17.34,3.15a1.5,1.5,0,0,1-.19.33.37.37,0,0,0-.32.3,6.27,6.27,0,0,1-2.83.57,8.48,8.48,0,0,1-1.94-.21,16.17,16.17,0,0,0-2-.15c-1.43,0-2.9.1-4.33.18-.71,0-1.42.05-2.12.07a3.25,3.25,0,0,0-1,.17,3,3,0,0,1-1,.08.37.37,0,0,0-.31.55.33.33,0,0,0,.09.32,22.52,22.52,0,0,0,2.83,2.16l0,.13a.15.15,0,0,0-.11.19,1.27,1.27,0,0,0,.06.18s0,0,0,.05a.11.11,0,0,0,.06.11,6.53,6.53,0,0,0,1.49,2.67,10.72,10.72,0,0,0,3.2,2.11,17.13,17.13,0,0,0,7.76,1.49,10.77,10.77,0,0,0,6.46-2.06,6.57,6.57,0,0,0,2-2.81,12.23,12.23,0,0,0,.45-1.57,43.57,43.57,0,0,0,4.44-3.94.53.53,0,0,0-.37-.9c-2.08,0-4.15,0-6.22,0a10.14,10.14,0,0,0-1.56,0,14.88,14.88,0,0,1-1.49.23c-.9.05-1.79.06-2.69.05a1.59,1.59,0,0,0,.2-.5c.28-1.24-.41-2.55-.4-3.8a5.9,5.9,0,0,1,.06-.83,3.54,3.54,0,0,0,2.47-1.36c.15-.21.29-.47.54-.55a6.75,6.75,0,0,1,1.19,0,1.85,1.85,0,0,0,1.17-.34c.22-.2.41-.4.65-.59a3,3,0,0,0,.52-3.84,3.77,3.77,0,0,0-1.67-1.31,10.52,10.52,0,0,1-2.49-.81c-.78-.59-.62-1.69-.55-2.54a14.51,14.51,0,0,0,0-3,14.22,14.22,0,0,0-.73-3c-.31-.88-.41-1.56.33-2.2,1.25-1.08,3.1-1.32,4.66-1.68a32.2,32.2,0,0,1,3.63-.68,30.44,30.44,0,0,1,3.44-.14,10.25,10.25,0,0,1,5.32,1.28,12.88,12.88,0,0,0-6.58-1,27.71,27.71,0,0,0-4.1,1,13.62,13.62,0,0,0-3.45,1.27,3.26,3.26,0,0,0-1.45,2.61c-.06.69.12,1.8,1,1.95s1.15-1,1.78-1.39a3,3,0,0,1,1.23-.43l-.1.09a14.1,14.1,0,0,1-2.42,1.78.64.64,0,0,0,.15,1.15c4.8,1.33,9.44-1.9,14.21-.85a.38.38,0,0,0,.29-.69,21.08,21.08,0,0,0-6.59-2.8,16.87,16.87,0,0,0-3.48,0c-1.23,0-2.33-.46-3.51.12a1.68,1.68,0,0,0-.89,1.09c-.1.3-.1,1.49-.63,1.36s-.37-1.06-.35-1.36a2.83,2.83,0,0,1,.67-1.74,7.47,7.47,0,0,1,3.17-1.45,31.62,31.62,0,0,1,3.7-1,11.69,11.69,0,0,1,4.33-.11,23.9,23.9,0,0,1,4,1.22.14.14,0,0,0,.14,0,11.19,11.19,0,0,0,2,1.73,19.42,19.42,0,0,0,3.68,1.69.34.34,0,0,0,.33-.09c1-.8.88-2,1-3.2a1.6,1.6,0,0,1,3-1c1,1.21,1.13,3.36.76,4.84-.42,1.72-1.63,3.08-2.14,4.78a10.41,10.41,0,0,0-.45,2.34c0,.36,0,.73,0,1.1,0,.52,0,1-.06,1.55a13.13,13.13,0,0,1-.72,4.91c-.51,1.09-2.06,2.32-3.24,1.29a.27.27,0,0,1-.07-.08c0-.16,0-.33,0-.49,0-.61,0-1.24-.07-1.86.32-.74.78-1.46,1-1.95a18.52,18.52,0,0,1,1.22-2.49,5.11,5.11,0,0,0,.68-2.61,19.86,19.86,0,0,0-.38-5.44.33.33,0,0,0-.63,0c-.36,1.33-.89,2.62-1.29,3.93a32.64,32.64,0,0,0-1,4q-.4,2.48-.69,5a3.54,3.54,0,0,0-.13,1.28c0,.47-.08.93-.11,1.4-.07,1.11-.08,2.24,0,3.35a28.92,28.92,0,0,1,.07,3.09,16.78,16.78,0,0,1-1.68,6.16,16.44,16.44,0,0,1-4.43,5.66c-1.21.94-2.44,1.87-3.67,2.79-1.55,1.16-3.06,2.36-4.68,3.42a12.94,12.94,0,0,1-4.69,2.12,30.21,30.21,0,0,1-7.94.43c-2.22-.19-4.41-.69-6.61-1.09-2.58-2.91-2.44-7.3-4.19-10.67a13.93,13.93,0,0,0-3.87-4.62c-1.78-1.37-4-2.16-5.61-3.71-3.48-3.29-4-8.35-3.59-12.86A10.92,10.92,0,0,1,468,221a4.21,4.21,0,0,1,2.26-1.67,6.52,6.52,0,0,1,3.53.17c2.39.62,4.75,1.42,7.26,1.12,1.81-.22,4.3-1.11,4.78-3.1a.45.45,0,0,0,0-.11c0-.06,0-.1.05-.16a.2.2,0,0,0-.15-.23.63.63,0,0,0-.19-.21,13.59,13.59,0,0,1-2.42-1.78l-.08-.07.29,0a2,2,0,0,1,1.28.72c.24.35.47.8.87,1,.75.33,1.29-.33,1.45-1a3.47,3.47,0,0,0-.66-2.85,5.72,5.72,0,0,0-2.86-1.51c-1.33-.42-2.67-.83-4-1.12a14.37,14.37,0,0,0-8.67.66,3.32,3.32,0,0,1,1.14-2.74,14.94,14.94,0,0,0,1.57-2.06,13.3,13.3,0,0,0,1.61-5c.52-3.86-.12-7.74.25-11.6a13.3,13.3,0,0,1,1.95-6.14l.19-.06c.54-.21,1.09-.4,1.64-.57s1.06-.27,1.58-.44a7.73,7.73,0,0,1,1.7-.44,27.54,27.54,0,0,1,3.52-.07,21.78,21.78,0,0,0,3.51-.29,32.23,32.23,0,0,1,7.47-.48,28.56,28.56,0,0,1,3.79.53,13.68,13.68,0,0,1,3.32,1,10.76,10.76,0,0,1,4.41,3.94c.54.86.84,1.84,1.38,2.7a6.76,6.76,0,0,0,2.3,2c1.63,1,2,2.92,2.14,4.73s0,3.88.06,5.81c0,2.11.28,4.37,1.61,6.1.76,1,1.86,1.64,2.57,2.66a6.12,6.12,0,0,1,1.08,3.66A.19.19,0,0,0,519.56,214.26ZM490.47,228.6a6.81,6.81,0,0,0-2.41.31l-.35.14a.11.11,0,0,0-.16-.1c-.94.42-2.31,1.19-3-.07a3.17,3.17,0,0,1-.11-2.42,4.13,4.13,0,0,1,2.27-2.5,2.29,2.29,0,0,0-.32,2.27,2.64,2.64,0,0,0,3.67,1,.25.25,0,0,0,.05-.38c-1-1.28,1-2.3,1.91-2.64,1.14-.41,2.47-.54,3.21.61a7.55,7.55,0,0,1,.58,4.11c-.14.6-.65.8-1,1.27a2.85,2.85,0,0,0-.38,1,8,8,0,0,1-1.07.21,2.76,2.76,0,0,1-1.84-.38c-.54-.37-.5-.81-.28-1.35S491,228.63,490.47,228.6Zm5.11,1.6a2.81,2.81,0,0,0,.56-.67,1.61,1.61,0,0,1-.1.68,1.67,1.67,0,0,1-1,.79A2.19,2.19,0,0,1,495.58,230.2Zm-13.49,10.93c.58.36,1.16.72,1.76,1.05a14.18,14.18,0,0,0,5.81,1.79,32.4,32.4,0,0,0,6.67-.37,16.06,16.06,0,0,0,5.79-1.7l-.09.32a6.12,6.12,0,0,1-1.84,2.88,9.57,9.57,0,0,1-5.7,1.92,17.41,17.41,0,0,1-7-1.06,12.81,12.81,0,0,1-3.46-1.89,5.88,5.88,0,0,1-2.13-2.66C482,241.32,482,241.22,482.09,241.13Zm12.27-3.64a.29.29,0,0,0,.13,0c1.15.18,2.31.35,3.46.55l-1.75.07c-2,.06-4,.19-6,.33l-1.1.08c.43-.12.86-.25,1.29-.4a9.91,9.91,0,0,1,2.55-.33A3.76,3.76,0,0,0,494.36,237.49ZM482,240.28l-1.17-.93a11.51,11.51,0,0,0,2.42.09h0A3.4,3.4,0,0,0,482,240.28Zm.44.25a3.05,3.05,0,0,1,1.09-.72,9.06,9.06,0,0,1,2.58-.49c1.75-.18,3.5-.31,5.26-.39s3.52-.12,5.28-.17c1.55,0,3.13,0,4.68-.11.25,0,.49.11.73.18.79.25.5,1,.38,1.62,0,.06,0,.12,0,.18a14.09,14.09,0,0,1-5.55,2.07c-4,.71-8.53,1.24-12.3-.71a13.82,13.82,0,0,1-2.14-1.4A.09.09,0,0,1,482.48,240.53Zm20.83-1.28a1.26,1.26,0,0,0-.95-1.05l-.08,0a.23.23,0,0,0-.19-.09h-.18c1.28-.06,2.54-.16,3.81-.32a20,20,0,0,1-2.45,2.24A2.72,2.72,0,0,0,503.31,239.25ZM502.68,216l.14-.11a2.33,2.33,0,0,0,.43.55,4.36,4.36,0,0,0,.77.64,12,12,0,0,1-2.75,0C501.76,216.71,502.23,216.37,502.68,216Zm5.82-1,0-.09a18.06,18.06,0,0,1,3.32,1.25,21.8,21.8,0,0,0-3.52.28A2.18,2.18,0,0,0,508.5,215Zm-1,0a1.67,1.67,0,0,1-1.76,1.12c-.85-.12-1.35-.81-1.88-1.41h0l.64-.07a10.1,10.1,0,0,1,3.21.1A.51.51,0,0,0,507.46,215Zm-28.34,1.12a1.7,1.7,0,0,1-1.76-1.12.52.52,0,0,0-.29-.31,9,9,0,0,1,2.08-.17c.62,0,1.23.13,1.84.21A3.29,3.29,0,0,1,479.12,216.1Zm-2.56.33a20.23,20.23,0,0,0-3.55-.28,19,19,0,0,1,3.37-1.31.58.58,0,0,0-.05.14A2.22,2.22,0,0,0,476.56,216.43Zm5,.06a3.8,3.8,0,0,0,.47-.59l0,0,.06,0a13.6,13.6,0,0,0,1.5,1.12,12,12,0,0,1-2.75,0A4.2,4.2,0,0,0,481.52,216.49Zm-26.89-25.9a32.83,32.83,0,0,1,2.49-8.52,29,29,0,0,1,4.79-7.17,61.13,61.13,0,0,1,6.17-6,29.35,29.35,0,0,1,7.25-4.64A32.65,32.65,0,0,1,491.27,162a38.82,38.82,0,0,1,9,1.89,25.9,25.9,0,0,1,4.8,2.16.45.45,0,0,0,.15.61,36.43,36.43,0,0,1,12,14c1.51,3,3.18,6.31,3.17,9.7,0,.88-.17,1.75-.2,2.63a17.54,17.54,0,0,0,.2,2.61,34.52,34.52,0,0,1,0,5.57c-.2,3.29-.38,6.58-.6,9.87a8.84,8.84,0,0,0-2-2.74,6.41,6.41,0,0,1-1.85-2.66,9.13,9.13,0,0,1-.4-3c0-2.1.63-4.13.55-6.23a8.77,8.77,0,0,0-1.87-5.41,12.69,12.69,0,0,0-2.31-2,7.69,7.69,0,0,1-1.9-2.58,13.16,13.16,0,0,0-4.3-4.26,16.07,16.07,0,0,0-6.58-1.93,30.77,30.77,0,0,0-7.79,0,16.41,16.41,0,0,1-4.35.4,23.94,23.94,0,0,0-4.06-.36,14.22,14.22,0,0,0-3.9.47,11.28,11.28,0,0,0-1.94.79c-.21.11-.38.24-.57.36a.8.8,0,0,0-.71.19c-1.85,1.57-4.34,2.15-6.28,3.59a12.62,12.62,0,0,0-2.8,3.16,25.23,25.23,0,0,0-2.16,3.74,17.27,17.27,0,0,0-1.4,4.08,21.49,21.49,0,0,0-.34,4.31,29.07,29.07,0,0,1,.05,4.57,14.42,14.42,0,0,1-1.47,3.92,6.21,6.21,0,0,0-.76,1.78,8.26,8.26,0,0,0,0,2.22,18.16,18.16,0,0,0,.42,2.2c.08.28.14.57.22.86a7.64,7.64,0,0,1,.46,1.32,7.37,7.37,0,0,1-.49,2.1c0,.12,0,.25-.07.38-1-2.19-3.07-4.12-3.33-6.56-.14-1.29,0-2.9-.89-4a2.24,2.24,0,0,0-2.16-.7C454.26,203,453.66,196.76,454.63,190.59Zm6.93,41.13c-.09-.56-1-.43-1,.13l0,.48a2.62,2.62,0,0,1-2.44,2.07c-1.56,0-2.44-1.54-2.72-2.87-.37-1.7-.15-3.47-.41-5.18a17.45,17.45,0,0,0-.68-2.45c-.25-.83-.48-1.66-.71-2.5a27,27,0,0,1-.88-5.2,11.22,11.22,0,0,1,.33-4.79,3,3,0,0,1,1.05-1.28.5.5,0,0,0,.6-.3,1.52,1.52,0,0,1,1.84.59c.69,1,.49,2.45.64,3.58a10.54,10.54,0,0,0,2.15,4.48,10.66,10.66,0,0,1,1.57,3c0,.14,0,.29,0,.43-.81-1.46-2.12-2.71-2.62-4.32-.29-.94-1.1-2.65-2.39-2.05-1,.47-1,2.18-.81,3.11a3.88,3.88,0,0,0,.71,1.49,5.15,5.15,0,0,0,.64.68,2.64,2.64,0,0,1,.57.86c.24.51.68.82.94,1.31s0,1-.25,1.63a7.2,7.2,0,0,0-.58,4.17,3.14,3.14,0,0,0,1.79,2.61,1.82,1.82,0,0,0,2.18-1.2,11.19,11.19,0,0,0,.38-4.12c0-.72,0-1.44,0-2.17a.23.23,0,0,0,.08-.11,4.52,4.52,0,0,0,0-2.31c0-.13,0-.26,0-.38a13.07,13.07,0,0,1,.59-2.47c.12-.39.2-.78.35-1.16a3.58,3.58,0,0,0,.33-1.22c0-1.57-.56-3.07-.43-4.64a10,10,0,0,1,.21-2.05c.24-.77.53-1.52.75-2.29.89-3.19-.09-6.5.45-9.75a12.12,12.12,0,0,1,2-5.12,40.24,40.24,0,0,1,3.31-4.27c1.86-1.95,4.72-2.38,6.74-4-3.31,6.7.94,15.08-3,21.68-.93,1.58-3.17,3.13-2.63,5.2,0,.05.05.07.07.09s.09.2.21.15a15.28,15.28,0,0,1,7.69-.81,26.28,26.28,0,0,1,3.6.89,13.31,13.31,0,0,1,3.32,1.26,2.82,2.82,0,0,1,1.14,3c-.08.29-.33.77-.69.34-.11-.13-.1-.41-.13-.58a3,3,0,0,0-.47-1.3c-.69-.91-2.08-.76-3.06-.62-1.26.19-2.51-.14-3.78,0-2.62.28-5,1.62-7.27,2.89a.38.38,0,0,0,.29.69c4.7-1,9.26,2.07,14,.91-1,1.62-3.73,2.15-5.43,2.28-2.44.18-4.61-1.19-6.95-1.58a5.13,5.13,0,0,0-5,1.63,9.75,9.75,0,0,0-1.88,4.82c-.65,4.37-.35,9.3,2.33,13a14.76,14.76,0,0,0,4.91,4,14.59,14.59,0,0,1,5,4.43,20.83,20.83,0,0,1,2.54,6.65,15,15,0,0,0,1.93,4.74A34.07,34.07,0,0,1,477.7,255a46.82,46.82,0,0,1-5.47-4.25A31.38,31.38,0,0,1,464,239.46,33.74,33.74,0,0,1,461.56,231.72Zm-1.36-1.34a1,1,0,0,1-1.54.11,2.83,2.83,0,0,1-.78-1.69,6.36,6.36,0,0,1,.87-4.21,4.42,4.42,0,0,0,.73-1.35,2.07,2.07,0,0,0-.43-1.62,2.54,2.54,0,0,0-.68-.74,5.28,5.28,0,0,0-.79-.28,2.6,2.6,0,0,1-1.46-1.36,3.26,3.26,0,0,1-.26-2.17.72.72,0,0,1,.27-.51c.1-.2.23-.22.39,0a.61.61,0,0,1,.15.3c.11.34.07.7.18,1,.72,2.23,3.29,3.21,4,5.39,0,1.2-.06,2.4-.09,3.6S460.9,229.46,460.2,230.38ZM231,2A2.24,2.24,0,0,1,232.94.83a4.47,4.47,0,0,1,1.21.05,1.14,1.14,0,0,1,1.08,1c.15.57.28,1.14.42,1.72a16.56,16.56,0,0,0-2.9-.07c-.51,0-1,.1-1.52.16A1.46,1.46,0,0,1,231,2Zm5,2.76c.24,1,.49,2,.73,3,.12.51.27,1,.37,1.52s-.06,1-.66,1.11a12.63,12.63,0,0,1-2.75,0l-3.07,0c-2.19,0-4.38,0-6.57-.09.07-.94.13-1.88.19-2.82a6.45,6.45,0,0,1,.11-1.46c.17-.5.76-.47,1.21-.55,1.8-.3,3.61-.65,5.42-.91a.39.39,0,0,0,.47-.06l.72-.1a16.12,16.12,0,0,1,3.74.08A2.46,2.46,0,0,1,236,4.8ZM415.34,34.12a.41.41,0,0,0-.61-.35,6.2,6.2,0,0,1-7.11-1.94c-1.55-1.75-2.74-5.1-.4-6.68a8.68,8.68,0,0,1,12,3c2.05,3.85-.07,9-3.83,10.94C415.39,37.4,415.38,35.76,415.34,34.12Zm-7.56,10.72A3.13,3.13,0,0,0,406.25,43a10.11,10.11,0,0,1-2-1.14A8,8,0,0,1,402,38.3a9.29,9.29,0,0,1,.83-7.72A10.09,10.09,0,0,0,409.92,41a8.1,8.1,0,0,0,4.58,0c-.45,11.54-2.88,22.93-5.86,34.09a139.23,139.23,0,0,0,.65-17.79c-.08-2.09-.23-4.17-.47-6.24-.12-1-.25-2.05-.42-3.06A20.87,20.87,0,0,0,407.78,44.84ZM313.14,295.26c3.64,17.24-5.69,33.43-12.6,48.57a119.57,119.57,0,0,0-7.11,20.05c-.38-.69-.74-1.4-1.06-2.12-3.12-7-1.39-14.58,1.1-21.48s5.31-13.44,8.18-20.06C305.3,311.82,309.16,303.52,313.14,295.26ZM243.14,32a27.19,27.19,0,0,1,1,11.06c-.73,4.55-3.27,8.31-6.22,11.75A44.8,44.8,0,0,0,243.14,32ZM20.08,341.18c-1.87.6-4.1,1.05-5.48,2.57s-1.95,3.55-3.26,5.11a14,14,0,0,1-4.49,3.5,10,10,0,0,0-5.31-8.46c1.38-4.18,3.89-8.06,4.35-12.5.34-3.29-.52-6.82-3.22-8.9.07-4.35.42-9.66,3.56-13,2-2.15,4.79-2.45,7.61-2.55,3.31-.11,6.62-.4,9.91-.78,12.94-1.5,26.1-4.5,39.15-2.36,3.29.54,6.52,1.45,9.82,1.93a31.51,31.51,0,0,0,9.4-.08c3.35-.5,6.65-1.29,10-1.79s6.7-.82,10.07-1c13.38-.84,26.82-.19,40.19-1.34s26.32-4.73,39.31-7.8l4.72-1.12q.63,5,1.25,10.08c-2.55-1.11-5.64-2.38-8.38-1.3a4.72,4.72,0,0,0-3.24,4.82,9.87,9.87,0,0,0-8.65,3.71,6.82,6.82,0,0,0-5.15-1.47.29.29,0,0,0-.24.42c1.35,2.4-.31,5.18-2.47,6.42a9.44,9.44,0,0,1-1.49.67c-2.83.29-5.66.43-8.46.46-4.31,0-8.6-.2-12.89-.53s-8.41-.61-12.57-1.19a28.69,28.69,0,0,1-5.86-1.37c-1.85-.67-3.48-1.75-5.25-2.57-3.53-1.65-7.41-1.41-11.16-.79s-7.85,1.75-11,4.17a12.13,12.13,0,0,0-4.81,8.3c-2.19-.34-4.3.18-6.51.3a10.55,10.55,0,0,1-3.67-.36c-1.18-.36-2.29-.88-3.44-1.31A51,51,0,0,0,65,319c-1.25-.26-2.51-.51-3.76-.72a29.31,29.31,0,0,0-3.61-.51c-2.32-.09-4,1.14-5.6,2.62A17.61,17.61,0,0,1,46.2,324a16.38,16.38,0,0,1-6.87.92,6.13,6.13,0,0,0-2.89.07c-1,.41-1.27,1.4-1.73,2.27-2.21,4.13-7.58,6.67-7.81,11.74Q23.47,340.08,20.08,341.18ZM87,322.58a11.42,11.42,0,0,1,5-8.11c3.14-2.24,7-3,10.74-3.4a29.22,29.22,0,0,1,5.76-.18,16,16,0,0,1,5.75,2,28.74,28.74,0,0,0,10.5,3A221.06,221.06,0,0,0,149.79,317c1.58,0,3.15-.08,4.73-.18l-2.59.37c-6,.9-12.1,1.78-18.2,2.25a115.94,115.94,0,0,1-17,.06,141.86,141.86,0,0,0-15.14-.64A31.48,31.48,0,0,0,87,322.58Zm82.19,41.94c-.46-.81-.13-.93.63-1.22l1.87-.72,3.74-1.44,7.67-2.95,13.78-5.3c1.43,1.24-.56,2.71-1.66,3.35a24.83,24.83,0,0,1-5.77,2.24c-3.72,1-7.44,1.91-10.56,4.32a27.79,27.79,0,0,1-3.66,2.69,6.36,6.36,0,0,0-.69-.24,8.77,8.77,0,0,0-2.45-.39,11.73,11.73,0,0,0-2.5.21A3.5,3.5,0,0,1,169.17,364.52Zm2,1.46a10,10,0,0,1,2.62.08A5.08,5.08,0,0,1,171.13,366Zm4.62-.21a21.2,21.2,0,0,0,2.41-1.75,20.24,20.24,0,0,1,5.11-3.15c3.43-1.42,7.15-2,10.52-3.59,1.25-.59,3.05-1.4,3.63-2.77a1.51,1.51,0,0,0-.3-1.72l1.27-.49c1.12,2.25.31,4.87-1.26,6.72-1.82,2.13-4.65,2.94-7.32,3.35-4.73.73-10,.41-13.9,3.52A.67.67,0,0,1,175.75,365.77Zm13.68,1.92c-4.07-.41-8.14-.95-12.21-1.31,4.42-3.25,10.69-2.25,15.71-4a10,10,0,0,0,5.6-4.39,6.23,6.23,0,0,0,.24-6.18.29.29,0,0,0-.32-.13l-1.81.7a12.64,12.64,0,0,0-1.25-.76c-3.42-1.94-7.34-3.8-11.35-2.7a27.46,27.46,0,0,0-5.33,2.62,25.44,25.44,0,0,1-5.72,2.14,24.47,24.47,0,0,1-17.47-2.17,24.84,24.84,0,0,0-5.27-2.54,25.37,25.37,0,0,0-7.07-.37c-1.31,0-2.64.19-4,.31a9.74,9.74,0,0,0-2.57.49c-1.38.52-2.48,1.74-2,3.28a2.17,2.17,0,0,0,1.7,1.65c-1.33,2.41-5.69,2-7.95,2-4.14.05-8.29.05-12.43.07l-12.83.05c-2,0-4.08,0-6.12,0a6.59,6.59,0,0,1-2.88-.49,11,11,0,0,1-2.2-1.95c-2.46-2.25-5.84-1.48-8.67-.48a27.15,27.15,0,0,1-5.36,1.48A28.09,28.09,0,0,1,71.8,355c-8.3-.71-16.56-1.31-24.9-1.22a206,206,0,0,0-26.84,2.05c2.66-5.37,5.56-10.62,8.14-16a.71.71,0,0,0-.47-1c0-2.08,1.3-3.95,2.66-5.46a48.78,48.78,0,0,0,4.27-4.71,9.28,9.28,0,0,0,.76-1.29,3.73,3.73,0,0,1,1-1.57c.86-.59,2.15-.22,3.1-.15a17,17,0,0,0,11.79-3.75c1.69-1.37,3.2-3.26,5.53-3.43a14,14,0,0,1,3.63.43c1.22.24,2.43.46,3.65.71a55.13,55.13,0,0,1,7.16,1.91c1.32.46,2.57,1.06,3.86,1.61a9.88,9.88,0,0,0,3.67,1c2.42,0,4.82-.84,7.23-.76v.07a.45.45,0,0,0,.67.39c9.25-5.79,20.73-4.06,31.05-3.43,12.25.75,24.35-1,36.42-2.88a23.08,23.08,0,0,0,4.17-1,66.55,66.55,0,0,0,13.74-2.83A45.52,45.52,0,0,0,191,302.24c3.45,21.65,7.78,43.17,11.52,64.76.12.68.23,1.37.35,2.05Q196.14,368.35,189.43,367.69ZM288.3,506.82q.81,8.15,1.58,16.3.87,9.28,1.71,18.59.89,9.87,1.79,19.73t1.77,19.48q.81,9,1.44,18.08.56,7.72,1,15.46c.22,3.88.42,7.76.46,11.65,0,1.32,0,2.64,0,4,0,2.95,0,6.74-2.78,8.56a3,3,0,0,1-2.87.41,2.35,2.35,0,0,1-1.53-2.49.66.66,0,0,0,0-.14h0a.34.34,0,0,0,0-.1c-.62-7.28-1.18-14.56-1.76-21.84q-1.14-14.48-2.3-28.94-1.25-15.4-2.6-30.81c-.83-9.27-1.69-18.53-2.7-27.78-.41-3.75-1-7.49-1.47-11.23-.22-1.55-.45-3.11-.69-4.66a62.79,62.79,0,0,1-1.17-9.65,18.17,18.17,0,0,1,.73-5.24c.11-.36-.41-.7-.67-.39a42.4,42.4,0,0,1-12.92,10.52c-2.65,1.4-5.42,2.55-8.05,4a46.44,46.44,0,0,0-7.18,5c-4.48,3.68-8.88,7.39-13.68,10.65a125.33,125.33,0,0,1-14.65,8.56c-4.16,2.06-8.44,3.88-12.78,5.52.78-.69,1.51-1.42,2.27-2.12q2.22-2.05,4.5-4,4.64-4.05,9.48-7.85c6.46-5.08,13.18-9.83,20-14.36,13.28-8.77,27.09-16.69,40.94-24.52,0,.12,0,.24.05.36.08.62.15,1.23.23,1.85.19,1.56.36,3.12.53,4.68Q287.66,500.4,288.3,506.82ZM290.11,391a105.39,105.39,0,0,0,3,23.86A180.74,180.74,0,0,0,301,438.25c3,7.73,6.19,15.47,8.27,23.52,1,3.74,2.5,8.48-1.22,11.19a49.35,49.35,0,0,1-5,2.92L298,478.75c-13.95,7.86-28,15.63-41.62,24a314.62,314.62,0,0,0-38.74,27.5q-4.55,3.84-8.87,7.93c-1.39,1.31-3.38,3.38-5.51,2.86-1.7-.42-2.25-2.31-2.48-3.83a55.08,55.08,0,0,1-.29-6c-.07-2.21-.15-4.42-.22-6.63q-.22-6.89-.46-13.76t-.46-13.51c-.07-1.88-.21-4,.74-5.72a5.24,5.24,0,0,1,1.2-1.44c7.9,1.34,16-.62,23.25-4.05,8.66-4.1,16.4-10.24,23.13-17a101.52,101.52,0,0,0,17-22.65,125.46,125.46,0,0,0,11.1-28.87c3-11.4,4.86-23.06,6.72-34.68.05-.34-.44-.63-.61-.26-7.44,16.25-15.08,32.51-23.77,48.14-8,14.41-17.34,28.25-29.37,39.62a98.29,98.29,0,0,1-18.85,14.12q-2.49,1.41-5.07,2.66a24.06,24.06,0,0,0-3.9,2.11c-.84-.16-1.68-.36-2.51-.6a49.76,49.76,0,0,0,7.74-8.15,27.4,27.4,0,0,0,2.52-4.59.49.49,0,0,0,.13-.18l.12-.4a34.24,34.24,0,0,0,2.27-8.83c2.31-12,1.82-24.36.81-36.5-1.35-16.26-3.59-32.43-6.2-48.53-5.24-32.38-12.22-64.49-16.54-97a373.69,373.69,0,0,1-3.6-48c0-15.36,1.59-30.61,3.31-45.85,3.34-29.6,8-59.75,19.73-87.33,5.86-13.73,12.93-27.61,22.62-39.06,1.79-2.12,3.76-4.13,5.67-6.2a.36.36,0,0,0,.36.15c7.68-1.33,13.26-8.54,13.59-16.11,3.9,15.42,4.11,31.41,5.78,47.17,1.86,17.55,7.09,34.42,11.69,51.4,2.35,8.68,4.67,17.37,7.07,26a241.31,241.31,0,0,0,7.93,24.6c6.33,15.94,15.44,30.61,20.78,47s7.16,33.44,8.65,50.4c.12,1.33.23,2.66.34,4-3.68,7.57-7.26,15.19-10.66,22.88q-4.22,9.54-8.09,19.22c-2.5,6.28-5.18,12.94-4.85,19.84a22.8,22.8,0,0,0,3.52,10.75A105.15,105.15,0,0,0,290.11,391Zm-88,98.46a21.13,21.13,0,0,1,2.53-1.34,92.21,92.21,0,0,0,18.62-11.91c12.1-9.89,21.78-22.37,29.92-35.63,9-14.63,16.35-30.23,23.68-45.73q2.3-4.87,4.55-9.76c-3.14,19.21-6.56,38.74-15.12,56.38-8.15,16.81-21.3,32.06-37.54,41.5C220.78,487.62,211.37,490.81,202.14,489.47ZM362.64,205.6Q346,245.74,330.28,286.27q-7.93,20.49-15.66,41.06l-7.53,19.9c-.85,2.24-2.55,5.31-1,7.61,1.22,1.77,3.69,2.22,5.56,3,25,9.8,33.09,38.57,35.67,62.68.31,2.87.56,5.74.8,8.61-9.49-11.21-19-22.42-28.52-33.58L305,378.39c-3.76-4.38-8.15-8.74-11.12-13.8a99.06,99.06,0,0,1,2.85-9.71c5.66-16.22,16.36-30.94,17.75-48.47a39.68,39.68,0,0,0-.67-11.25s0-.05,0-.08c0-.35-.05-.7-.08-1.05q3-6.16,6-12.29c12.73-25.39,26.39-50.31,39.09-75.71a750.74,750.74,0,0,0,33.95-78.19q7.44-20.39,13.62-41.2c.34-1.13.67-2.27,1-3.41l.05,0A11.26,11.26,0,0,0,410,80.77,22.63,22.63,0,0,0,412,78a37.57,37.57,0,0,0,3-6.8c1.66-4.86,2.55-9.93,3.82-14.9.26-1,.53-2,.81-3q-.36,3.4-.49,6.8c-3.45,23.08-13,44.93-22.39,66.16Q379.24,165.73,362.64,205.6Zm44.93,156.83a8.78,8.78,0,0,0,5.52-2.84,12.42,12.42,0,0,0,1.66-3.39c.49-1.32.93-2.67,1.31-4,.28-1,.53-2,.76-3l.6,4.51a19.06,19.06,0,0,0,.66,3.43,5.56,5.56,0,0,0,4.66,4A8.38,8.38,0,0,0,429,359a29.55,29.55,0,0,0,5.47-5.42,78.09,78.09,0,0,0,7.68-13.71c1.11-2.4,2.11-4.84,3.2-7.25.87-1.94,1.79-3.86,2.68-5.79,1.48-3.19,3-6.38,4.55-9.53.24.43.49.86.74,1.29-.56,1.2-1.11,2.4-1.65,3.61-2.12,4.8-4,9.72-6.07,14.52a107.38,107.38,0,0,1-7.05,13.7c-3,4.79-6.57,9.29-11.57,12.07a.59.59,0,0,0-.32.13C420.34,362.26,414,362.28,407.57,362.43Zm46-82.54c-3.14-.46-5.32-2.73-6.89-5.4a24.65,24.65,0,0,0,7.44-4.36,31.86,31.86,0,0,0,6.3-8.72,125.41,125.41,0,0,0,2.2,18.64c1.15,6.15,2.73,12.22,4.24,18.29a10.57,10.57,0,0,0-1.52-.73,8,8,0,0,0-7.63,1.12,10.61,10.61,0,0,0-4,8.22.46.46,0,0,0,.22.39,7.8,7.8,0,0,0,2.46.88.85.85,0,0,0-.43.52c-1.27,2-2.48,4.08-3.65,6.16a95.05,95.05,0,0,1-7.11-16.25c-.54-1.66-1-3.35-1.43-5a3.57,3.57,0,0,1,.28-2.91,16.07,16.07,0,0,1,1.71-2.07,85.69,85.69,0,0,1,8-7.85A.53.53,0,0,0,453.59,279.89Zm33.68,76.38a.46.46,0,0,0,.44-.34c.15-.55.3-1.11.46-1.66-.31,2-.69,3.9-1.17,5.83a6.19,6.19,0,0,1-3.16-2.25c-1.13-1.29-2.17-2.65-3.24-4-2.07-2.57-4.15-5.13-6.22-7.71-3.93-4.9-7.83-9.82-11.51-14.9-3-4.12-5.82-8.36-8.41-12.74.28-.61.55-1.22.84-1.82.59-1.21,1.2-2.4,1.84-3.58a23.4,23.4,0,0,1,1.15-2.09,5.29,5.29,0,0,0,1.22.4,7.32,7.32,0,0,0,3.88-.28,8.77,8.77,0,0,0,5.17-6.07c1.22,5,2.45,9.95,3.73,14.92,1.68,6.48,3.43,13,5.61,19.31,1.2,3.5,2.48,7,3.94,10.38a25.58,25.58,0,0,0,2.25,4.54A4.08,4.08,0,0,0,487.27,356.27Zm2.6-40.1a172.55,172.55,0,0,1,.19,23.52c0-1.88-.13-3.77-.3-5.65-.81-9-2.67-17.93-2.16-27a32.82,32.82,0,0,1,1-7.32c.51-1.7,1.91-3.65,3.81-3.42-2.06,2.19-2.79,5.19-3,8.15A95.39,95.39,0,0,0,489.87,316.17Zm-24.28-15.9a.39.39,0,0,0-.72.19,6.86,6.86,0,0,1-10.18,6.22,10.2,10.2,0,0,1,2.54-6.43,7,7,0,0,1,6.39-2.12,3.92,3.92,0,0,1,2.84,1.84,5.06,5.06,0,0,1,.47,3.34,7.68,7.68,0,0,1-3.31,5.58,5.18,5.18,0,0,1-3,.71,9.49,9.49,0,0,0,1.06-.22,5.71,5.71,0,0,0,1.48-.69,6.68,6.68,0,0,0,2.12-2.27A6.49,6.49,0,0,0,465.59,300.27Zm-3.48,6.9a7.93,7.93,0,0,0,3.31-4.71,6.09,6.09,0,0,1-1,3.82,5.72,5.72,0,0,1-2.07,1.93c-1,.55-2.21.46-3.25.93l-.15.08a5.07,5.07,0,0,1-1.39-.87A7.63,7.63,0,0,0,462.11,307.17Zm-8,7.21c.8-1.53,1.63-3.05,2.52-4.53a5.54,5.54,0,0,0,.9.79c-.23.37-.44.75-.65,1.12-.65,1.13-1.27,2.29-1.87,3.45-.4.77-.77,1.56-1.15,2.34l-.72-1.28C453.47,315.64,453.79,315,454.11,314.38Zm93.67,33.48c2.81,4.19,5.54,8.42,8.32,12.63-3.39-.28-6.8-.3-10.2-.32-4,0-8,.06-11.93.12q-13.28.21-26.53.5h-.57c3.59-5.87,5.71-12.51,7.3-19.16,1.73-7.25,3.25-14.57,4.7-21.89.46-2.34.91-4.68,1.33-7a9.11,9.11,0,0,0,4.25,1.45h0a21.61,21.61,0,0,1,4.29,4.81l1.52,2.31c-2.58,5.19-5.33,10.29-8.19,15.32q-5.58,9.84-11.31,19.59c-.26.44.39,1,.73.56,3.43-4.27,6.82-8.57,10.34-12.77s7-8.23,10.49-12.3l2.72-3.12Q541.37,338.24,547.78,347.86Zm-27.16-37.53c.12.18.24.36.37.53-.14-.11-.26-.24-.4-.37Zm1.35-8.5a5.59,5.59,0,0,1,5.09,1,6.51,6.51,0,0,1,2.4,3.36c.42,1.46.32,3.34-1.11,4.21a4.15,4.15,0,0,1-4.6-.63,9.28,9.28,0,0,1-2.43-3.54C521.54,304.77,521.76,303.3,522,301.83Zm-1.52,2.8a.37.37,0,0,0-.54.17,5.33,5.33,0,0,0-.09,3.87l-.12.76a5.63,5.63,0,0,1,.43-6.21,4,4,0,0,1,.62-.67Zm7.53,9.15c.2.22.41.44.64.65a8.14,8.14,0,0,1,1.28,1.64c.54.86,1.12,1.7,1.7,2.54l-.81,1.65a40.15,40.15,0,0,0-3.19-4.46,16.07,16.07,0,0,0-1.68-1.62A8.35,8.35,0,0,0,528,313.78Zm3,8.65,1.44,2.18,2.14,3.26-3,3.47q-4.9,5.81-9.77,11.64c-1.83,2.19-3.6,4.44-5.49,6.59-.58.66-1.15,1.33-1.72,2C520.44,342,526.06,332.42,531,322.43Zm47.25,15.21c-.15-2.61-.26-5.22-.37-7.83a3.76,3.76,0,0,1,.56,2.05c.13,1.24.22,2.49.28,3.74a72.67,72.67,0,0,1,0,7.38c0,.15,0,.3,0,.45C578.53,341.49,578.38,339.57,578.27,337.64Zm-11-62.5-7.07-2.37c-2.29-.77-4.61-1.48-6.87-2.32a7.11,7.11,0,0,1-3.56-2.34c5.31,3.26,12,3,17.9,4.53a31.7,31.7,0,0,1,9.73,4.45,14.8,14.8,0,0,1,3.14,2.51Zm-21,48.72a2.21,2.21,0,0,1-2.14-1.07l-.11-.18a97.8,97.8,0,0,0,13,.54l-7.83.52C548.25,323.74,547.27,323.84,546.28,323.86ZM568,322.42l-2.46.17c2.15-.24,4.29-.56,6.42-.94a4.52,4.52,0,0,1,.18.47c-.35,0-.7,0-1,.06Zm-29.69,2.41a88.09,88.09,0,0,0,26.87.88q3.81-.48,7.57-1.27a.5.5,0,0,0,.35-.35,4.29,4.29,0,0,0,.15-.93l.36,0a3.18,3.18,0,0,0,2.07-1.13,7.07,7.07,0,0,0,1-2.2,45.69,45.69,0,0,0,1.52-6c.78-4,1.26-8.14,1.82-12.22s1.13-8.43,1.69-12.65c.27-2.05.64-4.11.8-6.17a5.25,5.25,0,0,0-.1-1.6c3.11,2,5.26,5.12,6.89,8.41a62.23,62.23,0,0,1,2.55,6c1,2.78,2.13,5.53,3.21,8.29l13.18,33.66,13.18,33.66a45,45,0,0,1,2.76,8.1,21.61,21.61,0,0,1,.12,6.81,26.21,26.21,0,0,1-5.57,12.66c-6.24,7.8-16.18,11.64-25.91,12.53-1,.1-2.08.15-3.13.18-.14-10.17-.28-20.34-.36-30.51,0-2.64-.05-5.27-.06-7.91a16.11,16.11,0,0,1,.63-5.44,6,6,0,0,1,.34-.77,20.86,20.86,0,0,0,2.81.08q7.58.12,15.15-.07c2.87-.07,5.74-.18,8.62-.31a.52.52,0,0,0,.36-.88,9.08,9.08,0,0,0-5.39-2.57,52.42,52.42,0,0,0-7.5-.6,68.91,68.91,0,0,0-8,.25c-2.12.19-4.4.46-6,2.06a5.45,5.45,0,0,0-.67.85.67.67,0,0,1-.18-.11c-.51-.39-.46-1.2-.5-1.78s-.09-1.31-.14-2c-.1-1.35-.16-2.71-.23-4.06a.63.63,0,0,0-1.06-.44,4.05,4.05,0,0,1-4.76,0c-1.74-1.1-2.5-3.2-2.93-5.11a35.86,35.86,0,0,1-.61-3.59,72.23,72.23,0,0,0,.3-16.1c-.12-1.28-.22-4-2.15-3.87a.51.51,0,0,0-.5.5c.23,5.6.46,11.21,1.06,16.78.09.83.18,1.68.28,2.52a72.23,72.23,0,0,1-1.77,9.09c-4.35-.31-8.65.65-13,.25a10.23,10.23,0,0,1-3-.63,6.06,6.06,0,0,1-2.38-1.88c-1.44-1.77-2.65-3.77-3.94-5.64-5.42-7.88-10.74-15.82-16.14-23.71l-.26-.39A8.64,8.64,0,0,1,538.31,324.83Zm52.58,41.09a5.81,5.81,0,0,1,3.5-1.82,48.74,48.74,0,0,1,7.44-.55,65.74,65.74,0,0,1,8.42.37,11.11,11.11,0,0,1,5.25,1.65q-6.32.29-12.65.36-3.47,0-6.92,0l-3.53,0C592,365.89,591.43,365.94,590.89,365.92Zm-54.77-40.67.32.46-1.15,1.35-.33-.5q-1.71-2.58-3.43-5.16l.38-.76c.15-.31.29-.62.44-.92ZM545,265.64,526.3,277.17a.5.5,0,0,0,0,.86c2.54,1.49,5.47,1.8,8.35,2s6,.22,8.74,1.52a1.78,1.78,0,0,1,.89.65,1.86,1.86,0,0,1,0,1.14c-.19.88-.39,1.76-.6,2.63-.39,1.6-.8,3.2-1.25,4.78q-1.36,4.86-3.07,9.61a183.64,183.64,0,0,1-7.13,17c-.36-.53-.72-1.05-1.09-1.56a9,9,0,0,1-1.16-1.73,12.92,12.92,0,0,0-.86-1.85,1,1,0,0,0-1-.43,8.44,8.44,0,0,1-4.67.18c-.3-.27-.61-.54-.89-.84a8.53,8.53,0,0,1-1.58-2.34c.05-.32.1-.63.16-.95a9,9,0,0,0,1.78,2.42,5.59,5.59,0,0,0,4.72,1.51,3.89,3.89,0,0,0,3.18-3.51,6.82,6.82,0,0,0-1.57-5,7.89,7.89,0,0,0-7-3,179,179,0,0,0,1.78-26c-.05-4.29-.29-8.57-.75-12.84a40.4,40.4,0,0,0-.82-5.21A94.71,94.71,0,0,0,545,265.64Zm-44.68,7.09a40.37,40.37,0,0,1,5.49-3.76,41.06,41.06,0,0,0,5.84-4.13,32.18,32.18,0,0,0,5-5.64,17,17,0,0,0,2.11-3.58c.39-1,.78-2,1.12-3.07a8.46,8.46,0,0,1,.82,1.65l-.61-.36a.51.51,0,0,0-.76.43c.25,4.47.44,9,.4,13.45a22.26,22.26,0,0,1-2.8,11.59,17.15,17.15,0,0,1-3.63,4.24c-1.45-.76-2.41-2.4-3.46-3.58a13.77,13.77,0,0,0-4.2-3.18,11,11,0,0,0-8.25-.79A13.27,13.27,0,0,1,500.33,272.73ZM473.89,272a74.67,74.67,0,0,0,7.6,5,24.77,24.77,0,0,0-4.15,1.91,63.47,63.47,0,0,0-8.6,5.75c-2.66-7.33-3.8-15.1-4.49-22.84-.08-.92-.15-1.85-.22-2.77A30.64,30.64,0,0,0,473.89,272Zm-11.12-16.27c.6,7.82,1.23,15.7,3.15,23.33a63.4,63.4,0,0,0,2.06,6.62.53.53,0,0,0,.87.23,62.21,62.21,0,0,1,8.53-5.76A17.52,17.52,0,0,1,483,278l.26.15a21.81,21.81,0,0,0,4.86,2.17,12.59,12.59,0,0,0,5.76.15,35.23,35.23,0,0,1,6-1,8.58,8.58,0,0,1,4.3.85,17,17,0,0,0-3.43,4.69,17.55,17.55,0,0,0-1.18,3.15,8.08,8.08,0,0,1-.43,1.55,2,2,0,0,1-1.46,1c-1.3.35-2.63.63-3.94.94s-2.63.7-3.85.05c-.13-.07-.26-.17-.39-.25-.07-.35-.12-.71-.18-1-.56-3.16-.62-6.74-2.84-9.28-1.69-1.93-4.57-3.19-7-1.75a.55.55,0,0,0-.19.74,42.54,42.54,0,0,0,4.26,6.74q1.17,1.51,2.46,2.91a20.76,20.76,0,0,0,2.53,2.43,2.54,2.54,0,0,0,1.32,1.93,6.2,6.2,0,0,0,1.92.22c.85.06,1.7.14,2.55.16h2.42c.64,0,1.47-.13,2,.3a3.92,3.92,0,0,1,.89,1.56c.31.72.58,1.46.86,2.19,2.18,5.87,2.71,12.12,3.11,18.32.43,6.75.8,13.51,1.17,20.26.21,3.82.4,7.64.54,11.46s.35,7.65.33,11.46a.5.5,0,0,0,1,0c0-3.58.1-7.14,0-10.72s-.25-7-.42-10.46c-.34-7-.75-14.06-1.1-21.1-.32-6.4-.74-12.91-2.58-19.08a19.65,19.65,0,0,0-1.73-4.4,3.74,3.74,0,0,0-3.79-1.72c-1.16.07-2.3.18-3.45.31,1-.21,2.06-.45,3.09-.67s2.5-.4,3.29-1.37.85-2.27,1.24-3.36a15.92,15.92,0,0,1,4.71-6.7.77.77,0,0,0,0-1.09,7.51,7.51,0,0,0-4.23-2.05,14.35,14.35,0,0,0-3.76.07,10.27,10.27,0,0,1,7.68,1.24,13.68,13.68,0,0,1,3.73,3.3,8.49,8.49,0,0,0,4,3.22.87.87,0,0,0,.84-.22,21.64,21.64,0,0,0,5.9-9.58c1.23-4.28.92-8.89.77-13.28q-.12-3.57-.35-7.14l.74.44c0,.18.1.37.14.55a46.68,46.68,0,0,1,.73,5c.42,3.74.66,7.5.75,11.26a169.49,169.49,0,0,1-1.06,22.3q-.33,2.94-.72,5.86a7.44,7.44,0,0,0-.74.28c-3.33,1.51-4,5.9-2.58,9a6.77,6.77,0,0,0,1.57,2.12c-1.55,9-3.43,17.91-5.4,26.8-1.66,7.53-3.57,15.13-7.52,21.84a.25.25,0,0,0,0,.18l-26.72.59q-13.41.3-26.84.58c-7.76.15-15.52.21-23.28.38h0c3.69-2.15,6.53-5.65,8.91-9.13a71.39,71.39,0,0,0,4.11-6.88c1.26-2.38,2.31-4.83,3.37-7.3,2.11-4.93,4.05-9.94,6.12-14.88q1-2.3,2-4.56a224.06,224.06,0,0,0,18.42,25.85c2.41,3,4.85,6,7.29,9,1.21,1.49,2.35,3.06,3.67,4.46a6.42,6.42,0,0,0,4.05,2.25.49.49,0,0,0,.48-.36,83.73,83.73,0,0,0,2.07-13.95c.17-1,.32-2,.45-3a95.06,95.06,0,0,0,.76-12.51c0-4.18-.17-8.37-.4-12.54-.22-4-.57-8-.59-12,0-3.71.47-7.84,3.45-10.42a.44.44,0,0,0-.19-.72,4,4,0,0,0-4.46,1.38c-1.28,1.57-1.63,3.68-1.92,5.62a60.39,60.39,0,0,0-.25,13.9c.77,9.39,2.65,18.66,2.33,28.12,0,1.17-.12,2.34-.21,3.5,0,.19-.06.37-.1.56a40.54,40.54,0,0,1-1.82,6.51,4.1,4.1,0,0,1-2.07-2.34c-.63-1.36-1.09-2.82-1.62-4.22q-1.74-4.57-3.28-9.23c-2-6.15-3.82-12.35-5.47-18.61-3.4-12.93-6.45-25.95-9.66-38.92a109.7,109.7,0,0,1-3.58-22.26.49.49,0,0,0-.51-.46l-.5-.88C461.15,257.5,462,256.64,462.77,255.77Zm28.39,37.36a1.68,1.68,0,0,1-1-.14A5.94,5.94,0,0,0,491.16,293.13Zm-3-2.77c-.36-.35-.7-.72-1-1.07-.85-.88-1.66-1.8-2.43-2.75a40.73,40.73,0,0,1-4.27-6.53c2-.85,4.34.56,5.57,2.23C487.7,284.53,487.74,287.64,488.17,290.36Zm-43.48-20.19A68.52,68.52,0,0,0,459.6,259c.18.33.36.66.55,1a34,34,0,0,1-5.74,8.62,22.61,22.61,0,0,1-8.2,5A32.27,32.27,0,0,1,444.69,270.17ZM418.51,326.5c-.95-12.05-4-23.81-7.33-35.39a24.46,24.46,0,0,0-2.8-6.67c8.4-1.61,16.66-3.83,24.92-6,3.82-1,7.69-1.94,11.44-3.19l1.07-.37c1.51,2.67,3.58,5,6.51,5.85a70.08,70.08,0,0,0-6.76,6.7,12.24,12.24,0,0,0-2.7,3.63c-.54,1.55.17,3.33.6,4.83a96.61,96.61,0,0,0,7.07,17.63c.42.82.87,1.61,1.31,2.42-3,5.43-5.72,11-8.4,16.61-2.32,4.85-4.4,9.83-7.05,14.53-1.32,2.34-2.84,4.52-4.35,6.74s-3,4.41-5.4,5.63c-2,1-4.88,1.2-6.55-.62a6.93,6.93,0,0,1-1.46-3.44c-.27-1.4-.41-2.82-.6-4.23-.21-1.58-.43-3.17-.64-4.75.16-.89.32-1.78.45-2.68.41-2.79.66-5.61.83-8.43A59.55,59.55,0,0,0,418.51,326.5Zm-39.58,33.58a34.24,34.24,0,0,1,.84-3.9c1.39-5,3.77-9.69,6-14.38,1.12-2.36,2.21-4.73,3.14-7.17a77.43,77.43,0,0,0,2.51-8.19c1.5-5.74,3-11.47,4.72-17.14s3.61-11.29,5.51-16.9a23.27,23.27,0,0,1,1.41-3.93,1.56,1.56,0,0,1,1.17-.93c.89-.08.85.85.88,1.49a45.79,45.79,0,0,0,1.16,8.32c1.29,5.64,3.3,11.09,4.72,16.7s2.46,11.48,3.36,17.28c.71,4.59,1.33,9.2,1.94,13.8a58.6,58.6,0,0,1-1.46,6.94c-.37,1.33-.78,2.64-1.24,3.93a8.87,8.87,0,0,1-1.77,3.42c-1.8,1.84-4.78,2.27-7.22,2.5-5.54.53-11.08-.44-16.62-.34a32.23,32.23,0,0,0-4.16.32c-1.23.18-2.44.62-3.68.72-.49,0-1.14,0-1.34-.53A4.59,4.59,0,0,1,378.93,360.08Zm16.89,2.69-13.7.41C386.66,362.25,391.23,362.51,395.82,362.77Zm170.29,75.31-22.73,0q-22.73,0-45.45,0H407.49q-12.75,0-25.51,0c-8.38,0-16.78-.08-25.16.2A46.25,46.25,0,0,0,357,433v-6c0-4,0-8,0-12v-30.7c0-1.91,0-3.83-.07-5.74,29.38.2,58.78-.48,88.15-1.1,29.22-.61,58.43-1.34,87.65-1.77,16.29-.24,32.62,0,48.89-.79-.61,10.68-.24,21.45-.24,32.14v31.1C576.26,438.06,571.19,438.08,566.11,438.08ZM583.32,446v-6.25c1.58,0,3.16-.08,4.73-.14v2.12c0,1,0,2,0,3s0,2,0,3c0,.52,0,1.05.07,1.57,0,.2.05.41.09.61-1.65-.05-3.3-.1-5-.13C583.32,448.54,583.32,447.28,583.32,446Zm-46,5.57c8.63,0,17.27-.16,25.9-.25,6-.06,12.09-.06,18.13-.15v25.11a46.17,46.17,0,0,0-4.85.08c-1.67.08-3.33.1-5,.09a1.44,1.44,0,0,0-1.51.81,2.24,2.24,0,0,0-.07.93c0,.5,0,1,0,1.49l0,5.6c0,3.27,0,6.54,0,9.81-13.52-.48-27.05-.7-40.57-1.26-7.22-.3-14.47-.61-21.67-1.33-1.56-.15-3.12-.33-4.67-.52-.4-.05-.8-.11-1.19-.18a5.84,5.84,0,0,0,.78-1.05,11.52,11.52,0,0,0,1.11-5.49c.27-10.55.3-21.11.43-31.66a.48.48,0,0,0-.46-.46c-3.91-.39-6.8,3-7.77,6.48a28.88,28.88,0,0,0-.76,6.68c-.1,2.52-.19,5-.29,7.55s-.19,5-.29,7.55c-.08,2-.3,4,.41,5.88a8.21,8.21,0,0,0,5,4.9l-.07.05c-2.94,1.85-6.9,1.57-10.23,1.64q-27.32.63-54.63,1.22-15.19.31-30.4.6c-1.52-5.75-.49-11.62,1.33-17.19,1.94-5.92,4.69-11.53,6.48-17.51a45.76,45.76,0,0,0,1.78-8.66l31.31-.18Q491.4,451.9,537.31,451.6Zm32.51,68.22a64.71,64.71,0,0,0-8.47-.32H417.27l0-.12c.39-1.63.82-3.25,1.26-4.86a.38.38,0,0,0,0-.3l.44,0a.28.28,0,0,0,0-.56c-2.36-.19-4.74-.38-7.11-.39h-26c0-1.55-.05-3.11-.07-4.66,0-1.9,0-3.8-.05-5.69q0-1.42,0-2.85c0-.74-.1-1.46-.18-2.18a.65.65,0,0,0,.29.06q36.87.18,73.74,0t73.87-.75c12.13-.18,24.26-.45,36.39-.65l0,11.1c0,2,0,4.07,0,6.1S569.72,517.79,569.82,519.82Zm-67.29-32.21a6.42,6.42,0,0,1-1.83,4,7.31,7.31,0,0,1-2.4-1.13,7.58,7.58,0,0,1-2.83-4.25c-.51-2.05-.12-4.37,0-6.46.21-5.28.29-10.58.64-15.85A13.54,13.54,0,0,1,498,457a6.31,6.31,0,0,1,5.12-2.88c-.16,9.06-.35,18.12-.46,27.18A60.93,60.93,0,0,1,502.53,487.61Zm-.32,5.16c15.41,1.87,31,2.21,46.5,2.66l5.72.16c-17.74.32-35.49.48-53.23.66q-36.93.38-73.87.39l-16.41,0q24.88-.63,49.77-1.2l27.91-.61c3.51-.08,7.42.22,10.71-1.23a7.57,7.57,0,0,0,1.68-1A10.06,10.06,0,0,0,502.21,492.77ZM379.06,690.52c-.6,0-1.19.05-1.78.11a9.15,9.15,0,0,0-1,.15,3.06,3.06,0,0,0-.43.13s0,0,0,0c.42-7.79.2-15.64.23-23.44s.06-15.63.08-23.44q.06-23.21,0-46.41V478c0-8.46.29-17-.18-25.42h.27q11.53,0,23.07-.08l13.67-.08c-.67,5.79-2.84,11.27-4.95,16.67-2.19,5.61-4.44,11.44-5.13,17.46a25.11,25.11,0,0,0,.76,9.91.51.51,0,0,0,.12.2l-18-.06a.62.62,0,0,0-.58.35.13.13,0,0,0-.16.12,25.91,25.91,0,0,0-.36,2.77q-.06,1.43-.09,2.85c0,1.94-.06,3.88-.06,5.82,0,1.59,0,3.17,0,4.76a6.39,6.39,0,0,0-1.08.08.67.67,0,0,0-1.33,0c-.28,2.94-.2,5.91-.23,8.86s0,5.67-.06,8.51c0,5.79,0,11.58,0,17.37V651.89q0,9.75,0,19.49V681a79.49,79.49,0,0,0,.29,9.64,11,11,0,0,0-1.27-.08C380.3,690.48,379.68,690.5,379.06,690.52Zm26.67-171H395.5a80.38,80.38,0,0,0-9.57.25,10.79,10.79,0,0,0,.06-1.15c0-.5,0-1,0-1.49,0-.84,0-1.69-.05-2.53h24.94c2.34,0,4.68-.13,7-.31,0,0,0,0,0,.05-.49,1.72-.94,3.44-1.37,5.17Zm78.81,128.14a22.58,22.58,0,0,1,4.1-.24,3.6,3.6,0,0,1,2.38.92,21.16,21.16,0,0,0-5.29,1.55A3.67,3.67,0,0,0,484.54,647.64Zm60.39-5.18a28.63,28.63,0,0,0-7.89-.54c-2.78.2-5.52.72-8.26,1.19-4.65.8-9.5,1.41-14.08-.1a13.31,13.31,0,0,1-5.46-3.29,9.78,9.78,0,0,1-.83-1c.31-2.09.68-4.17,1-6.25.38-2.79.79-5.57,1.12-8.37a149.94,149.94,0,0,0,1.42-16.66,98.82,98.82,0,0,0-1.71-16.54,165.29,165.29,0,0,1-2-16.9c-.39-6.36-.45-12.76-.44-19.13,0-.64-.82-.66-1-.14-4.09,9.79-4.34,20.51-3.63,30.95.74,10.74,2.41,21.45,2.1,32.24-.13,4.72-.86,9.48-.32,14.2a19.71,19.71,0,0,0,1.74,6.2c.14.3.32.58.48.86l-.12,1.18-11.7-1.93c-3.11-2.18-6.56-3.83-9.84-5.74a76.91,76.91,0,0,1-11.55-8.35c-7.14-6.19-13.29-13.42-19.2-20.76s-12-14.89-17.31-22.85-9.69-16.32-11.93-25.53c-.28-1.16-.53-2.33-.74-3.5-.09-.49-.77-.32-.81.11-1.59,17.56,4.94,34.83,14.88,49.06a137.94,137.94,0,0,0,16.76,19.44c6.13,6,12.58,12.1,20.75,15.14a77.89,77.89,0,0,0,14.7,3.43l4.09.68c.35.26.71.51,1,.78,1.69,1.35,5.13,4,3.87,6.55a5.65,5.65,0,0,1-2.75,2.18,16.75,16.75,0,0,1-3.83,1.28,17.35,17.35,0,0,1-6.62.08,18.07,18.07,0,0,1,5.18-1,.61.61,0,0,0,.58-.76c-.7-2.28-3.34-2.66-5.41-2.58-3.51.14-7,.52-10.53.8s-7.11.46-10.66.77l-10.66.93c-3.61.31-7.22.56-10.82,1-1.77.19-3.55.36-5.33.53a41.34,41.34,0,0,1-4.84.38,5.76,5.76,0,0,1-3.92-1.28,6.13,6.13,0,0,1-1.64-3c-.65-2.51-.35-5.14-.28-7.7.35-13.33-3.77-26.42-7.38-39.1-1.83-6.43-3.67-12.88-5-19.44a130.38,130.38,0,0,1-2.62-20.17,143.83,143.83,0,0,1,3.36-38.25H560.27a67,67,0,0,0,10-.37.66.66,0,0,0,.37-1,.14.14,0,0,0,0-.07c.26-3.55.14-7.15.18-10.71s.08-7,.13-10.46l0-2.41,3.3-.06c-.06,24.93.12,49.86.24,74.79s.26,50,.37,74.94c0,.71,0,1.43,0,2.14C564.65,652.15,554.71,644.5,544.93,642.46Zm-40.52-53.29c-.85-10.18-1.17-20.69,2-30.54.09-.29.2-.57.3-.86,0,10.32,0,20.62,1.35,30.87.73,5.51,1.71,11,1.88,16.57A112.63,112.63,0,0,1,508.8,622c-.37,3.14-.69,6.28-1,9.42-.18,1.81-.32,3.63-.46,5.44a13.34,13.34,0,0,1-1-2.9c-.95-4.37-.4-8.94-.15-13.36C506.81,610.1,505.28,599.63,504.41,589.17Zm-79.87-34.35c4,16.88,15,31,25.56,44.41,5.72,7.23,11.46,14.48,18,21a96.55,96.55,0,0,0,10,8.75,98.63,98.63,0,0,0,11.58,7.21c1.05.58,2.1,1.18,3.12,1.81a121,121,0,0,1-12.55-2.48,38.68,38.68,0,0,1-11.84-5.47,85.32,85.32,0,0,1-10-8.42C446.05,610,434.84,596.5,428.86,580.4A66.53,66.53,0,0,1,424.54,554.82ZM576,648.62a.48.48,0,0,0,0-.12q0-17.54-.05-35.06,0-37.47-.18-74.94c0-14.24-.06-28.48-.19-42.71a.64.64,0,0,0-.63-.63l-2.67.06-1.25,0q0-3.49.08-7c0-1.74,0-3.49,0-5.23,0-.83,0-1.66,0-2.49,0-.42,0-.83,0-1.25,0-.25,0-.5,0-.75s.09-.45,0-.48a3.42,3.42,0,0,1,1,.08q.68,0,1.35.06c.92,0,1.84,0,2.76,0,1.7,0,3.39-.06,5.08,0V649.2c0,10.69-.38,21.45.09,32.13.11,2.58.17,5.15.34,7.73h0l0,0h-.12c-1.21-.24-2.41-.46-3.63-.62-.66-.09-1.32-.15-2-.19Q576,668.39,576,648.62Zm79.32-228.29A138.88,138.88,0,0,0,672,396.13c4.81-8.89,8.2-18.34,12-27.69,4.23-10.45,9.21-20.73,18-28.05a165.23,165.23,0,0,0,7.84,54c.93,2.9,2.2,5.74,3,8.67s.45,4.55-1.39,6.67a47.87,47.87,0,0,1-3.73,3.53,280.54,280.54,0,0,1-28.94,23.43c-10,7-20.37,13.89-31.68,18.52l-.9.35q-17.61-.21-35.21.38C627.58,446.56,642.85,434.8,655.29,420.33Zm-60.41,38.85c0-.07,0-.13,0-.2a.5.5,0,0,0,0-.13c.59-.71,2.29-1,3-1.09a11.94,11.94,0,0,1,4.12-.28,29.63,29.63,0,0,0,4,.24l2.22,0c.33,0,.66,0,1,0a3.21,3.21,0,0,0,.86-.27q16.15-.56,32.31-.44a57.34,57.34,0,0,1-13.62,2.9,86.79,86.79,0,0,1-13.58-.48C609,459,600.59,458,595,461.55,594.93,460.76,594.91,460,594.88,459.18Zm181.7,23.23q.34,9.24.67,18.47.59,17.08,1.11,34.16.5,15.9,1,31.8.52,15.52,1.18,31c.46,10.64,1,21.27,1.65,31.9.08,1.28.18,2.54.33,3.81-2.08.66-4.17,1.28-6.27,1.78,0-2.33-.19-4.66-.32-7s-.27-4.74-.4-7.11q-.36-6.28-.74-12.58-.62-10.14-1.21-20.3-.54-9.3-1-18.6-.58-11.26-1.08-22.53c-.49-10.69-.87-21.39-1.41-32.08-.07-1.48-.2-2.95-.36-4.42a.64.64,0,0,0-.31-1.18c-11.43-.27-22.88-.11-34.32-.11h-34q-34.14,0-68.29.07-9.63,0-19.26.09l-9.46.05c-3.22,0-6.45,0-9.65.29.07-.36.13-.73.21-1.09a20.92,20.92,0,0,0,.22-3.89c.07-4,.05-8.07.05-12.11q0-7.22,0-14.42,0-6.33,0-12.67c0-1.05,0-2.1,0-3.15A11.15,11.15,0,0,1,598.2,461c4.18-1.34,8.8-1.23,13.14-1,4.1.21,8.18.75,12.28.87a54,54,0,0,0,17-2.44c1.42-.43,2.81-.9,4.2-1.41,31.73.27,63.45,2.11,95.13,4q18,1.1,36,2C776,469.55,776.34,476,776.58,482.41Zm22.23-292.57c2.49-6.41,5.15-12.75,8.05-19q2.16-4.62,4.5-9.15c.7-1.34,1.33-3,2.49-4s2.93-1,4.42-1.08c7.25-.25,14.51-.4,21.76-.72a10.38,10.38,0,0,0-5.17,5.94c-.58,1.54-1,3.15-1.45,4.74s-1,3.36-1.45,5q-6,20.75-12,41.48-1.49,5.16-3,10.31c-.39,1.36-.64,3-1.54,4.19s-2.74,1-4.13,1c-7.19-.13-14.38-.17-21.57-.38l-4.49-.14C789.74,215.3,793.92,202.45,798.81,189.84Zm29,18.22c-2.46,8.75-4.9,17.51-7.39,26.25a5.15,5.15,0,0,1-1.2,2.44,4.12,4.12,0,0,1-2.78.75c-2.27.05-4.54.05-6.8.07-4.57.06-9.14.14-13.71.18q-13.71.15-27.42,0l-3.1,0c-2.46-15-5.11-30-7.56-45Q754.41,172,751,151.25c2.54-.25,5.06-.89,7.62-.87a6.16,6.16,0,0,1,3.3.87,6.63,6.63,0,0,1,2.16,2.48,26.86,26.86,0,0,1,2.36,6.76c.61,2.49,1.13,5,1.77,7.48q5,19.49,10,39c1.89,7.34,3.68,14.71,5.66,22a.75.75,0,0,0,.71.54c7.11,0,14.21.13,21.32.24l5.36.08a9.05,9.05,0,0,0,4.23-.49,4.91,4.91,0,0,0,2.2-3c.56-1.62,1-3.3,1.46-4.95q5.89-20.37,11.75-40.76l3-10.31c.48-1.68,1-3.36,1.45-5a28.68,28.68,0,0,1,1.46-4.24,9.25,9.25,0,0,1,5.52-4.86c-2.22,8.51-4.73,17-7.11,25.43Q831.47,194.87,827.76,208.06ZM952,272.79q0-6.77-.1-13.54c0-3.35,0-6.71-.17-10.06-.07-1.85-.11-3.66-.29-5.45v0q11.63-.5,23.23-1.15l9.2-.53c2.82-.17,5.66-.27,8.46-.63-.48,7.7-.31,15.43-.31,23.15v95.5c0,.66,0,1.31.06,2a21.9,21.9,0,0,0-5.24-.39,67.8,67.8,0,0,0-10.4,1.55q-8.16,0-16.32-.12l-3.55-.09h0c-1.68-.38-3.38-.8-5.08-1.21,0-.87,0-1.74.07-2.59.09-3,.14-6,.19-9.05.07-4.27.11-8.54.15-12.82q.06-7.65.1-15.3,0-8.31.06-16.63t0-16.84C952.06,283.27,952,278,952,272.79Zm12.43,91.51c-.86-.06-1.72-.18-2.57-.31q4.78.06,9.57.05A34.19,34.19,0,0,1,964.41,364.3Zm21-1.26c-1.31,0-2.62,0-3.94.06.61-.11,1.21-.22,1.82-.31a26.64,26.64,0,0,1,7.46-.21c.48.06.95.17,1.42.27v0C989.87,362.88,987.61,363,985.36,363Zm54.94-73.5a5,5,0,0,1,2.14-.07,5.86,5.86,0,0,1,2.21,1.25c1.72,1.3,3.67,1.27,5.7.93a13.56,13.56,0,0,1,3.18-.3,7.41,7.41,0,0,1,3.08.93c1.57.86,2.89,2.17,4.61,2.73a4.63,4.63,0,0,0,4.29-.84c1.21-.9,2.21-2.17,3.6-2.81a4.92,4.92,0,0,1,2.82-.17,10.4,10.4,0,0,0,3-.16,4.09,4.09,0,0,1,3.15.47,3.86,3.86,0,0,0,2.29.82c1.62-.09,2.79-1.51,3.9-2.52a9.59,9.59,0,0,1,5.3-2.18,14.24,14.24,0,0,1,5.44-.16,4.23,4.23,0,0,1,2.21,1.27,24.16,24.16,0,0,0,1.57,2,3.15,3.15,0,0,0,2.06.83,2.91,2.91,0,0,1,1.1.16c.45.23.3.78.24,1.19a2,2,0,0,0,.53,2,10,10,0,0,0,2.66,1.22,14.63,14.63,0,0,0,6.24,1.31,7.46,7.46,0,0,0,3-.8c1-.52,2-.92,3-.16a31.4,31.4,0,0,1,2.54,2.36l2.57,2.42a12.23,12.23,0,0,1,2.31,2.35,4.86,4.86,0,0,1,.26,2.83,3.8,3.8,0,0,0,.31,2,66,66,0,0,0-7.82,4.09,25.78,25.78,0,0,0-3.5,2.35,2.44,2.44,0,0,0-.87,1.58l-2.34-.62a.4.4,0,0,0-.47.27c-.87,2.88-4.4,3-6.88,3.42a14.94,14.94,0,0,0-4.1,1.07,6.28,6.28,0,0,0-1.62,1.08c-.57.52-.93,1.2-1.44,1.76a3.91,3.91,0,0,1-2,1c-.83.24-1.65.49-2.46.8a36.19,36.19,0,0,0-4.48,2,34.16,34.16,0,0,0-4.28,2.74c-1.33,1-2.59,2.49-4.26,2.86a13.38,13.38,0,0,0-2.42.6,6.84,6.84,0,0,0-1.89,1.21,6.77,6.77,0,0,0-2.14,3.88.45.45,0,0,0,.32.56,12.71,12.71,0,0,0,8.5-1.64c.57-.35,1.18-.8,1.88-.55a5,5,0,0,1,1.48,1.12,3.67,3.67,0,0,0,3.1,1c2.77-.44,4.13-3.06,5.78-5a7.22,7.22,0,0,1,3.06-2.26c1.12-.38,2.31-.53,3.46-.8a7.06,7.06,0,0,0,3.06-1.39c1-.88,1.24-2.27,2.16-3.2a5.79,5.79,0,0,1,1.74-1l2.41-1.08c.77-.35,1.54-.7,2.31-1.07s1.64-1,2.32-.43a7.41,7.41,0,0,0,1.36,1.14,13.38,13.38,0,0,0,1.92.7,7.64,7.64,0,0,1,3.23,2.33c2.09,2.45,2.78,5.77,3.64,8.78,1.8,6.31,4.41,13.76,1.24,20.05a6.26,6.26,0,0,0-3.55-.44,6.72,6.72,0,0,1-2.29.42,6.59,6.59,0,0,1-2-1.18,10.09,10.09,0,0,0-3.89-1.38,21.39,21.39,0,0,0-4.08-.11c-1.47.09-3,.24-4.41.45a41.92,41.92,0,0,1-4.47.53,57.21,57.21,0,0,1-9.68-.87,43.72,43.72,0,0,0-9.69-.63,88,88,0,0,0-9.4,1.64,28.77,28.77,0,0,1-9.88.29,90.14,90.14,0,0,1-9.41-2.28,41.6,41.6,0,0,0-5.27-1.25,11.22,11.22,0,0,0-5.13.65c-1.71.56-3.36,1.18-5.12,1.58a28.07,28.07,0,0,1-5.63.7c0-.81,0-1.62,0-2.43q0-6.09,0-12.18v-48C1034.65,292.08,1037.49,290.15,1040.3,289.54Z"/><path d="M821.57,696.9c-7.8-.06-15.06,2.78-22.26,5.45a86.21,86.21,0,0,1-12.17,3.8,46.15,46.15,0,0,1-12.9.76c-8.5-.63-16.75-3-25.11-4.48-8-1.44-16.14-2-24.06.06-4.23,1.12-8.32,2.71-12.52,3.92a38.88,38.88,0,0,1-13.35,1.51c-8.86-.57-17.39-3.51-26.25-4.07-7.94-.5-15.85.64-23.61,2.24-15.59,3.22-31.66,8.94-47.76,6.17a54.8,54.8,0,0,1-5.8-1.35c-.31-.09-.44.38-.13.49,15.05,5,31.19.59,46.08-2.8,8-1.82,16-3.61,24.2-4a61.18,61.18,0,0,1,12.54.75c4.38.73,8.69,1.81,13.06,2.62a51.23,51.23,0,0,0,12.78,1,47,47,0,0,0,12.25-2.88,87.34,87.34,0,0,1,12.51-3.86,45,45,0,0,1,12.53-.42c8.41.79,16.58,3.12,24.89,4.54,8.12,1.38,16.15,1.6,24.14-.64s15.52-6.17,23.71-7.76c6.76-1.3,14.42-1,20.35,2.85a17.21,17.21,0,0,1,3.93,3.49c.09.1.22,0,.15-.14C834.63,698.93,828.06,697,821.57,696.9Z"/><path d="M449.42,709.3c-8,1.07-15.7,3.52-23.69,4.49a45.23,45.23,0,0,1-23.25-3.45c-7.05-2.91-13.8-6.28-21.09-8.59a88.29,88.29,0,0,0-21.77-4.14A94,94,0,0,0,337.47,699c-7.61,1.38-14.88,3.94-22.14,6.54s-14.94,4.86-22.81,4.25c-7.09-.54-13.83-3.1-20.3-5.87-11.68-5-23.53-11.08-36.62-9.26-13.48,1.87-25,10.15-38.35,12.57-14.61,2.65-27.18-5.26-40.76-9a39.61,39.61,0,0,0-19.52-.78c-6.9,1.56-13.3,4.76-19.59,7.9-11.44,5.7-25,12.05-38,7.26a20.55,20.55,0,0,1-7.77-5.15c-.31-.32-.79.16-.49.49,8.06,8.72,21.23,8,31.65,4.66,13.59-4.36,25.34-14.29,40-15.28,14.34-1,26.76,7.85,40.42,10.56s25.59-3.32,37.91-8.16c6.28-2.47,12.85-4.58,19.67-4.56s13.57,2.17,19.9,4.75c12.28,5,24.38,12,38.11,10.83,7.36-.61,14.54-3,21.48-5.38A112.33,112.33,0,0,1,343,699.62,94.19,94.19,0,0,1,388.35,705c7,2.77,13.72,6.55,21,8.55s14.71,1.48,22.06.05c13.26-2.58,28-7.81,40.86-.81a20.22,20.22,0,0,1,7,6.22c.15.21.5,0,.35-.2C473,709.22,460.1,707.87,449.42,709.3Z"/><path d="M30.21,428.55a68,68,0,0,1,19.54,2.91c6.08,2,11.78,5.15,18.16,6.08,5.73.84,11.51-.09,17.07-1.55,5.91-1.56,11.66-3.69,17.6-5.16a52,52,0,0,1,18.6-1.2c12.59,1.44,25.09,6,37.83,3.2,6.38-1.41,12.37-4.22,18.8-5.45,5.26-1,11.21-.89,15.94,1.88a16.38,16.38,0,0,1,3.14,2.41.15.15,0,0,0,.21-.21c-3.42-3.82-8.73-5.13-13.69-5.09-6.11,0-11.86,2.19-17.61,4a53.46,53.46,0,0,1-9.9,2.37,47.47,47.47,0,0,1-9.46.11c-6.58-.55-13-2.13-19.49-3.25-6.2-1.07-12.46-1.69-18.72-.77-6,.89-11.87,2.89-17.69,4.69S78.76,437,72.63,437.07c-6.58.05-12.41-2.44-18.42-4.8a64.07,64.07,0,0,0-19-4.24,139.47,139.47,0,0,0-19.92.34c-1.67.12-3.34.26-5,.44-.37,0-.39.61,0,.59C16.93,429.06,23.54,428.42,30.21,428.55Z"/><path d="M84.76,455.08a55.85,55.85,0,0,0,12.77,2.62,46,46,0,0,0,13-1c3.89-.86,7.66-2.17,11.55-3,3.66-.79,7.6-1.2,11.19.14a13.6,13.6,0,0,1,2.58,1.31c.18.11.33-.16.16-.28-6.36-4.41-14.8-1.57-21.55.26a52,52,0,0,1-12.69,2,47,47,0,0,1-13.28-1.73c-4.17-1.14-8.23-2.65-12.42-3.72a45.85,45.85,0,0,0-11.72-1.4C56.5,450.37,48.76,452,41,453c-7.51,1-15.3,1.45-22.61-.92-.95-.31-1.89-.63-2.8-1-.23-.1-.44.23-.2.34,6.88,3.24,14.46,3.46,21.9,2.73,7.81-.77,15.52-2.46,23.36-2.95a50.38,50.38,0,0,1,11.64.47A96.43,96.43,0,0,1,84.76,455.08Z"/><path d="M318.6,636.63a.16.16,0,0,0,0-.31A.16.16,0,0,0,318.6,636.63Z"/><path d="M347.06,634.85a53.93,53.93,0,0,1,6.33,2.54c.13.06.25-.13.12-.2a51.53,51.53,0,0,0-24.9-5.46,48.28,48.28,0,0,0-12.85,2.14,69.9,69.9,0,0,0-11.91,5.36c-4.08,2.17-8.24,4.29-12.89,4.85a26,26,0,0,1-11.23-1.25c-7.65-2.51-14.3-7.31-21.61-10.57a40.15,40.15,0,0,0-22.18-3.2c-7.88,1.08-15.41,3.9-22.88,6.52s-15.27,5.52-23.27,6.73a43.48,43.48,0,0,1-12.58.18,66.76,66.76,0,0,1-13.46-3.62c-8.24-3-16.25-6.93-24.93-8.56-7.36-1.38-15.46-1.33-22.2,2.31a22.49,22.49,0,0,0-4.35,3.1c-.37.34.18.89.55.55,6-5.39,14.29-6.56,22.07-5.7,8.67,1,16.58,4.54,24.58,7.79,8.16,3.31,16.55,6.16,25.47,5.84,7.87-.29,15.47-2.67,22.83-5.31,7.52-2.7,14.75-6,22.55-7.91,7.64-1.85,15.57-2.26,23.11.28,14,4.7,27.37,18.56,43.14,13,4.11-1.45,7.82-3.74,11.67-5.75a51.91,51.91,0,0,1,12.54-4.62A49.29,49.29,0,0,1,347.06,634.85Z"/><path d="M1072.36,400.52c-8.35,3.73-16.41,8.74-25.54,10.31a26.89,26.89,0,0,1-12.91-.82,122.15,122.15,0,0,1-11.43-4.87c-3.41-1.5-7-2.91-10.76-3.05a15.74,15.74,0,0,0-10.44,3.7c-3.34,2.6-6.3,5.5-10,7.59a40.81,40.81,0,0,1-36,1.84c-4.08-1.79-8-4-12.33-5.15a33.53,33.53,0,0,0-10.57-.82c-7.41.5-14.59,2.63-21.83,4.13-6.74,1.4-14.12,2.57-20.72-.07a20.26,20.26,0,0,1-4.6-2.6c-.32-.23-.62.29-.31.53,11.78,8.93,27.57,2.19,40.39-.18a52,52,0,0,1,11.06-1,31.07,31.07,0,0,1,11.85,2.87c4,1.8,7.84,3.91,12.07,5.13a40.4,40.4,0,0,0,11.63,1.52,41.52,41.52,0,0,0,22.23-6.76c3.49-2.31,6.3-5.52,9.86-7.71a14.68,14.68,0,0,1,11.55-1.46c7.84,2,14.46,7.17,22.47,8.68,8.71,1.64,17.4-2.07,25.1-5.73,4-1.89,7.86-4,11.94-5.62a47.71,47.71,0,0,1,10-2.79c6.43-1,14.22-.71,19.32,3.85a16,16,0,0,1,3.05,3.76.24.24,0,0,0,.42-.25C1100.71,393.34,1083.25,395.65,1072.36,400.52Z"/><path d="M1005.19,457.16c-6.79-.44-13.44,1.14-19.91,3-7.55,2.2-15.19,4.78-23.15,4.87-7.46.09-14.38-2.6-21.32-5a46.23,46.23,0,0,0-9.9-2.44,28.35,28.35,0,0,0-10.37.89c-6.85,1.8-13.31,5.39-20.47,5.91-13.55,1-25.24-10-39-7.16-7,1.45-12.89,5.71-19.39,8.41-5.39,2.24-12.25,3.44-17.66.61a11.7,11.7,0,0,1-3.37-2.69c-.29-.33-.76.15-.48.48,3.76,4.39,9.78,5.16,15.2,4.28,6.63-1.07,12.29-4.81,18.29-7.58a30.5,30.5,0,0,1,10.5-3,29.53,29.53,0,0,1,10,1.25c6.51,1.82,12.65,4.94,19.35,6.06a27.11,27.11,0,0,0,9.59-.07,64.75,64.75,0,0,0,10.27-3.14,63.07,63.07,0,0,1,10-3,26.81,26.81,0,0,1,11,.33c6.93,1.6,13.25,5.13,20.19,6.66,7.52,1.66,15.23.27,22.54-1.72,7.05-1.92,14-4.37,21.2-5.55,6.51-1.06,13.33-1,19.32,2.07a21.5,21.5,0,0,1,4.06,2.69c.24.2.58-.14.34-.34C1017.27,458.82,1011.35,457.56,1005.19,457.16Z"/></g></g></g></svg>