<svg xmlns="http://www.w3.org/2000/svg" xmlns:xlink="http://www.w3.org/1999/xlink" width="500" zoomAndPan="magnify" viewBox="0 0 375 74.999997" height="100" preserveAspectRatio="xMidYMid meet" version="1.0"><defs><filter x="0%" y="0%" width="100%" height="100%" id="id1"><feColorMatrix values="0 0 0 0 1 0 0 0 0 1 0 0 0 0 1 0 0 0 1 0" color-interpolation-filters="sRGB"/></filter><g/><clipPath id="id2"><path d="M 203 34.054688 L 209.757812 34.054688 L 209.757812 53 L 203 53 Z M 203 34.054688 " clip-rule="nonzero"/></clipPath><clipPath id="id3"><path d="M 203 39 L 209.757812 39 L 209.757812 53 L 203 53 Z M 203 39 " clip-rule="nonzero"/></clipPath><clipPath id="id4"><path d="M 203 34.054688 L 209.757812 34.054688 L 209.757812 40 L 203 40 Z M 203 34.054688 " clip-rule="nonzero"/></clipPath><clipPath id="id5"><path d="M 178 34.054688 L 185 34.054688 L 185 53 L 178 53 Z M 178 34.054688 " clip-rule="nonzero"/></clipPath><clipPath id="id6"><path d="M 179 34.054688 L 185 34.054688 L 185 40 L 179 40 Z M 179 34.054688 " clip-rule="nonzero"/></clipPath><clipPath id="id7"><path d="M 165.507812 34.054688 L 172 34.054688 L 172 53 L 165.507812 53 Z M 165.507812 34.054688 " clip-rule="nonzero"/></clipPath><clipPath id="id8"><path d="M 165.507812 39 L 172 39 L 172 53 L 165.507812 53 Z M 165.507812 39 " clip-rule="nonzero"/></clipPath><clipPath id="id9"><path d="M 166 34.054688 L 172 34.054688 L 172 40 L 166 40 Z M 166 34.054688 " clip-rule="nonzero"/></clipPath><clipPath id="id10"><path d="M 190 34.054688 L 198 34.054688 L 198 53 L 190 53 Z M 190 34.054688 " clip-rule="nonzero"/></clipPath><clipPath id="id11"><path d="M 191 34.054688 L 197 34.054688 L 197 40 L 191 40 Z M 191 34.054688 " clip-rule="nonzero"/></clipPath><clipPath id="id12"><path d="M 203 34.054688 L 209.757812 34.054688 L 209.757812 53 L 203 53 Z M 203 34.054688 " clip-rule="nonzero"/></clipPath><mask id="id13"><g filter="url(#id1)"><rect x="-37.5" width="450" fill="#000000" y="-7.5" height="89.999996" fill-opacity="0.498"/></g></mask><clipPath id="id14"><path d="M 0.28125 0.0546875 L 6.757812 0.0546875 L 6.757812 18.800781 L 0.28125 18.800781 Z M 0.28125 0.0546875 " clip-rule="nonzero"/></clipPath><clipPath id="id15"><path d="M 0.28125 5 L 6.757812 5 L 6.757812 18.800781 L 0.28125 18.800781 Z M 0.28125 5 " clip-rule="nonzero"/></clipPath><clipPath id="id16"><path d="M 0.28125 0.0546875 L 6.757812 0.0546875 L 6.757812 6 L 0.28125 6 Z M 0.28125 0.0546875 " clip-rule="nonzero"/></clipPath><clipPath id="id17"><rect x="0" width="7" y="0" height="19"/></clipPath><clipPath id="id18"><path d="M 178 34.054688 L 186 34.054688 L 186 53 L 178 53 Z M 178 34.054688 " clip-rule="nonzero"/></clipPath><mask id="id19"><g filter="url(#id1)"><rect x="-37.5" width="450" fill="#000000" y="-7.5" height="89.999996" fill-opacity="0.498"/></g></mask><clipPath id="id20"><path d="M 0.320312 0.0546875 L 7 0.0546875 L 7 18.800781 L 0.320312 18.800781 Z M 0.320312 0.0546875 " clip-rule="nonzero"/></clipPath><clipPath id="id21"><path d="M 0.320312 5 L 7 5 L 7 18.800781 L 0.320312 18.800781 Z M 0.320312 5 " clip-rule="nonzero"/></clipPath><clipPath id="id22"><path d="M 1 0.0546875 L 7 0.0546875 L 7 6 L 1 6 Z M 1 0.0546875 " clip-rule="nonzero"/></clipPath><clipPath id="id23"><rect x="0" width="8" y="0" height="19"/></clipPath><clipPath id="id24"><path d="M 165.507812 34.054688 L 173 34.054688 L 173 53 L 165.507812 53 Z M 165.507812 34.054688 " clip-rule="nonzero"/></clipPath><mask id="id25"><g filter="url(#id1)"><rect x="-37.5" width="450" fill="#000000" y="-7.5" height="89.999996" fill-opacity="0.498"/></g></mask><clipPath id="id26"><path d="M 0.507812 0.0546875 L 7 0.0546875 L 7 18.800781 L 0.507812 18.800781 Z M 0.507812 0.0546875 " clip-rule="nonzero"/></clipPath><clipPath id="id27"><path d="M 0.507812 5 L 7 5 L 7 18.800781 L 0.507812 18.800781 Z M 0.507812 5 " clip-rule="nonzero"/></clipPath><clipPath id="id28"><path d="M 1 0.0546875 L 7 0.0546875 L 7 6 L 1 6 Z M 1 0.0546875 " clip-rule="nonzero"/></clipPath><clipPath id="id29"><rect x="0" width="8" y="0" height="19"/></clipPath><clipPath id="id30"><path d="M 190 34.054688 L 198 34.054688 L 198 53 L 190 53 Z M 190 34.054688 " clip-rule="nonzero"/></clipPath><mask id="id31"><g filter="url(#id1)"><rect x="-37.5" width="450" fill="#000000" y="-7.5" height="89.999996" fill-opacity="0.498"/></g></mask><clipPath id="id32"><path d="M 0.800781 0.0546875 L 7.519531 0.0546875 L 7.519531 18.800781 L 0.800781 18.800781 Z M 0.800781 0.0546875 " clip-rule="nonzero"/></clipPath><clipPath id="id33"><path d="M 0.800781 5 L 7.519531 5 L 7.519531 18.800781 L 0.800781 18.800781 Z M 0.800781 5 " clip-rule="nonzero"/></clipPath><clipPath id="id34"><path d="M 1 0.0546875 L 7 0.0546875 L 7 6 L 1 6 Z M 1 0.0546875 " clip-rule="nonzero"/></clipPath><clipPath id="id35"><rect x="0" width="8" y="0" height="19"/></clipPath><mask id="id36"><g filter="url(#id1)"><rect x="-37.5" width="450" fill="#000000" y="-7.5" height="89.999996" fill-opacity="0.298"/></g></mask><clipPath id="id37"><path d="M 0.480469 0.398438 L 7.921875 0.398438 L 7.921875 21.519531 L 0.480469 21.519531 Z M 0.480469 0.398438 " clip-rule="nonzero"/></clipPath><clipPath id="id38"><path d="M 0.480469 6 L 7.921875 6 L 7.921875 21.519531 L 0.480469 21.519531 Z M 0.480469 6 " clip-rule="nonzero"/></clipPath><clipPath id="id39"><path d="M 1 0.398438 L 7.921875 0.398438 L 7.921875 7 L 1 7 Z M 1 0.398438 " clip-rule="nonzero"/></clipPath><clipPath id="id40"><rect x="0" width="8" y="0" height="22"/></clipPath><mask id="id41"><g filter="url(#id1)"><rect x="-37.5" width="450" fill="#000000" y="-7.5" height="89.999996" fill-opacity="0.298"/></g></mask><clipPath id="id42"><path d="M 0.320312 0.398438 L 7.761719 0.398438 L 7.761719 21.519531 L 0.320312 21.519531 Z M 0.320312 0.398438 " clip-rule="nonzero"/></clipPath><clipPath id="id43"><path d="M 0.320312 6 L 7.761719 6 L 7.761719 21.519531 L 0.320312 21.519531 Z M 0.320312 6 " clip-rule="nonzero"/></clipPath><clipPath id="id44"><path d="M 0.320312 0.398438 L 7 0.398438 L 7 7 L 0.320312 7 Z M 0.320312 0.398438 " clip-rule="nonzero"/></clipPath><clipPath id="id45"><rect x="0" width="8" y="0" height="22"/></clipPath><mask id="id46"><g filter="url(#id1)"><rect x="-37.5" width="450" fill="#000000" y="-7.5" height="89.999996" fill-opacity="0.298"/></g></mask><clipPath id="id47"><path d="M 0.640625 0.398438 L 8 0.398438 L 8 21.519531 L 0.640625 21.519531 Z M 0.640625 0.398438 " clip-rule="nonzero"/></clipPath><clipPath id="id48"><path d="M 0.640625 6 L 8 6 L 8 21.519531 L 0.640625 21.519531 Z M 0.640625 6 " clip-rule="nonzero"/></clipPath><clipPath id="id49"><path d="M 1 0.398438 L 8 0.398438 L 8 7 L 1 7 Z M 1 0.398438 " clip-rule="nonzero"/></clipPath><clipPath id="id50"><rect x="0" width="9" y="0" height="22"/></clipPath><mask id="id51"><g filter="url(#id1)"><rect x="-37.5" width="450" fill="#000000" y="-7.5" height="89.999996" fill-opacity="0.098"/></g></mask><clipPath id="id52"><path d="M 0.519531 0.71875 L 8.921875 0.71875 L 8.921875 24.238281 L 0.519531 24.238281 Z M 0.519531 0.71875 " clip-rule="nonzero"/></clipPath><clipPath id="id53"><path d="M 0.519531 8 L 8.921875 8 L 8.921875 24.238281 L 0.519531 24.238281 Z M 0.519531 8 " clip-rule="nonzero"/></clipPath><clipPath id="id54"><path d="M 1 0.71875 L 8 0.71875 L 8 8 L 1 8 Z M 1 0.71875 " clip-rule="nonzero"/></clipPath><clipPath id="id55"><rect x="0" width="9" y="0" height="25"/></clipPath><mask id="id56"><g filter="url(#id1)"><rect x="-37.5" width="450" fill="#000000" y="-7.5" height="89.999996" fill-opacity="0.098"/></g></mask><clipPath id="id57"><path d="M 0.160156 0.71875 L 8.558594 0.71875 L 8.558594 24.238281 L 0.160156 24.238281 Z M 0.160156 0.71875 " clip-rule="nonzero"/></clipPath><clipPath id="id58"><path d="M 0.160156 8 L 8.558594 8 L 8.558594 24.238281 L 0.160156 24.238281 Z M 0.160156 8 " clip-rule="nonzero"/></clipPath><clipPath id="id59"><path d="M 0.160156 0.71875 L 8 0.71875 L 8 8 L 0.160156 8 Z M 0.160156 0.71875 " clip-rule="nonzero"/></clipPath><clipPath id="id60"><rect x="0" width="9" y="0" height="25"/></clipPath><clipPath id="id61"><path d="M 183 45 L 193 45 L 193 71.554688 L 183 71.554688 Z M 183 45 " clip-rule="nonzero"/></clipPath><clipPath id="id62"><path d="M 183 53 L 193 53 L 193 71.554688 L 183 71.554688 Z M 183 53 " clip-rule="nonzero"/></clipPath><clipPath id="id63"><path d="M 183 45 L 193 45 L 193 71.554688 L 183 71.554688 Z M 183 45 " clip-rule="nonzero"/></clipPath><mask id="id64"><g filter="url(#id1)"><rect x="-37.5" width="450" fill="#000000" y="-7.5" height="89.999996" fill-opacity="0.4"/></g></mask><clipPath id="id65"><path d="M 0.121094 0.601562 L 9.480469 0.601562 L 9.480469 26.554688 L 0.121094 26.554688 Z M 0.121094 0.601562 " clip-rule="nonzero"/></clipPath><clipPath id="id66"><path d="M 0.121094 8 L 9.480469 8 L 9.480469 26.554688 L 0.121094 26.554688 Z M 0.121094 8 " clip-rule="nonzero"/></clipPath><clipPath id="id67"><path d="M 1 0.601562 L 9 0.601562 L 9 8 L 1 8 Z M 1 0.601562 " clip-rule="nonzero"/></clipPath><clipPath id="id68"><rect x="0" width="10" y="0" height="27"/></clipPath></defs><rect x="-37.5" width="450" fill="#8c3839" y="-7.5" height="89.999996" fill-opacity="1"/><rect x="-37.5" width="450" fill="#ffffff" y="-7.5" height="89.999996" fill-opacity="1"/><rect x="-37.5" width="450" fill="#8c3839" y="-7.5" height="89.999996" fill-opacity="1"/><g clip-path="url(#id2)"><path fill="#dda83f" d="M 203.347656 43.550781 C 203.347656 43.550781 203.351562 43.550781 203.351562 43.550781 C 203.351562 44.121094 203.339844 44.695312 203.355469 45.269531 C 203.371094 45.996094 203.613281 46.640625 204.023438 47.246094 C 204.226562 47.542969 204.40625 47.882812 204.476562 48.226562 C 204.710938 49.394531 204.894531 50.574219 205.097656 51.75 C 205.210938 52.40625 205.488281 52.648438 206.148438 52.65625 C 206.402344 52.660156 206.660156 52.660156 206.914062 52.65625 C 207.570312 52.648438 207.878906 52.402344 207.988281 51.761719 C 208.136719 50.902344 208.25 50.035156 208.421875 49.179688 C 208.542969 48.578125 208.597656 47.898438 208.925781 47.414062 C 209.410156 46.699219 209.722656 45.976562 209.734375 45.128906 C 209.753906 44.035156 209.746094 42.941406 209.738281 41.84375 C 209.738281 41.019531 209.367188 40.402344 208.570312 40.132812 C 207.210938 39.671875 205.828125 39.671875 204.476562 40.144531 C 203.726562 40.402344 203.359375 40.992188 203.347656 41.78125 C 203.339844 42.371094 203.347656 42.960938 203.347656 43.550781 Z M 209.054688 36.679688 C 209.066406 35.246094 207.929688 34.09375 206.5 34.078125 C 205.101562 34.058594 203.894531 35.238281 203.875 36.636719 C 203.855469 38.035156 205.019531 39.199219 206.457031 39.214844 C 207.910156 39.226562 209.046875 38.121094 209.054688 36.679688 Z M 209.054688 36.679688 " fill-opacity="1" fill-rule="nonzero"/></g><g clip-path="url(#id3)"><path fill="#dda83f" d="M 203.347656 43.550781 C 203.347656 42.960938 203.339844 42.371094 203.347656 41.78125 C 203.359375 40.992188 203.726562 40.402344 204.476562 40.144531 C 205.828125 39.671875 207.210938 39.671875 208.570312 40.132812 C 209.367188 40.402344 209.738281 41.019531 209.738281 41.84375 C 209.746094 42.941406 209.753906 44.035156 209.734375 45.128906 C 209.722656 45.976562 209.410156 46.699219 208.925781 47.414062 C 208.597656 47.898438 208.542969 48.578125 208.421875 49.179688 C 208.25 50.035156 208.136719 50.902344 207.988281 51.761719 C 207.878906 52.402344 207.570312 52.648438 206.914062 52.65625 C 206.660156 52.660156 206.40625 52.660156 206.148438 52.65625 C 205.488281 52.648438 205.210938 52.40625 205.097656 51.75 C 204.894531 50.574219 204.710938 49.394531 204.476562 48.226562 C 204.40625 47.882812 204.226562 47.542969 204.023438 47.246094 C 203.613281 46.640625 203.371094 45.996094 203.355469 45.269531 C 203.339844 44.695312 203.351562 44.121094 203.351562 43.550781 C 203.351562 43.550781 203.347656 43.550781 203.347656 43.550781 Z M 203.347656 43.550781 " fill-opacity="1" fill-rule="evenodd"/></g><g clip-path="url(#id4)"><path fill="#dda83f" d="M 209.054688 36.679688 C 209.046875 38.121094 207.910156 39.226562 206.457031 39.214844 C 205.019531 39.199219 203.855469 38.035156 203.875 36.636719 C 203.894531 35.238281 205.101562 34.058594 206.5 34.078125 C 207.929688 34.09375 209.066406 35.246094 209.054688 36.679688 Z M 209.054688 36.679688 " fill-opacity="1" fill-rule="evenodd"/></g><g clip-path="url(#id5)"><path fill="#dda83f" d="M 178.488281 43.550781 C 178.492188 43.550781 178.492188 43.550781 178.492188 43.550781 C 178.492188 44.121094 178.484375 44.695312 178.496094 45.269531 C 178.511719 45.996094 178.757812 46.640625 179.167969 47.246094 C 179.367188 47.542969 179.546875 47.882812 179.617188 48.226562 C 179.851562 49.394531 180.035156 50.574219 180.238281 51.75 C 180.351562 52.40625 180.628906 52.648438 181.289062 52.65625 C 181.546875 52.660156 181.800781 52.660156 182.054688 52.65625 C 182.710938 52.648438 183.019531 52.402344 183.128906 51.761719 C 183.28125 50.902344 183.390625 50.035156 183.5625 49.179688 C 183.683594 48.578125 183.742188 47.898438 184.070312 47.414062 C 184.554688 46.699219 184.863281 45.976562 184.878906 45.128906 C 184.894531 44.035156 184.886719 42.941406 184.882812 41.84375 C 184.878906 41.019531 184.507812 40.402344 183.710938 40.132812 C 182.351562 39.671875 180.972656 39.671875 179.617188 40.144531 C 178.867188 40.402344 178.5 40.992188 178.492188 41.78125 C 178.484375 42.371094 178.488281 42.960938 178.488281 43.550781 Z M 184.199219 36.679688 C 184.207031 35.246094 183.074219 34.09375 181.640625 34.078125 C 180.246094 34.058594 179.035156 35.238281 179.015625 36.636719 C 178.996094 38.035156 180.160156 39.199219 181.597656 39.214844 C 183.054688 39.226562 184.1875 38.121094 184.199219 36.679688 Z M 184.199219 36.679688 " fill-opacity="1" fill-rule="nonzero"/></g><path fill="#dda83f" d="M 178.488281 43.550781 C 178.488281 42.960938 178.484375 42.371094 178.492188 41.78125 C 178.5 40.992188 178.867188 40.402344 179.617188 40.144531 C 180.972656 39.671875 182.351562 39.671875 183.710938 40.132812 C 184.507812 40.402344 184.878906 41.019531 184.882812 41.84375 C 184.886719 42.941406 184.898438 44.035156 184.878906 45.128906 C 184.863281 45.976562 184.554688 46.699219 184.070312 47.414062 C 183.742188 47.898438 183.683594 48.578125 183.5625 49.179688 C 183.390625 50.035156 183.28125 50.902344 183.128906 51.761719 C 183.019531 52.402344 182.710938 52.648438 182.058594 52.65625 C 181.800781 52.660156 181.546875 52.660156 181.289062 52.65625 C 180.628906 52.648438 180.351562 52.40625 180.238281 51.75 C 180.035156 50.574219 179.851562 49.394531 179.617188 48.226562 C 179.546875 47.882812 179.367188 47.542969 179.167969 47.246094 C 178.757812 46.640625 178.511719 45.996094 178.496094 45.269531 C 178.484375 44.695312 178.492188 44.121094 178.492188 43.550781 C 178.492188 43.550781 178.492188 43.550781 178.488281 43.550781 Z M 178.488281 43.550781 " fill-opacity="1" fill-rule="evenodd"/><g clip-path="url(#id6)"><path fill="#dda83f" d="M 184.199219 36.679688 C 184.1875 38.121094 183.054688 39.226562 181.597656 39.214844 C 180.160156 39.199219 178.996094 38.035156 179.015625 36.636719 C 179.035156 35.238281 180.246094 34.058594 181.640625 34.078125 C 183.074219 34.09375 184.207031 35.246094 184.199219 36.679688 Z M 184.199219 36.679688 " fill-opacity="1" fill-rule="evenodd"/></g><g clip-path="url(#id7)"><path fill="#dda83f" d="M 165.507812 43.550781 C 165.511719 43.550781 165.511719 43.550781 165.511719 43.550781 C 165.511719 44.121094 165.503906 44.695312 165.515625 45.269531 C 165.53125 45.996094 165.777344 46.640625 166.1875 47.246094 C 166.386719 47.542969 166.566406 47.882812 166.636719 48.226562 C 166.871094 49.394531 167.054688 50.574219 167.257812 51.75 C 167.371094 52.40625 167.648438 52.648438 168.308594 52.65625 C 168.566406 52.660156 168.820312 52.660156 169.078125 52.65625 C 169.730469 52.648438 170.039062 52.402344 170.148438 51.761719 C 170.300781 50.902344 170.410156 50.035156 170.582031 49.179688 C 170.703125 48.578125 170.761719 47.898438 171.085938 47.414062 C 171.574219 46.699219 171.882812 45.976562 171.898438 45.128906 C 171.917969 44.035156 171.90625 42.941406 171.902344 41.84375 C 171.898438 41.019531 171.527344 40.402344 170.730469 40.132812 C 169.371094 39.671875 167.992188 39.671875 166.636719 40.144531 C 165.886719 40.402344 165.519531 40.992188 165.511719 41.78125 C 165.503906 42.371094 165.507812 42.960938 165.507812 43.550781 Z M 171.21875 36.679688 C 171.226562 35.246094 170.09375 34.09375 168.660156 34.078125 C 167.265625 34.058594 166.054688 35.238281 166.035156 36.636719 C 166.015625 38.035156 167.179688 39.199219 168.617188 39.214844 C 170.074219 39.226562 171.207031 38.121094 171.21875 36.679688 Z M 171.21875 36.679688 " fill-opacity="1" fill-rule="nonzero"/></g><g clip-path="url(#id8)"><path fill="#dda83f" d="M 165.507812 43.550781 C 165.507812 42.960938 165.503906 42.371094 165.511719 41.78125 C 165.519531 40.992188 165.886719 40.402344 166.636719 40.144531 C 167.992188 39.671875 169.371094 39.671875 170.730469 40.132812 C 171.527344 40.402344 171.898438 41.019531 171.902344 41.84375 C 171.90625 42.941406 171.917969 44.035156 171.898438 45.128906 C 171.882812 45.976562 171.574219 46.699219 171.085938 47.414062 C 170.761719 47.898438 170.703125 48.578125 170.582031 49.179688 C 170.410156 50.035156 170.300781 50.902344 170.148438 51.761719 C 170.039062 52.402344 169.730469 52.648438 169.078125 52.65625 C 168.820312 52.660156 168.566406 52.660156 168.308594 52.65625 C 167.648438 52.648438 167.371094 52.40625 167.257812 51.75 C 167.054688 50.574219 166.871094 49.394531 166.636719 48.226562 C 166.566406 47.882812 166.386719 47.542969 166.1875 47.246094 C 165.777344 46.640625 165.53125 45.996094 165.515625 45.269531 C 165.503906 44.695312 165.511719 44.121094 165.511719 43.550781 C 165.511719 43.550781 165.511719 43.550781 165.507812 43.550781 Z M 165.507812 43.550781 " fill-opacity="1" fill-rule="evenodd"/></g><g clip-path="url(#id9)"><path fill="#dda83f" d="M 171.21875 36.679688 C 171.207031 38.121094 170.074219 39.226562 168.617188 39.214844 C 167.179688 39.199219 166.015625 38.035156 166.035156 36.636719 C 166.054688 35.238281 167.265625 34.058594 168.660156 34.078125 C 170.09375 34.09375 171.226562 35.246094 171.21875 36.679688 Z M 171.21875 36.679688 " fill-opacity="1" fill-rule="evenodd"/></g><g clip-path="url(#id10)"><path fill="#dda83f" d="M 190.941406 43.550781 C 190.941406 43.550781 190.945312 43.550781 190.945312 43.550781 C 190.945312 44.121094 190.933594 44.695312 190.949219 45.269531 C 190.964844 45.996094 191.207031 46.640625 191.617188 47.246094 C 191.820312 47.542969 192 47.882812 192.070312 48.226562 C 192.304688 49.394531 192.484375 50.574219 192.6875 51.75 C 192.804688 52.40625 193.082031 52.648438 193.742188 52.65625 C 193.996094 52.660156 194.253906 52.660156 194.507812 52.65625 C 195.164062 52.648438 195.472656 52.402344 195.582031 51.761719 C 195.730469 50.902344 195.84375 50.035156 196.015625 49.179688 C 196.136719 48.578125 196.191406 47.898438 196.519531 47.414062 C 197.003906 46.699219 197.3125 45.976562 197.328125 45.128906 C 197.347656 44.035156 197.339844 42.941406 197.332031 41.84375 C 197.332031 41.019531 196.960938 40.402344 196.160156 40.132812 C 194.804688 39.671875 193.421875 39.671875 192.070312 40.144531 C 191.320312 40.402344 190.953125 40.992188 190.941406 41.78125 C 190.933594 42.371094 190.941406 42.960938 190.941406 43.550781 Z M 196.648438 36.679688 C 196.660156 35.246094 195.523438 34.09375 194.09375 34.078125 C 192.695312 34.058594 191.488281 35.238281 191.46875 36.636719 C 191.449219 38.035156 192.613281 39.199219 194.050781 39.214844 C 195.503906 39.226562 196.640625 38.121094 196.648438 36.679688 Z M 196.648438 36.679688 " fill-opacity="1" fill-rule="nonzero"/></g><path fill="#dda83f" d="M 190.941406 43.550781 C 190.941406 42.960938 190.933594 42.371094 190.941406 41.78125 C 190.953125 40.992188 191.320312 40.402344 192.070312 40.144531 C 193.421875 39.671875 194.804688 39.671875 196.164062 40.132812 C 196.960938 40.402344 197.332031 41.019531 197.332031 41.84375 C 197.339844 42.941406 197.347656 44.035156 197.328125 45.128906 C 197.316406 45.976562 197.003906 46.699219 196.519531 47.414062 C 196.191406 47.898438 196.136719 48.578125 196.015625 49.179688 C 195.84375 50.035156 195.730469 50.902344 195.582031 51.761719 C 195.472656 52.402344 195.164062 52.648438 194.507812 52.65625 C 194.253906 52.660156 193.996094 52.660156 193.742188 52.65625 C 193.082031 52.648438 192.804688 52.40625 192.6875 51.75 C 192.484375 50.574219 192.304688 49.394531 192.070312 48.226562 C 192 47.882812 191.820312 47.542969 191.617188 47.246094 C 191.207031 46.640625 190.964844 45.996094 190.949219 45.269531 C 190.933594 44.695312 190.945312 44.121094 190.945312 43.550781 C 190.945312 43.550781 190.941406 43.550781 190.941406 43.550781 Z M 190.941406 43.550781 " fill-opacity="1" fill-rule="evenodd"/><g clip-path="url(#id11)"><path fill="#dda83f" d="M 196.648438 36.679688 C 196.640625 38.121094 195.503906 39.226562 194.050781 39.214844 C 192.613281 39.199219 191.449219 38.035156 191.46875 36.636719 C 191.488281 35.238281 192.695312 34.058594 194.09375 34.078125 C 195.523438 34.09375 196.660156 35.246094 196.648438 36.679688 Z M 196.648438 36.679688 " fill-opacity="1" fill-rule="evenodd"/></g><g clip-path="url(#id12)"><g mask="url(#id13)"><g transform="matrix(1, 0, 0, 1, 203, 34)"><g clip-path="url(#id17)"><g clip-path="url(#id14)"><path fill="#15302d" d="M 0.347656 9.550781 C 0.347656 9.550781 0.351562 9.550781 0.351562 9.550781 C 0.351562 10.121094 0.339844 10.695312 0.355469 11.269531 C 0.371094 11.996094 0.613281 12.640625 1.023438 13.246094 C 1.226562 13.542969 1.40625 13.882812 1.476562 14.226562 C 1.710938 15.394531 1.894531 16.574219 2.097656 17.75 C 2.210938 18.40625 2.488281 18.648438 3.148438 18.65625 C 3.402344 18.660156 3.660156 18.660156 3.914062 18.65625 C 4.570312 18.648438 4.878906 18.402344 4.988281 17.761719 C 5.136719 16.902344 5.25 16.035156 5.421875 15.179688 C 5.542969 14.578125 5.597656 13.898438 5.925781 13.414062 C 6.410156 12.699219 6.722656 11.976562 6.734375 11.128906 C 6.753906 10.035156 6.746094 8.941406 6.738281 7.84375 C 6.738281 7.019531 6.367188 6.402344 5.570312 6.132812 C 4.210938 5.671875 2.828125 5.671875 1.476562 6.144531 C 0.726562 6.402344 0.359375 6.992188 0.347656 7.78125 C 0.339844 8.371094 0.347656 8.960938 0.347656 9.550781 Z M 6.054688 2.679688 C 6.066406 1.246094 4.929688 0.09375 3.5 0.078125 C 2.101562 0.0585938 0.894531 1.238281 0.875 2.636719 C 0.855469 4.035156 2.019531 5.199219 3.457031 5.214844 C 4.910156 5.226562 6.046875 4.121094 6.054688 2.679688 Z M 6.054688 2.679688 " fill-opacity="1" fill-rule="nonzero"/></g><g clip-path="url(#id15)"><path fill="#15302d" d="M 0.347656 9.550781 C 0.347656 8.960938 0.339844 8.371094 0.347656 7.78125 C 0.359375 6.992188 0.726562 6.402344 1.476562 6.144531 C 2.828125 5.671875 4.210938 5.671875 5.570312 6.132812 C 6.367188 6.402344 6.738281 7.019531 6.738281 7.84375 C 6.746094 8.941406 6.753906 10.035156 6.734375 11.128906 C 6.722656 11.976562 6.410156 12.699219 5.925781 13.414062 C 5.597656 13.898438 5.542969 14.578125 5.421875 15.179688 C 5.25 16.035156 5.136719 16.902344 4.988281 17.761719 C 4.878906 18.402344 4.570312 18.648438 3.914062 18.65625 C 3.660156 18.660156 3.40625 18.660156 3.148438 18.65625 C 2.488281 18.648438 2.210938 18.40625 2.097656 17.75 C 1.894531 16.574219 1.710938 15.394531 1.476562 14.226562 C 1.40625 13.882812 1.226562 13.542969 1.023438 13.246094 C 0.613281 12.640625 0.371094 11.996094 0.355469 11.269531 C 0.339844 10.695312 0.351562 10.121094 0.351562 9.550781 C 0.351562 9.550781 0.347656 9.550781 0.347656 9.550781 Z M 0.347656 9.550781 " fill-opacity="1" fill-rule="evenodd"/></g><g clip-path="url(#id16)"><path fill="#15302d" d="M 6.054688 2.679688 C 6.046875 4.121094 4.910156 5.226562 3.457031 5.214844 C 2.019531 5.199219 0.855469 4.035156 0.875 2.636719 C 0.894531 1.238281 2.101562 0.0585938 3.5 0.078125 C 4.929688 0.09375 6.066406 1.246094 6.054688 2.679688 Z M 6.054688 2.679688 " fill-opacity="1" fill-rule="evenodd"/></g></g></g></g></g><g clip-path="url(#id18)"><g mask="url(#id19)"><g transform="matrix(1, 0, 0, 1, 178, 34)"><g clip-path="url(#id23)"><g clip-path="url(#id20)"><path fill="#15302d" d="M 0.488281 9.550781 C 0.492188 9.550781 0.492188 9.550781 0.492188 9.550781 C 0.492188 10.121094 0.484375 10.695312 0.496094 11.269531 C 0.511719 11.996094 0.757812 12.640625 1.167969 13.246094 C 1.367188 13.542969 1.546875 13.882812 1.617188 14.226562 C 1.851562 15.394531 2.035156 16.574219 2.238281 17.75 C 2.351562 18.40625 2.628906 18.648438 3.289062 18.65625 C 3.546875 18.660156 3.800781 18.660156 4.054688 18.65625 C 4.710938 18.648438 5.019531 18.402344 5.128906 17.761719 C 5.28125 16.902344 5.390625 16.035156 5.5625 15.179688 C 5.683594 14.578125 5.742188 13.898438 6.070312 13.414062 C 6.554688 12.699219 6.863281 11.976562 6.878906 11.128906 C 6.894531 10.035156 6.886719 8.941406 6.882812 7.84375 C 6.878906 7.019531 6.507812 6.402344 5.710938 6.132812 C 4.351562 5.671875 2.972656 5.671875 1.617188 6.144531 C 0.867188 6.402344 0.5 6.992188 0.492188 7.78125 C 0.484375 8.371094 0.488281 8.960938 0.488281 9.550781 Z M 6.199219 2.679688 C 6.207031 1.246094 5.074219 0.09375 3.640625 0.078125 C 2.246094 0.0585938 1.035156 1.238281 1.015625 2.636719 C 0.996094 4.035156 2.160156 5.199219 3.597656 5.214844 C 5.054688 5.226562 6.1875 4.121094 6.199219 2.679688 Z M 6.199219 2.679688 " fill-opacity="1" fill-rule="nonzero"/></g><g clip-path="url(#id21)"><path fill="#15302d" d="M 0.488281 9.550781 C 0.488281 8.960938 0.484375 8.371094 0.492188 7.78125 C 0.5 6.992188 0.867188 6.402344 1.617188 6.144531 C 2.972656 5.671875 4.351562 5.671875 5.710938 6.132812 C 6.507812 6.402344 6.878906 7.019531 6.882812 7.84375 C 6.886719 8.941406 6.898438 10.035156 6.878906 11.128906 C 6.863281 11.976562 6.554688 12.699219 6.070312 13.414062 C 5.742188 13.898438 5.683594 14.578125 5.5625 15.179688 C 5.390625 16.035156 5.28125 16.902344 5.128906 17.761719 C 5.019531 18.402344 4.710938 18.648438 4.058594 18.65625 C 3.800781 18.660156 3.546875 18.660156 3.289062 18.65625 C 2.628906 18.648438 2.351562 18.40625 2.238281 17.75 C 2.035156 16.574219 1.851562 15.394531 1.617188 14.226562 C 1.546875 13.882812 1.367188 13.542969 1.167969 13.246094 C 0.757812 12.640625 0.511719 11.996094 0.496094 11.269531 C 0.484375 10.695312 0.492188 10.121094 0.492188 9.550781 C 0.492188 9.550781 0.492188 9.550781 0.488281 9.550781 Z M 0.488281 9.550781 " fill-opacity="1" fill-rule="evenodd"/></g><g clip-path="url(#id22)"><path fill="#15302d" d="M 6.199219 2.679688 C 6.1875 4.121094 5.054688 5.226562 3.597656 5.214844 C 2.160156 5.199219 0.996094 4.035156 1.015625 2.636719 C 1.035156 1.238281 2.246094 0.0585938 3.640625 0.078125 C 5.074219 0.09375 6.207031 1.246094 6.199219 2.679688 Z M 6.199219 2.679688 " fill-opacity="1" fill-rule="evenodd"/></g></g></g></g></g><g clip-path="url(#id24)"><g mask="url(#id25)"><g transform="matrix(1, 0, 0, 1, 165, 34)"><g clip-path="url(#id29)"><g clip-path="url(#id26)"><path fill="#15302d" d="M 0.507812 9.550781 C 0.511719 9.550781 0.511719 9.550781 0.511719 9.550781 C 0.511719 10.121094 0.503906 10.695312 0.515625 11.269531 C 0.53125 11.996094 0.777344 12.640625 1.1875 13.246094 C 1.386719 13.542969 1.566406 13.882812 1.636719 14.226562 C 1.871094 15.394531 2.054688 16.574219 2.257812 17.75 C 2.371094 18.40625 2.648438 18.648438 3.308594 18.65625 C 3.566406 18.660156 3.820312 18.660156 4.078125 18.65625 C 4.730469 18.648438 5.039062 18.402344 5.148438 17.761719 C 5.300781 16.902344 5.410156 16.035156 5.582031 15.179688 C 5.703125 14.578125 5.761719 13.898438 6.085938 13.414062 C 6.574219 12.699219 6.882812 11.976562 6.898438 11.128906 C 6.917969 10.035156 6.90625 8.941406 6.902344 7.84375 C 6.898438 7.019531 6.527344 6.402344 5.730469 6.132812 C 4.371094 5.671875 2.992188 5.671875 1.636719 6.144531 C 0.886719 6.402344 0.519531 6.992188 0.511719 7.78125 C 0.503906 8.371094 0.507812 8.960938 0.507812 9.550781 Z M 6.21875 2.679688 C 6.226562 1.246094 5.09375 0.09375 3.660156 0.078125 C 2.265625 0.0585938 1.054688 1.238281 1.035156 2.636719 C 1.015625 4.035156 2.179688 5.199219 3.617188 5.214844 C 5.074219 5.226562 6.207031 4.121094 6.21875 2.679688 Z M 6.21875 2.679688 " fill-opacity="1" fill-rule="nonzero"/></g><g clip-path="url(#id27)"><path fill="#15302d" d="M 0.507812 9.550781 C 0.507812 8.960938 0.503906 8.371094 0.511719 7.78125 C 0.519531 6.992188 0.886719 6.402344 1.636719 6.144531 C 2.992188 5.671875 4.371094 5.671875 5.730469 6.132812 C 6.527344 6.402344 6.898438 7.019531 6.902344 7.84375 C 6.90625 8.941406 6.917969 10.035156 6.898438 11.128906 C 6.882812 11.976562 6.574219 12.699219 6.085938 13.414062 C 5.761719 13.898438 5.703125 14.578125 5.582031 15.179688 C 5.410156 16.035156 5.300781 16.902344 5.148438 17.761719 C 5.039062 18.402344 4.730469 18.648438 4.078125 18.65625 C 3.820312 18.660156 3.566406 18.660156 3.308594 18.65625 C 2.648438 18.648438 2.371094 18.40625 2.257812 17.75 C 2.054688 16.574219 1.871094 15.394531 1.636719 14.226562 C 1.566406 13.882812 1.386719 13.542969 1.1875 13.246094 C 0.777344 12.640625 0.53125 11.996094 0.515625 11.269531 C 0.503906 10.695312 0.511719 10.121094 0.511719 9.550781 C 0.511719 9.550781 0.511719 9.550781 0.507812 9.550781 Z M 0.507812 9.550781 " fill-opacity="1" fill-rule="evenodd"/></g><g clip-path="url(#id28)"><path fill="#15302d" d="M 6.21875 2.679688 C 6.207031 4.121094 5.074219 5.226562 3.617188 5.214844 C 2.179688 5.199219 1.015625 4.035156 1.035156 2.636719 C 1.054688 1.238281 2.265625 0.0585938 3.660156 0.078125 C 5.09375 0.09375 6.226562 1.246094 6.21875 2.679688 Z M 6.21875 2.679688 " fill-opacity="1" fill-rule="evenodd"/></g></g></g></g></g><g clip-path="url(#id30)"><g mask="url(#id31)"><g transform="matrix(1, 0, 0, 1, 190, 34)"><g clip-path="url(#id35)"><g clip-path="url(#id32)"><path fill="#15302d" d="M 0.941406 9.550781 C 0.941406 9.550781 0.945312 9.550781 0.945312 9.550781 C 0.945312 10.121094 0.933594 10.695312 0.949219 11.269531 C 0.964844 11.996094 1.207031 12.640625 1.617188 13.246094 C 1.820312 13.542969 2 13.882812 2.070312 14.226562 C 2.304688 15.394531 2.484375 16.574219 2.6875 17.75 C 2.804688 18.40625 3.082031 18.648438 3.742188 18.65625 C 3.996094 18.660156 4.253906 18.660156 4.507812 18.65625 C 5.164062 18.648438 5.472656 18.402344 5.582031 17.761719 C 5.730469 16.902344 5.84375 16.035156 6.015625 15.179688 C 6.136719 14.578125 6.191406 13.898438 6.519531 13.414062 C 7.003906 12.699219 7.3125 11.976562 7.328125 11.128906 C 7.347656 10.035156 7.339844 8.941406 7.332031 7.84375 C 7.332031 7.019531 6.960938 6.402344 6.160156 6.132812 C 4.804688 5.671875 3.421875 5.671875 2.070312 6.144531 C 1.320312 6.402344 0.953125 6.992188 0.941406 7.78125 C 0.933594 8.371094 0.941406 8.960938 0.941406 9.550781 Z M 6.648438 2.679688 C 6.660156 1.246094 5.523438 0.09375 4.09375 0.078125 C 2.695312 0.0585938 1.488281 1.238281 1.46875 2.636719 C 1.449219 4.035156 2.613281 5.199219 4.050781 5.214844 C 5.503906 5.226562 6.640625 4.121094 6.648438 2.679688 Z M 6.648438 2.679688 " fill-opacity="1" fill-rule="nonzero"/></g><g clip-path="url(#id33)"><path fill="#15302d" d="M 0.941406 9.550781 C 0.941406 8.960938 0.933594 8.371094 0.941406 7.78125 C 0.953125 6.992188 1.320312 6.402344 2.070312 6.144531 C 3.421875 5.671875 4.804688 5.671875 6.164062 6.132812 C 6.960938 6.402344 7.332031 7.019531 7.332031 7.84375 C 7.339844 8.941406 7.347656 10.035156 7.328125 11.128906 C 7.316406 11.976562 7.003906 12.699219 6.519531 13.414062 C 6.191406 13.898438 6.136719 14.578125 6.015625 15.179688 C 5.84375 16.035156 5.730469 16.902344 5.582031 17.761719 C 5.472656 18.402344 5.164062 18.648438 4.507812 18.65625 C 4.253906 18.660156 3.996094 18.660156 3.742188 18.65625 C 3.082031 18.648438 2.804688 18.40625 2.6875 17.75 C 2.484375 16.574219 2.304688 15.394531 2.070312 14.226562 C 2 13.882812 1.820312 13.542969 1.617188 13.246094 C 1.207031 12.640625 0.964844 11.996094 0.949219 11.269531 C 0.933594 10.695312 0.945312 10.121094 0.945312 9.550781 C 0.945312 9.550781 0.941406 9.550781 0.941406 9.550781 Z M 0.941406 9.550781 " fill-opacity="1" fill-rule="evenodd"/></g><g clip-path="url(#id34)"><path fill="#15302d" d="M 6.648438 2.679688 C 6.640625 4.121094 5.503906 5.226562 4.050781 5.214844 C 2.613281 5.199219 1.449219 4.035156 1.46875 2.636719 C 1.488281 1.238281 2.695312 0.0585938 4.09375 0.078125 C 5.523438 0.09375 6.660156 1.246094 6.648438 2.679688 Z M 6.648438 2.679688 " fill-opacity="1" fill-rule="evenodd"/></g></g></g></g></g><path fill="#dda83f" d="M 198.632812 49.132812 C 198.632812 49.132812 198.632812 49.132812 198.636719 49.132812 C 198.636719 49.777344 198.625 50.421875 198.640625 51.066406 C 198.65625 51.882812 198.933594 52.609375 199.394531 53.292969 C 199.617188 53.625 199.820312 54.003906 199.902344 54.390625 C 200.164062 55.707031 200.371094 57.03125 200.597656 58.355469 C 200.726562 59.097656 201.039062 59.367188 201.78125 59.378906 C 202.070312 59.382812 202.355469 59.378906 202.644531 59.378906 C 203.382812 59.371094 203.726562 59.089844 203.851562 58.371094 C 204.019531 57.402344 204.148438 56.425781 204.339844 55.464844 C 204.476562 54.789062 204.539062 54.023438 204.90625 53.480469 C 205.453125 52.675781 205.800781 51.859375 205.816406 50.910156 C 205.839844 49.679688 205.828125 48.445312 205.824219 47.214844 C 205.820312 46.285156 205.402344 45.59375 204.503906 45.289062 C 202.976562 44.769531 201.421875 44.769531 199.898438 45.300781 C 199.058594 45.59375 198.644531 46.253906 198.632812 47.140625 C 198.625 47.804688 198.632812 48.46875 198.632812 49.132812 Z M 205.054688 41.402344 C 205.0625 39.789062 203.789062 38.492188 202.179688 38.472656 C 200.605469 38.457031 199.246094 39.78125 199.222656 41.351562 C 199.203125 42.929688 200.511719 44.238281 202.128906 44.253906 C 203.765625 44.269531 205.042969 43.023438 205.054688 41.402344 Z M 205.054688 41.402344 " fill-opacity="1" fill-rule="nonzero"/><path fill="#dda83f" d="M 198.632812 49.132812 C 198.632812 48.46875 198.625 47.804688 198.632812 47.140625 C 198.644531 46.253906 199.058594 45.59375 199.898438 45.300781 C 201.421875 44.769531 202.976562 44.769531 204.503906 45.289062 C 205.402344 45.59375 205.820312 46.285156 205.824219 47.214844 C 205.828125 48.445312 205.839844 49.679688 205.816406 50.910156 C 205.800781 51.859375 205.453125 52.675781 204.90625 53.480469 C 204.539062 54.023438 204.476562 54.789062 204.339844 55.464844 C 204.148438 56.425781 204.019531 57.402344 203.851562 58.371094 C 203.726562 59.089844 203.382812 59.371094 202.644531 59.378906 C 202.355469 59.378906 202.070312 59.382812 201.78125 59.378906 C 201.039062 59.367188 200.726562 59.097656 200.597656 58.355469 C 200.371094 57.03125 200.164062 55.707031 199.902344 54.390625 C 199.820312 54.003906 199.617188 53.625 199.394531 53.292969 C 198.933594 52.609375 198.65625 51.882812 198.640625 51.066406 C 198.625 50.421875 198.636719 49.777344 198.636719 49.132812 C 198.632812 49.132812 198.632812 49.132812 198.632812 49.132812 Z M 198.632812 49.132812 " fill-opacity="1" fill-rule="evenodd"/><path fill="#dda83f" d="M 205.054688 41.402344 C 205.042969 43.023438 203.765625 44.269531 202.128906 44.253906 C 200.511719 44.238281 199.203125 42.929688 199.222656 41.351562 C 199.246094 39.78125 200.605469 38.457031 202.179688 38.472656 C 203.789062 38.492188 205.0625 39.789062 205.054688 41.402344 Z M 205.054688 41.402344 " fill-opacity="1" fill-rule="evenodd"/><path fill="#dda83f" d="M 184.394531 49.132812 C 184.398438 49.132812 184.398438 49.132812 184.398438 49.132812 C 184.398438 49.777344 184.386719 50.421875 184.402344 51.066406 C 184.421875 51.882812 184.695312 52.609375 185.15625 53.292969 C 185.382812 53.625 185.585938 54.003906 185.664062 54.390625 C 185.929688 55.707031 186.132812 57.03125 186.363281 58.355469 C 186.488281 59.097656 186.804688 59.367188 187.546875 59.378906 C 187.835938 59.382812 188.121094 59.378906 188.410156 59.378906 C 189.144531 59.371094 189.492188 59.089844 189.617188 58.371094 C 189.785156 57.402344 189.910156 56.425781 190.105469 55.464844 C 190.238281 54.789062 190.304688 54.023438 190.671875 53.480469 C 191.21875 52.675781 191.566406 51.859375 191.582031 50.910156 C 191.605469 49.679688 191.59375 48.445312 191.585938 47.214844 C 191.582031 46.285156 191.167969 45.59375 190.269531 45.289062 C 188.742188 44.769531 187.1875 44.769531 185.664062 45.300781 C 184.820312 45.59375 184.410156 46.253906 184.398438 47.140625 C 184.386719 47.804688 184.394531 48.46875 184.394531 49.132812 Z M 190.816406 41.402344 C 190.828125 39.789062 189.550781 38.492188 187.941406 38.472656 C 186.371094 38.457031 185.011719 39.78125 184.988281 41.351562 C 184.964844 42.929688 186.277344 44.238281 187.890625 44.253906 C 189.53125 44.269531 190.808594 43.023438 190.816406 41.402344 Z M 190.816406 41.402344 " fill-opacity="1" fill-rule="nonzero"/><path fill="#dda83f" d="M 184.394531 49.132812 C 184.394531 48.46875 184.386719 47.804688 184.398438 47.140625 C 184.410156 46.253906 184.820312 45.59375 185.664062 45.300781 C 187.1875 44.769531 188.742188 44.769531 190.269531 45.289062 C 191.167969 45.59375 191.582031 46.285156 191.585938 47.214844 C 191.59375 48.445312 191.605469 49.679688 191.582031 50.910156 C 191.566406 51.859375 191.21875 52.675781 190.671875 53.480469 C 190.304688 54.023438 190.238281 54.789062 190.105469 55.464844 C 189.910156 56.425781 189.785156 57.402344 189.617188 58.371094 C 189.492188 59.089844 189.144531 59.371094 188.410156 59.378906 C 188.121094 59.378906 187.835938 59.382812 187.546875 59.378906 C 186.804688 59.367188 186.488281 59.097656 186.363281 58.355469 C 186.132812 57.03125 185.929688 55.707031 185.664062 54.390625 C 185.585938 54.003906 185.382812 53.625 185.15625 53.292969 C 184.695312 52.609375 184.421875 51.882812 184.402344 51.066406 C 184.386719 50.421875 184.398438 49.777344 184.398438 49.132812 C 184.398438 49.132812 184.398438 49.132812 184.394531 49.132812 Z M 184.394531 49.132812 " fill-opacity="1" fill-rule="evenodd"/><path fill="#dda83f" d="M 190.816406 41.402344 C 190.808594 43.023438 189.53125 44.269531 187.890625 44.253906 C 186.277344 44.238281 184.964844 42.929688 184.988281 41.351562 C 185.011719 39.78125 186.371094 38.457031 187.941406 38.472656 C 189.550781 38.492188 190.828125 39.789062 190.816406 41.402344 Z M 190.816406 41.402344 " fill-opacity="1" fill-rule="evenodd"/><path fill="#dda83f" d="M 170.664062 49.132812 C 170.667969 49.132812 170.667969 49.132812 170.667969 49.132812 C 170.667969 49.777344 170.65625 50.421875 170.671875 51.066406 C 170.691406 51.882812 170.964844 52.609375 171.425781 53.292969 C 171.652344 53.625 171.855469 54.003906 171.933594 54.390625 C 172.199219 55.707031 172.402344 57.03125 172.632812 58.355469 C 172.757812 59.097656 173.074219 59.367188 173.816406 59.378906 C 174.105469 59.382812 174.390625 59.378906 174.679688 59.378906 C 175.414062 59.371094 175.761719 59.089844 175.886719 58.371094 C 176.054688 57.402344 176.179688 56.425781 176.375 55.464844 C 176.507812 54.789062 176.574219 54.023438 176.941406 53.480469 C 177.488281 52.675781 177.835938 51.859375 177.851562 50.910156 C 177.875 49.679688 177.863281 48.445312 177.855469 47.214844 C 177.851562 46.285156 177.4375 45.59375 176.539062 45.289062 C 175.011719 44.769531 173.457031 44.769531 171.933594 45.300781 C 171.089844 45.59375 170.679688 46.253906 170.667969 47.140625 C 170.65625 47.804688 170.664062 48.46875 170.664062 49.132812 Z M 177.085938 41.402344 C 177.097656 39.789062 175.820312 38.492188 174.210938 38.472656 C 172.640625 38.457031 171.28125 39.78125 171.257812 41.351562 C 171.234375 42.929688 172.546875 44.238281 174.164062 44.253906 C 175.800781 44.269531 177.078125 43.023438 177.085938 41.402344 Z M 177.085938 41.402344 " fill-opacity="1" fill-rule="nonzero"/><path fill="#dda83f" d="M 170.664062 49.132812 C 170.664062 48.46875 170.65625 47.804688 170.667969 47.140625 C 170.679688 46.253906 171.089844 45.59375 171.933594 45.300781 C 173.457031 44.769531 175.011719 44.769531 176.539062 45.289062 C 177.4375 45.59375 177.851562 46.285156 177.855469 47.214844 C 177.863281 48.445312 177.875 49.679688 177.851562 50.910156 C 177.835938 51.859375 177.488281 52.675781 176.941406 53.480469 C 176.574219 54.023438 176.507812 54.789062 176.375 55.464844 C 176.179688 56.425781 176.054688 57.402344 175.886719 58.371094 C 175.761719 59.089844 175.414062 59.371094 174.679688 59.378906 C 174.390625 59.378906 174.105469 59.382812 173.816406 59.378906 C 173.074219 59.367188 172.757812 59.097656 172.632812 58.355469 C 172.402344 57.03125 172.199219 55.707031 171.933594 54.390625 C 171.855469 54.003906 171.652344 53.625 171.425781 53.292969 C 170.964844 52.609375 170.691406 51.882812 170.671875 51.066406 C 170.65625 50.421875 170.667969 49.777344 170.667969 49.132812 C 170.667969 49.132812 170.667969 49.132812 170.664062 49.132812 Z M 170.664062 49.132812 " fill-opacity="1" fill-rule="evenodd"/><path fill="#dda83f" d="M 177.085938 41.402344 C 177.078125 43.023438 175.800781 44.269531 174.164062 44.253906 C 172.546875 44.238281 171.234375 42.929688 171.257812 41.351562 C 171.28125 39.78125 172.640625 38.457031 174.210938 38.472656 C 175.820312 38.492188 177.097656 39.789062 177.085938 41.402344 Z M 177.085938 41.402344 " fill-opacity="1" fill-rule="evenodd"/><g mask="url(#id36)"><g transform="matrix(1, 0, 0, 1, 198, 38)"><g clip-path="url(#id40)"><g clip-path="url(#id37)"><path fill="#15302d" d="M 0.632812 11.132812 C 0.632812 11.132812 0.632812 11.132812 0.636719 11.132812 C 0.636719 11.777344 0.625 12.421875 0.640625 13.066406 C 0.65625 13.882812 0.933594 14.609375 1.394531 15.292969 C 1.617188 15.625 1.820312 16.003906 1.902344 16.390625 C 2.164062 17.707031 2.371094 19.03125 2.597656 20.355469 C 2.726562 21.097656 3.039062 21.367188 3.78125 21.378906 C 4.070312 21.382812 4.355469 21.378906 4.644531 21.378906 C 5.382812 21.371094 5.726562 21.089844 5.851562 20.371094 C 6.019531 19.402344 6.148438 18.425781 6.339844 17.464844 C 6.476562 16.789062 6.539062 16.023438 6.90625 15.480469 C 7.453125 14.675781 7.800781 13.859375 7.816406 12.910156 C 7.839844 11.679688 7.828125 10.445312 7.824219 9.214844 C 7.820312 8.285156 7.402344 7.59375 6.503906 7.289062 C 4.976562 6.769531 3.421875 6.769531 1.898438 7.300781 C 1.058594 7.59375 0.644531 8.253906 0.632812 9.140625 C 0.625 9.804688 0.632812 10.46875 0.632812 11.132812 Z M 7.054688 3.402344 C 7.0625 1.789062 5.789062 0.492188 4.179688 0.472656 C 2.605469 0.457031 1.246094 1.78125 1.222656 3.351562 C 1.203125 4.929688 2.511719 6.238281 4.128906 6.253906 C 5.765625 6.269531 7.042969 5.023438 7.054688 3.402344 Z M 7.054688 3.402344 " fill-opacity="1" fill-rule="nonzero"/></g><g clip-path="url(#id38)"><path fill="#15302d" d="M 0.632812 11.132812 C 0.632812 10.46875 0.625 9.804688 0.632812 9.140625 C 0.644531 8.253906 1.058594 7.59375 1.898438 7.300781 C 3.421875 6.769531 4.976562 6.769531 6.503906 7.289062 C 7.402344 7.59375 7.820312 8.285156 7.824219 9.214844 C 7.828125 10.445312 7.839844 11.679688 7.816406 12.910156 C 7.800781 13.859375 7.453125 14.675781 6.90625 15.480469 C 6.539062 16.023438 6.476562 16.789062 6.339844 17.464844 C 6.148438 18.425781 6.019531 19.402344 5.851562 20.371094 C 5.726562 21.089844 5.382812 21.371094 4.644531 21.378906 C 4.355469 21.378906 4.070312 21.382812 3.78125 21.378906 C 3.039062 21.367188 2.726562 21.097656 2.597656 20.355469 C 2.371094 19.03125 2.164062 17.707031 1.902344 16.390625 C 1.820312 16.003906 1.617188 15.625 1.394531 15.292969 C 0.933594 14.609375 0.65625 13.882812 0.640625 13.066406 C 0.625 12.421875 0.636719 11.777344 0.636719 11.132812 C 0.632812 11.132812 0.632812 11.132812 0.632812 11.132812 Z M 0.632812 11.132812 " fill-opacity="1" fill-rule="evenodd"/></g><g clip-path="url(#id39)"><path fill="#15302d" d="M 7.054688 3.402344 C 7.042969 5.023438 5.765625 6.269531 4.128906 6.253906 C 2.511719 6.238281 1.203125 4.929688 1.222656 3.351562 C 1.246094 1.78125 2.605469 0.457031 4.179688 0.472656 C 5.789062 0.492188 7.0625 1.789062 7.054688 3.402344 Z M 7.054688 3.402344 " fill-opacity="1" fill-rule="evenodd"/></g></g></g></g><g mask="url(#id41)"><g transform="matrix(1, 0, 0, 1, 184, 38)"><g clip-path="url(#id45)"><g clip-path="url(#id42)"><path fill="#15302d" d="M 0.394531 11.132812 C 0.398438 11.132812 0.398438 11.132812 0.398438 11.132812 C 0.398438 11.777344 0.386719 12.421875 0.402344 13.066406 C 0.421875 13.882812 0.695312 14.609375 1.15625 15.292969 C 1.382812 15.625 1.585938 16.003906 1.664062 16.390625 C 1.929688 17.707031 2.132812 19.03125 2.363281 20.355469 C 2.488281 21.097656 2.804688 21.367188 3.546875 21.378906 C 3.835938 21.382812 4.121094 21.378906 4.410156 21.378906 C 5.144531 21.371094 5.492188 21.089844 5.617188 20.371094 C 5.785156 19.402344 5.910156 18.425781 6.105469 17.464844 C 6.238281 16.789062 6.304688 16.023438 6.671875 15.480469 C 7.21875 14.675781 7.566406 13.859375 7.582031 12.910156 C 7.605469 11.679688 7.59375 10.445312 7.585938 9.214844 C 7.582031 8.285156 7.167969 7.59375 6.269531 7.289062 C 4.742188 6.769531 3.1875 6.769531 1.664062 7.300781 C 0.820312 7.59375 0.410156 8.253906 0.398438 9.140625 C 0.386719 9.804688 0.394531 10.46875 0.394531 11.132812 Z M 6.816406 3.402344 C 6.828125 1.789062 5.550781 0.492188 3.941406 0.472656 C 2.371094 0.457031 1.011719 1.78125 0.988281 3.351562 C 0.964844 4.929688 2.277344 6.238281 3.890625 6.253906 C 5.53125 6.269531 6.808594 5.023438 6.816406 3.402344 Z M 6.816406 3.402344 " fill-opacity="1" fill-rule="nonzero"/></g><g clip-path="url(#id43)"><path fill="#15302d" d="M 0.394531 11.132812 C 0.394531 10.46875 0.386719 9.804688 0.398438 9.140625 C 0.410156 8.253906 0.820312 7.59375 1.664062 7.300781 C 3.1875 6.769531 4.742188 6.769531 6.269531 7.289062 C 7.167969 7.59375 7.582031 8.285156 7.585938 9.214844 C 7.59375 10.445312 7.605469 11.679688 7.582031 12.910156 C 7.566406 13.859375 7.21875 14.675781 6.671875 15.480469 C 6.304688 16.023438 6.238281 16.789062 6.105469 17.464844 C 5.910156 18.425781 5.785156 19.402344 5.617188 20.371094 C 5.492188 21.089844 5.144531 21.371094 4.410156 21.378906 C 4.121094 21.378906 3.835938 21.382812 3.546875 21.378906 C 2.804688 21.367188 2.488281 21.097656 2.363281 20.355469 C 2.132812 19.03125 1.929688 17.707031 1.664062 16.390625 C 1.585938 16.003906 1.382812 15.625 1.15625 15.292969 C 0.695312 14.609375 0.421875 13.882812 0.402344 13.066406 C 0.386719 12.421875 0.398438 11.777344 0.398438 11.132812 C 0.398438 11.132812 0.398438 11.132812 0.394531 11.132812 Z M 0.394531 11.132812 " fill-opacity="1" fill-rule="evenodd"/></g><g clip-path="url(#id44)"><path fill="#15302d" d="M 6.816406 3.402344 C 6.808594 5.023438 5.53125 6.269531 3.890625 6.253906 C 2.277344 6.238281 0.964844 4.929688 0.988281 3.351562 C 1.011719 1.78125 2.371094 0.457031 3.941406 0.472656 C 5.550781 0.492188 6.828125 1.789062 6.816406 3.402344 Z M 6.816406 3.402344 " fill-opacity="1" fill-rule="evenodd"/></g></g></g></g><g mask="url(#id46)"><g transform="matrix(1, 0, 0, 1, 170, 38)"><g clip-path="url(#id50)"><g clip-path="url(#id47)"><path fill="#15302d" d="M 0.664062 11.132812 C 0.667969 11.132812 0.667969 11.132812 0.667969 11.132812 C 0.667969 11.777344 0.65625 12.421875 0.671875 13.066406 C 0.691406 13.882812 0.964844 14.609375 1.425781 15.292969 C 1.652344 15.625 1.855469 16.003906 1.933594 16.390625 C 2.199219 17.707031 2.402344 19.03125 2.632812 20.355469 C 2.757812 21.097656 3.074219 21.367188 3.816406 21.378906 C 4.105469 21.382812 4.390625 21.378906 4.679688 21.378906 C 5.414062 21.371094 5.761719 21.089844 5.886719 20.371094 C 6.054688 19.402344 6.179688 18.425781 6.375 17.464844 C 6.507812 16.789062 6.574219 16.023438 6.941406 15.480469 C 7.488281 14.675781 7.835938 13.859375 7.851562 12.910156 C 7.875 11.679688 7.863281 10.445312 7.855469 9.214844 C 7.851562 8.285156 7.4375 7.59375 6.539062 7.289062 C 5.011719 6.769531 3.457031 6.769531 1.933594 7.300781 C 1.089844 7.59375 0.679688 8.253906 0.667969 9.140625 C 0.65625 9.804688 0.664062 10.46875 0.664062 11.132812 Z M 7.085938 3.402344 C 7.097656 1.789062 5.820312 0.492188 4.210938 0.472656 C 2.640625 0.457031 1.28125 1.78125 1.257812 3.351562 C 1.234375 4.929688 2.546875 6.238281 4.164062 6.253906 C 5.800781 6.269531 7.078125 5.023438 7.085938 3.402344 Z M 7.085938 3.402344 " fill-opacity="1" fill-rule="nonzero"/></g><g clip-path="url(#id48)"><path fill="#15302d" d="M 0.664062 11.132812 C 0.664062 10.46875 0.65625 9.804688 0.667969 9.140625 C 0.679688 8.253906 1.089844 7.59375 1.933594 7.300781 C 3.457031 6.769531 5.011719 6.769531 6.539062 7.289062 C 7.4375 7.59375 7.851562 8.285156 7.855469 9.214844 C 7.863281 10.445312 7.875 11.679688 7.851562 12.910156 C 7.835938 13.859375 7.488281 14.675781 6.941406 15.480469 C 6.574219 16.023438 6.507812 16.789062 6.375 17.464844 C 6.179688 18.425781 6.054688 19.402344 5.886719 20.371094 C 5.761719 21.089844 5.414062 21.371094 4.679688 21.378906 C 4.390625 21.378906 4.105469 21.382812 3.816406 21.378906 C 3.074219 21.367188 2.757812 21.097656 2.632812 20.355469 C 2.402344 19.03125 2.199219 17.707031 1.933594 16.390625 C 1.855469 16.003906 1.652344 15.625 1.425781 15.292969 C 0.964844 14.609375 0.691406 13.882812 0.671875 13.066406 C 0.65625 12.421875 0.667969 11.777344 0.667969 11.132812 C 0.667969 11.132812 0.667969 11.132812 0.664062 11.132812 Z M 0.664062 11.132812 " fill-opacity="1" fill-rule="evenodd"/></g><g clip-path="url(#id49)"><path fill="#15302d" d="M 7.085938 3.402344 C 7.078125 5.023438 5.800781 6.269531 4.164062 6.253906 C 2.546875 6.238281 1.234375 4.929688 1.257812 3.351562 C 1.28125 1.78125 2.640625 0.457031 4.210938 0.472656 C 5.820312 0.492188 7.097656 1.789062 7.085938 3.402344 Z M 7.085938 3.402344 " fill-opacity="1" fill-rule="evenodd"/></g></g></g></g><path fill="#dda83f" d="M 191.78125 54.714844 C 191.785156 54.714844 191.785156 54.714844 191.789062 54.714844 C 191.789062 55.429688 191.773438 56.144531 191.792969 56.863281 C 191.8125 57.769531 192.117188 58.578125 192.628906 59.335938 C 192.878906 59.703125 193.105469 60.128906 193.191406 60.558594 C 193.488281 62.019531 193.714844 63.492188 193.96875 64.960938 C 194.109375 65.785156 194.457031 66.085938 195.285156 66.097656 C 195.601562 66.101562 195.921875 66.101562 196.242188 66.097656 C 197.0625 66.089844 197.445312 65.777344 197.585938 64.980469 C 197.769531 63.90625 197.910156 62.820312 198.125 61.75 C 198.277344 60.996094 198.347656 60.148438 198.757812 59.546875 C 199.363281 58.648438 199.75 57.746094 199.769531 56.6875 C 199.792969 55.320312 199.777344 53.953125 199.773438 52.582031 C 199.769531 51.550781 199.304688 50.78125 198.308594 50.441406 C 196.609375 49.867188 194.886719 49.867188 193.191406 50.457031 C 192.253906 50.78125 191.796875 51.515625 191.785156 52.503906 C 191.773438 53.238281 191.78125 53.976562 191.78125 54.714844 Z M 198.917969 46.125 C 198.929688 44.335938 197.511719 42.890625 195.722656 42.871094 C 193.976562 42.851562 192.464844 44.324219 192.441406 46.070312 C 192.417969 47.820312 193.871094 49.273438 195.667969 49.292969 C 197.488281 49.3125 198.90625 47.925781 198.917969 46.125 Z M 198.917969 46.125 " fill-opacity="1" fill-rule="nonzero"/><path fill="#dda83f" d="M 191.78125 54.714844 C 191.78125 53.976562 191.773438 53.238281 191.785156 52.503906 C 191.796875 51.515625 192.257812 50.78125 193.191406 50.457031 C 194.886719 49.867188 196.609375 49.867188 198.308594 50.441406 C 199.304688 50.78125 199.769531 51.550781 199.773438 52.582031 C 199.777344 53.953125 199.792969 55.320312 199.769531 56.6875 C 199.75 57.746094 199.363281 58.648438 198.757812 59.546875 C 198.347656 60.148438 198.277344 60.996094 198.125 61.75 C 197.910156 62.820312 197.769531 63.90625 197.585938 64.980469 C 197.445312 65.777344 197.0625 66.089844 196.242188 66.097656 C 195.921875 66.101562 195.601562 66.101562 195.285156 66.097656 C 194.457031 66.085938 194.109375 65.785156 193.96875 64.960938 C 193.714844 63.492188 193.488281 62.019531 193.191406 60.558594 C 193.105469 60.128906 192.878906 59.703125 192.628906 59.335938 C 192.117188 58.578125 191.8125 57.769531 191.792969 56.863281 C 191.773438 56.144531 191.789062 55.429688 191.789062 54.714844 C 191.785156 54.714844 191.785156 54.714844 191.78125 54.714844 Z M 191.78125 54.714844 " fill-opacity="1" fill-rule="evenodd"/><path fill="#dda83f" d="M 198.917969 46.125 C 198.90625 47.925781 197.488281 49.3125 195.667969 49.292969 C 193.871094 49.273438 192.417969 47.820312 192.441406 46.070312 C 192.464844 44.324219 193.976562 42.851562 195.722656 42.871094 C 197.511719 42.890625 198.929688 44.335938 198.917969 46.125 Z M 198.917969 46.125 " fill-opacity="1" fill-rule="evenodd"/><path fill="#dda83f" d="M 176.273438 54.714844 C 176.277344 54.714844 176.277344 54.714844 176.28125 54.714844 C 176.28125 55.429688 176.265625 56.144531 176.28125 56.863281 C 176.304688 57.769531 176.609375 58.578125 177.121094 59.335938 C 177.371094 59.703125 177.597656 60.128906 177.683594 60.558594 C 177.980469 62.019531 178.207031 63.492188 178.460938 64.960938 C 178.601562 65.785156 178.949219 66.085938 179.777344 66.097656 C 180.09375 66.101562 180.414062 66.101562 180.734375 66.097656 C 181.554688 66.089844 181.9375 65.777344 182.074219 64.980469 C 182.261719 63.90625 182.402344 62.820312 182.617188 61.75 C 182.765625 60.996094 182.839844 60.148438 183.25 59.546875 C 183.855469 58.648438 184.242188 57.746094 184.257812 56.6875 C 184.285156 55.320312 184.269531 53.953125 184.265625 52.582031 C 184.261719 51.550781 183.796875 50.78125 182.800781 50.441406 C 181.101562 49.867188 179.378906 49.867188 177.683594 50.457031 C 176.746094 50.78125 176.289062 51.515625 176.277344 52.503906 C 176.265625 53.238281 176.273438 53.976562 176.273438 54.714844 Z M 183.410156 46.125 C 183.421875 44.335938 182.003906 42.890625 180.214844 42.871094 C 178.46875 42.851562 176.957031 44.324219 176.933594 46.070312 C 176.910156 47.820312 178.363281 49.273438 180.160156 49.292969 C 181.980469 49.3125 183.398438 47.925781 183.410156 46.125 Z M 183.410156 46.125 " fill-opacity="1" fill-rule="nonzero"/><path fill="#dda83f" d="M 176.273438 54.714844 C 176.273438 53.976562 176.265625 53.238281 176.277344 52.503906 C 176.289062 51.515625 176.746094 50.78125 177.683594 50.457031 C 179.378906 49.867188 181.101562 49.867188 182.800781 50.441406 C 183.796875 50.78125 184.261719 51.550781 184.265625 52.582031 C 184.269531 53.953125 184.285156 55.320312 184.257812 56.6875 C 184.242188 57.746094 183.855469 58.648438 183.25 59.546875 C 182.839844 60.148438 182.765625 60.996094 182.617188 61.75 C 182.402344 62.820312 182.261719 63.90625 182.074219 64.980469 C 181.9375 65.777344 181.554688 66.089844 180.734375 66.097656 C 180.414062 66.101562 180.09375 66.101562 179.777344 66.097656 C 178.949219 66.085938 178.601562 65.785156 178.460938 64.960938 C 178.207031 63.492188 177.980469 62.019531 177.683594 60.558594 C 177.597656 60.128906 177.371094 59.703125 177.121094 59.335938 C 176.609375 58.578125 176.304688 57.769531 176.28125 56.863281 C 176.265625 56.144531 176.28125 55.429688 176.28125 54.714844 C 176.277344 54.714844 176.277344 54.714844 176.273438 54.714844 Z M 176.273438 54.714844 " fill-opacity="1" fill-rule="evenodd"/><path fill="#dda83f" d="M 183.410156 46.125 C 183.398438 47.925781 181.980469 49.3125 180.160156 49.292969 C 178.363281 49.273438 176.910156 47.820312 176.933594 46.070312 C 176.957031 44.324219 178.46875 42.851562 180.214844 42.871094 C 182.003906 42.890625 183.421875 44.335938 183.410156 46.125 Z M 183.410156 46.125 " fill-opacity="1" fill-rule="evenodd"/><g mask="url(#id51)"><g transform="matrix(1, 0, 0, 1, 191, 42)"><g clip-path="url(#id55)"><g clip-path="url(#id52)"><path fill="#15302d" d="M 0.78125 12.714844 C 0.785156 12.714844 0.785156 12.714844 0.789062 12.714844 C 0.789062 13.429688 0.773438 14.144531 0.792969 14.863281 C 0.8125 15.769531 1.117188 16.578125 1.628906 17.335938 C 1.878906 17.703125 2.105469 18.128906 2.191406 18.558594 C 2.488281 20.019531 2.714844 21.492188 2.96875 22.960938 C 3.109375 23.785156 3.457031 24.085938 4.285156 24.097656 C 4.601562 24.101562 4.921875 24.101562 5.242188 24.097656 C 6.0625 24.089844 6.445312 23.777344 6.585938 22.980469 C 6.769531 21.90625 6.910156 20.820312 7.125 19.75 C 7.277344 18.996094 7.347656 18.148438 7.757812 17.546875 C 8.363281 16.648438 8.75 15.746094 8.769531 14.6875 C 8.792969 13.320312 8.777344 11.953125 8.773438 10.582031 C 8.769531 9.550781 8.304688 8.78125 7.308594 8.441406 C 5.609375 7.867188 3.886719 7.867188 2.191406 8.457031 C 1.253906 8.78125 0.796875 9.515625 0.785156 10.503906 C 0.773438 11.238281 0.78125 11.976562 0.78125 12.714844 Z M 7.917969 4.125 C 7.929688 2.335938 6.511719 0.890625 4.722656 0.871094 C 2.976562 0.851562 1.464844 2.324219 1.441406 4.070312 C 1.417969 5.820312 2.871094 7.273438 4.667969 7.292969 C 6.488281 7.3125 7.90625 5.925781 7.917969 4.125 Z M 7.917969 4.125 " fill-opacity="1" fill-rule="nonzero"/></g><g clip-path="url(#id53)"><path fill="#15302d" d="M 0.78125 12.714844 C 0.78125 11.976562 0.773438 11.238281 0.785156 10.503906 C 0.796875 9.515625 1.257812 8.78125 2.191406 8.457031 C 3.886719 7.867188 5.609375 7.867188 7.308594 8.441406 C 8.304688 8.78125 8.769531 9.550781 8.773438 10.582031 C 8.777344 11.953125 8.792969 13.320312 8.769531 14.6875 C 8.75 15.746094 8.363281 16.648438 7.757812 17.546875 C 7.347656 18.148438 7.277344 18.996094 7.125 19.75 C 6.910156 20.820312 6.769531 21.90625 6.585938 22.980469 C 6.445312 23.777344 6.0625 24.089844 5.242188 24.097656 C 4.921875 24.101562 4.601562 24.101562 4.285156 24.097656 C 3.457031 24.085938 3.109375 23.785156 2.96875 22.960938 C 2.714844 21.492188 2.488281 20.019531 2.191406 18.558594 C 2.105469 18.128906 1.878906 17.703125 1.628906 17.335938 C 1.117188 16.578125 0.8125 15.769531 0.792969 14.863281 C 0.773438 14.144531 0.789062 13.429688 0.789062 12.714844 C 0.785156 12.714844 0.785156 12.714844 0.78125 12.714844 Z M 0.78125 12.714844 " fill-opacity="1" fill-rule="evenodd"/></g><g clip-path="url(#id54)"><path fill="#15302d" d="M 7.917969 4.125 C 7.90625 5.925781 6.488281 7.3125 4.667969 7.292969 C 2.871094 7.273438 1.417969 5.820312 1.441406 4.070312 C 1.464844 2.324219 2.976562 0.851562 4.722656 0.871094 C 6.511719 0.890625 7.929688 2.335938 7.917969 4.125 Z M 7.917969 4.125 " fill-opacity="1" fill-rule="evenodd"/></g></g></g></g><g mask="url(#id56)"><g transform="matrix(1, 0, 0, 1, 176, 42)"><g clip-path="url(#id60)"><g clip-path="url(#id57)"><path fill="#15302d" d="M 0.273438 12.714844 C 0.277344 12.714844 0.277344 12.714844 0.28125 12.714844 C 0.28125 13.429688 0.265625 14.144531 0.28125 14.863281 C 0.304688 15.769531 0.609375 16.578125 1.121094 17.335938 C 1.371094 17.703125 1.597656 18.128906 1.683594 18.558594 C 1.980469 20.019531 2.207031 21.492188 2.460938 22.960938 C 2.601562 23.785156 2.949219 24.085938 3.777344 24.097656 C 4.09375 24.101562 4.414062 24.101562 4.734375 24.097656 C 5.554688 24.089844 5.9375 23.777344 6.074219 22.980469 C 6.261719 21.90625 6.402344 20.820312 6.617188 19.75 C 6.765625 18.996094 6.839844 18.148438 7.25 17.546875 C 7.855469 16.648438 8.242188 15.746094 8.257812 14.6875 C 8.285156 13.320312 8.269531 11.953125 8.265625 10.582031 C 8.261719 9.550781 7.796875 8.78125 6.800781 8.441406 C 5.101562 7.867188 3.378906 7.867188 1.683594 8.457031 C 0.746094 8.78125 0.289062 9.515625 0.277344 10.503906 C 0.265625 11.238281 0.273438 11.976562 0.273438 12.714844 Z M 7.410156 4.125 C 7.421875 2.335938 6.003906 0.890625 4.214844 0.871094 C 2.46875 0.851562 0.957031 2.324219 0.933594 4.070312 C 0.910156 5.820312 2.363281 7.273438 4.160156 7.292969 C 5.980469 7.3125 7.398438 5.925781 7.410156 4.125 Z M 7.410156 4.125 " fill-opacity="1" fill-rule="nonzero"/></g><g clip-path="url(#id58)"><path fill="#15302d" d="M 0.273438 12.714844 C 0.273438 11.976562 0.265625 11.238281 0.277344 10.503906 C 0.289062 9.515625 0.746094 8.78125 1.683594 8.457031 C 3.378906 7.867188 5.101562 7.867188 6.800781 8.441406 C 7.796875 8.78125 8.261719 9.550781 8.265625 10.582031 C 8.269531 11.953125 8.285156 13.320312 8.257812 14.6875 C 8.242188 15.746094 7.855469 16.648438 7.25 17.546875 C 6.839844 18.148438 6.765625 18.996094 6.617188 19.75 C 6.402344 20.820312 6.261719 21.90625 6.074219 22.980469 C 5.9375 23.777344 5.554688 24.089844 4.734375 24.097656 C 4.414062 24.101562 4.09375 24.101562 3.777344 24.097656 C 2.949219 24.085938 2.601562 23.785156 2.460938 22.960938 C 2.207031 21.492188 1.980469 20.019531 1.683594 18.558594 C 1.597656 18.128906 1.371094 17.703125 1.121094 17.335938 C 0.609375 16.578125 0.304688 15.769531 0.28125 14.863281 C 0.265625 14.144531 0.28125 13.429688 0.28125 12.714844 C 0.277344 12.714844 0.277344 12.714844 0.273438 12.714844 Z M 0.273438 12.714844 " fill-opacity="1" fill-rule="evenodd"/></g><g clip-path="url(#id59)"><path fill="#15302d" d="M 7.410156 4.125 C 7.398438 5.925781 5.980469 7.3125 4.160156 7.292969 C 2.363281 7.273438 0.910156 5.820312 0.933594 4.070312 C 0.957031 2.324219 2.46875 0.851562 4.214844 0.871094 C 6.003906 0.890625 7.421875 2.335938 7.410156 4.125 Z M 7.410156 4.125 " fill-opacity="1" fill-rule="evenodd"/></g></g></g></g><g clip-path="url(#id61)"><path fill="#dda83f" d="M 183.308594 58.894531 C 183.3125 58.894531 183.3125 58.894531 183.3125 58.894531 C 183.3125 59.6875 183.300781 60.484375 183.316406 61.28125 C 183.339844 62.289062 183.679688 63.1875 184.25 64.027344 C 184.527344 64.4375 184.777344 64.910156 184.875 65.386719 C 185.203125 67.007812 185.453125 68.648438 185.738281 70.277344 C 185.894531 71.195312 186.28125 71.53125 187.199219 71.542969 C 187.554688 71.546875 187.910156 71.546875 188.261719 71.542969 C 189.171875 71.53125 189.601562 71.1875 189.753906 70.300781 C 189.960938 69.105469 190.117188 67.898438 190.355469 66.710938 C 190.523438 65.875 190.601562 64.933594 191.058594 64.261719 C 191.730469 63.265625 192.160156 62.261719 192.179688 61.085938 C 192.207031 59.566406 192.195312 58.046875 192.1875 56.523438 C 192.183594 55.375 191.667969 54.523438 190.558594 54.144531 C 188.671875 53.507812 186.757812 53.507812 184.875 54.160156 C 183.835938 54.523438 183.324219 55.339844 183.308594 56.4375 C 183.300781 57.253906 183.308594 58.074219 183.308594 58.894531 Z M 191.238281 49.347656 C 191.25 47.359375 189.675781 45.757812 187.6875 45.734375 C 185.746094 45.710938 184.066406 47.347656 184.039062 49.289062 C 184.011719 51.234375 185.628906 52.847656 187.625 52.871094 C 189.648438 52.890625 191.226562 51.351562 191.238281 49.347656 Z M 191.238281 49.347656 " fill-opacity="1" fill-rule="nonzero"/></g><g clip-path="url(#id62)"><path fill="#dda83f" d="M 183.308594 58.894531 C 183.308594 58.074219 183.300781 57.253906 183.3125 56.4375 C 183.324219 55.339844 183.835938 54.523438 184.875 54.160156 C 186.757812 53.507812 188.671875 53.507812 190.558594 54.144531 C 191.667969 54.523438 192.183594 55.375 192.1875 56.523438 C 192.195312 58.046875 192.207031 59.566406 192.179688 61.085938 C 192.160156 62.261719 191.730469 63.265625 191.058594 64.261719 C 190.601562 64.933594 190.523438 65.875 190.355469 66.710938 C 190.117188 67.898438 189.960938 69.105469 189.753906 70.300781 C 189.601562 71.1875 189.171875 71.53125 188.261719 71.542969 C 187.910156 71.546875 187.554688 71.546875 187.199219 71.542969 C 186.28125 71.53125 185.894531 71.195312 185.738281 70.277344 C 185.453125 68.648438 185.203125 67.007812 184.875 65.386719 C 184.777344 64.910156 184.527344 64.4375 184.25 64.027344 C 183.679688 63.1875 183.339844 62.289062 183.316406 61.28125 C 183.300781 60.484375 183.3125 59.6875 183.3125 58.894531 C 183.3125 58.894531 183.308594 58.894531 183.308594 58.894531 Z M 183.308594 58.894531 " fill-opacity="1" fill-rule="evenodd"/></g><path fill="#dda83f" d="M 191.238281 49.347656 C 191.226562 51.351562 189.648438 52.890625 187.625 52.871094 C 185.628906 52.847656 184.011719 51.234375 184.039062 49.289062 C 184.066406 47.347656 185.746094 45.710938 187.6875 45.734375 C 189.675781 45.757812 191.25 47.359375 191.238281 49.347656 Z M 191.238281 49.347656 " fill-opacity="1" fill-rule="evenodd"/><g clip-path="url(#id63)"><g mask="url(#id64)"><g transform="matrix(1, 0, 0, 1, 183, 45)"><g clip-path="url(#id68)"><g clip-path="url(#id65)"><path fill="#ffd3db" d="M 0.308594 13.894531 C 0.3125 13.894531 0.3125 13.894531 0.3125 13.894531 C 0.3125 14.6875 0.300781 15.484375 0.316406 16.28125 C 0.339844 17.289062 0.679688 18.1875 1.25 19.027344 C 1.527344 19.4375 1.777344 19.910156 1.875 20.386719 C 2.203125 22.007812 2.453125 23.648438 2.738281 25.277344 C 2.894531 26.195312 3.28125 26.53125 4.199219 26.542969 C 4.554688 26.546875 4.910156 26.546875 5.261719 26.542969 C 6.171875 26.53125 6.601562 26.1875 6.753906 25.300781 C 6.960938 24.105469 7.117188 22.898438 7.355469 21.710938 C 7.523438 20.875 7.601562 19.933594 8.058594 19.261719 C 8.730469 18.265625 9.160156 17.261719 9.179688 16.085938 C 9.207031 14.566406 9.195312 13.046875 9.1875 11.523438 C 9.183594 10.375 8.667969 9.523438 7.558594 9.144531 C 5.671875 8.507812 3.757812 8.507812 1.875 9.160156 C 0.835938 9.523438 0.324219 10.339844 0.308594 11.4375 C 0.300781 12.253906 0.308594 13.074219 0.308594 13.894531 Z M 8.238281 4.347656 C 8.25 2.359375 6.675781 0.757812 4.6875 0.734375 C 2.746094 0.710938 1.066406 2.347656 1.039062 4.289062 C 1.011719 6.234375 2.628906 7.847656 4.625 7.871094 C 6.648438 7.890625 8.226562 6.351562 8.238281 4.347656 Z M 8.238281 4.347656 " fill-opacity="1" fill-rule="nonzero"/></g><g clip-path="url(#id66)"><path fill="#ffd3db" d="M 0.308594 13.894531 C 0.308594 13.074219 0.300781 12.253906 0.3125 11.4375 C 0.324219 10.339844 0.835938 9.523438 1.875 9.160156 C 3.757812 8.507812 5.671875 8.507812 7.558594 9.144531 C 8.667969 9.523438 9.183594 10.375 9.1875 11.523438 C 9.195312 13.046875 9.207031 14.566406 9.179688 16.085938 C 9.160156 17.261719 8.730469 18.265625 8.058594 19.261719 C 7.601562 19.933594 7.523438 20.875 7.355469 21.710938 C 7.117188 22.898438 6.960938 24.105469 6.753906 25.300781 C 6.601562 26.1875 6.171875 26.53125 5.261719 26.542969 C 4.910156 26.546875 4.554688 26.546875 4.199219 26.542969 C 3.28125 26.53125 2.894531 26.195312 2.738281 25.277344 C 2.453125 23.648438 2.203125 22.007812 1.875 20.386719 C 1.777344 19.910156 1.527344 19.4375 1.25 19.027344 C 0.679688 18.1875 0.339844 17.289062 0.316406 16.28125 C 0.300781 15.484375 0.3125 14.6875 0.3125 13.894531 C 0.3125 13.894531 0.308594 13.894531 0.308594 13.894531 Z M 0.308594 13.894531 " fill-opacity="1" fill-rule="evenodd"/></g><g clip-path="url(#id67)"><path fill="#ffd3db" d="M 8.238281 4.347656 C 8.226562 6.351562 6.648438 7.890625 4.625 7.871094 C 2.628906 7.847656 1.011719 6.234375 1.039062 4.289062 C 1.066406 2.347656 2.746094 0.710938 4.6875 0.734375 C 6.675781 0.757812 8.25 2.359375 8.238281 4.347656 Z M 8.238281 4.347656 " fill-opacity="1" fill-rule="evenodd"/></g></g></g></g></g><g fill="#cedeeb" fill-opacity="1"><g transform="translate(95.418209, 28.276667)"><g><path d="M 7.34375 0.21875 C 10.808594 0.21875 13.269531 -1.507812 13.269531 -4.53125 C 13.269531 -7.75 10.445312 -8.664062 8.035156 -9.386719 C 6.234375 -9.925781 4.671875 -10.300781 4.671875 -11.632812 C 4.671875 -12.851562 5.804688 -13.414062 7.136719 -13.414062 C 8.628906 -13.414062 9.695312 -12.71875 10.191406 -11.191406 L 13.179688 -11.929688 C 12.542969 -14.972656 9.730469 -16.105469 6.9375 -16.105469 C 3.75 -16.105469 1.332031 -14.433594 1.332031 -11.511719 C 1.332031 -8.542969 3.824219 -7.695312 6.15625 -6.96875 C 8.089844 -6.375 9.851562 -5.914062 9.859375 -4.351562 C 9.871094 -3.066406 8.804688 -2.472656 7.398438 -2.472656 C 5.738281 -2.472656 4.507812 -3.320312 4.046875 -5.144531 L 0.78125 -4.398438 C 1.265625 -1.417969 3.925781 0.21875 7.34375 0.21875 Z M 7.34375 0.21875 "/></g></g></g><g fill="#cedeeb" fill-opacity="1"><g transform="translate(109.674902, 28.276667)"><g><path d="M 9.089844 0.21875 C 13.753906 0.21875 17.203125 -2.96875 17.203125 -7.949219 C 17.203125 -12.941406 13.753906 -16.105469 9.089844 -16.105469 C 4.417969 -16.105469 0.96875 -12.941406 0.96875 -7.949219 C 0.96875 -2.96875 4.417969 0.21875 9.089844 0.21875 Z M 9.089844 -2.804688 C 6.355469 -2.804688 4.253906 -4.726562 4.253906 -7.949219 C 4.253906 -11.160156 6.355469 -13.070312 9.089844 -13.070312 C 11.828125 -13.070312 13.929688 -11.160156 13.929688 -7.949219 C 13.929688 -4.726562 11.828125 -2.804688 9.089844 -2.804688 Z M 9.089844 -2.804688 "/></g></g></g><g fill="#cedeeb" fill-opacity="1"><g transform="translate(127.855752, 28.276667)"><g><path d="M 9.089844 0.21875 C 12.632812 0.21875 15.46875 -1.605469 16.601562 -4.617188 L 13.523438 -5.738281 C 12.820312 -3.890625 11.136719 -2.8125 9.089844 -2.8125 C 6.355469 -2.8125 4.253906 -4.738281 4.253906 -7.949219 C 4.253906 -11.160156 6.355469 -13.070312 9.089844 -13.070312 C 11.136719 -13.070312 12.820312 -12.003906 13.523438 -10.15625 L 16.601562 -11.28125 C 15.46875 -14.292969 12.632812 -16.105469 9.089844 -16.105469 C 4.417969 -16.105469 0.96875 -12.941406 0.96875 -7.949219 C 0.96875 -2.957031 4.417969 0.21875 9.089844 0.21875 Z M 9.089844 0.21875 "/></g></g></g><g fill="#cedeeb" fill-opacity="1"><g transform="translate(145.102283, 28.276667)"><g><path d="M 2.054688 0 L 5.355469 0 L 5.355469 -15.886719 L 2.054688 -15.886719 Z M 2.054688 0 "/></g></g></g><g fill="#cedeeb" fill-opacity="1"><g transform="translate(152.499938, 28.276667)"><g><path d="M 12.6875 0 L 16.0625 0 L 10.214844 -15.886719 L 6.179688 -15.886719 L 0.328125 0 L 3.703125 0 L 4.859375 -3.277344 L 11.53125 -3.277344 Z M 5.828125 -6.035156 L 8.203125 -12.773438 L 10.566406 -6.035156 Z M 5.828125 -6.035156 "/></g></g></g><g fill="#cedeeb" fill-opacity="1"><g transform="translate(168.889089, 28.276667)"><g><path d="M 5.355469 -2.914062 L 5.355469 -15.886719 L 2.054688 -15.886719 L 2.054688 0 L 10.335938 0 L 10.335938 -2.914062 Z M 5.355469 -2.914062 "/></g></g></g><g fill="#cedeeb" fill-opacity="1"><g transform="translate(179.683281, 28.276667)"><g/></g></g><g fill="#cedeeb" fill-opacity="1"><g transform="translate(185.531052, 28.276667)"><g><path d="M 9.089844 0.21875 C 12.632812 0.21875 15.46875 -1.605469 16.601562 -4.617188 L 13.523438 -5.738281 C 12.820312 -3.890625 11.136719 -2.8125 9.089844 -2.8125 C 6.355469 -2.8125 4.253906 -4.738281 4.253906 -7.949219 C 4.253906 -11.160156 6.355469 -13.070312 9.089844 -13.070312 C 11.136719 -13.070312 12.820312 -12.003906 13.523438 -10.15625 L 16.601562 -11.28125 C 15.46875 -14.292969 12.632812 -16.105469 9.089844 -16.105469 C 4.417969 -16.105469 0.96875 -12.941406 0.96875 -7.949219 C 0.96875 -2.957031 4.417969 0.21875 9.089844 0.21875 Z M 9.089844 0.21875 "/></g></g></g><g fill="#cedeeb" fill-opacity="1"><g transform="translate(202.777583, 28.276667)"><g><path d="M 12.6875 0 L 16.0625 0 L 10.214844 -15.886719 L 6.179688 -15.886719 L 0.328125 0 L 3.703125 0 L 4.859375 -3.277344 L 11.53125 -3.277344 Z M 5.828125 -6.035156 L 8.203125 -12.773438 L 10.566406 -6.035156 Z M 5.828125 -6.035156 "/></g></g></g><g fill="#cedeeb" fill-opacity="1"><g transform="translate(219.166734, 28.276667)"><g><path d="M 11.246094 -15.160156 C 10.378906 -15.632812 9.203125 -15.886719 7.277344 -15.886719 L 2.054688 -15.886719 L 2.054688 0 L 5.355469 0 L 5.355469 -5.695312 L 7.277344 -5.695312 C 9.222656 -5.695312 10.398438 -6.003906 11.269531 -6.597656 C 12.742188 -7.507812 13.378906 -9.15625 13.378906 -11.058594 C 13.378906 -12.949219 12.730469 -14.367188 11.246094 -15.160156 Z M 9.378906 -9.003906 C 8.839844 -8.542969 8.023438 -8.453125 6.816406 -8.453125 L 5.355469 -8.453125 L 5.355469 -13.125 L 6.816406 -13.125 C 7.992188 -13.125 8.785156 -13.070312 9.34375 -12.644531 C 9.773438 -12.300781 10.058594 -11.742188 10.058594 -10.851562 C 10.058594 -9.9375 9.796875 -9.367188 9.378906 -9.003906 Z M 9.378906 -9.003906 "/></g></g></g><g fill="#cedeeb" fill-opacity="1"><g transform="translate(233.280525, 28.276667)"><g><path d="M 2.054688 0 L 5.355469 0 L 5.355469 -15.886719 L 2.054688 -15.886719 Z M 2.054688 0 "/></g></g></g><g fill="#cedeeb" fill-opacity="1"><g transform="translate(240.67818, 28.276667)"><g><path d="M 11.269531 -15.886719 L 0.441406 -15.886719 L 0.441406 -12.984375 L 4.234375 -12.984375 L 4.234375 0 L 7.496094 0 L 7.496094 -12.984375 L 11.269531 -12.984375 Z M 11.269531 -15.886719 "/></g></g></g><g fill="#cedeeb" fill-opacity="1"><g transform="translate(252.384718, 28.276667)"><g><path d="M 12.6875 0 L 16.0625 0 L 10.214844 -15.886719 L 6.179688 -15.886719 L 0.328125 0 L 3.703125 0 L 4.859375 -3.277344 L 11.53125 -3.277344 Z M 5.828125 -6.035156 L 8.203125 -12.773438 L 10.566406 -6.035156 Z M 5.828125 -6.035156 "/></g></g></g><g fill="#cedeeb" fill-opacity="1"><g transform="translate(268.773869, 28.276667)"><g><path d="M 5.355469 -2.914062 L 5.355469 -15.886719 L 2.054688 -15.886719 L 2.054688 0 L 10.335938 0 L 10.335938 -2.914062 Z M 5.355469 -2.914062 "/></g></g></g></svg>