<svg xmlns="http://www.w3.org/2000/svg" xmlns:xlink="http://www.w3.org/1999/xlink" width="500" zoomAndPan="magnify" viewBox="0 0 375 74.999997" height="100" preserveAspectRatio="xMidYMid meet" version="1.0"><defs><g/><clipPath id="id1"><path d="M 166.886719 38 L 197 38 L 197 67.804688 L 166.886719 67.804688 Z M 166.886719 38 " clip-rule="nonzero"/></clipPath><clipPath id="id2"><path d="M 186 34.054688 L 208.136719 34.054688 L 208.136719 56 L 186 56 Z M 186 34.054688 " clip-rule="nonzero"/></clipPath></defs><rect x="-37.5" width="450" fill="#050a30" y="-7.5" height="89.999996" fill-opacity="1"/><rect x="-37.5" width="450" fill="#ffffff" y="-7.5" height="89.999996" fill-opacity="1"/><rect x="-37.5" width="450" fill="#050a30" y="-7.5" height="89.999996" fill-opacity="1"/><path fill="#cae8ff" d="M 181.476562 46.71875 C 181.472656 46.71875 181.472656 46.71875 181.476562 46.71875 C 179.730469 46.71875 178.144531 47.4375 177 48.589844 C 175.859375 49.738281 175.148438 51.339844 175.148438 53.097656 C 175.148438 54.859375 175.859375 56.457031 177 57.609375 C 178.144531 58.761719 179.730469 59.476562 181.472656 59.476562 C 183.21875 59.476562 184.804688 58.761719 185.945312 57.609375 C 187.089844 56.457031 187.800781 54.855469 187.796875 53.097656 L 186.242188 53.097656 C 186.242188 54.429688 185.710938 55.628906 184.847656 56.5 C 183.980469 57.371094 182.792969 57.910156 181.472656 57.910156 C 180.152344 57.910156 178.96875 57.371094 178.101562 56.5 C 177.238281 55.628906 176.703125 54.429688 176.703125 53.097656 C 176.703125 51.765625 177.238281 50.570312 178.101562 49.695312 C 178.96875 48.824219 180.15625 48.289062 181.472656 48.289062 C 182.792969 48.289062 183.980469 48.824219 184.847656 49.695312 C 185.710938 50.570312 186.242188 51.765625 186.242188 53.097656 L 187.796875 53.097656 C 187.796875 51.339844 187.089844 49.738281 185.945312 48.589844 C 184.804688 47.4375 183.21875 46.71875 181.476562 46.71875 " fill-opacity="1" fill-rule="nonzero"/><g clip-path="url(#id1)"><path fill="#f4f6fc" d="M 187.785156 42.578125 C 186.742188 41.941406 185.601562 41.460938 184.386719 41.160156 L 184.203125 41.921875 L 184.980469 41.921875 L 184.980469 40.519531 C 184.980469 39.9375 184.746094 39.402344 184.363281 39.019531 C 183.988281 38.636719 183.457031 38.398438 182.875 38.398438 L 180.074219 38.398438 C 179.496094 38.398438 178.964844 38.636719 178.585938 39.019531 C 178.207031 39.402344 177.96875 39.9375 177.96875 40.519531 L 177.96875 41.921875 L 178.746094 41.921875 L 178.5625 41.160156 C 177.347656 41.460938 176.203125 41.941406 175.164062 42.578125 L 175.566406 43.25 L 176.117188 42.695312 L 175.132812 41.707031 C 174.929688 41.5 174.691406 41.34375 174.4375 41.238281 C 174.183594 41.136719 173.914062 41.085938 173.644531 41.085938 C 173.378906 41.085938 173.109375 41.136719 172.855469 41.238281 C 172.601562 41.34375 172.363281 41.5 172.15625 41.707031 L 170.175781 43.703125 C 169.972656 43.910156 169.816406 44.152344 169.714844 44.40625 C 169.609375 44.664062 169.558594 44.933594 169.558594 45.207031 C 169.558594 45.476562 169.609375 45.75 169.714844 46.003906 C 169.816406 46.257812 169.972656 46.5 170.175781 46.707031 L 171.15625 47.699219 L 171.707031 47.140625 L 171.042969 46.734375 C 170.410156 47.785156 169.933594 48.941406 169.636719 50.164062 L 170.390625 50.351562 L 170.390625 49.566406 L 169 49.566406 C 168.421875 49.566406 167.890625 49.804688 167.511719 50.1875 C 167.132812 50.566406 166.894531 51.105469 166.898438 51.6875 L 166.898438 54.515625 C 166.898438 55.097656 167.132812 55.632812 167.511719 56.015625 C 167.890625 56.398438 168.421875 56.636719 169 56.636719 L 170.390625 56.636719 L 170.390625 55.851562 L 169.636719 56.039062 C 169.933594 57.261719 170.410156 58.417969 171.042969 59.464844 L 171.707031 59.058594 L 171.15625 58.503906 L 170.175781 59.496094 C 169.972656 59.703125 169.816406 59.941406 169.714844 60.199219 C 169.609375 60.453125 169.558594 60.726562 169.558594 60.996094 C 169.558594 61.269531 169.609375 61.539062 169.714844 61.796875 C 169.816406 62.050781 169.972656 62.292969 170.175781 62.496094 L 172.15625 64.496094 C 172.363281 64.703125 172.601562 64.859375 172.855469 64.964844 C 173.109375 65.066406 173.378906 65.117188 173.644531 65.117188 C 173.914062 65.117188 174.183594 65.066406 174.4375 64.964844 C 174.691406 64.859375 174.929688 64.703125 175.132812 64.496094 L 176.117188 63.507812 L 175.566406 62.953125 L 175.164062 63.621094 C 176.207031 64.257812 177.347656 64.742188 178.5625 65.039062 L 178.746094 64.277344 L 177.96875 64.277344 L 177.96875 65.679688 C 177.96875 66.261719 178.207031 66.796875 178.585938 67.179688 C 178.960938 67.5625 179.496094 67.804688 180.074219 67.800781 L 182.875 67.800781 C 183.457031 67.800781 183.984375 67.5625 184.363281 67.179688 C 184.746094 66.800781 184.980469 66.261719 184.980469 65.679688 L 184.980469 64.277344 L 184.203125 64.277344 L 184.386719 65.039062 C 185.601562 64.742188 186.742188 64.257812 187.785156 63.621094 L 187.382812 62.953125 L 186.835938 63.507812 L 187.816406 64.496094 C 188.019531 64.703125 188.257812 64.859375 188.511719 64.964844 C 188.765625 65.066406 189.035156 65.117188 189.304688 65.117188 C 189.574219 65.117188 189.839844 65.066406 190.09375 64.964844 C 190.347656 64.859375 190.589844 64.703125 190.792969 64.496094 L 192.773438 62.496094 C 192.976562 62.292969 193.132812 62.050781 193.238281 61.796875 C 193.339844 61.539062 193.390625 61.269531 193.390625 60.996094 C 193.390625 60.726562 193.339844 60.453125 193.238281 60.199219 C 193.132812 59.941406 192.976562 59.703125 192.773438 59.496094 L 191.792969 58.503906 L 191.242188 59.058594 L 191.910156 59.464844 C 192.539062 58.414062 193.015625 57.261719 193.3125 56.039062 L 192.558594 55.851562 L 192.558594 56.636719 L 193.949219 56.636719 C 194.527344 56.636719 195.058594 56.398438 195.4375 56.015625 C 195.816406 55.636719 196.054688 55.097656 196.050781 54.515625 C 196.050781 54.082031 195.703125 53.730469 195.273438 53.730469 C 194.847656 53.730469 194.496094 54.082031 194.496094 54.515625 C 194.496094 54.671875 194.4375 54.804688 194.335938 54.90625 C 194.234375 55.007812 194.101562 55.070312 193.949219 55.070312 L 191.949219 55.070312 L 191.804688 55.667969 C 191.542969 56.734375 191.128906 57.742188 190.578125 58.65625 L 190.261719 59.179688 L 191.675781 60.605469 C 191.730469 60.664062 191.769531 60.722656 191.796875 60.789062 C 191.824219 60.855469 191.839844 60.925781 191.839844 60.996094 C 191.839844 61.066406 191.824219 61.140625 191.796875 61.207031 C 191.773438 61.269531 191.734375 61.332031 191.675781 61.386719 L 189.695312 63.386719 C 189.640625 63.445312 189.578125 63.480469 189.511719 63.507812 C 189.449219 63.535156 189.375 63.550781 189.308594 63.550781 C 189.234375 63.550781 189.164062 63.535156 189.101562 63.507812 C 189.035156 63.484375 188.972656 63.445312 188.917969 63.386719 L 187.503906 61.960938 L 186.984375 62.28125 C 186.078125 62.835938 185.082031 63.253906 184.019531 63.515625 L 183.429688 63.660156 L 183.429688 65.679688 C 183.429688 65.832031 183.367188 65.96875 183.269531 66.070312 C 183.167969 66.171875 183.035156 66.230469 182.878906 66.234375 L 180.074219 66.234375 C 179.921875 66.234375 179.789062 66.171875 179.6875 66.070312 C 179.585938 65.96875 179.527344 65.835938 179.527344 65.679688 L 179.527344 63.660156 L 178.933594 63.515625 C 177.875 63.253906 176.878906 62.832031 175.972656 62.28125 L 175.449219 61.960938 L 174.035156 63.386719 C 173.980469 63.445312 173.921875 63.480469 173.855469 63.507812 C 173.789062 63.535156 173.71875 63.550781 173.648438 63.550781 C 173.578125 63.550781 173.507812 63.535156 173.441406 63.507812 C 173.378906 63.484375 173.316406 63.445312 173.261719 63.386719 L 171.277344 61.386719 C 171.222656 61.332031 171.183594 61.269531 171.15625 61.207031 C 171.128906 61.140625 171.117188 61.066406 171.117188 60.996094 C 171.117188 60.925781 171.128906 60.855469 171.15625 60.789062 C 171.183594 60.722656 171.222656 60.660156 171.277344 60.605469 L 172.691406 59.179688 L 172.375 58.65625 C 171.824219 57.742188 171.410156 56.734375 171.148438 55.667969 L 171.003906 55.070312 L 169 55.070312 C 168.847656 55.070312 168.714844 55.007812 168.613281 54.90625 C 168.511719 54.804688 168.453125 54.671875 168.449219 54.515625 L 168.449219 51.6875 C 168.449219 51.53125 168.511719 51.398438 168.613281 51.296875 C 168.714844 51.195312 168.84375 51.132812 169 51.132812 L 171 51.132812 L 171.148438 50.535156 C 171.40625 49.46875 171.824219 48.464844 172.371094 47.546875 L 172.6875 47.023438 L 171.273438 45.597656 C 171.21875 45.542969 171.179688 45.480469 171.152344 45.414062 C 171.125 45.347656 171.113281 45.277344 171.113281 45.207031 C 171.113281 45.132812 171.125 45.0625 171.152344 44.996094 C 171.179688 44.929688 171.21875 44.871094 171.273438 44.816406 L 173.257812 42.816406 C 173.3125 42.761719 173.371094 42.722656 173.4375 42.691406 C 173.503906 42.667969 173.574219 42.652344 173.644531 42.652344 C 173.714844 42.652344 173.785156 42.667969 173.851562 42.691406 C 173.917969 42.71875 173.976562 42.757812 174.035156 42.816406 L 175.445312 44.242188 L 175.96875 43.921875 C 176.875 43.367188 177.871094 42.949219 178.929688 42.6875 L 179.523438 42.542969 L 179.523438 40.523438 C 179.523438 40.367188 179.582031 40.234375 179.683594 40.132812 C 179.785156 40.03125 179.917969 39.96875 180.074219 39.96875 L 182.875 39.96875 C 183.03125 39.96875 183.164062 40.03125 183.265625 40.132812 C 183.367188 40.234375 183.425781 40.367188 183.425781 40.523438 L 183.425781 42.542969 L 184.019531 42.6875 C 185.078125 42.949219 186.074219 43.367188 186.980469 43.921875 C 187.347656 44.148438 187.828125 44.03125 188.046875 43.660156 C 188.269531 43.285156 188.152344 42.804688 187.785156 42.578125 " fill-opacity="1" fill-rule="nonzero"/></g><path fill="#5cb6f9" d="M 197.332031 40.09375 C 196.007812 40.09375 194.800781 40.636719 193.9375 41.515625 C 193.070312 42.386719 192.527344 43.605469 192.527344 44.9375 C 192.527344 46.273438 193.070312 47.492188 193.9375 48.363281 C 194.800781 49.238281 196.007812 49.785156 197.332031 49.785156 C 198.65625 49.785156 199.863281 49.238281 200.726562 48.363281 C 201.597656 47.492188 202.136719 46.273438 202.136719 44.9375 L 200.582031 44.9375 C 200.582031 45.84375 200.21875 46.660156 199.628906 47.253906 C 199.039062 47.851562 198.230469 48.214844 197.332031 48.214844 C 196.433594 48.214844 195.625 47.851562 195.035156 47.253906 C 194.445312 46.660156 194.082031 45.84375 194.082031 44.9375 C 194.082031 44.03125 194.445312 43.21875 195.035156 42.621094 C 195.625 42.027344 196.433594 41.664062 197.332031 41.664062 C 198.230469 41.664062 199.039062 42.027344 199.628906 42.621094 C 200.21875 43.21875 200.578125 44.03125 200.582031 44.9375 L 202.136719 44.9375 C 202.136719 43.605469 201.597656 42.386719 200.726562 41.515625 C 199.863281 40.636719 198.65625 40.09375 197.332031 40.09375 " fill-opacity="1" fill-rule="nonzero"/><g clip-path="url(#id2)"><path fill="#5cb6f9" d="M 192.925781 38.78125 L 193.449219 38.460938 C 194.085938 38.070312 194.789062 37.773438 195.539062 37.589844 L 196.128906 37.445312 L 196.128906 35.808594 C 196.128906 35.757812 196.148438 35.714844 196.183594 35.679688 C 196.21875 35.644531 196.261719 35.625 196.316406 35.625 L 198.347656 35.625 C 198.402344 35.625 198.445312 35.644531 198.480469 35.679688 C 198.515625 35.714844 198.535156 35.757812 198.535156 35.808594 L 198.535156 37.441406 L 199.125 37.589844 C 199.875 37.773438 200.578125 38.070312 201.214844 38.460938 L 201.738281 38.777344 L 202.882812 37.625 C 202.902344 37.605469 202.921875 37.59375 202.941406 37.582031 C 202.964844 37.574219 202.988281 37.570312 203.011719 37.570312 C 203.035156 37.570312 203.0625 37.574219 203.082031 37.582031 C 203.105469 37.59375 203.125 37.605469 203.144531 37.625 L 204.582031 39.074219 C 204.601562 39.09375 204.613281 39.113281 204.621094 39.136719 C 204.632812 39.15625 204.636719 39.183594 204.636719 39.207031 C 204.636719 39.230469 204.632812 39.253906 204.621094 39.277344 C 204.613281 39.300781 204.601562 39.316406 204.582031 39.339844 L 203.4375 40.492188 L 203.753906 41.019531 C 204.140625 41.664062 204.433594 42.371094 204.617188 43.125 L 204.761719 43.722656 L 206.382812 43.722656 C 206.433594 43.722656 206.476562 43.742188 206.511719 43.777344 C 206.546875 43.816406 206.566406 43.855469 206.566406 43.910156 L 206.566406 45.960938 C 206.566406 46.015625 206.546875 46.058594 206.511719 46.09375 C 206.476562 46.128906 206.433594 46.148438 206.382812 46.148438 L 204.761719 46.148438 L 204.617188 46.746094 C 204.433594 47.5 204.140625 48.207031 203.753906 48.851562 L 203.4375 49.378906 L 204.582031 50.53125 C 204.601562 50.554688 204.613281 50.574219 204.621094 50.59375 C 204.632812 50.617188 204.636719 50.640625 204.636719 50.664062 C 204.636719 50.691406 204.632812 50.714844 204.621094 50.734375 C 204.613281 50.757812 204.601562 50.777344 204.582031 50.796875 L 203.144531 52.246094 C 203.125 52.269531 203.105469 52.28125 203.082031 52.289062 C 203.0625 52.296875 203.039062 52.300781 203.011719 52.300781 C 202.988281 52.300781 202.964844 52.296875 202.941406 52.289062 C 202.921875 52.277344 202.902344 52.265625 202.882812 52.246094 L 201.738281 51.09375 L 201.214844 51.410156 C 200.578125 51.800781 199.875 52.097656 199.125 52.285156 L 198.535156 52.429688 L 198.535156 54.0625 C 198.535156 54.117188 198.515625 54.160156 198.480469 54.195312 C 198.445312 54.230469 198.402344 54.25 198.347656 54.25 L 196.316406 54.25 C 196.261719 54.25 196.21875 54.230469 196.183594 54.195312 C 196.152344 54.160156 196.128906 54.117188 196.128906 54.0625 L 196.128906 52.429688 L 195.539062 52.285156 C 194.789062 52.097656 194.085938 51.800781 193.449219 51.410156 L 192.925781 51.09375 L 191.78125 52.246094 C 191.761719 52.269531 191.742188 52.28125 191.722656 52.289062 C 191.699219 52.296875 191.675781 52.300781 191.652344 52.300781 C 191.625 52.300781 191.605469 52.296875 191.582031 52.289062 C 191.558594 52.277344 191.542969 52.265625 191.519531 52.246094 L 190.082031 50.796875 C 190.0625 50.777344 190.050781 50.757812 190.042969 50.734375 C 190.03125 50.714844 190.027344 50.691406 190.027344 50.664062 C 190.027344 50.640625 190.03125 50.617188 190.042969 50.59375 C 190.050781 50.574219 190.0625 50.554688 190.082031 50.53125 L 191.226562 49.378906 L 190.910156 48.851562 C 190.523438 48.207031 190.230469 47.5 190.046875 46.746094 L 189.902344 46.148438 L 188.28125 46.148438 C 188.230469 46.148438 188.1875 46.128906 188.152344 46.09375 C 188.117188 46.058594 188.097656 46.015625 188.097656 45.960938 L 188.097656 43.910156 C 188.097656 43.855469 188.117188 43.816406 188.152344 43.777344 C 188.1875 43.742188 188.230469 43.722656 188.28125 43.722656 L 189.902344 43.722656 L 190.046875 43.125 C 190.230469 42.371094 190.523438 41.664062 190.910156 41.019531 L 191.226562 40.492188 L 190.082031 39.339844 C 190.0625 39.316406 190.050781 39.300781 190.042969 39.277344 C 190.03125 39.253906 190.027344 39.230469 190.027344 39.207031 C 190.027344 39.183594 190.03125 39.15625 190.042969 39.136719 C 190.050781 39.113281 190.0625 39.09375 190.082031 39.074219 L 191.519531 37.625 C 191.542969 37.605469 191.558594 37.59375 191.582031 37.582031 C 191.605469 37.574219 191.625 37.570312 191.652344 37.570312 C 191.675781 37.570312 191.699219 37.574219 191.722656 37.582031 C 191.742188 37.59375 191.761719 37.605469 191.78125 37.625 L 192.925781 38.78125 M 198.351562 34.054688 L 196.316406 34.054688 C 195.839844 34.054688 195.398438 34.253906 195.085938 34.570312 C 194.773438 34.882812 194.578125 35.328125 194.578125 35.808594 L 194.578125 36.234375 C 194.09375 36.390625 193.625 36.585938 193.179688 36.816406 L 192.882812 36.515625 C 192.714844 36.347656 192.519531 36.21875 192.308594 36.132812 C 192.097656 36.046875 191.875 36.003906 191.652344 36.003906 C 191.429688 36.003906 191.207031 36.046875 191 36.132812 C 190.789062 36.21875 190.589844 36.347656 190.421875 36.515625 L 188.984375 37.96875 C 188.816406 38.136719 188.6875 38.335938 188.601562 38.546875 C 188.515625 38.761719 188.476562 38.984375 188.476562 39.207031 C 188.476562 39.433594 188.515625 39.65625 188.601562 39.867188 C 188.6875 40.082031 188.816406 40.28125 188.984375 40.449219 L 189.28125 40.75 C 189.050781 41.195312 188.859375 41.667969 188.703125 42.15625 L 188.285156 42.15625 C 187.980469 42.15625 187.695312 42.238281 187.445312 42.375 C 187.5625 42.441406 187.675781 42.507812 187.789062 42.578125 C 188.15625 42.800781 188.277344 43.285156 188.050781 43.65625 C 187.90625 43.898438 187.648438 44.03125 187.386719 44.03125 C 187.25 44.03125 187.109375 43.996094 186.984375 43.917969 C 186.84375 43.832031 186.703125 43.75 186.5625 43.671875 C 186.550781 43.75 186.546875 43.832031 186.546875 43.910156 L 186.546875 45.964844 C 186.546875 46.445312 186.742188 46.886719 187.054688 47.203125 C 187.367188 47.519531 187.804688 47.71875 188.285156 47.71875 L 188.707031 47.71875 C 188.859375 48.207031 189.054688 48.675781 189.285156 49.125 L 188.988281 49.425781 C 188.820312 49.59375 188.6875 49.792969 188.605469 50.007812 C 188.519531 50.21875 188.476562 50.441406 188.476562 50.667969 C 188.476562 50.890625 188.519531 51.113281 188.605469 51.328125 C 188.6875 51.539062 188.820312 51.738281 188.988281 51.90625 L 190.425781 53.359375 C 190.59375 53.527344 190.789062 53.65625 191 53.742188 C 191.210938 53.828125 191.433594 53.871094 191.65625 53.871094 C 191.878906 53.871094 192.101562 53.828125 192.308594 53.742188 C 192.519531 53.65625 192.71875 53.527344 192.886719 53.359375 L 193.183594 53.058594 C 193.625 53.289062 194.09375 53.484375 194.578125 53.640625 L 194.578125 54.0625 C 194.578125 54.097656 194.578125 54.128906 194.582031 54.160156 C 194.707031 53.902344 194.972656 53.726562 195.277344 53.726562 C 195.707031 53.726562 196.054688 54.074219 196.054688 54.507812 C 196.054688 54.949219 195.921875 55.359375 195.691406 55.699219 C 195.886719 55.777344 196.097656 55.816406 196.320312 55.816406 L 198.355469 55.816406 C 198.832031 55.816406 199.269531 55.621094 199.585938 55.304688 C 199.898438 54.988281 200.09375 54.542969 200.09375 54.0625 L 200.09375 53.640625 C 200.578125 53.484375 201.046875 53.289062 201.492188 53.058594 L 201.789062 53.359375 C 201.957031 53.527344 202.152344 53.65625 202.363281 53.742188 C 202.574219 53.828125 202.796875 53.871094 203.015625 53.871094 C 203.238281 53.871094 203.460938 53.828125 203.671875 53.742188 C 203.882812 53.65625 204.078125 53.527344 204.246094 53.359375 L 205.6875 51.90625 C 205.855469 51.738281 205.984375 51.539062 206.070312 51.328125 C 206.152344 51.113281 206.195312 50.890625 206.195312 50.667969 C 206.195312 50.441406 206.152344 50.21875 206.070312 50.007812 C 205.984375 49.792969 205.855469 49.59375 205.6875 49.425781 L 205.390625 49.125 C 205.617188 48.679688 205.8125 48.207031 205.964844 47.71875 L 206.386719 47.71875 C 206.863281 47.71875 207.304688 47.519531 207.617188 47.203125 C 207.929688 46.886719 208.128906 46.445312 208.128906 45.964844 L 208.128906 43.910156 C 208.128906 43.429688 207.929688 42.988281 207.617188 42.671875 C 207.304688 42.355469 206.867188 42.15625 206.390625 42.15625 C 206.390625 42.15625 206.386719 42.15625 206.386719 42.15625 L 205.964844 42.15625 C 205.8125 41.667969 205.617188 41.195312 205.390625 40.75 L 205.6875 40.449219 C 205.855469 40.28125 205.984375 40.082031 206.070312 39.867188 C 206.152344 39.65625 206.195312 39.433594 206.195312 39.207031 C 206.195312 38.984375 206.152344 38.761719 206.070312 38.546875 C 205.984375 38.335938 205.855469 38.136719 205.6875 37.96875 L 204.246094 36.515625 C 204.078125 36.347656 203.882812 36.21875 203.671875 36.132812 C 203.460938 36.046875 203.238281 36.003906 203.015625 36.003906 C 202.796875 36.003906 202.574219 36.046875 202.363281 36.132812 C 202.152344 36.21875 201.957031 36.347656 201.789062 36.515625 L 201.492188 36.816406 C 201.046875 36.585938 200.578125 36.390625 200.09375 36.234375 L 200.09375 35.8125 C 200.09375 35.328125 199.898438 34.886719 199.585938 34.570312 C 199.269531 34.253906 198.828125 34.054688 198.351562 34.054688 " fill-opacity="1" fill-rule="nonzero"/></g><path fill="#233dff" d="M 195.273438 53.730469 C 194.96875 53.730469 194.703125 53.90625 194.578125 54.164062 C 194.601562 54.609375 194.792969 55.015625 195.082031 55.308594 C 195.25 55.480469 195.457031 55.617188 195.6875 55.707031 C 195.914062 55.363281 196.050781 54.953125 196.050781 54.511719 C 196.050781 54.082031 195.703125 53.730469 195.273438 53.730469 M 187.441406 42.375 C 187.296875 42.457031 187.164062 42.558594 187.050781 42.671875 C 186.789062 42.933594 186.609375 43.289062 186.558594 43.675781 C 186.699219 43.753906 186.84375 43.835938 186.980469 43.917969 C 187.105469 43.996094 187.246094 44.035156 187.382812 44.035156 C 187.644531 44.035156 187.902344 43.898438 188.046875 43.65625 C 188.269531 43.285156 188.15625 42.804688 187.789062 42.578125 C 187.671875 42.507812 187.558594 42.441406 187.441406 42.375 " fill-opacity="1" fill-rule="nonzero"/><g fill="#f4f6fc" fill-opacity="1"><g transform="translate(59.465129, 28.276667)"><g><path d="M 2.054688 0 L 5.355469 0 L 5.355469 -15.886719 L 2.054688 -15.886719 Z M 2.054688 0 "/></g></g></g><g fill="#f4f6fc" fill-opacity="1"><g transform="translate(66.862783, 28.276667)"><g><path d="M 12.90625 -15.886719 L 12.90625 -4.59375 L 5.828125 -15.886719 L 2.054688 -15.886719 L 2.054688 0 L 5.34375 0 L 5.34375 -11.355469 L 12.378906 0 L 16.195312 0 L 16.195312 -15.886719 Z M 12.90625 -15.886719 "/></g></g></g><g fill="#f4f6fc" fill-opacity="1"><g transform="translate(85.109585, 28.276667)"><g><path d="M 11.269531 -15.886719 L 0.441406 -15.886719 L 0.441406 -12.984375 L 4.234375 -12.984375 L 4.234375 0 L 7.496094 0 L 7.496094 -12.984375 L 11.269531 -12.984375 Z M 11.269531 -15.886719 "/></g></g></g><g fill="#f4f6fc" fill-opacity="1"><g transform="translate(96.816123, 28.276667)"><g><path d="M 11.269531 -12.984375 L 11.269531 -15.886719 L 2.054688 -15.886719 L 2.054688 0 L 11.269531 0 L 11.269531 -2.914062 L 5.375 -2.914062 L 5.375 -6.507812 L 10.597656 -6.507812 L 10.597656 -9.378906 L 5.375 -9.378906 L 5.375 -12.984375 Z M 11.269531 -12.984375 "/></g></g></g><g fill="#f4f6fc" fill-opacity="1"><g transform="translate(109.424009, 28.276667)"><g><path d="M 5.355469 -2.914062 L 5.355469 -15.886719 L 2.054688 -15.886719 L 2.054688 0 L 10.335938 0 L 10.335938 -2.914062 Z M 5.355469 -2.914062 "/></g></g></g><g fill="#f4f6fc" fill-opacity="1"><g transform="translate(120.218202, 28.276667)"><g><path d="M 5.355469 -2.914062 L 5.355469 -15.886719 L 2.054688 -15.886719 L 2.054688 0 L 10.335938 0 L 10.335938 -2.914062 Z M 5.355469 -2.914062 "/></g></g></g><g fill="#f4f6fc" fill-opacity="1"><g transform="translate(131.012394, 28.276667)"><g><path d="M 11.269531 -12.984375 L 11.269531 -15.886719 L 2.054688 -15.886719 L 2.054688 0 L 11.269531 0 L 11.269531 -2.914062 L 5.375 -2.914062 L 5.375 -6.507812 L 10.597656 -6.507812 L 10.597656 -9.378906 L 5.375 -9.378906 L 5.375 -12.984375 Z M 11.269531 -12.984375 "/></g></g></g><g fill="#f4f6fc" fill-opacity="1"><g transform="translate(143.62028, 28.276667)"><g><path d="M 9.089844 0.21875 C 12.632812 0.21875 15.46875 -1.605469 16.601562 -4.617188 L 13.523438 -5.738281 C 12.820312 -3.890625 11.136719 -2.8125 9.089844 -2.8125 C 6.355469 -2.8125 4.253906 -4.738281 4.253906 -7.949219 C 4.253906 -11.160156 6.355469 -13.070312 9.089844 -13.070312 C 11.136719 -13.070312 12.820312 -12.003906 13.523438 -10.15625 L 16.601562 -11.28125 C 15.46875 -14.292969 12.632812 -16.105469 9.089844 -16.105469 C 4.417969 -16.105469 0.96875 -12.941406 0.96875 -7.949219 C 0.96875 -2.957031 4.417969 0.21875 9.089844 0.21875 Z M 9.089844 0.21875 "/></g></g></g><g fill="#f4f6fc" fill-opacity="1"><g transform="translate(160.866811, 28.276667)"><g><path d="M 11.269531 -15.886719 L 0.441406 -15.886719 L 0.441406 -12.984375 L 4.234375 -12.984375 L 4.234375 0 L 7.496094 0 L 7.496094 -12.984375 L 11.269531 -12.984375 Z M 11.269531 -15.886719 "/></g></g></g><g fill="#f4f6fc" fill-opacity="1"><g transform="translate(172.57335, 28.276667)"><g><path d="M 7.9375 0.21875 C 11.433594 0.21875 14.171875 -1.5625 14.171875 -5.5625 L 14.171875 -15.886719 L 10.871094 -15.886719 L 10.871094 -6.011719 C 10.871094 -3.605469 9.574219 -2.695312 7.9375 -2.695312 C 6.308594 -2.695312 5.023438 -3.59375 5.023438 -6.011719 L 5.023438 -15.886719 L 1.726562 -15.886719 L 1.726562 -5.5625 C 1.726562 -1.5625 4.453125 0.21875 7.9375 0.21875 Z M 7.9375 0.21875 "/></g></g></g><g fill="#f4f6fc" fill-opacity="1"><g transform="translate(188.467853, 28.276667)"><g><path d="M 12.6875 0 L 16.0625 0 L 10.214844 -15.886719 L 6.179688 -15.886719 L 0.328125 0 L 3.703125 0 L 4.859375 -3.277344 L 11.53125 -3.277344 Z M 5.828125 -6.035156 L 8.203125 -12.773438 L 10.566406 -6.035156 Z M 5.828125 -6.035156 "/></g></g></g><g fill="#f4f6fc" fill-opacity="1"><g transform="translate(204.857004, 28.276667)"><g><path d="M 5.355469 -2.914062 L 5.355469 -15.886719 L 2.054688 -15.886719 L 2.054688 0 L 10.335938 0 L 10.335938 -2.914062 Z M 5.355469 -2.914062 "/></g></g></g><g fill="#f4f6fc" fill-opacity="1"><g transform="translate(215.651196, 28.276667)"><g/></g></g><g fill="#f4f6fc" fill-opacity="1"><g transform="translate(221.498967, 28.276667)"><g><path d="M 9.089844 0.21875 C 12.632812 0.21875 15.46875 -1.605469 16.601562 -4.617188 L 13.523438 -5.738281 C 12.820312 -3.890625 11.136719 -2.8125 9.089844 -2.8125 C 6.355469 -2.8125 4.253906 -4.738281 4.253906 -7.949219 C 4.253906 -11.160156 6.355469 -13.070312 9.089844 -13.070312 C 11.136719 -13.070312 12.820312 -12.003906 13.523438 -10.15625 L 16.601562 -11.28125 C 15.46875 -14.292969 12.632812 -16.105469 9.089844 -16.105469 C 4.417969 -16.105469 0.96875 -12.941406 0.96875 -7.949219 C 0.96875 -2.957031 4.417969 0.21875 9.089844 0.21875 Z M 9.089844 0.21875 "/></g></g></g><g fill="#f4f6fc" fill-opacity="1"><g transform="translate(238.745498, 28.276667)"><g><path d="M 12.6875 0 L 16.0625 0 L 10.214844 -15.886719 L 6.179688 -15.886719 L 0.328125 0 L 3.703125 0 L 4.859375 -3.277344 L 11.53125 -3.277344 Z M 5.828125 -6.035156 L 8.203125 -12.773438 L 10.566406 -6.035156 Z M 5.828125 -6.035156 "/></g></g></g><g fill="#f4f6fc" fill-opacity="1"><g transform="translate(255.134638, 28.276667)"><g><path d="M 11.246094 -15.160156 C 10.378906 -15.632812 9.203125 -15.886719 7.277344 -15.886719 L 2.054688 -15.886719 L 2.054688 0 L 5.355469 0 L 5.355469 -5.695312 L 7.277344 -5.695312 C 9.222656 -5.695312 10.398438 -6.003906 11.269531 -6.597656 C 12.742188 -7.507812 13.378906 -9.15625 13.378906 -11.058594 C 13.378906 -12.949219 12.730469 -14.367188 11.246094 -15.160156 Z M 9.378906 -9.003906 C 8.839844 -8.542969 8.023438 -8.453125 6.816406 -8.453125 L 5.355469 -8.453125 L 5.355469 -13.125 L 6.816406 -13.125 C 7.992188 -13.125 8.785156 -13.070312 9.34375 -12.644531 C 9.773438 -12.300781 10.058594 -11.742188 10.058594 -10.851562 C 10.058594 -9.9375 9.796875 -9.367188 9.378906 -9.003906 Z M 9.378906 -9.003906 "/></g></g></g><g fill="#f4f6fc" fill-opacity="1"><g transform="translate(269.248429, 28.276667)"><g><path d="M 2.054688 0 L 5.355469 0 L 5.355469 -15.886719 L 2.054688 -15.886719 Z M 2.054688 0 "/></g></g></g><g fill="#f4f6fc" fill-opacity="1"><g transform="translate(276.646095, 28.276667)"><g><path d="M 11.269531 -15.886719 L 0.441406 -15.886719 L 0.441406 -12.984375 L 4.234375 -12.984375 L 4.234375 0 L 7.496094 0 L 7.496094 -12.984375 L 11.269531 -12.984375 Z M 11.269531 -15.886719 "/></g></g></g><g fill="#f4f6fc" fill-opacity="1"><g transform="translate(288.352622, 28.276667)"><g><path d="M 12.6875 0 L 16.0625 0 L 10.214844 -15.886719 L 6.179688 -15.886719 L 0.328125 0 L 3.703125 0 L 4.859375 -3.277344 L 11.53125 -3.277344 Z M 5.828125 -6.035156 L 8.203125 -12.773438 L 10.566406 -6.035156 Z M 5.828125 -6.035156 "/></g></g></g><g fill="#f4f6fc" fill-opacity="1"><g transform="translate(304.741773, 28.276667)"><g><path d="M 5.355469 -2.914062 L 5.355469 -15.886719 L 2.054688 -15.886719 L 2.054688 0 L 10.335938 0 L 10.335938 -2.914062 Z M 5.355469 -2.914062 "/></g></g></g></svg>