<svg xmlns="http://www.w3.org/2000/svg" xmlns:xlink="http://www.w3.org/1999/xlink" width="500" zoomAndPan="magnify" viewBox="0 0 375 74.999997" height="100" preserveAspectRatio="xMidYMid meet" version="1.0"><defs><g/><clipPath id="id1"><path d="M 185 34.054688 L 190 34.054688 L 190 38 L 185 38 Z M 185 34.054688 " clip-rule="nonzero"/></clipPath><clipPath id="id2"><path d="M 179 64 L 196 64 L 196 67.804688 L 179 67.804688 Z M 179 64 " clip-rule="nonzero"/></clipPath><clipPath id="id3"><path d="M 193 40 L 204.433594 40 L 204.433594 53 L 193 53 Z M 193 40 " clip-rule="nonzero"/></clipPath><clipPath id="id4"><path d="M 193 51 L 204.433594 51 L 204.433594 56 L 193 56 Z M 193 51 " clip-rule="nonzero"/></clipPath><clipPath id="id5"><path d="M 170.683594 40 L 182 40 L 182 53 L 170.683594 53 Z M 170.683594 40 " clip-rule="nonzero"/></clipPath><clipPath id="id6"><path d="M 170.683594 51 L 182 51 L 182 56 L 170.683594 56 Z M 170.683594 51 " clip-rule="nonzero"/></clipPath></defs><rect x="-37.5" width="450" fill="#dc661f" y="-7.5" height="89.999996" fill-opacity="1"/><rect x="-37.5" width="450" fill="#ffffff" y="-7.5" height="89.999996" fill-opacity="1"/><rect x="-37.5" width="450" fill="#dc661f" y="-7.5" height="89.999996" fill-opacity="1"/><path fill="#eba327" d="M 188.449219 66.183594 L 186.597656 66.183594 L 186.597656 35.328125 L 188.449219 35.328125 L 188.449219 66.183594 " fill-opacity="1" fill-rule="nonzero"/><g clip-path="url(#id1)"><path fill="#f6f6e9" d="M 189.257812 35.796875 C 189.257812 36.757812 188.480469 37.539062 187.523438 37.539062 C 186.566406 37.539062 185.792969 36.757812 185.792969 35.796875 C 185.792969 34.832031 186.566406 34.050781 187.523438 34.050781 C 188.480469 34.050781 189.257812 34.832031 189.257812 35.796875 " fill-opacity="1" fill-rule="nonzero"/></g><path fill="#f6f6e9" d="M 188.617188 61.371094 L 186.429688 61.371094 L 184.054688 65.414062 L 190.992188 65.414062 L 188.617188 61.371094 " fill-opacity="1" fill-rule="nonzero"/><g clip-path="url(#id2)"><path fill="#ffb905" d="M 191.675781 64.425781 L 183.359375 64.425781 C 181.625 64.425781 180.019531 65.707031 179.125 67.804688 L 195.910156 67.804688 C 195.015625 65.707031 193.410156 64.425781 191.675781 64.425781 " fill-opacity="1" fill-rule="nonzero"/></g><path fill="#f6f6e9" d="M 189.472656 37.972656 L 185.574219 37.972656 C 185.15625 37.972656 184.816406 37.628906 184.816406 37.210938 C 184.816406 36.789062 185.15625 36.449219 185.574219 36.449219 L 189.472656 36.449219 C 189.890625 36.449219 190.230469 36.789062 190.230469 37.210938 C 190.230469 37.628906 189.890625 37.972656 189.472656 37.972656 " fill-opacity="1" fill-rule="nonzero"/><path stroke-linecap="round" transform="matrix(0.0169563, 0, 0, -0.0170455, 151.510762, 87.166969)" fill="none" stroke-linejoin="round" d="M 1458.535986 2716.024942 L 2823.484846 2716.024942 " stroke="#20335f" stroke-width="30" stroke-opacity="1" stroke-miterlimit="10"/><g clip-path="url(#id3)"><path stroke-linecap="round" transform="matrix(0.0169563, 0, 0, -0.0170455, 151.510762, 87.166969)" fill="none" stroke-linejoin="round" d="M 2808.510724 2706.170774 L 2498.431202 2066.10822 L 3098.547958 2066.10822 Z M 2808.510724 2706.170774 " stroke="#20335f" stroke-width="30" stroke-opacity="1" stroke-miterlimit="10"/></g><path fill="#f6f6e9" d="M 199.980469 40.953125 C 199.980469 41.472656 199.5625 41.890625 199.046875 41.890625 C 198.53125 41.890625 198.117188 41.472656 198.117188 40.953125 C 198.117188 40.4375 198.53125 40.015625 199.046875 40.015625 C 199.5625 40.015625 199.980469 40.4375 199.980469 40.953125 " fill-opacity="1" fill-rule="nonzero"/><g clip-path="url(#id4)"><path fill="#f6f6e9" d="M 200.953125 55.1875 L 196.972656 55.1875 C 195.078125 55.1875 193.535156 53.640625 193.535156 51.734375 C 193.535156 51.570312 193.667969 51.4375 193.832031 51.4375 L 204.09375 51.4375 C 204.257812 51.4375 204.390625 51.570312 204.390625 51.734375 C 204.390625 53.640625 202.847656 55.1875 200.953125 55.1875 " fill-opacity="1" fill-rule="nonzero"/></g><g clip-path="url(#id5)"><path stroke-linecap="round" transform="matrix(0.0169563, 0, 0, -0.0170455, 151.510762, 87.166969)" fill="none" stroke-linejoin="round" d="M 1458.535986 2706.170774 L 1148.456464 2066.10822 L 1748.57322 2066.10822 Z M 1458.535986 2706.170774 " stroke="#20335f" stroke-width="30" stroke-opacity="1" stroke-miterlimit="10"/></g><path fill="#f6f6e9" d="M 177.089844 40.953125 C 177.089844 41.472656 176.671875 41.890625 176.15625 41.890625 C 175.640625 41.890625 175.222656 41.472656 175.222656 40.953125 C 175.222656 40.4375 175.640625 40.015625 176.15625 40.015625 C 176.671875 40.015625 177.089844 40.4375 177.089844 40.953125 " fill-opacity="1" fill-rule="nonzero"/><g clip-path="url(#id6)"><path fill="#f6f6e9" d="M 178.140625 55.1875 L 174.167969 55.1875 C 172.269531 55.1875 170.730469 53.640625 170.730469 51.734375 C 170.730469 51.570312 170.863281 51.4375 171.027344 51.4375 L 181.28125 51.4375 C 181.441406 51.4375 181.574219 51.570312 181.574219 51.734375 C 181.574219 53.640625 180.035156 55.1875 178.140625 55.1875 " fill-opacity="1" fill-rule="nonzero"/></g><path fill="#f6f6e9" d="M 188.957031 40.871094 C 188.957031 41.625 188.351562 42.234375 187.601562 42.234375 C 186.851562 42.234375 186.246094 41.625 186.246094 40.871094 C 186.246094 40.117188 186.851562 39.507812 187.601562 39.507812 C 188.351562 39.507812 188.957031 40.117188 188.957031 40.871094 " fill-opacity="1" fill-rule="nonzero"/><g fill="#7b3911" fill-opacity="1"><g transform="translate(106.246333, 28.276667)"><g><path d="M 8.925781 0.21875 C 11.355469 0.21875 13.070312 -0.691406 14.09375 -2.199219 L 14.09375 0 L 16.6875 0 L 16.6875 -8.628906 L 9.222656 -8.628906 L 9.222656 -5.980469 L 13.566406 -5.980469 C 13.117188 -3.660156 11.246094 -2.648438 9.210938 -2.648438 C 6.210938 -2.648438 4.277344 -4.738281 4.277344 -7.980469 C 4.277344 -11.34375 6.34375 -13.238281 9.089844 -13.238281 C 10.863281 -13.238281 12.355469 -12.457031 13.257812 -10.851562 L 16.082031 -12.367188 C 14.699219 -14.753906 12.160156 -16.105469 9.089844 -16.105469 C 4.417969 -16.105469 0.96875 -12.929688 0.96875 -7.90625 C 0.96875 -2.945312 4.34375 0.21875 8.925781 0.21875 Z M 8.925781 0.21875 "/></g></g></g><g fill="#7b3911" fill-opacity="1"><g transform="translate(124.295278, 28.276667)"><g><path d="M 9.089844 0.21875 C 13.753906 0.21875 17.203125 -2.96875 17.203125 -7.949219 C 17.203125 -12.941406 13.753906 -16.105469 9.089844 -16.105469 C 4.417969 -16.105469 0.96875 -12.941406 0.96875 -7.949219 C 0.96875 -2.96875 4.417969 0.21875 9.089844 0.21875 Z M 9.089844 -2.804688 C 6.355469 -2.804688 4.253906 -4.726562 4.253906 -7.949219 C 4.253906 -11.160156 6.355469 -13.070312 9.089844 -13.070312 C 11.828125 -13.070312 13.929688 -11.160156 13.929688 -7.949219 C 13.929688 -4.726562 11.828125 -2.804688 9.089844 -2.804688 Z M 9.089844 -2.804688 "/></g></g></g><g fill="#7b3911" fill-opacity="1"><g transform="translate(142.476128, 28.276667)"><g><path d="M 12.160156 -15.886719 L 7.992188 -3.847656 L 3.824219 -15.886719 L 0.328125 -15.886719 L 6.167969 0 L 9.796875 0 L 15.664062 -15.886719 Z M 12.160156 -15.886719 "/></g></g></g><g fill="#7b3911" fill-opacity="1"><g transform="translate(158.469565, 28.276667)"><g><path d="M 11.269531 -12.984375 L 11.269531 -15.886719 L 2.054688 -15.886719 L 2.054688 0 L 11.269531 0 L 11.269531 -2.914062 L 5.375 -2.914062 L 5.375 -6.507812 L 10.597656 -6.507812 L 10.597656 -9.378906 L 5.375 -9.378906 L 5.375 -12.984375 Z M 11.269531 -12.984375 "/></g></g></g><g fill="#7b3911" fill-opacity="1"><g transform="translate(171.077451, 28.276667)"><g><path d="M 10.445312 0 L 14.347656 0 L 10.113281 -6.167969 C 10.5 -6.277344 10.828125 -6.410156 11.125 -6.574219 C 12.730469 -7.421875 13.378906 -9.003906 13.378906 -10.992188 C 13.378906 -12.882812 12.742188 -14.390625 11.191406 -15.214844 C 10.367188 -15.632812 9.300781 -15.886719 7.277344 -15.886719 L 2.054688 -15.886719 L 2.054688 0 L 5.355469 0 L 5.355469 -5.859375 L 6.75 -5.859375 Z M 5.355469 -13.125 L 6.816406 -13.125 C 8.089844 -13.125 8.804688 -13.050781 9.3125 -12.664062 C 9.785156 -12.289062 10.058594 -11.675781 10.058594 -10.785156 C 10.058594 -9.851562 9.785156 -9.222656 9.246094 -8.851562 C 8.761719 -8.507812 8.070312 -8.453125 6.816406 -8.453125 L 5.355469 -8.453125 Z M 5.355469 -13.125 "/></g></g></g><g fill="#7b3911" fill-opacity="1"><g transform="translate(186.015652, 28.276667)"><g><path d="M 12.90625 -15.886719 L 12.90625 -4.59375 L 5.828125 -15.886719 L 2.054688 -15.886719 L 2.054688 0 L 5.34375 0 L 5.34375 -11.355469 L 12.378906 0 L 16.195312 0 L 16.195312 -15.886719 Z M 12.90625 -15.886719 "/></g></g></g><g fill="#7b3911" fill-opacity="1"><g transform="translate(204.262454, 28.276667)"><g><path d="M 12.6875 0 L 16.0625 0 L 10.214844 -15.886719 L 6.179688 -15.886719 L 0.328125 0 L 3.703125 0 L 4.859375 -3.277344 L 11.53125 -3.277344 Z M 5.828125 -6.035156 L 8.203125 -12.773438 L 10.566406 -6.035156 Z M 5.828125 -6.035156 "/></g></g></g><g fill="#7b3911" fill-opacity="1"><g transform="translate(220.651605, 28.276667)"><g><path d="M 12.90625 -15.886719 L 12.90625 -4.59375 L 5.828125 -15.886719 L 2.054688 -15.886719 L 2.054688 0 L 5.34375 0 L 5.34375 -11.355469 L 12.378906 0 L 16.195312 0 L 16.195312 -15.886719 Z M 12.90625 -15.886719 "/></g></g></g><g fill="#7b3911" fill-opacity="1"><g transform="translate(238.898407, 28.276667)"><g><path d="M 9.089844 0.21875 C 12.632812 0.21875 15.46875 -1.605469 16.601562 -4.617188 L 13.523438 -5.738281 C 12.820312 -3.890625 11.136719 -2.8125 9.089844 -2.8125 C 6.355469 -2.8125 4.253906 -4.738281 4.253906 -7.949219 C 4.253906 -11.160156 6.355469 -13.070312 9.089844 -13.070312 C 11.136719 -13.070312 12.820312 -12.003906 13.523438 -10.15625 L 16.601562 -11.28125 C 15.46875 -14.292969 12.632812 -16.105469 9.089844 -16.105469 C 4.417969 -16.105469 0.96875 -12.941406 0.96875 -7.949219 C 0.96875 -2.957031 4.417969 0.21875 9.089844 0.21875 Z M 9.089844 0.21875 "/></g></g></g><g fill="#7b3911" fill-opacity="1"><g transform="translate(256.144938, 28.276667)"><g><path d="M 11.269531 -12.984375 L 11.269531 -15.886719 L 2.054688 -15.886719 L 2.054688 0 L 11.269531 0 L 11.269531 -2.914062 L 5.375 -2.914062 L 5.375 -6.507812 L 10.597656 -6.507812 L 10.597656 -9.378906 L 5.375 -9.378906 L 5.375 -12.984375 Z M 11.269531 -12.984375 "/></g></g></g></svg>