<svg xmlns="http://www.w3.org/2000/svg" xmlns:xlink="http://www.w3.org/1999/xlink" width="1587" zoomAndPan="magnify" viewBox="0 0 1190.25 1683.749945" height="2245" preserveAspectRatio="xMidYMid meet" version="1.0"><defs><clipPath id="id1"><path d="M 515 897 L 934 897 L 934 1402.488281 L 515 1402.488281 Z M 515 897 " clip-rule="nonzero"/></clipPath><clipPath id="id2"><path d="M 487 425 L 987.550781 425 L 987.550781 818 L 487 818 Z M 487 425 " clip-rule="nonzero"/></clipPath></defs><g clip-path="url(#id1)"><path stroke-linecap="round" transform="matrix(0.0582013, 0, 0, -0.0582073, 203.111533, 1402.605171)" fill="none" stroke-linejoin="round" d="M 7314.825991 34.354858 C 7068.777912 499.690932 6822.729833 965.027006 6501.780048 1802.081644 C 6180.897378 2639.20339 5785.045886 3848.043699 5581.817958 4784.084594 C 5378.522914 5720.125488 5367.784319 6383.434077 5405.302288 6955.742419 C 5442.753141 7528.11787 5528.326328 8009.425964 5683.431922 8298.331617 C 5838.537517 8587.170161 6063.175521 8683.404936 6261.101267 8624.617166 C 6459.027013 8565.762286 6630.173385 8351.817751 6689.034314 8175.253111 C 6747.895243 7998.755581 6694.403612 7859.705055 6705.075092 7763.47028 C 6715.813688 7667.168396 6790.648278 7613.615153 6790.648278 7458.525498 C 6790.648278 7303.435843 6715.813688 7046.608448 6731.787349 6779.244889 C 6747.895243 6511.81422 6854.811389 6233.646059 7031.327059 5891.321382 C 7207.842729 5548.996704 7453.890808 5142.448401 7732.020443 4816.162852 C 8010.217193 4489.877304 8320.428383 4243.85451 8529.092725 3971.055096 C 8737.622834 3698.255681 8844.673212 3398.679645 8914.138505 3131.316086 C 8983.73803 2863.818308 9015.752469 2628.465898 9053.203322 2617.795515 C 9090.721291 2607.058022 9133.474326 2821.002557 9144.212922 3099.170718 C 9154.884402 3377.271769 9133.474326 3719.663556 9047.90114 3933.608091 C 8962.327954 4147.552626 8812.524541 4233.117018 8678.829022 4259.89364 C 8545.066386 4286.603152 8427.411645 4254.524893 8464.862498 4233.184127 C 8502.313351 4211.776252 8694.869799 4201.03876 8887.426247 4152.921372 C 9079.982695 4104.736875 9272.539144 4019.172483 9411.603961 3922.870599 C 9550.735894 3826.568715 9636.30908 3719.663556 9646.98056 3869.384465 C 9657.65204 4019.172483 9593.488929 4425.720787 9566.709556 4757.375082 C 9539.997298 5088.962267 9550.735894 5345.722552 9529.325818 5559.667087 C 9507.915743 5773.611622 9454.424112 5944.807515 9368.850926 6067.818912 C 9283.210623 6190.830309 9165.555882 6265.724318 9165.555882 6249.685189 C 9165.555882 6233.646059 9283.210623 6126.673792 9502.546445 6062.450166 C 9721.81515 5998.293649 10042.832052 5976.885774 10358.41254 6057.148529 C 10673.993027 6137.344175 10984.204217 6319.210451 11273.005331 6506.378365 C 11561.940677 6693.613387 11829.2646 6886.217156 12070.010497 7014.597299 C 12310.689278 7142.977442 12524.655802 7207.133958 12513.984322 7260.620092 C 12503.312842 7314.106226 12267.869127 7356.921977 11995.10879 7340.882847 C 11722.281338 7324.776609 11412.137264 7249.949709 11091.187479 7271.357584 C 10770.304809 7292.76546 10438.616428 7410.40811 10144.446016 7592.274387 C 9850.208488 7774.073554 9593.488929 8020.163456 9283.210623 8207.398479 C 8972.999434 8394.633502 8609.296613 8522.946535 8304.387605 8549.723157 C 7999.545714 8576.432669 7753.430518 8501.53866 7625.104297 8426.71176 C 7496.71096 8351.817751 7486.03948 8276.923742 7416.507071 8319.739493 C 7346.974663 8362.488134 7218.581325 8522.946535 7074.14721 8597.840544 C 6929.713095 8672.734553 6769.238202 8662.06417 6667.624238 8613.946783 C 6566.010274 8565.762286 6523.190123 8480.197894 6480.369972 8394.633502 " stroke="#000000" stroke-width="56.693001" stroke-opacity="1" stroke-miterlimit="22.926001"/></g><path stroke-linecap="round" transform="matrix(0.0582013, 0, 0, -0.0582073, 203.111533, 1402.605171)" fill="none" stroke-linejoin="round" d="M 10832.991363 6245.457301 C 10933.263002 6063.188368 11033.735991 5880.986545 11040.984543 5624.092041 C 11048.367327 5367.130428 10962.794141 5035.476133 11000.177878 4837.570727 C 11037.695848 4639.665322 11198.103624 4575.441696 11198.103624 4543.430547 C 11198.103624 4511.285179 11037.695848 4511.285179 10845.1394 4500.614796 C 10652.650068 4489.877304 10427.877832 4468.536538 10214.246889 4461.959824 C 10000.481714 4455.450219 9797.790716 4463.838885 9595.099718 4472.227551 " stroke="#000000" stroke-width="56.693001" stroke-opacity="1" stroke-miterlimit="22.926001"/><path stroke-linecap="round" transform="matrix(0.0582013, 0, 0, -0.0582073, 203.111533, 1402.605171)" fill="none" stroke-linejoin="round" d="M 5335.367182 6629.255543 C 5378.187333 7078.552488 5367.650086 7624.285536 5335.635647 8121.766978 C 5303.621208 8619.248419 5250.129577 9068.545365 5175.294987 9448.317047 C 5100.39328 9828.088729 5004.081498 10138.268039 4881.124575 10379.123414 C 4758.033419 10619.777461 4608.297122 10790.906245 4458.493709 10855.129871 C 4308.757412 10919.286388 4158.953999 10876.470637 4084.119409 10774.867116 C 4009.217702 10673.196485 4009.217702 10512.805193 3934.315996 10443.212821 C 3859.481405 10373.687558 3709.677992 10395.095434 3581.351771 10368.385921 C 3452.958434 10341.6093 3345.975172 10266.715291 3180.130981 10213.229157 C 3014.28679 10159.675914 2789.715903 10127.597656 2570.380082 9988.614239 C 2351.04426 9849.496604 2137.077736 9603.406702 2008.684399 9368.121401 C 1880.358178 9132.701881 1837.605142 8908.086963 1768.005618 8710.181558 C 1698.473209 8512.276152 1602.228543 8341.080259 1468.465908 8207.398479 C 1334.770389 8073.64959 1163.624016 7977.414815 1019.122785 7806.218922 C 874.755786 7635.023028 757.101044 7389.000235 655.419964 7180.357337 C 553.806 6971.781548 468.232814 6800.652764 345.208775 6645.496 C 222.184735 6490.406345 61.709842 6351.355819 40.299767 6260.422681 C 18.956807 6169.422433 136.611549 6126.673792 355.880254 6099.89717 C 575.216076 6073.187658 896.165861 6062.450166 1168.926198 6121.305046 C 1441.686534 6180.159926 1666.391654 6308.540068 1800.087173 6458.260977 C 1933.849808 6608.116105 1976.66996 6779.244889 1928.48051 6811.323147 C 1880.358178 6843.401405 1741.29336 6736.429138 1714.513987 6570.601991 C 1687.801729 6404.774843 1773.374916 6180.159926 1907.137551 5944.807515 C 2040.83307 5709.455105 2222.650922 5463.365203 2345.674962 5211.973663 C 2468.766118 4960.582124 2532.862112 4703.821839 2527.55993 4522.022671 C 2522.257749 4340.089286 2447.356042 4233.184127 2538.298526 4286.670261 C 2629.24101 4340.089286 2885.960569 4554.10093 3132.008648 4773.414211 C 3378.056727 4992.727492 3613.36621 5217.34241 3779.210401 5447.326074 C 3945.054592 5677.376847 4041.299258 5912.662148 4035.92996 6073.187658 C 4030.627778 6233.646059 3923.644516 6319.210451 3880.891481 6271.093064 C 3838.07133 6222.975676 3859.481405 6041.042291 3977.136147 5837.835248 C 4094.790889 5634.561096 4308.757412 5409.946178 4592.256345 5230.764275 C 4875.755277 5051.515262 5228.719501 4917.833483 5325.031284 4965.95087 C 5421.343066 5014.068258 5260.868173 5244.119031 5228.652385 5535.574839 C 5196.503714 5826.963537 5292.614147 6179.891488 5335.367182 6629.255543 Z M 5335.367182 6629.255543 " stroke="#000000" stroke-width="56.693001" stroke-opacity="1" stroke-miterlimit="22.926001"/><path stroke-linecap="round" transform="matrix(0.0582013, 0, 0, -0.0582073, 203.111533, 1402.605171)" fill="none" stroke-linejoin="round" d="M 4458.493709 10855.129871 C 4309.764156 10772.384071 4161.034602 10689.70538 4182.444678 10552.399696 C 4203.854753 10415.094013 4395.337342 10223.295556 4496.481492 10052.3681 C 4597.558526 9881.574862 4608.297122 9731.853954 4717.897917 9565.62415 C 4827.565828 9399.394347 5036.163053 9216.856977 5089.654684 8879.833937 C 5143.146315 8542.878005 5041.532351 8051.503512 5056.633502 7650.726611 C 5071.734652 7249.81549 5203.550917 6939.501962 5187.51014 6736.294919 C 5171.469362 6533.020768 5007.571542 6436.853102 4790.987485 6344.108012 C 4574.403429 6251.49714 4305.133136 6162.308845 4144.658243 6150.76604 C 3984.250467 6139.156127 3932.570974 6205.124595 3783.640072 6436.920211 C 3634.776286 6668.648718 3388.728207 7066.271481 3244.361208 7414.904435 C 3099.927093 7763.47028 3057.106942 8062.979207 3137.31083 8218.068862 C 3217.581834 8373.225626 3420.809762 8383.896009 3238.99191 8191.35935 C 3057.106942 7998.755581 2490.176193 7602.94477 1995.32827 7400.610148 C 1500.547463 7198.275527 1077.983714 7189.282877 963.819016 7323.63575 C 849.654318 7457.921514 1043.888672 7735.485691 1238.055909 8012.982758 " stroke="#000000" stroke-width="56.693001" stroke-opacity="1" stroke-miterlimit="22.926001"/><g clip-path="url(#id2)"><path stroke-linecap="round" transform="matrix(0.059924, 0, 0, -0.0599302, 203.111533, 1402.605171)" fill="none" stroke-linejoin="round" d="M 4862.696517 9795.440807 C 4809.960474 10422.276857 4757.289617 11049.178087 4767.32837 11830.295194 C 4777.367122 12611.281941 4850.115484 13546.354205 4948.808153 14180.294875 C 5047.500822 14814.105184 5172.202986 15146.588359 5312.484773 15395.967035 C 5452.766559 15645.41089 5608.627968 15811.619888 5795.648621 15951.887245 C 5982.669273 16092.219783 6200.914357 16206.480321 6450.253499 16253.27956 C 6699.657827 16300.01362 6980.2214 16279.15602 7156.81218 16227.337921 C 7333.468147 16175.324282 7406.216509 16092.219783 7515.273864 16087.005383 C 7624.396406 16081.790983 7769.893129 16154.531862 7868.585798 16133.739442 C 7967.343654 16113.012203 8019.297457 15998.686485 8138.784685 16009.115284 C 8258.271913 16019.544084 8445.292566 16154.531862 8647.892841 16211.694721 C 8850.558302 16268.7924 9068.7382 16247.99998 9370.096331 16149.317462 C 9671.454462 16050.569764 10055.92564 15873.997147 10367.583271 15666.20331 C 10679.306088 15458.279114 10918.280544 15219.264058 11136.525628 15063.48386 C 11354.705525 14907.573303 11552.090864 14834.897604 11863.813681 14824.533984 C 12175.601684 14814.105184 12601.596793 14866.118823 12835.421499 14860.904423 C 13069.181019 14855.690024 13110.704949 14793.312765 13006.797343 14647.896187 C 12902.889738 14502.414429 12653.615783 14273.762993 12388.631832 14117.917616 C 12123.582695 13962.137418 11843.084309 13878.90256 11630.054161 13868.60412 C 11417.0892 13858.17532 11271.592478 13920.487399 11271.592478 13894.480579 C 11271.592478 13868.60412 11417.0892 13754.278402 11500.202248 13536.120945 C 11583.315295 13317.898309 11604.109853 12995.713574 11583.315295 12710.029639 C 11562.520736 12424.215344 11500.202248 12174.901848 11484.622625 12024.20569 C 11468.977816 11873.509533 11500.202248 11821.626254 11453.398194 11852.782293 C 11406.659328 11883.938333 11282.02235 11998.198871 11058.627517 12034.63449 C 10835.232683 12071.00493 10513.014807 12029.42009 10237.731357 12039.78371 C 9962.317534 12050.21251 9733.707764 12112.524589 9598.640914 12190.545048 C 9463.574064 12268.435146 9421.984947 12361.903265 9447.994442 12299.591186 C 9474.003937 12237.213927 9567.48167 12018.991291 9598.640914 11774.761835 C 9629.800158 11530.727919 9598.640914 11260.491643 9520.677616 11026.690987 C 9442.779506 10792.890331 9318.142528 10595.525294 9229.814545 10444.763957 C 9141.486561 10294.067799 9089.532758 10190.236061 9058.373514 10257.82772 C 9027.149083 10325.289019 9016.784397 10564.304075 8928.456413 10761.734291 C 8840.12843 10959.229688 8673.902335 11115.009886 8538.770299 11291.712863 C 8403.703449 11468.28548 8299.86103 11665.715696 8258.271913 11894.301953 C 8216.682796 12122.888209 8237.477354 12382.695685 8180.308615 12569.697101 C 8123.139876 12756.698518 7988.073026 12871.089416 8014.082521 12845.082597 C 8040.026829 12819.075777 8227.112668 12652.93196 8351.749646 12445.072944 C 8476.45181 12237.213927 8538.770299 11987.770071 8569.929543 11764.398215 C 8601.153974 11541.026358 8601.153974 11343.596142 8673.902335 11353.959762 C 8746.58551 11364.388561 8892.082233 11582.611198 9032.364019 11826.775474 C 9172.645805 12071.00493 9307.712655 12341.110845 9411.620261 12606.067541 C 9515.527867 12871.089416 9588.276228 13130.831712 9567.48167 13374.995988 C 9546.752298 13619.225444 9432.41482 13847.8117 9385.675953 13889.26618 C 9338.937087 13930.851019 9359.666458 13785.434441 9562.266733 13733.485982 C 9764.867008 13681.472343 10149.403374 13723.122362 10445.546568 13790.714021 C 10741.689763 13858.17532 10949.504975 13951.708619 11131.310691 13967.286638 C 11313.181595 13982.929838 11468.977816 13920.487399 11515.78187 13972.501038 C 11562.520736 14024.384317 11500.202248 14190.723675 11437.818572 14388.088711 C 11375.500083 14585.453748 11313.181595 14814.105184 11240.368047 14970.015742 C 11167.684872 15125.795939 11084.506638 15209.030798 11001.393591 15292.070116 " stroke="#000000" stroke-width="55.066002" stroke-opacity="1" stroke-miterlimit="22.926001"/></g><path stroke-linecap="round" transform="matrix(0.0686717, 0, 0, -0.0686788, 203.111533, 1402.605171)" fill="none" stroke-linejoin="round" d="M 4162.323516 9859.304272 C 4351.857595 10014.52195 4541.448557 10169.568996 4699.696998 10496.498719 C 4857.888557 10823.428442 4984.851361 11322.127087 5107.263527 11848.012998 C 5229.61881 12373.89891 5347.480338 12926.972087 5433.658048 13320.732434 C 5519.778875 13714.379026 5574.215884 13948.599033 5655.786072 14148.067115 C 5737.413144 14347.47832 5846.230279 14512.308233 5868.869704 14626.403749 C 5891.566011 14740.499264 5828.084609 14803.860383 5809.93894 14953.504103 C 5791.79327 15103.090945 5818.983333 15338.903512 5950.496775 15556.515398 C 6081.953335 15774.070406 6317.733274 15973.595366 6567.051361 16105.095282 C 6816.369449 16236.481444 7079.33945 16300.013195 7324.163783 16290.912854 C 7568.931232 16281.869391 7795.666778 16200.307592 7886.28136 16141.269135 C 7976.952825 16082.401309 7931.673975 16046.113702 7782.014863 15987.188999 C 7632.412634 15928.207419 7378.543909 15846.588743 7170.010915 15742.389847 C 6961.477922 15638.134074 6798.280662 15511.184328 6798.280662 15565.615738 C 6798.280662 15619.876516 6961.477922 15855.689083 7192.707223 15987.188999 C 7423.879641 16118.632038 7723.084099 16145.876182 7904.427029 16109.588575 C 8085.826842 16073.300969 8149.251361 15973.595366 8140.150085 15792.271087 C 8131.105692 15610.88993 8049.535503 15347.890098 7890.831998 15139.378552 C 7732.185375 14930.867007 7496.405437 14776.729994 7256.131742 14654.330418 C 7015.858048 14531.930842 6771.033716 14441.211825 6585.197031 14441.211825 C 6399.303463 14441.211825 6272.397541 14531.930842 6149.928492 14559.061231 C 6027.573209 14586.305374 5909.711681 14550.017768 5823.533971 14476.816906 C 5737.413144 14403.50229 5682.976135 14293.103788 5758.516729 14234.179085 C 5834.114205 14175.311259 6039.689283 14167.689724 6125.753227 14077.823864 C 6211.930937 13987.901127 6178.711278 13815.620311 6166.595204 13684.120395 C 6154.536013 13552.677355 6163.580407 13461.958339 6213.409894 13416.570392 C 6263.296265 13371.296199 6353.96773 13371.296199 6358.518368 13316.921666 C 6363.012123 13262.490256 6281.441935 13153.684313 6213.409894 13013.197811 C 6145.434737 12872.597554 6091.054611 12700.316738 6109.143398 12487.3119 C 6127.289067 12274.193307 6217.960532 12020.293814 6331.328305 11820.768855 C 6444.639195 11621.414526 6580.646393 11476.320977 6725.584218 11294.427926 C 6870.46516 11112.421122 7024.333612 10893.614816 7105.903801 10734.927633 C 7187.530872 10576.183574 7196.916564 10477.672391 7206.302255 10379.218085 " stroke="#000000" stroke-width="48.050999" stroke-opacity="1" stroke-miterlimit="22.926001"/></svg>