<svg xmlns="http://www.w3.org/2000/svg" xmlns:xlink="http://www.w3.org/1999/xlink" width="500" zoomAndPan="magnify" viewBox="0 0 375 374.999991" height="500" preserveAspectRatio="xMidYMid meet" version="1.0"><defs><g/></defs><rect x="-37.5" width="450" fill="#ce6857" y="-37.499999" height="449.999989" fill-opacity="1"/><rect x="-37.5" width="450" fill="#ffffff" y="-37.499999" height="449.999989" fill-opacity="1"/><rect x="-37.5" width="450" fill="#ce6857" y="-37.499999" height="449.999989" fill-opacity="1"/><g fill="#523e27" fill-opacity="1"><g transform="translate(40.957028, 231.85466)"><g><path d="M 26.78125 1.1875 C 18.875 1.1875 13.238281 -1.21875 9.875 -6.03125 C 6.519531 -10.84375 4.84375 -17.660156 4.84375 -26.484375 L 4.84375 -53.375 C 4.84375 -62.40625 6.671875 -69.289062 10.328125 -74.03125 C 13.984375 -78.78125 20.160156 -81.15625 28.859375 -81.15625 C 37.234375 -81.15625 43.226562 -79.109375 46.84375 -75.015625 C 50.46875 -70.929688 52.28125 -65.164062 52.28125 -57.71875 L 52.28125 -52.578125 L 34.984375 -52.578125 L 34.984375 -59.109375 C 34.984375 -62.273438 34.617188 -64.664062 33.890625 -66.28125 C 33.171875 -67.894531 31.5625 -68.703125 29.0625 -68.703125 C 26.488281 -68.703125 24.820312 -67.8125 24.0625 -66.03125 C 23.3125 -64.25 22.9375 -61.773438 22.9375 -58.609375 L 22.9375 -21.546875 C 22.9375 -18.378906 23.410156 -15.890625 24.359375 -14.078125 C 25.316406 -12.265625 27.046875 -11.359375 29.546875 -11.359375 C 34.160156 -11.359375 36.46875 -14.820312 36.46875 -21.75 L 36.46875 -31.140625 L 29.25 -31.140625 L 29.25 -41.515625 L 52.390625 -41.515625 L 52.390625 0 L 40.71875 0 L 39.734375 -6.625 C 37.234375 -1.414062 32.914062 1.1875 26.78125 1.1875 Z M 26.78125 1.1875 "/></g></g></g><g fill="#523e27" fill-opacity="1"><g transform="translate(98.481997, 231.85466)"><g><path d="M 28.859375 1.1875 C 20.222656 1.1875 14.0625 -1.035156 10.375 -5.484375 C 6.6875 -9.929688 4.84375 -16.503906 4.84375 -25.203125 L 4.84375 -54.953125 C 4.84375 -63.648438 6.6875 -70.191406 10.375 -74.578125 C 14.0625 -78.960938 20.222656 -81.15625 28.859375 -81.15625 C 37.554688 -81.15625 43.765625 -78.945312 47.484375 -74.53125 C 51.210938 -70.113281 53.078125 -63.585938 53.078125 -54.953125 L 53.078125 -25.203125 C 53.078125 -16.503906 51.210938 -9.929688 47.484375 -5.484375 C 43.765625 -1.035156 37.554688 1.1875 28.859375 1.1875 Z M 28.859375 -11.359375 C 31.367188 -11.359375 33.015625 -12.195312 33.796875 -13.875 C 34.585938 -15.5625 34.984375 -17.851562 34.984375 -20.75 L 34.984375 -59.3125 C 34.984375 -62.269531 34.585938 -64.570312 33.796875 -66.21875 C 33.015625 -67.875 31.367188 -68.703125 28.859375 -68.703125 C 26.484375 -68.703125 24.898438 -67.859375 24.109375 -66.171875 C 23.328125 -64.492188 22.9375 -62.207031 22.9375 -59.3125 L 22.9375 -20.75 C 22.9375 -17.851562 23.296875 -15.5625 24.015625 -13.875 C 24.742188 -12.195312 26.359375 -11.359375 28.859375 -11.359375 Z M 28.859375 -11.359375 "/></g></g></g><g fill="#523e27" fill-opacity="1"><g transform="translate(156.40233, 231.85466)"><g><path d="M 17.203125 -80.0625 L 37.359375 -80.0625 L 52.28125 0 L 35.984375 0 L 33.3125 -16.90625 L 21.546875 -16.90625 L 18.78125 0 L 2.078125 0 Z M 31.625 -27.484375 L 27.375 -58.71875 L 23.125 -27.484375 Z M 31.625 -27.484375 "/></g></g></g><g fill="#523e27" fill-opacity="1"><g transform="translate(210.863257, 231.85466)"><g><path d="M 5.9375 -80.0625 L 23.625 -80.0625 L 23.625 -11.953125 L 42.015625 -11.953125 L 42.015625 0 L 5.9375 0 Z M 5.9375 -80.0625 "/></g></g></g><g fill="#523e27" fill-opacity="1"><g transform="translate(254.649439, 231.85466)"><g/></g></g><g fill="#523e27" fill-opacity="1"><g transform="translate(279.952519, 231.85466)"><g><path d="M 25.703125 1.28125 C 17.992188 1.28125 12.40625 -0.90625 8.9375 -5.28125 C 5.476562 -9.664062 3.75 -15.710938 3.75 -23.421875 C 3.75 -27.703125 4.523438 -31.503906 6.078125 -34.828125 C 7.628906 -38.160156 9.953125 -40.585938 13.046875 -42.109375 C 10.742188 -43.816406 8.832031 -46.203125 7.3125 -49.265625 C 5.800781 -52.335938 5.046875 -56.046875 5.046875 -60.390625 C 5.046875 -66.910156 6.835938 -72 10.421875 -75.65625 C 14.015625 -79.320312 19.109375 -81.15625 25.703125 -81.15625 C 32.285156 -81.15625 37.335938 -79.34375 40.859375 -75.71875 C 44.390625 -72.09375 46.15625 -67.082031 46.15625 -60.6875 C 46.15625 -56.144531 45.445312 -52.304688 44.03125 -49.171875 C 42.613281 -46.046875 40.71875 -43.691406 38.34375 -42.109375 C 41.445312 -40.585938 43.769531 -38.097656 45.3125 -34.640625 C 46.863281 -31.179688 47.640625 -27.210938 47.640625 -22.734375 C 47.640625 -15.222656 45.894531 -9.34375 42.40625 -5.09375 C 38.914062 -0.84375 33.347656 1.28125 25.703125 1.28125 Z M 25.703125 -48.03125 C 28.992188 -48.03125 30.640625 -52.019531 30.640625 -60 C 30.640625 -62.695312 30.210938 -64.835938 29.359375 -66.421875 C 28.503906 -68.003906 27.285156 -68.796875 25.703125 -68.796875 C 24.054688 -68.796875 22.785156 -68.019531 21.890625 -66.46875 C 21.003906 -64.925781 20.5625 -62.800781 20.5625 -60.09375 C 20.5625 -52.050781 22.273438 -48.03125 25.703125 -48.03125 Z M 25.703125 -10.875 C 27.484375 -10.875 28.785156 -11.582031 29.609375 -13 C 30.429688 -14.414062 30.921875 -15.960938 31.078125 -17.640625 C 31.242188 -19.328125 31.328125 -21.421875 31.328125 -23.921875 C 31.328125 -27.347656 30.945312 -30.046875 30.1875 -32.015625 C 29.4375 -33.992188 27.941406 -34.984375 25.703125 -34.984375 C 23.390625 -34.984375 21.867188 -33.878906 21.140625 -31.671875 C 20.421875 -29.472656 20.0625 -26.425781 20.0625 -22.53125 C 20.0625 -19.238281 20.421875 -16.472656 21.140625 -14.234375 C 21.867188 -11.992188 23.390625 -10.875 25.703125 -10.875 Z M 25.703125 -10.875 "/></g></g></g><g fill="#523e27" fill-opacity="1"><g transform="translate(79.013047, 270.968552)"><g><path d="M 14.9375 -7.4375 C 14.9375 -6.363281 14.75 -5.375 14.375 -4.46875 C 14.007812 -3.5625 13.488281 -2.773438 12.8125 -2.109375 C 12.132812 -1.441406 11.320312 -0.921875 10.375 -0.546875 C 9.425781 -0.179688 8.375 0 7.21875 0 L 1.4375 0 L 1.4375 -14.875 L 7.21875 -14.875 C 8.375 -14.875 9.425781 -14.6875 10.375 -14.3125 C 11.320312 -13.9375 12.132812 -13.414062 12.8125 -12.75 C 13.488281 -12.09375 14.007812 -11.3125 14.375 -10.40625 C 14.75 -9.5 14.9375 -8.507812 14.9375 -7.4375 Z M 11.40625 -7.4375 C 11.40625 -8.175781 11.304688 -8.84375 11.109375 -9.4375 C 10.921875 -10.03125 10.648438 -10.53125 10.296875 -10.9375 C 9.941406 -11.351562 9.503906 -11.671875 8.984375 -11.890625 C 8.460938 -12.109375 7.875 -12.21875 7.21875 -12.21875 L 4.90625 -12.21875 L 4.90625 -2.65625 L 7.21875 -2.65625 C 7.875 -2.65625 8.460938 -2.765625 8.984375 -2.984375 C 9.503906 -3.203125 9.941406 -3.515625 10.296875 -3.921875 C 10.648438 -4.335938 10.921875 -4.84375 11.109375 -5.4375 C 11.304688 -6.03125 11.40625 -6.695312 11.40625 -7.4375 Z M 11.40625 -7.4375 "/></g></g></g><g fill="#523e27" fill-opacity="1"><g transform="translate(95.514004, 270.968552)"><g><path d="M 4.90625 -12.21875 L 4.90625 -8.75 L 9.59375 -8.75 L 9.59375 -6.203125 L 4.90625 -6.203125 L 4.90625 -2.65625 L 11.015625 -2.65625 L 11.015625 0 L 1.4375 0 L 1.4375 -14.875 L 11.015625 -14.875 L 11.015625 -12.21875 Z M 4.90625 -12.21875 "/></g></g></g><g fill="#523e27" fill-opacity="1"><g transform="translate(108.17575, 270.968552)"><g><path d="M 11.46875 -3.84375 C 11.550781 -3.84375 11.628906 -3.828125 11.703125 -3.796875 C 11.785156 -3.765625 11.867188 -3.710938 11.953125 -3.640625 L 13.3125 -2.203125 C 12.71875 -1.421875 11.96875 -0.832031 11.0625 -0.4375 C 10.15625 -0.0390625 9.085938 0.15625 7.859375 0.15625 C 6.734375 0.15625 5.722656 -0.03125 4.828125 -0.40625 C 3.929688 -0.789062 3.171875 -1.320312 2.546875 -2 C 1.921875 -2.675781 1.441406 -3.476562 1.109375 -4.40625 C 0.773438 -5.34375 0.609375 -6.351562 0.609375 -7.4375 C 0.609375 -8.550781 0.785156 -9.570312 1.140625 -10.5 C 1.503906 -11.425781 2.015625 -12.226562 2.671875 -12.90625 C 3.328125 -13.582031 4.109375 -14.109375 5.015625 -14.484375 C 5.929688 -14.859375 6.9375 -15.046875 8.03125 -15.046875 C 8.59375 -15.046875 9.117188 -14.992188 9.609375 -14.890625 C 10.109375 -14.796875 10.570312 -14.660156 11 -14.484375 C 11.425781 -14.304688 11.816406 -14.09375 12.171875 -13.84375 C 12.535156 -13.601562 12.859375 -13.34375 13.140625 -13.0625 L 11.984375 -11.5 C 11.898438 -11.40625 11.804688 -11.316406 11.703125 -11.234375 C 11.609375 -11.160156 11.46875 -11.125 11.28125 -11.125 C 11.15625 -11.125 11.035156 -11.148438 10.921875 -11.203125 C 10.816406 -11.253906 10.703125 -11.316406 10.578125 -11.390625 C 10.460938 -11.472656 10.332031 -11.5625 10.1875 -11.65625 C 10.039062 -11.75 9.863281 -11.832031 9.65625 -11.90625 C 9.457031 -11.988281 9.222656 -12.054688 8.953125 -12.109375 C 8.691406 -12.160156 8.378906 -12.1875 8.015625 -12.1875 C 7.441406 -12.1875 6.914062 -12.082031 6.4375 -11.875 C 5.96875 -11.664062 5.5625 -11.359375 5.21875 -10.953125 C 4.875 -10.546875 4.609375 -10.046875 4.421875 -9.453125 C 4.234375 -8.867188 4.140625 -8.195312 4.140625 -7.4375 C 4.140625 -6.675781 4.242188 -6 4.453125 -5.40625 C 4.660156 -4.820312 4.941406 -4.328125 5.296875 -3.921875 C 5.660156 -3.515625 6.078125 -3.203125 6.546875 -2.984375 C 7.023438 -2.773438 7.539062 -2.671875 8.09375 -2.671875 C 8.40625 -2.671875 8.6875 -2.6875 8.9375 -2.71875 C 9.195312 -2.75 9.4375 -2.800781 9.65625 -2.875 C 9.882812 -2.945312 10.097656 -3.039062 10.296875 -3.15625 C 10.492188 -3.28125 10.695312 -3.429688 10.90625 -3.609375 C 10.988281 -3.679688 11.078125 -3.738281 11.171875 -3.78125 C 11.265625 -3.820312 11.363281 -3.84375 11.46875 -3.84375 Z M 11.46875 -3.84375 "/></g></g></g><g fill="#523e27" fill-opacity="1"><g transform="translate(122.522261, 270.968552)"><g><path d="M 4.90625 -12.21875 L 4.90625 -8.75 L 9.59375 -8.75 L 9.59375 -6.203125 L 4.90625 -6.203125 L 4.90625 -2.65625 L 11.015625 -2.65625 L 11.015625 0 L 1.4375 0 L 1.4375 -14.875 L 11.015625 -14.875 L 11.015625 -12.21875 Z M 4.90625 -12.21875 "/></g></g></g><g fill="#523e27" fill-opacity="1"><g transform="translate(135.184007, 270.968552)"><g><path d="M 14.421875 -14.875 L 14.421875 0 L 12.625 0 C 12.363281 0 12.140625 -0.0390625 11.953125 -0.125 C 11.773438 -0.207031 11.597656 -0.359375 11.421875 -0.578125 L 4.40625 -9.4375 C 4.4375 -9.175781 4.457031 -8.921875 4.46875 -8.671875 C 4.476562 -8.421875 4.484375 -8.1875 4.484375 -7.96875 L 4.484375 0 L 1.4375 0 L 1.4375 -14.875 L 3.25 -14.875 C 3.40625 -14.875 3.53125 -14.867188 3.625 -14.859375 C 3.726562 -14.847656 3.820312 -14.820312 3.90625 -14.78125 C 3.988281 -14.738281 4.066406 -14.679688 4.140625 -14.609375 C 4.222656 -14.546875 4.3125 -14.457031 4.40625 -14.34375 L 11.484375 -5.40625 C 11.441406 -5.695312 11.414062 -5.972656 11.40625 -6.234375 C 11.394531 -6.503906 11.390625 -6.757812 11.390625 -7 L 11.390625 -14.875 Z M 14.421875 -14.875 "/></g></g></g><g fill="#523e27" fill-opacity="1"><g transform="translate(152.011708, 270.968552)"><g><path d="M 12.125 -12.140625 L 7.9375 -12.140625 L 7.9375 0 L 4.5 0 L 4.5 -12.140625 L 0.3125 -12.140625 L 0.3125 -14.875 L 12.125 -14.875 Z M 12.125 -12.140625 "/></g></g></g><g fill="#523e27" fill-opacity="1"><g transform="translate(165.408625, 270.968552)"><g/></g></g><g fill="#523e27" fill-opacity="1"><g transform="translate(171.086284, 270.968552)"><g><path d="M 21.703125 -14.875 L 17.109375 0 L 13.984375 0 L 11.1875 -9.21875 C 11.132812 -9.363281 11.082031 -9.519531 11.03125 -9.6875 C 10.988281 -9.863281 10.941406 -10.046875 10.890625 -10.234375 C 10.847656 -10.046875 10.800781 -9.863281 10.75 -9.6875 C 10.707031 -9.519531 10.65625 -9.363281 10.59375 -9.21875 L 7.765625 0 L 4.640625 0 L 0.046875 -14.875 L 2.9375 -14.875 C 3.238281 -14.875 3.488281 -14.804688 3.6875 -14.671875 C 3.894531 -14.535156 4.023438 -14.351562 4.078125 -14.125 L 6.125 -6.375 C 6.1875 -6.125 6.25 -5.851562 6.3125 -5.5625 C 6.375 -5.28125 6.4375 -4.984375 6.5 -4.671875 C 6.613281 -5.304688 6.757812 -5.875 6.9375 -6.375 L 9.359375 -14.125 C 9.410156 -14.320312 9.535156 -14.492188 9.734375 -14.640625 C 9.941406 -14.796875 10.1875 -14.875 10.46875 -14.875 L 11.5 -14.875 C 11.800781 -14.875 12.039062 -14.800781 12.21875 -14.65625 C 12.40625 -14.519531 12.546875 -14.34375 12.640625 -14.125 L 15.03125 -6.375 C 15.207031 -5.894531 15.359375 -5.351562 15.484375 -4.75 C 15.535156 -5.050781 15.585938 -5.335938 15.640625 -5.609375 C 15.703125 -5.878906 15.765625 -6.132812 15.828125 -6.375 L 17.875 -14.125 C 17.925781 -14.320312 18.050781 -14.492188 18.25 -14.640625 C 18.457031 -14.796875 18.707031 -14.875 19 -14.875 Z M 21.703125 -14.875 "/></g></g></g><g fill="#523e27" fill-opacity="1"><g transform="translate(193.795329, 270.968552)"><g><path d="M 16.046875 -7.4375 C 16.046875 -6.363281 15.859375 -5.363281 15.484375 -4.4375 C 15.109375 -3.507812 14.582031 -2.703125 13.90625 -2.015625 C 13.238281 -1.335938 12.429688 -0.804688 11.484375 -0.421875 C 10.535156 -0.0351562 9.484375 0.15625 8.328125 0.15625 C 7.171875 0.15625 6.113281 -0.0351562 5.15625 -0.421875 C 4.207031 -0.804688 3.390625 -1.335938 2.703125 -2.015625 C 2.023438 -2.703125 1.5 -3.507812 1.125 -4.4375 C 0.757812 -5.363281 0.578125 -6.363281 0.578125 -7.4375 C 0.578125 -8.519531 0.757812 -9.519531 1.125 -10.4375 C 1.5 -11.363281 2.023438 -12.164062 2.703125 -12.84375 C 3.390625 -13.53125 4.207031 -14.066406 5.15625 -14.453125 C 6.113281 -14.847656 7.171875 -15.046875 8.328125 -15.046875 C 9.484375 -15.046875 10.535156 -14.847656 11.484375 -14.453125 C 12.429688 -14.054688 13.238281 -13.519531 13.90625 -12.84375 C 14.582031 -12.164062 15.109375 -11.363281 15.484375 -10.4375 C 15.859375 -9.507812 16.046875 -8.507812 16.046875 -7.4375 Z M 12.515625 -7.4375 C 12.515625 -8.175781 12.414062 -8.835938 12.21875 -9.421875 C 12.03125 -10.015625 11.753906 -10.515625 11.390625 -10.921875 C 11.035156 -11.328125 10.597656 -11.640625 10.078125 -11.859375 C 9.566406 -12.078125 8.984375 -12.1875 8.328125 -12.1875 C 7.660156 -12.1875 7.066406 -12.078125 6.546875 -11.859375 C 6.023438 -11.640625 5.582031 -11.328125 5.21875 -10.921875 C 4.863281 -10.515625 4.585938 -10.015625 4.390625 -9.421875 C 4.203125 -8.835938 4.109375 -8.175781 4.109375 -7.4375 C 4.109375 -6.695312 4.203125 -6.03125 4.390625 -5.4375 C 4.585938 -4.851562 4.863281 -4.359375 5.21875 -3.953125 C 5.582031 -3.546875 6.023438 -3.234375 6.546875 -3.015625 C 7.066406 -2.804688 7.660156 -2.703125 8.328125 -2.703125 C 8.984375 -2.703125 9.566406 -2.804688 10.078125 -3.015625 C 10.597656 -3.234375 11.035156 -3.546875 11.390625 -3.953125 C 11.753906 -4.359375 12.03125 -4.851562 12.21875 -5.4375 C 12.414062 -6.03125 12.515625 -6.695312 12.515625 -7.4375 Z M 12.515625 -7.4375 "/></g></g></g><g fill="#523e27" fill-opacity="1"><g transform="translate(211.388838, 270.968552)"><g><path d="M 6.28125 -7.890625 C 6.75 -7.890625 7.144531 -7.945312 7.46875 -8.0625 C 7.800781 -8.175781 8.070312 -8.335938 8.28125 -8.546875 C 8.5 -8.765625 8.65625 -9.015625 8.75 -9.296875 C 8.84375 -9.578125 8.890625 -9.882812 8.890625 -10.21875 C 8.890625 -10.863281 8.675781 -11.367188 8.25 -11.734375 C 7.832031 -12.109375 7.175781 -12.296875 6.28125 -12.296875 L 4.890625 -12.296875 L 4.890625 -7.890625 Z M 13.609375 0 L 10.484375 0 C 9.910156 0 9.492188 -0.21875 9.234375 -0.65625 L 6.765625 -4.96875 C 6.648438 -5.15625 6.519531 -5.289062 6.375 -5.375 C 6.238281 -5.457031 6.035156 -5.5 5.765625 -5.5 L 4.890625 -5.5 L 4.890625 0 L 1.4375 0 L 1.4375 -14.875 L 6.28125 -14.875 C 7.351562 -14.875 8.269531 -14.765625 9.03125 -14.546875 C 9.789062 -14.328125 10.410156 -14.019531 10.890625 -13.625 C 11.367188 -13.226562 11.71875 -12.757812 11.9375 -12.21875 C 12.15625 -11.6875 12.265625 -11.101562 12.265625 -10.46875 C 12.265625 -9.976562 12.195312 -9.519531 12.0625 -9.09375 C 11.9375 -8.664062 11.75 -8.269531 11.5 -7.90625 C 11.25 -7.539062 10.9375 -7.210938 10.5625 -6.921875 C 10.1875 -6.640625 9.757812 -6.410156 9.28125 -6.234375 C 9.507812 -6.117188 9.722656 -5.972656 9.921875 -5.796875 C 10.117188 -5.617188 10.296875 -5.410156 10.453125 -5.171875 Z M 13.609375 0 "/></g></g></g><g fill="#523e27" fill-opacity="1"><g transform="translate(225.776188, 270.968552)"><g><path d="M 4.890625 -8.859375 L 5.4375 -8.859375 C 5.945312 -8.859375 6.316406 -9.015625 6.546875 -9.328125 L 9.890625 -14.1875 C 10.085938 -14.445312 10.300781 -14.625 10.53125 -14.71875 C 10.757812 -14.820312 11.046875 -14.875 11.390625 -14.875 L 14.390625 -14.875 L 9.96875 -8.859375 C 9.65625 -8.441406 9.320312 -8.144531 8.96875 -7.96875 C 9.226562 -7.875 9.460938 -7.738281 9.671875 -7.5625 C 9.878906 -7.394531 10.078125 -7.175781 10.265625 -6.90625 L 14.75 0 L 11.671875 0 C 11.472656 0 11.300781 -0.0078125 11.15625 -0.03125 C 11.019531 -0.0625 10.898438 -0.101562 10.796875 -0.15625 C 10.703125 -0.21875 10.613281 -0.285156 10.53125 -0.359375 C 10.457031 -0.441406 10.390625 -0.535156 10.328125 -0.640625 L 6.953125 -5.8125 C 6.828125 -6 6.671875 -6.128906 6.484375 -6.203125 C 6.296875 -6.285156 6.046875 -6.328125 5.734375 -6.328125 L 4.890625 -6.328125 L 4.890625 0 L 1.4375 0 L 1.4375 -14.875 L 4.890625 -14.875 Z M 4.890625 -8.859375 "/></g></g></g><g fill="#523e27" fill-opacity="1"><g transform="translate(241.164192, 270.968552)"><g/></g></g><g fill="#523e27" fill-opacity="1"><g transform="translate(246.841851, 270.968552)"><g><path d="M 9.296875 -5.6875 L 7.921875 -9.765625 C 7.816406 -10.023438 7.707031 -10.328125 7.59375 -10.671875 C 7.476562 -11.023438 7.363281 -11.40625 7.25 -11.8125 C 7.144531 -11.394531 7.035156 -11.007812 6.921875 -10.65625 C 6.804688 -10.300781 6.695312 -9.992188 6.59375 -9.734375 L 5.234375 -5.6875 Z M 14.78125 0 L 12.109375 0 C 11.804688 0 11.5625 -0.0664062 11.375 -0.203125 C 11.195312 -0.347656 11.0625 -0.53125 10.96875 -0.75 L 10.09375 -3.34375 L 4.4375 -3.34375 L 3.546875 -0.75 C 3.472656 -0.550781 3.335938 -0.375 3.140625 -0.21875 C 2.953125 -0.0703125 2.71875 0 2.4375 0 L -0.265625 0 L 5.5 -14.875 L 9.03125 -14.875 Z M 14.78125 0 "/></g></g></g><g fill="#523e27" fill-opacity="1"><g transform="translate(262.32175, 270.968552)"><g><path d="M 14.421875 -14.875 L 14.421875 0 L 12.625 0 C 12.363281 0 12.140625 -0.0390625 11.953125 -0.125 C 11.773438 -0.207031 11.597656 -0.359375 11.421875 -0.578125 L 4.40625 -9.4375 C 4.4375 -9.175781 4.457031 -8.921875 4.46875 -8.671875 C 4.476562 -8.421875 4.484375 -8.1875 4.484375 -7.96875 L 4.484375 0 L 1.4375 0 L 1.4375 -14.875 L 3.25 -14.875 C 3.40625 -14.875 3.53125 -14.867188 3.625 -14.859375 C 3.726562 -14.847656 3.820312 -14.820312 3.90625 -14.78125 C 3.988281 -14.738281 4.066406 -14.679688 4.140625 -14.609375 C 4.222656 -14.546875 4.3125 -14.457031 4.40625 -14.34375 L 11.484375 -5.40625 C 11.441406 -5.695312 11.414062 -5.972656 11.40625 -6.234375 C 11.394531 -6.503906 11.390625 -6.757812 11.390625 -7 L 11.390625 -14.875 Z M 14.421875 -14.875 "/></g></g></g><g fill="#523e27" fill-opacity="1"><g transform="translate(279.149451, 270.968552)"><g><path d="M 14.9375 -7.4375 C 14.9375 -6.363281 14.75 -5.375 14.375 -4.46875 C 14.007812 -3.5625 13.488281 -2.773438 12.8125 -2.109375 C 12.132812 -1.441406 11.320312 -0.921875 10.375 -0.546875 C 9.425781 -0.179688 8.375 0 7.21875 0 L 1.4375 0 L 1.4375 -14.875 L 7.21875 -14.875 C 8.375 -14.875 9.425781 -14.6875 10.375 -14.3125 C 11.320312 -13.9375 12.132812 -13.414062 12.8125 -12.75 C 13.488281 -12.09375 14.007812 -11.3125 14.375 -10.40625 C 14.75 -9.5 14.9375 -8.507812 14.9375 -7.4375 Z M 11.40625 -7.4375 C 11.40625 -8.175781 11.304688 -8.84375 11.109375 -9.4375 C 10.921875 -10.03125 10.648438 -10.53125 10.296875 -10.9375 C 9.941406 -11.351562 9.503906 -11.671875 8.984375 -11.890625 C 8.460938 -12.109375 7.875 -12.21875 7.21875 -12.21875 L 4.90625 -12.21875 L 4.90625 -2.65625 L 7.21875 -2.65625 C 7.875 -2.65625 8.460938 -2.765625 8.984375 -2.984375 C 9.503906 -3.203125 9.941406 -3.515625 10.296875 -3.921875 C 10.648438 -4.335938 10.921875 -4.84375 11.109375 -5.4375 C 11.304688 -6.03125 11.40625 -6.695312 11.40625 -7.4375 Z M 11.40625 -7.4375 "/></g></g></g><g fill="#523e27" fill-opacity="1"><g transform="translate(73.560212, 294.538106)"><g><path d="M 4.90625 -12.21875 L 4.90625 -8.75 L 9.59375 -8.75 L 9.59375 -6.203125 L 4.90625 -6.203125 L 4.90625 -2.65625 L 11.015625 -2.65625 L 11.015625 0 L 1.4375 0 L 1.4375 -14.875 L 11.015625 -14.875 L 11.015625 -12.21875 Z M 4.90625 -12.21875 "/></g></g></g><g fill="#523e27" fill-opacity="1"><g transform="translate(86.221958, 294.538106)"><g><path d="M 11.46875 -3.84375 C 11.550781 -3.84375 11.628906 -3.828125 11.703125 -3.796875 C 11.785156 -3.765625 11.867188 -3.710938 11.953125 -3.640625 L 13.3125 -2.203125 C 12.71875 -1.421875 11.96875 -0.832031 11.0625 -0.4375 C 10.15625 -0.0390625 9.085938 0.15625 7.859375 0.15625 C 6.734375 0.15625 5.722656 -0.03125 4.828125 -0.40625 C 3.929688 -0.789062 3.171875 -1.320312 2.546875 -2 C 1.921875 -2.675781 1.441406 -3.476562 1.109375 -4.40625 C 0.773438 -5.34375 0.609375 -6.351562 0.609375 -7.4375 C 0.609375 -8.550781 0.785156 -9.570312 1.140625 -10.5 C 1.503906 -11.425781 2.015625 -12.226562 2.671875 -12.90625 C 3.328125 -13.582031 4.109375 -14.109375 5.015625 -14.484375 C 5.929688 -14.859375 6.9375 -15.046875 8.03125 -15.046875 C 8.59375 -15.046875 9.117188 -14.992188 9.609375 -14.890625 C 10.109375 -14.796875 10.570312 -14.660156 11 -14.484375 C 11.425781 -14.304688 11.816406 -14.09375 12.171875 -13.84375 C 12.535156 -13.601562 12.859375 -13.34375 13.140625 -13.0625 L 11.984375 -11.5 C 11.898438 -11.40625 11.804688 -11.316406 11.703125 -11.234375 C 11.609375 -11.160156 11.46875 -11.125 11.28125 -11.125 C 11.15625 -11.125 11.035156 -11.148438 10.921875 -11.203125 C 10.816406 -11.253906 10.703125 -11.316406 10.578125 -11.390625 C 10.460938 -11.472656 10.332031 -11.5625 10.1875 -11.65625 C 10.039062 -11.75 9.863281 -11.832031 9.65625 -11.90625 C 9.457031 -11.988281 9.222656 -12.054688 8.953125 -12.109375 C 8.691406 -12.160156 8.378906 -12.1875 8.015625 -12.1875 C 7.441406 -12.1875 6.914062 -12.082031 6.4375 -11.875 C 5.96875 -11.664062 5.5625 -11.359375 5.21875 -10.953125 C 4.875 -10.546875 4.609375 -10.046875 4.421875 -9.453125 C 4.234375 -8.867188 4.140625 -8.195312 4.140625 -7.4375 C 4.140625 -6.675781 4.242188 -6 4.453125 -5.40625 C 4.660156 -4.820312 4.941406 -4.328125 5.296875 -3.921875 C 5.660156 -3.515625 6.078125 -3.203125 6.546875 -2.984375 C 7.023438 -2.773438 7.539062 -2.671875 8.09375 -2.671875 C 8.40625 -2.671875 8.6875 -2.6875 8.9375 -2.71875 C 9.195312 -2.75 9.4375 -2.800781 9.65625 -2.875 C 9.882812 -2.945312 10.097656 -3.039062 10.296875 -3.15625 C 10.492188 -3.28125 10.695312 -3.429688 10.90625 -3.609375 C 10.988281 -3.679688 11.078125 -3.738281 11.171875 -3.78125 C 11.265625 -3.820312 11.363281 -3.84375 11.46875 -3.84375 Z M 11.46875 -3.84375 "/></g></g></g><g fill="#523e27" fill-opacity="1"><g transform="translate(100.568468, 294.538106)"><g><path d="M 16.046875 -7.4375 C 16.046875 -6.363281 15.859375 -5.363281 15.484375 -4.4375 C 15.109375 -3.507812 14.582031 -2.703125 13.90625 -2.015625 C 13.238281 -1.335938 12.429688 -0.804688 11.484375 -0.421875 C 10.535156 -0.0351562 9.484375 0.15625 8.328125 0.15625 C 7.171875 0.15625 6.113281 -0.0351562 5.15625 -0.421875 C 4.207031 -0.804688 3.390625 -1.335938 2.703125 -2.015625 C 2.023438 -2.703125 1.5 -3.507812 1.125 -4.4375 C 0.757812 -5.363281 0.578125 -6.363281 0.578125 -7.4375 C 0.578125 -8.519531 0.757812 -9.519531 1.125 -10.4375 C 1.5 -11.363281 2.023438 -12.164062 2.703125 -12.84375 C 3.390625 -13.53125 4.207031 -14.066406 5.15625 -14.453125 C 6.113281 -14.847656 7.171875 -15.046875 8.328125 -15.046875 C 9.484375 -15.046875 10.535156 -14.847656 11.484375 -14.453125 C 12.429688 -14.054688 13.238281 -13.519531 13.90625 -12.84375 C 14.582031 -12.164062 15.109375 -11.363281 15.484375 -10.4375 C 15.859375 -9.507812 16.046875 -8.507812 16.046875 -7.4375 Z M 12.515625 -7.4375 C 12.515625 -8.175781 12.414062 -8.835938 12.21875 -9.421875 C 12.03125 -10.015625 11.753906 -10.515625 11.390625 -10.921875 C 11.035156 -11.328125 10.597656 -11.640625 10.078125 -11.859375 C 9.566406 -12.078125 8.984375 -12.1875 8.328125 -12.1875 C 7.660156 -12.1875 7.066406 -12.078125 6.546875 -11.859375 C 6.023438 -11.640625 5.582031 -11.328125 5.21875 -10.921875 C 4.863281 -10.515625 4.585938 -10.015625 4.390625 -9.421875 C 4.203125 -8.835938 4.109375 -8.175781 4.109375 -7.4375 C 4.109375 -6.695312 4.203125 -6.03125 4.390625 -5.4375 C 4.585938 -4.851562 4.863281 -4.359375 5.21875 -3.953125 C 5.582031 -3.546875 6.023438 -3.234375 6.546875 -3.015625 C 7.066406 -2.804688 7.660156 -2.703125 8.328125 -2.703125 C 8.984375 -2.703125 9.566406 -2.804688 10.078125 -3.015625 C 10.597656 -3.234375 11.035156 -3.546875 11.390625 -3.953125 C 11.753906 -4.359375 12.03125 -4.851562 12.21875 -5.4375 C 12.414062 -6.03125 12.515625 -6.695312 12.515625 -7.4375 Z M 12.515625 -7.4375 "/></g></g></g><g fill="#523e27" fill-opacity="1"><g transform="translate(118.161974, 294.538106)"><g><path d="M 14.421875 -14.875 L 14.421875 0 L 12.625 0 C 12.363281 0 12.140625 -0.0390625 11.953125 -0.125 C 11.773438 -0.207031 11.597656 -0.359375 11.421875 -0.578125 L 4.40625 -9.4375 C 4.4375 -9.175781 4.457031 -8.921875 4.46875 -8.671875 C 4.476562 -8.421875 4.484375 -8.1875 4.484375 -7.96875 L 4.484375 0 L 1.4375 0 L 1.4375 -14.875 L 3.25 -14.875 C 3.40625 -14.875 3.53125 -14.867188 3.625 -14.859375 C 3.726562 -14.847656 3.820312 -14.820312 3.90625 -14.78125 C 3.988281 -14.738281 4.066406 -14.679688 4.140625 -14.609375 C 4.222656 -14.546875 4.3125 -14.457031 4.40625 -14.34375 L 11.484375 -5.40625 C 11.441406 -5.695312 11.414062 -5.972656 11.40625 -6.234375 C 11.394531 -6.503906 11.390625 -6.757812 11.390625 -7 L 11.390625 -14.875 Z M 14.421875 -14.875 "/></g></g></g><g fill="#523e27" fill-opacity="1"><g transform="translate(134.989671, 294.538106)"><g><path d="M 16.046875 -7.4375 C 16.046875 -6.363281 15.859375 -5.363281 15.484375 -4.4375 C 15.109375 -3.507812 14.582031 -2.703125 13.90625 -2.015625 C 13.238281 -1.335938 12.429688 -0.804688 11.484375 -0.421875 C 10.535156 -0.0351562 9.484375 0.15625 8.328125 0.15625 C 7.171875 0.15625 6.113281 -0.0351562 5.15625 -0.421875 C 4.207031 -0.804688 3.390625 -1.335938 2.703125 -2.015625 C 2.023438 -2.703125 1.5 -3.507812 1.125 -4.4375 C 0.757812 -5.363281 0.578125 -6.363281 0.578125 -7.4375 C 0.578125 -8.519531 0.757812 -9.519531 1.125 -10.4375 C 1.5 -11.363281 2.023438 -12.164062 2.703125 -12.84375 C 3.390625 -13.53125 4.207031 -14.066406 5.15625 -14.453125 C 6.113281 -14.847656 7.171875 -15.046875 8.328125 -15.046875 C 9.484375 -15.046875 10.535156 -14.847656 11.484375 -14.453125 C 12.429688 -14.054688 13.238281 -13.519531 13.90625 -12.84375 C 14.582031 -12.164062 15.109375 -11.363281 15.484375 -10.4375 C 15.859375 -9.507812 16.046875 -8.507812 16.046875 -7.4375 Z M 12.515625 -7.4375 C 12.515625 -8.175781 12.414062 -8.835938 12.21875 -9.421875 C 12.03125 -10.015625 11.753906 -10.515625 11.390625 -10.921875 C 11.035156 -11.328125 10.597656 -11.640625 10.078125 -11.859375 C 9.566406 -12.078125 8.984375 -12.1875 8.328125 -12.1875 C 7.660156 -12.1875 7.066406 -12.078125 6.546875 -11.859375 C 6.023438 -11.640625 5.582031 -11.328125 5.21875 -10.921875 C 4.863281 -10.515625 4.585938 -10.015625 4.390625 -9.421875 C 4.203125 -8.835938 4.109375 -8.175781 4.109375 -7.4375 C 4.109375 -6.695312 4.203125 -6.03125 4.390625 -5.4375 C 4.585938 -4.851562 4.863281 -4.359375 5.21875 -3.953125 C 5.582031 -3.546875 6.023438 -3.234375 6.546875 -3.015625 C 7.066406 -2.804688 7.660156 -2.703125 8.328125 -2.703125 C 8.984375 -2.703125 9.566406 -2.804688 10.078125 -3.015625 C 10.597656 -3.234375 11.035156 -3.546875 11.390625 -3.953125 C 11.753906 -4.359375 12.03125 -4.851562 12.21875 -5.4375 C 12.414062 -6.03125 12.515625 -6.695312 12.515625 -7.4375 Z M 12.515625 -7.4375 "/></g></g></g><g fill="#523e27" fill-opacity="1"><g transform="translate(152.58318, 294.538106)"><g><path d="M 18.171875 -14.875 L 18.171875 0 L 15.125 0 L 15.125 -8.5625 C 15.125 -8.757812 15.128906 -8.972656 15.140625 -9.203125 C 15.148438 -9.429688 15.164062 -9.664062 15.1875 -9.90625 L 11.25 -2.25 C 11.125 -2.019531 10.957031 -1.84375 10.75 -1.71875 C 10.539062 -1.59375 10.300781 -1.53125 10.03125 -1.53125 L 9.5625 -1.53125 C 9.300781 -1.53125 9.066406 -1.59375 8.859375 -1.71875 C 8.648438 -1.84375 8.484375 -2.019531 8.359375 -2.25 L 4.40625 -9.921875 C 4.425781 -9.679688 4.441406 -9.441406 4.453125 -9.203125 C 4.472656 -8.972656 4.484375 -8.757812 4.484375 -8.5625 L 4.484375 0 L 1.4375 0 L 1.4375 -14.875 L 4.078125 -14.875 C 4.222656 -14.875 4.351562 -14.867188 4.46875 -14.859375 C 4.582031 -14.859375 4.679688 -14.835938 4.765625 -14.796875 C 4.859375 -14.765625 4.9375 -14.710938 5 -14.640625 C 5.070312 -14.578125 5.144531 -14.476562 5.21875 -14.34375 L 9.046875 -6.796875 C 9.179688 -6.535156 9.3125 -6.265625 9.4375 -5.984375 C 9.5625 -5.710938 9.679688 -5.429688 9.796875 -5.140625 C 9.910156 -5.429688 10.03125 -5.71875 10.15625 -6 C 10.289062 -6.289062 10.425781 -6.566406 10.5625 -6.828125 L 14.390625 -14.34375 C 14.453125 -14.476562 14.519531 -14.578125 14.59375 -14.640625 C 14.664062 -14.710938 14.742188 -14.765625 14.828125 -14.796875 C 14.921875 -14.835938 15.023438 -14.859375 15.140625 -14.859375 C 15.253906 -14.867188 15.382812 -14.875 15.53125 -14.875 Z M 18.171875 -14.875 "/></g></g></g><g fill="#523e27" fill-opacity="1"><g transform="translate(173.147988, 294.538106)"><g><path d="M 4.90625 0 L 1.4375 0 L 1.4375 -14.875 L 4.90625 -14.875 Z M 4.90625 0 "/></g></g></g><g fill="#523e27" fill-opacity="1"><g transform="translate(180.459354, 294.538106)"><g><path d="M 11.46875 -3.84375 C 11.550781 -3.84375 11.628906 -3.828125 11.703125 -3.796875 C 11.785156 -3.765625 11.867188 -3.710938 11.953125 -3.640625 L 13.3125 -2.203125 C 12.71875 -1.421875 11.96875 -0.832031 11.0625 -0.4375 C 10.15625 -0.0390625 9.085938 0.15625 7.859375 0.15625 C 6.734375 0.15625 5.722656 -0.03125 4.828125 -0.40625 C 3.929688 -0.789062 3.171875 -1.320312 2.546875 -2 C 1.921875 -2.675781 1.441406 -3.476562 1.109375 -4.40625 C 0.773438 -5.34375 0.609375 -6.351562 0.609375 -7.4375 C 0.609375 -8.550781 0.785156 -9.570312 1.140625 -10.5 C 1.503906 -11.425781 2.015625 -12.226562 2.671875 -12.90625 C 3.328125 -13.582031 4.109375 -14.109375 5.015625 -14.484375 C 5.929688 -14.859375 6.9375 -15.046875 8.03125 -15.046875 C 8.59375 -15.046875 9.117188 -14.992188 9.609375 -14.890625 C 10.109375 -14.796875 10.570312 -14.660156 11 -14.484375 C 11.425781 -14.304688 11.816406 -14.09375 12.171875 -13.84375 C 12.535156 -13.601562 12.859375 -13.34375 13.140625 -13.0625 L 11.984375 -11.5 C 11.898438 -11.40625 11.804688 -11.316406 11.703125 -11.234375 C 11.609375 -11.160156 11.46875 -11.125 11.28125 -11.125 C 11.15625 -11.125 11.035156 -11.148438 10.921875 -11.203125 C 10.816406 -11.253906 10.703125 -11.316406 10.578125 -11.390625 C 10.460938 -11.472656 10.332031 -11.5625 10.1875 -11.65625 C 10.039062 -11.75 9.863281 -11.832031 9.65625 -11.90625 C 9.457031 -11.988281 9.222656 -12.054688 8.953125 -12.109375 C 8.691406 -12.160156 8.378906 -12.1875 8.015625 -12.1875 C 7.441406 -12.1875 6.914062 -12.082031 6.4375 -11.875 C 5.96875 -11.664062 5.5625 -11.359375 5.21875 -10.953125 C 4.875 -10.546875 4.609375 -10.046875 4.421875 -9.453125 C 4.234375 -8.867188 4.140625 -8.195312 4.140625 -7.4375 C 4.140625 -6.675781 4.242188 -6 4.453125 -5.40625 C 4.660156 -4.820312 4.941406 -4.328125 5.296875 -3.921875 C 5.660156 -3.515625 6.078125 -3.203125 6.546875 -2.984375 C 7.023438 -2.773438 7.539062 -2.671875 8.09375 -2.671875 C 8.40625 -2.671875 8.6875 -2.6875 8.9375 -2.71875 C 9.195312 -2.75 9.4375 -2.800781 9.65625 -2.875 C 9.882812 -2.945312 10.097656 -3.039062 10.296875 -3.15625 C 10.492188 -3.28125 10.695312 -3.429688 10.90625 -3.609375 C 10.988281 -3.679688 11.078125 -3.738281 11.171875 -3.78125 C 11.265625 -3.820312 11.363281 -3.84375 11.46875 -3.84375 Z M 11.46875 -3.84375 "/></g></g></g><g fill="#523e27" fill-opacity="1"><g transform="translate(194.805867, 294.538106)"><g/></g></g><g fill="#523e27" fill-opacity="1"><g transform="translate(200.483526, 294.538106)"><g><path d="M 8.59375 -7.703125 L 13.875 -7.703125 L 13.875 -1.421875 C 13.113281 -0.867188 12.300781 -0.46875 11.4375 -0.21875 C 10.582031 0.03125 9.679688 0.15625 8.734375 0.15625 C 7.515625 0.15625 6.398438 -0.03125 5.390625 -0.40625 C 4.390625 -0.789062 3.53125 -1.320312 2.8125 -2 C 2.101562 -2.675781 1.550781 -3.476562 1.15625 -4.40625 C 0.769531 -5.34375 0.578125 -6.351562 0.578125 -7.4375 C 0.578125 -8.550781 0.757812 -9.570312 1.125 -10.5 C 1.5 -11.425781 2.023438 -12.226562 2.703125 -12.90625 C 3.390625 -13.582031 4.21875 -14.109375 5.1875 -14.484375 C 6.15625 -14.859375 7.238281 -15.046875 8.4375 -15.046875 C 9.0625 -15.046875 9.644531 -14.992188 10.1875 -14.890625 C 10.726562 -14.785156 11.226562 -14.644531 11.6875 -14.46875 C 12.15625 -14.289062 12.578125 -14.078125 12.953125 -13.828125 C 13.335938 -13.585938 13.679688 -13.328125 13.984375 -13.046875 L 12.984375 -11.515625 C 12.828125 -11.273438 12.625 -11.128906 12.375 -11.078125 C 12.125 -11.023438 11.851562 -11.085938 11.5625 -11.265625 C 11.289062 -11.421875 11.035156 -11.554688 10.796875 -11.671875 C 10.554688 -11.796875 10.3125 -11.894531 10.0625 -11.96875 C 9.8125 -12.050781 9.546875 -12.109375 9.265625 -12.140625 C 8.984375 -12.171875 8.671875 -12.1875 8.328125 -12.1875 C 7.679688 -12.1875 7.097656 -12.070312 6.578125 -11.84375 C 6.054688 -11.613281 5.613281 -11.289062 5.25 -10.875 C 4.882812 -10.46875 4.601562 -9.972656 4.40625 -9.390625 C 4.207031 -8.804688 4.109375 -8.15625 4.109375 -7.4375 C 4.109375 -6.65625 4.21875 -5.957031 4.4375 -5.34375 C 4.65625 -4.726562 4.960938 -4.207031 5.359375 -3.78125 C 5.765625 -3.363281 6.242188 -3.039062 6.796875 -2.8125 C 7.347656 -2.59375 7.960938 -2.484375 8.640625 -2.484375 C 9.054688 -2.484375 9.429688 -2.523438 9.765625 -2.609375 C 10.097656 -2.691406 10.425781 -2.800781 10.75 -2.9375 L 10.75 -5.203125 L 9.28125 -5.203125 C 9.0625 -5.203125 8.890625 -5.257812 8.765625 -5.375 C 8.648438 -5.488281 8.59375 -5.632812 8.59375 -5.8125 Z M 8.59375 -7.703125 "/></g></g></g><g fill="#523e27" fill-opacity="1"><g transform="translate(216.198271, 294.538106)"><g><path d="M 6.28125 -7.890625 C 6.75 -7.890625 7.144531 -7.945312 7.46875 -8.0625 C 7.800781 -8.175781 8.070312 -8.335938 8.28125 -8.546875 C 8.5 -8.765625 8.65625 -9.015625 8.75 -9.296875 C 8.84375 -9.578125 8.890625 -9.882812 8.890625 -10.21875 C 8.890625 -10.863281 8.675781 -11.367188 8.25 -11.734375 C 7.832031 -12.109375 7.175781 -12.296875 6.28125 -12.296875 L 4.890625 -12.296875 L 4.890625 -7.890625 Z M 13.609375 0 L 10.484375 0 C 9.910156 0 9.492188 -0.21875 9.234375 -0.65625 L 6.765625 -4.96875 C 6.648438 -5.15625 6.519531 -5.289062 6.375 -5.375 C 6.238281 -5.457031 6.035156 -5.5 5.765625 -5.5 L 4.890625 -5.5 L 4.890625 0 L 1.4375 0 L 1.4375 -14.875 L 6.28125 -14.875 C 7.351562 -14.875 8.269531 -14.765625 9.03125 -14.546875 C 9.789062 -14.328125 10.410156 -14.019531 10.890625 -13.625 C 11.367188 -13.226562 11.71875 -12.757812 11.9375 -12.21875 C 12.15625 -11.6875 12.265625 -11.101562 12.265625 -10.46875 C 12.265625 -9.976562 12.195312 -9.519531 12.0625 -9.09375 C 11.9375 -8.664062 11.75 -8.269531 11.5 -7.90625 C 11.25 -7.539062 10.9375 -7.210938 10.5625 -6.921875 C 10.1875 -6.640625 9.757812 -6.410156 9.28125 -6.234375 C 9.507812 -6.117188 9.722656 -5.972656 9.921875 -5.796875 C 10.117188 -5.617188 10.296875 -5.410156 10.453125 -5.171875 Z M 13.609375 0 "/></g></g></g><g fill="#523e27" fill-opacity="1"><g transform="translate(230.585622, 294.538106)"><g><path d="M 16.046875 -7.4375 C 16.046875 -6.363281 15.859375 -5.363281 15.484375 -4.4375 C 15.109375 -3.507812 14.582031 -2.703125 13.90625 -2.015625 C 13.238281 -1.335938 12.429688 -0.804688 11.484375 -0.421875 C 10.535156 -0.0351562 9.484375 0.15625 8.328125 0.15625 C 7.171875 0.15625 6.113281 -0.0351562 5.15625 -0.421875 C 4.207031 -0.804688 3.390625 -1.335938 2.703125 -2.015625 C 2.023438 -2.703125 1.5 -3.507812 1.125 -4.4375 C 0.757812 -5.363281 0.578125 -6.363281 0.578125 -7.4375 C 0.578125 -8.519531 0.757812 -9.519531 1.125 -10.4375 C 1.5 -11.363281 2.023438 -12.164062 2.703125 -12.84375 C 3.390625 -13.53125 4.207031 -14.066406 5.15625 -14.453125 C 6.113281 -14.847656 7.171875 -15.046875 8.328125 -15.046875 C 9.484375 -15.046875 10.535156 -14.847656 11.484375 -14.453125 C 12.429688 -14.054688 13.238281 -13.519531 13.90625 -12.84375 C 14.582031 -12.164062 15.109375 -11.363281 15.484375 -10.4375 C 15.859375 -9.507812 16.046875 -8.507812 16.046875 -7.4375 Z M 12.515625 -7.4375 C 12.515625 -8.175781 12.414062 -8.835938 12.21875 -9.421875 C 12.03125 -10.015625 11.753906 -10.515625 11.390625 -10.921875 C 11.035156 -11.328125 10.597656 -11.640625 10.078125 -11.859375 C 9.566406 -12.078125 8.984375 -12.1875 8.328125 -12.1875 C 7.660156 -12.1875 7.066406 -12.078125 6.546875 -11.859375 C 6.023438 -11.640625 5.582031 -11.328125 5.21875 -10.921875 C 4.863281 -10.515625 4.585938 -10.015625 4.390625 -9.421875 C 4.203125 -8.835938 4.109375 -8.175781 4.109375 -7.4375 C 4.109375 -6.695312 4.203125 -6.03125 4.390625 -5.4375 C 4.585938 -4.851562 4.863281 -4.359375 5.21875 -3.953125 C 5.582031 -3.546875 6.023438 -3.234375 6.546875 -3.015625 C 7.066406 -2.804688 7.660156 -2.703125 8.328125 -2.703125 C 8.984375 -2.703125 9.566406 -2.804688 10.078125 -3.015625 C 10.597656 -3.234375 11.035156 -3.546875 11.390625 -3.953125 C 11.753906 -4.359375 12.03125 -4.851562 12.21875 -5.4375 C 12.414062 -6.03125 12.515625 -6.695312 12.515625 -7.4375 Z M 12.515625 -7.4375 "/></g></g></g><g fill="#523e27" fill-opacity="1"><g transform="translate(248.17913, 294.538106)"><g><path d="M 21.703125 -14.875 L 17.109375 0 L 13.984375 0 L 11.1875 -9.21875 C 11.132812 -9.363281 11.082031 -9.519531 11.03125 -9.6875 C 10.988281 -9.863281 10.941406 -10.046875 10.890625 -10.234375 C 10.847656 -10.046875 10.800781 -9.863281 10.75 -9.6875 C 10.707031 -9.519531 10.65625 -9.363281 10.59375 -9.21875 L 7.765625 0 L 4.640625 0 L 0.046875 -14.875 L 2.9375 -14.875 C 3.238281 -14.875 3.488281 -14.804688 3.6875 -14.671875 C 3.894531 -14.535156 4.023438 -14.351562 4.078125 -14.125 L 6.125 -6.375 C 6.1875 -6.125 6.25 -5.851562 6.3125 -5.5625 C 6.375 -5.28125 6.4375 -4.984375 6.5 -4.671875 C 6.613281 -5.304688 6.757812 -5.875 6.9375 -6.375 L 9.359375 -14.125 C 9.410156 -14.320312 9.535156 -14.492188 9.734375 -14.640625 C 9.941406 -14.796875 10.1875 -14.875 10.46875 -14.875 L 11.5 -14.875 C 11.800781 -14.875 12.039062 -14.800781 12.21875 -14.65625 C 12.40625 -14.519531 12.546875 -14.34375 12.640625 -14.125 L 15.03125 -6.375 C 15.207031 -5.894531 15.359375 -5.351562 15.484375 -4.75 C 15.535156 -5.050781 15.585938 -5.335938 15.640625 -5.609375 C 15.703125 -5.878906 15.765625 -6.132812 15.828125 -6.375 L 17.875 -14.125 C 17.925781 -14.320312 18.050781 -14.492188 18.25 -14.640625 C 18.457031 -14.796875 18.707031 -14.875 19 -14.875 Z M 21.703125 -14.875 "/></g></g></g><g fill="#523e27" fill-opacity="1"><g transform="translate(270.888176, 294.538106)"><g><path d="M 12.125 -12.140625 L 7.9375 -12.140625 L 7.9375 0 L 4.5 0 L 4.5 -12.140625 L 0.3125 -12.140625 L 0.3125 -14.875 L 12.125 -14.875 Z M 12.125 -12.140625 "/></g></g></g><g fill="#523e27" fill-opacity="1"><g transform="translate(284.285081, 294.538106)"><g><path d="M 14.421875 -14.875 L 14.421875 0 L 10.953125 0 L 10.953125 -6.296875 L 4.90625 -6.296875 L 4.90625 0 L 1.4375 0 L 1.4375 -14.875 L 4.90625 -14.875 L 4.90625 -8.65625 L 10.953125 -8.65625 L 10.953125 -14.875 Z M 14.421875 -14.875 "/></g></g></g><g fill="#523e27" fill-opacity="1"><g transform="translate(116.620744, 91.83576)"><g><path d="M 7.984375 -10.25 C 7.921875 -10.125 7.847656 -10.035156 7.765625 -9.984375 C 7.679688 -9.929688 7.578125 -9.90625 7.453125 -9.90625 C 7.335938 -9.90625 7.207031 -9.945312 7.0625 -10.03125 C 6.925781 -10.125 6.757812 -10.222656 6.5625 -10.328125 C 6.363281 -10.441406 6.128906 -10.539062 5.859375 -10.625 C 5.597656 -10.71875 5.289062 -10.765625 4.9375 -10.765625 C 4.613281 -10.765625 4.332031 -10.722656 4.09375 -10.640625 C 3.851562 -10.566406 3.648438 -10.460938 3.484375 -10.328125 C 3.316406 -10.191406 3.191406 -10.023438 3.109375 -9.828125 C 3.035156 -9.640625 3 -9.425781 3 -9.1875 C 3 -8.894531 3.078125 -8.648438 3.234375 -8.453125 C 3.398438 -8.253906 3.617188 -8.085938 3.890625 -7.953125 C 4.171875 -7.816406 4.484375 -7.691406 4.828125 -7.578125 C 5.171875 -7.472656 5.519531 -7.359375 5.875 -7.234375 C 6.238281 -7.109375 6.59375 -6.960938 6.9375 -6.796875 C 7.289062 -6.628906 7.601562 -6.421875 7.875 -6.171875 C 8.144531 -5.921875 8.363281 -5.613281 8.53125 -5.25 C 8.695312 -4.882812 8.78125 -4.441406 8.78125 -3.921875 C 8.78125 -3.359375 8.679688 -2.828125 8.484375 -2.328125 C 8.296875 -1.835938 8.015625 -1.410156 7.640625 -1.046875 C 7.265625 -0.679688 6.804688 -0.390625 6.265625 -0.171875 C 5.734375 0.0351562 5.117188 0.140625 4.421875 0.140625 C 4.023438 0.140625 3.632812 0.0976562 3.25 0.015625 C 2.863281 -0.0546875 2.492188 -0.164062 2.140625 -0.3125 C 1.785156 -0.457031 1.453125 -0.628906 1.140625 -0.828125 C 0.828125 -1.035156 0.550781 -1.257812 0.3125 -1.5 L 0.984375 -2.625 C 1.046875 -2.707031 1.125 -2.773438 1.21875 -2.828125 C 1.3125 -2.878906 1.410156 -2.90625 1.515625 -2.90625 C 1.660156 -2.90625 1.816406 -2.847656 1.984375 -2.734375 C 2.148438 -2.617188 2.347656 -2.488281 2.578125 -2.34375 C 2.804688 -2.195312 3.070312 -2.0625 3.375 -1.9375 C 3.6875 -1.820312 4.0625 -1.765625 4.5 -1.765625 C 5.164062 -1.765625 5.675781 -1.921875 6.03125 -2.234375 C 6.394531 -2.554688 6.578125 -3.007812 6.578125 -3.59375 C 6.578125 -3.925781 6.492188 -4.195312 6.328125 -4.40625 C 6.171875 -4.613281 5.957031 -4.785156 5.6875 -4.921875 C 5.414062 -5.066406 5.101562 -5.1875 4.75 -5.28125 C 4.40625 -5.382812 4.050781 -5.492188 3.6875 -5.609375 C 3.332031 -5.722656 2.984375 -5.859375 2.640625 -6.015625 C 2.296875 -6.179688 1.988281 -6.394531 1.71875 -6.65625 C 1.445312 -6.914062 1.226562 -7.238281 1.0625 -7.625 C 0.894531 -8.019531 0.8125 -8.503906 0.8125 -9.078125 C 0.8125 -9.523438 0.898438 -9.96875 1.078125 -10.40625 C 1.265625 -10.84375 1.53125 -11.226562 1.875 -11.5625 C 2.226562 -11.894531 2.660156 -12.160156 3.171875 -12.359375 C 3.679688 -12.566406 4.257812 -12.671875 4.90625 -12.671875 C 5.644531 -12.671875 6.328125 -12.550781 6.953125 -12.3125 C 7.578125 -12.082031 8.109375 -11.757812 8.546875 -11.34375 Z M 7.984375 -10.25 "/></g></g></g><g fill="#523e27" fill-opacity="1"><g transform="translate(128.606986, 91.83576)"><g><path d="M 6.3125 -1.875 C 6.757812 -1.875 7.160156 -1.945312 7.515625 -2.09375 C 7.867188 -2.25 8.164062 -2.460938 8.40625 -2.734375 C 8.65625 -3.003906 8.84375 -3.332031 8.96875 -3.71875 C 9.101562 -4.113281 9.171875 -4.550781 9.171875 -5.03125 L 9.171875 -12.53125 L 11.5 -12.53125 L 11.5 -5.03125 C 11.5 -4.28125 11.378906 -3.585938 11.140625 -2.953125 C 10.898438 -2.328125 10.554688 -1.78125 10.109375 -1.3125 C 9.660156 -0.851562 9.113281 -0.492188 8.46875 -0.234375 C 7.832031 0.015625 7.113281 0.140625 6.3125 0.140625 C 5.507812 0.140625 4.785156 0.015625 4.140625 -0.234375 C 3.503906 -0.492188 2.960938 -0.851562 2.515625 -1.3125 C 2.066406 -1.78125 1.722656 -2.328125 1.484375 -2.953125 C 1.242188 -3.585938 1.125 -4.28125 1.125 -5.03125 L 1.125 -12.53125 L 3.453125 -12.53125 L 3.453125 -5.03125 C 3.453125 -4.550781 3.515625 -4.117188 3.640625 -3.734375 C 3.773438 -3.347656 3.960938 -3.015625 4.203125 -2.734375 C 4.441406 -2.460938 4.738281 -2.25 5.09375 -2.09375 C 5.445312 -1.945312 5.851562 -1.875 6.3125 -1.875 Z M 6.3125 -1.875 "/></g></g></g><g fill="#523e27" fill-opacity="1"><g transform="translate(143.912464, 91.83576)"><g><path d="M 7.984375 -10.25 C 7.921875 -10.125 7.847656 -10.035156 7.765625 -9.984375 C 7.679688 -9.929688 7.578125 -9.90625 7.453125 -9.90625 C 7.335938 -9.90625 7.207031 -9.945312 7.0625 -10.03125 C 6.925781 -10.125 6.757812 -10.222656 6.5625 -10.328125 C 6.363281 -10.441406 6.128906 -10.539062 5.859375 -10.625 C 5.597656 -10.71875 5.289062 -10.765625 4.9375 -10.765625 C 4.613281 -10.765625 4.332031 -10.722656 4.09375 -10.640625 C 3.851562 -10.566406 3.648438 -10.460938 3.484375 -10.328125 C 3.316406 -10.191406 3.191406 -10.023438 3.109375 -9.828125 C 3.035156 -9.640625 3 -9.425781 3 -9.1875 C 3 -8.894531 3.078125 -8.648438 3.234375 -8.453125 C 3.398438 -8.253906 3.617188 -8.085938 3.890625 -7.953125 C 4.171875 -7.816406 4.484375 -7.691406 4.828125 -7.578125 C 5.171875 -7.472656 5.519531 -7.359375 5.875 -7.234375 C 6.238281 -7.109375 6.59375 -6.960938 6.9375 -6.796875 C 7.289062 -6.628906 7.601562 -6.421875 7.875 -6.171875 C 8.144531 -5.921875 8.363281 -5.613281 8.53125 -5.25 C 8.695312 -4.882812 8.78125 -4.441406 8.78125 -3.921875 C 8.78125 -3.359375 8.679688 -2.828125 8.484375 -2.328125 C 8.296875 -1.835938 8.015625 -1.410156 7.640625 -1.046875 C 7.265625 -0.679688 6.804688 -0.390625 6.265625 -0.171875 C 5.734375 0.0351562 5.117188 0.140625 4.421875 0.140625 C 4.023438 0.140625 3.632812 0.0976562 3.25 0.015625 C 2.863281 -0.0546875 2.492188 -0.164062 2.140625 -0.3125 C 1.785156 -0.457031 1.453125 -0.628906 1.140625 -0.828125 C 0.828125 -1.035156 0.550781 -1.257812 0.3125 -1.5 L 0.984375 -2.625 C 1.046875 -2.707031 1.125 -2.773438 1.21875 -2.828125 C 1.3125 -2.878906 1.410156 -2.90625 1.515625 -2.90625 C 1.660156 -2.90625 1.816406 -2.847656 1.984375 -2.734375 C 2.148438 -2.617188 2.347656 -2.488281 2.578125 -2.34375 C 2.804688 -2.195312 3.070312 -2.0625 3.375 -1.9375 C 3.6875 -1.820312 4.0625 -1.765625 4.5 -1.765625 C 5.164062 -1.765625 5.675781 -1.921875 6.03125 -2.234375 C 6.394531 -2.554688 6.578125 -3.007812 6.578125 -3.59375 C 6.578125 -3.925781 6.492188 -4.195312 6.328125 -4.40625 C 6.171875 -4.613281 5.957031 -4.785156 5.6875 -4.921875 C 5.414062 -5.066406 5.101562 -5.1875 4.75 -5.28125 C 4.40625 -5.382812 4.050781 -5.492188 3.6875 -5.609375 C 3.332031 -5.722656 2.984375 -5.859375 2.640625 -6.015625 C 2.296875 -6.179688 1.988281 -6.394531 1.71875 -6.65625 C 1.445312 -6.914062 1.226562 -7.238281 1.0625 -7.625 C 0.894531 -8.019531 0.8125 -8.503906 0.8125 -9.078125 C 0.8125 -9.523438 0.898438 -9.96875 1.078125 -10.40625 C 1.265625 -10.84375 1.53125 -11.226562 1.875 -11.5625 C 2.226562 -11.894531 2.660156 -12.160156 3.171875 -12.359375 C 3.679688 -12.566406 4.257812 -12.671875 4.90625 -12.671875 C 5.644531 -12.671875 6.328125 -12.550781 6.953125 -12.3125 C 7.578125 -12.082031 8.109375 -11.757812 8.546875 -11.34375 Z M 7.984375 -10.25 "/></g></g></g><g fill="#523e27" fill-opacity="1"><g transform="translate(155.898705, 91.83576)"><g><path d="M 10.09375 -12.53125 L 10.09375 -10.609375 L 6.328125 -10.609375 L 6.328125 0 L 4 0 L 4 -10.609375 L 0.203125 -10.609375 L 0.203125 -12.53125 Z M 10.09375 -12.53125 "/></g></g></g><g fill="#523e27" fill-opacity="1"><g transform="translate(168.898919, 91.83576)"><g><path d="M 12.28125 0 L 10.46875 0 C 10.269531 0 10.101562 -0.046875 9.96875 -0.140625 C 9.84375 -0.242188 9.75 -0.375 9.6875 -0.53125 L 8.765625 -3.078125 L 3.5625 -3.078125 L 2.640625 -0.53125 C 2.585938 -0.394531 2.492188 -0.269531 2.359375 -0.15625 C 2.222656 -0.0507812 2.054688 0 1.859375 0 L 0.046875 0 L 4.96875 -12.53125 L 7.359375 -12.53125 Z M 4.171875 -4.734375 L 8.15625 -4.734375 L 6.640625 -8.890625 C 6.566406 -9.078125 6.488281 -9.296875 6.40625 -9.546875 C 6.320312 -9.796875 6.238281 -10.070312 6.15625 -10.375 C 6.070312 -10.070312 5.992188 -9.796875 5.921875 -9.546875 C 5.847656 -9.296875 5.769531 -9.070312 5.6875 -8.875 Z M 4.171875 -4.734375 "/></g></g></g><g fill="#523e27" fill-opacity="1"><g transform="translate(183.8924, 91.83576)"><g><path d="M 3.890625 0 L 1.546875 0 L 1.546875 -12.53125 L 3.890625 -12.53125 Z M 3.890625 0 "/></g></g></g><g fill="#523e27" fill-opacity="1"><g transform="translate(192.022087, 91.83576)"><g><path d="M 2.484375 -12.53125 C 2.585938 -12.53125 2.671875 -12.523438 2.734375 -12.515625 C 2.804688 -12.503906 2.867188 -12.484375 2.921875 -12.453125 C 2.984375 -12.429688 3.039062 -12.394531 3.09375 -12.34375 C 3.144531 -12.300781 3.203125 -12.238281 3.265625 -12.15625 L 9.84375 -3.78125 C 9.820312 -3.976562 9.804688 -4.171875 9.796875 -4.359375 C 9.785156 -4.554688 9.78125 -4.738281 9.78125 -4.90625 L 9.78125 -12.53125 L 11.828125 -12.53125 L 11.828125 0 L 10.625 0 C 10.445312 0 10.296875 -0.0234375 10.171875 -0.078125 C 10.046875 -0.140625 9.925781 -0.25 9.8125 -0.40625 L 3.265625 -8.734375 C 3.285156 -8.554688 3.296875 -8.375 3.296875 -8.1875 C 3.304688 -8.007812 3.3125 -7.84375 3.3125 -7.6875 L 3.3125 0 L 1.265625 0 L 1.265625 -12.53125 Z M 2.484375 -12.53125 "/></g></g></g><g fill="#523e27" fill-opacity="1"><g transform="translate(207.812885, 91.83576)"><g><path d="M 12.28125 0 L 10.46875 0 C 10.269531 0 10.101562 -0.046875 9.96875 -0.140625 C 9.84375 -0.242188 9.75 -0.375 9.6875 -0.53125 L 8.765625 -3.078125 L 3.5625 -3.078125 L 2.640625 -0.53125 C 2.585938 -0.394531 2.492188 -0.269531 2.359375 -0.15625 C 2.222656 -0.0507812 2.054688 0 1.859375 0 L 0.046875 0 L 4.96875 -12.53125 L 7.359375 -12.53125 Z M 4.171875 -4.734375 L 8.15625 -4.734375 L 6.640625 -8.890625 C 6.566406 -9.078125 6.488281 -9.296875 6.40625 -9.546875 C 6.320312 -9.796875 6.238281 -10.070312 6.15625 -10.375 C 6.070312 -10.070312 5.992188 -9.796875 5.921875 -9.546875 C 5.847656 -9.296875 5.769531 -9.070312 5.6875 -8.875 Z M 4.171875 -4.734375 "/></g></g></g><g fill="#523e27" fill-opacity="1"><g transform="translate(222.806367, 91.83576)"><g><path d="M 1.265625 0 L 1.265625 -12.53125 L 5.59375 -12.53125 C 6.40625 -12.53125 7.101562 -12.453125 7.6875 -12.296875 C 8.269531 -12.140625 8.742188 -11.914062 9.109375 -11.625 C 9.484375 -11.332031 9.757812 -10.984375 9.9375 -10.578125 C 10.113281 -10.171875 10.203125 -9.707031 10.203125 -9.1875 C 10.203125 -8.894531 10.15625 -8.613281 10.0625 -8.34375 C 9.976562 -8.070312 9.84375 -7.820312 9.65625 -7.59375 C 9.476562 -7.363281 9.25 -7.148438 8.96875 -6.953125 C 8.6875 -6.765625 8.351562 -6.601562 7.96875 -6.46875 C 9.6875 -6.082031 10.546875 -5.15625 10.546875 -3.6875 C 10.546875 -3.15625 10.445312 -2.660156 10.25 -2.203125 C 10.050781 -1.753906 9.753906 -1.363281 9.359375 -1.03125 C 8.972656 -0.707031 8.5 -0.453125 7.9375 -0.265625 C 7.375 -0.0859375 6.726562 0 6 0 Z M 3.59375 -5.5 L 3.59375 -1.8125 L 5.953125 -1.8125 C 6.390625 -1.8125 6.753906 -1.863281 7.046875 -1.96875 C 7.335938 -2.070312 7.570312 -2.210938 7.75 -2.390625 C 7.925781 -2.566406 8.050781 -2.769531 8.125 -3 C 8.207031 -3.226562 8.25 -3.472656 8.25 -3.734375 C 8.25 -4.003906 8.203125 -4.25 8.109375 -4.46875 C 8.023438 -4.6875 7.890625 -4.867188 7.703125 -5.015625 C 7.523438 -5.171875 7.289062 -5.289062 7 -5.375 C 6.707031 -5.457031 6.359375 -5.5 5.953125 -5.5 Z M 3.59375 -7.109375 L 5.453125 -7.109375 C 6.242188 -7.109375 6.84375 -7.25 7.25 -7.53125 C 7.664062 -7.820312 7.875 -8.285156 7.875 -8.921875 C 7.875 -9.566406 7.6875 -10.023438 7.3125 -10.296875 C 6.945312 -10.578125 6.375 -10.71875 5.59375 -10.71875 L 3.59375 -10.71875 Z M 3.59375 -7.109375 "/></g></g></g><g fill="#523e27" fill-opacity="1"><g transform="translate(236.785871, 91.83576)"><g><path d="M 3.59375 -1.921875 L 8.609375 -1.921875 L 8.609375 0 L 1.265625 0 L 1.265625 -12.53125 L 3.59375 -12.53125 Z M 3.59375 -1.921875 "/></g></g></g><g fill="#523e27" fill-opacity="1"><g transform="translate(248.434123, 91.83576)"><g><path d="M 9.171875 -12.53125 L 9.171875 -10.671875 L 3.609375 -10.671875 L 3.609375 -7.203125 L 7.984375 -7.203125 L 7.984375 -5.40625 L 3.609375 -5.40625 L 3.609375 -1.859375 L 9.171875 -1.859375 L 9.171875 0 L 1.265625 0 L 1.265625 -12.53125 Z M 9.171875 -12.53125 "/></g></g></g><g fill="#523e27" fill-opacity="1"><g transform="translate(65.050463, 111.603773)"><g><path d="M 12.390625 -6.265625 C 12.390625 -5.347656 12.234375 -4.503906 11.921875 -3.734375 C 11.617188 -2.960938 11.191406 -2.300781 10.640625 -1.75 C 10.085938 -1.195312 9.421875 -0.765625 8.640625 -0.453125 C 7.859375 -0.148438 6.992188 0 6.046875 0 L 1.265625 0 L 1.265625 -12.53125 L 6.046875 -12.53125 C 6.992188 -12.53125 7.859375 -12.375 8.640625 -12.0625 C 9.421875 -11.75 10.085938 -11.316406 10.640625 -10.765625 C 11.191406 -10.222656 11.617188 -9.566406 11.921875 -8.796875 C 12.234375 -8.023438 12.390625 -7.179688 12.390625 -6.265625 Z M 10 -6.265625 C 10 -6.953125 9.90625 -7.566406 9.71875 -8.109375 C 9.539062 -8.660156 9.28125 -9.125 8.9375 -9.5 C 8.601562 -9.875 8.191406 -10.160156 7.703125 -10.359375 C 7.210938 -10.566406 6.660156 -10.671875 6.046875 -10.671875 L 3.609375 -10.671875 L 3.609375 -1.859375 L 6.046875 -1.859375 C 6.660156 -1.859375 7.210938 -1.957031 7.703125 -2.15625 C 8.191406 -2.351562 8.601562 -2.640625 8.9375 -3.015625 C 9.28125 -3.398438 9.539062 -3.863281 9.71875 -4.40625 C 9.90625 -4.957031 10 -5.578125 10 -6.265625 Z M 10 -6.265625 "/></g></g></g><g fill="#523e27" fill-opacity="1"><g transform="translate(80.693924, 111.603773)"><g><path d="M 9.171875 -12.53125 L 9.171875 -10.671875 L 3.609375 -10.671875 L 3.609375 -7.203125 L 7.984375 -7.203125 L 7.984375 -5.40625 L 3.609375 -5.40625 L 3.609375 -1.859375 L 9.171875 -1.859375 L 9.171875 0 L 1.265625 0 L 1.265625 -12.53125 Z M 9.171875 -12.53125 "/></g></g></g><g fill="#523e27" fill-opacity="1"><g transform="translate(93.304146, 111.603773)"><g><path d="M 0.03125 -12.53125 L 1.921875 -12.53125 C 2.117188 -12.53125 2.28125 -12.476562 2.40625 -12.375 C 2.53125 -12.28125 2.625 -12.15625 2.6875 -12 L 5.640625 -4.359375 C 5.734375 -4.109375 5.828125 -3.832031 5.921875 -3.53125 C 6.015625 -3.238281 6.097656 -2.925781 6.171875 -2.59375 C 6.304688 -3.257812 6.472656 -3.847656 6.671875 -4.359375 L 9.609375 -12 C 9.660156 -12.132812 9.75 -12.253906 9.875 -12.359375 C 10.007812 -12.472656 10.175781 -12.53125 10.375 -12.53125 L 12.265625 -12.53125 L 7.203125 0 L 5.09375 0 Z M 0.03125 -12.53125 "/></g></g></g><g fill="#523e27" fill-opacity="1"><g transform="translate(108.297628, 111.603773)"><g><path d="M 9.171875 -12.53125 L 9.171875 -10.671875 L 3.609375 -10.671875 L 3.609375 -7.203125 L 7.984375 -7.203125 L 7.984375 -5.40625 L 3.609375 -5.40625 L 3.609375 -1.859375 L 9.171875 -1.859375 L 9.171875 0 L 1.265625 0 L 1.265625 -12.53125 Z M 9.171875 -12.53125 "/></g></g></g><g fill="#523e27" fill-opacity="1"><g transform="translate(120.907849, 111.603773)"><g><path d="M 3.59375 -1.921875 L 8.609375 -1.921875 L 8.609375 0 L 1.265625 0 L 1.265625 -12.53125 L 3.59375 -12.53125 Z M 3.59375 -1.921875 "/></g></g></g><g fill="#523e27" fill-opacity="1"><g transform="translate(132.556095, 111.603773)"><g><path d="M 13.28125 -6.265625 C 13.28125 -5.347656 13.125 -4.492188 12.8125 -3.703125 C 12.507812 -2.921875 12.082031 -2.242188 11.53125 -1.671875 C 10.976562 -1.109375 10.3125 -0.664062 9.53125 -0.34375 C 8.75 -0.0195312 7.882812 0.140625 6.9375 0.140625 C 5.988281 0.140625 5.125 -0.0195312 4.34375 -0.34375 C 3.5625 -0.664062 2.890625 -1.109375 2.328125 -1.671875 C 1.773438 -2.242188 1.34375 -2.921875 1.03125 -3.703125 C 0.726562 -4.492188 0.578125 -5.347656 0.578125 -6.265625 C 0.578125 -7.179688 0.726562 -8.03125 1.03125 -8.8125 C 1.34375 -9.59375 1.773438 -10.269531 2.328125 -10.84375 C 2.890625 -11.414062 3.5625 -11.863281 4.34375 -12.1875 C 5.125 -12.507812 5.988281 -12.671875 6.9375 -12.671875 C 7.882812 -12.671875 8.75 -12.507812 9.53125 -12.1875 C 10.3125 -11.863281 10.976562 -11.414062 11.53125 -10.84375 C 12.082031 -10.269531 12.507812 -9.59375 12.8125 -8.8125 C 13.125 -8.03125 13.28125 -7.179688 13.28125 -6.265625 Z M 10.890625 -6.265625 C 10.890625 -6.953125 10.796875 -7.566406 10.609375 -8.109375 C 10.429688 -8.660156 10.171875 -9.125 9.828125 -9.5 C 9.492188 -9.882812 9.082031 -10.175781 8.59375 -10.375 C 8.101562 -10.582031 7.550781 -10.6875 6.9375 -10.6875 C 6.320312 -10.6875 5.769531 -10.582031 5.28125 -10.375 C 4.789062 -10.175781 4.375 -9.882812 4.03125 -9.5 C 3.6875 -9.125 3.421875 -8.660156 3.234375 -8.109375 C 3.054688 -7.566406 2.96875 -6.953125 2.96875 -6.265625 C 2.96875 -5.578125 3.054688 -4.957031 3.234375 -4.40625 C 3.421875 -3.863281 3.6875 -3.398438 4.03125 -3.015625 C 4.375 -2.640625 4.789062 -2.351562 5.28125 -2.15625 C 5.769531 -1.957031 6.320312 -1.859375 6.9375 -1.859375 C 7.550781 -1.859375 8.101562 -1.957031 8.59375 -2.15625 C 9.082031 -2.351562 9.492188 -2.640625 9.828125 -3.015625 C 10.171875 -3.398438 10.429688 -3.863281 10.609375 -4.40625 C 10.796875 -4.957031 10.890625 -5.578125 10.890625 -6.265625 Z M 10.890625 -6.265625 "/></g></g></g><g fill="#523e27" fill-opacity="1"><g transform="translate(149.100867, 111.603773)"><g><path d="M 3.671875 -4.40625 L 3.671875 0 L 1.34375 0 L 1.34375 -12.53125 L 5.421875 -12.53125 C 6.265625 -12.53125 6.988281 -12.429688 7.59375 -12.234375 C 8.207031 -12.035156 8.710938 -11.757812 9.109375 -11.40625 C 9.515625 -11.050781 9.8125 -10.628906 10 -10.140625 C 10.1875 -9.648438 10.28125 -9.113281 10.28125 -8.53125 C 10.28125 -7.925781 10.175781 -7.367188 9.96875 -6.859375 C 9.769531 -6.359375 9.46875 -5.925781 9.0625 -5.5625 C 8.664062 -5.195312 8.160156 -4.910156 7.546875 -4.703125 C 6.941406 -4.503906 6.234375 -4.40625 5.421875 -4.40625 Z M 3.671875 -6.234375 L 5.421875 -6.234375 C 5.847656 -6.234375 6.21875 -6.285156 6.53125 -6.390625 C 6.851562 -6.492188 7.117188 -6.644531 7.328125 -6.84375 C 7.535156 -7.039062 7.691406 -7.28125 7.796875 -7.5625 C 7.898438 -7.851562 7.953125 -8.175781 7.953125 -8.53125 C 7.953125 -8.863281 7.898438 -9.164062 7.796875 -9.4375 C 7.691406 -9.707031 7.535156 -9.9375 7.328125 -10.125 C 7.117188 -10.320312 6.851562 -10.46875 6.53125 -10.5625 C 6.21875 -10.664062 5.847656 -10.71875 5.421875 -10.71875 L 3.671875 -10.71875 Z M 3.671875 -6.234375 "/></g></g></g><g fill="#523e27" fill-opacity="1"><g transform="translate(162.62106, 111.603773)"><g><path d="M 7.5625 -5.203125 C 7.65625 -5.015625 7.742188 -4.820312 7.828125 -4.625 C 7.910156 -4.425781 7.992188 -4.222656 8.078125 -4.015625 C 8.160156 -4.222656 8.242188 -4.425781 8.328125 -4.625 C 8.410156 -4.832031 8.503906 -5.03125 8.609375 -5.21875 L 12.3125 -12.15625 C 12.351562 -12.238281 12.398438 -12.304688 12.453125 -12.359375 C 12.503906 -12.410156 12.554688 -12.445312 12.609375 -12.46875 C 12.671875 -12.5 12.738281 -12.515625 12.8125 -12.515625 C 12.894531 -12.523438 12.988281 -12.53125 13.09375 -12.53125 L 14.84375 -12.53125 L 14.84375 0 L 12.796875 0 L 12.796875 -8.09375 C 12.796875 -8.238281 12.800781 -8.398438 12.8125 -8.578125 C 12.820312 -8.765625 12.832031 -8.945312 12.84375 -9.125 L 9.0625 -2.03125 C 8.976562 -1.863281 8.863281 -1.734375 8.71875 -1.640625 C 8.582031 -1.554688 8.421875 -1.515625 8.234375 -1.515625 L 7.921875 -1.515625 C 7.734375 -1.515625 7.566406 -1.554688 7.421875 -1.640625 C 7.285156 -1.734375 7.175781 -1.863281 7.09375 -2.03125 L 3.25 -9.15625 C 3.28125 -8.96875 3.296875 -8.78125 3.296875 -8.59375 C 3.304688 -8.414062 3.3125 -8.25 3.3125 -8.09375 L 3.3125 0 L 1.265625 0 L 1.265625 -12.53125 L 3.03125 -12.53125 C 3.132812 -12.53125 3.222656 -12.523438 3.296875 -12.515625 C 3.367188 -12.515625 3.4375 -12.5 3.5 -12.46875 C 3.5625 -12.445312 3.617188 -12.410156 3.671875 -12.359375 C 3.722656 -12.304688 3.769531 -12.238281 3.8125 -12.15625 Z M 7.5625 -5.203125 "/></g></g></g><g fill="#523e27" fill-opacity="1"><g transform="translate(181.42776, 111.603773)"><g><path d="M 9.171875 -12.53125 L 9.171875 -10.671875 L 3.609375 -10.671875 L 3.609375 -7.203125 L 7.984375 -7.203125 L 7.984375 -5.40625 L 3.609375 -5.40625 L 3.609375 -1.859375 L 9.171875 -1.859375 L 9.171875 0 L 1.265625 0 L 1.265625 -12.53125 Z M 9.171875 -12.53125 "/></g></g></g><g fill="#523e27" fill-opacity="1"><g transform="translate(194.037976, 111.603773)"><g><path d="M 2.484375 -12.53125 C 2.585938 -12.53125 2.671875 -12.523438 2.734375 -12.515625 C 2.804688 -12.503906 2.867188 -12.484375 2.921875 -12.453125 C 2.984375 -12.429688 3.039062 -12.394531 3.09375 -12.34375 C 3.144531 -12.300781 3.203125 -12.238281 3.265625 -12.15625 L 9.84375 -3.78125 C 9.820312 -3.976562 9.804688 -4.171875 9.796875 -4.359375 C 9.785156 -4.554688 9.78125 -4.738281 9.78125 -4.90625 L 9.78125 -12.53125 L 11.828125 -12.53125 L 11.828125 0 L 10.625 0 C 10.445312 0 10.296875 -0.0234375 10.171875 -0.078125 C 10.046875 -0.140625 9.925781 -0.25 9.8125 -0.40625 L 3.265625 -8.734375 C 3.285156 -8.554688 3.296875 -8.375 3.296875 -8.1875 C 3.304688 -8.007812 3.3125 -7.84375 3.3125 -7.6875 L 3.3125 0 L 1.265625 0 L 1.265625 -12.53125 Z M 2.484375 -12.53125 "/></g></g></g><g fill="#523e27" fill-opacity="1"><g transform="translate(209.82878, 111.603773)"><g><path d="M 10.09375 -12.53125 L 10.09375 -10.609375 L 6.328125 -10.609375 L 6.328125 0 L 4 0 L 4 -10.609375 L 0.203125 -10.609375 L 0.203125 -12.53125 Z M 10.09375 -12.53125 "/></g></g></g><g fill="#523e27" fill-opacity="1"><g transform="translate(222.828987, 111.603773)"><g/></g></g><g fill="#523e27" fill-opacity="1"><g transform="translate(228.861405, 111.603773)"><g><path d="M 3.671875 -4.890625 L 3.671875 0 L 1.34375 0 L 1.34375 -12.53125 L 5.15625 -12.53125 C 6.019531 -12.53125 6.753906 -12.441406 7.359375 -12.265625 C 7.972656 -12.085938 8.472656 -11.835938 8.859375 -11.515625 C 9.242188 -11.203125 9.523438 -10.820312 9.703125 -10.375 C 9.890625 -9.9375 9.984375 -9.453125 9.984375 -8.921875 C 9.984375 -8.503906 9.921875 -8.109375 9.796875 -7.734375 C 9.671875 -7.359375 9.492188 -7.015625 9.265625 -6.703125 C 9.035156 -6.398438 8.75 -6.128906 8.40625 -5.890625 C 8.0625 -5.660156 7.664062 -5.476562 7.21875 -5.34375 C 7.519531 -5.175781 7.773438 -4.9375 7.984375 -4.625 L 11.125 0 L 9.03125 0 C 8.820312 0 8.644531 -0.0390625 8.5 -0.125 C 8.363281 -0.207031 8.25 -0.320312 8.15625 -0.46875 L 5.515625 -4.484375 C 5.421875 -4.628906 5.3125 -4.734375 5.1875 -4.796875 C 5.070312 -4.859375 4.898438 -4.890625 4.671875 -4.890625 Z M 3.671875 -6.5625 L 5.125 -6.5625 C 5.5625 -6.5625 5.941406 -6.613281 6.265625 -6.71875 C 6.597656 -6.832031 6.867188 -6.988281 7.078125 -7.1875 C 7.296875 -7.382812 7.457031 -7.613281 7.5625 -7.875 C 7.664062 -8.144531 7.71875 -8.4375 7.71875 -8.75 C 7.71875 -9.382812 7.503906 -9.867188 7.078125 -10.203125 C 6.660156 -10.546875 6.019531 -10.71875 5.15625 -10.71875 L 3.671875 -10.71875 Z M 3.671875 -6.5625 "/></g></g></g><g fill="#523e27" fill-opacity="1"><g transform="translate(242.901584, 111.603773)"><g><path d="M 9.171875 -12.53125 L 9.171875 -10.671875 L 3.609375 -10.671875 L 3.609375 -7.203125 L 7.984375 -7.203125 L 7.984375 -5.40625 L 3.609375 -5.40625 L 3.609375 -1.859375 L 9.171875 -1.859375 L 9.171875 0 L 1.265625 0 L 1.265625 -12.53125 Z M 9.171875 -12.53125 "/></g></g></g><g fill="#523e27" fill-opacity="1"><g transform="translate(255.5118, 111.603773)"><g><path d="M 3.671875 -4.40625 L 3.671875 0 L 1.34375 0 L 1.34375 -12.53125 L 5.421875 -12.53125 C 6.265625 -12.53125 6.988281 -12.429688 7.59375 -12.234375 C 8.207031 -12.035156 8.710938 -11.757812 9.109375 -11.40625 C 9.515625 -11.050781 9.8125 -10.628906 10 -10.140625 C 10.1875 -9.648438 10.28125 -9.113281 10.28125 -8.53125 C 10.28125 -7.925781 10.175781 -7.367188 9.96875 -6.859375 C 9.769531 -6.359375 9.46875 -5.925781 9.0625 -5.5625 C 8.664062 -5.195312 8.160156 -4.910156 7.546875 -4.703125 C 6.941406 -4.503906 6.234375 -4.40625 5.421875 -4.40625 Z M 3.671875 -6.234375 L 5.421875 -6.234375 C 5.847656 -6.234375 6.21875 -6.285156 6.53125 -6.390625 C 6.851562 -6.492188 7.117188 -6.644531 7.328125 -6.84375 C 7.535156 -7.039062 7.691406 -7.28125 7.796875 -7.5625 C 7.898438 -7.851562 7.953125 -8.175781 7.953125 -8.53125 C 7.953125 -8.863281 7.898438 -9.164062 7.796875 -9.4375 C 7.691406 -9.707031 7.535156 -9.9375 7.328125 -10.125 C 7.117188 -10.320312 6.851562 -10.46875 6.53125 -10.5625 C 6.21875 -10.664062 5.847656 -10.71875 5.421875 -10.71875 L 3.671875 -10.71875 Z M 3.671875 -6.234375 "/></g></g></g><g fill="#523e27" fill-opacity="1"><g transform="translate(269.032005, 111.603773)"><g><path d="M 13.28125 -6.265625 C 13.28125 -5.347656 13.125 -4.492188 12.8125 -3.703125 C 12.507812 -2.921875 12.082031 -2.242188 11.53125 -1.671875 C 10.976562 -1.109375 10.3125 -0.664062 9.53125 -0.34375 C 8.75 -0.0195312 7.882812 0.140625 6.9375 0.140625 C 5.988281 0.140625 5.125 -0.0195312 4.34375 -0.34375 C 3.5625 -0.664062 2.890625 -1.109375 2.328125 -1.671875 C 1.773438 -2.242188 1.34375 -2.921875 1.03125 -3.703125 C 0.726562 -4.492188 0.578125 -5.347656 0.578125 -6.265625 C 0.578125 -7.179688 0.726562 -8.03125 1.03125 -8.8125 C 1.34375 -9.59375 1.773438 -10.269531 2.328125 -10.84375 C 2.890625 -11.414062 3.5625 -11.863281 4.34375 -12.1875 C 5.125 -12.507812 5.988281 -12.671875 6.9375 -12.671875 C 7.882812 -12.671875 8.75 -12.507812 9.53125 -12.1875 C 10.3125 -11.863281 10.976562 -11.414062 11.53125 -10.84375 C 12.082031 -10.269531 12.507812 -9.59375 12.8125 -8.8125 C 13.125 -8.03125 13.28125 -7.179688 13.28125 -6.265625 Z M 10.890625 -6.265625 C 10.890625 -6.953125 10.796875 -7.566406 10.609375 -8.109375 C 10.429688 -8.660156 10.171875 -9.125 9.828125 -9.5 C 9.492188 -9.882812 9.082031 -10.175781 8.59375 -10.375 C 8.101562 -10.582031 7.550781 -10.6875 6.9375 -10.6875 C 6.320312 -10.6875 5.769531 -10.582031 5.28125 -10.375 C 4.789062 -10.175781 4.375 -9.882812 4.03125 -9.5 C 3.6875 -9.125 3.421875 -8.660156 3.234375 -8.109375 C 3.054688 -7.566406 2.96875 -6.953125 2.96875 -6.265625 C 2.96875 -5.578125 3.054688 -4.957031 3.234375 -4.40625 C 3.421875 -3.863281 3.6875 -3.398438 4.03125 -3.015625 C 4.375 -2.640625 4.789062 -2.351562 5.28125 -2.15625 C 5.769531 -1.957031 6.320312 -1.859375 6.9375 -1.859375 C 7.550781 -1.859375 8.101562 -1.957031 8.59375 -2.15625 C 9.082031 -2.351562 9.492188 -2.640625 9.828125 -3.015625 C 10.171875 -3.398438 10.429688 -3.863281 10.609375 -4.40625 C 10.796875 -4.957031 10.890625 -5.578125 10.890625 -6.265625 Z M 10.890625 -6.265625 "/></g></g></g><g fill="#523e27" fill-opacity="1"><g transform="translate(285.576783, 111.603773)"><g><path d="M 3.671875 -4.890625 L 3.671875 0 L 1.34375 0 L 1.34375 -12.53125 L 5.15625 -12.53125 C 6.019531 -12.53125 6.753906 -12.441406 7.359375 -12.265625 C 7.972656 -12.085938 8.472656 -11.835938 8.859375 -11.515625 C 9.242188 -11.203125 9.523438 -10.820312 9.703125 -10.375 C 9.890625 -9.9375 9.984375 -9.453125 9.984375 -8.921875 C 9.984375 -8.503906 9.921875 -8.109375 9.796875 -7.734375 C 9.671875 -7.359375 9.492188 -7.015625 9.265625 -6.703125 C 9.035156 -6.398438 8.75 -6.128906 8.40625 -5.890625 C 8.0625 -5.660156 7.664062 -5.476562 7.21875 -5.34375 C 7.519531 -5.175781 7.773438 -4.9375 7.984375 -4.625 L 11.125 0 L 9.03125 0 C 8.820312 0 8.644531 -0.0390625 8.5 -0.125 C 8.363281 -0.207031 8.25 -0.320312 8.15625 -0.46875 L 5.515625 -4.484375 C 5.421875 -4.628906 5.3125 -4.734375 5.1875 -4.796875 C 5.070312 -4.859375 4.898438 -4.890625 4.671875 -4.890625 Z M 3.671875 -6.5625 L 5.125 -6.5625 C 5.5625 -6.5625 5.941406 -6.613281 6.265625 -6.71875 C 6.597656 -6.832031 6.867188 -6.988281 7.078125 -7.1875 C 7.296875 -7.382812 7.457031 -7.613281 7.5625 -7.875 C 7.664062 -8.144531 7.71875 -8.4375 7.71875 -8.75 C 7.71875 -9.382812 7.503906 -9.867188 7.078125 -10.203125 C 6.660156 -10.546875 6.019531 -10.71875 5.15625 -10.71875 L 3.671875 -10.71875 Z M 3.671875 -6.5625 "/></g></g></g><g fill="#523e27" fill-opacity="1"><g transform="translate(299.616962, 111.603773)"><g><path d="M 10.09375 -12.53125 L 10.09375 -10.609375 L 6.328125 -10.609375 L 6.328125 0 L 4 0 L 4 -10.609375 L 0.203125 -10.609375 L 0.203125 -12.53125 Z M 10.09375 -12.53125 "/></g></g></g></svg>